<svg viewBox="-10 -10 1020 1219.3587" xmlns="http://www.w3.org/2000/svg" xmlns:xlink="http://www.w3.org/1999/xlink" version="1.1" width="1020" height="1219.3587"><style></style><g transform="translate(500,599.67935)scale(10,10)translate(-50,-59.967935)" style="transition:transform 0.5s"><g><g></g></g><g transform="translate(0,0)" style="transition:transform 0.5s"></g><g style="transition:transform 0.5s"><g><metadata xmlns:rdf="http://www.w3.org/1999/02/22-rdf-syntax-ns#" xmlns:cc="http://creativecommons.org/ns#" xmlns:dc="http://purl.org/dc/elements/1.1/"><rdf:RDF><rdf:Description dc:title="Alkenstar" dc:creator="kosen"></rdf:Description><cc:Work rdf:about="https://heraldicon.org/arms/FdcNTR/7"><cc:license rdf:resource="private"></cc:license><cc:attributionName>Alkenstar by kosen</cc:attributionName><cc:attributionURL rdf:resource="https://heraldicon.org/users/kosen"></cc:attributionURL></cc:Work><cc:License rdf:about="private"></cc:License></rdf:RDF></metadata><defs><pattern width="20" height="20" patternUnits="userSpaceOnUse" id="void"><rect x="0" y="0" width="20" height="20" fill="#fff" class="light"></rect><rect x="0" y="0" width="10" height="10" fill="#ddd" class="dark"></rect><rect x="10" y="10" width="10" height="10" fill="#ddd" class="dark"></rect></pattern><pattern width="4" height="4" patternUnits="userSpaceOnUse" id="selected"><rect x="0" y="0" width="4" height="4" fill="#f5f5f5"></rect><g fill="#000"><circle cx="0" cy="0" r="0.3"></circle><circle cx="4" cy="0" r="0.3"></circle><circle cx="0" cy="4" r="0.3"></circle><circle cx="4" cy="4" r="0.3"></circle><circle cx="2" cy="2" r="0.3"></circle></g></pattern><pattern id="ermine" width="12.5" height="20" patternUnits="userSpaceOnUse" x="-3.125" y="-5"><rect x="0" y="0" width="12.5" height="20" fill="#f6f6f6"></rect><g fill="#333333"><path d="M 47.757634,0 C 60.324696,15.689314 25.136924,21.898666 44.167046,36.607392
    52.24587,41.673746 71.273896,30.723464 54.57765,17.322176
    52.423302,16.178163 62.11999,8.3349512 47.757634,0 Z m 21.182372,36.935142 c
    -3.23154,0.326846 -6.282816,2.290268 -9.155302,7.193166 -3.590588,8.33495
    12.209402,22.716724 22.98117,5.06625 C 83.483996,47.069952 94.0755,53.93163
    100,39.386326 89.946316,49.845864 79.713166,37.425428 70.377642,36.935142 Z
    M 29.80469,37.099022 C 20.469164,37.58931 10.053647,50.173186 0,39.55021
    5.9244804,54.095512 16.51881,47.070414 17.416458,49.358438 28.0087,67.008916
    43.805884,52.627142 40.215296,44.292192 36.983772,38.73555 33.395278,36.9356
    29.80469,37.099026 Z m 21.003542,10.13249 c -8.25835,37.262136
    -23.51556,63.576958 -40.211787,82.534868 7.001653,-1.96117
    14.718613,-7.19213 22.258843,-11.93164 -4.667764,9.80582 -9.154602,18.14082
    -13.822364,26.80264 2.692942,-0.98059 11.489886,-9.64435 23.338826,-22.3919
    1.795296,17.48703 4.305204,25.8241 8.07532,37.75452 3.052012,-11.93042
    5.208468,-19.9411 7.54234,-37.9184 7.181178,8.00805 14.001888,16.17984
    23.696484,23.04393 L 68.221186,117.34659 c 7.001634,4.41265
    14.72282,10.29262 22.083522,12.74406 C 72.710832,110.15215
    57.989412,84.493648 50.808232,47.231516 Z" transform="scale(0.0625,0.0625)"></path><path d="M 47.757634,0 C 60.324696,15.689314 25.136924,21.898666 44.167046,36.607392
    52.24587,41.673746 71.273896,30.723464 54.57765,17.322176
    52.423302,16.178163 62.11999,8.3349512 47.757634,0 Z m 21.182372,36.935142 c
    -3.23154,0.326846 -6.282816,2.290268 -9.155302,7.193166 -3.590588,8.33495
    12.209402,22.716724 22.98117,5.06625 C 83.483996,47.069952 94.0755,53.93163
    100,39.386326 89.946316,49.845864 79.713166,37.425428 70.377642,36.935142 Z
    M 29.80469,37.099022 C 20.469164,37.58931 10.053647,50.173186 0,39.55021
    5.9244804,54.095512 16.51881,47.070414 17.416458,49.358438 28.0087,67.008916
    43.805884,52.627142 40.215296,44.292192 36.983772,38.73555 33.395278,36.9356
    29.80469,37.099026 Z m 21.003542,10.13249 c -8.25835,37.262136
    -23.51556,63.576958 -40.211787,82.534868 7.001653,-1.96117
    14.718613,-7.19213 22.258843,-11.93164 -4.667764,9.80582 -9.154602,18.14082
    -13.822364,26.80264 2.692942,-0.98059 11.489886,-9.64435 23.338826,-22.3919
    1.795296,17.48703 4.305204,25.8241 8.07532,37.75452 3.052012,-11.93042
    5.208468,-19.9411 7.54234,-37.9184 7.181178,8.00805 14.001888,16.17984
    23.696484,23.04393 L 68.221186,117.34659 c 7.001634,4.41265
    14.72282,10.29262 22.083522,12.74406 C 72.710832,110.15215
    57.989412,84.493648 50.808232,47.231516 Z" transform="translate(6.25,10) scale(0.0625,0.0625)"></path></g></pattern><pattern id="ermines" width="12.5" height="20" patternUnits="userSpaceOnUse" x="-3.125" y="-5"><rect x="0" y="0" width="12.5" height="20" fill="#333333"></rect><g fill="#f6f6f6"><path d="M 47.757634,0 C 60.324696,15.689314 25.136924,21.898666 44.167046,36.607392
    52.24587,41.673746 71.273896,30.723464 54.57765,17.322176
    52.423302,16.178163 62.11999,8.3349512 47.757634,0 Z m 21.182372,36.935142 c
    -3.23154,0.326846 -6.282816,2.290268 -9.155302,7.193166 -3.590588,8.33495
    12.209402,22.716724 22.98117,5.06625 C 83.483996,47.069952 94.0755,53.93163
    100,39.386326 89.946316,49.845864 79.713166,37.425428 70.377642,36.935142 Z
    M 29.80469,37.099022 C 20.469164,37.58931 10.053647,50.173186 0,39.55021
    5.9244804,54.095512 16.51881,47.070414 17.416458,49.358438 28.0087,67.008916
    43.805884,52.627142 40.215296,44.292192 36.983772,38.73555 33.395278,36.9356
    29.80469,37.099026 Z m 21.003542,10.13249 c -8.25835,37.262136
    -23.51556,63.576958 -40.211787,82.534868 7.001653,-1.96117
    14.718613,-7.19213 22.258843,-11.93164 -4.667764,9.80582 -9.154602,18.14082
    -13.822364,26.80264 2.692942,-0.98059 11.489886,-9.64435 23.338826,-22.3919
    1.795296,17.48703 4.305204,25.8241 8.07532,37.75452 3.052012,-11.93042
    5.208468,-19.9411 7.54234,-37.9184 7.181178,8.00805 14.001888,16.17984
    23.696484,23.04393 L 68.221186,117.34659 c 7.001634,4.41265
    14.72282,10.29262 22.083522,12.74406 C 72.710832,110.15215
    57.989412,84.493648 50.808232,47.231516 Z" transform="scale(0.0625,0.0625)"></path><path d="M 47.757634,0 C 60.324696,15.689314 25.136924,21.898666 44.167046,36.607392
    52.24587,41.673746 71.273896,30.723464 54.57765,17.322176
    52.423302,16.178163 62.11999,8.3349512 47.757634,0 Z m 21.182372,36.935142 c
    -3.23154,0.326846 -6.282816,2.290268 -9.155302,7.193166 -3.590588,8.33495
    12.209402,22.716724 22.98117,5.06625 C 83.483996,47.069952 94.0755,53.93163
    100,39.386326 89.946316,49.845864 79.713166,37.425428 70.377642,36.935142 Z
    M 29.80469,37.099022 C 20.469164,37.58931 10.053647,50.173186 0,39.55021
    5.9244804,54.095512 16.51881,47.070414 17.416458,49.358438 28.0087,67.008916
    43.805884,52.627142 40.215296,44.292192 36.983772,38.73555 33.395278,36.9356
    29.80469,37.099026 Z m 21.003542,10.13249 c -8.25835,37.262136
    -23.51556,63.576958 -40.211787,82.534868 7.001653,-1.96117
    14.718613,-7.19213 22.258843,-11.93164 -4.667764,9.80582 -9.154602,18.14082
    -13.822364,26.80264 2.692942,-0.98059 11.489886,-9.64435 23.338826,-22.3919
    1.795296,17.48703 4.305204,25.8241 8.07532,37.75452 3.052012,-11.93042
    5.208468,-19.9411 7.54234,-37.9184 7.181178,8.00805 14.001888,16.17984
    23.696484,23.04393 L 68.221186,117.34659 c 7.001634,4.41265
    14.72282,10.29262 22.083522,12.74406 C 72.710832,110.15215
    57.989412,84.493648 50.808232,47.231516 Z" transform="translate(6.25,10) scale(0.0625,0.0625)"></path></g></pattern><pattern id="erminois" width="12.5" height="20" patternUnits="userSpaceOnUse" x="-3.125" y="-5"><rect x="0" y="0" width="12.5" height="20" fill="#f2bc51"></rect><g fill="#333333"><path d="M 47.757634,0 C 60.324696,15.689314 25.136924,21.898666 44.167046,36.607392
    52.24587,41.673746 71.273896,30.723464 54.57765,17.322176
    52.423302,16.178163 62.11999,8.3349512 47.757634,0 Z m 21.182372,36.935142 c
    -3.23154,0.326846 -6.282816,2.290268 -9.155302,7.193166 -3.590588,8.33495
    12.209402,22.716724 22.98117,5.06625 C 83.483996,47.069952 94.0755,53.93163
    100,39.386326 89.946316,49.845864 79.713166,37.425428 70.377642,36.935142 Z
    M 29.80469,37.099022 C 20.469164,37.58931 10.053647,50.173186 0,39.55021
    5.9244804,54.095512 16.51881,47.070414 17.416458,49.358438 28.0087,67.008916
    43.805884,52.627142 40.215296,44.292192 36.983772,38.73555 33.395278,36.9356
    29.80469,37.099026 Z m 21.003542,10.13249 c -8.25835,37.262136
    -23.51556,63.576958 -40.211787,82.534868 7.001653,-1.96117
    14.718613,-7.19213 22.258843,-11.93164 -4.667764,9.80582 -9.154602,18.14082
    -13.822364,26.80264 2.692942,-0.98059 11.489886,-9.64435 23.338826,-22.3919
    1.795296,17.48703 4.305204,25.8241 8.07532,37.75452 3.052012,-11.93042
    5.208468,-19.9411 7.54234,-37.9184 7.181178,8.00805 14.001888,16.17984
    23.696484,23.04393 L 68.221186,117.34659 c 7.001634,4.41265
    14.72282,10.29262 22.083522,12.74406 C 72.710832,110.15215
    57.989412,84.493648 50.808232,47.231516 Z" transform="scale(0.0625,0.0625)"></path><path d="M 47.757634,0 C 60.324696,15.689314 25.136924,21.898666 44.167046,36.607392
    52.24587,41.673746 71.273896,30.723464 54.57765,17.322176
    52.423302,16.178163 62.11999,8.3349512 47.757634,0 Z m 21.182372,36.935142 c
    -3.23154,0.326846 -6.282816,2.290268 -9.155302,7.193166 -3.590588,8.33495
    12.209402,22.716724 22.98117,5.06625 C 83.483996,47.069952 94.0755,53.93163
    100,39.386326 89.946316,49.845864 79.713166,37.425428 70.377642,36.935142 Z
    M 29.80469,37.099022 C 20.469164,37.58931 10.053647,50.173186 0,39.55021
    5.9244804,54.095512 16.51881,47.070414 17.416458,49.358438 28.0087,67.008916
    43.805884,52.627142 40.215296,44.292192 36.983772,38.73555 33.395278,36.9356
    29.80469,37.099026 Z m 21.003542,10.13249 c -8.25835,37.262136
    -23.51556,63.576958 -40.211787,82.534868 7.001653,-1.96117
    14.718613,-7.19213 22.258843,-11.93164 -4.667764,9.80582 -9.154602,18.14082
    -13.822364,26.80264 2.692942,-0.98059 11.489886,-9.64435 23.338826,-22.3919
    1.795296,17.48703 4.305204,25.8241 8.07532,37.75452 3.052012,-11.93042
    5.208468,-19.9411 7.54234,-37.9184 7.181178,8.00805 14.001888,16.17984
    23.696484,23.04393 L 68.221186,117.34659 c 7.001634,4.41265
    14.72282,10.29262 22.083522,12.74406 C 72.710832,110.15215
    57.989412,84.493648 50.808232,47.231516 Z" transform="translate(6.25,10) scale(0.0625,0.0625)"></path></g></pattern><pattern id="pean" width="12.5" height="20" patternUnits="userSpaceOnUse" x="-3.125" y="-5"><rect x="0" y="0" width="12.5" height="20" fill="#333333"></rect><g fill="#f2bc51"><path d="M 47.757634,0 C 60.324696,15.689314 25.136924,21.898666 44.167046,36.607392
    52.24587,41.673746 71.273896,30.723464 54.57765,17.322176
    52.423302,16.178163 62.11999,8.3349512 47.757634,0 Z m 21.182372,36.935142 c
    -3.23154,0.326846 -6.282816,2.290268 -9.155302,7.193166 -3.590588,8.33495
    12.209402,22.716724 22.98117,5.06625 C 83.483996,47.069952 94.0755,53.93163
    100,39.386326 89.946316,49.845864 79.713166,37.425428 70.377642,36.935142 Z
    M 29.80469,37.099022 C 20.469164,37.58931 10.053647,50.173186 0,39.55021
    5.9244804,54.095512 16.51881,47.070414 17.416458,49.358438 28.0087,67.008916
    43.805884,52.627142 40.215296,44.292192 36.983772,38.73555 33.395278,36.9356
    29.80469,37.099026 Z m 21.003542,10.13249 c -8.25835,37.262136
    -23.51556,63.576958 -40.211787,82.534868 7.001653,-1.96117
    14.718613,-7.19213 22.258843,-11.93164 -4.667764,9.80582 -9.154602,18.14082
    -13.822364,26.80264 2.692942,-0.98059 11.489886,-9.64435 23.338826,-22.3919
    1.795296,17.48703 4.305204,25.8241 8.07532,37.75452 3.052012,-11.93042
    5.208468,-19.9411 7.54234,-37.9184 7.181178,8.00805 14.001888,16.17984
    23.696484,23.04393 L 68.221186,117.34659 c 7.001634,4.41265
    14.72282,10.29262 22.083522,12.74406 C 72.710832,110.15215
    57.989412,84.493648 50.808232,47.231516 Z" transform="scale(0.0625,0.0625)"></path><path d="M 47.757634,0 C 60.324696,15.689314 25.136924,21.898666 44.167046,36.607392
    52.24587,41.673746 71.273896,30.723464 54.57765,17.322176
    52.423302,16.178163 62.11999,8.3349512 47.757634,0 Z m 21.182372,36.935142 c
    -3.23154,0.326846 -6.282816,2.290268 -9.155302,7.193166 -3.590588,8.33495
    12.209402,22.716724 22.98117,5.06625 C 83.483996,47.069952 94.0755,53.93163
    100,39.386326 89.946316,49.845864 79.713166,37.425428 70.377642,36.935142 Z
    M 29.80469,37.099022 C 20.469164,37.58931 10.053647,50.173186 0,39.55021
    5.9244804,54.095512 16.51881,47.070414 17.416458,49.358438 28.0087,67.008916
    43.805884,52.627142 40.215296,44.292192 36.983772,38.73555 33.395278,36.9356
    29.80469,37.099026 Z m 21.003542,10.13249 c -8.25835,37.262136
    -23.51556,63.576958 -40.211787,82.534868 7.001653,-1.96117
    14.718613,-7.19213 22.258843,-11.93164 -4.667764,9.80582 -9.154602,18.14082
    -13.822364,26.80264 2.692942,-0.98059 11.489886,-9.64435 23.338826,-22.3919
    1.795296,17.48703 4.305204,25.8241 8.07532,37.75452 3.052012,-11.93042
    5.208468,-19.9411 7.54234,-37.9184 7.181178,8.00805 14.001888,16.17984
    23.696484,23.04393 L 68.221186,117.34659 c 7.001634,4.41265
    14.72282,10.29262 22.083522,12.74406 C 72.710832,110.15215
    57.989412,84.493648 50.808232,47.231516 Z" transform="translate(6.25,10) scale(0.0625,0.0625)"></path></g></pattern></defs><defs><mask id="mask_3"><path d="M50,0h50v33.33333c0,35.72656 -19.05989,68.73926 -50,86.60254c-30.94011,-17.86328 -50,-50.87598 -50,-86.60254v-33.33333z" clip-rule="evenodd" fill-rule="evenodd" fill="#fff" stroke="none"></path></mask></defs><g mask="url(#mask_3)"><g><g><path d="M50,0h50v33.33333c0,35.72656 -19.05989,68.73926 -50,86.60254c-30.94011,-17.86328 -50,-50.87598 -50,-86.60254v-33.33333z" fill-rule="evenodd" fill="#f0f0f0"></path><g><g><defs><mask id="clip_6"><path d="M 50,-29.999999999999886 l0,179.93587 L 185.6394532033914,638.0639203002605 A 600 600 0 1 1 185.6394470510026,-518.1280482980892 L 50,-29.999999999999886 z" clip-rule="evenodd" fill-rule="evenodd" fill="#fff" stroke="#fff" stroke-width="0.1"></path></mask></defs><g mask="url(#clip_6)"><g><rect y="-1000" fill="#bb2f2e" width="2000" x="-1000" height="2000"></rect><g></g></g></g></g><g><defs><mask id="clip_7"><path d="M 50,-29.999999999999886 l0,179.93587 L -85.63945320339141,638.0639203002605 A 600 600 0 1 0 -85.6394470510026,-518.1280482980892 L 50,-29.999999999999886 z" clip-rule="evenodd" fill-rule="evenodd" fill="#fff"></path></mask></defs><g mask="url(#clip_7)"><g><rect y="-1000" fill="#0c6793" width="2000" x="-1000" height="2000"></rect><g></g></g></g></g></g><g><g stroke="#333333" stroke-width="0.5" fill="none" stroke-linecap="round" stroke-linejoin="round"><path d="M 50,-29.999999999999886 l0,179.93587"></path></g></g></g></g></g><g stroke="#333333" stroke-width="0.5" fill="none" stroke-linecap="round" stroke-linejoin="round"><path d="M50,0h50v33.33333c0,35.72656 -19.05989,68.73926 -50,86.60254c-30.94011,-17.86328 -50,-50.87598 -50,-86.60254v-33.33333z"></path></g></g></g><g transform="translate(0,0)" style="transition:transform 0.5s"></g><g><g><g><defs><mask id="mask_10"><g fill="#000" stroke="none" stroke-width="0" transform="translate(0,0)"><path fill="#000" d="M11.5-.5h9a80660.179 80660.179 0 00303 101l302-101h10a41.45 41.45 0 004 12 32.7 32.7 0 00-2 4.5c.255 1.326.922 2.326 2 3l-1 1c1.75 1.754 2.417 3.92 2 6.5a53.477 53.477 0 01-10-2 913.17 913.17 0 00-40 15c-1.45 1.35-2.117 3.017-2 5-7.561 3.603-15.561 5.77-24 6.5a186.8 186.8 0 01-36 13 1550.504 1550.504 0 01-72 27 29.84 29.84 0 01-5 9c-4.127 1.292-7.294.125-9.5-3.5a3362.931 3362.931 0 00-61.5 23.5 5915.881 5915.881 0 0158 19.5c2.454-4.246 6.121-7.08 11-8.5a144.216 144.216 0 0016-3.5c.151 3.35 1.985 5.016 5.5 5 3.64-1.385 7.14-1.052 10.5 1 .928-6.598 4.594-8.765 11-6.5.833 1.5 2 2.667 3.5 3.5a167.778 167.778 0 002 15 163.634 163.634 0 00-13.5 23 587.91 587.91 0 0137 29.5 84.195 84.195 0 0012 4.5 407.863 407.863 0 0152 11.5 435953.17 435953.17 0 0155 23 369.519 369.519 0 017 7.5v10a1668.616 1668.616 0 01-25.5 48 19.602 19.602 0 00-3.5 2h-11a565.007 565.007 0 00-50-38.5 34.78 34.78 0 00-10-2c-2.838-1.755-3.505-4.088-2-7a34731.902 34731.902 0 00-56-40c-3.503.293-6.169 2.126-8 5.5-8.282 3.842-16.615 3.842-25 0-5.354-3.69-10.02-8.024-14-13a3.647 3.647 0 011-1.5c-1.349-.772-2.182-1.939-2.5-3.5a114.67 114.67 0 00-1.5-15 10.502 10.502 0 01-5-3.5 85285.634 85285.634 0 01-46.5-21.5 1308.974 1308.974 0 01-54-20c-5.204 1.276-10.204.609-15-2a2314.86 2314.86 0 01-60 22 318.147 318.147 0 00-25.5 12.5 106.85 106.85 0 00-27 12.5 114.67 114.67 0 00-1.5 15 29.102 29.102 0 00-4 9c-8.342 9.56-18.842 13.393-31.5 11.5a84.733 84.733 0 01-10-8c-1-.667-2-.667-3 0a1604.045 1604.045 0 00-55 40c1.26 1.814 1.26 3.647 0 5.5-3.667 1.751-7.334 2.585-11 2.5-1.333 2-3 3.667-5 5a1018.036 1018.036 0 01-35 24 174.202 174.202 0 00-12 10.5h-13c-1.03-3.391-3.03-6.057-6-8a319.607 319.607 0 00-9.5-22c-.637-1.803-1.803-3.136-3.5-4a233.72 233.72 0 01-7-15v-10a65.997 65.997 0 016-8.5 1031.11 1031.11 0 0156-23 403.194 403.194 0 0151-11.5 55.94 55.94 0 0016-6.5 127.814 127.814 0 0114-13 238.768 238.768 0 0121-15c-2.158-1.457-3.991-3.29-5.5-5.5a1667.915 1667.915 0 00-8-16c-1.011-.837-2.178-1.17-3.5-1-.394-3.357.939-5.69 4-7-1.02-1.932-1.187-3.932-.5-6 2.507-5.766 6.674-7.433 12.5-5 1.434 1.72 2.267 3.72 2.5 6a18.099 18.099 0 015.5-2c2.632.94 5.298 1.107 8 .5 1.536-1.96 3.369-3.46 5.5-4.5 7.759 1.395 14.926 4.228 21.5 8.5a23.65 23.65 0 013 3.5 5915.881 5915.881 0 0158-19.5A1751.465 1751.465 0 00204 96.5c-1.691 3.713-4.525 4.879-8.5 3.5a14.706 14.706 0 00-4-5 3.944 3.944 0 011-2 15.918 15.918 0 01-4.5-2.5 4637.217 4637.217 0 01-72-27c-11.755-2.725-22.921-6.892-33.5-12.5a72.537 72.537 0 01-20-4.5c-2.844-1.597-4.844-3.93-6-7a639.89 639.89 0 00-41-15c-2.85.603-5.684 1.27-8.5 2l-1.5-1c1.115-1.098 1.115-2.265 0-3.5a77.359 77.359 0 003-8c-2.667-1-2.667-2 0-3l-1-1c2.16-3.103 3.493-6.603 4-10.5zm174 137a95.356 95.356 0 008 8.5 216.652 216.652 0 00-10.5 7.5 17.842 17.842 0 01-4.5-5.5 160.485 160.485 0 017-10.5zm273 1c3.911 1.458 6.744 4.125 8.5 8 .781 1.444.614 2.777-.5 4a14.972 14.972 0 00-3.5 3 216.652 216.652 0 00-10.5-7.5c2.149-1.786 4.149-4.286 6-7.5z" opacity=".905"></path><path fill="#000" d="M18.5 5.5a90.476 90.476 0 019 2.5 29.927 29.927 0 004 7c3.064-1.271 6.397-1.771 10-1.5a22.763 22.763 0 005 4 7.291 7.291 0 01-2 3 222.654 222.654 0 01-28-9.5c-1.473-.71-2.14-1.876-2-3.5 1.88.27 3.213-.396 4-2z" opacity="1"></path><path fill="#000" d="M625.5 5.5c1.544.203 2.878.87 4 2 1.633-1.244 2.633-.744 3 1.5a32.49 32.49 0 01-7 4.5 527.9 527.9 0 01-25 7 38.157 38.157 0 013-8c3.726 1.727 6.559.727 8.5-3a240.26 240.26 0 01-.5 6 6.846 6.846 0 004-1 31.866 31.866 0 003-7c2.567-.221 4.901-.888 7-2z" opacity="1"></path><path fill="#000" d="M51.5 15.5c6.573-.077 7.906 2.59 4 8a60.392 60.392 0 0111.5 4c.414-.457.914-.79 1.5-1 1.532 3.25 3.366 3.584 5.5 1 1.009 1.525 1.509 3.192 1.5 5 2.823-.475 4.823.525 6 3a24.826 24.826 0 01-5 10 203.667 203.667 0 00-13-5 14.974 14.974 0 003-3.5c-1.14-.741-1.14-1.575 0-2.5-.387-1.22-1.22-1.886-2.5-2-4.106.471-7.773-.862-11-4a16.707 16.707 0 00-2.5-7.5 12.988 12.988 0 001-5.5z" opacity="1"></path><path fill="#000" d="M591.5 15.5c1.175-.219 2.175.114 3 1a66.705 66.705 0 002 5.5c-1.91 1.7-3.077 3.867-3.5 6.5-3.457 3.33-7.624 4.663-12.5 4v7c1.175-.219 2.175.114 3 1a111.254 111.254 0 01-16 5 33.28 33.28 0 00-3-11 19.632 19.632 0 017-4.5 12.935 12.935 0 015-.5c-.146-2.442.687-3.11 2.5-2a291.115 291.115 0 0111.5-4l1-1c-2.35-2.56-2.35-4.893 0-7z" opacity="1"></path><path fill="#000" d="M61.5 20.5c1.349-1.297 2.682-1.13 4 .5-1.32.195-2.653.028-4-.5z" opacity="1"></path><path fill="#000" d="M581.5 19.5c3.743-.04 3.91.626.5 2a2.429 2.429 0 01-.5-2z" opacity="1"></path><path fill="#000" d="M574.5 20.5h3c-.746 3.81-1.746 3.81-3 0z" opacity="1"></path><path fill="#000" d="M80.5 25.5a44.763 44.763 0 0011 3c.474 3.487 2.308 4.487 5.5 3a38.326 38.326 0 016.5 2.5 11.392 11.392 0 01-2 2.5c-7.255-1.58-13.922-4.414-20-8.5-.752-.67-1.086-1.504-1-2.5z" opacity="1"></path><path fill="#000" d="M564.5 25.5c2.049.206 2.383 1.04 1 2.5a249.34 249.34 0 01-11 5.5c-1.094-1.368-.76-2.535 1-3.5l-1-1c3.552-.878 6.886-2.044 10-3.5z" opacity="1"></path><path fill="#000" d="M547.5 30.5c1.894.548 3.56 1.548 5 3-2.661 1-5.328 2-8 3a11.392 11.392 0 01-2-2.5 69.883 69.883 0 015-3.5z" opacity="1"></path><path fill="#000" d="M463.5 63.5c1.307-1.302 1.307-2.635 0-4a4180.415 4180.415 0 0169-23c1.708.203 3.041 1.036 4 2.5a1339.83 1339.83 0 01-73 24.5z" opacity="1"></path><path fill="#000" d="M556.5 36.5h5c.219 1.175-.114 2.175-1 3a325.242 325.242 0 01-27 10c-1.078 1.975-.745 3.808 1 5.5l-2 1A2704.482 2704.482 0 01456 84.5c-1.326-.255-2.326-.922-3-2l-2.5-7.5a3.944 3.944 0 011-2 11251.11 11251.11 0 00105-36.5zM85.5 36.5a133.62 133.62 0 0115.5 4L194.5 73l2 1a60.276 60.276 0 01-4.5 11.5A13404.996 13404.996 0 01113.5 56c-1.073-1.25-1.073-2.584 0-4a9.26 9.26 0 00-2-2.5 341.429 341.429 0 00-24-8.5c-1.537-1.11-2.204-2.61-2-4.5z" opacity="1"></path><path fill="#000" d="M182.5 63.5a1205.896 1205.896 0 01-74-25c1.377-.023 2.877-.69 4.5-2A1826.965 1826.965 0 01158.5 52a319.607 319.607 0 0024 6.5v5z" opacity="1"></path><path fill="#000" d="M463.5 63.5a16.15 16.15 0 01-8 2.5c1.333-1 1.333-2 0-3 .608-.87 1.441-1.37 2.5-1.5 1.597 1.385 3.43 2.051 5.5 2z" opacity="1"></path><path fill="#000" d="M182.5 63.5c2.07.051 3.903-.615 5.5-2 1.059.13 1.892.63 2.5 1.5-1.333 1-1.333 2 0 3a16.15 16.15 0 01-8-2.5z" opacity="1"></path><path fill="#000" d="M194.5 63.5c1.542.8 3.208 1.134 5 1-.897 5.614-3.231 6.28-7 2a184.223 184.223 0 002-3z" opacity="1"></path><path fill="#000" d="M450.5 63.5c4.189 2.614 3.689 4.28-1.5 5-2.02-.532-2.853-1.865-2.5-4 1.599.268 2.932-.066 4-1z" opacity="1"></path><path fill="#000" d="M210.5 68.5c1.098 1.1 1.265 2.434.5 4a101.708 101.708 0 00-6.5 19 22.69 22.69 0 01-8.5-2c-.617-.95-.451-1.782.5-2.5a12.935 12.935 0 015-.5c-1.125-4.75-.958-9.416.5-14l1 1a14.294 14.294 0 016.5-2.5c.752-.67 1.086-1.504 1-2.5z" opacity="1"></path><path fill="#000" d="M439.5 68.5c1.676.683 2.343 2.017 2 4 1.175-.219 2.175.114 3 1l2 5c-1.723 2.368-2.39 5.034-2 8a9.107 9.107 0 005-1c.952 1.545 1.285 3.212 1 5-2.436-.183-4.603.484-6.5 2l-1-1c-1.554-6.928-4.054-13.428-7.5-19.5a8.435 8.435 0 014-.5v-3z" opacity="1"></path><path fill="#000" d="M219.5 72.5a78.053 78.053 0 0122 7.5c-1.141.741-1.141 1.575 0 2.5l-1 1a172.115 172.115 0 01-26-9.5c1.049-.492 2.049-.326 3 .5 1.022-.356 1.689-1.022 2-2z" opacity="1"></path><path fill="#000" d="M423.5 72.5c2.342.004 4.342.838 6 2.5a247.059 247.059 0 01-23.5 8.5c-.867-2.537-.201-4.537 2-6a140.859 140.859 0 0015.5-5z" opacity="1"></path><path fill="#000" d="M431.5 79.5c.996-.086 1.829.248 2.5 1l3.5 10.5-1 1a2675.915 2675.915 0 01-55 20 180.978 180.978 0 01-11.5 5.5 140.11 140.11 0 00-23.5-8.5 2567.337 2567.337 0 0185-29.5zM213.5 79.5a2463.68 2463.68 0 00106 35c1.847 1.011 3.68 2.011 5.5 3 .667 1 .667 2 0 3-8.42 8.217-17.92 9.717-28.5 4.5a630.868 630.868 0 00-26-11A3192.652 3192.652 0 00211 92.5l-1.5-1a126.506 126.506 0 014-12z" opacity="1"></path><path fill="#000" d="M246.5 81.5a2.427 2.427 0 012 .5c-1.333 1-1.333 2 0 3-2.053.325-4.053-.009-6-1 1.937-.122 3.27-.955 4-2.5z" opacity="1"></path><path fill="#000" d="M399.5 80.5c.904.709 1.237 1.709 1 3a4.932 4.932 0 013 .5c-2.029.681-4.029 1.014-6 1l2-2c-1.098-.77-1.098-1.603 0-2.5z" opacity="1"></path><path fill="#000" d="M258.5 86.5l-2 2c-2.559.11-4.892-.556-7-2 1.92-3.693 3.253-3.693 4 0h5z" opacity="1"></path><path fill="#000" d="M392.5 82.5c1.574.437 2.741 1.437 3.5 3 .688.832.521 1.498-.5 2-4.895 1.916-9.895 3.082-15 3.5 1.211-1.113 1.211-2.28 0-3.5a45.487 45.487 0 017-3c1.342 1.505 3.008 2.171 5 2v-4z" opacity="1"></path><path fill="#000" d="M256.5 88.5l2-2a2.429 2.429 0 01.5-2 127.62 127.62 0 007.5 3c-1.885.697-2.218 1.697-1 3-3.356.993-6.356.327-9-2z" opacity="1"></path><path fill="#000" d="M369.5 90.5c2.453 1.317 5.12 2.15 8 2.5a367.46 367.46 0 01-35.5 11.5c-2.355-.459-4.521-1.292-6.5-2.5a70.374 70.374 0 0011-3.5c3.608 2.77 5.608 1.77 6-3 5.933-1.092 11.6-2.759 17-5z" opacity="1"></path><path fill="#000" d="M275.5 90.5a138.351 138.351 0 0018 5c-.084 5.194 1.916 6.194 6 3a201.544 201.544 0 0130 11l-3 3a5742.544 5742.544 0 01-57-19.5c2.474-.037 4.474-.87 6-2.5z" opacity="1"></path><path fill="#000" d="M334.5 107.5c3.482-.432 5.815.901 7 4a163.15 163.15 0 01-9.5 28 4.933 4.933 0 01-2.5 1 156.844 156.844 0 00-19-6v-3c7.658.088 13.825-2.912 18.5-9a266.179 266.179 0 005.5-15z" opacity="1"></path><path fill="#000" d="M345.5 114.5a390.118 390.118 0 0015 4.5 44.615 44.615 0 006.5 5.5c1.653-.32 2.653-1.32 3-3a181.41 181.41 0 0030.5 10v4a11.988 11.988 0 006-1 177.647 177.647 0 0130 10.5c-2.161 3.878-5.161 4.544-9 2a1799.996 1799.996 0 01-69-24 108.492 108.492 0 00-14-3.5c-.134-1.792.199-3.458 1-5z" opacity="1"></path><path fill="#000" d="M271.5 122.5c3.58-.577 6.58.423 9 3a812.203 812.203 0 01-47 16c-2.51-.842-3.177-2.342-2-4.5 4.281-1.832 8.614-2.499 13-2 .837-1.011 1.17-2.178 1-3.5 9.199-1.842 17.865-4.842 26-9z" opacity="1"></path><path fill="#000" d="M288.5 127.5a83.22 83.22 0 0017 5c-.071 2.524.929 4.524 3 6-15.99 6.331-31.99 12.664-48 19l-1-.5c5.78-4.153 7.447-9.653 5-16.5l-5-2.5a337.3 337.3 0 0129-10.5z" opacity="1"></path><path fill="#000" d="M259.5 143.5c-2.333-1.333-4.667-1.333-7 0-.543-.06-.876-.393-1-1 3-1.333 6-1.333 9 0-.124.607-.457.94-1 1z" opacity="1"></path><path fill="#000" d="M390.5 139.5c.325 1.632 1.325 2.632 3 3a137.416 137.416 0 0013 3 535.94 535.94 0 0128 13.5c2 .667 4 .667 6 0 1.871-5.226 5.538-6.892 11-5a22.885 22.885 0 013 7c-3.657 10.496-10.657 13.996-21 10.5-2.338-1.54-5.005-2.206-8-2a453.496 453.496 0 00-35-12.5 42.729 42.729 0 01-9-6c-2.801-8.47.199-12.303 9-11.5z" opacity="1"></path><path fill="#000" d="M390.5 139.5c5.957.648 11.29 2.648 16 6a137.416 137.416 0 01-13-3c-1.675-.368-2.675-1.368-3-3z" opacity="1"></path><path fill="#000" d="M168.5 147.5c1.535-1.288 3.201-1.288 5 0-1.503.552-3.169.552-5 0z" opacity="1"></path><path fill="#000" d="M214.5 145.5h3v3l-9 2v-3c2.398.241 4.398-.426 6-2z" opacity="1"></path><path fill="#000" d="M252.5 143.5c2.333-1.333 4.667-1.333 7 0-2.431 1.568-2.431 3.068 0 4.5-1.393 1.171-2.227 2.671-2.5 4.5.352-4.042-1.148-7.042-4.5-9z" opacity="1"></path><path fill="#000" d="M479.5 148.5v1c-2.454-1.296-4.787-1.963-7-2 2.641-1.336 4.974-1.002 7 1z" opacity="1"></path><path fill="#000" d="M195.5 149.5c2.17 1.338 3.836 3.172 5 5.5 5.243 2.118 4.91 2.784-1 2-2.715-.878-5.049-2.378-7-4.5.84-1.235 1.84-2.235 3-3z" opacity="1"></path><path fill="#000" d="M390.5 139.5c-8.801-.803-11.801 3.03-9 11.5a42.729 42.729 0 009 6 453.496 453.496 0 0135 12.5c2.405 1.268 5.072 1.935 8 2 10.343 3.496 17.343-.004 21-10.5a22.885 22.885 0 00-3-7c-5.462-1.892-9.129-.226-11 5-2 .667-4 .667-6 0a535.94 535.94 0 00-28-13.5 138.405 138.405 0 0133 11c1.299-.59 2.132-1.59 2.5-3 .186-2.4.686-4.734 1.5-7 15.913 7.464 29.913 17.63 42 30.5 3.497.912 6.497 2.578 9 5a6903.462 6903.462 0 0124 21c4.253.551 7.586 2.551 10 6a832.832 832.832 0 0149 32 114.501 114.501 0 009.5 3.5c3.789-.445 5.123-2.445 4-6-4.141-5.811-9.641-9.644-16.5-11.5a361.53 361.53 0 01-21-15l2-.5a233.24 233.24 0 0134 9.5 66.151 66.151 0 0017 8c6.344 5.845 13.677 10.178 22 13l1.5 1.5 1 8c1.563 1.225 2.73 2.725 3.5 4.5a394.25 394.25 0 01-12 28.5c-.482 3.934-1.648 7.6-3.5 11-1.413 1.914-3.247 3.247-5.5 4a767.757 767.757 0 01-74-55.5 2401.202 2401.202 0 01-69-50 1361.405 1361.405 0 00-133-55l5.5-16.5a1630.12 1630.12 0 0147.5 17z" opacity="1"></path><path fill="#000" d="M394.5 147.5a545.189 545.189 0 0114 3.5 550.17 550.17 0 0124 13c2.73.728 5.397.562 8-.5l5 3.5c-11.457.469-22.123-2.198-32-8a278.063 278.063 0 01-22-6.5c1.452-1.44 2.452-3.106 3-5z" opacity="1"></path><path fill="#000" d="M225.5 159.5c-.934 1.068-1.268 2.401-1 4-1.877.4-3.377 1.4-4.5 3l-3-1a42.869 42.869 0 01-10.5 3c.383 2.962-.617 3.962-3 3l-3.5 5c.067-5.52-1.433-10.52-4.5-15 1.076-1.156 2.076-.989 3 .5 2.333.667 4.667.667 7 0a181.704 181.704 0 0022-9.5 14.972 14.972 0 013-3.5 114.034 114.034 0 0011.5-3.5l1.5 1c-1.224 2.339-1.224 4.672 0 7a26.852 26.852 0 006 3.5c-3.781 3.209-8.114 5.375-13 6.5a50.29 50.29 0 00-7-8c-1.34 1.367-2.673 2.7-4 4z" opacity="1"></path><path fill="#000" d="M168.5 147.5c-5.455 7.778-3.455 11.278 6 10.5a6.978 6.978 0 002.5-3.5 28.415 28.415 0 007.5 4.5c1.147 2.488 2.814 4.488 5 6-4.355-.165-7.355 1.668-9 5.5l-2 6c-1.609-2.649-2.443-5.649-2.5-9a24.297 24.297 0 00-9.5-4c-3.026-3.433-4.192-7.433-3.5-12 1.412-1.952 3.245-3.285 5.5-4z" opacity="1"></path><path fill="#000" d="M479.5 149.5v-1c2.787.878 4.12 2.878 4 6a18.391 18.391 0 01-4 9c-1.333 1.333-2.667 1.333-4 0-2.268-3.44-5.268-5.94-9-7.5.608-.87 1.441-1.37 2.5-1.5 4.217 5.291 8.383 5.291 12.5 0-.528-1.836-1.194-3.503-2-5z" opacity="1"></path><path fill="#000" d="M225.5 159.5v3c1.478-.262 2.811.071 4 1-1.667 1.166-3.334 1.166-5 0-.268-1.599.066-2.932 1-4z" opacity="1"></path><path fill="#000" d="M193.5 175.5a18.074 18.074 0 00-2-8l1-1c2.132 2.905 2.466 5.905 1 9z" opacity="1"></path><path fill="#000" d="M425.5 169.5c2.995-.206 5.662.46 8 2-2.928-.065-5.595-.732-8-2z" opacity="1"></path><path fill="#000" d="M228.5 168.5c1.175-.219 2.175.114 3 1a1056.433 1056.433 0 00-48.5 22l-.5-1c7.126-4.4 14.46-8.567 22-12.5a380.95 380.95 0 0124-9.5z" opacity="1"></path><path fill="#000" d="M180.5 170.5c.044 6.546 3.377 9.046 10 7.5a10.515 10.515 0 013-2.5c-1.118 3.609-3.618 5.609-7.5 6a31.625 31.625 0 00-7.5-2v-3l2-6z" opacity="1"></path><path fill="#000" d="M169.5 179.5c1.788-.285 3.455.048 5 1 1.793 3.066 4.46 4.9 8 5.5-2.522.61-4.522 1.943-6 4-5.395 1.345-10.728 1.845-16 1.5a106.463 106.463 0 004.5-7c1.11-1.537 2.61-2.203 4.5-2v-3z" opacity="1"></path><path fill="#000" d="M152.5 181.5c.876-.131 1.543.202 2 1-6.748 8.162-4.915 12.828 5.5 14a167.597 167.597 0 0013.5-2c1.196.346 1.196.846 0 1.5a3518.717 3518.717 0 00-128 96 63.132 63.132 0 00-13 7.5l-4-3a99516.201 99516.201 0 01-17-40c3.803-4.104 5.803-8.938 6-14.5 8.76-3.122 16.593-7.622 23.5-13.5 16.695-8.213 34.195-13.713 52.5-16.5a167.695 167.695 0 01-31 19l-5.5 5.5c-2.643 4.111-1.643 6.778 3 8 8.363-3.097 15.863-7.597 22.5-13.5a164.267 164.267 0 0024-16 442.993 442.993 0 0024-14 585.593 585.593 0 0122-19.5z" opacity="1"></path><path fill="#000" d="M192.5 191.5c2.787.878 4.12 2.878 4 6a86.378 86.378 0 01-3.5 12 68.261 68.261 0 01-15.5 8 12.862 12.862 0 01-6-1.5 45.825 45.825 0 01-7-7c.786-1.988 2.286-3.154 4.5-3.5 5.228 3.72 11.062 5.72 17.5 6 .356-3.064-.477-5.731-2.5-8a16.242 16.242 0 010-8c3.047-1.062 5.88-2.395 8.5-4z" opacity="1"></path><path fill="#000" d="M451.5 191.5c4.268.806 8.101 2.473 11.5 5 .667 2 .667 4 0 6-5.748 6.884-4.248 9.717 4.5 8.5a99.506 99.506 0 0110-6.5c5.152 2.976 5.152 6.143 0 9.5a829.865 829.865 0 01-8.5 3.5 59.948 59.948 0 01-16-8c-2.592-5.827-3.092-11.827-1.5-18z" opacity="1"></path><path fill="#000" d="M11.5 239.5c1.879-.107 2.212.393 1 1.5-3.375.632-3.709.132-1-1.5z" opacity="1"></path><path fill="#000" d="M633.5 239.5c1.422.209 2.755.709 4 1.5-1.963.844-3.296.344-4-1.5z" opacity="1"></path><path fill="#000" d="M5.5 243.5c.698 2.167 2.031 4 4 5.5a11.531 11.531 0 00-4.5 3.5 8.189 8.189 0 00-2.5-4c.76-1.86 1.76-3.527 3-5z" opacity="1"></path><path fill="#000" d="M639.5 244.5c5.996 2.009 6.496 5.009 1.5 9-1.015-2.563-2.515-3.896-4.5-4 1.797-1.195 2.797-2.862 3-5z" opacity="1"></path></g></mask><mask id="mask_11"><g fill="#000" stroke="none" stroke-width="0" transform="translate(0,0)"><path fill="#000" d="M11.5-.5h9a80660.179 80660.179 0 00303 101l302-101h10a41.45 41.45 0 004 12 32.7 32.7 0 00-2 4.5c.255 1.326.922 2.326 2 3l-1 1c1.75 1.754 2.417 3.92 2 6.5a53.477 53.477 0 01-10-2 913.17 913.17 0 00-40 15c-1.45 1.35-2.117 3.017-2 5-7.561 3.603-15.561 5.77-24 6.5a186.8 186.8 0 01-36 13 1550.504 1550.504 0 01-72 27 29.84 29.84 0 01-5 9c-4.127 1.292-7.294.125-9.5-3.5a3362.931 3362.931 0 00-61.5 23.5 5915.881 5915.881 0 0158 19.5c2.454-4.246 6.121-7.08 11-8.5a144.216 144.216 0 0016-3.5c.151 3.35 1.985 5.016 5.5 5 3.64-1.385 7.14-1.052 10.5 1 .928-6.598 4.594-8.765 11-6.5.833 1.5 2 2.667 3.5 3.5a167.778 167.778 0 002 15 163.634 163.634 0 00-13.5 23 587.91 587.91 0 0137 29.5 84.195 84.195 0 0012 4.5 407.863 407.863 0 0152 11.5 435953.17 435953.17 0 0155 23 369.519 369.519 0 017 7.5v10a1668.616 1668.616 0 01-25.5 48 19.602 19.602 0 00-3.5 2h-11a565.007 565.007 0 00-50-38.5 34.78 34.78 0 00-10-2c-2.838-1.755-3.505-4.088-2-7a34731.902 34731.902 0 00-56-40c-3.503.293-6.169 2.126-8 5.5-8.282 3.842-16.615 3.842-25 0-5.354-3.69-10.02-8.024-14-13a3.647 3.647 0 011-1.5c-1.349-.772-2.182-1.939-2.5-3.5a114.67 114.67 0 00-1.5-15 10.502 10.502 0 01-5-3.5 85285.634 85285.634 0 01-46.5-21.5 1308.974 1308.974 0 01-54-20c-5.204 1.276-10.204.609-15-2a2314.86 2314.86 0 01-60 22 318.147 318.147 0 00-25.5 12.5 106.85 106.85 0 00-27 12.5 114.67 114.67 0 00-1.5 15 29.102 29.102 0 00-4 9c-8.342 9.56-18.842 13.393-31.5 11.5a84.733 84.733 0 01-10-8c-1-.667-2-.667-3 0a1604.045 1604.045 0 00-55 40c1.26 1.814 1.26 3.647 0 5.5-3.667 1.751-7.334 2.585-11 2.5-1.333 2-3 3.667-5 5a1018.036 1018.036 0 01-35 24 174.202 174.202 0 00-12 10.5h-13c-1.03-3.391-3.03-6.057-6-8a319.607 319.607 0 00-9.5-22c-.637-1.803-1.803-3.136-3.5-4a233.72 233.72 0 01-7-15v-10a65.997 65.997 0 016-8.5 1031.11 1031.11 0 0156-23 403.194 403.194 0 0151-11.5 55.94 55.94 0 0016-6.5 127.814 127.814 0 0114-13 238.768 238.768 0 0121-15c-2.158-1.457-3.991-3.29-5.5-5.5a1667.915 1667.915 0 00-8-16c-1.011-.837-2.178-1.17-3.5-1-.394-3.357.939-5.69 4-7-1.02-1.932-1.187-3.932-.5-6 2.507-5.766 6.674-7.433 12.5-5 1.434 1.72 2.267 3.72 2.5 6a18.099 18.099 0 015.5-2c2.632.94 5.298 1.107 8 .5 1.536-1.96 3.369-3.46 5.5-4.5 7.759 1.395 14.926 4.228 21.5 8.5a23.65 23.65 0 013 3.5 5915.881 5915.881 0 0158-19.5A1751.465 1751.465 0 00204 96.5c-1.691 3.713-4.525 4.879-8.5 3.5a14.706 14.706 0 00-4-5 3.944 3.944 0 011-2 15.918 15.918 0 01-4.5-2.5 4637.217 4637.217 0 01-72-27c-11.755-2.725-22.921-6.892-33.5-12.5a72.537 72.537 0 01-20-4.5c-2.844-1.597-4.844-3.93-6-7a639.89 639.89 0 00-41-15c-2.85.603-5.684 1.27-8.5 2l-1.5-1c1.115-1.098 1.115-2.265 0-3.5a77.359 77.359 0 003-8c-2.667-1-2.667-2 0-3l-1-1c2.16-3.103 3.493-6.603 4-10.5zm174 137a95.356 95.356 0 008 8.5 216.652 216.652 0 00-10.5 7.5 17.842 17.842 0 01-4.5-5.5 160.485 160.485 0 017-10.5zm273 1c3.911 1.458 6.744 4.125 8.5 8 .781 1.444.614 2.777-.5 4a14.972 14.972 0 00-3.5 3 216.652 216.652 0 00-10.5-7.5c2.149-1.786 4.149-4.286 6-7.5z" opacity=".905"></path><path fill="#fff" d="M18.5 5.5a90.476 90.476 0 019 2.5 29.927 29.927 0 004 7c3.064-1.271 6.397-1.771 10-1.5a22.763 22.763 0 005 4 7.291 7.291 0 01-2 3 222.654 222.654 0 01-28-9.5c-1.473-.71-2.14-1.876-2-3.5 1.88.27 3.213-.396 4-2z" opacity="1"></path><path fill="#fff" d="M625.5 5.5c1.544.203 2.878.87 4 2 1.633-1.244 2.633-.744 3 1.5a32.49 32.49 0 01-7 4.5 527.9 527.9 0 01-25 7 38.157 38.157 0 013-8c3.726 1.727 6.559.727 8.5-3a240.26 240.26 0 01-.5 6 6.846 6.846 0 004-1 31.866 31.866 0 003-7c2.567-.221 4.901-.888 7-2z" opacity="1"></path><path fill="#fff" d="M51.5 15.5c6.573-.077 7.906 2.59 4 8a60.392 60.392 0 0111.5 4c.414-.457.914-.79 1.5-1 1.532 3.25 3.366 3.584 5.5 1 1.009 1.525 1.509 3.192 1.5 5 2.823-.475 4.823.525 6 3a24.826 24.826 0 01-5 10 203.667 203.667 0 00-13-5 14.974 14.974 0 003-3.5c-1.14-.741-1.14-1.575 0-2.5-.387-1.22-1.22-1.886-2.5-2-4.106.471-7.773-.862-11-4a16.707 16.707 0 00-2.5-7.5 12.988 12.988 0 001-5.5z" opacity="1"></path><path fill="#fff" d="M591.5 15.5c1.175-.219 2.175.114 3 1a66.705 66.705 0 002 5.5c-1.91 1.7-3.077 3.867-3.5 6.5-3.457 3.33-7.624 4.663-12.5 4v7c1.175-.219 2.175.114 3 1a111.254 111.254 0 01-16 5 33.28 33.28 0 00-3-11 19.632 19.632 0 017-4.5 12.935 12.935 0 015-.5c-.146-2.442.687-3.11 2.5-2a291.115 291.115 0 0111.5-4l1-1c-2.35-2.56-2.35-4.893 0-7z" opacity="1"></path><path fill="#fff" d="M61.5 20.5c1.349-1.297 2.682-1.13 4 .5-1.32.195-2.653.028-4-.5z" opacity="1"></path><path fill="#fff" d="M581.5 19.5c3.743-.04 3.91.626.5 2a2.429 2.429 0 01-.5-2z" opacity="1"></path><path fill="#000" d="M574.5 20.5h3c-.746 3.81-1.746 3.81-3 0z" opacity="1"></path><path fill="#fff" d="M80.5 25.5a44.763 44.763 0 0011 3c.474 3.487 2.308 4.487 5.5 3a38.326 38.326 0 016.5 2.5 11.392 11.392 0 01-2 2.5c-7.255-1.58-13.922-4.414-20-8.5-.752-.67-1.086-1.504-1-2.5z" opacity="1"></path><path fill="#fff" d="M564.5 25.5c2.049.206 2.383 1.04 1 2.5a249.34 249.34 0 01-11 5.5c-1.094-1.368-.76-2.535 1-3.5l-1-1c3.552-.878 6.886-2.044 10-3.5z" opacity="1"></path><path fill="#fff" d="M547.5 30.5c1.894.548 3.56 1.548 5 3-2.661 1-5.328 2-8 3a11.392 11.392 0 01-2-2.5 69.883 69.883 0 015-3.5z" opacity="1"></path><path fill="#fff" d="M463.5 63.5c1.307-1.302 1.307-2.635 0-4a4180.415 4180.415 0 0169-23c1.708.203 3.041 1.036 4 2.5a1339.83 1339.83 0 01-73 24.5z" opacity="1"></path><path fill="#fff" d="M556.5 36.5h5c.219 1.175-.114 2.175-1 3a325.242 325.242 0 01-27 10c-1.078 1.975-.745 3.808 1 5.5l-2 1A2704.482 2704.482 0 01456 84.5c-1.326-.255-2.326-.922-3-2l-2.5-7.5a3.944 3.944 0 011-2 11251.11 11251.11 0 00105-36.5zM85.5 36.5a133.62 133.62 0 0115.5 4L194.5 73l2 1a60.276 60.276 0 01-4.5 11.5A13404.996 13404.996 0 01113.5 56c-1.073-1.25-1.073-2.584 0-4a9.26 9.26 0 00-2-2.5 341.429 341.429 0 00-24-8.5c-1.537-1.11-2.204-2.61-2-4.5z" opacity="1"></path><path fill="#fff" d="M182.5 63.5a1205.896 1205.896 0 01-74-25c1.377-.023 2.877-.69 4.5-2A1826.965 1826.965 0 01158.5 52a319.607 319.607 0 0024 6.5v5z" opacity="1"></path><path fill="#fff" d="M463.5 63.5a16.15 16.15 0 01-8 2.5c1.333-1 1.333-2 0-3 .608-.87 1.441-1.37 2.5-1.5 1.597 1.385 3.43 2.051 5.5 2z" opacity="1"></path><path fill="#fff" d="M182.5 63.5c2.07.051 3.903-.615 5.5-2 1.059.13 1.892.63 2.5 1.5-1.333 1-1.333 2 0 3a16.15 16.15 0 01-8-2.5z" opacity="1"></path><path fill="#fff" d="M194.5 63.5c1.542.8 3.208 1.134 5 1-.897 5.614-3.231 6.28-7 2a184.223 184.223 0 002-3z" opacity="1"></path><path fill="#fff" d="M450.5 63.5c4.189 2.614 3.689 4.28-1.5 5-2.02-.532-2.853-1.865-2.5-4 1.599.268 2.932-.066 4-1z" opacity="1"></path><path fill="#fff" d="M210.5 68.5c1.098 1.1 1.265 2.434.5 4a101.708 101.708 0 00-6.5 19 22.69 22.69 0 01-8.5-2c-.617-.95-.451-1.782.5-2.5a12.935 12.935 0 015-.5c-1.125-4.75-.958-9.416.5-14l1 1a14.294 14.294 0 016.5-2.5c.752-.67 1.086-1.504 1-2.5z" opacity="1"></path><path fill="#fff" d="M439.5 68.5c1.676.683 2.343 2.017 2 4 1.175-.219 2.175.114 3 1l2 5c-1.723 2.368-2.39 5.034-2 8a9.107 9.107 0 005-1c.952 1.545 1.285 3.212 1 5-2.436-.183-4.603.484-6.5 2l-1-1c-1.554-6.928-4.054-13.428-7.5-19.5a8.435 8.435 0 014-.5v-3z" opacity="1"></path><path fill="#fff" d="M219.5 72.5a78.053 78.053 0 0122 7.5c-1.141.741-1.141 1.575 0 2.5l-1 1a172.115 172.115 0 01-26-9.5c1.049-.492 2.049-.326 3 .5 1.022-.356 1.689-1.022 2-2z" opacity="1"></path><path fill="#fff" d="M423.5 72.5c2.342.004 4.342.838 6 2.5a247.059 247.059 0 01-23.5 8.5c-.867-2.537-.201-4.537 2-6a140.859 140.859 0 0015.5-5z" opacity="1"></path><path fill="#fff" d="M431.5 79.5c.996-.086 1.829.248 2.5 1l3.5 10.5-1 1a2675.915 2675.915 0 01-55 20 180.978 180.978 0 01-11.5 5.5 140.11 140.11 0 00-23.5-8.5 2567.337 2567.337 0 0185-29.5zM213.5 79.5a2463.68 2463.68 0 00106 35c1.847 1.011 3.68 2.011 5.5 3 .667 1 .667 2 0 3-8.42 8.217-17.92 9.717-28.5 4.5a630.868 630.868 0 00-26-11A3192.652 3192.652 0 00211 92.5l-1.5-1a126.506 126.506 0 014-12z" opacity="1"></path><path fill="#fff" d="M246.5 81.5a2.427 2.427 0 012 .5c-1.333 1-1.333 2 0 3-2.053.325-4.053-.009-6-1 1.937-.122 3.27-.955 4-2.5z" opacity="1"></path><path fill="#fff" d="M399.5 80.5c.904.709 1.237 1.709 1 3a4.932 4.932 0 013 .5c-2.029.681-4.029 1.014-6 1l2-2c-1.098-.77-1.098-1.603 0-2.5z" opacity="1"></path><path fill="#000" d="M258.5 86.5l-2 2c-2.559.11-4.892-.556-7-2 1.92-3.693 3.253-3.693 4 0h5z" opacity="1"></path><path fill="#fff" d="M392.5 82.5c1.574.437 2.741 1.437 3.5 3 .688.832.521 1.498-.5 2-4.895 1.916-9.895 3.082-15 3.5 1.211-1.113 1.211-2.28 0-3.5a45.487 45.487 0 017-3c1.342 1.505 3.008 2.171 5 2v-4z" opacity="1"></path><path fill="#fff" d="M256.5 88.5l2-2a2.429 2.429 0 01.5-2 127.62 127.62 0 007.5 3c-1.885.697-2.218 1.697-1 3-3.356.993-6.356.327-9-2z" opacity="1"></path><path fill="#fff" d="M369.5 90.5c2.453 1.317 5.12 2.15 8 2.5a367.46 367.46 0 01-35.5 11.5c-2.355-.459-4.521-1.292-6.5-2.5a70.374 70.374 0 0011-3.5c3.608 2.77 5.608 1.77 6-3 5.933-1.092 11.6-2.759 17-5z" opacity="1"></path><path fill="#fff" d="M275.5 90.5a138.351 138.351 0 0018 5c-.084 5.194 1.916 6.194 6 3a201.544 201.544 0 0130 11l-3 3a5742.544 5742.544 0 01-57-19.5c2.474-.037 4.474-.87 6-2.5z" opacity="1"></path><path fill="#fff" d="M334.5 107.5c3.482-.432 5.815.901 7 4a163.15 163.15 0 01-9.5 28 4.933 4.933 0 01-2.5 1 156.844 156.844 0 00-19-6v-3c7.658.088 13.825-2.912 18.5-9a266.179 266.179 0 005.5-15z" opacity="1"></path><path fill="#fff" d="M345.5 114.5a390.118 390.118 0 0015 4.5 44.615 44.615 0 006.5 5.5c1.653-.32 2.653-1.32 3-3a181.41 181.41 0 0030.5 10v4a11.988 11.988 0 006-1 177.647 177.647 0 0130 10.5c-2.161 3.878-5.161 4.544-9 2a1799.996 1799.996 0 01-69-24 108.492 108.492 0 00-14-3.5c-.134-1.792.199-3.458 1-5z" opacity="1"></path><path fill="#fff" d="M271.5 122.5c3.58-.577 6.58.423 9 3a812.203 812.203 0 01-47 16c-2.51-.842-3.177-2.342-2-4.5 4.281-1.832 8.614-2.499 13-2 .837-1.011 1.17-2.178 1-3.5 9.199-1.842 17.865-4.842 26-9z" opacity="1"></path><path fill="#fff" d="M288.5 127.5a83.22 83.22 0 0017 5c-.071 2.524.929 4.524 3 6-15.99 6.331-31.99 12.664-48 19l-1-.5c5.78-4.153 7.447-9.653 5-16.5l-5-2.5a337.3 337.3 0 0129-10.5z" opacity="1"></path><path fill="#000" d="M259.5 143.5c-2.333-1.333-4.667-1.333-7 0-.543-.06-.876-.393-1-1 3-1.333 6-1.333 9 0-.124.607-.457.94-1 1z" opacity="1"></path><path fill="#000" d="M390.5 139.5c.325 1.632 1.325 2.632 3 3a137.416 137.416 0 0013 3 535.94 535.94 0 0128 13.5c2 .667 4 .667 6 0 1.871-5.226 5.538-6.892 11-5a22.885 22.885 0 013 7c-3.657 10.496-10.657 13.996-21 10.5-2.338-1.54-5.005-2.206-8-2a453.496 453.496 0 00-35-12.5 42.729 42.729 0 01-9-6c-2.801-8.47.199-12.303 9-11.5z" opacity="1"></path><path fill="#fff" d="M390.5 139.5c5.957.648 11.29 2.648 16 6a137.416 137.416 0 01-13-3c-1.675-.368-2.675-1.368-3-3z" opacity="1"></path><path fill="#fff" d="M168.5 147.5c1.535-1.288 3.201-1.288 5 0-1.503.552-3.169.552-5 0z" opacity="1"></path><path fill="#fff" d="M214.5 145.5h3v3l-9 2v-3c2.398.241 4.398-.426 6-2z" opacity="1"></path><path fill="#fff" d="M252.5 143.5c2.333-1.333 4.667-1.333 7 0-2.431 1.568-2.431 3.068 0 4.5-1.393 1.171-2.227 2.671-2.5 4.5.352-4.042-1.148-7.042-4.5-9z" opacity="1"></path><path fill="#000" d="M479.5 148.5v1c-2.454-1.296-4.787-1.963-7-2 2.641-1.336 4.974-1.002 7 1z" opacity="1"></path><path fill="#fff" d="M195.5 149.5c2.17 1.338 3.836 3.172 5 5.5 5.243 2.118 4.91 2.784-1 2-2.715-.878-5.049-2.378-7-4.5.84-1.235 1.84-2.235 3-3z" opacity="1"></path><path fill="#fff" d="M390.5 139.5c-8.801-.803-11.801 3.03-9 11.5a42.729 42.729 0 009 6 453.496 453.496 0 0135 12.5c2.405 1.268 5.072 1.935 8 2 10.343 3.496 17.343-.004 21-10.5a22.885 22.885 0 00-3-7c-5.462-1.892-9.129-.226-11 5-2 .667-4 .667-6 0a535.94 535.94 0 00-28-13.5 138.405 138.405 0 0133 11c1.299-.59 2.132-1.59 2.5-3 .186-2.4.686-4.734 1.5-7 15.913 7.464 29.913 17.63 42 30.5 3.497.912 6.497 2.578 9 5a6903.462 6903.462 0 0124 21c4.253.551 7.586 2.551 10 6a832.832 832.832 0 0149 32 114.501 114.501 0 009.5 3.5c3.789-.445 5.123-2.445 4-6-4.141-5.811-9.641-9.644-16.5-11.5a361.53 361.53 0 01-21-15l2-.5a233.24 233.24 0 0134 9.5 66.151 66.151 0 0017 8c6.344 5.845 13.677 10.178 22 13l1.5 1.5 1 8c1.563 1.225 2.73 2.725 3.5 4.5a394.25 394.25 0 01-12 28.5c-.482 3.934-1.648 7.6-3.5 11-1.413 1.914-3.247 3.247-5.5 4a767.757 767.757 0 01-74-55.5 2401.202 2401.202 0 01-69-50 1361.405 1361.405 0 00-133-55l5.5-16.5a1630.12 1630.12 0 0147.5 17z" opacity="1"></path><path fill="#fff" d="M394.5 147.5a545.189 545.189 0 0114 3.5 550.17 550.17 0 0124 13c2.73.728 5.397.562 8-.5l5 3.5c-11.457.469-22.123-2.198-32-8a278.063 278.063 0 01-22-6.5c1.452-1.44 2.452-3.106 3-5z" opacity="1"></path><path fill="#fff" d="M225.5 159.5c-.934 1.068-1.268 2.401-1 4-1.877.4-3.377 1.4-4.5 3l-3-1a42.869 42.869 0 01-10.5 3c.383 2.962-.617 3.962-3 3l-3.5 5c.067-5.52-1.433-10.52-4.5-15 1.076-1.156 2.076-.989 3 .5 2.333.667 4.667.667 7 0a181.704 181.704 0 0022-9.5 14.972 14.972 0 013-3.5 114.034 114.034 0 0011.5-3.5l1.5 1c-1.224 2.339-1.224 4.672 0 7a26.852 26.852 0 006 3.5c-3.781 3.209-8.114 5.375-13 6.5a50.29 50.29 0 00-7-8c-1.34 1.367-2.673 2.7-4 4z" opacity="1"></path><path fill="#fff" d="M168.5 147.5c-5.455 7.778-3.455 11.278 6 10.5a6.978 6.978 0 002.5-3.5 28.415 28.415 0 007.5 4.5c1.147 2.488 2.814 4.488 5 6-4.355-.165-7.355 1.668-9 5.5l-2 6c-1.609-2.649-2.443-5.649-2.5-9a24.297 24.297 0 00-9.5-4c-3.026-3.433-4.192-7.433-3.5-12 1.412-1.952 3.245-3.285 5.5-4z" opacity="1"></path><path fill="#fff" d="M479.5 149.5v-1c2.787.878 4.12 2.878 4 6a18.391 18.391 0 01-4 9c-1.333 1.333-2.667 1.333-4 0-2.268-3.44-5.268-5.94-9-7.5.608-.87 1.441-1.37 2.5-1.5 4.217 5.291 8.383 5.291 12.5 0-.528-1.836-1.194-3.503-2-5z" opacity="1"></path><path fill="#000" d="M225.5 159.5v3c1.478-.262 2.811.071 4 1-1.667 1.166-3.334 1.166-5 0-.268-1.599.066-2.932 1-4z" opacity="1"></path><path fill="#fff" d="M193.5 175.5a18.074 18.074 0 00-2-8l1-1c2.132 2.905 2.466 5.905 1 9z" opacity="1"></path><path fill="#000" d="M425.5 169.5c2.995-.206 5.662.46 8 2-2.928-.065-5.595-.732-8-2z" opacity="1"></path><path fill="#fff" d="M228.5 168.5c1.175-.219 2.175.114 3 1a1056.433 1056.433 0 00-48.5 22l-.5-1c7.126-4.4 14.46-8.567 22-12.5a380.95 380.95 0 0124-9.5z" opacity="1"></path><path fill="#fff" d="M180.5 170.5c.044 6.546 3.377 9.046 10 7.5a10.515 10.515 0 013-2.5c-1.118 3.609-3.618 5.609-7.5 6a31.625 31.625 0 00-7.5-2v-3l2-6z" opacity="1"></path><path fill="#fff" d="M169.5 179.5c1.788-.285 3.455.048 5 1 1.793 3.066 4.46 4.9 8 5.5-2.522.61-4.522 1.943-6 4-5.395 1.345-10.728 1.845-16 1.5a106.463 106.463 0 004.5-7c1.11-1.537 2.61-2.203 4.5-2v-3z" opacity="1"></path><path fill="#fff" d="M152.5 181.5c.876-.131 1.543.202 2 1-6.748 8.162-4.915 12.828 5.5 14a167.597 167.597 0 0013.5-2c1.196.346 1.196.846 0 1.5a3518.717 3518.717 0 00-128 96 63.132 63.132 0 00-13 7.5l-4-3a99516.201 99516.201 0 01-17-40c3.803-4.104 5.803-8.938 6-14.5 8.76-3.122 16.593-7.622 23.5-13.5 16.695-8.213 34.195-13.713 52.5-16.5a167.695 167.695 0 01-31 19l-5.5 5.5c-2.643 4.111-1.643 6.778 3 8 8.363-3.097 15.863-7.597 22.5-13.5a164.267 164.267 0 0024-16 442.993 442.993 0 0024-14 585.593 585.593 0 0122-19.5z" opacity="1"></path><path fill="#fff" d="M192.5 191.5c2.787.878 4.12 2.878 4 6a86.378 86.378 0 01-3.5 12 68.261 68.261 0 01-15.5 8 12.862 12.862 0 01-6-1.5 45.825 45.825 0 01-7-7c.786-1.988 2.286-3.154 4.5-3.5 5.228 3.72 11.062 5.72 17.5 6 .356-3.064-.477-5.731-2.5-8a16.242 16.242 0 010-8c3.047-1.062 5.88-2.395 8.5-4z" opacity="1"></path><path fill="#fff" d="M451.5 191.5c4.268.806 8.101 2.473 11.5 5 .667 2 .667 4 0 6-5.748 6.884-4.248 9.717 4.5 8.5a99.506 99.506 0 0110-6.5c5.152 2.976 5.152 6.143 0 9.5a829.865 829.865 0 01-8.5 3.5 59.948 59.948 0 01-16-8c-2.592-5.827-3.092-11.827-1.5-18z" opacity="1"></path><path fill="#fff" d="M11.5 239.5c1.879-.107 2.212.393 1 1.5-3.375.632-3.709.132-1-1.5z" opacity="1"></path><path fill="#fff" d="M633.5 239.5c1.422.209 2.755.709 4 1.5-1.963.844-3.296.344-4-1.5z" opacity="1"></path><path fill="#fff" d="M5.5 243.5c.698 2.167 2.031 4 4 5.5a11.531 11.531 0 00-4.5 3.5 8.189 8.189 0 00-2.5-4c.76-1.86 1.76-3.527 3-5z" opacity="1"></path><path fill="#fff" d="M639.5 244.5c5.996 2.009 6.496 5.009 1.5 9-1.015-2.563-2.515-3.896-4.5-4 1.797-1.195 2.797-2.862 3-5z" opacity="1"></path></g></mask><mask id="mask_12"><g fill="#fff" stroke="none" stroke-width="0" transform="translate(0,0)"><path fill="#fff" d="M11.5-.5h9a80660.179 80660.179 0 00303 101l302-101h10a41.45 41.45 0 004 12 32.7 32.7 0 00-2 4.5c.255 1.326.922 2.326 2 3l-1 1c1.75 1.754 2.417 3.92 2 6.5a53.477 53.477 0 01-10-2 913.17 913.17 0 00-40 15c-1.45 1.35-2.117 3.017-2 5-7.561 3.603-15.561 5.77-24 6.5a186.8 186.8 0 01-36 13 1550.504 1550.504 0 01-72 27 29.84 29.84 0 01-5 9c-4.127 1.292-7.294.125-9.5-3.5a3362.931 3362.931 0 00-61.5 23.5 5915.881 5915.881 0 0158 19.5c2.454-4.246 6.121-7.08 11-8.5a144.216 144.216 0 0016-3.5c.151 3.35 1.985 5.016 5.5 5 3.64-1.385 7.14-1.052 10.5 1 .928-6.598 4.594-8.765 11-6.5.833 1.5 2 2.667 3.5 3.5a167.778 167.778 0 002 15 163.634 163.634 0 00-13.5 23 587.91 587.91 0 0137 29.5 84.195 84.195 0 0012 4.5 407.863 407.863 0 0152 11.5 435953.17 435953.17 0 0155 23 369.519 369.519 0 017 7.5v10a1668.616 1668.616 0 01-25.5 48 19.602 19.602 0 00-3.5 2h-11a565.007 565.007 0 00-50-38.5 34.78 34.78 0 00-10-2c-2.838-1.755-3.505-4.088-2-7a34731.902 34731.902 0 00-56-40c-3.503.293-6.169 2.126-8 5.5-8.282 3.842-16.615 3.842-25 0-5.354-3.69-10.02-8.024-14-13a3.647 3.647 0 011-1.5c-1.349-.772-2.182-1.939-2.5-3.5a114.67 114.67 0 00-1.5-15 10.502 10.502 0 01-5-3.5 85285.634 85285.634 0 01-46.5-21.5 1308.974 1308.974 0 01-54-20c-5.204 1.276-10.204.609-15-2a2314.86 2314.86 0 01-60 22 318.147 318.147 0 00-25.5 12.5 106.85 106.85 0 00-27 12.5 114.67 114.67 0 00-1.5 15 29.102 29.102 0 00-4 9c-8.342 9.56-18.842 13.393-31.5 11.5a84.733 84.733 0 01-10-8c-1-.667-2-.667-3 0a1604.045 1604.045 0 00-55 40c1.26 1.814 1.26 3.647 0 5.5-3.667 1.751-7.334 2.585-11 2.5-1.333 2-3 3.667-5 5a1018.036 1018.036 0 01-35 24 174.202 174.202 0 00-12 10.5h-13c-1.03-3.391-3.03-6.057-6-8a319.607 319.607 0 00-9.5-22c-.637-1.803-1.803-3.136-3.5-4a233.72 233.72 0 01-7-15v-10a65.997 65.997 0 016-8.5 1031.11 1031.11 0 0156-23 403.194 403.194 0 0151-11.5 55.94 55.94 0 0016-6.5 127.814 127.814 0 0114-13 238.768 238.768 0 0121-15c-2.158-1.457-3.991-3.29-5.5-5.5a1667.915 1667.915 0 00-8-16c-1.011-.837-2.178-1.17-3.5-1-.394-3.357.939-5.69 4-7-1.02-1.932-1.187-3.932-.5-6 2.507-5.766 6.674-7.433 12.5-5 1.434 1.72 2.267 3.72 2.5 6a18.099 18.099 0 015.5-2c2.632.94 5.298 1.107 8 .5 1.536-1.96 3.369-3.46 5.5-4.5 7.759 1.395 14.926 4.228 21.5 8.5a23.65 23.65 0 013 3.5 5915.881 5915.881 0 0158-19.5A1751.465 1751.465 0 00204 96.5c-1.691 3.713-4.525 4.879-8.5 3.5a14.706 14.706 0 00-4-5 3.944 3.944 0 011-2 15.918 15.918 0 01-4.5-2.5 4637.217 4637.217 0 01-72-27c-11.755-2.725-22.921-6.892-33.5-12.5a72.537 72.537 0 01-20-4.5c-2.844-1.597-4.844-3.93-6-7a639.89 639.89 0 00-41-15c-2.85.603-5.684 1.27-8.5 2l-1.5-1c1.115-1.098 1.115-2.265 0-3.5a77.359 77.359 0 003-8c-2.667-1-2.667-2 0-3l-1-1c2.16-3.103 3.493-6.603 4-10.5zm174 137a95.356 95.356 0 008 8.5 216.652 216.652 0 00-10.5 7.5 17.842 17.842 0 01-4.5-5.5 160.485 160.485 0 017-10.5zm273 1c3.911 1.458 6.744 4.125 8.5 8 .781 1.444.614 2.777-.5 4a14.972 14.972 0 00-3.5 3 216.652 216.652 0 00-10.5-7.5c2.149-1.786 4.149-4.286 6-7.5z" opacity=".905"></path><path fill="#fff" d="M18.5 5.5a90.476 90.476 0 019 2.5 29.927 29.927 0 004 7c3.064-1.271 6.397-1.771 10-1.5a22.763 22.763 0 005 4 7.291 7.291 0 01-2 3 222.654 222.654 0 01-28-9.5c-1.473-.71-2.14-1.876-2-3.5 1.88.27 3.213-.396 4-2z" opacity="1"></path><path fill="#fff" d="M625.5 5.5c1.544.203 2.878.87 4 2 1.633-1.244 2.633-.744 3 1.5a32.49 32.49 0 01-7 4.5 527.9 527.9 0 01-25 7 38.157 38.157 0 013-8c3.726 1.727 6.559.727 8.5-3a240.26 240.26 0 01-.5 6 6.846 6.846 0 004-1 31.866 31.866 0 003-7c2.567-.221 4.901-.888 7-2z" opacity="1"></path><path fill="#fff" d="M51.5 15.5c6.573-.077 7.906 2.59 4 8a60.392 60.392 0 0111.5 4c.414-.457.914-.79 1.5-1 1.532 3.25 3.366 3.584 5.5 1 1.009 1.525 1.509 3.192 1.5 5 2.823-.475 4.823.525 6 3a24.826 24.826 0 01-5 10 203.667 203.667 0 00-13-5 14.974 14.974 0 003-3.5c-1.14-.741-1.14-1.575 0-2.5-.387-1.22-1.22-1.886-2.5-2-4.106.471-7.773-.862-11-4a16.707 16.707 0 00-2.5-7.5 12.988 12.988 0 001-5.5z" opacity="1"></path><path fill="#fff" d="M591.5 15.5c1.175-.219 2.175.114 3 1a66.705 66.705 0 002 5.5c-1.91 1.7-3.077 3.867-3.5 6.5-3.457 3.33-7.624 4.663-12.5 4v7c1.175-.219 2.175.114 3 1a111.254 111.254 0 01-16 5 33.28 33.28 0 00-3-11 19.632 19.632 0 017-4.5 12.935 12.935 0 015-.5c-.146-2.442.687-3.11 2.5-2a291.115 291.115 0 0111.5-4l1-1c-2.35-2.56-2.35-4.893 0-7z" opacity="1"></path><path fill="#fff" d="M61.5 20.5c1.349-1.297 2.682-1.13 4 .5-1.32.195-2.653.028-4-.5z" opacity="1"></path><path fill="#fff" d="M581.5 19.5c3.743-.04 3.91.626.5 2a2.429 2.429 0 01-.5-2z" opacity="1"></path><path fill="#fff" d="M574.5 20.5h3c-.746 3.81-1.746 3.81-3 0z" opacity="1"></path><path fill="#fff" d="M80.5 25.5a44.763 44.763 0 0011 3c.474 3.487 2.308 4.487 5.5 3a38.326 38.326 0 016.5 2.5 11.392 11.392 0 01-2 2.5c-7.255-1.58-13.922-4.414-20-8.5-.752-.67-1.086-1.504-1-2.5z" opacity="1"></path><path fill="#fff" d="M564.5 25.5c2.049.206 2.383 1.04 1 2.5a249.34 249.34 0 01-11 5.5c-1.094-1.368-.76-2.535 1-3.5l-1-1c3.552-.878 6.886-2.044 10-3.5z" opacity="1"></path><path fill="#fff" d="M547.5 30.5c1.894.548 3.56 1.548 5 3-2.661 1-5.328 2-8 3a11.392 11.392 0 01-2-2.5 69.883 69.883 0 015-3.5z" opacity="1"></path><path fill="#fff" d="M463.5 63.5c1.307-1.302 1.307-2.635 0-4a4180.415 4180.415 0 0169-23c1.708.203 3.041 1.036 4 2.5a1339.83 1339.83 0 01-73 24.5z" opacity="1"></path><path fill="#fff" d="M556.5 36.5h5c.219 1.175-.114 2.175-1 3a325.242 325.242 0 01-27 10c-1.078 1.975-.745 3.808 1 5.5l-2 1A2704.482 2704.482 0 01456 84.5c-1.326-.255-2.326-.922-3-2l-2.5-7.5a3.944 3.944 0 011-2 11251.11 11251.11 0 00105-36.5zM85.5 36.5a133.62 133.62 0 0115.5 4L194.5 73l2 1a60.276 60.276 0 01-4.5 11.5A13404.996 13404.996 0 01113.5 56c-1.073-1.25-1.073-2.584 0-4a9.26 9.26 0 00-2-2.5 341.429 341.429 0 00-24-8.5c-1.537-1.11-2.204-2.61-2-4.5z" opacity="1"></path><path fill="#fff" d="M182.5 63.5a1205.896 1205.896 0 01-74-25c1.377-.023 2.877-.69 4.5-2A1826.965 1826.965 0 01158.5 52a319.607 319.607 0 0024 6.5v5z" opacity="1"></path><path fill="#fff" d="M463.5 63.5a16.15 16.15 0 01-8 2.5c1.333-1 1.333-2 0-3 .608-.87 1.441-1.37 2.5-1.5 1.597 1.385 3.43 2.051 5.5 2z" opacity="1"></path><path fill="#fff" d="M182.5 63.5c2.07.051 3.903-.615 5.5-2 1.059.13 1.892.63 2.5 1.5-1.333 1-1.333 2 0 3a16.15 16.15 0 01-8-2.5z" opacity="1"></path><path fill="#fff" d="M194.5 63.5c1.542.8 3.208 1.134 5 1-.897 5.614-3.231 6.28-7 2a184.223 184.223 0 002-3z" opacity="1"></path><path fill="#fff" d="M450.5 63.5c4.189 2.614 3.689 4.28-1.5 5-2.02-.532-2.853-1.865-2.5-4 1.599.268 2.932-.066 4-1z" opacity="1"></path><path fill="#fff" d="M210.5 68.5c1.098 1.1 1.265 2.434.5 4a101.708 101.708 0 00-6.5 19 22.69 22.69 0 01-8.5-2c-.617-.95-.451-1.782.5-2.5a12.935 12.935 0 015-.5c-1.125-4.75-.958-9.416.5-14l1 1a14.294 14.294 0 016.5-2.5c.752-.67 1.086-1.504 1-2.5z" opacity="1"></path><path fill="#fff" d="M439.5 68.5c1.676.683 2.343 2.017 2 4 1.175-.219 2.175.114 3 1l2 5c-1.723 2.368-2.39 5.034-2 8a9.107 9.107 0 005-1c.952 1.545 1.285 3.212 1 5-2.436-.183-4.603.484-6.5 2l-1-1c-1.554-6.928-4.054-13.428-7.5-19.5a8.435 8.435 0 014-.5v-3z" opacity="1"></path><path fill="#fff" d="M219.5 72.5a78.053 78.053 0 0122 7.5c-1.141.741-1.141 1.575 0 2.5l-1 1a172.115 172.115 0 01-26-9.5c1.049-.492 2.049-.326 3 .5 1.022-.356 1.689-1.022 2-2z" opacity="1"></path><path fill="#fff" d="M423.5 72.5c2.342.004 4.342.838 6 2.5a247.059 247.059 0 01-23.5 8.5c-.867-2.537-.201-4.537 2-6a140.859 140.859 0 0015.5-5z" opacity="1"></path><path fill="#fff" d="M431.5 79.5c.996-.086 1.829.248 2.5 1l3.5 10.5-1 1a2675.915 2675.915 0 01-55 20 180.978 180.978 0 01-11.5 5.5 140.11 140.11 0 00-23.5-8.5 2567.337 2567.337 0 0185-29.5zM213.5 79.5a2463.68 2463.68 0 00106 35c1.847 1.011 3.68 2.011 5.5 3 .667 1 .667 2 0 3-8.42 8.217-17.92 9.717-28.5 4.5a630.868 630.868 0 00-26-11A3192.652 3192.652 0 00211 92.5l-1.5-1a126.506 126.506 0 014-12z" opacity="1"></path><path fill="#fff" d="M246.5 81.5a2.427 2.427 0 012 .5c-1.333 1-1.333 2 0 3-2.053.325-4.053-.009-6-1 1.937-.122 3.27-.955 4-2.5z" opacity="1"></path><path fill="#fff" d="M399.5 80.5c.904.709 1.237 1.709 1 3a4.932 4.932 0 013 .5c-2.029.681-4.029 1.014-6 1l2-2c-1.098-.77-1.098-1.603 0-2.5z" opacity="1"></path><path fill="#fff" d="M258.5 86.5l-2 2c-2.559.11-4.892-.556-7-2 1.92-3.693 3.253-3.693 4 0h5z" opacity="1"></path><path fill="#fff" d="M392.5 82.5c1.574.437 2.741 1.437 3.5 3 .688.832.521 1.498-.5 2-4.895 1.916-9.895 3.082-15 3.5 1.211-1.113 1.211-2.28 0-3.5a45.487 45.487 0 017-3c1.342 1.505 3.008 2.171 5 2v-4z" opacity="1"></path><path fill="#fff" d="M256.5 88.5l2-2a2.429 2.429 0 01.5-2 127.62 127.62 0 007.5 3c-1.885.697-2.218 1.697-1 3-3.356.993-6.356.327-9-2z" opacity="1"></path><path fill="#fff" d="M369.5 90.5c2.453 1.317 5.12 2.15 8 2.5a367.46 367.46 0 01-35.5 11.5c-2.355-.459-4.521-1.292-6.5-2.5a70.374 70.374 0 0011-3.5c3.608 2.77 5.608 1.77 6-3 5.933-1.092 11.6-2.759 17-5z" opacity="1"></path><path fill="#fff" d="M275.5 90.5a138.351 138.351 0 0018 5c-.084 5.194 1.916 6.194 6 3a201.544 201.544 0 0130 11l-3 3a5742.544 5742.544 0 01-57-19.5c2.474-.037 4.474-.87 6-2.5z" opacity="1"></path><path fill="#fff" d="M334.5 107.5c3.482-.432 5.815.901 7 4a163.15 163.15 0 01-9.5 28 4.933 4.933 0 01-2.5 1 156.844 156.844 0 00-19-6v-3c7.658.088 13.825-2.912 18.5-9a266.179 266.179 0 005.5-15z" opacity="1"></path><path fill="#fff" d="M345.5 114.5a390.118 390.118 0 0015 4.5 44.615 44.615 0 006.5 5.5c1.653-.32 2.653-1.32 3-3a181.41 181.41 0 0030.5 10v4a11.988 11.988 0 006-1 177.647 177.647 0 0130 10.5c-2.161 3.878-5.161 4.544-9 2a1799.996 1799.996 0 01-69-24 108.492 108.492 0 00-14-3.5c-.134-1.792.199-3.458 1-5z" opacity="1"></path><path fill="#fff" d="M271.5 122.5c3.58-.577 6.58.423 9 3a812.203 812.203 0 01-47 16c-2.51-.842-3.177-2.342-2-4.5 4.281-1.832 8.614-2.499 13-2 .837-1.011 1.17-2.178 1-3.5 9.199-1.842 17.865-4.842 26-9z" opacity="1"></path><path fill="#fff" d="M288.5 127.5a83.22 83.22 0 0017 5c-.071 2.524.929 4.524 3 6-15.99 6.331-31.99 12.664-48 19l-1-.5c5.78-4.153 7.447-9.653 5-16.5l-5-2.5a337.3 337.3 0 0129-10.5z" opacity="1"></path><path fill="#fff" d="M259.5 143.5c-2.333-1.333-4.667-1.333-7 0-.543-.06-.876-.393-1-1 3-1.333 6-1.333 9 0-.124.607-.457.94-1 1z" opacity="1"></path><path fill="#fff" d="M390.5 139.5c.325 1.632 1.325 2.632 3 3a137.416 137.416 0 0013 3 535.94 535.94 0 0128 13.5c2 .667 4 .667 6 0 1.871-5.226 5.538-6.892 11-5a22.885 22.885 0 013 7c-3.657 10.496-10.657 13.996-21 10.5-2.338-1.54-5.005-2.206-8-2a453.496 453.496 0 00-35-12.5 42.729 42.729 0 01-9-6c-2.801-8.47.199-12.303 9-11.5z" opacity="1"></path><path fill="#fff" d="M390.5 139.5c5.957.648 11.29 2.648 16 6a137.416 137.416 0 01-13-3c-1.675-.368-2.675-1.368-3-3z" opacity="1"></path><path fill="#fff" d="M168.5 147.5c1.535-1.288 3.201-1.288 5 0-1.503.552-3.169.552-5 0z" opacity="1"></path><path fill="#fff" d="M214.5 145.5h3v3l-9 2v-3c2.398.241 4.398-.426 6-2z" opacity="1"></path><path fill="#fff" d="M252.5 143.5c2.333-1.333 4.667-1.333 7 0-2.431 1.568-2.431 3.068 0 4.5-1.393 1.171-2.227 2.671-2.5 4.5.352-4.042-1.148-7.042-4.5-9z" opacity="1"></path><path fill="#fff" d="M479.5 148.5v1c-2.454-1.296-4.787-1.963-7-2 2.641-1.336 4.974-1.002 7 1z" opacity="1"></path><path fill="#fff" d="M195.5 149.5c2.17 1.338 3.836 3.172 5 5.5 5.243 2.118 4.91 2.784-1 2-2.715-.878-5.049-2.378-7-4.5.84-1.235 1.84-2.235 3-3z" opacity="1"></path><path fill="#fff" d="M390.5 139.5c-8.801-.803-11.801 3.03-9 11.5a42.729 42.729 0 009 6 453.496 453.496 0 0135 12.5c2.405 1.268 5.072 1.935 8 2 10.343 3.496 17.343-.004 21-10.5a22.885 22.885 0 00-3-7c-5.462-1.892-9.129-.226-11 5-2 .667-4 .667-6 0a535.94 535.94 0 00-28-13.5 138.405 138.405 0 0133 11c1.299-.59 2.132-1.59 2.5-3 .186-2.4.686-4.734 1.5-7 15.913 7.464 29.913 17.63 42 30.5 3.497.912 6.497 2.578 9 5a6903.462 6903.462 0 0124 21c4.253.551 7.586 2.551 10 6a832.832 832.832 0 0149 32 114.501 114.501 0 009.5 3.5c3.789-.445 5.123-2.445 4-6-4.141-5.811-9.641-9.644-16.5-11.5a361.53 361.53 0 01-21-15l2-.5a233.24 233.24 0 0134 9.5 66.151 66.151 0 0017 8c6.344 5.845 13.677 10.178 22 13l1.5 1.5 1 8c1.563 1.225 2.73 2.725 3.5 4.5a394.25 394.25 0 01-12 28.5c-.482 3.934-1.648 7.6-3.5 11-1.413 1.914-3.247 3.247-5.5 4a767.757 767.757 0 01-74-55.5 2401.202 2401.202 0 01-69-50 1361.405 1361.405 0 00-133-55l5.5-16.5a1630.12 1630.12 0 0147.5 17z" opacity="1"></path><path fill="#fff" d="M394.5 147.5a545.189 545.189 0 0114 3.5 550.17 550.17 0 0124 13c2.73.728 5.397.562 8-.5l5 3.5c-11.457.469-22.123-2.198-32-8a278.063 278.063 0 01-22-6.5c1.452-1.44 2.452-3.106 3-5z" opacity="1"></path><path fill="#fff" d="M225.5 159.5c-.934 1.068-1.268 2.401-1 4-1.877.4-3.377 1.4-4.5 3l-3-1a42.869 42.869 0 01-10.5 3c.383 2.962-.617 3.962-3 3l-3.5 5c.067-5.52-1.433-10.52-4.5-15 1.076-1.156 2.076-.989 3 .5 2.333.667 4.667.667 7 0a181.704 181.704 0 0022-9.5 14.972 14.972 0 013-3.5 114.034 114.034 0 0011.5-3.5l1.5 1c-1.224 2.339-1.224 4.672 0 7a26.852 26.852 0 006 3.5c-3.781 3.209-8.114 5.375-13 6.5a50.29 50.29 0 00-7-8c-1.34 1.367-2.673 2.7-4 4z" opacity="1"></path><path fill="#fff" d="M168.5 147.5c-5.455 7.778-3.455 11.278 6 10.5a6.978 6.978 0 002.5-3.5 28.415 28.415 0 007.5 4.5c1.147 2.488 2.814 4.488 5 6-4.355-.165-7.355 1.668-9 5.5l-2 6c-1.609-2.649-2.443-5.649-2.5-9a24.297 24.297 0 00-9.5-4c-3.026-3.433-4.192-7.433-3.5-12 1.412-1.952 3.245-3.285 5.5-4z" opacity="1"></path><path fill="#fff" d="M479.5 149.5v-1c2.787.878 4.12 2.878 4 6a18.391 18.391 0 01-4 9c-1.333 1.333-2.667 1.333-4 0-2.268-3.44-5.268-5.94-9-7.5.608-.87 1.441-1.37 2.5-1.5 4.217 5.291 8.383 5.291 12.5 0-.528-1.836-1.194-3.503-2-5z" opacity="1"></path><path fill="#fff" d="M225.5 159.5v3c1.478-.262 2.811.071 4 1-1.667 1.166-3.334 1.166-5 0-.268-1.599.066-2.932 1-4z" opacity="1"></path><path fill="#fff" d="M193.5 175.5a18.074 18.074 0 00-2-8l1-1c2.132 2.905 2.466 5.905 1 9z" opacity="1"></path><path fill="#fff" d="M425.5 169.5c2.995-.206 5.662.46 8 2-2.928-.065-5.595-.732-8-2z" opacity="1"></path><path fill="#fff" d="M228.5 168.5c1.175-.219 2.175.114 3 1a1056.433 1056.433 0 00-48.5 22l-.5-1c7.126-4.4 14.46-8.567 22-12.5a380.95 380.95 0 0124-9.5z" opacity="1"></path><path fill="#fff" d="M180.5 170.5c.044 6.546 3.377 9.046 10 7.5a10.515 10.515 0 013-2.5c-1.118 3.609-3.618 5.609-7.5 6a31.625 31.625 0 00-7.5-2v-3l2-6z" opacity="1"></path><path fill="#fff" d="M169.5 179.5c1.788-.285 3.455.048 5 1 1.793 3.066 4.46 4.9 8 5.5-2.522.61-4.522 1.943-6 4-5.395 1.345-10.728 1.845-16 1.5a106.463 106.463 0 004.5-7c1.11-1.537 2.61-2.203 4.5-2v-3z" opacity="1"></path><path fill="#fff" d="M152.5 181.5c.876-.131 1.543.202 2 1-6.748 8.162-4.915 12.828 5.5 14a167.597 167.597 0 0013.5-2c1.196.346 1.196.846 0 1.5a3518.717 3518.717 0 00-128 96 63.132 63.132 0 00-13 7.5l-4-3a99516.201 99516.201 0 01-17-40c3.803-4.104 5.803-8.938 6-14.5 8.76-3.122 16.593-7.622 23.5-13.5 16.695-8.213 34.195-13.713 52.5-16.5a167.695 167.695 0 01-31 19l-5.5 5.5c-2.643 4.111-1.643 6.778 3 8 8.363-3.097 15.863-7.597 22.5-13.5a164.267 164.267 0 0024-16 442.993 442.993 0 0024-14 585.593 585.593 0 0122-19.5z" opacity="1"></path><path fill="#fff" d="M192.5 191.5c2.787.878 4.12 2.878 4 6a86.378 86.378 0 01-3.5 12 68.261 68.261 0 01-15.5 8 12.862 12.862 0 01-6-1.5 45.825 45.825 0 01-7-7c.786-1.988 2.286-3.154 4.5-3.5 5.228 3.72 11.062 5.72 17.5 6 .356-3.064-.477-5.731-2.5-8a16.242 16.242 0 010-8c3.047-1.062 5.88-2.395 8.5-4z" opacity="1"></path><path fill="#fff" d="M451.5 191.5c4.268.806 8.101 2.473 11.5 5 .667 2 .667 4 0 6-5.748 6.884-4.248 9.717 4.5 8.5a99.506 99.506 0 0110-6.5c5.152 2.976 5.152 6.143 0 9.5a829.865 829.865 0 01-8.5 3.5 59.948 59.948 0 01-16-8c-2.592-5.827-3.092-11.827-1.5-18z" opacity="1"></path><path fill="#fff" d="M11.5 239.5c1.879-.107 2.212.393 1 1.5-3.375.632-3.709.132-1-1.5z" opacity="1"></path><path fill="#fff" d="M633.5 239.5c1.422.209 2.755.709 4 1.5-1.963.844-3.296.344-4-1.5z" opacity="1"></path><path fill="#fff" d="M5.5 243.5c.698 2.167 2.031 4 4 5.5a11.531 11.531 0 00-4.5 3.5 8.189 8.189 0 00-2.5-4c.76-1.86 1.76-3.527 3-5z" opacity="1"></path><path fill="#fff" d="M639.5 244.5c5.996 2.009 6.496 5.009 1.5 9-1.015-2.563-2.515-3.896-4.5-4 1.797-1.195 2.797-2.862 3-5z" opacity="1"></path></g></mask></defs><g transform="translate(50,47.974348)rotate(0)scale(0.12345679012345678,0.12345679012345678)translate(-324,-152.5078125)"><g></g><metadata xmlns:rdf="http://www.w3.org/1999/02/22-rdf-syntax-ns#" xmlns:cc="http://creativecommons.org/ns#" xmlns:dc="http://purl.org/dc/elements/1.1/"><rdf:RDF><rdf:Description dc:title="Crossed rifles" dc:creator="nachtfaiter"></rdf:Description><cc:Work rdf:about="https://heraldicon.org/charges/lvlTLp/1"><cc:license rdf:resource="https://creativecommons.org/publicdomain/mark/1.0/"></cc:license><cc:attributionName>Crossed rifles by nachtfaiter</cc:attributionName><cc:attributionURL rdf:resource="https://heraldicon.org/users/nachtfaiter"></cc:attributionURL></cc:Work><cc:License rdf:about="https://creativecommons.org/publicdomain/mark/1.0/"></cc:License></rdf:RDF></metadata><g><g><g mask="url(#mask_12)"><rect transform="translate(324,152.5078125)scale(8.1,8.1)rotate(0)translate(-50,-47.974348)" x="-500" y="-500" width="1100" height="1100" fill="#333333"></rect></g><g mask="url(#mask_11)"><g transform="translate(324,152.5078125)scale(8.1,8.1)rotate(0)translate(-50,-47.974348)"><rect y="-1000" fill="#333333" width="2000" x="-1000" height="2000"></rect><g></g></g></g><g mask="url(#mask_10)"><g fill="#333333" stroke="none" stroke-width="0" transform="translate(0,0)"><path fill="#333333" d="M11.5-.5h9a80660.179 80660.179 0 00303 101l302-101h10a41.45 41.45 0 004 12 32.7 32.7 0 00-2 4.5c.255 1.326.922 2.326 2 3l-1 1c1.75 1.754 2.417 3.92 2 6.5a53.477 53.477 0 01-10-2 913.17 913.17 0 00-40 15c-1.45 1.35-2.117 3.017-2 5-7.561 3.603-15.561 5.77-24 6.5a186.8 186.8 0 01-36 13 1550.504 1550.504 0 01-72 27 29.84 29.84 0 01-5 9c-4.127 1.292-7.294.125-9.5-3.5a3362.931 3362.931 0 00-61.5 23.5 5915.881 5915.881 0 0158 19.5c2.454-4.246 6.121-7.08 11-8.5a144.216 144.216 0 0016-3.5c.151 3.35 1.985 5.016 5.5 5 3.64-1.385 7.14-1.052 10.5 1 .928-6.598 4.594-8.765 11-6.5.833 1.5 2 2.667 3.5 3.5a167.778 167.778 0 002 15 163.634 163.634 0 00-13.5 23 587.91 587.91 0 0137 29.5 84.195 84.195 0 0012 4.5 407.863 407.863 0 0152 11.5 435953.17 435953.17 0 0155 23 369.519 369.519 0 017 7.5v10a1668.616 1668.616 0 01-25.5 48 19.602 19.602 0 00-3.5 2h-11a565.007 565.007 0 00-50-38.5 34.78 34.78 0 00-10-2c-2.838-1.755-3.505-4.088-2-7a34731.902 34731.902 0 00-56-40c-3.503.293-6.169 2.126-8 5.5-8.282 3.842-16.615 3.842-25 0-5.354-3.69-10.02-8.024-14-13a3.647 3.647 0 011-1.5c-1.349-.772-2.182-1.939-2.5-3.5a114.67 114.67 0 00-1.5-15 10.502 10.502 0 01-5-3.5 85285.634 85285.634 0 01-46.5-21.5 1308.974 1308.974 0 01-54-20c-5.204 1.276-10.204.609-15-2a2314.86 2314.86 0 01-60 22 318.147 318.147 0 00-25.5 12.5 106.85 106.85 0 00-27 12.5 114.67 114.67 0 00-1.5 15 29.102 29.102 0 00-4 9c-8.342 9.56-18.842 13.393-31.5 11.5a84.733 84.733 0 01-10-8c-1-.667-2-.667-3 0a1604.045 1604.045 0 00-55 40c1.26 1.814 1.26 3.647 0 5.5-3.667 1.751-7.334 2.585-11 2.5-1.333 2-3 3.667-5 5a1018.036 1018.036 0 01-35 24 174.202 174.202 0 00-12 10.5h-13c-1.03-3.391-3.03-6.057-6-8a319.607 319.607 0 00-9.5-22c-.637-1.803-1.803-3.136-3.5-4a233.72 233.72 0 01-7-15v-10a65.997 65.997 0 016-8.5 1031.11 1031.11 0 0156-23 403.194 403.194 0 0151-11.5 55.94 55.94 0 0016-6.5 127.814 127.814 0 0114-13 238.768 238.768 0 0121-15c-2.158-1.457-3.991-3.29-5.5-5.5a1667.915 1667.915 0 00-8-16c-1.011-.837-2.178-1.17-3.5-1-.394-3.357.939-5.69 4-7-1.02-1.932-1.187-3.932-.5-6 2.507-5.766 6.674-7.433 12.5-5 1.434 1.72 2.267 3.72 2.5 6a18.099 18.099 0 015.5-2c2.632.94 5.298 1.107 8 .5 1.536-1.96 3.369-3.46 5.5-4.5 7.759 1.395 14.926 4.228 21.5 8.5a23.65 23.65 0 013 3.5 5915.881 5915.881 0 0158-19.5A1751.465 1751.465 0 00204 96.5c-1.691 3.713-4.525 4.879-8.5 3.5a14.706 14.706 0 00-4-5 3.944 3.944 0 011-2 15.918 15.918 0 01-4.5-2.5 4637.217 4637.217 0 01-72-27c-11.755-2.725-22.921-6.892-33.5-12.5a72.537 72.537 0 01-20-4.5c-2.844-1.597-4.844-3.93-6-7a639.89 639.89 0 00-41-15c-2.85.603-5.684 1.27-8.5 2l-1.5-1c1.115-1.098 1.115-2.265 0-3.5a77.359 77.359 0 003-8c-2.667-1-2.667-2 0-3l-1-1c2.16-3.103 3.493-6.603 4-10.5zm174 137a95.356 95.356 0 008 8.5 216.652 216.652 0 00-10.5 7.5 17.842 17.842 0 01-4.5-5.5 160.485 160.485 0 017-10.5zm273 1c3.911 1.458 6.744 4.125 8.5 8 .781 1.444.614 2.777-.5 4a14.972 14.972 0 00-3.5 3 216.652 216.652 0 00-10.5-7.5c2.149-1.786 4.149-4.286 6-7.5z" opacity=".905"></path><path fill="#333333" d="M18.5 5.5a90.476 90.476 0 019 2.5 29.927 29.927 0 004 7c3.064-1.271 6.397-1.771 10-1.5a22.763 22.763 0 005 4 7.291 7.291 0 01-2 3 222.654 222.654 0 01-28-9.5c-1.473-.71-2.14-1.876-2-3.5 1.88.27 3.213-.396 4-2z" opacity="1"></path><path fill="#333333" d="M625.5 5.5c1.544.203 2.878.87 4 2 1.633-1.244 2.633-.744 3 1.5a32.49 32.49 0 01-7 4.5 527.9 527.9 0 01-25 7 38.157 38.157 0 013-8c3.726 1.727 6.559.727 8.5-3a240.26 240.26 0 01-.5 6 6.846 6.846 0 004-1 31.866 31.866 0 003-7c2.567-.221 4.901-.888 7-2z" opacity="1"></path><path fill="#333333" d="M51.5 15.5c6.573-.077 7.906 2.59 4 8a60.392 60.392 0 0111.5 4c.414-.457.914-.79 1.5-1 1.532 3.25 3.366 3.584 5.5 1 1.009 1.525 1.509 3.192 1.5 5 2.823-.475 4.823.525 6 3a24.826 24.826 0 01-5 10 203.667 203.667 0 00-13-5 14.974 14.974 0 003-3.5c-1.14-.741-1.14-1.575 0-2.5-.387-1.22-1.22-1.886-2.5-2-4.106.471-7.773-.862-11-4a16.707 16.707 0 00-2.5-7.5 12.988 12.988 0 001-5.5z" opacity="1"></path><path fill="#333333" d="M591.5 15.5c1.175-.219 2.175.114 3 1a66.705 66.705 0 002 5.5c-1.91 1.7-3.077 3.867-3.5 6.5-3.457 3.33-7.624 4.663-12.5 4v7c1.175-.219 2.175.114 3 1a111.254 111.254 0 01-16 5 33.28 33.28 0 00-3-11 19.632 19.632 0 017-4.5 12.935 12.935 0 015-.5c-.146-2.442.687-3.11 2.5-2a291.115 291.115 0 0111.5-4l1-1c-2.35-2.56-2.35-4.893 0-7z" opacity="1"></path><path fill="#333333" d="M61.5 20.5c1.349-1.297 2.682-1.13 4 .5-1.32.195-2.653.028-4-.5z" opacity="1"></path><path fill="#333333" d="M581.5 19.5c3.743-.04 3.91.626.5 2a2.429 2.429 0 01-.5-2z" opacity="1"></path><path fill="#333333" d="M574.5 20.5h3c-.746 3.81-1.746 3.81-3 0z" opacity="1"></path><path fill="#333333" d="M80.5 25.5a44.763 44.763 0 0011 3c.474 3.487 2.308 4.487 5.5 3a38.326 38.326 0 016.5 2.5 11.392 11.392 0 01-2 2.5c-7.255-1.58-13.922-4.414-20-8.5-.752-.67-1.086-1.504-1-2.5z" opacity="1"></path><path fill="#333333" d="M564.5 25.5c2.049.206 2.383 1.04 1 2.5a249.34 249.34 0 01-11 5.5c-1.094-1.368-.76-2.535 1-3.5l-1-1c3.552-.878 6.886-2.044 10-3.5z" opacity="1"></path><path fill="#333333" d="M547.5 30.5c1.894.548 3.56 1.548 5 3-2.661 1-5.328 2-8 3a11.392 11.392 0 01-2-2.5 69.883 69.883 0 015-3.5z" opacity="1"></path><path fill="#333333" d="M463.5 63.5c1.307-1.302 1.307-2.635 0-4a4180.415 4180.415 0 0169-23c1.708.203 3.041 1.036 4 2.5a1339.83 1339.83 0 01-73 24.5z" opacity="1"></path><path fill="#333333" d="M556.5 36.5h5c.219 1.175-.114 2.175-1 3a325.242 325.242 0 01-27 10c-1.078 1.975-.745 3.808 1 5.5l-2 1A2704.482 2704.482 0 01456 84.5c-1.326-.255-2.326-.922-3-2l-2.5-7.5a3.944 3.944 0 011-2 11251.11 11251.11 0 00105-36.5zM85.5 36.5a133.62 133.62 0 0115.5 4L194.5 73l2 1a60.276 60.276 0 01-4.5 11.5A13404.996 13404.996 0 01113.5 56c-1.073-1.25-1.073-2.584 0-4a9.26 9.26 0 00-2-2.5 341.429 341.429 0 00-24-8.5c-1.537-1.11-2.204-2.61-2-4.5z" opacity="1"></path><path fill="#333333" d="M182.5 63.5a1205.896 1205.896 0 01-74-25c1.377-.023 2.877-.69 4.5-2A1826.965 1826.965 0 01158.5 52a319.607 319.607 0 0024 6.5v5z" opacity="1"></path><path fill="#333333" d="M463.5 63.5a16.15 16.15 0 01-8 2.5c1.333-1 1.333-2 0-3 .608-.87 1.441-1.37 2.5-1.5 1.597 1.385 3.43 2.051 5.5 2z" opacity="1"></path><path fill="#333333" d="M182.5 63.5c2.07.051 3.903-.615 5.5-2 1.059.13 1.892.63 2.5 1.5-1.333 1-1.333 2 0 3a16.15 16.15 0 01-8-2.5z" opacity="1"></path><path fill="#333333" d="M194.5 63.5c1.542.8 3.208 1.134 5 1-.897 5.614-3.231 6.28-7 2a184.223 184.223 0 002-3z" opacity="1"></path><path fill="#333333" d="M450.5 63.5c4.189 2.614 3.689 4.28-1.5 5-2.02-.532-2.853-1.865-2.5-4 1.599.268 2.932-.066 4-1z" opacity="1"></path><path fill="#333333" d="M210.5 68.5c1.098 1.1 1.265 2.434.5 4a101.708 101.708 0 00-6.5 19 22.69 22.69 0 01-8.5-2c-.617-.95-.451-1.782.5-2.5a12.935 12.935 0 015-.5c-1.125-4.75-.958-9.416.5-14l1 1a14.294 14.294 0 016.5-2.5c.752-.67 1.086-1.504 1-2.5z" opacity="1"></path><path fill="#333333" d="M439.5 68.5c1.676.683 2.343 2.017 2 4 1.175-.219 2.175.114 3 1l2 5c-1.723 2.368-2.39 5.034-2 8a9.107 9.107 0 005-1c.952 1.545 1.285 3.212 1 5-2.436-.183-4.603.484-6.5 2l-1-1c-1.554-6.928-4.054-13.428-7.5-19.5a8.435 8.435 0 014-.5v-3z" opacity="1"></path><path fill="#333333" d="M219.5 72.5a78.053 78.053 0 0122 7.5c-1.141.741-1.141 1.575 0 2.5l-1 1a172.115 172.115 0 01-26-9.5c1.049-.492 2.049-.326 3 .5 1.022-.356 1.689-1.022 2-2z" opacity="1"></path><path fill="#333333" d="M423.5 72.5c2.342.004 4.342.838 6 2.5a247.059 247.059 0 01-23.5 8.5c-.867-2.537-.201-4.537 2-6a140.859 140.859 0 0015.5-5z" opacity="1"></path><path fill="#333333" d="M431.5 79.5c.996-.086 1.829.248 2.5 1l3.5 10.5-1 1a2675.915 2675.915 0 01-55 20 180.978 180.978 0 01-11.5 5.5 140.11 140.11 0 00-23.5-8.5 2567.337 2567.337 0 0185-29.5zM213.5 79.5a2463.68 2463.68 0 00106 35c1.847 1.011 3.68 2.011 5.5 3 .667 1 .667 2 0 3-8.42 8.217-17.92 9.717-28.5 4.5a630.868 630.868 0 00-26-11A3192.652 3192.652 0 00211 92.5l-1.5-1a126.506 126.506 0 014-12z" opacity="1"></path><path fill="#333333" d="M246.5 81.5a2.427 2.427 0 012 .5c-1.333 1-1.333 2 0 3-2.053.325-4.053-.009-6-1 1.937-.122 3.27-.955 4-2.5z" opacity="1"></path><path fill="#333333" d="M399.5 80.5c.904.709 1.237 1.709 1 3a4.932 4.932 0 013 .5c-2.029.681-4.029 1.014-6 1l2-2c-1.098-.77-1.098-1.603 0-2.5z" opacity="1"></path><path fill="#333333" d="M258.5 86.5l-2 2c-2.559.11-4.892-.556-7-2 1.92-3.693 3.253-3.693 4 0h5z" opacity="1"></path><path fill="#333333" d="M392.5 82.5c1.574.437 2.741 1.437 3.5 3 .688.832.521 1.498-.5 2-4.895 1.916-9.895 3.082-15 3.5 1.211-1.113 1.211-2.28 0-3.5a45.487 45.487 0 017-3c1.342 1.505 3.008 2.171 5 2v-4z" opacity="1"></path><path fill="#333333" d="M256.5 88.5l2-2a2.429 2.429 0 01.5-2 127.62 127.62 0 007.5 3c-1.885.697-2.218 1.697-1 3-3.356.993-6.356.327-9-2z" opacity="1"></path><path fill="#333333" d="M369.5 90.5c2.453 1.317 5.12 2.15 8 2.5a367.46 367.46 0 01-35.5 11.5c-2.355-.459-4.521-1.292-6.5-2.5a70.374 70.374 0 0011-3.5c3.608 2.77 5.608 1.77 6-3 5.933-1.092 11.6-2.759 17-5z" opacity="1"></path><path fill="#333333" d="M275.5 90.5a138.351 138.351 0 0018 5c-.084 5.194 1.916 6.194 6 3a201.544 201.544 0 0130 11l-3 3a5742.544 5742.544 0 01-57-19.5c2.474-.037 4.474-.87 6-2.5z" opacity="1"></path><path fill="#333333" d="M334.5 107.5c3.482-.432 5.815.901 7 4a163.15 163.15 0 01-9.5 28 4.933 4.933 0 01-2.5 1 156.844 156.844 0 00-19-6v-3c7.658.088 13.825-2.912 18.5-9a266.179 266.179 0 005.5-15z" opacity="1"></path><path fill="#333333" d="M345.5 114.5a390.118 390.118 0 0015 4.5 44.615 44.615 0 006.5 5.5c1.653-.32 2.653-1.32 3-3a181.41 181.41 0 0030.5 10v4a11.988 11.988 0 006-1 177.647 177.647 0 0130 10.5c-2.161 3.878-5.161 4.544-9 2a1799.996 1799.996 0 01-69-24 108.492 108.492 0 00-14-3.5c-.134-1.792.199-3.458 1-5z" opacity="1"></path><path fill="#333333" d="M271.5 122.5c3.58-.577 6.58.423 9 3a812.203 812.203 0 01-47 16c-2.51-.842-3.177-2.342-2-4.5 4.281-1.832 8.614-2.499 13-2 .837-1.011 1.17-2.178 1-3.5 9.199-1.842 17.865-4.842 26-9z" opacity="1"></path><path fill="#333333" d="M288.5 127.5a83.22 83.22 0 0017 5c-.071 2.524.929 4.524 3 6-15.99 6.331-31.99 12.664-48 19l-1-.5c5.78-4.153 7.447-9.653 5-16.5l-5-2.5a337.3 337.3 0 0129-10.5z" opacity="1"></path><path fill="#333333" d="M259.5 143.5c-2.333-1.333-4.667-1.333-7 0-.543-.06-.876-.393-1-1 3-1.333 6-1.333 9 0-.124.607-.457.94-1 1z" opacity="1"></path><path fill="#333333" d="M390.5 139.5c.325 1.632 1.325 2.632 3 3a137.416 137.416 0 0013 3 535.94 535.94 0 0128 13.5c2 .667 4 .667 6 0 1.871-5.226 5.538-6.892 11-5a22.885 22.885 0 013 7c-3.657 10.496-10.657 13.996-21 10.5-2.338-1.54-5.005-2.206-8-2a453.496 453.496 0 00-35-12.5 42.729 42.729 0 01-9-6c-2.801-8.47.199-12.303 9-11.5z" opacity="1"></path><path fill="#333333" d="M390.5 139.5c5.957.648 11.29 2.648 16 6a137.416 137.416 0 01-13-3c-1.675-.368-2.675-1.368-3-3z" opacity="1"></path><path fill="#333333" d="M168.5 147.5c1.535-1.288 3.201-1.288 5 0-1.503.552-3.169.552-5 0z" opacity="1"></path><path fill="#333333" d="M214.5 145.5h3v3l-9 2v-3c2.398.241 4.398-.426 6-2z" opacity="1"></path><path fill="#333333" d="M252.5 143.5c2.333-1.333 4.667-1.333 7 0-2.431 1.568-2.431 3.068 0 4.5-1.393 1.171-2.227 2.671-2.5 4.5.352-4.042-1.148-7.042-4.5-9z" opacity="1"></path><path fill="#333333" d="M479.5 148.5v1c-2.454-1.296-4.787-1.963-7-2 2.641-1.336 4.974-1.002 7 1z" opacity="1"></path><path fill="#333333" d="M195.5 149.5c2.17 1.338 3.836 3.172 5 5.5 5.243 2.118 4.91 2.784-1 2-2.715-.878-5.049-2.378-7-4.5.84-1.235 1.84-2.235 3-3z" opacity="1"></path><path fill="#333333" d="M390.5 139.5c-8.801-.803-11.801 3.03-9 11.5a42.729 42.729 0 009 6 453.496 453.496 0 0135 12.5c2.405 1.268 5.072 1.935 8 2 10.343 3.496 17.343-.004 21-10.5a22.885 22.885 0 00-3-7c-5.462-1.892-9.129-.226-11 5-2 .667-4 .667-6 0a535.94 535.94 0 00-28-13.5 138.405 138.405 0 0133 11c1.299-.59 2.132-1.59 2.5-3 .186-2.4.686-4.734 1.5-7 15.913 7.464 29.913 17.63 42 30.5 3.497.912 6.497 2.578 9 5a6903.462 6903.462 0 0124 21c4.253.551 7.586 2.551 10 6a832.832 832.832 0 0149 32 114.501 114.501 0 009.5 3.5c3.789-.445 5.123-2.445 4-6-4.141-5.811-9.641-9.644-16.5-11.5a361.53 361.53 0 01-21-15l2-.5a233.24 233.24 0 0134 9.5 66.151 66.151 0 0017 8c6.344 5.845 13.677 10.178 22 13l1.5 1.5 1 8c1.563 1.225 2.73 2.725 3.5 4.5a394.25 394.25 0 01-12 28.5c-.482 3.934-1.648 7.6-3.5 11-1.413 1.914-3.247 3.247-5.5 4a767.757 767.757 0 01-74-55.5 2401.202 2401.202 0 01-69-50 1361.405 1361.405 0 00-133-55l5.5-16.5a1630.12 1630.12 0 0147.5 17z" opacity="1"></path><path fill="#333333" d="M394.5 147.5a545.189 545.189 0 0114 3.5 550.17 550.17 0 0124 13c2.73.728 5.397.562 8-.5l5 3.5c-11.457.469-22.123-2.198-32-8a278.063 278.063 0 01-22-6.5c1.452-1.44 2.452-3.106 3-5z" opacity="1"></path><path fill="#333333" d="M225.5 159.5c-.934 1.068-1.268 2.401-1 4-1.877.4-3.377 1.4-4.5 3l-3-1a42.869 42.869 0 01-10.5 3c.383 2.962-.617 3.962-3 3l-3.5 5c.067-5.52-1.433-10.52-4.5-15 1.076-1.156 2.076-.989 3 .5 2.333.667 4.667.667 7 0a181.704 181.704 0 0022-9.5 14.972 14.972 0 013-3.5 114.034 114.034 0 0011.5-3.5l1.5 1c-1.224 2.339-1.224 4.672 0 7a26.852 26.852 0 006 3.5c-3.781 3.209-8.114 5.375-13 6.5a50.29 50.29 0 00-7-8c-1.34 1.367-2.673 2.7-4 4z" opacity="1"></path><path fill="#333333" d="M168.5 147.5c-5.455 7.778-3.455 11.278 6 10.5a6.978 6.978 0 002.5-3.5 28.415 28.415 0 007.5 4.5c1.147 2.488 2.814 4.488 5 6-4.355-.165-7.355 1.668-9 5.5l-2 6c-1.609-2.649-2.443-5.649-2.5-9a24.297 24.297 0 00-9.5-4c-3.026-3.433-4.192-7.433-3.5-12 1.412-1.952 3.245-3.285 5.5-4z" opacity="1"></path><path fill="#333333" d="M479.5 149.5v-1c2.787.878 4.12 2.878 4 6a18.391 18.391 0 01-4 9c-1.333 1.333-2.667 1.333-4 0-2.268-3.44-5.268-5.94-9-7.5.608-.87 1.441-1.37 2.5-1.5 4.217 5.291 8.383 5.291 12.5 0-.528-1.836-1.194-3.503-2-5z" opacity="1"></path><path fill="#333333" d="M225.5 159.5v3c1.478-.262 2.811.071 4 1-1.667 1.166-3.334 1.166-5 0-.268-1.599.066-2.932 1-4z" opacity="1"></path><path fill="#333333" d="M193.5 175.5a18.074 18.074 0 00-2-8l1-1c2.132 2.905 2.466 5.905 1 9z" opacity="1"></path><path fill="#333333" d="M425.5 169.5c2.995-.206 5.662.46 8 2-2.928-.065-5.595-.732-8-2z" opacity="1"></path><path fill="#333333" d="M228.5 168.5c1.175-.219 2.175.114 3 1a1056.433 1056.433 0 00-48.5 22l-.5-1c7.126-4.4 14.46-8.567 22-12.5a380.95 380.95 0 0124-9.5z" opacity="1"></path><path fill="#333333" d="M180.5 170.5c.044 6.546 3.377 9.046 10 7.5a10.515 10.515 0 013-2.5c-1.118 3.609-3.618 5.609-7.5 6a31.625 31.625 0 00-7.5-2v-3l2-6z" opacity="1"></path><path fill="#333333" d="M169.5 179.5c1.788-.285 3.455.048 5 1 1.793 3.066 4.46 4.9 8 5.5-2.522.61-4.522 1.943-6 4-5.395 1.345-10.728 1.845-16 1.5a106.463 106.463 0 004.5-7c1.11-1.537 2.61-2.203 4.5-2v-3z" opacity="1"></path><path fill="#333333" d="M152.5 181.5c.876-.131 1.543.202 2 1-6.748 8.162-4.915 12.828 5.5 14a167.597 167.597 0 0013.5-2c1.196.346 1.196.846 0 1.5a3518.717 3518.717 0 00-128 96 63.132 63.132 0 00-13 7.5l-4-3a99516.201 99516.201 0 01-17-40c3.803-4.104 5.803-8.938 6-14.5 8.76-3.122 16.593-7.622 23.5-13.5 16.695-8.213 34.195-13.713 52.5-16.5a167.695 167.695 0 01-31 19l-5.5 5.5c-2.643 4.111-1.643 6.778 3 8 8.363-3.097 15.863-7.597 22.5-13.5a164.267 164.267 0 0024-16 442.993 442.993 0 0024-14 585.593 585.593 0 0122-19.5z" opacity="1"></path><path fill="#333333" d="M192.5 191.5c2.787.878 4.12 2.878 4 6a86.378 86.378 0 01-3.5 12 68.261 68.261 0 01-15.5 8 12.862 12.862 0 01-6-1.5 45.825 45.825 0 01-7-7c.786-1.988 2.286-3.154 4.5-3.5 5.228 3.72 11.062 5.72 17.5 6 .356-3.064-.477-5.731-2.5-8a16.242 16.242 0 010-8c3.047-1.062 5.88-2.395 8.5-4z" opacity="1"></path><path fill="#333333" d="M451.5 191.5c4.268.806 8.101 2.473 11.5 5 .667 2 .667 4 0 6-5.748 6.884-4.248 9.717 4.5 8.5a99.506 99.506 0 0110-6.5c5.152 2.976 5.152 6.143 0 9.5a829.865 829.865 0 01-8.5 3.5 59.948 59.948 0 01-16-8c-2.592-5.827-3.092-11.827-1.5-18z" opacity="1"></path><path fill="#333333" d="M11.5 239.5c1.879-.107 2.212.393 1 1.5-3.375.632-3.709.132-1-1.5z" opacity="1"></path><path fill="#333333" d="M633.5 239.5c1.422.209 2.755.709 4 1.5-1.963.844-3.296.344-4-1.5z" opacity="1"></path><path fill="#333333" d="M5.5 243.5c.698 2.167 2.031 4 4 5.5a11.531 11.531 0 00-4.5 3.5 8.189 8.189 0 00-2.5-4c.76-1.86 1.76-3.527 3-5z" opacity="1"></path><path fill="#333333" d="M639.5 244.5c5.996 2.009 6.496 5.009 1.5 9-1.015-2.563-2.515-3.896-4.5-4 1.797-1.195 2.797-2.862 3-5z" opacity="1"></path></g></g></g></g></g></g></g></g></g></svg>