<svg viewBox="-10 -10 1020 1219.3587" xmlns="http://www.w3.org/2000/svg" xmlns:xlink="http://www.w3.org/1999/xlink" version="1.1" width="1020" height="1219.3587"><style></style><g transform="translate(500,599.67935)scale(10,10)translate(-50,-59.967935)" style="transition:transform 0.5s"><g><g></g></g><g transform="translate(0,0)" style="transition:transform 0.5s"></g><g style="transition:transform 0.5s"><g><metadata xmlns:rdf="http://www.w3.org/1999/02/22-rdf-syntax-ns#" xmlns:cc="http://creativecommons.org/ns#" xmlns:dc="http://purl.org/dc/elements/1.1/"><rdf:RDF><rdf:Description dc:title="Andoran" dc:creator="kosen"></rdf:Description><cc:Work rdf:about="https://heraldicon.org/arms/CMZ6pm/3"><cc:license rdf:resource="private"></cc:license><cc:attributionName>Andoran by kosen</cc:attributionName><cc:attributionURL rdf:resource="https://heraldicon.org/users/kosen"></cc:attributionURL></cc:Work><cc:License rdf:about="private"></cc:License></rdf:RDF></metadata><defs><pattern width="20" height="20" patternUnits="userSpaceOnUse" id="void"><rect x="0" y="0" width="20" height="20" fill="#fff" class="light"></rect><rect x="0" y="0" width="10" height="10" fill="#ddd" class="dark"></rect><rect x="10" y="10" width="10" height="10" fill="#ddd" class="dark"></rect></pattern><pattern width="4" height="4" patternUnits="userSpaceOnUse" id="selected"><rect x="0" y="0" width="4" height="4" fill="#f5f5f5"></rect><g fill="#000"><circle cx="0" cy="0" r="0.3"></circle><circle cx="4" cy="0" r="0.3"></circle><circle cx="0" cy="4" r="0.3"></circle><circle cx="4" cy="4" r="0.3"></circle><circle cx="2" cy="2" r="0.3"></circle></g></pattern><pattern id="ermine" width="12.5" height="20" patternUnits="userSpaceOnUse" x="-3.125" y="-5"><rect x="0" y="0" width="12.5" height="20" fill="#f6f6f6"></rect><g fill="#333333"><path d="M 47.757634,0 C 60.324696,15.689314 25.136924,21.898666 44.167046,36.607392
    52.24587,41.673746 71.273896,30.723464 54.57765,17.322176
    52.423302,16.178163 62.11999,8.3349512 47.757634,0 Z m 21.182372,36.935142 c
    -3.23154,0.326846 -6.282816,2.290268 -9.155302,7.193166 -3.590588,8.33495
    12.209402,22.716724 22.98117,5.06625 C 83.483996,47.069952 94.0755,53.93163
    100,39.386326 89.946316,49.845864 79.713166,37.425428 70.377642,36.935142 Z
    M 29.80469,37.099022 C 20.469164,37.58931 10.053647,50.173186 0,39.55021
    5.9244804,54.095512 16.51881,47.070414 17.416458,49.358438 28.0087,67.008916
    43.805884,52.627142 40.215296,44.292192 36.983772,38.73555 33.395278,36.9356
    29.80469,37.099026 Z m 21.003542,10.13249 c -8.25835,37.262136
    -23.51556,63.576958 -40.211787,82.534868 7.001653,-1.96117
    14.718613,-7.19213 22.258843,-11.93164 -4.667764,9.80582 -9.154602,18.14082
    -13.822364,26.80264 2.692942,-0.98059 11.489886,-9.64435 23.338826,-22.3919
    1.795296,17.48703 4.305204,25.8241 8.07532,37.75452 3.052012,-11.93042
    5.208468,-19.9411 7.54234,-37.9184 7.181178,8.00805 14.001888,16.17984
    23.696484,23.04393 L 68.221186,117.34659 c 7.001634,4.41265
    14.72282,10.29262 22.083522,12.74406 C 72.710832,110.15215
    57.989412,84.493648 50.808232,47.231516 Z" transform="scale(0.0625,0.0625)"></path><path d="M 47.757634,0 C 60.324696,15.689314 25.136924,21.898666 44.167046,36.607392
    52.24587,41.673746 71.273896,30.723464 54.57765,17.322176
    52.423302,16.178163 62.11999,8.3349512 47.757634,0 Z m 21.182372,36.935142 c
    -3.23154,0.326846 -6.282816,2.290268 -9.155302,7.193166 -3.590588,8.33495
    12.209402,22.716724 22.98117,5.06625 C 83.483996,47.069952 94.0755,53.93163
    100,39.386326 89.946316,49.845864 79.713166,37.425428 70.377642,36.935142 Z
    M 29.80469,37.099022 C 20.469164,37.58931 10.053647,50.173186 0,39.55021
    5.9244804,54.095512 16.51881,47.070414 17.416458,49.358438 28.0087,67.008916
    43.805884,52.627142 40.215296,44.292192 36.983772,38.73555 33.395278,36.9356
    29.80469,37.099026 Z m 21.003542,10.13249 c -8.25835,37.262136
    -23.51556,63.576958 -40.211787,82.534868 7.001653,-1.96117
    14.718613,-7.19213 22.258843,-11.93164 -4.667764,9.80582 -9.154602,18.14082
    -13.822364,26.80264 2.692942,-0.98059 11.489886,-9.64435 23.338826,-22.3919
    1.795296,17.48703 4.305204,25.8241 8.07532,37.75452 3.052012,-11.93042
    5.208468,-19.9411 7.54234,-37.9184 7.181178,8.00805 14.001888,16.17984
    23.696484,23.04393 L 68.221186,117.34659 c 7.001634,4.41265
    14.72282,10.29262 22.083522,12.74406 C 72.710832,110.15215
    57.989412,84.493648 50.808232,47.231516 Z" transform="translate(6.25,10) scale(0.0625,0.0625)"></path></g></pattern><pattern id="ermines" width="12.5" height="20" patternUnits="userSpaceOnUse" x="-3.125" y="-5"><rect x="0" y="0" width="12.5" height="20" fill="#333333"></rect><g fill="#f6f6f6"><path d="M 47.757634,0 C 60.324696,15.689314 25.136924,21.898666 44.167046,36.607392
    52.24587,41.673746 71.273896,30.723464 54.57765,17.322176
    52.423302,16.178163 62.11999,8.3349512 47.757634,0 Z m 21.182372,36.935142 c
    -3.23154,0.326846 -6.282816,2.290268 -9.155302,7.193166 -3.590588,8.33495
    12.209402,22.716724 22.98117,5.06625 C 83.483996,47.069952 94.0755,53.93163
    100,39.386326 89.946316,49.845864 79.713166,37.425428 70.377642,36.935142 Z
    M 29.80469,37.099022 C 20.469164,37.58931 10.053647,50.173186 0,39.55021
    5.9244804,54.095512 16.51881,47.070414 17.416458,49.358438 28.0087,67.008916
    43.805884,52.627142 40.215296,44.292192 36.983772,38.73555 33.395278,36.9356
    29.80469,37.099026 Z m 21.003542,10.13249 c -8.25835,37.262136
    -23.51556,63.576958 -40.211787,82.534868 7.001653,-1.96117
    14.718613,-7.19213 22.258843,-11.93164 -4.667764,9.80582 -9.154602,18.14082
    -13.822364,26.80264 2.692942,-0.98059 11.489886,-9.64435 23.338826,-22.3919
    1.795296,17.48703 4.305204,25.8241 8.07532,37.75452 3.052012,-11.93042
    5.208468,-19.9411 7.54234,-37.9184 7.181178,8.00805 14.001888,16.17984
    23.696484,23.04393 L 68.221186,117.34659 c 7.001634,4.41265
    14.72282,10.29262 22.083522,12.74406 C 72.710832,110.15215
    57.989412,84.493648 50.808232,47.231516 Z" transform="scale(0.0625,0.0625)"></path><path d="M 47.757634,0 C 60.324696,15.689314 25.136924,21.898666 44.167046,36.607392
    52.24587,41.673746 71.273896,30.723464 54.57765,17.322176
    52.423302,16.178163 62.11999,8.3349512 47.757634,0 Z m 21.182372,36.935142 c
    -3.23154,0.326846 -6.282816,2.290268 -9.155302,7.193166 -3.590588,8.33495
    12.209402,22.716724 22.98117,5.06625 C 83.483996,47.069952 94.0755,53.93163
    100,39.386326 89.946316,49.845864 79.713166,37.425428 70.377642,36.935142 Z
    M 29.80469,37.099022 C 20.469164,37.58931 10.053647,50.173186 0,39.55021
    5.9244804,54.095512 16.51881,47.070414 17.416458,49.358438 28.0087,67.008916
    43.805884,52.627142 40.215296,44.292192 36.983772,38.73555 33.395278,36.9356
    29.80469,37.099026 Z m 21.003542,10.13249 c -8.25835,37.262136
    -23.51556,63.576958 -40.211787,82.534868 7.001653,-1.96117
    14.718613,-7.19213 22.258843,-11.93164 -4.667764,9.80582 -9.154602,18.14082
    -13.822364,26.80264 2.692942,-0.98059 11.489886,-9.64435 23.338826,-22.3919
    1.795296,17.48703 4.305204,25.8241 8.07532,37.75452 3.052012,-11.93042
    5.208468,-19.9411 7.54234,-37.9184 7.181178,8.00805 14.001888,16.17984
    23.696484,23.04393 L 68.221186,117.34659 c 7.001634,4.41265
    14.72282,10.29262 22.083522,12.74406 C 72.710832,110.15215
    57.989412,84.493648 50.808232,47.231516 Z" transform="translate(6.25,10) scale(0.0625,0.0625)"></path></g></pattern><pattern id="erminois" width="12.5" height="20" patternUnits="userSpaceOnUse" x="-3.125" y="-5"><rect x="0" y="0" width="12.5" height="20" fill="#f2bc51"></rect><g fill="#333333"><path d="M 47.757634,0 C 60.324696,15.689314 25.136924,21.898666 44.167046,36.607392
    52.24587,41.673746 71.273896,30.723464 54.57765,17.322176
    52.423302,16.178163 62.11999,8.3349512 47.757634,0 Z m 21.182372,36.935142 c
    -3.23154,0.326846 -6.282816,2.290268 -9.155302,7.193166 -3.590588,8.33495
    12.209402,22.716724 22.98117,5.06625 C 83.483996,47.069952 94.0755,53.93163
    100,39.386326 89.946316,49.845864 79.713166,37.425428 70.377642,36.935142 Z
    M 29.80469,37.099022 C 20.469164,37.58931 10.053647,50.173186 0,39.55021
    5.9244804,54.095512 16.51881,47.070414 17.416458,49.358438 28.0087,67.008916
    43.805884,52.627142 40.215296,44.292192 36.983772,38.73555 33.395278,36.9356
    29.80469,37.099026 Z m 21.003542,10.13249 c -8.25835,37.262136
    -23.51556,63.576958 -40.211787,82.534868 7.001653,-1.96117
    14.718613,-7.19213 22.258843,-11.93164 -4.667764,9.80582 -9.154602,18.14082
    -13.822364,26.80264 2.692942,-0.98059 11.489886,-9.64435 23.338826,-22.3919
    1.795296,17.48703 4.305204,25.8241 8.07532,37.75452 3.052012,-11.93042
    5.208468,-19.9411 7.54234,-37.9184 7.181178,8.00805 14.001888,16.17984
    23.696484,23.04393 L 68.221186,117.34659 c 7.001634,4.41265
    14.72282,10.29262 22.083522,12.74406 C 72.710832,110.15215
    57.989412,84.493648 50.808232,47.231516 Z" transform="scale(0.0625,0.0625)"></path><path d="M 47.757634,0 C 60.324696,15.689314 25.136924,21.898666 44.167046,36.607392
    52.24587,41.673746 71.273896,30.723464 54.57765,17.322176
    52.423302,16.178163 62.11999,8.3349512 47.757634,0 Z m 21.182372,36.935142 c
    -3.23154,0.326846 -6.282816,2.290268 -9.155302,7.193166 -3.590588,8.33495
    12.209402,22.716724 22.98117,5.06625 C 83.483996,47.069952 94.0755,53.93163
    100,39.386326 89.946316,49.845864 79.713166,37.425428 70.377642,36.935142 Z
    M 29.80469,37.099022 C 20.469164,37.58931 10.053647,50.173186 0,39.55021
    5.9244804,54.095512 16.51881,47.070414 17.416458,49.358438 28.0087,67.008916
    43.805884,52.627142 40.215296,44.292192 36.983772,38.73555 33.395278,36.9356
    29.80469,37.099026 Z m 21.003542,10.13249 c -8.25835,37.262136
    -23.51556,63.576958 -40.211787,82.534868 7.001653,-1.96117
    14.718613,-7.19213 22.258843,-11.93164 -4.667764,9.80582 -9.154602,18.14082
    -13.822364,26.80264 2.692942,-0.98059 11.489886,-9.64435 23.338826,-22.3919
    1.795296,17.48703 4.305204,25.8241 8.07532,37.75452 3.052012,-11.93042
    5.208468,-19.9411 7.54234,-37.9184 7.181178,8.00805 14.001888,16.17984
    23.696484,23.04393 L 68.221186,117.34659 c 7.001634,4.41265
    14.72282,10.29262 22.083522,12.74406 C 72.710832,110.15215
    57.989412,84.493648 50.808232,47.231516 Z" transform="translate(6.25,10) scale(0.0625,0.0625)"></path></g></pattern><pattern id="pean" width="12.5" height="20" patternUnits="userSpaceOnUse" x="-3.125" y="-5"><rect x="0" y="0" width="12.5" height="20" fill="#333333"></rect><g fill="#f2bc51"><path d="M 47.757634,0 C 60.324696,15.689314 25.136924,21.898666 44.167046,36.607392
    52.24587,41.673746 71.273896,30.723464 54.57765,17.322176
    52.423302,16.178163 62.11999,8.3349512 47.757634,0 Z m 21.182372,36.935142 c
    -3.23154,0.326846 -6.282816,2.290268 -9.155302,7.193166 -3.590588,8.33495
    12.209402,22.716724 22.98117,5.06625 C 83.483996,47.069952 94.0755,53.93163
    100,39.386326 89.946316,49.845864 79.713166,37.425428 70.377642,36.935142 Z
    M 29.80469,37.099022 C 20.469164,37.58931 10.053647,50.173186 0,39.55021
    5.9244804,54.095512 16.51881,47.070414 17.416458,49.358438 28.0087,67.008916
    43.805884,52.627142 40.215296,44.292192 36.983772,38.73555 33.395278,36.9356
    29.80469,37.099026 Z m 21.003542,10.13249 c -8.25835,37.262136
    -23.51556,63.576958 -40.211787,82.534868 7.001653,-1.96117
    14.718613,-7.19213 22.258843,-11.93164 -4.667764,9.80582 -9.154602,18.14082
    -13.822364,26.80264 2.692942,-0.98059 11.489886,-9.64435 23.338826,-22.3919
    1.795296,17.48703 4.305204,25.8241 8.07532,37.75452 3.052012,-11.93042
    5.208468,-19.9411 7.54234,-37.9184 7.181178,8.00805 14.001888,16.17984
    23.696484,23.04393 L 68.221186,117.34659 c 7.001634,4.41265
    14.72282,10.29262 22.083522,12.74406 C 72.710832,110.15215
    57.989412,84.493648 50.808232,47.231516 Z" transform="scale(0.0625,0.0625)"></path><path d="M 47.757634,0 C 60.324696,15.689314 25.136924,21.898666 44.167046,36.607392
    52.24587,41.673746 71.273896,30.723464 54.57765,17.322176
    52.423302,16.178163 62.11999,8.3349512 47.757634,0 Z m 21.182372,36.935142 c
    -3.23154,0.326846 -6.282816,2.290268 -9.155302,7.193166 -3.590588,8.33495
    12.209402,22.716724 22.98117,5.06625 C 83.483996,47.069952 94.0755,53.93163
    100,39.386326 89.946316,49.845864 79.713166,37.425428 70.377642,36.935142 Z
    M 29.80469,37.099022 C 20.469164,37.58931 10.053647,50.173186 0,39.55021
    5.9244804,54.095512 16.51881,47.070414 17.416458,49.358438 28.0087,67.008916
    43.805884,52.627142 40.215296,44.292192 36.983772,38.73555 33.395278,36.9356
    29.80469,37.099026 Z m 21.003542,10.13249 c -8.25835,37.262136
    -23.51556,63.576958 -40.211787,82.534868 7.001653,-1.96117
    14.718613,-7.19213 22.258843,-11.93164 -4.667764,9.80582 -9.154602,18.14082
    -13.822364,26.80264 2.692942,-0.98059 11.489886,-9.64435 23.338826,-22.3919
    1.795296,17.48703 4.305204,25.8241 8.07532,37.75452 3.052012,-11.93042
    5.208468,-19.9411 7.54234,-37.9184 7.181178,8.00805 14.001888,16.17984
    23.696484,23.04393 L 68.221186,117.34659 c 7.001634,4.41265
    14.72282,10.29262 22.083522,12.74406 C 72.710832,110.15215
    57.989412,84.493648 50.808232,47.231516 Z" transform="translate(6.25,10) scale(0.0625,0.0625)"></path></g></pattern></defs><defs><mask id="mask_3"><path d="M50,0h50v33.33333c0,35.72656 -19.05989,68.73926 -50,86.60254c-30.94011,-17.86328 -50,-50.87598 -50,-86.60254v-33.33333z" clip-rule="evenodd" fill-rule="evenodd" fill="#fff" stroke="none"></path></mask></defs><g mask="url(#mask_3)"><g><g><path d="M50,0h50v33.33333c0,35.72656 -19.05989,68.73926 -50,86.60254c-30.94011,-17.86328 -50,-50.87598 -50,-86.60254v-33.33333z" fill-rule="evenodd" fill="#f0f0f0"></path><g><g><defs><mask id="clip_6"><path d="M 50,-23.987173999999822 c5.99679,-4.4976 5.99679,10.49439 0,5.99679c-5.99679,-4.4976 -5.99679,10.49439 0,5.99679c5.99679,-4.4976 5.99679,10.49439 0,5.99679c-5.99679,-4.4976 -5.99679,10.49439 0,5.99679c5.99679,-4.4976 5.99679,10.49439 0,5.99679c-5.99679,-4.4976 -5.99679,10.49439 0,5.99679c5.99679,-4.4976 5.99679,10.49439 0,5.99679c-5.99679,-4.4976 -5.99679,10.49439 0,5.99679c5.99679,-4.4976 5.99679,10.49439 0,5.99679c-5.99679,-4.4976 -5.99679,10.49439 0,5.99679c5.99679,-4.4976 5.99679,10.49439 0,5.99679c-5.99679,-4.4976 -5.99679,10.49439 0,5.99679c5.99679,-4.4976 5.99679,10.49439 0,5.99679c-5.99679,-4.4976 -5.99679,10.49439 0,5.99679c5.99679,-4.4976 5.99679,10.49439 0,5.99679c-5.99679,-4.4976 -5.99679,10.49439 0,5.99679c5.99679,-4.4976 5.99679,10.49439 0,5.99679c-5.99679,-4.4976 -5.99679,10.49439 0,5.99679c5.99679,-4.4976 5.99679,10.49439 0,5.99679c-5.99679,-4.4976 -5.99679,10.49439 0,5.99679c5.99679,-4.4976 5.99679,10.49439 0,5.99679c-5.99679,-4.4976 -5.99679,10.49439 0,5.99679c5.99679,-4.4976 5.99679,10.49439 0,5.99679c-5.99679,-4.4976 -5.99679,10.49439 0,5.99679c5.99679,-4.4976 5.99679,10.49439 0,5.99679c-5.99679,-4.4976 -5.99679,10.49439 0,5.99679c5.99679,-4.4976 5.99679,10.49439 0,5.99679c-5.99679,-4.4976 -5.99679,10.49439 0,5.99679c5.99679,-4.4976 5.99679,10.49439 0,5.99679c-5.99679,-4.4976 -5.99679,10.49439 0,5.99679 L 196.23622374829546,635.0141573255338 A 600 600 0 1 1 196.23621679431565,-515.0782856845 L 50,-23.987173999999822 z" clip-rule="evenodd" fill-rule="evenodd" fill="#fff" stroke="#fff" stroke-width="0.1"></path></mask></defs><g mask="url(#clip_6)"><g><rect y="-1000" fill="#333333" width="2000" x="-1000" height="2000"></rect><g></g></g></g></g><g><defs><mask id="clip_7"><path d="M 50,-23.987173999999822 c5.99679,-4.4976 5.99679,10.49439 0,5.99679c-5.99679,-4.4976 -5.99679,10.49439 0,5.99679c5.99679,-4.4976 5.99679,10.49439 0,5.99679c-5.99679,-4.4976 -5.99679,10.49439 0,5.99679c5.99679,-4.4976 5.99679,10.49439 0,5.99679c-5.99679,-4.4976 -5.99679,10.49439 0,5.99679c5.99679,-4.4976 5.99679,10.49439 0,5.99679c-5.99679,-4.4976 -5.99679,10.49439 0,5.99679c5.99679,-4.4976 5.99679,10.49439 0,5.99679c-5.99679,-4.4976 -5.99679,10.49439 0,5.99679c5.99679,-4.4976 5.99679,10.49439 0,5.99679c-5.99679,-4.4976 -5.99679,10.49439 0,5.99679c5.99679,-4.4976 5.99679,10.49439 0,5.99679c-5.99679,-4.4976 -5.99679,10.49439 0,5.99679c5.99679,-4.4976 5.99679,10.49439 0,5.99679c-5.99679,-4.4976 -5.99679,10.49439 0,5.99679c5.99679,-4.4976 5.99679,10.49439 0,5.99679c-5.99679,-4.4976 -5.99679,10.49439 0,5.99679c5.99679,-4.4976 5.99679,10.49439 0,5.99679c-5.99679,-4.4976 -5.99679,10.49439 0,5.99679c5.99679,-4.4976 5.99679,10.49439 0,5.99679c-5.99679,-4.4976 -5.99679,10.49439 0,5.99679c5.99679,-4.4976 5.99679,10.49439 0,5.99679c-5.99679,-4.4976 -5.99679,10.49439 0,5.99679c5.99679,-4.4976 5.99679,10.49439 0,5.99679c-5.99679,-4.4976 -5.99679,10.49439 0,5.99679c5.99679,-4.4976 5.99679,10.49439 0,5.99679c-5.99679,-4.4976 -5.99679,10.49439 0,5.99679c5.99679,-4.4976 5.99679,10.49439 0,5.99679c-5.99679,-4.4976 -5.99679,10.49439 0,5.99679 L -96.23622374829546,635.0141573255338 A 600 600 0 1 0 -96.23621679431565,-515.0782856845 L 50,-23.987173999999822 z" clip-rule="evenodd" fill-rule="evenodd" fill="#fff"></path></mask></defs><g mask="url(#clip_7)"><g><rect y="-1000" fill="#0c6793" width="2000" x="-1000" height="2000"></rect><g></g></g></g></g></g><g><g stroke="#333333" stroke-width="0.5" fill="none" stroke-linecap="round" stroke-linejoin="round"><path d="M 50,-23.987173999999822 c5.99679,-4.4976 5.99679,10.49439 0,5.99679c-5.99679,-4.4976 -5.99679,10.49439 0,5.99679c5.99679,-4.4976 5.99679,10.49439 0,5.99679c-5.99679,-4.4976 -5.99679,10.49439 0,5.99679c5.99679,-4.4976 5.99679,10.49439 0,5.99679c-5.99679,-4.4976 -5.99679,10.49439 0,5.99679c5.99679,-4.4976 5.99679,10.49439 0,5.99679c-5.99679,-4.4976 -5.99679,10.49439 0,5.99679c5.99679,-4.4976 5.99679,10.49439 0,5.99679c-5.99679,-4.4976 -5.99679,10.49439 0,5.99679c5.99679,-4.4976 5.99679,10.49439 0,5.99679c-5.99679,-4.4976 -5.99679,10.49439 0,5.99679c5.99679,-4.4976 5.99679,10.49439 0,5.99679c-5.99679,-4.4976 -5.99679,10.49439 0,5.99679c5.99679,-4.4976 5.99679,10.49439 0,5.99679c-5.99679,-4.4976 -5.99679,10.49439 0,5.99679c5.99679,-4.4976 5.99679,10.49439 0,5.99679c-5.99679,-4.4976 -5.99679,10.49439 0,5.99679c5.99679,-4.4976 5.99679,10.49439 0,5.99679c-5.99679,-4.4976 -5.99679,10.49439 0,5.99679c5.99679,-4.4976 5.99679,10.49439 0,5.99679c-5.99679,-4.4976 -5.99679,10.49439 0,5.99679c5.99679,-4.4976 5.99679,10.49439 0,5.99679c-5.99679,-4.4976 -5.99679,10.49439 0,5.99679c5.99679,-4.4976 5.99679,10.49439 0,5.99679c-5.99679,-4.4976 -5.99679,10.49439 0,5.99679c5.99679,-4.4976 5.99679,10.49439 0,5.99679c-5.99679,-4.4976 -5.99679,10.49439 0,5.99679c5.99679,-4.4976 5.99679,10.49439 0,5.99679c-5.99679,-4.4976 -5.99679,10.49439 0,5.99679"></path></g></g></g></g></g><g stroke="#333333" stroke-width="0.5" fill="none" stroke-linecap="round" stroke-linejoin="round"><path d="M50,0h50v33.33333c0,35.72656 -19.05989,68.73926 -50,86.60254c-30.94011,-17.86328 -50,-50.87598 -50,-86.60254v-33.33333z"></path></g></g></g><g transform="translate(0,0)" style="transition:transform 0.5s"></g><g><g><g><defs><mask id="mask_10"><g fill="#000" stroke="none" stroke-width="0" transform="translate(0,0)"><g transform="matrix(1.6 0 0 1.6 -28.337 -239.608)"><path fill-rule="evenodd" stroke="#000" stroke-opacity="1" fill="#000" stroke-linejoin="miter" stroke-linecap="round" stroke-width="1px" d="M67.846 194.25c-16.85 11.995-13.563-1.13-11.308-12.115.745-3.961-.083-8.374-2.019-11.51-2.077-3.365-5.926-5.78-9.57-7.423-9.741-4.39-17.387-12.247-18.093-12.77-2.47-1.828-2.04 10.936 3.23 15.75-4.142-1.71-7.68-2.54-11.307-2.019 2.922 6.178 6.371 10.771 10.904 12.116-3.534.035-7.049.01-11.106 1.615 2.663 4.972 7.09 6.414 11.308 8.28-3.142 1.839-6.954 3.51-8.077 5.855 2.55 2.924 7.422 4.234 10.5 5.048-2.107 1.185-4.628 3.198-7.27 5.452 4.74 2.913 8.426 2.662 12.116 2.423-3.599 3.029-4.238 6.058-5.25 9.086 3.133-.022 6.835.552 9.49-.605-2.627 4.846-3.03 6.778-3.634 10.096 3.838 1.49 6.955-1.345 10.298-2.827-1.637 3.5-2.133 7-1.616 10.5 3.91.696 7.656.661 10.5-3.433l17.164 4.644 20.798-5.451c9.298 6.11 8.557.598 7.875-4.847 5.788 4.577 8.615 3.5 8.48-3.23 2.838 1.075 4.97 3.795 9.29 1.413 4.563-2.348-1.083-6.155-3.434-9.49 6.529 1.256 9.215-1.636 9.895-4.846.857-4.053-2.88-5.239-5.25-6.462 4.227-.688 7.973-1.926 8.48-6.865.323-1.795-2.448-2.705-5.855-3.433 4.62-1.07 7.089-3.575 6.865-7.875-.19-3.096-3.75-2.15-6.462-2.221 6.211-4.208 7.648-9.658 6.462-13.731-.856-2.94-5.115.915-7.673 2.02 6.136-4.266 3.296-15.94.393-14.722-11.192 11.1-18.701 16.999-27.041 29.16-2.447 6.84 7.545 14.075-5.054 17.263l-16.356 3.23z" fill-opacity="1"></path><path fill-rule="evenodd" stroke="#000" stroke-opacity="1" fill="none" stroke-linejoin="miter" stroke-linecap="round" stroke-width="1px" d="M30.288 157.702c5.211 7.178 8.993 10.447 14.74 13.327 6.374 4.565 4.244 16.46 5.655 24.836 3.106 10.172 12.327 9.438 16.961 9.087l25.039 1.211c15.74-4.686 9.66-15.647 11.37-24.722.575-3.051 2.792-5.937 6.159-8.212 5.05-3.444 12.317-9.037 12.76-13.71"></path><path fill-rule="evenodd" stroke="#000" stroke-opacity="1" fill="none" stroke-linejoin="miter" stroke-linecap="butt" stroke-width="1px" d="M30.087 165.98L42 175.472M28.673 176.077l16.76 5.35M29.48 186.173l12.722.808M31.702 197.077l11.51-1.716M37.053 205.053l9.894-4.543M41.192 213.433l5.957-6.765M48.058 220.702l7.673-8.885M56.942 227.77l6.664-19.587M94.904 227.163l-5.856-12.72M102.779 222.317l-4.644-7.168M111.663 218.885l-6.562-8.481M117.115 210.808l-7.875-4.443M122.365 199.298l-8.985-1.01M125.192 189l-14.033 3.13M125.394 178.702l-10.399 8.178M124.385 166.587l-10.298 10.5"></path><path stroke-dasharray="none" fill-rule="evenodd" stroke="#000" stroke-opacity="1" fill="none" stroke-linejoin="miter" stroke-linecap="round" stroke-width="1" d="M25.038 168l16.76 9.692" stroke-miterlimit="4"></path><path fill-rule="evenodd" stroke="#000" stroke-opacity="1" fill="none" stroke-linejoin="miter" stroke-linecap="round" stroke-width="1px" d="M25.038 180.317l17.164 4.14M28.471 191.625l15.952.303M30.288 202.125l19.284-4.846M37.962 210.606l7.975-5.957M42.404 219.288l12.317-14.134M51.49 226.154l7.169-12.62M62.192 222.923l4.039-12.52"></path><path fill-rule="evenodd" stroke="#000" stroke-opacity="1" fill="none" stroke-linejoin="miter" stroke-linecap="butt" stroke-width="1px" d="M63 226.76l5.25-9.087M91.673 226.962l-4.442-8.683"></path><path fill-rule="evenodd" stroke="#000" stroke-opacity="1" fill="none" stroke-linejoin="miter" stroke-linecap="round" stroke-width="1px" d="M98.942 225.952l-5.654-12.115M107.221 220.096l-6.865-7.27M117.52 217.471L108.735 210M122.567 205.962c-6.461-1.146-13.327-3.568-19.788-6.866M124.99 193.644c-5.852 2.299-6.148 1.633-12.014 1.818M126.808 182.942c-4.952 3.173-7.902 4.563-12.318 6.664M125.394 171.23c-4.133 6.34-8.787 9.416-13.932 13.732"></path><path fill-rule="evenodd" stroke="#000" stroke-opacity="1" fill="none" stroke-linejoin="miter" stroke-linecap="butt" stroke-width="1px" d="M46.846 173.452c-6.651.408-7.477 8.237 2.625 8.784-10.005.012-9.51 8.113.606 7.47-10.642 1.49-7.316 10.07.606 7.068-5.161 2.369-8.154 15.98 4.846 7.37-4.159 10.255 7.713 13.74 8.48 1.818l25.645 2.019c4.114 14.11 17.952 4.533 7.37-3.433.038.023 2.115 1.82 3.662 3.591 3.912 4.482 13.274 2.93 6.333-7.024.577 2.984 12.123-4.368 3.155-7.11-1.51-.463-2.803-.3-5.88-.159 15.759-1.113 13.278-13.96-.203-7.067 12.053-4.826 13.787-16.255 3.332-11.308M48.663 178.096l-4.442-.808M49.875 185.77l-5.25-.203M50.279 193.038l-4.644 1.616M52.702 200.106l-3.635 3.432M60.577 204.952L58.356 210M93.288 206.163l3.837 5.452M100.356 202.125l6.663 5.25M103.385 195.663l7.269 2.827M103.99 190.212l7.068-1.818M103.587 183.75l6.26-5.856"></path><path fill-rule="evenodd" stroke="#000" stroke-opacity="1" fill="#000" stroke-linejoin="miter" stroke-linecap="butt" stroke-width="1px" d="M72.087 242.308c-4.725 1.502-9.546 4.631-14.539 10.702l-4.038-4.039c3.265-2.297 6.601-4.478 9.086-8.077-9.595-2.694-8.787-22.955 6.866-14.942l17.365-.202c14.777-2.17 16.607 10.227 5.25 15.346-3.118 1.406 5.147 6.058 7.471 8.683l-6.865 7.27-1.919-1.414c.706-1.82 1.15-3.152 2.12-4.443-3.05-3.698-6.911-6.261-11.307-8.077z" fill-opacity="1"></path><path fill-rule="evenodd" stroke="#000" stroke-opacity="1" fill="#000" stroke-linejoin="miter" stroke-linecap="butt" stroke-width="1px" d="M99.376 266.5c-16.885.333-17.788-18.174-16.848-27.7 1.538-15.602 14.167-24.233 7.139-49.403-1.152-4.123-1.836-5.235 0-14.278 1.623-3.076-.306-4.628-3.998-5.426 3.807.429 5.936-3.34 8.281-6.568-7.512 1.098-10.643-2.735-15.706-3.475-4.585-.67-5.45-.76-7.104 3.155 1.246 3.845 4.077 6.38 2.82 7.46-3.21-1.264-7.185-1.762-11.136-2.285 3.258 8.343 14.037 3.06 8.852 17.134-4.734 5.527-8.737 19.05-5.711 31.697 4.46 13.125 6.885 14.088 5.997 22.845-.994 9.788-3.028 23.918-17.134 25.7 3.59 6.28 10.088 7.565 17.42 0-3.799 11.283-.374 17.08 4.568 20.561 2.379-4.037 9.595-3.634 5.391-20.511 4.171 12.395 18.18 4.502 17.169 1.093z" fill-opacity="1"></path><path fill-rule="evenodd" stroke="#000" stroke-opacity="1" fill="none" stroke-linejoin="miter" stroke-linecap="butt" stroke-width="1px" d="M67.964 191.967c2.818 7.527 6.465 9.575 10.423 1.143 3.344 6.87 6.222 7.682 8.424-.286 1.375 6.477 4.476 6.368 3.427-.143M65.108 206.674c3.493 1.818 6.262.598 7.853-5.569 1.16 9.229 9.422 7.787 10.423-.142.215 8.895 4.158 8.8 8.282 3.855M65.394 213.956c1.855 2.372 3.42 2.43 4.14-4.284-.126 9.403 5.985 10.573 8.282 1 .466 8.174 6.73 10.286 8.281-.143.662 3.582 1.956 5.267 4.14 4.283"></path><path fill-rule="evenodd" stroke="#000" stroke-opacity="1" fill="none" stroke-linejoin="miter" stroke-linecap="butt" stroke-width="1px" d="M68.535 223.665c3.902 2.115 5.062-.647 5.568-4.57 2.183 8.992 4.913 7.025 7.853.857 1.16 3.303 2.649 5.12 4.57 4.998M72.087 233.221c3.694.515 4.563-2.926 5.653-6.058.882 4.162 2.115 7.69 5.654 7.068M81.375 234.433c-2.2 8.593-6.651 5.525-7.27-1.212"></path><path fill-rule="evenodd" stroke="#000" stroke-opacity="1" fill="none" stroke-linejoin="miter" stroke-linecap="butt" stroke-width="1px" d="M71.48 243.52c1.558.702 3.428.154 6.058-3.433 1.549 1.882 3.097 4.952 4.645 3.836M74.308 243.317c1.408 2.108 3.002 6.402 5.855.202"></path><path fill-rule="evenodd" stroke="#000" stroke-opacity="1" fill="none" stroke-linejoin="miter" stroke-linecap="round" stroke-width="1px" d="M76.327 255.837l.202 29.48M74.51 247.356c-3.412 16.718-8.812 18.519-14.337 19.384M79.76 247.558c1.355 11.14 1.903 18.847 14.942 21.404M81.779 205.356v8.48M74.308 205.154l-.808 6.461M78.346 194.048l-.202 8.683M86.625 193.846l1.01 8.885M69.319 195.023l-.867 7.304M70.067 214.275l-.202 5.215"></path><path fill-rule="evenodd" stroke="#000" stroke-opacity="1" fill="none" stroke-linejoin="miter" stroke-linecap="butt" stroke-width="1px" d="M78.085 213.265l-.547 8.245"></path><path fill-rule="evenodd" stroke="#000" stroke-opacity="1" fill="none" stroke-linejoin="miter" stroke-linecap="round" stroke-width="1px" d="M86.221 212.625l-.202 9.288M81.98 221.308v8.077M74.106 220.298l.202 9.692M77.942 227.971l.202 8.48M88.989 207.542l.665 3.266M66.896 207.601l-.261 5.024"></path><path fill-rule="evenodd" stroke="#000" stroke-opacity="1" fill="#000" stroke-linejoin="round" stroke-linecap="round" stroke-width="1px" d="M92.446 165.459c-2.72 1.02-6.811-1.508-10.5-2.423 3.109 1.365 7.373 3.554 9.49 3.432z" fill-opacity="1"></path><path fill-rule="evenodd" stroke="#000" stroke-opacity="1" fill="none" stroke-linejoin="miter" stroke-linecap="butt" stroke-width="1px" d="M81.956 165.696c-3.2-1.027-6-4.233-8.852-1.428M73.532 163.697c1.14 4.079 3.34 3.654 5.997 1.285"></path><circle stroke-dasharray="none" fill-rule="nonzero" r=".643" stroke="#000" stroke-opacity="1" fill="#000" stroke-linejoin="round" stroke-dashoffset="0" stroke-linecap="round" stroke-width="1" opacity=".99" cx="74.746" cy="164.625" stroke-miterlimit="4" fill-opacity="1"></circle><path fill-rule="evenodd" stroke="#000" stroke-opacity="1" fill="#000" stroke-linejoin="miter" stroke-linecap="butt" stroke-width="1px" d="M71.279 162.952c-7.67-3.538-13.11-2.39-12.721 4.846 1.669-.196 3.412-2.084 7.47.606l1.01.151c-.01-.054 4.515.747 6.916 1.565.388.132-.083-.916-.303-1.262-1.006-1.586-2.442-5.871-2.372-5.906z" fill-opacity="1"></path><path stroke-dasharray="none" fill-rule="evenodd" stroke="#000" stroke-opacity="1" fill="none" stroke-linejoin="round" stroke-linecap="round" stroke-width=".6" d="M74.96 191.11l-.714 3.57M82.528 193.68l-.286-4.283M84.812 191.11c.006-1.064-.196-2.75-.571-4.568M83.099 183.4v-2.57M83.241 178.403l.143-1.57M85.954 185.114c.083-1.25.148-2.518-.143-4.14M85.669 179.117c.13-1.523-.039-3.046-.286-4.569M73.773 179.319c.568-1.235 2.185-5.732-1.56-8.907M76.53 182.258l.286-3.712M87.668 190.825c-.35-1.471-.622-2.902-1.714-3.998M87.382 174.548c.156-2.111-.749-2.81-1.713-3.427M78.53 175.69c-1.137-1.924-2.68-1.995-4.19-2.427M81.242 172.549c-1.418-1.695-3.207-2.276-4.997-2.856M81.385 168.694c-1.194 1.08-2.713 1.19-4.283 1.142M70.067 195.058l1.414-3.03M80.567 190.413v-3.23M77.74 189v-1.615" stroke-miterlimit="4"></path><path stroke-dasharray="none" fill-rule="evenodd" stroke="#000" stroke-opacity="1" fill="none" stroke-linejoin="miter" stroke-linecap="round" stroke-width=".6" d="M74.308 170.221c-3.621-3.213-6.369-5.914-9.895-5.856M80.957 268.355c.864 5.402.915 10.236-1.999 12.993" stroke-miterlimit="4"></path><path fill-rule="evenodd" stroke="#000" stroke-opacity="1" fill="none" stroke-linejoin="miter" stroke-linecap="butt" stroke-width="1px" d="M56.538 232.716c5.773.884 5.428-2.893 5.755-6.158 2.686 7.249 8.124 3.314 7.673.1M71.986 238.673c-2.93 2.847-5.55 2.899-7.673-1.514"></path><path fill-rule="evenodd" stroke="#000" stroke-opacity="1" fill="none" stroke-linejoin="miter" stroke-linecap="butt" stroke-width="1px" d="M59.063 238.37c2.131-.203 1.492-1.945 1.312-3.432 2.71 3.966 6.197 2.108 5.048-1.818 2.213 3.291 4.212 1.874 6.159-.707"></path><path fill-rule="evenodd" stroke="#000" stroke-opacity="1" fill="none" stroke-linejoin="miter" stroke-linecap="round" stroke-width="1px" d="M61.183 231.505l2.22 2.625M66.938 230.394l1.615 2.221M68.25 234.938l.303 3.533"></path><path fill-rule="evenodd" stroke="#000" stroke-opacity="1" fill="none" stroke-linejoin="miter" stroke-linecap="butt" stroke-width="1px" d="M98.538 235.038c-3.562 1.192-7.58-.709-5.956-5.25-3.97 4.44-5.562 1.744-7.169-.908"></path><path fill-rule="evenodd" stroke="#000" stroke-opacity="1" fill="none" stroke-linejoin="miter" stroke-linecap="butt" stroke-width="1px" d="M83.293 234.23c1.903 2.75 3.444-1.242 5.351-2.018-3.11 3.543-1.309 8.408 2.827 3.836-1.466 3.628-.732 5.108 4.24 2.827"></path><path fill-rule="evenodd" stroke="#000" stroke-opacity="1" fill="none" stroke-linejoin="miter" stroke-linecap="butt" stroke-width="1px" d="M91.774 243.52c-5.002.377-4.64-2.278-3.534-5.352-1.598 3.335-3.622 3.258-5.754 2.322"></path><path fill-rule="evenodd" stroke="#000" stroke-opacity="1" fill="none" stroke-linejoin="miter" stroke-linecap="round" stroke-width="1px" d="M87.029 235.14l-2.221 3.634M90.663 239.178l-1.11 2.12M91.976 231.303l-2.827 3.836M94.904 235.442l-2.02 2.221M96.216 232.313l-.706-2.323M89.048 229.89l.909-2.02"></path><path stroke-dasharray="none" fill-rule="evenodd" stroke="#000" stroke-opacity="1" fill="none" stroke-linejoin="miter" stroke-linecap="round" stroke-width=".6" d="M66.635 243.317l-4.342-.505M63.505 245.841l-2.928-.605M60.678 247.76l-2.524-.505M92.545 245.668l-4.33-.6" stroke-miterlimit="4"></path><path fill-rule="evenodd" stroke="#000" stroke-opacity="1" fill="#000" stroke-linejoin="miter" stroke-linecap="butt" stroke-width="1px" d="M88.667 259.788l21.132-27.7-5.569-4.283 3.713-4.711 5.14 4.426 4.854-6.71 3.998 3.283-5.14 6.425 5.854 4.284-3.141 4.283-5.711-4.426-20.56 28.842z" fill-opacity="1"></path><path stroke-dasharray="none" fill-rule="evenodd" stroke="#000" stroke-opacity="1" fill="none" stroke-linejoin="miter" stroke-linecap="round" stroke-width=".6" d="M96.208 248.39l-4.329-.6" stroke-miterlimit="4"></path><rect y="120.056" stroke-dasharray="none" fill-rule="nonzero" stroke="#000" transform="matrix(.65304 .75733 -.77093 .63692 0 0)" stroke-opacity="1" fill="#000" stroke-linejoin="round" width="3.482" stroke-dashoffset="0" stroke-linecap="round" stroke-width=".975522" opacity=".99" stroke-miterlimit="4" x="222.993" ry="1.741" fill-opacity="1" height="10.053"></rect><ellipse stroke-dasharray="none" fill-rule="nonzero" rx="2.641" stroke="#000" transform="matrix(1.12956 0 0 1.2165 -6.602 -57.264)" stroke-opacity="1" fill="#000" stroke-linejoin="round" stroke-dashoffset="0" stroke-linecap="round" stroke-width="1" opacity=".99" cx="56.47" cy="260.217" stroke-miterlimit="4" ry="2.57" fill-opacity="1"></ellipse><rect y="117.544" stroke-dasharray="none" fill-rule="nonzero" stroke="#000" transform="rotate(49.758) skewX(-.152)" stroke-opacity="1" fill="#000" stroke-linejoin="round" width="4.147" stroke-dashoffset="0" stroke-linecap="round" stroke-width="1.15988" opacity=".99" stroke-miterlimit="4" x="225.086" ry="2.067" fill-opacity="1" height="11.934"></rect><rect y="120.529" stroke-dasharray="none" fill-rule="nonzero" stroke="#000" transform="matrix(.65494 .75568 -.77252 .635 0 0)" stroke-opacity="1" fill="#000" stroke-linejoin="round" width="3.836" stroke-dashoffset="0" stroke-linecap="round" stroke-width="1.07511" opacity=".99" stroke-miterlimit="4" x="230.826" ry="1.92" fill-opacity="1" height="11.084"></rect><rect y="232.369" stroke-dasharray="none" fill-rule="nonzero" stroke="#000" transform="matrix(-.64134 .76725 .76109 .64865 0 0)" stroke-opacity="1" fill="#000" stroke-linejoin="round" width="3.441" stroke-dashoffset="0" stroke-linecap="round" stroke-width=".961441" opacity=".99" stroke-miterlimit="4" x="124.567" ry="1.711" fill-opacity="1" height="9.882"></rect><rect y="230.837" stroke-dasharray="none" fill-rule="nonzero" stroke="#000" transform="matrix(-.63427 .77311 .75506 .65565 0 0)" stroke-opacity="1" fill="#000" stroke-linejoin="round" width="4.099" stroke-dashoffset="0" stroke-linecap="round" stroke-width="1.14346" opacity=".99" stroke-miterlimit="4" x="125.62" ry="2.032" fill-opacity="1" height="11.734"></rect><rect y="232.583" stroke-dasharray="none" fill-rule="nonzero" stroke="#000" transform="matrix(-.64327 .76564 .76272 .64673 0 0)" stroke-opacity="1" fill="#000" stroke-linejoin="round" width="3.79" stroke-dashoffset="0" stroke-linecap="round" stroke-width="1.05951" opacity=".99" stroke-miterlimit="4" x="132.578" ry="1.887" fill-opacity="1" height="10.894"></rect><path fill-rule="evenodd" stroke="#000" stroke-opacity="1" fill="#000" stroke-linejoin="miter" stroke-linecap="butt" stroke-width="1px" d="M18.27 198.03c8.48 5.805 2.08-1.1 31.594 44.253l-4.86 3.35c-12.074-17.556-27.852-39.797-26.735-47.603z" fill-opacity="1"></path><rect y="227.315" stroke-dasharray="none" fill-rule="nonzero" stroke="#000" transform="matrix(.83065 -.5568 .59462 .80401 0 0)" stroke-opacity="1" fill="#000" stroke-linejoin="round" width="15.335" stroke-dashoffset="0" stroke-linecap="round" stroke-width="1.00054" opacity=".99" stroke-miterlimit="4" x="-115.152" ry=".49" fill-opacity="1" height="6.857"></rect><ellipse stroke-dasharray="none" fill-rule="nonzero" rx=".143" stroke="#000" transform="matrix(.20212 .26299 -.46932 .41712 176.31 138.523)" stroke-opacity="1" fill="#000" stroke-linejoin="round" stroke-dashoffset="0" stroke-linecap="round" stroke-width="3" opacity=".99" cx="9.995" cy="261.073" stroke-miterlimit="4" ry=".999" fill-opacity="1"></ellipse><ellipse stroke-dasharray="none" fill-rule="nonzero" rx=".143" stroke="#000" transform="matrix(-.16953 .26553 .39365 .42114 -9.468 141.247)" stroke-opacity="1" fill="#000" stroke-linejoin="round" stroke-dashoffset="0" stroke-linecap="round" stroke-width="3" opacity=".99" cx="9.995" cy="261.073" stroke-miterlimit="4" ry=".999" fill-opacity="1"></ellipse><path stroke-dasharray="none" fill-rule="evenodd" stroke="#000" stroke-opacity="1" fill="none" stroke-linejoin="miter" stroke-linecap="round" stroke-width=".6" d="M47.403 251.079l.857 1M49.402 254.363l.714 1M51.972 257.076l1.143 1.142M101.946 251.507l-.714 1.428M100.232 255.22l-.714 1.142M97.948 258.36l-1 1.143" stroke-miterlimit="4"></path><ellipse stroke-dasharray="none" fill-rule="nonzero" rx=".143" stroke="#000" transform="matrix(.20212 .26299 -.46932 .41712 179.165 141.584)" stroke-opacity="1" fill="#000" stroke-linejoin="round" stroke-dashoffset="0" stroke-linecap="round" stroke-width="3" opacity=".99" cx="9.995" cy="261.073" stroke-miterlimit="4" ry=".999" fill-opacity="1"></ellipse><ellipse stroke-dasharray="none" fill-rule="nonzero" rx=".143" stroke="#000" transform="matrix(.20212 .26299 -.46932 .41712 174.016 135.627)" stroke-opacity="1" fill="#000" stroke-linejoin="round" stroke-dashoffset="0" stroke-linecap="round" stroke-width="3" opacity=".99" cx="9.995" cy="261.073" stroke-miterlimit="4" ry=".999" fill-opacity="1"></ellipse><ellipse stroke-dasharray="none" fill-rule="nonzero" rx=".143" stroke="#000" transform="matrix(-.16953 .26553 .39365 .42114 -7.083 137.58)" stroke-opacity="1" fill="#000" stroke-linejoin="round" stroke-dashoffset="0" stroke-linecap="round" stroke-width="3" opacity=".99" cx="9.995" cy="261.073" stroke-miterlimit="4" ry=".999" fill-opacity="1"></ellipse><ellipse stroke-dasharray="none" fill-rule="nonzero" rx=".143" stroke="#000" transform="matrix(-.16953 .26553 .39365 .42114 -4.559 135.157)" stroke-opacity="1" fill="#000" stroke-linejoin="round" stroke-dashoffset="0" stroke-linecap="round" stroke-width="3" opacity=".99" cx="9.995" cy="261.073" stroke-miterlimit="4" ry=".999" fill-opacity="1"></ellipse><path stroke-dasharray="none" fill-rule="evenodd" stroke="#000" stroke-opacity="1" fill="none" stroke-linejoin="miter" stroke-linecap="round" stroke-width=".6" d="M48.332 250.248l.857 1M50.33 253.532l.715 1M52.9 256.245l1.143 1.142M101.037 250.627l-.714 1.428M99.324 254.34l-.714 1.142M97.04 257.48l-1 1.143" stroke-miterlimit="4"></path></g></g></mask><mask id="mask_11"><g fill="#000" stroke="none" stroke-width="0" transform="translate(0,0)"><g transform="matrix(1.6 0 0 1.6 -28.337 -239.608)"><path fill-rule="evenodd" stroke="#000" stroke-opacity="1" fill="#fff" stroke-linejoin="miter" stroke-linecap="round" stroke-width="1px" d="M67.846 194.25c-16.85 11.995-13.563-1.13-11.308-12.115.745-3.961-.083-8.374-2.019-11.51-2.077-3.365-5.926-5.78-9.57-7.423-9.741-4.39-17.387-12.247-18.093-12.77-2.47-1.828-2.04 10.936 3.23 15.75-4.142-1.71-7.68-2.54-11.307-2.019 2.922 6.178 6.371 10.771 10.904 12.116-3.534.035-7.049.01-11.106 1.615 2.663 4.972 7.09 6.414 11.308 8.28-3.142 1.839-6.954 3.51-8.077 5.855 2.55 2.924 7.422 4.234 10.5 5.048-2.107 1.185-4.628 3.198-7.27 5.452 4.74 2.913 8.426 2.662 12.116 2.423-3.599 3.029-4.238 6.058-5.25 9.086 3.133-.022 6.835.552 9.49-.605-2.627 4.846-3.03 6.778-3.634 10.096 3.838 1.49 6.955-1.345 10.298-2.827-1.637 3.5-2.133 7-1.616 10.5 3.91.696 7.656.661 10.5-3.433l17.164 4.644 20.798-5.451c9.298 6.11 8.557.598 7.875-4.847 5.788 4.577 8.615 3.5 8.48-3.23 2.838 1.075 4.97 3.795 9.29 1.413 4.563-2.348-1.083-6.155-3.434-9.49 6.529 1.256 9.215-1.636 9.895-4.846.857-4.053-2.88-5.239-5.25-6.462 4.227-.688 7.973-1.926 8.48-6.865.323-1.795-2.448-2.705-5.855-3.433 4.62-1.07 7.089-3.575 6.865-7.875-.19-3.096-3.75-2.15-6.462-2.221 6.211-4.208 7.648-9.658 6.462-13.731-.856-2.94-5.115.915-7.673 2.02 6.136-4.266 3.296-15.94.393-14.722-11.192 11.1-18.701 16.999-27.041 29.16-2.447 6.84 7.545 14.075-5.054 17.263l-16.356 3.23z" fill-opacity="1"></path><path fill-rule="evenodd" stroke="#000" stroke-opacity="1" fill="none" stroke-linejoin="miter" stroke-linecap="round" stroke-width="1px" d="M30.288 157.702c5.211 7.178 8.993 10.447 14.74 13.327 6.374 4.565 4.244 16.46 5.655 24.836 3.106 10.172 12.327 9.438 16.961 9.087l25.039 1.211c15.74-4.686 9.66-15.647 11.37-24.722.575-3.051 2.792-5.937 6.159-8.212 5.05-3.444 12.317-9.037 12.76-13.71"></path><path fill-rule="evenodd" stroke="#000" stroke-opacity="1" fill="none" stroke-linejoin="miter" stroke-linecap="butt" stroke-width="1px" d="M30.087 165.98L42 175.472M28.673 176.077l16.76 5.35M29.48 186.173l12.722.808M31.702 197.077l11.51-1.716M37.053 205.053l9.894-4.543M41.192 213.433l5.957-6.765M48.058 220.702l7.673-8.885M56.942 227.77l6.664-19.587M94.904 227.163l-5.856-12.72M102.779 222.317l-4.644-7.168M111.663 218.885l-6.562-8.481M117.115 210.808l-7.875-4.443M122.365 199.298l-8.985-1.01M125.192 189l-14.033 3.13M125.394 178.702l-10.399 8.178M124.385 166.587l-10.298 10.5"></path><path stroke-dasharray="none" fill-rule="evenodd" stroke="#000" stroke-opacity="1" fill="none" stroke-linejoin="miter" stroke-linecap="round" stroke-width="1" d="M25.038 168l16.76 9.692" stroke-miterlimit="4"></path><path fill-rule="evenodd" stroke="#000" stroke-opacity="1" fill="none" stroke-linejoin="miter" stroke-linecap="round" stroke-width="1px" d="M25.038 180.317l17.164 4.14M28.471 191.625l15.952.303M30.288 202.125l19.284-4.846M37.962 210.606l7.975-5.957M42.404 219.288l12.317-14.134M51.49 226.154l7.169-12.62M62.192 222.923l4.039-12.52"></path><path fill-rule="evenodd" stroke="#000" stroke-opacity="1" fill="none" stroke-linejoin="miter" stroke-linecap="butt" stroke-width="1px" d="M63 226.76l5.25-9.087M91.673 226.962l-4.442-8.683"></path><path fill-rule="evenodd" stroke="#000" stroke-opacity="1" fill="none" stroke-linejoin="miter" stroke-linecap="round" stroke-width="1px" d="M98.942 225.952l-5.654-12.115M107.221 220.096l-6.865-7.27M117.52 217.471L108.735 210M122.567 205.962c-6.461-1.146-13.327-3.568-19.788-6.866M124.99 193.644c-5.852 2.299-6.148 1.633-12.014 1.818M126.808 182.942c-4.952 3.173-7.902 4.563-12.318 6.664M125.394 171.23c-4.133 6.34-8.787 9.416-13.932 13.732"></path><path fill-rule="evenodd" stroke="#000" stroke-opacity="1" fill="none" stroke-linejoin="miter" stroke-linecap="butt" stroke-width="1px" d="M46.846 173.452c-6.651.408-7.477 8.237 2.625 8.784-10.005.012-9.51 8.113.606 7.47-10.642 1.49-7.316 10.07.606 7.068-5.161 2.369-8.154 15.98 4.846 7.37-4.159 10.255 7.713 13.74 8.48 1.818l25.645 2.019c4.114 14.11 17.952 4.533 7.37-3.433.038.023 2.115 1.82 3.662 3.591 3.912 4.482 13.274 2.93 6.333-7.024.577 2.984 12.123-4.368 3.155-7.11-1.51-.463-2.803-.3-5.88-.159 15.759-1.113 13.278-13.96-.203-7.067 12.053-4.826 13.787-16.255 3.332-11.308M48.663 178.096l-4.442-.808M49.875 185.77l-5.25-.203M50.279 193.038l-4.644 1.616M52.702 200.106l-3.635 3.432M60.577 204.952L58.356 210M93.288 206.163l3.837 5.452M100.356 202.125l6.663 5.25M103.385 195.663l7.269 2.827M103.99 190.212l7.068-1.818M103.587 183.75l6.26-5.856"></path><path fill-rule="evenodd" stroke="#000" stroke-opacity="1" fill="#fff" stroke-linejoin="miter" stroke-linecap="butt" stroke-width="1px" d="M72.087 242.308c-4.725 1.502-9.546 4.631-14.539 10.702l-4.038-4.039c3.265-2.297 6.601-4.478 9.086-8.077-9.595-2.694-8.787-22.955 6.866-14.942l17.365-.202c14.777-2.17 16.607 10.227 5.25 15.346-3.118 1.406 5.147 6.058 7.471 8.683l-6.865 7.27-1.919-1.414c.706-1.82 1.15-3.152 2.12-4.443-3.05-3.698-6.911-6.261-11.307-8.077z" fill-opacity="1"></path><path fill-rule="evenodd" stroke="#000" stroke-opacity="1" fill="#fff" stroke-linejoin="miter" stroke-linecap="butt" stroke-width="1px" d="M99.376 266.5c-16.885.333-17.788-18.174-16.848-27.7 1.538-15.602 14.167-24.233 7.139-49.403-1.152-4.123-1.836-5.235 0-14.278 1.623-3.076-.306-4.628-3.998-5.426 3.807.429 5.936-3.34 8.281-6.568-7.512 1.098-10.643-2.735-15.706-3.475-4.585-.67-5.45-.76-7.104 3.155 1.246 3.845 4.077 6.38 2.82 7.46-3.21-1.264-7.185-1.762-11.136-2.285 3.258 8.343 14.037 3.06 8.852 17.134-4.734 5.527-8.737 19.05-5.711 31.697 4.46 13.125 6.885 14.088 5.997 22.845-.994 9.788-3.028 23.918-17.134 25.7 3.59 6.28 10.088 7.565 17.42 0-3.799 11.283-.374 17.08 4.568 20.561 2.379-4.037 9.595-3.634 5.391-20.511 4.171 12.395 18.18 4.502 17.169 1.093z" fill-opacity="1"></path><path fill-rule="evenodd" stroke="#000" stroke-opacity="1" fill="none" stroke-linejoin="miter" stroke-linecap="butt" stroke-width="1px" d="M67.964 191.967c2.818 7.527 6.465 9.575 10.423 1.143 3.344 6.87 6.222 7.682 8.424-.286 1.375 6.477 4.476 6.368 3.427-.143M65.108 206.674c3.493 1.818 6.262.598 7.853-5.569 1.16 9.229 9.422 7.787 10.423-.142.215 8.895 4.158 8.8 8.282 3.855M65.394 213.956c1.855 2.372 3.42 2.43 4.14-4.284-.126 9.403 5.985 10.573 8.282 1 .466 8.174 6.73 10.286 8.281-.143.662 3.582 1.956 5.267 4.14 4.283"></path><path fill-rule="evenodd" stroke="#000" stroke-opacity="1" fill="none" stroke-linejoin="miter" stroke-linecap="butt" stroke-width="1px" d="M68.535 223.665c3.902 2.115 5.062-.647 5.568-4.57 2.183 8.992 4.913 7.025 7.853.857 1.16 3.303 2.649 5.12 4.57 4.998M72.087 233.221c3.694.515 4.563-2.926 5.653-6.058.882 4.162 2.115 7.69 5.654 7.068M81.375 234.433c-2.2 8.593-6.651 5.525-7.27-1.212"></path><path fill-rule="evenodd" stroke="#000" stroke-opacity="1" fill="none" stroke-linejoin="miter" stroke-linecap="butt" stroke-width="1px" d="M71.48 243.52c1.558.702 3.428.154 6.058-3.433 1.549 1.882 3.097 4.952 4.645 3.836M74.308 243.317c1.408 2.108 3.002 6.402 5.855.202"></path><path fill-rule="evenodd" stroke="#000" stroke-opacity="1" fill="none" stroke-linejoin="miter" stroke-linecap="round" stroke-width="1px" d="M76.327 255.837l.202 29.48M74.51 247.356c-3.412 16.718-8.812 18.519-14.337 19.384M79.76 247.558c1.355 11.14 1.903 18.847 14.942 21.404M81.779 205.356v8.48M74.308 205.154l-.808 6.461M78.346 194.048l-.202 8.683M86.625 193.846l1.01 8.885M69.319 195.023l-.867 7.304M70.067 214.275l-.202 5.215"></path><path fill-rule="evenodd" stroke="#000" stroke-opacity="1" fill="none" stroke-linejoin="miter" stroke-linecap="butt" stroke-width="1px" d="M78.085 213.265l-.547 8.245"></path><path fill-rule="evenodd" stroke="#000" stroke-opacity="1" fill="none" stroke-linejoin="miter" stroke-linecap="round" stroke-width="1px" d="M86.221 212.625l-.202 9.288M81.98 221.308v8.077M74.106 220.298l.202 9.692M77.942 227.971l.202 8.48M88.989 207.542l.665 3.266M66.896 207.601l-.261 5.024"></path><path fill-rule="evenodd" stroke="#000" stroke-opacity="1" fill="#000" stroke-linejoin="round" stroke-linecap="round" stroke-width="1px" d="M92.446 165.459c-2.72 1.02-6.811-1.508-10.5-2.423 3.109 1.365 7.373 3.554 9.49 3.432z" fill-opacity="1"></path><path fill-rule="evenodd" stroke="#000" stroke-opacity="1" fill="none" stroke-linejoin="miter" stroke-linecap="butt" stroke-width="1px" d="M81.956 165.696c-3.2-1.027-6-4.233-8.852-1.428M73.532 163.697c1.14 4.079 3.34 3.654 5.997 1.285"></path><circle stroke-dasharray="none" fill-rule="nonzero" r=".643" stroke="#000" stroke-opacity="1" fill="#000" stroke-linejoin="round" stroke-dashoffset="0" stroke-linecap="round" stroke-width="1" opacity=".99" cx="74.746" cy="164.625" stroke-miterlimit="4" fill-opacity="1"></circle><path fill-rule="evenodd" stroke="#000" stroke-opacity="1" fill="#fff" stroke-linejoin="miter" stroke-linecap="butt" stroke-width="1px" d="M71.279 162.952c-7.67-3.538-13.11-2.39-12.721 4.846 1.669-.196 3.412-2.084 7.47.606l1.01.151c-.01-.054 4.515.747 6.916 1.565.388.132-.083-.916-.303-1.262-1.006-1.586-2.442-5.871-2.372-5.906z" fill-opacity="1"></path><path stroke-dasharray="none" fill-rule="evenodd" stroke="#000" stroke-opacity="1" fill="none" stroke-linejoin="round" stroke-linecap="round" stroke-width=".6" d="M74.96 191.11l-.714 3.57M82.528 193.68l-.286-4.283M84.812 191.11c.006-1.064-.196-2.75-.571-4.568M83.099 183.4v-2.57M83.241 178.403l.143-1.57M85.954 185.114c.083-1.25.148-2.518-.143-4.14M85.669 179.117c.13-1.523-.039-3.046-.286-4.569M73.773 179.319c.568-1.235 2.185-5.732-1.56-8.907M76.53 182.258l.286-3.712M87.668 190.825c-.35-1.471-.622-2.902-1.714-3.998M87.382 174.548c.156-2.111-.749-2.81-1.713-3.427M78.53 175.69c-1.137-1.924-2.68-1.995-4.19-2.427M81.242 172.549c-1.418-1.695-3.207-2.276-4.997-2.856M81.385 168.694c-1.194 1.08-2.713 1.19-4.283 1.142M70.067 195.058l1.414-3.03M80.567 190.413v-3.23M77.74 189v-1.615" stroke-miterlimit="4"></path><path stroke-dasharray="none" fill-rule="evenodd" stroke="#000" stroke-opacity="1" fill="none" stroke-linejoin="miter" stroke-linecap="round" stroke-width=".6" d="M74.308 170.221c-3.621-3.213-6.369-5.914-9.895-5.856M80.957 268.355c.864 5.402.915 10.236-1.999 12.993" stroke-miterlimit="4"></path><path fill-rule="evenodd" stroke="#000" stroke-opacity="1" fill="none" stroke-linejoin="miter" stroke-linecap="butt" stroke-width="1px" d="M56.538 232.716c5.773.884 5.428-2.893 5.755-6.158 2.686 7.249 8.124 3.314 7.673.1M71.986 238.673c-2.93 2.847-5.55 2.899-7.673-1.514"></path><path fill-rule="evenodd" stroke="#000" stroke-opacity="1" fill="none" stroke-linejoin="miter" stroke-linecap="butt" stroke-width="1px" d="M59.063 238.37c2.131-.203 1.492-1.945 1.312-3.432 2.71 3.966 6.197 2.108 5.048-1.818 2.213 3.291 4.212 1.874 6.159-.707"></path><path fill-rule="evenodd" stroke="#000" stroke-opacity="1" fill="none" stroke-linejoin="miter" stroke-linecap="round" stroke-width="1px" d="M61.183 231.505l2.22 2.625M66.938 230.394l1.615 2.221M68.25 234.938l.303 3.533"></path><path fill-rule="evenodd" stroke="#000" stroke-opacity="1" fill="none" stroke-linejoin="miter" stroke-linecap="butt" stroke-width="1px" d="M98.538 235.038c-3.562 1.192-7.58-.709-5.956-5.25-3.97 4.44-5.562 1.744-7.169-.908"></path><path fill-rule="evenodd" stroke="#000" stroke-opacity="1" fill="none" stroke-linejoin="miter" stroke-linecap="butt" stroke-width="1px" d="M83.293 234.23c1.903 2.75 3.444-1.242 5.351-2.018-3.11 3.543-1.309 8.408 2.827 3.836-1.466 3.628-.732 5.108 4.24 2.827"></path><path fill-rule="evenodd" stroke="#000" stroke-opacity="1" fill="none" stroke-linejoin="miter" stroke-linecap="butt" stroke-width="1px" d="M91.774 243.52c-5.002.377-4.64-2.278-3.534-5.352-1.598 3.335-3.622 3.258-5.754 2.322"></path><path fill-rule="evenodd" stroke="#000" stroke-opacity="1" fill="none" stroke-linejoin="miter" stroke-linecap="round" stroke-width="1px" d="M87.029 235.14l-2.221 3.634M90.663 239.178l-1.11 2.12M91.976 231.303l-2.827 3.836M94.904 235.442l-2.02 2.221M96.216 232.313l-.706-2.323M89.048 229.89l.909-2.02"></path><path stroke-dasharray="none" fill-rule="evenodd" stroke="#000" stroke-opacity="1" fill="none" stroke-linejoin="miter" stroke-linecap="round" stroke-width=".6" d="M66.635 243.317l-4.342-.505M63.505 245.841l-2.928-.605M60.678 247.76l-2.524-.505M92.545 245.668l-4.33-.6" stroke-miterlimit="4"></path><path fill-rule="evenodd" stroke="#000" stroke-opacity="1" fill="#fff" stroke-linejoin="miter" stroke-linecap="butt" stroke-width="1px" d="M88.667 259.788l21.132-27.7-5.569-4.283 3.713-4.711 5.14 4.426 4.854-6.71 3.998 3.283-5.14 6.425 5.854 4.284-3.141 4.283-5.711-4.426-20.56 28.842z" fill-opacity="1"></path><path stroke-dasharray="none" fill-rule="evenodd" stroke="#000" stroke-opacity="1" fill="none" stroke-linejoin="miter" stroke-linecap="round" stroke-width=".6" d="M96.208 248.39l-4.329-.6" stroke-miterlimit="4"></path><rect y="120.056" stroke-dasharray="none" fill-rule="nonzero" stroke="#000" transform="matrix(.65304 .75733 -.77093 .63692 0 0)" stroke-opacity="1" fill="#fff" stroke-linejoin="round" width="3.482" stroke-dashoffset="0" stroke-linecap="round" stroke-width=".975522" opacity=".99" stroke-miterlimit="4" x="222.993" ry="1.741" fill-opacity="1" height="10.053"></rect><ellipse stroke-dasharray="none" fill-rule="nonzero" rx="2.641" stroke="#000" transform="matrix(1.12956 0 0 1.2165 -6.602 -57.264)" stroke-opacity="1" fill="#fff" stroke-linejoin="round" stroke-dashoffset="0" stroke-linecap="round" stroke-width="1" opacity=".99" cx="56.47" cy="260.217" stroke-miterlimit="4" ry="2.57" fill-opacity="1"></ellipse><rect y="117.544" stroke-dasharray="none" fill-rule="nonzero" stroke="#000" transform="rotate(49.758) skewX(-.152)" stroke-opacity="1" fill="#fff" stroke-linejoin="round" width="4.147" stroke-dashoffset="0" stroke-linecap="round" stroke-width="1.15988" opacity=".99" stroke-miterlimit="4" x="225.086" ry="2.067" fill-opacity="1" height="11.934"></rect><rect y="120.529" stroke-dasharray="none" fill-rule="nonzero" stroke="#000" transform="matrix(.65494 .75568 -.77252 .635 0 0)" stroke-opacity="1" fill="#fff" stroke-linejoin="round" width="3.836" stroke-dashoffset="0" stroke-linecap="round" stroke-width="1.07511" opacity=".99" stroke-miterlimit="4" x="230.826" ry="1.92" fill-opacity="1" height="11.084"></rect><rect y="232.369" stroke-dasharray="none" fill-rule="nonzero" stroke="#000" transform="matrix(-.64134 .76725 .76109 .64865 0 0)" stroke-opacity="1" fill="#fff" stroke-linejoin="round" width="3.441" stroke-dashoffset="0" stroke-linecap="round" stroke-width=".961441" opacity=".99" stroke-miterlimit="4" x="124.567" ry="1.711" fill-opacity="1" height="9.882"></rect><rect y="230.837" stroke-dasharray="none" fill-rule="nonzero" stroke="#000" transform="matrix(-.63427 .77311 .75506 .65565 0 0)" stroke-opacity="1" fill="#fff" stroke-linejoin="round" width="4.099" stroke-dashoffset="0" stroke-linecap="round" stroke-width="1.14346" opacity=".99" stroke-miterlimit="4" x="125.62" ry="2.032" fill-opacity="1" height="11.734"></rect><rect y="232.583" stroke-dasharray="none" fill-rule="nonzero" stroke="#000" transform="matrix(-.64327 .76564 .76272 .64673 0 0)" stroke-opacity="1" fill="#fff" stroke-linejoin="round" width="3.79" stroke-dashoffset="0" stroke-linecap="round" stroke-width="1.05951" opacity=".99" stroke-miterlimit="4" x="132.578" ry="1.887" fill-opacity="1" height="10.894"></rect><path fill-rule="evenodd" stroke="#000" stroke-opacity="1" fill="#fff" stroke-linejoin="miter" stroke-linecap="butt" stroke-width="1px" d="M18.27 198.03c8.48 5.805 2.08-1.1 31.594 44.253l-4.86 3.35c-12.074-17.556-27.852-39.797-26.735-47.603z" fill-opacity="1"></path><rect y="227.315" stroke-dasharray="none" fill-rule="nonzero" stroke="#000" transform="matrix(.83065 -.5568 .59462 .80401 0 0)" stroke-opacity="1" fill="#fff" stroke-linejoin="round" width="15.335" stroke-dashoffset="0" stroke-linecap="round" stroke-width="1.00054" opacity=".99" stroke-miterlimit="4" x="-115.152" ry=".49" fill-opacity="1" height="6.857"></rect><ellipse stroke-dasharray="none" fill-rule="nonzero" rx=".143" stroke="#000" transform="matrix(.20212 .26299 -.46932 .41712 176.31 138.523)" stroke-opacity="1" fill="#fff" stroke-linejoin="round" stroke-dashoffset="0" stroke-linecap="round" stroke-width="3" opacity=".99" cx="9.995" cy="261.073" stroke-miterlimit="4" ry=".999" fill-opacity="1"></ellipse><ellipse stroke-dasharray="none" fill-rule="nonzero" rx=".143" stroke="#000" transform="matrix(-.16953 .26553 .39365 .42114 -9.468 141.247)" stroke-opacity="1" fill="#fff" stroke-linejoin="round" stroke-dashoffset="0" stroke-linecap="round" stroke-width="3" opacity=".99" cx="9.995" cy="261.073" stroke-miterlimit="4" ry=".999" fill-opacity="1"></ellipse><path stroke-dasharray="none" fill-rule="evenodd" stroke="#000" stroke-opacity="1" fill="none" stroke-linejoin="miter" stroke-linecap="round" stroke-width=".6" d="M47.403 251.079l.857 1M49.402 254.363l.714 1M51.972 257.076l1.143 1.142M101.946 251.507l-.714 1.428M100.232 255.22l-.714 1.142M97.948 258.36l-1 1.143" stroke-miterlimit="4"></path><ellipse stroke-dasharray="none" fill-rule="nonzero" rx=".143" stroke="#000" transform="matrix(.20212 .26299 -.46932 .41712 179.165 141.584)" stroke-opacity="1" fill="#fff" stroke-linejoin="round" stroke-dashoffset="0" stroke-linecap="round" stroke-width="3" opacity=".99" cx="9.995" cy="261.073" stroke-miterlimit="4" ry=".999" fill-opacity="1"></ellipse><ellipse stroke-dasharray="none" fill-rule="nonzero" rx=".143" stroke="#000" transform="matrix(.20212 .26299 -.46932 .41712 174.016 135.627)" stroke-opacity="1" fill="#fff" stroke-linejoin="round" stroke-dashoffset="0" stroke-linecap="round" stroke-width="3" opacity=".99" cx="9.995" cy="261.073" stroke-miterlimit="4" ry=".999" fill-opacity="1"></ellipse><ellipse stroke-dasharray="none" fill-rule="nonzero" rx=".143" stroke="#000" transform="matrix(-.16953 .26553 .39365 .42114 -7.083 137.58)" stroke-opacity="1" fill="#fff" stroke-linejoin="round" stroke-dashoffset="0" stroke-linecap="round" stroke-width="3" opacity=".99" cx="9.995" cy="261.073" stroke-miterlimit="4" ry=".999" fill-opacity="1"></ellipse><ellipse stroke-dasharray="none" fill-rule="nonzero" rx=".143" stroke="#000" transform="matrix(-.16953 .26553 .39365 .42114 -4.559 135.157)" stroke-opacity="1" fill="#fff" stroke-linejoin="round" stroke-dashoffset="0" stroke-linecap="round" stroke-width="3" opacity=".99" cx="9.995" cy="261.073" stroke-miterlimit="4" ry=".999" fill-opacity="1"></ellipse><path stroke-dasharray="none" fill-rule="evenodd" stroke="#000" stroke-opacity="1" fill="none" stroke-linejoin="miter" stroke-linecap="round" stroke-width=".6" d="M48.332 250.248l.857 1M50.33 253.532l.715 1M52.9 256.245l1.143 1.142M101.037 250.627l-.714 1.428M99.324 254.34l-.714 1.142M97.04 257.48l-1 1.143" stroke-miterlimit="4"></path></g></g></mask><mask id="mask_12"><g fill="#fff" stroke="none" stroke-width="0" transform="translate(0,0)"><g transform="matrix(1.6 0 0 1.6 -28.337 -239.608)"><path fill-rule="evenodd" stroke="#fff" stroke-opacity="1" fill="#fff" stroke-linejoin="miter" stroke-linecap="round" stroke-width="1px" d="M67.846 194.25c-16.85 11.995-13.563-1.13-11.308-12.115.745-3.961-.083-8.374-2.019-11.51-2.077-3.365-5.926-5.78-9.57-7.423-9.741-4.39-17.387-12.247-18.093-12.77-2.47-1.828-2.04 10.936 3.23 15.75-4.142-1.71-7.68-2.54-11.307-2.019 2.922 6.178 6.371 10.771 10.904 12.116-3.534.035-7.049.01-11.106 1.615 2.663 4.972 7.09 6.414 11.308 8.28-3.142 1.839-6.954 3.51-8.077 5.855 2.55 2.924 7.422 4.234 10.5 5.048-2.107 1.185-4.628 3.198-7.27 5.452 4.74 2.913 8.426 2.662 12.116 2.423-3.599 3.029-4.238 6.058-5.25 9.086 3.133-.022 6.835.552 9.49-.605-2.627 4.846-3.03 6.778-3.634 10.096 3.838 1.49 6.955-1.345 10.298-2.827-1.637 3.5-2.133 7-1.616 10.5 3.91.696 7.656.661 10.5-3.433l17.164 4.644 20.798-5.451c9.298 6.11 8.557.598 7.875-4.847 5.788 4.577 8.615 3.5 8.48-3.23 2.838 1.075 4.97 3.795 9.29 1.413 4.563-2.348-1.083-6.155-3.434-9.49 6.529 1.256 9.215-1.636 9.895-4.846.857-4.053-2.88-5.239-5.25-6.462 4.227-.688 7.973-1.926 8.48-6.865.323-1.795-2.448-2.705-5.855-3.433 4.62-1.07 7.089-3.575 6.865-7.875-.19-3.096-3.75-2.15-6.462-2.221 6.211-4.208 7.648-9.658 6.462-13.731-.856-2.94-5.115.915-7.673 2.02 6.136-4.266 3.296-15.94.393-14.722-11.192 11.1-18.701 16.999-27.041 29.16-2.447 6.84 7.545 14.075-5.054 17.263l-16.356 3.23z" fill-opacity="1"></path><path fill-rule="evenodd" stroke="#fff" stroke-opacity="1" fill="none" stroke-linejoin="miter" stroke-linecap="round" stroke-width="1px" d="M30.288 157.702c5.211 7.178 8.993 10.447 14.74 13.327 6.374 4.565 4.244 16.46 5.655 24.836 3.106 10.172 12.327 9.438 16.961 9.087l25.039 1.211c15.74-4.686 9.66-15.647 11.37-24.722.575-3.051 2.792-5.937 6.159-8.212 5.05-3.444 12.317-9.037 12.76-13.71"></path><path fill-rule="evenodd" stroke="#fff" stroke-opacity="1" fill="none" stroke-linejoin="miter" stroke-linecap="butt" stroke-width="1px" d="M30.087 165.98L42 175.472M28.673 176.077l16.76 5.35M29.48 186.173l12.722.808M31.702 197.077l11.51-1.716M37.053 205.053l9.894-4.543M41.192 213.433l5.957-6.765M48.058 220.702l7.673-8.885M56.942 227.77l6.664-19.587M94.904 227.163l-5.856-12.72M102.779 222.317l-4.644-7.168M111.663 218.885l-6.562-8.481M117.115 210.808l-7.875-4.443M122.365 199.298l-8.985-1.01M125.192 189l-14.033 3.13M125.394 178.702l-10.399 8.178M124.385 166.587l-10.298 10.5"></path><path stroke-dasharray="none" fill-rule="evenodd" stroke="#fff" stroke-opacity="1" fill="none" stroke-linejoin="miter" stroke-linecap="round" stroke-width="1" d="M25.038 168l16.76 9.692" stroke-miterlimit="4"></path><path fill-rule="evenodd" stroke="#fff" stroke-opacity="1" fill="none" stroke-linejoin="miter" stroke-linecap="round" stroke-width="1px" d="M25.038 180.317l17.164 4.14M28.471 191.625l15.952.303M30.288 202.125l19.284-4.846M37.962 210.606l7.975-5.957M42.404 219.288l12.317-14.134M51.49 226.154l7.169-12.62M62.192 222.923l4.039-12.52"></path><path fill-rule="evenodd" stroke="#fff" stroke-opacity="1" fill="none" stroke-linejoin="miter" stroke-linecap="butt" stroke-width="1px" d="M63 226.76l5.25-9.087M91.673 226.962l-4.442-8.683"></path><path fill-rule="evenodd" stroke="#fff" stroke-opacity="1" fill="none" stroke-linejoin="miter" stroke-linecap="round" stroke-width="1px" d="M98.942 225.952l-5.654-12.115M107.221 220.096l-6.865-7.27M117.52 217.471L108.735 210M122.567 205.962c-6.461-1.146-13.327-3.568-19.788-6.866M124.99 193.644c-5.852 2.299-6.148 1.633-12.014 1.818M126.808 182.942c-4.952 3.173-7.902 4.563-12.318 6.664M125.394 171.23c-4.133 6.34-8.787 9.416-13.932 13.732"></path><path fill-rule="evenodd" stroke="#fff" stroke-opacity="1" fill="none" stroke-linejoin="miter" stroke-linecap="butt" stroke-width="1px" d="M46.846 173.452c-6.651.408-7.477 8.237 2.625 8.784-10.005.012-9.51 8.113.606 7.47-10.642 1.49-7.316 10.07.606 7.068-5.161 2.369-8.154 15.98 4.846 7.37-4.159 10.255 7.713 13.74 8.48 1.818l25.645 2.019c4.114 14.11 17.952 4.533 7.37-3.433.038.023 2.115 1.82 3.662 3.591 3.912 4.482 13.274 2.93 6.333-7.024.577 2.984 12.123-4.368 3.155-7.11-1.51-.463-2.803-.3-5.88-.159 15.759-1.113 13.278-13.96-.203-7.067 12.053-4.826 13.787-16.255 3.332-11.308M48.663 178.096l-4.442-.808M49.875 185.77l-5.25-.203M50.279 193.038l-4.644 1.616M52.702 200.106l-3.635 3.432M60.577 204.952L58.356 210M93.288 206.163l3.837 5.452M100.356 202.125l6.663 5.25M103.385 195.663l7.269 2.827M103.99 190.212l7.068-1.818M103.587 183.75l6.26-5.856"></path><path fill-rule="evenodd" stroke="#fff" stroke-opacity="1" fill="#fff" stroke-linejoin="miter" stroke-linecap="butt" stroke-width="1px" d="M72.087 242.308c-4.725 1.502-9.546 4.631-14.539 10.702l-4.038-4.039c3.265-2.297 6.601-4.478 9.086-8.077-9.595-2.694-8.787-22.955 6.866-14.942l17.365-.202c14.777-2.17 16.607 10.227 5.25 15.346-3.118 1.406 5.147 6.058 7.471 8.683l-6.865 7.27-1.919-1.414c.706-1.82 1.15-3.152 2.12-4.443-3.05-3.698-6.911-6.261-11.307-8.077z" fill-opacity="1"></path><path fill-rule="evenodd" stroke="#fff" stroke-opacity="1" fill="#fff" stroke-linejoin="miter" stroke-linecap="butt" stroke-width="1px" d="M99.376 266.5c-16.885.333-17.788-18.174-16.848-27.7 1.538-15.602 14.167-24.233 7.139-49.403-1.152-4.123-1.836-5.235 0-14.278 1.623-3.076-.306-4.628-3.998-5.426 3.807.429 5.936-3.34 8.281-6.568-7.512 1.098-10.643-2.735-15.706-3.475-4.585-.67-5.45-.76-7.104 3.155 1.246 3.845 4.077 6.38 2.82 7.46-3.21-1.264-7.185-1.762-11.136-2.285 3.258 8.343 14.037 3.06 8.852 17.134-4.734 5.527-8.737 19.05-5.711 31.697 4.46 13.125 6.885 14.088 5.997 22.845-.994 9.788-3.028 23.918-17.134 25.7 3.59 6.28 10.088 7.565 17.42 0-3.799 11.283-.374 17.08 4.568 20.561 2.379-4.037 9.595-3.634 5.391-20.511 4.171 12.395 18.18 4.502 17.169 1.093z" fill-opacity="1"></path><path fill-rule="evenodd" stroke="#fff" stroke-opacity="1" fill="none" stroke-linejoin="miter" stroke-linecap="butt" stroke-width="1px" d="M67.964 191.967c2.818 7.527 6.465 9.575 10.423 1.143 3.344 6.87 6.222 7.682 8.424-.286 1.375 6.477 4.476 6.368 3.427-.143M65.108 206.674c3.493 1.818 6.262.598 7.853-5.569 1.16 9.229 9.422 7.787 10.423-.142.215 8.895 4.158 8.8 8.282 3.855M65.394 213.956c1.855 2.372 3.42 2.43 4.14-4.284-.126 9.403 5.985 10.573 8.282 1 .466 8.174 6.73 10.286 8.281-.143.662 3.582 1.956 5.267 4.14 4.283"></path><path fill-rule="evenodd" stroke="#fff" stroke-opacity="1" fill="none" stroke-linejoin="miter" stroke-linecap="butt" stroke-width="1px" d="M68.535 223.665c3.902 2.115 5.062-.647 5.568-4.57 2.183 8.992 4.913 7.025 7.853.857 1.16 3.303 2.649 5.12 4.57 4.998M72.087 233.221c3.694.515 4.563-2.926 5.653-6.058.882 4.162 2.115 7.69 5.654 7.068M81.375 234.433c-2.2 8.593-6.651 5.525-7.27-1.212"></path><path fill-rule="evenodd" stroke="#fff" stroke-opacity="1" fill="none" stroke-linejoin="miter" stroke-linecap="butt" stroke-width="1px" d="M71.48 243.52c1.558.702 3.428.154 6.058-3.433 1.549 1.882 3.097 4.952 4.645 3.836M74.308 243.317c1.408 2.108 3.002 6.402 5.855.202"></path><path fill-rule="evenodd" stroke="#fff" stroke-opacity="1" fill="none" stroke-linejoin="miter" stroke-linecap="round" stroke-width="1px" d="M76.327 255.837l.202 29.48M74.51 247.356c-3.412 16.718-8.812 18.519-14.337 19.384M79.76 247.558c1.355 11.14 1.903 18.847 14.942 21.404M81.779 205.356v8.48M74.308 205.154l-.808 6.461M78.346 194.048l-.202 8.683M86.625 193.846l1.01 8.885M69.319 195.023l-.867 7.304M70.067 214.275l-.202 5.215"></path><path fill-rule="evenodd" stroke="#fff" stroke-opacity="1" fill="none" stroke-linejoin="miter" stroke-linecap="butt" stroke-width="1px" d="M78.085 213.265l-.547 8.245"></path><path fill-rule="evenodd" stroke="#fff" stroke-opacity="1" fill="none" stroke-linejoin="miter" stroke-linecap="round" stroke-width="1px" d="M86.221 212.625l-.202 9.288M81.98 221.308v8.077M74.106 220.298l.202 9.692M77.942 227.971l.202 8.48M88.989 207.542l.665 3.266M66.896 207.601l-.261 5.024"></path><path fill-rule="evenodd" stroke="#fff" stroke-opacity="1" fill="#fff" stroke-linejoin="round" stroke-linecap="round" stroke-width="1px" d="M92.446 165.459c-2.72 1.02-6.811-1.508-10.5-2.423 3.109 1.365 7.373 3.554 9.49 3.432z" fill-opacity="1"></path><path fill-rule="evenodd" stroke="#fff" stroke-opacity="1" fill="none" stroke-linejoin="miter" stroke-linecap="butt" stroke-width="1px" d="M81.956 165.696c-3.2-1.027-6-4.233-8.852-1.428M73.532 163.697c1.14 4.079 3.34 3.654 5.997 1.285"></path><circle stroke-dasharray="none" fill-rule="nonzero" r=".643" stroke="#fff" stroke-opacity="1" fill="#fff" stroke-linejoin="round" stroke-dashoffset="0" stroke-linecap="round" stroke-width="1" opacity=".99" cx="74.746" cy="164.625" stroke-miterlimit="4" fill-opacity="1"></circle><path fill-rule="evenodd" stroke="#fff" stroke-opacity="1" fill="#fff" stroke-linejoin="miter" stroke-linecap="butt" stroke-width="1px" d="M71.279 162.952c-7.67-3.538-13.11-2.39-12.721 4.846 1.669-.196 3.412-2.084 7.47.606l1.01.151c-.01-.054 4.515.747 6.916 1.565.388.132-.083-.916-.303-1.262-1.006-1.586-2.442-5.871-2.372-5.906z" fill-opacity="1"></path><path stroke-dasharray="none" fill-rule="evenodd" stroke="#fff" stroke-opacity="1" fill="none" stroke-linejoin="round" stroke-linecap="round" stroke-width=".6" d="M74.96 191.11l-.714 3.57M82.528 193.68l-.286-4.283M84.812 191.11c.006-1.064-.196-2.75-.571-4.568M83.099 183.4v-2.57M83.241 178.403l.143-1.57M85.954 185.114c.083-1.25.148-2.518-.143-4.14M85.669 179.117c.13-1.523-.039-3.046-.286-4.569M73.773 179.319c.568-1.235 2.185-5.732-1.56-8.907M76.53 182.258l.286-3.712M87.668 190.825c-.35-1.471-.622-2.902-1.714-3.998M87.382 174.548c.156-2.111-.749-2.81-1.713-3.427M78.53 175.69c-1.137-1.924-2.68-1.995-4.19-2.427M81.242 172.549c-1.418-1.695-3.207-2.276-4.997-2.856M81.385 168.694c-1.194 1.08-2.713 1.19-4.283 1.142M70.067 195.058l1.414-3.03M80.567 190.413v-3.23M77.74 189v-1.615" stroke-miterlimit="4"></path><path stroke-dasharray="none" fill-rule="evenodd" stroke="#fff" stroke-opacity="1" fill="none" stroke-linejoin="miter" stroke-linecap="round" stroke-width=".6" d="M74.308 170.221c-3.621-3.213-6.369-5.914-9.895-5.856M80.957 268.355c.864 5.402.915 10.236-1.999 12.993" stroke-miterlimit="4"></path><path fill-rule="evenodd" stroke="#fff" stroke-opacity="1" fill="none" stroke-linejoin="miter" stroke-linecap="butt" stroke-width="1px" d="M56.538 232.716c5.773.884 5.428-2.893 5.755-6.158 2.686 7.249 8.124 3.314 7.673.1M71.986 238.673c-2.93 2.847-5.55 2.899-7.673-1.514"></path><path fill-rule="evenodd" stroke="#fff" stroke-opacity="1" fill="none" stroke-linejoin="miter" stroke-linecap="butt" stroke-width="1px" d="M59.063 238.37c2.131-.203 1.492-1.945 1.312-3.432 2.71 3.966 6.197 2.108 5.048-1.818 2.213 3.291 4.212 1.874 6.159-.707"></path><path fill-rule="evenodd" stroke="#fff" stroke-opacity="1" fill="none" stroke-linejoin="miter" stroke-linecap="round" stroke-width="1px" d="M61.183 231.505l2.22 2.625M66.938 230.394l1.615 2.221M68.25 234.938l.303 3.533"></path><path fill-rule="evenodd" stroke="#fff" stroke-opacity="1" fill="none" stroke-linejoin="miter" stroke-linecap="butt" stroke-width="1px" d="M98.538 235.038c-3.562 1.192-7.58-.709-5.956-5.25-3.97 4.44-5.562 1.744-7.169-.908"></path><path fill-rule="evenodd" stroke="#fff" stroke-opacity="1" fill="none" stroke-linejoin="miter" stroke-linecap="butt" stroke-width="1px" d="M83.293 234.23c1.903 2.75 3.444-1.242 5.351-2.018-3.11 3.543-1.309 8.408 2.827 3.836-1.466 3.628-.732 5.108 4.24 2.827"></path><path fill-rule="evenodd" stroke="#fff" stroke-opacity="1" fill="none" stroke-linejoin="miter" stroke-linecap="butt" stroke-width="1px" d="M91.774 243.52c-5.002.377-4.64-2.278-3.534-5.352-1.598 3.335-3.622 3.258-5.754 2.322"></path><path fill-rule="evenodd" stroke="#fff" stroke-opacity="1" fill="none" stroke-linejoin="miter" stroke-linecap="round" stroke-width="1px" d="M87.029 235.14l-2.221 3.634M90.663 239.178l-1.11 2.12M91.976 231.303l-2.827 3.836M94.904 235.442l-2.02 2.221M96.216 232.313l-.706-2.323M89.048 229.89l.909-2.02"></path><path stroke-dasharray="none" fill-rule="evenodd" stroke="#fff" stroke-opacity="1" fill="none" stroke-linejoin="miter" stroke-linecap="round" stroke-width=".6" d="M66.635 243.317l-4.342-.505M63.505 245.841l-2.928-.605M60.678 247.76l-2.524-.505M92.545 245.668l-4.33-.6" stroke-miterlimit="4"></path><path fill-rule="evenodd" stroke="#fff" stroke-opacity="1" fill="#fff" stroke-linejoin="miter" stroke-linecap="butt" stroke-width="1px" d="M88.667 259.788l21.132-27.7-5.569-4.283 3.713-4.711 5.14 4.426 4.854-6.71 3.998 3.283-5.14 6.425 5.854 4.284-3.141 4.283-5.711-4.426-20.56 28.842z" fill-opacity="1"></path><path stroke-dasharray="none" fill-rule="evenodd" stroke="#fff" stroke-opacity="1" fill="none" stroke-linejoin="miter" stroke-linecap="round" stroke-width=".6" d="M96.208 248.39l-4.329-.6" stroke-miterlimit="4"></path><rect y="120.056" stroke-dasharray="none" fill-rule="nonzero" stroke="#fff" transform="matrix(.65304 .75733 -.77093 .63692 0 0)" stroke-opacity="1" fill="#fff" stroke-linejoin="round" width="3.482" stroke-dashoffset="0" stroke-linecap="round" stroke-width=".975522" opacity=".99" stroke-miterlimit="4" x="222.993" ry="1.741" fill-opacity="1" height="10.053"></rect><ellipse stroke-dasharray="none" fill-rule="nonzero" rx="2.641" stroke="#fff" transform="matrix(1.12956 0 0 1.2165 -6.602 -57.264)" stroke-opacity="1" fill="#fff" stroke-linejoin="round" stroke-dashoffset="0" stroke-linecap="round" stroke-width="1" opacity=".99" cx="56.47" cy="260.217" stroke-miterlimit="4" ry="2.57" fill-opacity="1"></ellipse><rect y="117.544" stroke-dasharray="none" fill-rule="nonzero" stroke="#fff" transform="rotate(49.758) skewX(-.152)" stroke-opacity="1" fill="#fff" stroke-linejoin="round" width="4.147" stroke-dashoffset="0" stroke-linecap="round" stroke-width="1.15988" opacity=".99" stroke-miterlimit="4" x="225.086" ry="2.067" fill-opacity="1" height="11.934"></rect><rect y="120.529" stroke-dasharray="none" fill-rule="nonzero" stroke="#fff" transform="matrix(.65494 .75568 -.77252 .635 0 0)" stroke-opacity="1" fill="#fff" stroke-linejoin="round" width="3.836" stroke-dashoffset="0" stroke-linecap="round" stroke-width="1.07511" opacity=".99" stroke-miterlimit="4" x="230.826" ry="1.92" fill-opacity="1" height="11.084"></rect><rect y="232.369" stroke-dasharray="none" fill-rule="nonzero" stroke="#fff" transform="matrix(-.64134 .76725 .76109 .64865 0 0)" stroke-opacity="1" fill="#fff" stroke-linejoin="round" width="3.441" stroke-dashoffset="0" stroke-linecap="round" stroke-width=".961441" opacity=".99" stroke-miterlimit="4" x="124.567" ry="1.711" fill-opacity="1" height="9.882"></rect><rect y="230.837" stroke-dasharray="none" fill-rule="nonzero" stroke="#fff" transform="matrix(-.63427 .77311 .75506 .65565 0 0)" stroke-opacity="1" fill="#fff" stroke-linejoin="round" width="4.099" stroke-dashoffset="0" stroke-linecap="round" stroke-width="1.14346" opacity=".99" stroke-miterlimit="4" x="125.62" ry="2.032" fill-opacity="1" height="11.734"></rect><rect y="232.583" stroke-dasharray="none" fill-rule="nonzero" stroke="#fff" transform="matrix(-.64327 .76564 .76272 .64673 0 0)" stroke-opacity="1" fill="#fff" stroke-linejoin="round" width="3.79" stroke-dashoffset="0" stroke-linecap="round" stroke-width="1.05951" opacity=".99" stroke-miterlimit="4" x="132.578" ry="1.887" fill-opacity="1" height="10.894"></rect><path fill-rule="evenodd" stroke="#fff" stroke-opacity="1" fill="#fff" stroke-linejoin="miter" stroke-linecap="butt" stroke-width="1px" d="M18.27 198.03c8.48 5.805 2.08-1.1 31.594 44.253l-4.86 3.35c-12.074-17.556-27.852-39.797-26.735-47.603z" fill-opacity="1"></path><rect y="227.315" stroke-dasharray="none" fill-rule="nonzero" stroke="#fff" transform="matrix(.83065 -.5568 .59462 .80401 0 0)" stroke-opacity="1" fill="#fff" stroke-linejoin="round" width="15.335" stroke-dashoffset="0" stroke-linecap="round" stroke-width="1.00054" opacity=".99" stroke-miterlimit="4" x="-115.152" ry=".49" fill-opacity="1" height="6.857"></rect><ellipse stroke-dasharray="none" fill-rule="nonzero" rx=".143" stroke="#fff" transform="matrix(.20212 .26299 -.46932 .41712 176.31 138.523)" stroke-opacity="1" fill="#fff" stroke-linejoin="round" stroke-dashoffset="0" stroke-linecap="round" stroke-width="3" opacity=".99" cx="9.995" cy="261.073" stroke-miterlimit="4" ry=".999" fill-opacity="1"></ellipse><ellipse stroke-dasharray="none" fill-rule="nonzero" rx=".143" stroke="#fff" transform="matrix(-.16953 .26553 .39365 .42114 -9.468 141.247)" stroke-opacity="1" fill="#fff" stroke-linejoin="round" stroke-dashoffset="0" stroke-linecap="round" stroke-width="3" opacity=".99" cx="9.995" cy="261.073" stroke-miterlimit="4" ry=".999" fill-opacity="1"></ellipse><path stroke-dasharray="none" fill-rule="evenodd" stroke="#fff" stroke-opacity="1" fill="none" stroke-linejoin="miter" stroke-linecap="round" stroke-width=".6" d="M47.403 251.079l.857 1M49.402 254.363l.714 1M51.972 257.076l1.143 1.142M101.946 251.507l-.714 1.428M100.232 255.22l-.714 1.142M97.948 258.36l-1 1.143" stroke-miterlimit="4"></path><ellipse stroke-dasharray="none" fill-rule="nonzero" rx=".143" stroke="#fff" transform="matrix(.20212 .26299 -.46932 .41712 179.165 141.584)" stroke-opacity="1" fill="#fff" stroke-linejoin="round" stroke-dashoffset="0" stroke-linecap="round" stroke-width="3" opacity=".99" cx="9.995" cy="261.073" stroke-miterlimit="4" ry=".999" fill-opacity="1"></ellipse><ellipse stroke-dasharray="none" fill-rule="nonzero" rx=".143" stroke="#fff" transform="matrix(.20212 .26299 -.46932 .41712 174.016 135.627)" stroke-opacity="1" fill="#fff" stroke-linejoin="round" stroke-dashoffset="0" stroke-linecap="round" stroke-width="3" opacity=".99" cx="9.995" cy="261.073" stroke-miterlimit="4" ry=".999" fill-opacity="1"></ellipse><ellipse stroke-dasharray="none" fill-rule="nonzero" rx=".143" stroke="#fff" transform="matrix(-.16953 .26553 .39365 .42114 -7.083 137.58)" stroke-opacity="1" fill="#fff" stroke-linejoin="round" stroke-dashoffset="0" stroke-linecap="round" stroke-width="3" opacity=".99" cx="9.995" cy="261.073" stroke-miterlimit="4" ry=".999" fill-opacity="1"></ellipse><ellipse stroke-dasharray="none" fill-rule="nonzero" rx=".143" stroke="#fff" transform="matrix(-.16953 .26553 .39365 .42114 -4.559 135.157)" stroke-opacity="1" fill="#fff" stroke-linejoin="round" stroke-dashoffset="0" stroke-linecap="round" stroke-width="3" opacity=".99" cx="9.995" cy="261.073" stroke-miterlimit="4" ry=".999" fill-opacity="1"></ellipse><path stroke-dasharray="none" fill-rule="evenodd" stroke="#fff" stroke-opacity="1" fill="none" stroke-linejoin="miter" stroke-linecap="round" stroke-width=".6" d="M48.332 250.248l.857 1M50.33 253.532l.715 1M52.9 256.245l1.143 1.142M101.037 250.627l-.714 1.428M99.324 254.34l-.714 1.142M97.04 257.48l-1 1.143" stroke-miterlimit="4"></path></g></g></mask></defs><g transform="translate(50,59.967935)rotate(0)scale(0.3833321568484206,0.3833321568484206)translate(-91.5410078125,-109.507)"><g></g><metadata xmlns:rdf="http://www.w3.org/1999/02/22-rdf-syntax-ns#" xmlns:cc="http://creativecommons.org/ns#" xmlns:dc="http://purl.org/dc/elements/1.1/"><rdf:RDF><rdf:Description dc:title="Polish Eagle With Sword and Cross" dc:creator="mishanc21"></rdf:Description><cc:Work rdf:about="https://heraldicon.org/charges/1HBZEi/1"><cc:license rdf:resource="https://creativecommons.org/licenses/by/4.0"></cc:license><cc:attributionName>Polish Eagle With Sword and Cross by mishanc21</cc:attributionName><cc:attributionURL rdf:resource="https://heraldicon.org/users/mishanc21"></cc:attributionURL></cc:Work><cc:License rdf:about="https://creativecommons.org/licenses/by/4.0"><cc:permits rdf:resource="http://creativecommons.org/ns#Reproduction"></cc:permits><cc:permits rdf:resource="http://creativecommons.org/ns#DerivativeWorks"></cc:permits><cc:permits rdf:resource="http://creativecommons.org/ns#Distribution"></cc:permits><cc:requires rdf:resource="http://creativecommons.org/ns#Notice"></cc:requires><cc:requires rdf:resource="http://creativecommons.org/ns#Attribution"></cc:requires></cc:License></rdf:RDF></metadata><g><g><g mask="url(#mask_12)"><rect transform="translate(91.5410078125,109.507)scale(2.608703658523033,2.608703658523033)rotate(0)translate(-50,-59.967935)" x="-500" y="-500" width="1100" height="1100" fill="#333333"></rect></g><g mask="url(#mask_11)"><g transform="translate(91.5410078125,109.507)scale(2.608703658523033,2.608703658523033)rotate(0)translate(-50,-59.967935)"><rect y="-1000" fill="#f2bc51" width="2000" x="-1000" height="2000"></rect><g></g></g></g><g mask="url(#mask_10)"><g fill="#333333" stroke="none" stroke-width="0" transform="translate(0,0)"><g transform="matrix(1.6 0 0 1.6 -28.337 -239.608)"><path fill-rule="evenodd" stroke="#333333" stroke-opacity="1" fill="#333333" stroke-linejoin="miter" stroke-linecap="round" stroke-width="1px" d="M67.846 194.25c-16.85 11.995-13.563-1.13-11.308-12.115.745-3.961-.083-8.374-2.019-11.51-2.077-3.365-5.926-5.78-9.57-7.423-9.741-4.39-17.387-12.247-18.093-12.77-2.47-1.828-2.04 10.936 3.23 15.75-4.142-1.71-7.68-2.54-11.307-2.019 2.922 6.178 6.371 10.771 10.904 12.116-3.534.035-7.049.01-11.106 1.615 2.663 4.972 7.09 6.414 11.308 8.28-3.142 1.839-6.954 3.51-8.077 5.855 2.55 2.924 7.422 4.234 10.5 5.048-2.107 1.185-4.628 3.198-7.27 5.452 4.74 2.913 8.426 2.662 12.116 2.423-3.599 3.029-4.238 6.058-5.25 9.086 3.133-.022 6.835.552 9.49-.605-2.627 4.846-3.03 6.778-3.634 10.096 3.838 1.49 6.955-1.345 10.298-2.827-1.637 3.5-2.133 7-1.616 10.5 3.91.696 7.656.661 10.5-3.433l17.164 4.644 20.798-5.451c9.298 6.11 8.557.598 7.875-4.847 5.788 4.577 8.615 3.5 8.48-3.23 2.838 1.075 4.97 3.795 9.29 1.413 4.563-2.348-1.083-6.155-3.434-9.49 6.529 1.256 9.215-1.636 9.895-4.846.857-4.053-2.88-5.239-5.25-6.462 4.227-.688 7.973-1.926 8.48-6.865.323-1.795-2.448-2.705-5.855-3.433 4.62-1.07 7.089-3.575 6.865-7.875-.19-3.096-3.75-2.15-6.462-2.221 6.211-4.208 7.648-9.658 6.462-13.731-.856-2.94-5.115.915-7.673 2.02 6.136-4.266 3.296-15.94.393-14.722-11.192 11.1-18.701 16.999-27.041 29.16-2.447 6.84 7.545 14.075-5.054 17.263l-16.356 3.23z" fill-opacity="1"></path><path fill-rule="evenodd" stroke="#333333" stroke-opacity="1" fill="none" stroke-linejoin="miter" stroke-linecap="round" stroke-width="1px" d="M30.288 157.702c5.211 7.178 8.993 10.447 14.74 13.327 6.374 4.565 4.244 16.46 5.655 24.836 3.106 10.172 12.327 9.438 16.961 9.087l25.039 1.211c15.74-4.686 9.66-15.647 11.37-24.722.575-3.051 2.792-5.937 6.159-8.212 5.05-3.444 12.317-9.037 12.76-13.71"></path><path fill-rule="evenodd" stroke="#333333" stroke-opacity="1" fill="none" stroke-linejoin="miter" stroke-linecap="butt" stroke-width="1px" d="M30.087 165.98L42 175.472M28.673 176.077l16.76 5.35M29.48 186.173l12.722.808M31.702 197.077l11.51-1.716M37.053 205.053l9.894-4.543M41.192 213.433l5.957-6.765M48.058 220.702l7.673-8.885M56.942 227.77l6.664-19.587M94.904 227.163l-5.856-12.72M102.779 222.317l-4.644-7.168M111.663 218.885l-6.562-8.481M117.115 210.808l-7.875-4.443M122.365 199.298l-8.985-1.01M125.192 189l-14.033 3.13M125.394 178.702l-10.399 8.178M124.385 166.587l-10.298 10.5"></path><path stroke-dasharray="none" fill-rule="evenodd" stroke="#333333" stroke-opacity="1" fill="none" stroke-linejoin="miter" stroke-linecap="round" stroke-width="1" d="M25.038 168l16.76 9.692" stroke-miterlimit="4"></path><path fill-rule="evenodd" stroke="#333333" stroke-opacity="1" fill="none" stroke-linejoin="miter" stroke-linecap="round" stroke-width="1px" d="M25.038 180.317l17.164 4.14M28.471 191.625l15.952.303M30.288 202.125l19.284-4.846M37.962 210.606l7.975-5.957M42.404 219.288l12.317-14.134M51.49 226.154l7.169-12.62M62.192 222.923l4.039-12.52"></path><path fill-rule="evenodd" stroke="#333333" stroke-opacity="1" fill="none" stroke-linejoin="miter" stroke-linecap="butt" stroke-width="1px" d="M63 226.76l5.25-9.087M91.673 226.962l-4.442-8.683"></path><path fill-rule="evenodd" stroke="#333333" stroke-opacity="1" fill="none" stroke-linejoin="miter" stroke-linecap="round" stroke-width="1px" d="M98.942 225.952l-5.654-12.115M107.221 220.096l-6.865-7.27M117.52 217.471L108.735 210M122.567 205.962c-6.461-1.146-13.327-3.568-19.788-6.866M124.99 193.644c-5.852 2.299-6.148 1.633-12.014 1.818M126.808 182.942c-4.952 3.173-7.902 4.563-12.318 6.664M125.394 171.23c-4.133 6.34-8.787 9.416-13.932 13.732"></path><path fill-rule="evenodd" stroke="#333333" stroke-opacity="1" fill="none" stroke-linejoin="miter" stroke-linecap="butt" stroke-width="1px" d="M46.846 173.452c-6.651.408-7.477 8.237 2.625 8.784-10.005.012-9.51 8.113.606 7.47-10.642 1.49-7.316 10.07.606 7.068-5.161 2.369-8.154 15.98 4.846 7.37-4.159 10.255 7.713 13.74 8.48 1.818l25.645 2.019c4.114 14.11 17.952 4.533 7.37-3.433.038.023 2.115 1.82 3.662 3.591 3.912 4.482 13.274 2.93 6.333-7.024.577 2.984 12.123-4.368 3.155-7.11-1.51-.463-2.803-.3-5.88-.159 15.759-1.113 13.278-13.96-.203-7.067 12.053-4.826 13.787-16.255 3.332-11.308M48.663 178.096l-4.442-.808M49.875 185.77l-5.25-.203M50.279 193.038l-4.644 1.616M52.702 200.106l-3.635 3.432M60.577 204.952L58.356 210M93.288 206.163l3.837 5.452M100.356 202.125l6.663 5.25M103.385 195.663l7.269 2.827M103.99 190.212l7.068-1.818M103.587 183.75l6.26-5.856"></path><path fill-rule="evenodd" stroke="#333333" stroke-opacity="1" fill="#333333" stroke-linejoin="miter" stroke-linecap="butt" stroke-width="1px" d="M72.087 242.308c-4.725 1.502-9.546 4.631-14.539 10.702l-4.038-4.039c3.265-2.297 6.601-4.478 9.086-8.077-9.595-2.694-8.787-22.955 6.866-14.942l17.365-.202c14.777-2.17 16.607 10.227 5.25 15.346-3.118 1.406 5.147 6.058 7.471 8.683l-6.865 7.27-1.919-1.414c.706-1.82 1.15-3.152 2.12-4.443-3.05-3.698-6.911-6.261-11.307-8.077z" fill-opacity="1"></path><path fill-rule="evenodd" stroke="#333333" stroke-opacity="1" fill="#333333" stroke-linejoin="miter" stroke-linecap="butt" stroke-width="1px" d="M99.376 266.5c-16.885.333-17.788-18.174-16.848-27.7 1.538-15.602 14.167-24.233 7.139-49.403-1.152-4.123-1.836-5.235 0-14.278 1.623-3.076-.306-4.628-3.998-5.426 3.807.429 5.936-3.34 8.281-6.568-7.512 1.098-10.643-2.735-15.706-3.475-4.585-.67-5.45-.76-7.104 3.155 1.246 3.845 4.077 6.38 2.82 7.46-3.21-1.264-7.185-1.762-11.136-2.285 3.258 8.343 14.037 3.06 8.852 17.134-4.734 5.527-8.737 19.05-5.711 31.697 4.46 13.125 6.885 14.088 5.997 22.845-.994 9.788-3.028 23.918-17.134 25.7 3.59 6.28 10.088 7.565 17.42 0-3.799 11.283-.374 17.08 4.568 20.561 2.379-4.037 9.595-3.634 5.391-20.511 4.171 12.395 18.18 4.502 17.169 1.093z" fill-opacity="1"></path><path fill-rule="evenodd" stroke="#333333" stroke-opacity="1" fill="none" stroke-linejoin="miter" stroke-linecap="butt" stroke-width="1px" d="M67.964 191.967c2.818 7.527 6.465 9.575 10.423 1.143 3.344 6.87 6.222 7.682 8.424-.286 1.375 6.477 4.476 6.368 3.427-.143M65.108 206.674c3.493 1.818 6.262.598 7.853-5.569 1.16 9.229 9.422 7.787 10.423-.142.215 8.895 4.158 8.8 8.282 3.855M65.394 213.956c1.855 2.372 3.42 2.43 4.14-4.284-.126 9.403 5.985 10.573 8.282 1 .466 8.174 6.73 10.286 8.281-.143.662 3.582 1.956 5.267 4.14 4.283"></path><path fill-rule="evenodd" stroke="#333333" stroke-opacity="1" fill="none" stroke-linejoin="miter" stroke-linecap="butt" stroke-width="1px" d="M68.535 223.665c3.902 2.115 5.062-.647 5.568-4.57 2.183 8.992 4.913 7.025 7.853.857 1.16 3.303 2.649 5.12 4.57 4.998M72.087 233.221c3.694.515 4.563-2.926 5.653-6.058.882 4.162 2.115 7.69 5.654 7.068M81.375 234.433c-2.2 8.593-6.651 5.525-7.27-1.212"></path><path fill-rule="evenodd" stroke="#333333" stroke-opacity="1" fill="none" stroke-linejoin="miter" stroke-linecap="butt" stroke-width="1px" d="M71.48 243.52c1.558.702 3.428.154 6.058-3.433 1.549 1.882 3.097 4.952 4.645 3.836M74.308 243.317c1.408 2.108 3.002 6.402 5.855.202"></path><path fill-rule="evenodd" stroke="#333333" stroke-opacity="1" fill="none" stroke-linejoin="miter" stroke-linecap="round" stroke-width="1px" d="M76.327 255.837l.202 29.48M74.51 247.356c-3.412 16.718-8.812 18.519-14.337 19.384M79.76 247.558c1.355 11.14 1.903 18.847 14.942 21.404M81.779 205.356v8.48M74.308 205.154l-.808 6.461M78.346 194.048l-.202 8.683M86.625 193.846l1.01 8.885M69.319 195.023l-.867 7.304M70.067 214.275l-.202 5.215"></path><path fill-rule="evenodd" stroke="#333333" stroke-opacity="1" fill="none" stroke-linejoin="miter" stroke-linecap="butt" stroke-width="1px" d="M78.085 213.265l-.547 8.245"></path><path fill-rule="evenodd" stroke="#333333" stroke-opacity="1" fill="none" stroke-linejoin="miter" stroke-linecap="round" stroke-width="1px" d="M86.221 212.625l-.202 9.288M81.98 221.308v8.077M74.106 220.298l.202 9.692M77.942 227.971l.202 8.48M88.989 207.542l.665 3.266M66.896 207.601l-.261 5.024"></path><path fill-rule="evenodd" stroke="#333333" stroke-opacity="1" fill="#333333" stroke-linejoin="round" stroke-linecap="round" stroke-width="1px" d="M92.446 165.459c-2.72 1.02-6.811-1.508-10.5-2.423 3.109 1.365 7.373 3.554 9.49 3.432z" fill-opacity="1"></path><path fill-rule="evenodd" stroke="#333333" stroke-opacity="1" fill="none" stroke-linejoin="miter" stroke-linecap="butt" stroke-width="1px" d="M81.956 165.696c-3.2-1.027-6-4.233-8.852-1.428M73.532 163.697c1.14 4.079 3.34 3.654 5.997 1.285"></path><circle stroke-dasharray="none" fill-rule="nonzero" r=".643" stroke="#333333" stroke-opacity="1" fill="#333333" stroke-linejoin="round" stroke-dashoffset="0" stroke-linecap="round" stroke-width="1" opacity=".99" cx="74.746" cy="164.625" stroke-miterlimit="4" fill-opacity="1"></circle><path fill-rule="evenodd" stroke="#333333" stroke-opacity="1" fill="#333333" stroke-linejoin="miter" stroke-linecap="butt" stroke-width="1px" d="M71.279 162.952c-7.67-3.538-13.11-2.39-12.721 4.846 1.669-.196 3.412-2.084 7.47.606l1.01.151c-.01-.054 4.515.747 6.916 1.565.388.132-.083-.916-.303-1.262-1.006-1.586-2.442-5.871-2.372-5.906z" fill-opacity="1"></path><path stroke-dasharray="none" fill-rule="evenodd" stroke="#333333" stroke-opacity="1" fill="none" stroke-linejoin="round" stroke-linecap="round" stroke-width=".6" d="M74.96 191.11l-.714 3.57M82.528 193.68l-.286-4.283M84.812 191.11c.006-1.064-.196-2.75-.571-4.568M83.099 183.4v-2.57M83.241 178.403l.143-1.57M85.954 185.114c.083-1.25.148-2.518-.143-4.14M85.669 179.117c.13-1.523-.039-3.046-.286-4.569M73.773 179.319c.568-1.235 2.185-5.732-1.56-8.907M76.53 182.258l.286-3.712M87.668 190.825c-.35-1.471-.622-2.902-1.714-3.998M87.382 174.548c.156-2.111-.749-2.81-1.713-3.427M78.53 175.69c-1.137-1.924-2.68-1.995-4.19-2.427M81.242 172.549c-1.418-1.695-3.207-2.276-4.997-2.856M81.385 168.694c-1.194 1.08-2.713 1.19-4.283 1.142M70.067 195.058l1.414-3.03M80.567 190.413v-3.23M77.74 189v-1.615" stroke-miterlimit="4"></path><path stroke-dasharray="none" fill-rule="evenodd" stroke="#333333" stroke-opacity="1" fill="none" stroke-linejoin="miter" stroke-linecap="round" stroke-width=".6" d="M74.308 170.221c-3.621-3.213-6.369-5.914-9.895-5.856M80.957 268.355c.864 5.402.915 10.236-1.999 12.993" stroke-miterlimit="4"></path><path fill-rule="evenodd" stroke="#333333" stroke-opacity="1" fill="none" stroke-linejoin="miter" stroke-linecap="butt" stroke-width="1px" d="M56.538 232.716c5.773.884 5.428-2.893 5.755-6.158 2.686 7.249 8.124 3.314 7.673.1M71.986 238.673c-2.93 2.847-5.55 2.899-7.673-1.514"></path><path fill-rule="evenodd" stroke="#333333" stroke-opacity="1" fill="none" stroke-linejoin="miter" stroke-linecap="butt" stroke-width="1px" d="M59.063 238.37c2.131-.203 1.492-1.945 1.312-3.432 2.71 3.966 6.197 2.108 5.048-1.818 2.213 3.291 4.212 1.874 6.159-.707"></path><path fill-rule="evenodd" stroke="#333333" stroke-opacity="1" fill="none" stroke-linejoin="miter" stroke-linecap="round" stroke-width="1px" d="M61.183 231.505l2.22 2.625M66.938 230.394l1.615 2.221M68.25 234.938l.303 3.533"></path><path fill-rule="evenodd" stroke="#333333" stroke-opacity="1" fill="none" stroke-linejoin="miter" stroke-linecap="butt" stroke-width="1px" d="M98.538 235.038c-3.562 1.192-7.58-.709-5.956-5.25-3.97 4.44-5.562 1.744-7.169-.908"></path><path fill-rule="evenodd" stroke="#333333" stroke-opacity="1" fill="none" stroke-linejoin="miter" stroke-linecap="butt" stroke-width="1px" d="M83.293 234.23c1.903 2.75 3.444-1.242 5.351-2.018-3.11 3.543-1.309 8.408 2.827 3.836-1.466 3.628-.732 5.108 4.24 2.827"></path><path fill-rule="evenodd" stroke="#333333" stroke-opacity="1" fill="none" stroke-linejoin="miter" stroke-linecap="butt" stroke-width="1px" d="M91.774 243.52c-5.002.377-4.64-2.278-3.534-5.352-1.598 3.335-3.622 3.258-5.754 2.322"></path><path fill-rule="evenodd" stroke="#333333" stroke-opacity="1" fill="none" stroke-linejoin="miter" stroke-linecap="round" stroke-width="1px" d="M87.029 235.14l-2.221 3.634M90.663 239.178l-1.11 2.12M91.976 231.303l-2.827 3.836M94.904 235.442l-2.02 2.221M96.216 232.313l-.706-2.323M89.048 229.89l.909-2.02"></path><path stroke-dasharray="none" fill-rule="evenodd" stroke="#333333" stroke-opacity="1" fill="none" stroke-linejoin="miter" stroke-linecap="round" stroke-width=".6" d="M66.635 243.317l-4.342-.505M63.505 245.841l-2.928-.605M60.678 247.76l-2.524-.505M92.545 245.668l-4.33-.6" stroke-miterlimit="4"></path><path fill-rule="evenodd" stroke="#333333" stroke-opacity="1" fill="#333333" stroke-linejoin="miter" stroke-linecap="butt" stroke-width="1px" d="M88.667 259.788l21.132-27.7-5.569-4.283 3.713-4.711 5.14 4.426 4.854-6.71 3.998 3.283-5.14 6.425 5.854 4.284-3.141 4.283-5.711-4.426-20.56 28.842z" fill-opacity="1"></path><path stroke-dasharray="none" fill-rule="evenodd" stroke="#333333" stroke-opacity="1" fill="none" stroke-linejoin="miter" stroke-linecap="round" stroke-width=".6" d="M96.208 248.39l-4.329-.6" stroke-miterlimit="4"></path><rect y="120.056" stroke-dasharray="none" fill-rule="nonzero" stroke="#333333" transform="matrix(.65304 .75733 -.77093 .63692 0 0)" stroke-opacity="1" fill="#333333" stroke-linejoin="round" width="3.482" stroke-dashoffset="0" stroke-linecap="round" stroke-width=".975522" opacity=".99" stroke-miterlimit="4" x="222.993" ry="1.741" fill-opacity="1" height="10.053"></rect><ellipse stroke-dasharray="none" fill-rule="nonzero" rx="2.641" stroke="#333333" transform="matrix(1.12956 0 0 1.2165 -6.602 -57.264)" stroke-opacity="1" fill="#333333" stroke-linejoin="round" stroke-dashoffset="0" stroke-linecap="round" stroke-width="1" opacity=".99" cx="56.47" cy="260.217" stroke-miterlimit="4" ry="2.57" fill-opacity="1"></ellipse><rect y="117.544" stroke-dasharray="none" fill-rule="nonzero" stroke="#333333" transform="rotate(49.758) skewX(-.152)" stroke-opacity="1" fill="#333333" stroke-linejoin="round" width="4.147" stroke-dashoffset="0" stroke-linecap="round" stroke-width="1.15988" opacity=".99" stroke-miterlimit="4" x="225.086" ry="2.067" fill-opacity="1" height="11.934"></rect><rect y="120.529" stroke-dasharray="none" fill-rule="nonzero" stroke="#333333" transform="matrix(.65494 .75568 -.77252 .635 0 0)" stroke-opacity="1" fill="#333333" stroke-linejoin="round" width="3.836" stroke-dashoffset="0" stroke-linecap="round" stroke-width="1.07511" opacity=".99" stroke-miterlimit="4" x="230.826" ry="1.92" fill-opacity="1" height="11.084"></rect><rect y="232.369" stroke-dasharray="none" fill-rule="nonzero" stroke="#333333" transform="matrix(-.64134 .76725 .76109 .64865 0 0)" stroke-opacity="1" fill="#333333" stroke-linejoin="round" width="3.441" stroke-dashoffset="0" stroke-linecap="round" stroke-width=".961441" opacity=".99" stroke-miterlimit="4" x="124.567" ry="1.711" fill-opacity="1" height="9.882"></rect><rect y="230.837" stroke-dasharray="none" fill-rule="nonzero" stroke="#333333" transform="matrix(-.63427 .77311 .75506 .65565 0 0)" stroke-opacity="1" fill="#333333" stroke-linejoin="round" width="4.099" stroke-dashoffset="0" stroke-linecap="round" stroke-width="1.14346" opacity=".99" stroke-miterlimit="4" x="125.62" ry="2.032" fill-opacity="1" height="11.734"></rect><rect y="232.583" stroke-dasharray="none" fill-rule="nonzero" stroke="#333333" transform="matrix(-.64327 .76564 .76272 .64673 0 0)" stroke-opacity="1" fill="#333333" stroke-linejoin="round" width="3.79" stroke-dashoffset="0" stroke-linecap="round" stroke-width="1.05951" opacity=".99" stroke-miterlimit="4" x="132.578" ry="1.887" fill-opacity="1" height="10.894"></rect><path fill-rule="evenodd" stroke="#333333" stroke-opacity="1" fill="#333333" stroke-linejoin="miter" stroke-linecap="butt" stroke-width="1px" d="M18.27 198.03c8.48 5.805 2.08-1.1 31.594 44.253l-4.86 3.35c-12.074-17.556-27.852-39.797-26.735-47.603z" fill-opacity="1"></path><rect y="227.315" stroke-dasharray="none" fill-rule="nonzero" stroke="#333333" transform="matrix(.83065 -.5568 .59462 .80401 0 0)" stroke-opacity="1" fill="#333333" stroke-linejoin="round" width="15.335" stroke-dashoffset="0" stroke-linecap="round" stroke-width="1.00054" opacity=".99" stroke-miterlimit="4" x="-115.152" ry=".49" fill-opacity="1" height="6.857"></rect><ellipse stroke-dasharray="none" fill-rule="nonzero" rx=".143" stroke="#333333" transform="matrix(.20212 .26299 -.46932 .41712 176.31 138.523)" stroke-opacity="1" fill="#333333" stroke-linejoin="round" stroke-dashoffset="0" stroke-linecap="round" stroke-width="3" opacity=".99" cx="9.995" cy="261.073" stroke-miterlimit="4" ry=".999" fill-opacity="1"></ellipse><ellipse stroke-dasharray="none" fill-rule="nonzero" rx=".143" stroke="#333333" transform="matrix(-.16953 .26553 .39365 .42114 -9.468 141.247)" stroke-opacity="1" fill="#333333" stroke-linejoin="round" stroke-dashoffset="0" stroke-linecap="round" stroke-width="3" opacity=".99" cx="9.995" cy="261.073" stroke-miterlimit="4" ry=".999" fill-opacity="1"></ellipse><path stroke-dasharray="none" fill-rule="evenodd" stroke="#333333" stroke-opacity="1" fill="none" stroke-linejoin="miter" stroke-linecap="round" stroke-width=".6" d="M47.403 251.079l.857 1M49.402 254.363l.714 1M51.972 257.076l1.143 1.142M101.946 251.507l-.714 1.428M100.232 255.22l-.714 1.142M97.948 258.36l-1 1.143" stroke-miterlimit="4"></path><ellipse stroke-dasharray="none" fill-rule="nonzero" rx=".143" stroke="#333333" transform="matrix(.20212 .26299 -.46932 .41712 179.165 141.584)" stroke-opacity="1" fill="#333333" stroke-linejoin="round" stroke-dashoffset="0" stroke-linecap="round" stroke-width="3" opacity=".99" cx="9.995" cy="261.073" stroke-miterlimit="4" ry=".999" fill-opacity="1"></ellipse><ellipse stroke-dasharray="none" fill-rule="nonzero" rx=".143" stroke="#333333" transform="matrix(.20212 .26299 -.46932 .41712 174.016 135.627)" stroke-opacity="1" fill="#333333" stroke-linejoin="round" stroke-dashoffset="0" stroke-linecap="round" stroke-width="3" opacity=".99" cx="9.995" cy="261.073" stroke-miterlimit="4" ry=".999" fill-opacity="1"></ellipse><ellipse stroke-dasharray="none" fill-rule="nonzero" rx=".143" stroke="#333333" transform="matrix(-.16953 .26553 .39365 .42114 -7.083 137.58)" stroke-opacity="1" fill="#333333" stroke-linejoin="round" stroke-dashoffset="0" stroke-linecap="round" stroke-width="3" opacity=".99" cx="9.995" cy="261.073" stroke-miterlimit="4" ry=".999" fill-opacity="1"></ellipse><ellipse stroke-dasharray="none" fill-rule="nonzero" rx=".143" stroke="#333333" transform="matrix(-.16953 .26553 .39365 .42114 -4.559 135.157)" stroke-opacity="1" fill="#333333" stroke-linejoin="round" stroke-dashoffset="0" stroke-linecap="round" stroke-width="3" opacity=".99" cx="9.995" cy="261.073" stroke-miterlimit="4" ry=".999" fill-opacity="1"></ellipse><path stroke-dasharray="none" fill-rule="evenodd" stroke="#333333" stroke-opacity="1" fill="none" stroke-linejoin="miter" stroke-linecap="round" stroke-width=".6" d="M48.332 250.248l.857 1M50.33 253.532l.715 1M52.9 256.245l1.143 1.142M101.037 250.627l-.714 1.428M99.324 254.34l-.714 1.142M97.04 257.48l-1 1.143" stroke-miterlimit="4"></path></g></g></g></g></g></g></g></g></g></g></svg>