<svg viewBox="-10 -10 1020 1219.3587" xmlns="http://www.w3.org/2000/svg" xmlns:xlink="http://www.w3.org/1999/xlink" version="1.1" width="1020" height="1219.3587"><style></style><g transform="translate(500,599.67935)scale(10,10)translate(-50,-59.967935)" style="transition:transform 0.5s"><g><g></g></g><g transform="translate(0,0)" style="transition:transform 0.5s"></g><g style="transition:transform 0.5s"><g><metadata xmlns:rdf="http://www.w3.org/1999/02/22-rdf-syntax-ns#" xmlns:cc="http://creativecommons.org/ns#" xmlns:dc="http://purl.org/dc/elements/1.1/"><rdf:RDF><rdf:Description dc:title="Druma" dc:creator="kosen"></rdf:Description><cc:Work rdf:about="https://heraldicon.org/arms/lF03lC/1"><cc:license rdf:resource="private"></cc:license><cc:attributionName>Druma by kosen</cc:attributionName><cc:attributionURL rdf:resource="https://heraldicon.org/users/kosen"></cc:attributionURL></cc:Work><cc:License rdf:about="private"></cc:License></rdf:RDF></metadata><defs><pattern width="20" height="20" patternUnits="userSpaceOnUse" id="void"><rect x="0" y="0" width="20" height="20" fill="#fff" class="light"></rect><rect x="0" y="0" width="10" height="10" fill="#ddd" class="dark"></rect><rect x="10" y="10" width="10" height="10" fill="#ddd" class="dark"></rect></pattern><pattern width="4" height="4" patternUnits="userSpaceOnUse" id="selected"><rect x="0" y="0" width="4" height="4" fill="#f5f5f5"></rect><g fill="#000"><circle cx="0" cy="0" r="0.3"></circle><circle cx="4" cy="0" r="0.3"></circle><circle cx="0" cy="4" r="0.3"></circle><circle cx="4" cy="4" r="0.3"></circle><circle cx="2" cy="2" r="0.3"></circle></g></pattern><pattern id="ermine" width="12.5" height="20" patternUnits="userSpaceOnUse" x="-3.125" y="-5"><rect x="0" y="0" width="12.5" height="20" fill="#f6f6f6"></rect><g fill="#333333"><path d="M 47.757634,0 C 60.324696,15.689314 25.136924,21.898666 44.167046,36.607392
    52.24587,41.673746 71.273896,30.723464 54.57765,17.322176
    52.423302,16.178163 62.11999,8.3349512 47.757634,0 Z m 21.182372,36.935142 c
    -3.23154,0.326846 -6.282816,2.290268 -9.155302,7.193166 -3.590588,8.33495
    12.209402,22.716724 22.98117,5.06625 C 83.483996,47.069952 94.0755,53.93163
    100,39.386326 89.946316,49.845864 79.713166,37.425428 70.377642,36.935142 Z
    M 29.80469,37.099022 C 20.469164,37.58931 10.053647,50.173186 0,39.55021
    5.9244804,54.095512 16.51881,47.070414 17.416458,49.358438 28.0087,67.008916
    43.805884,52.627142 40.215296,44.292192 36.983772,38.73555 33.395278,36.9356
    29.80469,37.099026 Z m 21.003542,10.13249 c -8.25835,37.262136
    -23.51556,63.576958 -40.211787,82.534868 7.001653,-1.96117
    14.718613,-7.19213 22.258843,-11.93164 -4.667764,9.80582 -9.154602,18.14082
    -13.822364,26.80264 2.692942,-0.98059 11.489886,-9.64435 23.338826,-22.3919
    1.795296,17.48703 4.305204,25.8241 8.07532,37.75452 3.052012,-11.93042
    5.208468,-19.9411 7.54234,-37.9184 7.181178,8.00805 14.001888,16.17984
    23.696484,23.04393 L 68.221186,117.34659 c 7.001634,4.41265
    14.72282,10.29262 22.083522,12.74406 C 72.710832,110.15215
    57.989412,84.493648 50.808232,47.231516 Z" transform="scale(0.0625,0.0625)"></path><path d="M 47.757634,0 C 60.324696,15.689314 25.136924,21.898666 44.167046,36.607392
    52.24587,41.673746 71.273896,30.723464 54.57765,17.322176
    52.423302,16.178163 62.11999,8.3349512 47.757634,0 Z m 21.182372,36.935142 c
    -3.23154,0.326846 -6.282816,2.290268 -9.155302,7.193166 -3.590588,8.33495
    12.209402,22.716724 22.98117,5.06625 C 83.483996,47.069952 94.0755,53.93163
    100,39.386326 89.946316,49.845864 79.713166,37.425428 70.377642,36.935142 Z
    M 29.80469,37.099022 C 20.469164,37.58931 10.053647,50.173186 0,39.55021
    5.9244804,54.095512 16.51881,47.070414 17.416458,49.358438 28.0087,67.008916
    43.805884,52.627142 40.215296,44.292192 36.983772,38.73555 33.395278,36.9356
    29.80469,37.099026 Z m 21.003542,10.13249 c -8.25835,37.262136
    -23.51556,63.576958 -40.211787,82.534868 7.001653,-1.96117
    14.718613,-7.19213 22.258843,-11.93164 -4.667764,9.80582 -9.154602,18.14082
    -13.822364,26.80264 2.692942,-0.98059 11.489886,-9.64435 23.338826,-22.3919
    1.795296,17.48703 4.305204,25.8241 8.07532,37.75452 3.052012,-11.93042
    5.208468,-19.9411 7.54234,-37.9184 7.181178,8.00805 14.001888,16.17984
    23.696484,23.04393 L 68.221186,117.34659 c 7.001634,4.41265
    14.72282,10.29262 22.083522,12.74406 C 72.710832,110.15215
    57.989412,84.493648 50.808232,47.231516 Z" transform="translate(6.25,10) scale(0.0625,0.0625)"></path></g></pattern><pattern id="ermines" width="12.5" height="20" patternUnits="userSpaceOnUse" x="-3.125" y="-5"><rect x="0" y="0" width="12.5" height="20" fill="#333333"></rect><g fill="#f6f6f6"><path d="M 47.757634,0 C 60.324696,15.689314 25.136924,21.898666 44.167046,36.607392
    52.24587,41.673746 71.273896,30.723464 54.57765,17.322176
    52.423302,16.178163 62.11999,8.3349512 47.757634,0 Z m 21.182372,36.935142 c
    -3.23154,0.326846 -6.282816,2.290268 -9.155302,7.193166 -3.590588,8.33495
    12.209402,22.716724 22.98117,5.06625 C 83.483996,47.069952 94.0755,53.93163
    100,39.386326 89.946316,49.845864 79.713166,37.425428 70.377642,36.935142 Z
    M 29.80469,37.099022 C 20.469164,37.58931 10.053647,50.173186 0,39.55021
    5.9244804,54.095512 16.51881,47.070414 17.416458,49.358438 28.0087,67.008916
    43.805884,52.627142 40.215296,44.292192 36.983772,38.73555 33.395278,36.9356
    29.80469,37.099026 Z m 21.003542,10.13249 c -8.25835,37.262136
    -23.51556,63.576958 -40.211787,82.534868 7.001653,-1.96117
    14.718613,-7.19213 22.258843,-11.93164 -4.667764,9.80582 -9.154602,18.14082
    -13.822364,26.80264 2.692942,-0.98059 11.489886,-9.64435 23.338826,-22.3919
    1.795296,17.48703 4.305204,25.8241 8.07532,37.75452 3.052012,-11.93042
    5.208468,-19.9411 7.54234,-37.9184 7.181178,8.00805 14.001888,16.17984
    23.696484,23.04393 L 68.221186,117.34659 c 7.001634,4.41265
    14.72282,10.29262 22.083522,12.74406 C 72.710832,110.15215
    57.989412,84.493648 50.808232,47.231516 Z" transform="scale(0.0625,0.0625)"></path><path d="M 47.757634,0 C 60.324696,15.689314 25.136924,21.898666 44.167046,36.607392
    52.24587,41.673746 71.273896,30.723464 54.57765,17.322176
    52.423302,16.178163 62.11999,8.3349512 47.757634,0 Z m 21.182372,36.935142 c
    -3.23154,0.326846 -6.282816,2.290268 -9.155302,7.193166 -3.590588,8.33495
    12.209402,22.716724 22.98117,5.06625 C 83.483996,47.069952 94.0755,53.93163
    100,39.386326 89.946316,49.845864 79.713166,37.425428 70.377642,36.935142 Z
    M 29.80469,37.099022 C 20.469164,37.58931 10.053647,50.173186 0,39.55021
    5.9244804,54.095512 16.51881,47.070414 17.416458,49.358438 28.0087,67.008916
    43.805884,52.627142 40.215296,44.292192 36.983772,38.73555 33.395278,36.9356
    29.80469,37.099026 Z m 21.003542,10.13249 c -8.25835,37.262136
    -23.51556,63.576958 -40.211787,82.534868 7.001653,-1.96117
    14.718613,-7.19213 22.258843,-11.93164 -4.667764,9.80582 -9.154602,18.14082
    -13.822364,26.80264 2.692942,-0.98059 11.489886,-9.64435 23.338826,-22.3919
    1.795296,17.48703 4.305204,25.8241 8.07532,37.75452 3.052012,-11.93042
    5.208468,-19.9411 7.54234,-37.9184 7.181178,8.00805 14.001888,16.17984
    23.696484,23.04393 L 68.221186,117.34659 c 7.001634,4.41265
    14.72282,10.29262 22.083522,12.74406 C 72.710832,110.15215
    57.989412,84.493648 50.808232,47.231516 Z" transform="translate(6.25,10) scale(0.0625,0.0625)"></path></g></pattern><pattern id="erminois" width="12.5" height="20" patternUnits="userSpaceOnUse" x="-3.125" y="-5"><rect x="0" y="0" width="12.5" height="20" fill="#f2bc51"></rect><g fill="#333333"><path d="M 47.757634,0 C 60.324696,15.689314 25.136924,21.898666 44.167046,36.607392
    52.24587,41.673746 71.273896,30.723464 54.57765,17.322176
    52.423302,16.178163 62.11999,8.3349512 47.757634,0 Z m 21.182372,36.935142 c
    -3.23154,0.326846 -6.282816,2.290268 -9.155302,7.193166 -3.590588,8.33495
    12.209402,22.716724 22.98117,5.06625 C 83.483996,47.069952 94.0755,53.93163
    100,39.386326 89.946316,49.845864 79.713166,37.425428 70.377642,36.935142 Z
    M 29.80469,37.099022 C 20.469164,37.58931 10.053647,50.173186 0,39.55021
    5.9244804,54.095512 16.51881,47.070414 17.416458,49.358438 28.0087,67.008916
    43.805884,52.627142 40.215296,44.292192 36.983772,38.73555 33.395278,36.9356
    29.80469,37.099026 Z m 21.003542,10.13249 c -8.25835,37.262136
    -23.51556,63.576958 -40.211787,82.534868 7.001653,-1.96117
    14.718613,-7.19213 22.258843,-11.93164 -4.667764,9.80582 -9.154602,18.14082
    -13.822364,26.80264 2.692942,-0.98059 11.489886,-9.64435 23.338826,-22.3919
    1.795296,17.48703 4.305204,25.8241 8.07532,37.75452 3.052012,-11.93042
    5.208468,-19.9411 7.54234,-37.9184 7.181178,8.00805 14.001888,16.17984
    23.696484,23.04393 L 68.221186,117.34659 c 7.001634,4.41265
    14.72282,10.29262 22.083522,12.74406 C 72.710832,110.15215
    57.989412,84.493648 50.808232,47.231516 Z" transform="scale(0.0625,0.0625)"></path><path d="M 47.757634,0 C 60.324696,15.689314 25.136924,21.898666 44.167046,36.607392
    52.24587,41.673746 71.273896,30.723464 54.57765,17.322176
    52.423302,16.178163 62.11999,8.3349512 47.757634,0 Z m 21.182372,36.935142 c
    -3.23154,0.326846 -6.282816,2.290268 -9.155302,7.193166 -3.590588,8.33495
    12.209402,22.716724 22.98117,5.06625 C 83.483996,47.069952 94.0755,53.93163
    100,39.386326 89.946316,49.845864 79.713166,37.425428 70.377642,36.935142 Z
    M 29.80469,37.099022 C 20.469164,37.58931 10.053647,50.173186 0,39.55021
    5.9244804,54.095512 16.51881,47.070414 17.416458,49.358438 28.0087,67.008916
    43.805884,52.627142 40.215296,44.292192 36.983772,38.73555 33.395278,36.9356
    29.80469,37.099026 Z m 21.003542,10.13249 c -8.25835,37.262136
    -23.51556,63.576958 -40.211787,82.534868 7.001653,-1.96117
    14.718613,-7.19213 22.258843,-11.93164 -4.667764,9.80582 -9.154602,18.14082
    -13.822364,26.80264 2.692942,-0.98059 11.489886,-9.64435 23.338826,-22.3919
    1.795296,17.48703 4.305204,25.8241 8.07532,37.75452 3.052012,-11.93042
    5.208468,-19.9411 7.54234,-37.9184 7.181178,8.00805 14.001888,16.17984
    23.696484,23.04393 L 68.221186,117.34659 c 7.001634,4.41265
    14.72282,10.29262 22.083522,12.74406 C 72.710832,110.15215
    57.989412,84.493648 50.808232,47.231516 Z" transform="translate(6.25,10) scale(0.0625,0.0625)"></path></g></pattern><pattern id="pean" width="12.5" height="20" patternUnits="userSpaceOnUse" x="-3.125" y="-5"><rect x="0" y="0" width="12.5" height="20" fill="#333333"></rect><g fill="#f2bc51"><path d="M 47.757634,0 C 60.324696,15.689314 25.136924,21.898666 44.167046,36.607392
    52.24587,41.673746 71.273896,30.723464 54.57765,17.322176
    52.423302,16.178163 62.11999,8.3349512 47.757634,0 Z m 21.182372,36.935142 c
    -3.23154,0.326846 -6.282816,2.290268 -9.155302,7.193166 -3.590588,8.33495
    12.209402,22.716724 22.98117,5.06625 C 83.483996,47.069952 94.0755,53.93163
    100,39.386326 89.946316,49.845864 79.713166,37.425428 70.377642,36.935142 Z
    M 29.80469,37.099022 C 20.469164,37.58931 10.053647,50.173186 0,39.55021
    5.9244804,54.095512 16.51881,47.070414 17.416458,49.358438 28.0087,67.008916
    43.805884,52.627142 40.215296,44.292192 36.983772,38.73555 33.395278,36.9356
    29.80469,37.099026 Z m 21.003542,10.13249 c -8.25835,37.262136
    -23.51556,63.576958 -40.211787,82.534868 7.001653,-1.96117
    14.718613,-7.19213 22.258843,-11.93164 -4.667764,9.80582 -9.154602,18.14082
    -13.822364,26.80264 2.692942,-0.98059 11.489886,-9.64435 23.338826,-22.3919
    1.795296,17.48703 4.305204,25.8241 8.07532,37.75452 3.052012,-11.93042
    5.208468,-19.9411 7.54234,-37.9184 7.181178,8.00805 14.001888,16.17984
    23.696484,23.04393 L 68.221186,117.34659 c 7.001634,4.41265
    14.72282,10.29262 22.083522,12.74406 C 72.710832,110.15215
    57.989412,84.493648 50.808232,47.231516 Z" transform="scale(0.0625,0.0625)"></path><path d="M 47.757634,0 C 60.324696,15.689314 25.136924,21.898666 44.167046,36.607392
    52.24587,41.673746 71.273896,30.723464 54.57765,17.322176
    52.423302,16.178163 62.11999,8.3349512 47.757634,0 Z m 21.182372,36.935142 c
    -3.23154,0.326846 -6.282816,2.290268 -9.155302,7.193166 -3.590588,8.33495
    12.209402,22.716724 22.98117,5.06625 C 83.483996,47.069952 94.0755,53.93163
    100,39.386326 89.946316,49.845864 79.713166,37.425428 70.377642,36.935142 Z
    M 29.80469,37.099022 C 20.469164,37.58931 10.053647,50.173186 0,39.55021
    5.9244804,54.095512 16.51881,47.070414 17.416458,49.358438 28.0087,67.008916
    43.805884,52.627142 40.215296,44.292192 36.983772,38.73555 33.395278,36.9356
    29.80469,37.099026 Z m 21.003542,10.13249 c -8.25835,37.262136
    -23.51556,63.576958 -40.211787,82.534868 7.001653,-1.96117
    14.718613,-7.19213 22.258843,-11.93164 -4.667764,9.80582 -9.154602,18.14082
    -13.822364,26.80264 2.692942,-0.98059 11.489886,-9.64435 23.338826,-22.3919
    1.795296,17.48703 4.305204,25.8241 8.07532,37.75452 3.052012,-11.93042
    5.208468,-19.9411 7.54234,-37.9184 7.181178,8.00805 14.001888,16.17984
    23.696484,23.04393 L 68.221186,117.34659 c 7.001634,4.41265
    14.72282,10.29262 22.083522,12.74406 C 72.710832,110.15215
    57.989412,84.493648 50.808232,47.231516 Z" transform="translate(6.25,10) scale(0.0625,0.0625)"></path></g></pattern></defs><defs><mask id="mask_3"><path d="M50,0h50v33.33333c0,35.72656 -19.05989,68.73926 -50,86.60254c-30.94011,-17.86328 -50,-50.87598 -50,-86.60254v-33.33333z" clip-rule="evenodd" fill-rule="evenodd" fill="#fff" stroke="none"></path></mask></defs><g mask="url(#mask_3)"><g><g><path d="M50,0h50v33.33333c0,35.72656 -19.05989,68.73926 -50,86.60254c-30.94011,-17.86328 -50,-50.87598 -50,-86.60254v-33.33333z" fill-rule="evenodd" fill="#f0f0f0"></path><g><g><defs><mask id="clip_6"><path d="M 47.00160325000001,-23.987173999999822 l0,2.9984l5.99679,0l0,5.99679h-5.99679l0,2.9984l0,2.9984h5.99679v5.99679h-5.99679l0,2.9984l0,2.9984h5.99679v5.99679h-5.99679l0,2.9984l0,2.9984h5.99679v5.99679h-5.99679l0,2.9984l0,2.9984h5.99679v5.99679h-5.99679l0,2.9984l0,2.9984h5.99679l0,5.99679h-5.99679l0,2.9984l0,2.9984h5.99679l0,5.99679h-5.99679l0,2.9984l0,2.9984h5.99679v5.99679h-5.99679l0,2.9984l0,2.9984h5.99679v5.99679h-5.99679l0,2.9984l0,2.9984h5.99679v5.99679h-5.99679l0,2.9984l0,2.9984h5.99679l0,5.99679h-5.99679l0,2.9984l0,2.9984h5.99679l0,5.99679h-5.99679l0,2.9984l0,2.9984h5.99679l0,5.99679h-5.99679l0,2.9984l0,2.9984h5.99679v5.99679h-5.99679l0,2.9984l0,2.9984h5.99679v5.99679h-5.99679l0,2.9984 L 196.23622374829546,635.0141573255338 A 600 600 0 1 1 177.10206494891307,-520.4327539072053 L 47.00160325000001,-23.987173999999822 z" clip-rule="evenodd" fill-rule="evenodd" fill="#fff" stroke="#fff" stroke-width="0.1"></path></mask></defs><g mask="url(#clip_6)"><g><rect y="-1000" fill="#f6f6f6" width="2000" x="-1000" height="2000"></rect><g></g></g></g></g><g><defs><mask id="clip_7"><path d="M 47.00160325000001,-23.987173999999822 l0,2.9984l5.99679,0l0,5.99679h-5.99679l0,2.9984l0,2.9984h5.99679v5.99679h-5.99679l0,2.9984l0,2.9984h5.99679v5.99679h-5.99679l0,2.9984l0,2.9984h5.99679v5.99679h-5.99679l0,2.9984l0,2.9984h5.99679v5.99679h-5.99679l0,2.9984l0,2.9984h5.99679l0,5.99679h-5.99679l0,2.9984l0,2.9984h5.99679l0,5.99679h-5.99679l0,2.9984l0,2.9984h5.99679v5.99679h-5.99679l0,2.9984l0,2.9984h5.99679v5.99679h-5.99679l0,2.9984l0,2.9984h5.99679v5.99679h-5.99679l0,2.9984l0,2.9984h5.99679l0,5.99679h-5.99679l0,2.9984l0,2.9984h5.99679l0,5.99679h-5.99679l0,2.9984l0,2.9984h5.99679l0,5.99679h-5.99679l0,2.9984l0,2.9984h5.99679v5.99679h-5.99679l0,2.9984l0,2.9984h5.99679v5.99679h-5.99679l0,2.9984 L -96.23622374829546,635.0141573255338 A 600 600 0 1 0 -114.81817444723998,-509.2148638764572 L 47.00160325000001,-23.987173999999822 z" clip-rule="evenodd" fill-rule="evenodd" fill="#fff"></path></mask></defs><g mask="url(#clip_7)"><g><rect y="-1000" fill="#f2bc51" width="2000" x="-1000" height="2000"></rect><g></g></g></g></g></g><g><g stroke="#333333" stroke-width="0.5" fill="none" stroke-linecap="round" stroke-linejoin="round"><path d="M 47.00160325000001,-23.987173999999822 l0,2.9984l5.99679,0l0,5.99679h-5.99679l0,2.9984l0,2.9984h5.99679v5.99679h-5.99679l0,2.9984l0,2.9984h5.99679v5.99679h-5.99679l0,2.9984l0,2.9984h5.99679v5.99679h-5.99679l0,2.9984l0,2.9984h5.99679v5.99679h-5.99679l0,2.9984l0,2.9984h5.99679l0,5.99679h-5.99679l0,2.9984l0,2.9984h5.99679l0,5.99679h-5.99679l0,2.9984l0,2.9984h5.99679v5.99679h-5.99679l0,2.9984l0,2.9984h5.99679v5.99679h-5.99679l0,2.9984l0,2.9984h5.99679v5.99679h-5.99679l0,2.9984l0,2.9984h5.99679l0,5.99679h-5.99679l0,2.9984l0,2.9984h5.99679l0,5.99679h-5.99679l0,2.9984l0,2.9984h5.99679l0,5.99679h-5.99679l0,2.9984l0,2.9984h5.99679v5.99679h-5.99679l0,2.9984l0,2.9984h5.99679v5.99679h-5.99679l0,2.9984"></path></g></g></g></g></g><g stroke="#333333" stroke-width="0.5" fill="none" stroke-linecap="round" stroke-linejoin="round"><path d="M50,0h50v33.33333c0,35.72656 -19.05989,68.73926 -50,86.60254c-30.94011,-17.86328 -50,-50.87598 -50,-86.60254v-33.33333z"></path></g></g></g><g transform="translate(0,0)" style="transition:transform 0.5s"></g><g><g><g><defs><mask id="mask_10"><defs><mask id="mask_11"><g fill="#000000" stroke="none" stroke-width="0" transform="translate(-3.90625,-3.90625)" id="unique-id_2794_25"><path stroke-dasharray="none" stroke="#000000" stroke-opacity="1" fill="#ffffff" stroke-linejoin="round" stroke-linecap="round" stroke-width="1" id="unique-id_2786_22" d="M65 55h70L100 5z" fill-opacity="1"></path><path stroke-dasharray="none" stroke="#000000" stroke-opacity="1" fill="#ffffff" stroke-linejoin="round" stroke-linecap="round" stroke-width="1" id="unique-id_2787_21" d="M135 55l15-50 45 40z" fill-opacity="1"></path><path stroke-dasharray="none" stroke="#000000" stroke-opacity="1" fill="#ffffff" stroke-linejoin="round" stroke-linecap="round" stroke-width="1" id="unique-id_2788_24" d="M65 55L50 5 5 45z" fill-opacity="1"></path><path stroke-dasharray="none" stroke="#000000" stroke-opacity="1" fill="#ffffff" stroke-linejoin="round" stroke-linecap="round" stroke-width="1" id="unique-id_2789_17" d="M135 55l60-10-95 100z" fill-opacity="1"></path><path stroke-dasharray="none" stroke="#000000" stroke-opacity="1" fill="#ffffff" stroke-linejoin="round" stroke-linecap="round" stroke-width="1" id="unique-id_2790_23" d="M65 55l35 90L5 45z" fill-opacity="1"></path><path stroke-dasharray="none" stroke="#000000" stroke-opacity="1" fill="#ffffff" stroke-linejoin="round" stroke-linecap="round" stroke-width="1" id="unique-id_2791_20" d="M65 55h70l-35 90zM65 55L50 5h50zM135 55l15-50h-50z" fill-opacity="1"></path><path stroke-dasharray="none" stroke="#000000" stroke-opacity="1" fill="none" stroke-linejoin="round" stroke-linecap="round" stroke-width="2" id="unique-id_2792_19" d="M50 5h100l45 40-95 100L5 45z" fill-opacity="1"></path><path stroke-dasharray="none" stroke="#000000" stroke-opacity="1" fill="none" stroke-linejoin="round" stroke-linecap="round" stroke-width="2" id="unique-id_2793_18" d="M5 45l60 10h70l60-10" fill-opacity="1"></path></g></mask></defs><g mask="url(#mask_11)"><g fill="#000000" stroke="none" stroke-width="0" transform="translate(-3.90625,-3.90625)" id="unique-id_2794_34"><path stroke-dasharray="none" stroke="#000000" stroke-opacity="1" fill="#000000" stroke-linejoin="round" stroke-linecap="round" stroke-width="1" id="unique-id_2786_31" d="M65 55h70L100 5z" fill-opacity="1"></path><path stroke-dasharray="none" stroke="#000000" stroke-opacity="1" fill="#333333" stroke-linejoin="round" stroke-linecap="round" stroke-width="1" id="unique-id_2787_30" d="M135 55l15-50 45 40z" fill-opacity="1"></path><path stroke-dasharray="none" stroke="#000000" stroke-opacity="1" fill="#333333" stroke-linejoin="round" stroke-linecap="round" stroke-width="1" id="unique-id_2788_33" d="M65 55L50 5 5 45z" fill-opacity="1"></path><path stroke-dasharray="none" stroke="#000000" stroke-opacity="1" fill="#4c4c4c" stroke-linejoin="round" stroke-linecap="round" stroke-width="1" id="unique-id_2789_26" d="M135 55l60-10-95 100z" fill-opacity="1"></path><path stroke-dasharray="none" stroke="#000000" stroke-opacity="1" fill="#4c4c4c" stroke-linejoin="round" stroke-linecap="round" stroke-width="1" id="unique-id_2790_32" d="M65 55l35 90L5 45z" fill-opacity="1"></path><path stroke-dasharray="none" stroke="#000000" stroke-opacity="1" fill="#000000" stroke-linejoin="round" stroke-linecap="round" stroke-width="1" id="unique-id_2791_29" d="M65 55h70l-35 90zM65 55L50 5h50zM135 55l15-50h-50z" fill-opacity="1"></path><path stroke-dasharray="none" stroke="#000000" stroke-opacity="1" fill="none" stroke-linejoin="round" stroke-linecap="round" stroke-width="2" id="unique-id_2792_28" d="M50 5h100l45 40-95 100L5 45z" fill-opacity="1"></path><path stroke-dasharray="none" stroke="#000000" stroke-opacity="1" fill="none" stroke-linejoin="round" stroke-linecap="round" stroke-width="2" id="unique-id_2793_27" d="M5 45l60 10h70l60-10" fill-opacity="1"></path></g></g></mask><mask id="mask_12"><defs><mask id="mask_13"><g fill="#000000" stroke="none" stroke-width="0" transform="translate(-3.90625,-3.90625)" id="unique-id_2794_43"><path stroke-dasharray="none" stroke="#000000" stroke-opacity="1" fill="#ffffff" stroke-linejoin="round" stroke-linecap="round" stroke-width="1" id="unique-id_2786_40" d="M65 55h70L100 5z" fill-opacity="1"></path><path stroke-dasharray="none" stroke="#000000" stroke-opacity="1" fill="#ffffff" stroke-linejoin="round" stroke-linecap="round" stroke-width="1" id="unique-id_2787_39" d="M135 55l15-50 45 40z" fill-opacity="1"></path><path stroke-dasharray="none" stroke="#000000" stroke-opacity="1" fill="#ffffff" stroke-linejoin="round" stroke-linecap="round" stroke-width="1" id="unique-id_2788_42" d="M65 55L50 5 5 45z" fill-opacity="1"></path><path stroke-dasharray="none" stroke="#000000" stroke-opacity="1" fill="#ffffff" stroke-linejoin="round" stroke-linecap="round" stroke-width="1" id="unique-id_2789_35" d="M135 55l60-10-95 100z" fill-opacity="1"></path><path stroke-dasharray="none" stroke="#000000" stroke-opacity="1" fill="#ffffff" stroke-linejoin="round" stroke-linecap="round" stroke-width="1" id="unique-id_2790_41" d="M65 55l35 90L5 45z" fill-opacity="1"></path><path stroke-dasharray="none" stroke="#000000" stroke-opacity="1" fill="#ffffff" stroke-linejoin="round" stroke-linecap="round" stroke-width="1" id="unique-id_2791_38" d="M65 55h70l-35 90zM65 55L50 5h50zM135 55l15-50h-50z" fill-opacity="1"></path><path stroke-dasharray="none" stroke="#000000" stroke-opacity="1" fill="none" stroke-linejoin="round" stroke-linecap="round" stroke-width="2" id="unique-id_2792_37" d="M50 5h100l45 40-95 100L5 45z" fill-opacity="1"></path><path stroke-dasharray="none" stroke="#000000" stroke-opacity="1" fill="none" stroke-linejoin="round" stroke-linecap="round" stroke-width="2" id="unique-id_2793_36" d="M5 45l60 10h70l60-10" fill-opacity="1"></path></g></mask></defs><g mask="url(#mask_13)"><g fill="#000000" stroke="none" stroke-width="0" transform="translate(-3.90625,-3.90625)" id="unique-id_2794_52"><path stroke-dasharray="none" stroke="#000000" stroke-opacity="1" fill="#333333" stroke-linejoin="round" stroke-linecap="round" stroke-width="1" id="unique-id_2786_49" d="M65 55h70L100 5z" fill-opacity="1"></path><path stroke-dasharray="none" stroke="#000000" stroke-opacity="1" fill="#000000" stroke-linejoin="round" stroke-linecap="round" stroke-width="1" id="unique-id_2787_48" d="M135 55l15-50 45 40z" fill-opacity="1"></path><path stroke-dasharray="none" stroke="#000000" stroke-opacity="1" fill="#000000" stroke-linejoin="round" stroke-linecap="round" stroke-width="1" id="unique-id_2788_51" d="M65 55L50 5 5 45z" fill-opacity="1"></path><path stroke-dasharray="none" stroke="#000000" stroke-opacity="1" fill="#000000" stroke-linejoin="round" stroke-linecap="round" stroke-width="1" id="unique-id_2789_44" d="M135 55l60-10-95 100z" fill-opacity="1"></path><path stroke-dasharray="none" stroke="#000000" stroke-opacity="1" fill="#000000" stroke-linejoin="round" stroke-linecap="round" stroke-width="1" id="unique-id_2790_50" d="M65 55l35 90L5 45z" fill-opacity="1"></path><path stroke-dasharray="none" stroke="#000000" stroke-opacity="1" fill="#000000" stroke-linejoin="round" stroke-linecap="round" stroke-width="1" id="unique-id_2791_47" d="M65 55h70l-35 90zM65 55L50 5h50zM135 55l15-50h-50z" fill-opacity="1"></path><path stroke-dasharray="none" stroke="#000000" stroke-opacity="1" fill="none" stroke-linejoin="round" stroke-linecap="round" stroke-width="2" id="unique-id_2792_46" d="M50 5h100l45 40-95 100L5 45z" fill-opacity="1"></path><path stroke-dasharray="none" stroke="#000000" stroke-opacity="1" fill="none" stroke-linejoin="round" stroke-linecap="round" stroke-width="2" id="unique-id_2793_45" d="M5 45l60 10h70l60-10" fill-opacity="1"></path></g></g></mask><mask id="mask_14"><g fill="#000" stroke="none" stroke-width="0" transform="translate(-3.90625,-3.90625)" id="unique-id_2794_61"><path stroke-dasharray="none" stroke="#000" stroke-opacity="1" fill="#000" stroke-linejoin="round" stroke-linecap="round" stroke-width="1" id="unique-id_2786_58" d="M65 55h70L100 5z" fill-opacity="1"></path><path stroke-dasharray="none" stroke="#000" stroke-opacity="1" fill="#000" stroke-linejoin="round" stroke-linecap="round" stroke-width="1" id="unique-id_2787_57" d="M135 55l15-50 45 40z" fill-opacity="1"></path><path stroke-dasharray="none" stroke="#000" stroke-opacity="1" fill="#000" stroke-linejoin="round" stroke-linecap="round" stroke-width="1" id="unique-id_2788_60" d="M65 55L50 5 5 45z" fill-opacity="1"></path><path stroke-dasharray="none" stroke="#000" stroke-opacity="1" fill="#000" stroke-linejoin="round" stroke-linecap="round" stroke-width="1" id="unique-id_2789_53" d="M135 55l60-10-95 100z" fill-opacity="1"></path><path stroke-dasharray="none" stroke="#000" stroke-opacity="1" fill="#000" stroke-linejoin="round" stroke-linecap="round" stroke-width="1" id="unique-id_2790_59" d="M65 55l35 90L5 45z" fill-opacity="1"></path><path stroke-dasharray="none" stroke="#000" stroke-opacity="1" fill="#000" stroke-linejoin="round" stroke-linecap="round" stroke-width="1" id="unique-id_2791_56" d="M65 55h70l-35 90zM65 55L50 5h50zM135 55l15-50h-50z" fill-opacity="1"></path><path stroke-dasharray="none" stroke="#000" stroke-opacity="1" fill="none" stroke-linejoin="round" stroke-linecap="round" stroke-width="2" id="unique-id_2792_55" d="M50 5h100l45 40-95 100L5 45z" fill-opacity="1"></path><path stroke-dasharray="none" stroke="#000" stroke-opacity="1" fill="none" stroke-linejoin="round" stroke-linecap="round" stroke-width="2" id="unique-id_2793_54" d="M5 45l60 10h70l60-10" fill-opacity="1"></path></g></mask><mask id="mask_15"><g fill="#000" stroke="none" stroke-width="0" transform="translate(-3.90625,-3.90625)" id="unique-id_2794_70"><path stroke-dasharray="none" stroke="#000" stroke-opacity="1" fill="#fff" stroke-linejoin="round" stroke-linecap="round" stroke-width="1" id="unique-id_2786_67" d="M65 55h70L100 5z" fill-opacity="1"></path><path stroke-dasharray="none" stroke="#000" stroke-opacity="1" fill="#fff" stroke-linejoin="round" stroke-linecap="round" stroke-width="1" id="unique-id_2787_66" d="M135 55l15-50 45 40z" fill-opacity="1"></path><path stroke-dasharray="none" stroke="#000" stroke-opacity="1" fill="#fff" stroke-linejoin="round" stroke-linecap="round" stroke-width="1" id="unique-id_2788_69" d="M65 55L50 5 5 45z" fill-opacity="1"></path><path stroke-dasharray="none" stroke="#000" stroke-opacity="1" fill="#fff" stroke-linejoin="round" stroke-linecap="round" stroke-width="1" id="unique-id_2789_62" d="M135 55l60-10-95 100z" fill-opacity="1"></path><path stroke-dasharray="none" stroke="#000" stroke-opacity="1" fill="#fff" stroke-linejoin="round" stroke-linecap="round" stroke-width="1" id="unique-id_2790_68" d="M65 55l35 90L5 45z" fill-opacity="1"></path><path stroke-dasharray="none" stroke="#000" stroke-opacity="1" fill="#fff" stroke-linejoin="round" stroke-linecap="round" stroke-width="1" id="unique-id_2791_65" d="M65 55h70l-35 90zM65 55L50 5h50zM135 55l15-50h-50z" fill-opacity="1"></path><path stroke-dasharray="none" stroke="#000" stroke-opacity="1" fill="none" stroke-linejoin="round" stroke-linecap="round" stroke-width="2" id="unique-id_2792_64" d="M50 5h100l45 40-95 100L5 45z" fill-opacity="1"></path><path stroke-dasharray="none" stroke="#000" stroke-opacity="1" fill="none" stroke-linejoin="round" stroke-linecap="round" stroke-width="2" id="unique-id_2793_63" d="M5 45l60 10h70l60-10" fill-opacity="1"></path></g></mask><mask id="mask_16"><g fill="#fff" stroke="none" stroke-width="0" transform="translate(-3.90625,-3.90625)" id="unique-id_2794_79"><path stroke-dasharray="none" stroke="#fff" stroke-opacity="1" fill="#fff" stroke-linejoin="round" stroke-linecap="round" stroke-width="1" id="unique-id_2786_76" d="M65 55h70L100 5z" fill-opacity="1"></path><path stroke-dasharray="none" stroke="#fff" stroke-opacity="1" fill="#fff" stroke-linejoin="round" stroke-linecap="round" stroke-width="1" id="unique-id_2787_75" d="M135 55l15-50 45 40z" fill-opacity="1"></path><path stroke-dasharray="none" stroke="#fff" stroke-opacity="1" fill="#fff" stroke-linejoin="round" stroke-linecap="round" stroke-width="1" id="unique-id_2788_78" d="M65 55L50 5 5 45z" fill-opacity="1"></path><path stroke-dasharray="none" stroke="#fff" stroke-opacity="1" fill="#fff" stroke-linejoin="round" stroke-linecap="round" stroke-width="1" id="unique-id_2789_71" d="M135 55l60-10-95 100z" fill-opacity="1"></path><path stroke-dasharray="none" stroke="#fff" stroke-opacity="1" fill="#fff" stroke-linejoin="round" stroke-linecap="round" stroke-width="1" id="unique-id_2790_77" d="M65 55l35 90L5 45z" fill-opacity="1"></path><path stroke-dasharray="none" stroke="#fff" stroke-opacity="1" fill="#fff" stroke-linejoin="round" stroke-linecap="round" stroke-width="1" id="unique-id_2791_74" d="M65 55h70l-35 90zM65 55L50 5h50zM135 55l15-50h-50z" fill-opacity="1"></path><path stroke-dasharray="none" stroke="#fff" stroke-opacity="1" fill="none" stroke-linejoin="round" stroke-linecap="round" stroke-width="2" id="unique-id_2792_73" d="M50 5h100l45 40-95 100L5 45z" fill-opacity="1"></path><path stroke-dasharray="none" stroke="#fff" stroke-opacity="1" fill="none" stroke-linejoin="round" stroke-linecap="round" stroke-width="2" id="unique-id_2793_72" d="M5 45l60 10h70l60-10" fill-opacity="1"></path></g></mask></defs><g transform="translate(50,59.967935)rotate(0)scale(0.41626016260162607,0.41626016260162607)translate(-96.09374999999999,-71.03805541992186)"><g></g><metadata xmlns:rdf="http://www.w3.org/1999/02/22-rdf-syntax-ns#" xmlns:cc="http://creativecommons.org/ns#" xmlns:dc="http://purl.org/dc/elements/1.1/"><rdf:RDF><rdf:Description dc:title="Gem Stone Side" dc:creator="korfi2go"></rdf:Description><cc:Work rdf:about="https://heraldicon.org/charges/2Oy1jc/1"><cc:license rdf:resource="https://creativecommons.org/publicdomain/mark/1.0/"></cc:license><cc:attributionName>Gem Stone Side by korfi2go</cc:attributionName><cc:attributionURL rdf:resource="https://heraldicon.org/users/korfi2go"></cc:attributionURL></cc:Work><cc:License rdf:about="https://creativecommons.org/publicdomain/mark/1.0/"></cc:License></rdf:RDF></metadata><g><g><g mask="url(#mask_16)"><rect transform="translate(96.09374999999999,71.03805541992186)scale(2.4023437499999996,2.4023437499999996)rotate(0)translate(-50,-59.967935)" x="-500" y="-500" width="1100" height="1100" fill="#333333"></rect></g><g mask="url(#mask_15)"><g transform="translate(96.09374999999999,71.03805541992186)scale(2.4023437499999996,2.4023437499999996)rotate(0)translate(-50,-59.967935)"><rect y="-1000" fill="#bb2f2e" width="2000" x="-1000" height="2000"></rect><g></g></g></g><g mask="url(#mask_14)"><g fill="#333333" stroke="none" stroke-width="0" transform="translate(-3.90625,-3.90625)" id="unique-id_2794_88"><path stroke-dasharray="none" stroke="#333333" stroke-opacity="1" fill="#333333" stroke-linejoin="round" stroke-linecap="round" stroke-width="1" id="unique-id_2786_85" d="M65 55h70L100 5z" fill-opacity="1"></path><path stroke-dasharray="none" stroke="#333333" stroke-opacity="1" fill="#333333" stroke-linejoin="round" stroke-linecap="round" stroke-width="1" id="unique-id_2787_84" d="M135 55l15-50 45 40z" fill-opacity="1"></path><path stroke-dasharray="none" stroke="#333333" stroke-opacity="1" fill="#333333" stroke-linejoin="round" stroke-linecap="round" stroke-width="1" id="unique-id_2788_87" d="M65 55L50 5 5 45z" fill-opacity="1"></path><path stroke-dasharray="none" stroke="#333333" stroke-opacity="1" fill="#333333" stroke-linejoin="round" stroke-linecap="round" stroke-width="1" id="unique-id_2789_80" d="M135 55l60-10-95 100z" fill-opacity="1"></path><path stroke-dasharray="none" stroke="#333333" stroke-opacity="1" fill="#333333" stroke-linejoin="round" stroke-linecap="round" stroke-width="1" id="unique-id_2790_86" d="M65 55l35 90L5 45z" fill-opacity="1"></path><path stroke-dasharray="none" stroke="#333333" stroke-opacity="1" fill="#333333" stroke-linejoin="round" stroke-linecap="round" stroke-width="1" id="unique-id_2791_83" d="M65 55h70l-35 90zM65 55L50 5h50zM135 55l15-50h-50z" fill-opacity="1"></path><path stroke-dasharray="none" stroke="#333333" stroke-opacity="1" fill="none" stroke-linejoin="round" stroke-linecap="round" stroke-width="2" id="unique-id_2792_82" d="M50 5h100l45 40-95 100L5 45z" fill-opacity="1"></path><path stroke-dasharray="none" stroke="#333333" stroke-opacity="1" fill="none" stroke-linejoin="round" stroke-linecap="round" stroke-width="2" id="unique-id_2793_81" d="M5 45l60 10h70l60-10" fill-opacity="1"></path></g></g><g mask="url(#mask_10)"><rect transform="translate(96.09374999999999,71.03805541992186)scale(2.4023437499999996,2.4023437499999996)rotate(0)translate(-50,-59.967935)" x="-500" y="-500" width="1100" height="1100" fill="#001040" style="opacity:1"></rect></g><g mask="url(#mask_12)"><rect transform="translate(96.09374999999999,71.03805541992186)scale(2.4023437499999996,2.4023437499999996)rotate(0)translate(-50,-59.967935)" x="-500" y="-500" width="1100" height="1100" fill="#ffffe8" style="opacity:1"></rect></g></g></g></g></g></g></g></g></svg>