<svg viewBox="-10 -10 1020 1219.3587" xmlns="http://www.w3.org/2000/svg" xmlns:xlink="http://www.w3.org/1999/xlink" version="1.1" width="1020" height="1219.3587"><style></style><g transform="translate(500,599.67935)scale(10,10)translate(-50,-59.967935)" style="transition:transform 0.5s"><g><g></g></g><g transform="translate(0,0)" style="transition:transform 0.5s"></g><g style="transition:transform 0.5s"><g><metadata xmlns:rdf="http://www.w3.org/1999/02/22-rdf-syntax-ns#" xmlns:cc="http://creativecommons.org/ns#" xmlns:dc="http://purl.org/dc/elements/1.1/"><rdf:RDF><rdf:Description dc:title="Galt" dc:creator="kosen"></rdf:Description><cc:Work rdf:about="https://heraldicon.org/arms/NpuO7S/3"><cc:license rdf:resource="private"></cc:license><cc:attributionName>Galt by kosen</cc:attributionName><cc:attributionURL rdf:resource="https://heraldicon.org/users/kosen"></cc:attributionURL></cc:Work><cc:License rdf:about="private"></cc:License></rdf:RDF></metadata><defs><pattern width="20" height="20" patternUnits="userSpaceOnUse" id="void"><rect x="0" y="0" width="20" height="20" fill="#fff" class="light"></rect><rect x="0" y="0" width="10" height="10" fill="#ddd" class="dark"></rect><rect x="10" y="10" width="10" height="10" fill="#ddd" class="dark"></rect></pattern><pattern width="4" height="4" patternUnits="userSpaceOnUse" id="selected"><rect x="0" y="0" width="4" height="4" fill="#f5f5f5"></rect><g fill="#000"><circle cx="0" cy="0" r="0.3"></circle><circle cx="4" cy="0" r="0.3"></circle><circle cx="0" cy="4" r="0.3"></circle><circle cx="4" cy="4" r="0.3"></circle><circle cx="2" cy="2" r="0.3"></circle></g></pattern><pattern id="ermine" width="12.5" height="20" patternUnits="userSpaceOnUse" x="-3.125" y="-5"><rect x="0" y="0" width="12.5" height="20" fill="#f6f6f6"></rect><g fill="#333333"><path d="M 47.757634,0 C 60.324696,15.689314 25.136924,21.898666 44.167046,36.607392
    52.24587,41.673746 71.273896,30.723464 54.57765,17.322176
    52.423302,16.178163 62.11999,8.3349512 47.757634,0 Z m 21.182372,36.935142 c
    -3.23154,0.326846 -6.282816,2.290268 -9.155302,7.193166 -3.590588,8.33495
    12.209402,22.716724 22.98117,5.06625 C 83.483996,47.069952 94.0755,53.93163
    100,39.386326 89.946316,49.845864 79.713166,37.425428 70.377642,36.935142 Z
    M 29.80469,37.099022 C 20.469164,37.58931 10.053647,50.173186 0,39.55021
    5.9244804,54.095512 16.51881,47.070414 17.416458,49.358438 28.0087,67.008916
    43.805884,52.627142 40.215296,44.292192 36.983772,38.73555 33.395278,36.9356
    29.80469,37.099026 Z m 21.003542,10.13249 c -8.25835,37.262136
    -23.51556,63.576958 -40.211787,82.534868 7.001653,-1.96117
    14.718613,-7.19213 22.258843,-11.93164 -4.667764,9.80582 -9.154602,18.14082
    -13.822364,26.80264 2.692942,-0.98059 11.489886,-9.64435 23.338826,-22.3919
    1.795296,17.48703 4.305204,25.8241 8.07532,37.75452 3.052012,-11.93042
    5.208468,-19.9411 7.54234,-37.9184 7.181178,8.00805 14.001888,16.17984
    23.696484,23.04393 L 68.221186,117.34659 c 7.001634,4.41265
    14.72282,10.29262 22.083522,12.74406 C 72.710832,110.15215
    57.989412,84.493648 50.808232,47.231516 Z" transform="scale(0.0625,0.0625)"></path><path d="M 47.757634,0 C 60.324696,15.689314 25.136924,21.898666 44.167046,36.607392
    52.24587,41.673746 71.273896,30.723464 54.57765,17.322176
    52.423302,16.178163 62.11999,8.3349512 47.757634,0 Z m 21.182372,36.935142 c
    -3.23154,0.326846 -6.282816,2.290268 -9.155302,7.193166 -3.590588,8.33495
    12.209402,22.716724 22.98117,5.06625 C 83.483996,47.069952 94.0755,53.93163
    100,39.386326 89.946316,49.845864 79.713166,37.425428 70.377642,36.935142 Z
    M 29.80469,37.099022 C 20.469164,37.58931 10.053647,50.173186 0,39.55021
    5.9244804,54.095512 16.51881,47.070414 17.416458,49.358438 28.0087,67.008916
    43.805884,52.627142 40.215296,44.292192 36.983772,38.73555 33.395278,36.9356
    29.80469,37.099026 Z m 21.003542,10.13249 c -8.25835,37.262136
    -23.51556,63.576958 -40.211787,82.534868 7.001653,-1.96117
    14.718613,-7.19213 22.258843,-11.93164 -4.667764,9.80582 -9.154602,18.14082
    -13.822364,26.80264 2.692942,-0.98059 11.489886,-9.64435 23.338826,-22.3919
    1.795296,17.48703 4.305204,25.8241 8.07532,37.75452 3.052012,-11.93042
    5.208468,-19.9411 7.54234,-37.9184 7.181178,8.00805 14.001888,16.17984
    23.696484,23.04393 L 68.221186,117.34659 c 7.001634,4.41265
    14.72282,10.29262 22.083522,12.74406 C 72.710832,110.15215
    57.989412,84.493648 50.808232,47.231516 Z" transform="translate(6.25,10) scale(0.0625,0.0625)"></path></g></pattern><pattern id="ermines" width="12.5" height="20" patternUnits="userSpaceOnUse" x="-3.125" y="-5"><rect x="0" y="0" width="12.5" height="20" fill="#333333"></rect><g fill="#f6f6f6"><path d="M 47.757634,0 C 60.324696,15.689314 25.136924,21.898666 44.167046,36.607392
    52.24587,41.673746 71.273896,30.723464 54.57765,17.322176
    52.423302,16.178163 62.11999,8.3349512 47.757634,0 Z m 21.182372,36.935142 c
    -3.23154,0.326846 -6.282816,2.290268 -9.155302,7.193166 -3.590588,8.33495
    12.209402,22.716724 22.98117,5.06625 C 83.483996,47.069952 94.0755,53.93163
    100,39.386326 89.946316,49.845864 79.713166,37.425428 70.377642,36.935142 Z
    M 29.80469,37.099022 C 20.469164,37.58931 10.053647,50.173186 0,39.55021
    5.9244804,54.095512 16.51881,47.070414 17.416458,49.358438 28.0087,67.008916
    43.805884,52.627142 40.215296,44.292192 36.983772,38.73555 33.395278,36.9356
    29.80469,37.099026 Z m 21.003542,10.13249 c -8.25835,37.262136
    -23.51556,63.576958 -40.211787,82.534868 7.001653,-1.96117
    14.718613,-7.19213 22.258843,-11.93164 -4.667764,9.80582 -9.154602,18.14082
    -13.822364,26.80264 2.692942,-0.98059 11.489886,-9.64435 23.338826,-22.3919
    1.795296,17.48703 4.305204,25.8241 8.07532,37.75452 3.052012,-11.93042
    5.208468,-19.9411 7.54234,-37.9184 7.181178,8.00805 14.001888,16.17984
    23.696484,23.04393 L 68.221186,117.34659 c 7.001634,4.41265
    14.72282,10.29262 22.083522,12.74406 C 72.710832,110.15215
    57.989412,84.493648 50.808232,47.231516 Z" transform="scale(0.0625,0.0625)"></path><path d="M 47.757634,0 C 60.324696,15.689314 25.136924,21.898666 44.167046,36.607392
    52.24587,41.673746 71.273896,30.723464 54.57765,17.322176
    52.423302,16.178163 62.11999,8.3349512 47.757634,0 Z m 21.182372,36.935142 c
    -3.23154,0.326846 -6.282816,2.290268 -9.155302,7.193166 -3.590588,8.33495
    12.209402,22.716724 22.98117,5.06625 C 83.483996,47.069952 94.0755,53.93163
    100,39.386326 89.946316,49.845864 79.713166,37.425428 70.377642,36.935142 Z
    M 29.80469,37.099022 C 20.469164,37.58931 10.053647,50.173186 0,39.55021
    5.9244804,54.095512 16.51881,47.070414 17.416458,49.358438 28.0087,67.008916
    43.805884,52.627142 40.215296,44.292192 36.983772,38.73555 33.395278,36.9356
    29.80469,37.099026 Z m 21.003542,10.13249 c -8.25835,37.262136
    -23.51556,63.576958 -40.211787,82.534868 7.001653,-1.96117
    14.718613,-7.19213 22.258843,-11.93164 -4.667764,9.80582 -9.154602,18.14082
    -13.822364,26.80264 2.692942,-0.98059 11.489886,-9.64435 23.338826,-22.3919
    1.795296,17.48703 4.305204,25.8241 8.07532,37.75452 3.052012,-11.93042
    5.208468,-19.9411 7.54234,-37.9184 7.181178,8.00805 14.001888,16.17984
    23.696484,23.04393 L 68.221186,117.34659 c 7.001634,4.41265
    14.72282,10.29262 22.083522,12.74406 C 72.710832,110.15215
    57.989412,84.493648 50.808232,47.231516 Z" transform="translate(6.25,10) scale(0.0625,0.0625)"></path></g></pattern><pattern id="erminois" width="12.5" height="20" patternUnits="userSpaceOnUse" x="-3.125" y="-5"><rect x="0" y="0" width="12.5" height="20" fill="#f2bc51"></rect><g fill="#333333"><path d="M 47.757634,0 C 60.324696,15.689314 25.136924,21.898666 44.167046,36.607392
    52.24587,41.673746 71.273896,30.723464 54.57765,17.322176
    52.423302,16.178163 62.11999,8.3349512 47.757634,0 Z m 21.182372,36.935142 c
    -3.23154,0.326846 -6.282816,2.290268 -9.155302,7.193166 -3.590588,8.33495
    12.209402,22.716724 22.98117,5.06625 C 83.483996,47.069952 94.0755,53.93163
    100,39.386326 89.946316,49.845864 79.713166,37.425428 70.377642,36.935142 Z
    M 29.80469,37.099022 C 20.469164,37.58931 10.053647,50.173186 0,39.55021
    5.9244804,54.095512 16.51881,47.070414 17.416458,49.358438 28.0087,67.008916
    43.805884,52.627142 40.215296,44.292192 36.983772,38.73555 33.395278,36.9356
    29.80469,37.099026 Z m 21.003542,10.13249 c -8.25835,37.262136
    -23.51556,63.576958 -40.211787,82.534868 7.001653,-1.96117
    14.718613,-7.19213 22.258843,-11.93164 -4.667764,9.80582 -9.154602,18.14082
    -13.822364,26.80264 2.692942,-0.98059 11.489886,-9.64435 23.338826,-22.3919
    1.795296,17.48703 4.305204,25.8241 8.07532,37.75452 3.052012,-11.93042
    5.208468,-19.9411 7.54234,-37.9184 7.181178,8.00805 14.001888,16.17984
    23.696484,23.04393 L 68.221186,117.34659 c 7.001634,4.41265
    14.72282,10.29262 22.083522,12.74406 C 72.710832,110.15215
    57.989412,84.493648 50.808232,47.231516 Z" transform="scale(0.0625,0.0625)"></path><path d="M 47.757634,0 C 60.324696,15.689314 25.136924,21.898666 44.167046,36.607392
    52.24587,41.673746 71.273896,30.723464 54.57765,17.322176
    52.423302,16.178163 62.11999,8.3349512 47.757634,0 Z m 21.182372,36.935142 c
    -3.23154,0.326846 -6.282816,2.290268 -9.155302,7.193166 -3.590588,8.33495
    12.209402,22.716724 22.98117,5.06625 C 83.483996,47.069952 94.0755,53.93163
    100,39.386326 89.946316,49.845864 79.713166,37.425428 70.377642,36.935142 Z
    M 29.80469,37.099022 C 20.469164,37.58931 10.053647,50.173186 0,39.55021
    5.9244804,54.095512 16.51881,47.070414 17.416458,49.358438 28.0087,67.008916
    43.805884,52.627142 40.215296,44.292192 36.983772,38.73555 33.395278,36.9356
    29.80469,37.099026 Z m 21.003542,10.13249 c -8.25835,37.262136
    -23.51556,63.576958 -40.211787,82.534868 7.001653,-1.96117
    14.718613,-7.19213 22.258843,-11.93164 -4.667764,9.80582 -9.154602,18.14082
    -13.822364,26.80264 2.692942,-0.98059 11.489886,-9.64435 23.338826,-22.3919
    1.795296,17.48703 4.305204,25.8241 8.07532,37.75452 3.052012,-11.93042
    5.208468,-19.9411 7.54234,-37.9184 7.181178,8.00805 14.001888,16.17984
    23.696484,23.04393 L 68.221186,117.34659 c 7.001634,4.41265
    14.72282,10.29262 22.083522,12.74406 C 72.710832,110.15215
    57.989412,84.493648 50.808232,47.231516 Z" transform="translate(6.25,10) scale(0.0625,0.0625)"></path></g></pattern><pattern id="pean" width="12.5" height="20" patternUnits="userSpaceOnUse" x="-3.125" y="-5"><rect x="0" y="0" width="12.5" height="20" fill="#333333"></rect><g fill="#f2bc51"><path d="M 47.757634,0 C 60.324696,15.689314 25.136924,21.898666 44.167046,36.607392
    52.24587,41.673746 71.273896,30.723464 54.57765,17.322176
    52.423302,16.178163 62.11999,8.3349512 47.757634,0 Z m 21.182372,36.935142 c
    -3.23154,0.326846 -6.282816,2.290268 -9.155302,7.193166 -3.590588,8.33495
    12.209402,22.716724 22.98117,5.06625 C 83.483996,47.069952 94.0755,53.93163
    100,39.386326 89.946316,49.845864 79.713166,37.425428 70.377642,36.935142 Z
    M 29.80469,37.099022 C 20.469164,37.58931 10.053647,50.173186 0,39.55021
    5.9244804,54.095512 16.51881,47.070414 17.416458,49.358438 28.0087,67.008916
    43.805884,52.627142 40.215296,44.292192 36.983772,38.73555 33.395278,36.9356
    29.80469,37.099026 Z m 21.003542,10.13249 c -8.25835,37.262136
    -23.51556,63.576958 -40.211787,82.534868 7.001653,-1.96117
    14.718613,-7.19213 22.258843,-11.93164 -4.667764,9.80582 -9.154602,18.14082
    -13.822364,26.80264 2.692942,-0.98059 11.489886,-9.64435 23.338826,-22.3919
    1.795296,17.48703 4.305204,25.8241 8.07532,37.75452 3.052012,-11.93042
    5.208468,-19.9411 7.54234,-37.9184 7.181178,8.00805 14.001888,16.17984
    23.696484,23.04393 L 68.221186,117.34659 c 7.001634,4.41265
    14.72282,10.29262 22.083522,12.74406 C 72.710832,110.15215
    57.989412,84.493648 50.808232,47.231516 Z" transform="scale(0.0625,0.0625)"></path><path d="M 47.757634,0 C 60.324696,15.689314 25.136924,21.898666 44.167046,36.607392
    52.24587,41.673746 71.273896,30.723464 54.57765,17.322176
    52.423302,16.178163 62.11999,8.3349512 47.757634,0 Z m 21.182372,36.935142 c
    -3.23154,0.326846 -6.282816,2.290268 -9.155302,7.193166 -3.590588,8.33495
    12.209402,22.716724 22.98117,5.06625 C 83.483996,47.069952 94.0755,53.93163
    100,39.386326 89.946316,49.845864 79.713166,37.425428 70.377642,36.935142 Z
    M 29.80469,37.099022 C 20.469164,37.58931 10.053647,50.173186 0,39.55021
    5.9244804,54.095512 16.51881,47.070414 17.416458,49.358438 28.0087,67.008916
    43.805884,52.627142 40.215296,44.292192 36.983772,38.73555 33.395278,36.9356
    29.80469,37.099026 Z m 21.003542,10.13249 c -8.25835,37.262136
    -23.51556,63.576958 -40.211787,82.534868 7.001653,-1.96117
    14.718613,-7.19213 22.258843,-11.93164 -4.667764,9.80582 -9.154602,18.14082
    -13.822364,26.80264 2.692942,-0.98059 11.489886,-9.64435 23.338826,-22.3919
    1.795296,17.48703 4.305204,25.8241 8.07532,37.75452 3.052012,-11.93042
    5.208468,-19.9411 7.54234,-37.9184 7.181178,8.00805 14.001888,16.17984
    23.696484,23.04393 L 68.221186,117.34659 c 7.001634,4.41265
    14.72282,10.29262 22.083522,12.74406 C 72.710832,110.15215
    57.989412,84.493648 50.808232,47.231516 Z" transform="translate(6.25,10) scale(0.0625,0.0625)"></path></g></pattern></defs><defs><mask id="mask_3"><path d="M50,0h50v33.33333c0,35.72656 -19.05989,68.73926 -50,86.60254c-30.94011,-17.86328 -50,-50.87598 -50,-86.60254v-33.33333z" clip-rule="evenodd" fill-rule="evenodd" fill="#fff" stroke="none"></path></mask></defs><g mask="url(#mask_3)"><g><g><path d="M50,0h50v33.33333c0,35.72656 -19.05989,68.73926 -50,86.60254c-30.94011,-17.86328 -50,-50.87598 -50,-86.60254v-33.33333z" fill-rule="evenodd" fill="#f0f0f0"></path><g><g><defs><mask id="clip_6"><path d="M 120.74045438521051,120.74045438521051 l-70.74045,-70.74045 L 50,50 l-70.74046,70.74046 L -485.4328119346958,355.72927808410896 A 600 600 0 0 0 585.4328156789545,355.72927067980595 L 120.74045438521051,120.74045438521051 z" clip-rule="evenodd" fill-rule="evenodd" fill="#fff" stroke="#fff" stroke-width="0.1"></path></mask></defs><g mask="url(#clip_6)"><g><rect y="-1000" fill="#0c6793" width="2000" x="-1000" height="2000"></rect><g></g></g></g></g><g><defs><mask id="clip_7"><path d="M -21.213204765908408,-21.213204765908408 l71.2132,71.2132 L 50,50 l71.2132,-71.2132 L 553.309466405862,-301.6184027672759 A 600 600 0 0 0 -453.3094648986276,-301.61840508988024 L -21.213204765908408,-21.213204765908408 z" clip-rule="evenodd" fill-rule="evenodd" fill="#fff" stroke="#fff" stroke-width="0.1"></path></mask></defs><g mask="url(#clip_7)"><g><rect y="-1000" fill="#0c6793" width="2000" x="-1000" height="2000"></rect><g></g></g></g></g><g><defs><mask id="clip_8"><path d="M -21.213204765908408,-21.213204765908408 l71.2132,71.2132 L 50,50 l-70.74046,70.74046 L -278.373651975325,560.3453646422472 A 600 600 0 0 1 -326.5894767296208,-443.50168196230123 L -21.213204765908408,-21.213204765908408 z" clip-rule="evenodd" fill-rule="evenodd" fill="#fff"></path></mask></defs><g mask="url(#clip_8)"><g><rect y="-1000" fill="#bb2f2e" width="2000" x="-1000" height="2000"></rect><g></g></g></g></g><g><defs><mask id="clip_9"><path d="M 120.74045438521051,120.74045438521051 l-70.74045,-70.74045 L 50,50 l71.2132,-71.2132 L 426.58947488973433,-443.50168329280797 A 600 600 0 0 1 378.3736468968794,560.3453676185019 L 120.74045438521051,120.74045438521051 z" clip-rule="evenodd" fill-rule="evenodd" fill="#fff"></path></mask></defs><g mask="url(#clip_9)"><g><rect y="-1000" fill="#bb2f2e" width="2000" x="-1000" height="2000"></rect><g></g></g></g></g></g><g><g stroke="#333333" stroke-width="0.5" fill="none" stroke-linecap="round" stroke-linejoin="round"><path d="M -21.213204765908408,-21.213204765908408 l71.2132,71.2132"></path></g><g stroke="#333333" stroke-width="0.5" fill="none" stroke-linecap="round" stroke-linejoin="round"><path d="M 120.74045438521051,120.74045438521051 l-70.74045,-70.74045"></path></g><g stroke="#333333" stroke-width="0.5" fill="none" stroke-linecap="round" stroke-linejoin="round"><path d="M 50,50 l-70.74046,70.74046"></path></g><g stroke="#333333" stroke-width="0.5" fill="none" stroke-linecap="round" stroke-linejoin="round"><path d="M 50,50 l71.2132,-71.2132"></path></g></g></g></g></g><g stroke="#333333" stroke-width="0.5" fill="none" stroke-linecap="round" stroke-linejoin="round"><path d="M50,0h50v33.33333c0,35.72656 -19.05989,68.73926 -50,86.60254c-30.94011,-17.86328 -50,-50.87598 -50,-86.60254v-33.33333z"></path></g></g></g><g transform="translate(0,0)" style="transition:transform 0.5s"></g><g><g><g><defs><mask id="mask_12"><defs><mask id="mask_13"><g fill="#ffffff" stroke="none" stroke-width="0" style="clip-rule:evenodd" transform="translate(0,-3.6478042602539062)"><path d="M76.7 84.8L60.4 69.2V7h1.3l2.9-3.3H34.5L37.2 7h1.5v1.8c-2.1 0-3.8 0-4.3.1-1.4.1-2.8 1.3-2.7 2.6 0 1.2 4 51.3 4.6 59.3L22 84.8h-.1v3.6H37l-.5 6.8 4.1.3.5-7.1H57l.5 7.1 4.1-.3-.5-6.8h15.6v-3.6zM56.7 65h-3.4c-.2 1.9-1.8 3.4-3.7 3.4S46 66.9 45.8 65h-3.2c-.2 0-.4-.2-.4-.4s.2-.4.4-.4h3.2c.2-1.9 1.8-3.4 3.7-3.4s3.5 1.5 3.7 3.4h3.4c.2 0 .4.2.4.4.1.2-.1.4-.3.4zm-14.2 7.6h13.1l2 12.3h-17l1.9-12.3zm18.1 12.2l-2-12.3h.9l12.8 12.3H60.6zm-2.5-25.9H41V26.5h17v32.4zM41 9.5h7.8c-.7.3-1.3 1-1.3 1.9 0 1.1.9 2 2 2 .6 0 1.1-.3 1.5-.7-.6 2.5-1.9 7.4-1.9 7.4l-.3.7h-.6c-.5 0-.9.4-.9.9 0 .3.1.5.4.7H41V9.5zm17.1 13h-6.9c.2-.2.4-.4.4-.7 0-.5-.4-.9-.9-.9h-1v-.2c.4-1.1 2.5-7.4 2.5-9.2 0-1.9-1.1-2.6-1.3-2.6V7h7.2v15.5zM49.2 7v1.9h-8.1V7h8.1zM38.7 9.5v1.1h-2.5c-.3-.6-1-1-1.8-1 .5-.1 2.2-.1 4.3-.1zm-6.3 2c0 1.1.9 2 2 2 .8 0 1.5-.5 1.8-1.2h2.4V68.5l-1.8 1.8-4.4-58.8zm6.5 61.1h.7l-2 12.3H26.4l12.5-12.3z"></path><path d="M43.7 31.8v7.8l11.8-5.8v-6.5H43.7z"></path><text x="0" y="115" fill="none" font-size="5" font-weight="bold" font-family="&#x27;Helvetica Neue&#x27;, Helvetica, Arial-Unicode, Arial, Sans-serif">Created by Lexi Larson</text><text x="0" y="120" fill="none" font-size="5" font-weight="bold" font-family="&#x27;Helvetica Neue&#x27;, Helvetica, Arial-Unicode, Arial, Sans-serif">from the Noun Project</text></g></mask></defs><g mask="url(#mask_13)"><g fill="#000000" stroke="none" stroke-width="0" style="clip-rule:evenodd" transform="translate(0,-3.6478042602539062)"><path d="M76.7 84.8L60.4 69.2V7h1.3l2.9-3.3H34.5L37.2 7h1.5v1.8c-2.1 0-3.8 0-4.3.1-1.4.1-2.8 1.3-2.7 2.6 0 1.2 4 51.3 4.6 59.3L22 84.8h-.1v3.6H37l-.5 6.8 4.1.3.5-7.1H57l.5 7.1 4.1-.3-.5-6.8h15.6v-3.6zM56.7 65h-3.4c-.2 1.9-1.8 3.4-3.7 3.4S46 66.9 45.8 65h-3.2c-.2 0-.4-.2-.4-.4s.2-.4.4-.4h3.2c.2-1.9 1.8-3.4 3.7-3.4s3.5 1.5 3.7 3.4h3.4c.2 0 .4.2.4.4.1.2-.1.4-.3.4zm-14.2 7.6h13.1l2 12.3h-17l1.9-12.3zm18.1 12.2l-2-12.3h.9l12.8 12.3H60.6zm-2.5-25.9H41V26.5h17v32.4zM41 9.5h7.8c-.7.3-1.3 1-1.3 1.9 0 1.1.9 2 2 2 .6 0 1.1-.3 1.5-.7-.6 2.5-1.9 7.4-1.9 7.4l-.3.7h-.6c-.5 0-.9.4-.9.9 0 .3.1.5.4.7H41V9.5zm17.1 13h-6.9c.2-.2.4-.4.4-.7 0-.5-.4-.9-.9-.9h-1v-.2c.4-1.1 2.5-7.4 2.5-9.2 0-1.9-1.1-2.6-1.3-2.6V7h7.2v15.5zM49.2 7v1.9h-8.1V7h8.1zM38.7 9.5v1.1h-2.5c-.3-.6-1-1-1.8-1 .5-.1 2.2-.1 4.3-.1zm-6.3 2c0 1.1.9 2 2 2 .8 0 1.5-.5 1.8-1.2h2.4V68.5l-1.8 1.8-4.4-58.8zm6.5 61.1h.7l-2 12.3H26.4l12.5-12.3z"></path><path d="M43.7 31.8v7.8l11.8-5.8v-6.5H43.7z"></path><text x="0" y="115" fill="#ffffff" font-size="5" font-weight="bold" font-family="&#x27;Helvetica Neue&#x27;, Helvetica, Arial-Unicode, Arial, Sans-serif">Created by Lexi Larson</text><text x="0" y="120" fill="#ffffff" font-size="5" font-weight="bold" font-family="&#x27;Helvetica Neue&#x27;, Helvetica, Arial-Unicode, Arial, Sans-serif">from the Noun Project</text></g></g></mask><mask id="mask_14"><g fill="#000" stroke="none" stroke-width="0" style="clip-rule:evenodd" transform="translate(0,-3.6478042602539062)"><path d="M76.7 84.8L60.4 69.2V7h1.3l2.9-3.3H34.5L37.2 7h1.5v1.8c-2.1 0-3.8 0-4.3.1-1.4.1-2.8 1.3-2.7 2.6 0 1.2 4 51.3 4.6 59.3L22 84.8h-.1v3.6H37l-.5 6.8 4.1.3.5-7.1H57l.5 7.1 4.1-.3-.5-6.8h15.6v-3.6zM56.7 65h-3.4c-.2 1.9-1.8 3.4-3.7 3.4S46 66.9 45.8 65h-3.2c-.2 0-.4-.2-.4-.4s.2-.4.4-.4h3.2c.2-1.9 1.8-3.4 3.7-3.4s3.5 1.5 3.7 3.4h3.4c.2 0 .4.2.4.4.1.2-.1.4-.3.4zm-14.2 7.6h13.1l2 12.3h-17l1.9-12.3zm18.1 12.2l-2-12.3h.9l12.8 12.3H60.6zm-2.5-25.9H41V26.5h17v32.4zM41 9.5h7.8c-.7.3-1.3 1-1.3 1.9 0 1.1.9 2 2 2 .6 0 1.1-.3 1.5-.7-.6 2.5-1.9 7.4-1.9 7.4l-.3.7h-.6c-.5 0-.9.4-.9.9 0 .3.1.5.4.7H41V9.5zm17.1 13h-6.9c.2-.2.4-.4.4-.7 0-.5-.4-.9-.9-.9h-1v-.2c.4-1.1 2.5-7.4 2.5-9.2 0-1.9-1.1-2.6-1.3-2.6V7h7.2v15.5zM49.2 7v1.9h-8.1V7h8.1zM38.7 9.5v1.1h-2.5c-.3-.6-1-1-1.8-1 .5-.1 2.2-.1 4.3-.1zm-6.3 2c0 1.1.9 2 2 2 .8 0 1.5-.5 1.8-1.2h2.4V68.5l-1.8 1.8-4.4-58.8zm6.5 61.1h.7l-2 12.3H26.4l12.5-12.3z"></path><path d="M43.7 31.8v7.8l11.8-5.8v-6.5H43.7z"></path><text x="0" y="115" fill="none" font-size="5" font-weight="bold" font-family="&#x27;Helvetica Neue&#x27;, Helvetica, Arial-Unicode, Arial, Sans-serif">Created by Lexi Larson</text><text x="0" y="120" fill="none" font-size="5" font-weight="bold" font-family="&#x27;Helvetica Neue&#x27;, Helvetica, Arial-Unicode, Arial, Sans-serif">from the Noun Project</text></g></mask><mask id="mask_15"><g fill="#fff" stroke="none" stroke-width="0" style="clip-rule:evenodd" transform="translate(0,-3.6478042602539062)"><path d="M76.7 84.8L60.4 69.2V7h1.3l2.9-3.3H34.5L37.2 7h1.5v1.8c-2.1 0-3.8 0-4.3.1-1.4.1-2.8 1.3-2.7 2.6 0 1.2 4 51.3 4.6 59.3L22 84.8h-.1v3.6H37l-.5 6.8 4.1.3.5-7.1H57l.5 7.1 4.1-.3-.5-6.8h15.6v-3.6zM56.7 65h-3.4c-.2 1.9-1.8 3.4-3.7 3.4S46 66.9 45.8 65h-3.2c-.2 0-.4-.2-.4-.4s.2-.4.4-.4h3.2c.2-1.9 1.8-3.4 3.7-3.4s3.5 1.5 3.7 3.4h3.4c.2 0 .4.2.4.4.1.2-.1.4-.3.4zm-14.2 7.6h13.1l2 12.3h-17l1.9-12.3zm18.1 12.2l-2-12.3h.9l12.8 12.3H60.6zm-2.5-25.9H41V26.5h17v32.4zM41 9.5h7.8c-.7.3-1.3 1-1.3 1.9 0 1.1.9 2 2 2 .6 0 1.1-.3 1.5-.7-.6 2.5-1.9 7.4-1.9 7.4l-.3.7h-.6c-.5 0-.9.4-.9.9 0 .3.1.5.4.7H41V9.5zm17.1 13h-6.9c.2-.2.4-.4.4-.7 0-.5-.4-.9-.9-.9h-1v-.2c.4-1.1 2.5-7.4 2.5-9.2 0-1.9-1.1-2.6-1.3-2.6V7h7.2v15.5zM49.2 7v1.9h-8.1V7h8.1zM38.7 9.5v1.1h-2.5c-.3-.6-1-1-1.8-1 .5-.1 2.2-.1 4.3-.1zm-6.3 2c0 1.1.9 2 2 2 .8 0 1.5-.5 1.8-1.2h2.4V68.5l-1.8 1.8-4.4-58.8zm6.5 61.1h.7l-2 12.3H26.4l12.5-12.3z"></path><path d="M43.7 31.8v7.8l11.8-5.8v-6.5H43.7z"></path><text x="0" y="115" fill="none" font-size="5" font-weight="bold" font-family="&#x27;Helvetica Neue&#x27;, Helvetica, Arial-Unicode, Arial, Sans-serif">Created by Lexi Larson</text><text x="0" y="120" fill="none" font-size="5" font-weight="bold" font-family="&#x27;Helvetica Neue&#x27;, Helvetica, Arial-Unicode, Arial, Sans-serif">from the Noun Project</text></g></mask><mask id="mask_16"><g fill="#fff" stroke="none" stroke-width="0" style="clip-rule:evenodd" transform="translate(0,-3.6478042602539062)"><path d="M76.7 84.8L60.4 69.2V7h1.3l2.9-3.3H34.5L37.2 7h1.5v1.8c-2.1 0-3.8 0-4.3.1-1.4.1-2.8 1.3-2.7 2.6 0 1.2 4 51.3 4.6 59.3L22 84.8h-.1v3.6H37l-.5 6.8 4.1.3.5-7.1H57l.5 7.1 4.1-.3-.5-6.8h15.6v-3.6zM56.7 65h-3.4c-.2 1.9-1.8 3.4-3.7 3.4S46 66.9 45.8 65h-3.2c-.2 0-.4-.2-.4-.4s.2-.4.4-.4h3.2c.2-1.9 1.8-3.4 3.7-3.4s3.5 1.5 3.7 3.4h3.4c.2 0 .4.2.4.4.1.2-.1.4-.3.4zm-14.2 7.6h13.1l2 12.3h-17l1.9-12.3zm18.1 12.2l-2-12.3h.9l12.8 12.3H60.6zm-2.5-25.9H41V26.5h17v32.4zM41 9.5h7.8c-.7.3-1.3 1-1.3 1.9 0 1.1.9 2 2 2 .6 0 1.1-.3 1.5-.7-.6 2.5-1.9 7.4-1.9 7.4l-.3.7h-.6c-.5 0-.9.4-.9.9 0 .3.1.5.4.7H41V9.5zm17.1 13h-6.9c.2-.2.4-.4.4-.7 0-.5-.4-.9-.9-.9h-1v-.2c.4-1.1 2.5-7.4 2.5-9.2 0-1.9-1.1-2.6-1.3-2.6V7h7.2v15.5zM49.2 7v1.9h-8.1V7h8.1zM38.7 9.5v1.1h-2.5c-.3-.6-1-1-1.8-1 .5-.1 2.2-.1 4.3-.1zm-6.3 2c0 1.1.9 2 2 2 .8 0 1.5-.5 1.8-1.2h2.4V68.5l-1.8 1.8-4.4-58.8zm6.5 61.1h.7l-2 12.3H26.4l12.5-12.3z"></path><path d="M43.7 31.8v7.8l11.8-5.8v-6.5H43.7z"></path><text x="0" y="115" fill="none" font-size="5" font-weight="bold" font-family="&#x27;Helvetica Neue&#x27;, Helvetica, Arial-Unicode, Arial, Sans-serif">Created by Lexi Larson</text><text x="0" y="120" fill="none" font-size="5" font-weight="bold" font-family="&#x27;Helvetica Neue&#x27;, Helvetica, Arial-Unicode, Arial, Sans-serif">from the Noun Project</text></g></mask></defs><g transform="translate(42,59.967935)rotate(0)scale(0.7155405559985857,0.7155405559985857)translate(-38.382530212402344,-58.66551399230957)"><g></g><metadata xmlns:rdf="http://www.w3.org/1999/02/22-rdf-syntax-ns#" xmlns:cc="http://creativecommons.org/ns#" xmlns:dc="http://purl.org/dc/elements/1.1/"><rdf:RDF><rdf:Description dc:title="Guillotine" dc:creator="kosen"></rdf:Description><cc:Work rdf:about="https://heraldicon.org/charges/AvcRPv/1"><cc:license rdf:resource="private"></cc:license><cc:attributionName>Guillotine by kosen</cc:attributionName><cc:attributionURL rdf:resource="https://heraldicon.org/users/kosen"></cc:attributionURL></cc:Work><cc:License rdf:about="private"></cc:License></rdf:RDF></metadata><g><g><g mask="url(#mask_16)"><rect transform="translate(38.382530212402344,58.66551399230957)scale(1.3975448234439092,1.3975448234439092)rotate(0)translate(-42,-59.967935)" x="-500" y="-500" width="1100" height="1100" fill="#333333"></rect></g><g mask="url(#mask_15)"><g transform="translate(38.382530212402344,58.66551399230957)scale(1.3975448234439092,1.3975448234439092)rotate(0)translate(-42,-59.967935)"><rect y="-1000" fill="#989898" width="2000" x="-1000" height="2000"></rect><g></g></g></g><g mask="url(#mask_14)"><g fill="#333333" stroke="none" stroke-width="0" style="clip-rule:evenodd" transform="translate(0,-3.6478042602539062)"><path d="M76.7 84.8L60.4 69.2V7h1.3l2.9-3.3H34.5L37.2 7h1.5v1.8c-2.1 0-3.8 0-4.3.1-1.4.1-2.8 1.3-2.7 2.6 0 1.2 4 51.3 4.6 59.3L22 84.8h-.1v3.6H37l-.5 6.8 4.1.3.5-7.1H57l.5 7.1 4.1-.3-.5-6.8h15.6v-3.6zM56.7 65h-3.4c-.2 1.9-1.8 3.4-3.7 3.4S46 66.9 45.8 65h-3.2c-.2 0-.4-.2-.4-.4s.2-.4.4-.4h3.2c.2-1.9 1.8-3.4 3.7-3.4s3.5 1.5 3.7 3.4h3.4c.2 0 .4.2.4.4.1.2-.1.4-.3.4zm-14.2 7.6h13.1l2 12.3h-17l1.9-12.3zm18.1 12.2l-2-12.3h.9l12.8 12.3H60.6zm-2.5-25.9H41V26.5h17v32.4zM41 9.5h7.8c-.7.3-1.3 1-1.3 1.9 0 1.1.9 2 2 2 .6 0 1.1-.3 1.5-.7-.6 2.5-1.9 7.4-1.9 7.4l-.3.7h-.6c-.5 0-.9.4-.9.9 0 .3.1.5.4.7H41V9.5zm17.1 13h-6.9c.2-.2.4-.4.4-.7 0-.5-.4-.9-.9-.9h-1v-.2c.4-1.1 2.5-7.4 2.5-9.2 0-1.9-1.1-2.6-1.3-2.6V7h7.2v15.5zM49.2 7v1.9h-8.1V7h8.1zM38.7 9.5v1.1h-2.5c-.3-.6-1-1-1.8-1 .5-.1 2.2-.1 4.3-.1zm-6.3 2c0 1.1.9 2 2 2 .8 0 1.5-.5 1.8-1.2h2.4V68.5l-1.8 1.8-4.4-58.8zm6.5 61.1h.7l-2 12.3H26.4l12.5-12.3z"></path><path d="M43.7 31.8v7.8l11.8-5.8v-6.5H43.7z"></path><text x="0" y="115" fill="none" font-size="5" font-weight="bold" font-family="&#x27;Helvetica Neue&#x27;, Helvetica, Arial-Unicode, Arial, Sans-serif">Created by Lexi Larson</text><text x="0" y="120" fill="none" font-size="5" font-weight="bold" font-family="&#x27;Helvetica Neue&#x27;, Helvetica, Arial-Unicode, Arial, Sans-serif">from the Noun Project</text></g></g><g mask="url(#mask_12)"><rect transform="translate(38.382530212402344,58.66551399230957)scale(1.3975448234439092,1.3975448234439092)rotate(0)translate(-42,-59.967935)" x="-500" y="-500" width="1100" height="1100" fill="#001040" style="opacity:1"></rect></g></g></g></g></g></g></g></g></svg>