<svg viewBox="-10 -10 1020 1219.3587" xmlns="http://www.w3.org/2000/svg" xmlns:xlink="http://www.w3.org/1999/xlink" version="1.1" width="1020" height="1219.3587"><style></style><g transform="translate(500,599.67935)scale(10,10)translate(-50,-59.967935)" style="transition:transform 0.5s"><g><g></g></g><g transform="translate(0,0)" style="transition:transform 0.5s"></g><g style="transition:transform 0.5s"><g><metadata xmlns:rdf="http://www.w3.org/1999/02/22-rdf-syntax-ns#" xmlns:cc="http://creativecommons.org/ns#" xmlns:dc="http://purl.org/dc/elements/1.1/"><rdf:RDF><rdf:Description dc:title="Hold of Belkzen" dc:creator="kosen"></rdf:Description><cc:Work rdf:about="https://heraldicon.org/arms/Ghpb21/1"><cc:license rdf:resource="private"></cc:license><cc:attributionName>Hold of Belkzen by kosen</cc:attributionName><cc:attributionURL rdf:resource="https://heraldicon.org/users/kosen"></cc:attributionURL></cc:Work><cc:License rdf:about="private"></cc:License></rdf:RDF></metadata><defs><pattern width="20" height="20" patternUnits="userSpaceOnUse" id="void"><rect x="0" y="0" width="20" height="20" fill="#fff" class="light"></rect><rect x="0" y="0" width="10" height="10" fill="#ddd" class="dark"></rect><rect x="10" y="10" width="10" height="10" fill="#ddd" class="dark"></rect></pattern><pattern width="4" height="4" patternUnits="userSpaceOnUse" id="selected"><rect x="0" y="0" width="4" height="4" fill="#f5f5f5"></rect><g fill="#000"><circle cx="0" cy="0" r="0.3"></circle><circle cx="4" cy="0" r="0.3"></circle><circle cx="0" cy="4" r="0.3"></circle><circle cx="4" cy="4" r="0.3"></circle><circle cx="2" cy="2" r="0.3"></circle></g></pattern><pattern id="ermine" width="12.5" height="20" patternUnits="userSpaceOnUse" x="-3.125" y="-5"><rect x="0" y="0" width="12.5" height="20" fill="#f6f6f6"></rect><g fill="#333333"><path d="M 47.757634,0 C 60.324696,15.689314 25.136924,21.898666 44.167046,36.607392
    52.24587,41.673746 71.273896,30.723464 54.57765,17.322176
    52.423302,16.178163 62.11999,8.3349512 47.757634,0 Z m 21.182372,36.935142 c
    -3.23154,0.326846 -6.282816,2.290268 -9.155302,7.193166 -3.590588,8.33495
    12.209402,22.716724 22.98117,5.06625 C 83.483996,47.069952 94.0755,53.93163
    100,39.386326 89.946316,49.845864 79.713166,37.425428 70.377642,36.935142 Z
    M 29.80469,37.099022 C 20.469164,37.58931 10.053647,50.173186 0,39.55021
    5.9244804,54.095512 16.51881,47.070414 17.416458,49.358438 28.0087,67.008916
    43.805884,52.627142 40.215296,44.292192 36.983772,38.73555 33.395278,36.9356
    29.80469,37.099026 Z m 21.003542,10.13249 c -8.25835,37.262136
    -23.51556,63.576958 -40.211787,82.534868 7.001653,-1.96117
    14.718613,-7.19213 22.258843,-11.93164 -4.667764,9.80582 -9.154602,18.14082
    -13.822364,26.80264 2.692942,-0.98059 11.489886,-9.64435 23.338826,-22.3919
    1.795296,17.48703 4.305204,25.8241 8.07532,37.75452 3.052012,-11.93042
    5.208468,-19.9411 7.54234,-37.9184 7.181178,8.00805 14.001888,16.17984
    23.696484,23.04393 L 68.221186,117.34659 c 7.001634,4.41265
    14.72282,10.29262 22.083522,12.74406 C 72.710832,110.15215
    57.989412,84.493648 50.808232,47.231516 Z" transform="scale(0.0625,0.0625)"></path><path d="M 47.757634,0 C 60.324696,15.689314 25.136924,21.898666 44.167046,36.607392
    52.24587,41.673746 71.273896,30.723464 54.57765,17.322176
    52.423302,16.178163 62.11999,8.3349512 47.757634,0 Z m 21.182372,36.935142 c
    -3.23154,0.326846 -6.282816,2.290268 -9.155302,7.193166 -3.590588,8.33495
    12.209402,22.716724 22.98117,5.06625 C 83.483996,47.069952 94.0755,53.93163
    100,39.386326 89.946316,49.845864 79.713166,37.425428 70.377642,36.935142 Z
    M 29.80469,37.099022 C 20.469164,37.58931 10.053647,50.173186 0,39.55021
    5.9244804,54.095512 16.51881,47.070414 17.416458,49.358438 28.0087,67.008916
    43.805884,52.627142 40.215296,44.292192 36.983772,38.73555 33.395278,36.9356
    29.80469,37.099026 Z m 21.003542,10.13249 c -8.25835,37.262136
    -23.51556,63.576958 -40.211787,82.534868 7.001653,-1.96117
    14.718613,-7.19213 22.258843,-11.93164 -4.667764,9.80582 -9.154602,18.14082
    -13.822364,26.80264 2.692942,-0.98059 11.489886,-9.64435 23.338826,-22.3919
    1.795296,17.48703 4.305204,25.8241 8.07532,37.75452 3.052012,-11.93042
    5.208468,-19.9411 7.54234,-37.9184 7.181178,8.00805 14.001888,16.17984
    23.696484,23.04393 L 68.221186,117.34659 c 7.001634,4.41265
    14.72282,10.29262 22.083522,12.74406 C 72.710832,110.15215
    57.989412,84.493648 50.808232,47.231516 Z" transform="translate(6.25,10) scale(0.0625,0.0625)"></path></g></pattern><pattern id="ermines" width="12.5" height="20" patternUnits="userSpaceOnUse" x="-3.125" y="-5"><rect x="0" y="0" width="12.5" height="20" fill="#333333"></rect><g fill="#f6f6f6"><path d="M 47.757634,0 C 60.324696,15.689314 25.136924,21.898666 44.167046,36.607392
    52.24587,41.673746 71.273896,30.723464 54.57765,17.322176
    52.423302,16.178163 62.11999,8.3349512 47.757634,0 Z m 21.182372,36.935142 c
    -3.23154,0.326846 -6.282816,2.290268 -9.155302,7.193166 -3.590588,8.33495
    12.209402,22.716724 22.98117,5.06625 C 83.483996,47.069952 94.0755,53.93163
    100,39.386326 89.946316,49.845864 79.713166,37.425428 70.377642,36.935142 Z
    M 29.80469,37.099022 C 20.469164,37.58931 10.053647,50.173186 0,39.55021
    5.9244804,54.095512 16.51881,47.070414 17.416458,49.358438 28.0087,67.008916
    43.805884,52.627142 40.215296,44.292192 36.983772,38.73555 33.395278,36.9356
    29.80469,37.099026 Z m 21.003542,10.13249 c -8.25835,37.262136
    -23.51556,63.576958 -40.211787,82.534868 7.001653,-1.96117
    14.718613,-7.19213 22.258843,-11.93164 -4.667764,9.80582 -9.154602,18.14082
    -13.822364,26.80264 2.692942,-0.98059 11.489886,-9.64435 23.338826,-22.3919
    1.795296,17.48703 4.305204,25.8241 8.07532,37.75452 3.052012,-11.93042
    5.208468,-19.9411 7.54234,-37.9184 7.181178,8.00805 14.001888,16.17984
    23.696484,23.04393 L 68.221186,117.34659 c 7.001634,4.41265
    14.72282,10.29262 22.083522,12.74406 C 72.710832,110.15215
    57.989412,84.493648 50.808232,47.231516 Z" transform="scale(0.0625,0.0625)"></path><path d="M 47.757634,0 C 60.324696,15.689314 25.136924,21.898666 44.167046,36.607392
    52.24587,41.673746 71.273896,30.723464 54.57765,17.322176
    52.423302,16.178163 62.11999,8.3349512 47.757634,0 Z m 21.182372,36.935142 c
    -3.23154,0.326846 -6.282816,2.290268 -9.155302,7.193166 -3.590588,8.33495
    12.209402,22.716724 22.98117,5.06625 C 83.483996,47.069952 94.0755,53.93163
    100,39.386326 89.946316,49.845864 79.713166,37.425428 70.377642,36.935142 Z
    M 29.80469,37.099022 C 20.469164,37.58931 10.053647,50.173186 0,39.55021
    5.9244804,54.095512 16.51881,47.070414 17.416458,49.358438 28.0087,67.008916
    43.805884,52.627142 40.215296,44.292192 36.983772,38.73555 33.395278,36.9356
    29.80469,37.099026 Z m 21.003542,10.13249 c -8.25835,37.262136
    -23.51556,63.576958 -40.211787,82.534868 7.001653,-1.96117
    14.718613,-7.19213 22.258843,-11.93164 -4.667764,9.80582 -9.154602,18.14082
    -13.822364,26.80264 2.692942,-0.98059 11.489886,-9.64435 23.338826,-22.3919
    1.795296,17.48703 4.305204,25.8241 8.07532,37.75452 3.052012,-11.93042
    5.208468,-19.9411 7.54234,-37.9184 7.181178,8.00805 14.001888,16.17984
    23.696484,23.04393 L 68.221186,117.34659 c 7.001634,4.41265
    14.72282,10.29262 22.083522,12.74406 C 72.710832,110.15215
    57.989412,84.493648 50.808232,47.231516 Z" transform="translate(6.25,10) scale(0.0625,0.0625)"></path></g></pattern><pattern id="erminois" width="12.5" height="20" patternUnits="userSpaceOnUse" x="-3.125" y="-5"><rect x="0" y="0" width="12.5" height="20" fill="#f2bc51"></rect><g fill="#333333"><path d="M 47.757634,0 C 60.324696,15.689314 25.136924,21.898666 44.167046,36.607392
    52.24587,41.673746 71.273896,30.723464 54.57765,17.322176
    52.423302,16.178163 62.11999,8.3349512 47.757634,0 Z m 21.182372,36.935142 c
    -3.23154,0.326846 -6.282816,2.290268 -9.155302,7.193166 -3.590588,8.33495
    12.209402,22.716724 22.98117,5.06625 C 83.483996,47.069952 94.0755,53.93163
    100,39.386326 89.946316,49.845864 79.713166,37.425428 70.377642,36.935142 Z
    M 29.80469,37.099022 C 20.469164,37.58931 10.053647,50.173186 0,39.55021
    5.9244804,54.095512 16.51881,47.070414 17.416458,49.358438 28.0087,67.008916
    43.805884,52.627142 40.215296,44.292192 36.983772,38.73555 33.395278,36.9356
    29.80469,37.099026 Z m 21.003542,10.13249 c -8.25835,37.262136
    -23.51556,63.576958 -40.211787,82.534868 7.001653,-1.96117
    14.718613,-7.19213 22.258843,-11.93164 -4.667764,9.80582 -9.154602,18.14082
    -13.822364,26.80264 2.692942,-0.98059 11.489886,-9.64435 23.338826,-22.3919
    1.795296,17.48703 4.305204,25.8241 8.07532,37.75452 3.052012,-11.93042
    5.208468,-19.9411 7.54234,-37.9184 7.181178,8.00805 14.001888,16.17984
    23.696484,23.04393 L 68.221186,117.34659 c 7.001634,4.41265
    14.72282,10.29262 22.083522,12.74406 C 72.710832,110.15215
    57.989412,84.493648 50.808232,47.231516 Z" transform="scale(0.0625,0.0625)"></path><path d="M 47.757634,0 C 60.324696,15.689314 25.136924,21.898666 44.167046,36.607392
    52.24587,41.673746 71.273896,30.723464 54.57765,17.322176
    52.423302,16.178163 62.11999,8.3349512 47.757634,0 Z m 21.182372,36.935142 c
    -3.23154,0.326846 -6.282816,2.290268 -9.155302,7.193166 -3.590588,8.33495
    12.209402,22.716724 22.98117,5.06625 C 83.483996,47.069952 94.0755,53.93163
    100,39.386326 89.946316,49.845864 79.713166,37.425428 70.377642,36.935142 Z
    M 29.80469,37.099022 C 20.469164,37.58931 10.053647,50.173186 0,39.55021
    5.9244804,54.095512 16.51881,47.070414 17.416458,49.358438 28.0087,67.008916
    43.805884,52.627142 40.215296,44.292192 36.983772,38.73555 33.395278,36.9356
    29.80469,37.099026 Z m 21.003542,10.13249 c -8.25835,37.262136
    -23.51556,63.576958 -40.211787,82.534868 7.001653,-1.96117
    14.718613,-7.19213 22.258843,-11.93164 -4.667764,9.80582 -9.154602,18.14082
    -13.822364,26.80264 2.692942,-0.98059 11.489886,-9.64435 23.338826,-22.3919
    1.795296,17.48703 4.305204,25.8241 8.07532,37.75452 3.052012,-11.93042
    5.208468,-19.9411 7.54234,-37.9184 7.181178,8.00805 14.001888,16.17984
    23.696484,23.04393 L 68.221186,117.34659 c 7.001634,4.41265
    14.72282,10.29262 22.083522,12.74406 C 72.710832,110.15215
    57.989412,84.493648 50.808232,47.231516 Z" transform="translate(6.25,10) scale(0.0625,0.0625)"></path></g></pattern><pattern id="pean" width="12.5" height="20" patternUnits="userSpaceOnUse" x="-3.125" y="-5"><rect x="0" y="0" width="12.5" height="20" fill="#333333"></rect><g fill="#f2bc51"><path d="M 47.757634,0 C 60.324696,15.689314 25.136924,21.898666 44.167046,36.607392
    52.24587,41.673746 71.273896,30.723464 54.57765,17.322176
    52.423302,16.178163 62.11999,8.3349512 47.757634,0 Z m 21.182372,36.935142 c
    -3.23154,0.326846 -6.282816,2.290268 -9.155302,7.193166 -3.590588,8.33495
    12.209402,22.716724 22.98117,5.06625 C 83.483996,47.069952 94.0755,53.93163
    100,39.386326 89.946316,49.845864 79.713166,37.425428 70.377642,36.935142 Z
    M 29.80469,37.099022 C 20.469164,37.58931 10.053647,50.173186 0,39.55021
    5.9244804,54.095512 16.51881,47.070414 17.416458,49.358438 28.0087,67.008916
    43.805884,52.627142 40.215296,44.292192 36.983772,38.73555 33.395278,36.9356
    29.80469,37.099026 Z m 21.003542,10.13249 c -8.25835,37.262136
    -23.51556,63.576958 -40.211787,82.534868 7.001653,-1.96117
    14.718613,-7.19213 22.258843,-11.93164 -4.667764,9.80582 -9.154602,18.14082
    -13.822364,26.80264 2.692942,-0.98059 11.489886,-9.64435 23.338826,-22.3919
    1.795296,17.48703 4.305204,25.8241 8.07532,37.75452 3.052012,-11.93042
    5.208468,-19.9411 7.54234,-37.9184 7.181178,8.00805 14.001888,16.17984
    23.696484,23.04393 L 68.221186,117.34659 c 7.001634,4.41265
    14.72282,10.29262 22.083522,12.74406 C 72.710832,110.15215
    57.989412,84.493648 50.808232,47.231516 Z" transform="scale(0.0625,0.0625)"></path><path d="M 47.757634,0 C 60.324696,15.689314 25.136924,21.898666 44.167046,36.607392
    52.24587,41.673746 71.273896,30.723464 54.57765,17.322176
    52.423302,16.178163 62.11999,8.3349512 47.757634,0 Z m 21.182372,36.935142 c
    -3.23154,0.326846 -6.282816,2.290268 -9.155302,7.193166 -3.590588,8.33495
    12.209402,22.716724 22.98117,5.06625 C 83.483996,47.069952 94.0755,53.93163
    100,39.386326 89.946316,49.845864 79.713166,37.425428 70.377642,36.935142 Z
    M 29.80469,37.099022 C 20.469164,37.58931 10.053647,50.173186 0,39.55021
    5.9244804,54.095512 16.51881,47.070414 17.416458,49.358438 28.0087,67.008916
    43.805884,52.627142 40.215296,44.292192 36.983772,38.73555 33.395278,36.9356
    29.80469,37.099026 Z m 21.003542,10.13249 c -8.25835,37.262136
    -23.51556,63.576958 -40.211787,82.534868 7.001653,-1.96117
    14.718613,-7.19213 22.258843,-11.93164 -4.667764,9.80582 -9.154602,18.14082
    -13.822364,26.80264 2.692942,-0.98059 11.489886,-9.64435 23.338826,-22.3919
    1.795296,17.48703 4.305204,25.8241 8.07532,37.75452 3.052012,-11.93042
    5.208468,-19.9411 7.54234,-37.9184 7.181178,8.00805 14.001888,16.17984
    23.696484,23.04393 L 68.221186,117.34659 c 7.001634,4.41265
    14.72282,10.29262 22.083522,12.74406 C 72.710832,110.15215
    57.989412,84.493648 50.808232,47.231516 Z" transform="translate(6.25,10) scale(0.0625,0.0625)"></path></g></pattern></defs><defs><mask id="mask_3"><path d="M50,0h50v33.33333c0,35.72656 -19.05989,68.73926 -50,86.60254c-30.94011,-17.86328 -50,-50.87598 -50,-86.60254v-33.33333z" clip-rule="evenodd" fill-rule="evenodd" fill="#fff" stroke="none"></path></mask></defs><g mask="url(#mask_3)"><g><g><path d="M50,0h50v33.33333c0,35.72656 -19.05989,68.73926 -50,86.60254c-30.94011,-17.86328 -50,-50.87598 -50,-86.60254v-33.33333z" fill-rule="evenodd" fill="#f0f0f0"></path><rect y="-1000" fill="#f6f6f6" width="2000" x="-1000" height="2000"></rect><g></g></g></g></g><g stroke="#333333" stroke-width="0.5" fill="none" stroke-linecap="round" stroke-linejoin="round"><path d="M50,0h50v33.33333c0,35.72656 -19.05989,68.73926 -50,86.60254c-30.94011,-17.86328 -50,-50.87598 -50,-86.60254v-33.33333z"></path></g></g></g><g transform="translate(0,0)" style="transition:transform 0.5s"></g><g><g><g><defs><mask id="mask_8"><g fill="#000" stroke="none" stroke-width="0" id="unique-id_2126_11" transform="translate(-33.75,-60.742)"><path d="M85.768 78.182c-2.854 3.163-5.862 7.643-7.275 12.117-.824 2.12-.928 3.667-3.283-.454-.203-5.396 1.675-12.906 2.734-18.217-9.125 4.805-11.716 17.313-13.698 26.677-7.065 21.312-11.068 35.441-11.186 39.444l-.117 3.533-1.178-3.533c-.589-2.001-1.06-5.887-.942-8.595-.564-5.249-2.258-10.092-5.642-13.519-1.758-10.925-.84-11.837-1.356-18.38-9.634 3.412-10.093 34.372-10.075 47.559 1.06 13.305 3.062 26.61 4.122 28.73.588 1.059 2.825 5.886 4.945 10.714 2.12 4.827 6.358 12.127 9.301 16.013 3.062 4.003 7.065 9.655 9.067 12.599l3.767 5.298-2.59 3.297c-1.413 1.884-7.535 8.595-13.776 14.835l-11.185 11.422 3.296 11.538c4.828 16.72 9.302 25.197 17.662 33.91 6.711 7.183 7.535 7.654 12.363 7.654 3.768 0 7.182-1.178 12.363-4.121 11.892-6.83 12.01-6.947 12.952-18.604.942-11.539 7.3-35.676 11.42-43.565 9.538-17.897 8.478-16.72 19.664-22.37 18.132-9.185 22.607-12.482 22.607-16.838 0-4.121 26.091-48.203 22.065-62.89-4.983 4.844-5.914 14.226-13.259 19.255-3.061.47-4.568 1.13-7.394 2.896-5.18 2.943-12.01 10.95-12.01 13.893 0 .825-2.119 3.533-4.827 6.123l-4.827 4.592-4.592-2.355c-2.473-1.177-4.592-2.826-4.592-3.414 0-.707-1.295-3.65-2.826-6.83-1.766-3.414-2.59-6.71-2.237-8.595.942-4.592-.707-11.303-3.18-13.776-1.883-1.884-2.119-2.826-1.059-5.77.942-2.707.824-4.356-.47-7.064-1.65-3.297-1.532-3.885 1.177-9.184 1.883-3.768 2.708-7.3 2.59-10.361-.236-2.944.18-6.712 1.711-10.008 3.15-8.141 1.025-14.854.8-19.697.552-6.136 1.78-9.89 5.34-19.434-15.48 4.202-16.052 30.365-23.2 43.82-1.648 3.532-2.195 5.79-3.961 10.617-1.884 4.828-3.532 8.125-3.886 7.3-.235-.706-1.295-1.413-2.237-1.413-1.295 0-1.53-.588-.942-2.119 2.473-5.77 4.121-12.952 4.121-17.426 0-2.826.59-5.416 1.296-5.887 2.237-1.295 6.118-12.956 4.625-18.855-.547-2.162 2.882-8.914 8.965-18.002-10.847 1.539-17.618 12.37-21.151 17.44z" stroke="none" stroke-dasharray="none" stroke-opacity="1" fill="#000" fill-opacity="1" id="unique-id_2121_12"></path><path d="M96.154 79.937c.942 4.828-2.119 12.363-7.535 18.25-4.121 4.593-4.592 6.241-1.649 5.77 1.178-.235 2.12.471 2.12 1.413.235 3.179-3.062 13.423-6.005 18.721-3.18 5.652-2.708 8.124.706 3.886 1.178-1.413 2.708-2.59 3.415-2.59 2.708 0 6.829 12.127 5.063 14.953-.471.706-3.65 2.355-7.182 3.767l-6.24 2.355 2.119-2.472c2.237-2.473 2.237-2.473 0-1.649-2.238.825-2.238.707-.118-1.648 1.295-1.53 1.648-2.355.706-2.355-.824 0-2.472 1.177-3.768 2.59-1.648 2.12-2.119 2.355-2.237.825 0-1.06-1.06-3.297-2.355-4.946-2.119-2.708-2.237-3.179-.588-6.24 1.06-2.12 1.766-6.594 1.766-11.421 0-4.474.589-9.066 1.177-10.244.707-1.295 1.766-5.063 2.355-8.36 1.178-5.887 7.05-16.883 10.564-19.903.782-.672 5.81-6.096 7.686-.702zM115.347 92.418c-.354 6.358-1.06 8.595-4.24 13.187-4.12 5.888-4.827 8.713-2 7.536 3.65-1.413 1.294 8.36-3.298 13.187l-2.59 2.708 2.826 2.12c4.003 3.061 3.061 7.653-1.766 7.889-1.884.117-4.71.47-6.005.941-2.12.707-2.473.118-3.18-6.004-.706-6.594.472-11.893 5.181-22.136 5.299-11.892 6.997-19.419 8.175-23.304 1.834-5.779 5.36-8.723 6.042-5.02.465 1.819 1.09 4.657.855 8.896z" stroke="none" stroke-dasharray="none" stroke-opacity="1" fill="#000" fill-opacity="1" id="unique-id_2122_13"></path><path d="M74.372 97.834c0 6.123-1.884 11.775-5.652 16.72-2.001 2.826-2.472 4.356-1.53 5.298.824.825 1.412.707 2.001-.706 1.178-3.297 2.826-2.237 2.826 2.002 0 2.119-1.53 7.064-3.532 10.832-4.121 8.124-4.357 9.89-1.178 6.947 3.062-2.708 4.24-1.53 5.063 5.298.707 5.299.707 5.299-5.77 10.362-6.593 5.18-7.3 5.298-5.062 1.177 1.884-3.415.235-4.003-2.355-.824l-2.237 2.826-.942-3.415c-1.413-5.77.353-20.84 4.239-34.263 2.001-7.182 4.12-14.012 4.71-15.307.588-1.295 2.596-5.33 3.773-8.861 1.122-4.37 2.114-4.995 2.963-5.274 1.803-.087 2.565 2.36 2.683 7.188z" stroke="none" stroke-dasharray="none" stroke-opacity="1" fill="#000" fill-opacity="1" id="unique-id_2123_14"></path><path d="M47.173 124.327c.942 2.825-.353 8.242-4.003 16.601-1.413 3.415 1.53 2.473 3.297-.942l1.648-3.179.707 3.533c.824 3.885-.707 11.774-2.59 13.658-1.767 1.766-1.65 3.179.353 3.179.941 0 2.119-1.177 2.59-2.59l.824-2.59 2.12 2.707c2.354 2.944 2.943 8.831 1.177 13.305-1.649 4.592-2.59 11.54-1.53 11.54.47 0 1.883-2.827 2.943-6.241 4.003-12.481 20.605-24.49 40.974-29.79l7.654-2 3.768 2.707c4.827 3.65 6.122 9.42 3.179 14.836-3.533 6.593-21.43 17.426-36.148 22.136-1.177.353-2.119 1.295-2.119 2.001 0 2.002 4.945.471 16.837-5.298 5.652-2.708 10.244-4.71 10.244-4.474 0 .235-2.826 3.767-6.24 7.653-8.949 10.361-12.834 15.895-12.363 17.308.353 1.178 6.004-5.298 21.782-24.961 2.002-2.473 5.18-5.77 6.83-7.065 2.59-2.002 3.296-2.237 4.238-.824 1.06 1.648.589 2.237-5.416 6.476-2.12 1.53-2.12 1.766-.471 3.532 1.766 1.648 2.237 1.53 5.534-1.295 3.65-3.062 3.767-3.062 3.767-.589 0 1.53-1.295 3.18-3.65 4.474-5.416 2.944-24.02 17.309-26.492 20.488-1.295 1.53-4.003 3.885-6.005 5.063-4.003 2.354-4.71 3.532-2.826 4.592.59.353 1.767-.236 2.59-1.296 1.531-1.648 1.767-1.53 2.238 1.413.353 1.884 1.177 3.533 1.884 3.768.824.236 1.177-.589.824-2.355-.47-2.12.236-3.414 2.12-4.827 2.472-1.766 2.237-2.473-.707-1.884-3.415.589 14.365-14.483 24.844-21.076 6.24-4.003 7.889-4.357 12.245-2.12 2.12 1.06 2.944 2.473 2.944 4.946 0 4.827 2.001 5.534 3.179 1.177.47-2.002 2.59-5.18 4.592-7.065l3.767-3.532-.706 3.768c-.706 3.415.706 6.24 2.355 4.71.235-.354.942-4.121 1.53-8.478 1.06-8.595 4.357-14.011 10.833-18.015 4.239-2.472 7.332-4.123 7.332-2.71 0 .47-.917 4.348-2.801 7.292-1.884 2.943-2.294 10.607-5.355 18.732-3.062 8.124-5.887 15.777-6.476 17.072-1.413 3.768-24.962 15.072-32.733 15.66-6.593.589-7.889 2.708-2.237 3.768l3.18.589-5.3 9.301c-4.944 8.596-11.774 28.965-14.6 43.448l-1.06 4.945-.117-4.239c-.118-2.237-.942-5.18-1.884-6.476-2.001-2.472-1.884-1.177.471 15.66.589 3.886.471 6.594-.353 7.418-2.002 2.002-3.061 1.295-3.061-2.12 0-4.71-2.237-12.01-3.768-12.01-.707 0-.942 1.06-.471 2.591.353 1.53 1.06 5.652 1.413 9.184l.706 6.476-5.416 2.59c-3.061 1.531-6.829 2.708-8.36 2.708-9.066 0-19.545-13.54-25.903-33.674-2.237-6.947-4.121-13.305-4.121-14.13 0-.824 4.356-6.122 9.772-11.774l9.773-10.243 2.708 4.592c1.649 2.59 3.062 3.885 3.297 3.061.353-.824-.589-3.415-2.002-5.887l-2.59-4.357 2.826 2.59c4.356 4.122 6.711 3.297 2.708-.824-2.59-2.708-3.061-3.885-2.002-4.945.942-.942 2.355-.588 5.77 1.649 2.472 1.648 5.651 3.414 7.182 3.885 3.061.942 11.892-2.708 12.01-5.063 0-1.884-2.355-1.766-5.18.353-1.296.942-3.533 1.767-4.828 1.767-4.357 0-12.363-6.359-18.015-14.365-3.061-4.239-7.065-9.537-8.83-11.892-3.533-4.474-13.306-25.55-14.248-30.731-2.59-14.13-3.283-31.235-1.87-39.83 2.084-11.925 4.31-11.732 5.403-9.74 1.53 2.002 3.297 4.945 3.885 6.594z" stroke="none" stroke-dasharray="none" stroke-opacity="1" fill="#000" fill-opacity="1" id="unique-id_2124_15"></path><path stroke="none" stroke-opacity="1" fill="#fff" stroke-linejoin="miter" stroke-linecap="butt" stroke-width="1px" id="unique-id_2125_16" d="M155.823 173.337s16.4-28.841 15.02-36.99c0 0-5.697 13.18-9.753 17.017 0 0-.768 5.95-2.692 8.99-2.049 3.94-2.575 10.983-2.575 10.983zM108.703 84.977s3.385-15.484 11.484-20.465c0 0-5.904 10.557-5.894 16.142-1.588-2.015-3.502.03-5.59 4.323zM86.431 81.05s8.512-15.015 18.201-18.79c0 0-4.783 6.368-8.96 14.205 0 0-1.983-2.654-7.436 2.435-.81 1.04-1.805 2.15-1.805 2.15zM66.164 98.045s2.704-16.735 9.673-23.203c0 0-2.894 7.564-3.196 14.134-1.891-.61-3.545.879-4.315 3.75-.6 1.63-1.549 4.113-2.162 5.32zM37.197 124.6s-.296-16.776 5.168-24.557c0 0-1.126 8.374-.048 14.862-1.884-1.378-2.92.673-3.84 4.32-.617 2.224-.932 4.068-1.28 5.376z" fill-opacity="1"></path></g></mask><mask id="mask_9"><g fill="#000" stroke="none" stroke-width="0" id="unique-id_2126_17" transform="translate(-33.75,-60.742)"><path d="M85.768 78.182c-2.854 3.163-5.862 7.643-7.275 12.117-.824 2.12-.928 3.667-3.283-.454-.203-5.396 1.675-12.906 2.734-18.217-9.125 4.805-11.716 17.313-13.698 26.677-7.065 21.312-11.068 35.441-11.186 39.444l-.117 3.533-1.178-3.533c-.589-2.001-1.06-5.887-.942-8.595-.564-5.249-2.258-10.092-5.642-13.519-1.758-10.925-.84-11.837-1.356-18.38-9.634 3.412-10.093 34.372-10.075 47.559 1.06 13.305 3.062 26.61 4.122 28.73.588 1.059 2.825 5.886 4.945 10.714 2.12 4.827 6.358 12.127 9.301 16.013 3.062 4.003 7.065 9.655 9.067 12.599l3.767 5.298-2.59 3.297c-1.413 1.884-7.535 8.595-13.776 14.835l-11.185 11.422 3.296 11.538c4.828 16.72 9.302 25.197 17.662 33.91 6.711 7.183 7.535 7.654 12.363 7.654 3.768 0 7.182-1.178 12.363-4.121 11.892-6.83 12.01-6.947 12.952-18.604.942-11.539 7.3-35.676 11.42-43.565 9.538-17.897 8.478-16.72 19.664-22.37 18.132-9.185 22.607-12.482 22.607-16.838 0-4.121 26.091-48.203 22.065-62.89-4.983 4.844-5.914 14.226-13.259 19.255-3.061.47-4.568 1.13-7.394 2.896-5.18 2.943-12.01 10.95-12.01 13.893 0 .825-2.119 3.533-4.827 6.123l-4.827 4.592-4.592-2.355c-2.473-1.177-4.592-2.826-4.592-3.414 0-.707-1.295-3.65-2.826-6.83-1.766-3.414-2.59-6.71-2.237-8.595.942-4.592-.707-11.303-3.18-13.776-1.883-1.884-2.119-2.826-1.059-5.77.942-2.707.824-4.356-.47-7.064-1.65-3.297-1.532-3.885 1.177-9.184 1.883-3.768 2.708-7.3 2.59-10.361-.236-2.944.18-6.712 1.711-10.008 3.15-8.141 1.025-14.854.8-19.697.552-6.136 1.78-9.89 5.34-19.434-15.48 4.202-16.052 30.365-23.2 43.82-1.648 3.532-2.195 5.79-3.961 10.617-1.884 4.828-3.532 8.125-3.886 7.3-.235-.706-1.295-1.413-2.237-1.413-1.295 0-1.53-.588-.942-2.119 2.473-5.77 4.121-12.952 4.121-17.426 0-2.826.59-5.416 1.296-5.887 2.237-1.295 6.118-12.956 4.625-18.855-.547-2.162 2.882-8.914 8.965-18.002-10.847 1.539-17.618 12.37-21.151 17.44z" stroke="none" stroke-dasharray="none" stroke-opacity="1" fill="#000" fill-opacity="1" id="unique-id_2121_18"></path><path d="M96.154 79.937c.942 4.828-2.119 12.363-7.535 18.25-4.121 4.593-4.592 6.241-1.649 5.77 1.178-.235 2.12.471 2.12 1.413.235 3.179-3.062 13.423-6.005 18.721-3.18 5.652-2.708 8.124.706 3.886 1.178-1.413 2.708-2.59 3.415-2.59 2.708 0 6.829 12.127 5.063 14.953-.471.706-3.65 2.355-7.182 3.767l-6.24 2.355 2.119-2.472c2.237-2.473 2.237-2.473 0-1.649-2.238.825-2.238.707-.118-1.648 1.295-1.53 1.648-2.355.706-2.355-.824 0-2.472 1.177-3.768 2.59-1.648 2.12-2.119 2.355-2.237.825 0-1.06-1.06-3.297-2.355-4.946-2.119-2.708-2.237-3.179-.588-6.24 1.06-2.12 1.766-6.594 1.766-11.421 0-4.474.589-9.066 1.177-10.244.707-1.295 1.766-5.063 2.355-8.36 1.178-5.887 7.05-16.883 10.564-19.903.782-.672 5.81-6.096 7.686-.702zM115.347 92.418c-.354 6.358-1.06 8.595-4.24 13.187-4.12 5.888-4.827 8.713-2 7.536 3.65-1.413 1.294 8.36-3.298 13.187l-2.59 2.708 2.826 2.12c4.003 3.061 3.061 7.653-1.766 7.889-1.884.117-4.71.47-6.005.941-2.12.707-2.473.118-3.18-6.004-.706-6.594.472-11.893 5.181-22.136 5.299-11.892 6.997-19.419 8.175-23.304 1.834-5.779 5.36-8.723 6.042-5.02.465 1.819 1.09 4.657.855 8.896z" stroke="none" stroke-dasharray="none" stroke-opacity="1" fill="#fff" fill-opacity="1" id="unique-id_2122_19"></path><path d="M74.372 97.834c0 6.123-1.884 11.775-5.652 16.72-2.001 2.826-2.472 4.356-1.53 5.298.824.825 1.412.707 2.001-.706 1.178-3.297 2.826-2.237 2.826 2.002 0 2.119-1.53 7.064-3.532 10.832-4.121 8.124-4.357 9.89-1.178 6.947 3.062-2.708 4.24-1.53 5.063 5.298.707 5.299.707 5.299-5.77 10.362-6.593 5.18-7.3 5.298-5.062 1.177 1.884-3.415.235-4.003-2.355-.824l-2.237 2.826-.942-3.415c-1.413-5.77.353-20.84 4.239-34.263 2.001-7.182 4.12-14.012 4.71-15.307.588-1.295 2.596-5.33 3.773-8.861 1.122-4.37 2.114-4.995 2.963-5.274 1.803-.087 2.565 2.36 2.683 7.188z" stroke="none" stroke-dasharray="none" stroke-opacity="1" fill="#fff" fill-opacity="1" id="unique-id_2123_20"></path><path d="M47.173 124.327c.942 2.825-.353 8.242-4.003 16.601-1.413 3.415 1.53 2.473 3.297-.942l1.648-3.179.707 3.533c.824 3.885-.707 11.774-2.59 13.658-1.767 1.766-1.65 3.179.353 3.179.941 0 2.119-1.177 2.59-2.59l.824-2.59 2.12 2.707c2.354 2.944 2.943 8.831 1.177 13.305-1.649 4.592-2.59 11.54-1.53 11.54.47 0 1.883-2.827 2.943-6.241 4.003-12.481 20.605-24.49 40.974-29.79l7.654-2 3.768 2.707c4.827 3.65 6.122 9.42 3.179 14.836-3.533 6.593-21.43 17.426-36.148 22.136-1.177.353-2.119 1.295-2.119 2.001 0 2.002 4.945.471 16.837-5.298 5.652-2.708 10.244-4.71 10.244-4.474 0 .235-2.826 3.767-6.24 7.653-8.949 10.361-12.834 15.895-12.363 17.308.353 1.178 6.004-5.298 21.782-24.961 2.002-2.473 5.18-5.77 6.83-7.065 2.59-2.002 3.296-2.237 4.238-.824 1.06 1.648.589 2.237-5.416 6.476-2.12 1.53-2.12 1.766-.471 3.532 1.766 1.648 2.237 1.53 5.534-1.295 3.65-3.062 3.767-3.062 3.767-.589 0 1.53-1.295 3.18-3.65 4.474-5.416 2.944-24.02 17.309-26.492 20.488-1.295 1.53-4.003 3.885-6.005 5.063-4.003 2.354-4.71 3.532-2.826 4.592.59.353 1.767-.236 2.59-1.296 1.531-1.648 1.767-1.53 2.238 1.413.353 1.884 1.177 3.533 1.884 3.768.824.236 1.177-.589.824-2.355-.47-2.12.236-3.414 2.12-4.827 2.472-1.766 2.237-2.473-.707-1.884-3.415.589 14.365-14.483 24.844-21.076 6.24-4.003 7.889-4.357 12.245-2.12 2.12 1.06 2.944 2.473 2.944 4.946 0 4.827 2.001 5.534 3.179 1.177.47-2.002 2.59-5.18 4.592-7.065l3.767-3.532-.706 3.768c-.706 3.415.706 6.24 2.355 4.71.235-.354.942-4.121 1.53-8.478 1.06-8.595 4.357-14.011 10.833-18.015 4.239-2.472 7.332-4.123 7.332-2.71 0 .47-.917 4.348-2.801 7.292-1.884 2.943-2.294 10.607-5.355 18.732-3.062 8.124-5.887 15.777-6.476 17.072-1.413 3.768-24.962 15.072-32.733 15.66-6.593.589-7.889 2.708-2.237 3.768l3.18.589-5.3 9.301c-4.944 8.596-11.774 28.965-14.6 43.448l-1.06 4.945-.117-4.239c-.118-2.237-.942-5.18-1.884-6.476-2.001-2.472-1.884-1.177.471 15.66.589 3.886.471 6.594-.353 7.418-2.002 2.002-3.061 1.295-3.061-2.12 0-4.71-2.237-12.01-3.768-12.01-.707 0-.942 1.06-.471 2.591.353 1.53 1.06 5.652 1.413 9.184l.706 6.476-5.416 2.59c-3.061 1.531-6.829 2.708-8.36 2.708-9.066 0-19.545-13.54-25.903-33.674-2.237-6.947-4.121-13.305-4.121-14.13 0-.824 4.356-6.122 9.772-11.774l9.773-10.243 2.708 4.592c1.649 2.59 3.062 3.885 3.297 3.061.353-.824-.589-3.415-2.002-5.887l-2.59-4.357 2.826 2.59c4.356 4.122 6.711 3.297 2.708-.824-2.59-2.708-3.061-3.885-2.002-4.945.942-.942 2.355-.588 5.77 1.649 2.472 1.648 5.651 3.414 7.182 3.885 3.061.942 11.892-2.708 12.01-5.063 0-1.884-2.355-1.766-5.18.353-1.296.942-3.533 1.767-4.828 1.767-4.357 0-12.363-6.359-18.015-14.365-3.061-4.239-7.065-9.537-8.83-11.892-3.533-4.474-13.306-25.55-14.248-30.731-2.59-14.13-3.283-31.235-1.87-39.83 2.084-11.925 4.31-11.732 5.403-9.74 1.53 2.002 3.297 4.945 3.885 6.594z" stroke="none" stroke-dasharray="none" stroke-opacity="1" fill="#fff" fill-opacity="1" id="unique-id_2124_21"></path><path stroke="none" stroke-opacity="1" fill="#000" stroke-linejoin="miter" stroke-linecap="butt" stroke-width="1px" id="unique-id_2125_22" d="M155.823 173.337s16.4-28.841 15.02-36.99c0 0-5.697 13.18-9.753 17.017 0 0-.768 5.95-2.692 8.99-2.049 3.94-2.575 10.983-2.575 10.983zM108.703 84.977s3.385-15.484 11.484-20.465c0 0-5.904 10.557-5.894 16.142-1.588-2.015-3.502.03-5.59 4.323zM86.431 81.05s8.512-15.015 18.201-18.79c0 0-4.783 6.368-8.96 14.205 0 0-1.983-2.654-7.436 2.435-.81 1.04-1.805 2.15-1.805 2.15zM66.164 98.045s2.704-16.735 9.673-23.203c0 0-2.894 7.564-3.196 14.134-1.891-.61-3.545.879-4.315 3.75-.6 1.63-1.549 4.113-2.162 5.32zM37.197 124.6s-.296-16.776 5.168-24.557c0 0-1.126 8.374-.048 14.862-1.884-1.378-2.92.673-3.84 4.32-.617 2.224-.932 4.068-1.28 5.376z" fill-opacity="1"></path></g></mask><mask id="mask_10"><g fill="#fff" stroke="none" stroke-width="0" id="unique-id_2126_23" transform="translate(-33.75,-60.742)"><path d="M85.768 78.182c-2.854 3.163-5.862 7.643-7.275 12.117-.824 2.12-.928 3.667-3.283-.454-.203-5.396 1.675-12.906 2.734-18.217-9.125 4.805-11.716 17.313-13.698 26.677-7.065 21.312-11.068 35.441-11.186 39.444l-.117 3.533-1.178-3.533c-.589-2.001-1.06-5.887-.942-8.595-.564-5.249-2.258-10.092-5.642-13.519-1.758-10.925-.84-11.837-1.356-18.38-9.634 3.412-10.093 34.372-10.075 47.559 1.06 13.305 3.062 26.61 4.122 28.73.588 1.059 2.825 5.886 4.945 10.714 2.12 4.827 6.358 12.127 9.301 16.013 3.062 4.003 7.065 9.655 9.067 12.599l3.767 5.298-2.59 3.297c-1.413 1.884-7.535 8.595-13.776 14.835l-11.185 11.422 3.296 11.538c4.828 16.72 9.302 25.197 17.662 33.91 6.711 7.183 7.535 7.654 12.363 7.654 3.768 0 7.182-1.178 12.363-4.121 11.892-6.83 12.01-6.947 12.952-18.604.942-11.539 7.3-35.676 11.42-43.565 9.538-17.897 8.478-16.72 19.664-22.37 18.132-9.185 22.607-12.482 22.607-16.838 0-4.121 26.091-48.203 22.065-62.89-4.983 4.844-5.914 14.226-13.259 19.255-3.061.47-4.568 1.13-7.394 2.896-5.18 2.943-12.01 10.95-12.01 13.893 0 .825-2.119 3.533-4.827 6.123l-4.827 4.592-4.592-2.355c-2.473-1.177-4.592-2.826-4.592-3.414 0-.707-1.295-3.65-2.826-6.83-1.766-3.414-2.59-6.71-2.237-8.595.942-4.592-.707-11.303-3.18-13.776-1.883-1.884-2.119-2.826-1.059-5.77.942-2.707.824-4.356-.47-7.064-1.65-3.297-1.532-3.885 1.177-9.184 1.883-3.768 2.708-7.3 2.59-10.361-.236-2.944.18-6.712 1.711-10.008 3.15-8.141 1.025-14.854.8-19.697.552-6.136 1.78-9.89 5.34-19.434-15.48 4.202-16.052 30.365-23.2 43.82-1.648 3.532-2.195 5.79-3.961 10.617-1.884 4.828-3.532 8.125-3.886 7.3-.235-.706-1.295-1.413-2.237-1.413-1.295 0-1.53-.588-.942-2.119 2.473-5.77 4.121-12.952 4.121-17.426 0-2.826.59-5.416 1.296-5.887 2.237-1.295 6.118-12.956 4.625-18.855-.547-2.162 2.882-8.914 8.965-18.002-10.847 1.539-17.618 12.37-21.151 17.44z" stroke="none" stroke-dasharray="none" stroke-opacity="1" fill="#fff" fill-opacity="1" id="unique-id_2121_24"></path><path d="M96.154 79.937c.942 4.828-2.119 12.363-7.535 18.25-4.121 4.593-4.592 6.241-1.649 5.77 1.178-.235 2.12.471 2.12 1.413.235 3.179-3.062 13.423-6.005 18.721-3.18 5.652-2.708 8.124.706 3.886 1.178-1.413 2.708-2.59 3.415-2.59 2.708 0 6.829 12.127 5.063 14.953-.471.706-3.65 2.355-7.182 3.767l-6.24 2.355 2.119-2.472c2.237-2.473 2.237-2.473 0-1.649-2.238.825-2.238.707-.118-1.648 1.295-1.53 1.648-2.355.706-2.355-.824 0-2.472 1.177-3.768 2.59-1.648 2.12-2.119 2.355-2.237.825 0-1.06-1.06-3.297-2.355-4.946-2.119-2.708-2.237-3.179-.588-6.24 1.06-2.12 1.766-6.594 1.766-11.421 0-4.474.589-9.066 1.177-10.244.707-1.295 1.766-5.063 2.355-8.36 1.178-5.887 7.05-16.883 10.564-19.903.782-.672 5.81-6.096 7.686-.702zM115.347 92.418c-.354 6.358-1.06 8.595-4.24 13.187-4.12 5.888-4.827 8.713-2 7.536 3.65-1.413 1.294 8.36-3.298 13.187l-2.59 2.708 2.826 2.12c4.003 3.061 3.061 7.653-1.766 7.889-1.884.117-4.71.47-6.005.941-2.12.707-2.473.118-3.18-6.004-.706-6.594.472-11.893 5.181-22.136 5.299-11.892 6.997-19.419 8.175-23.304 1.834-5.779 5.36-8.723 6.042-5.02.465 1.819 1.09 4.657.855 8.896z" stroke="none" stroke-dasharray="none" stroke-opacity="1" fill="#fff" fill-opacity="1" id="unique-id_2122_25"></path><path d="M74.372 97.834c0 6.123-1.884 11.775-5.652 16.72-2.001 2.826-2.472 4.356-1.53 5.298.824.825 1.412.707 2.001-.706 1.178-3.297 2.826-2.237 2.826 2.002 0 2.119-1.53 7.064-3.532 10.832-4.121 8.124-4.357 9.89-1.178 6.947 3.062-2.708 4.24-1.53 5.063 5.298.707 5.299.707 5.299-5.77 10.362-6.593 5.18-7.3 5.298-5.062 1.177 1.884-3.415.235-4.003-2.355-.824l-2.237 2.826-.942-3.415c-1.413-5.77.353-20.84 4.239-34.263 2.001-7.182 4.12-14.012 4.71-15.307.588-1.295 2.596-5.33 3.773-8.861 1.122-4.37 2.114-4.995 2.963-5.274 1.803-.087 2.565 2.36 2.683 7.188z" stroke="none" stroke-dasharray="none" stroke-opacity="1" fill="#fff" fill-opacity="1" id="unique-id_2123_26"></path><path d="M47.173 124.327c.942 2.825-.353 8.242-4.003 16.601-1.413 3.415 1.53 2.473 3.297-.942l1.648-3.179.707 3.533c.824 3.885-.707 11.774-2.59 13.658-1.767 1.766-1.65 3.179.353 3.179.941 0 2.119-1.177 2.59-2.59l.824-2.59 2.12 2.707c2.354 2.944 2.943 8.831 1.177 13.305-1.649 4.592-2.59 11.54-1.53 11.54.47 0 1.883-2.827 2.943-6.241 4.003-12.481 20.605-24.49 40.974-29.79l7.654-2 3.768 2.707c4.827 3.65 6.122 9.42 3.179 14.836-3.533 6.593-21.43 17.426-36.148 22.136-1.177.353-2.119 1.295-2.119 2.001 0 2.002 4.945.471 16.837-5.298 5.652-2.708 10.244-4.71 10.244-4.474 0 .235-2.826 3.767-6.24 7.653-8.949 10.361-12.834 15.895-12.363 17.308.353 1.178 6.004-5.298 21.782-24.961 2.002-2.473 5.18-5.77 6.83-7.065 2.59-2.002 3.296-2.237 4.238-.824 1.06 1.648.589 2.237-5.416 6.476-2.12 1.53-2.12 1.766-.471 3.532 1.766 1.648 2.237 1.53 5.534-1.295 3.65-3.062 3.767-3.062 3.767-.589 0 1.53-1.295 3.18-3.65 4.474-5.416 2.944-24.02 17.309-26.492 20.488-1.295 1.53-4.003 3.885-6.005 5.063-4.003 2.354-4.71 3.532-2.826 4.592.59.353 1.767-.236 2.59-1.296 1.531-1.648 1.767-1.53 2.238 1.413.353 1.884 1.177 3.533 1.884 3.768.824.236 1.177-.589.824-2.355-.47-2.12.236-3.414 2.12-4.827 2.472-1.766 2.237-2.473-.707-1.884-3.415.589 14.365-14.483 24.844-21.076 6.24-4.003 7.889-4.357 12.245-2.12 2.12 1.06 2.944 2.473 2.944 4.946 0 4.827 2.001 5.534 3.179 1.177.47-2.002 2.59-5.18 4.592-7.065l3.767-3.532-.706 3.768c-.706 3.415.706 6.24 2.355 4.71.235-.354.942-4.121 1.53-8.478 1.06-8.595 4.357-14.011 10.833-18.015 4.239-2.472 7.332-4.123 7.332-2.71 0 .47-.917 4.348-2.801 7.292-1.884 2.943-2.294 10.607-5.355 18.732-3.062 8.124-5.887 15.777-6.476 17.072-1.413 3.768-24.962 15.072-32.733 15.66-6.593.589-7.889 2.708-2.237 3.768l3.18.589-5.3 9.301c-4.944 8.596-11.774 28.965-14.6 43.448l-1.06 4.945-.117-4.239c-.118-2.237-.942-5.18-1.884-6.476-2.001-2.472-1.884-1.177.471 15.66.589 3.886.471 6.594-.353 7.418-2.002 2.002-3.061 1.295-3.061-2.12 0-4.71-2.237-12.01-3.768-12.01-.707 0-.942 1.06-.471 2.591.353 1.53 1.06 5.652 1.413 9.184l.706 6.476-5.416 2.59c-3.061 1.531-6.829 2.708-8.36 2.708-9.066 0-19.545-13.54-25.903-33.674-2.237-6.947-4.121-13.305-4.121-14.13 0-.824 4.356-6.122 9.772-11.774l9.773-10.243 2.708 4.592c1.649 2.59 3.062 3.885 3.297 3.061.353-.824-.589-3.415-2.002-5.887l-2.59-4.357 2.826 2.59c4.356 4.122 6.711 3.297 2.708-.824-2.59-2.708-3.061-3.885-2.002-4.945.942-.942 2.355-.588 5.77 1.649 2.472 1.648 5.651 3.414 7.182 3.885 3.061.942 11.892-2.708 12.01-5.063 0-1.884-2.355-1.766-5.18.353-1.296.942-3.533 1.767-4.828 1.767-4.357 0-12.363-6.359-18.015-14.365-3.061-4.239-7.065-9.537-8.83-11.892-3.533-4.474-13.306-25.55-14.248-30.731-2.59-14.13-3.283-31.235-1.87-39.83 2.084-11.925 4.31-11.732 5.403-9.74 1.53 2.002 3.297 4.945 3.885 6.594z" stroke="none" stroke-dasharray="none" stroke-opacity="1" fill="#fff" fill-opacity="1" id="unique-id_2124_27"></path><path stroke="none" stroke-opacity="1" fill="#fff" stroke-linejoin="miter" stroke-linecap="butt" stroke-width="1px" id="unique-id_2125_28" d="M155.823 173.337s16.4-28.841 15.02-36.99c0 0-5.697 13.18-9.753 17.017 0 0-.768 5.95-2.692 8.99-2.049 3.94-2.575 10.983-2.575 10.983zM108.703 84.977s3.385-15.484 11.484-20.465c0 0-5.904 10.557-5.894 16.142-1.588-2.015-3.502.03-5.59 4.323zM86.431 81.05s8.512-15.015 18.201-18.79c0 0-4.783 6.368-8.96 14.205 0 0-1.983-2.654-7.436 2.435-.81 1.04-1.805 2.15-1.805 2.15zM66.164 98.045s2.704-16.735 9.673-23.203c0 0-2.894 7.564-3.196 14.134-1.891-.61-3.545.879-4.315 3.75-.6 1.63-1.549 4.113-2.162 5.32zM37.197 124.6s-.296-16.776 5.168-24.557c0 0-1.126 8.374-.048 14.862-1.884-1.378-2.92.673-3.84 4.32-.617 2.224-.932 4.068-1.28 5.376z" fill-opacity="1"></path></g></mask></defs><g transform="translate(55,53.971141499999995)rotate(0)scale(0.3147241280062645,0.3147241280062645)translate(-69.2325,-120.041)"><g></g><metadata xmlns:rdf="http://www.w3.org/1999/02/22-rdf-syntax-ns#" xmlns:cc="http://creativecommons.org/ns#" xmlns:dc="http://purl.org/dc/elements/1.1/"><rdf:RDF><rdf:Description dc:title="Clawed Hand" dc:creator="korfi2go"></rdf:Description><cc:Work rdf:about="https://heraldicon.org/charges/Ntv8I1/5"><cc:license rdf:resource="https://creativecommons.org/licenses/by-sa/4.0"></cc:license><cc:attributionName>Clawed Hand by korfi2go</cc:attributionName><cc:attributionURL rdf:resource="https://heraldicon.org/users/korfi2go"></cc:attributionURL></cc:Work><cc:License rdf:about="https://creativecommons.org/licenses/by-sa/4.0"><cc:permits rdf:resource="http://creativecommons.org/ns#Reproduction"></cc:permits><cc:permits rdf:resource="http://creativecommons.org/ns#DerivativeWorks"></cc:permits><cc:permits rdf:resource="http://creativecommons.org/ns#Distribution"></cc:permits><cc:requires rdf:resource="http://creativecommons.org/ns#Notice"></cc:requires><cc:requires rdf:resource="http://creativecommons.org/ns#Attribution"></cc:requires><cc:requires rdf:resource="http://creativecommons.org/ns#ShareAlike"></cc:requires></cc:License></rdf:RDF><rdf:RDF rdf:about="http://heraldicart.org/hand/#pair-of-hands"><rdf:Description dc:title="Pair of Hands" dc:creator="Pennsic “Bored Artists” Collection"></rdf:Description><cc:Work rdf:about="http://heraldicart.org/hand/#pair-of-hands"><cc:license rdf:resource="https://creativecommons.org/licenses/by-sa/4.0"></cc:license><cc:attributionName>Pennsic “Bored Artists” Collection</cc:attributionName><cc:attributionURL rdf:resource="http://heraldicart.org/pennsic-bored-artist-collection/"></cc:attributionURL></cc:Work></rdf:RDF></metadata><g><g><g mask="url(#mask_10)"><rect transform="translate(69.2325,120.041)scale(3.1773858786578173,3.1773858786578173)rotate(0)translate(-55,-53.971141499999995)" x="-500" y="-500" width="1100" height="1100" fill="#333333"></rect></g><g mask="url(#mask_9)"><g transform="translate(69.2325,120.041)scale(3.1773858786578173,3.1773858786578173)rotate(0)translate(-55,-53.971141499999995)"><rect y="-1000" fill="#bb2f2e" width="2000" x="-1000" height="2000"></rect><g></g></g></g><g mask="url(#mask_8)"><g fill="#333333" stroke="none" stroke-width="0" id="unique-id_2126_29" transform="translate(-33.75,-60.742)"><path d="M85.768 78.182c-2.854 3.163-5.862 7.643-7.275 12.117-.824 2.12-.928 3.667-3.283-.454-.203-5.396 1.675-12.906 2.734-18.217-9.125 4.805-11.716 17.313-13.698 26.677-7.065 21.312-11.068 35.441-11.186 39.444l-.117 3.533-1.178-3.533c-.589-2.001-1.06-5.887-.942-8.595-.564-5.249-2.258-10.092-5.642-13.519-1.758-10.925-.84-11.837-1.356-18.38-9.634 3.412-10.093 34.372-10.075 47.559 1.06 13.305 3.062 26.61 4.122 28.73.588 1.059 2.825 5.886 4.945 10.714 2.12 4.827 6.358 12.127 9.301 16.013 3.062 4.003 7.065 9.655 9.067 12.599l3.767 5.298-2.59 3.297c-1.413 1.884-7.535 8.595-13.776 14.835l-11.185 11.422 3.296 11.538c4.828 16.72 9.302 25.197 17.662 33.91 6.711 7.183 7.535 7.654 12.363 7.654 3.768 0 7.182-1.178 12.363-4.121 11.892-6.83 12.01-6.947 12.952-18.604.942-11.539 7.3-35.676 11.42-43.565 9.538-17.897 8.478-16.72 19.664-22.37 18.132-9.185 22.607-12.482 22.607-16.838 0-4.121 26.091-48.203 22.065-62.89-4.983 4.844-5.914 14.226-13.259 19.255-3.061.47-4.568 1.13-7.394 2.896-5.18 2.943-12.01 10.95-12.01 13.893 0 .825-2.119 3.533-4.827 6.123l-4.827 4.592-4.592-2.355c-2.473-1.177-4.592-2.826-4.592-3.414 0-.707-1.295-3.65-2.826-6.83-1.766-3.414-2.59-6.71-2.237-8.595.942-4.592-.707-11.303-3.18-13.776-1.883-1.884-2.119-2.826-1.059-5.77.942-2.707.824-4.356-.47-7.064-1.65-3.297-1.532-3.885 1.177-9.184 1.883-3.768 2.708-7.3 2.59-10.361-.236-2.944.18-6.712 1.711-10.008 3.15-8.141 1.025-14.854.8-19.697.552-6.136 1.78-9.89 5.34-19.434-15.48 4.202-16.052 30.365-23.2 43.82-1.648 3.532-2.195 5.79-3.961 10.617-1.884 4.828-3.532 8.125-3.886 7.3-.235-.706-1.295-1.413-2.237-1.413-1.295 0-1.53-.588-.942-2.119 2.473-5.77 4.121-12.952 4.121-17.426 0-2.826.59-5.416 1.296-5.887 2.237-1.295 6.118-12.956 4.625-18.855-.547-2.162 2.882-8.914 8.965-18.002-10.847 1.539-17.618 12.37-21.151 17.44z" stroke="none" stroke-dasharray="none" stroke-opacity="1" fill="#333333" fill-opacity="1" id="unique-id_2121_30"></path><path d="M96.154 79.937c.942 4.828-2.119 12.363-7.535 18.25-4.121 4.593-4.592 6.241-1.649 5.77 1.178-.235 2.12.471 2.12 1.413.235 3.179-3.062 13.423-6.005 18.721-3.18 5.652-2.708 8.124.706 3.886 1.178-1.413 2.708-2.59 3.415-2.59 2.708 0 6.829 12.127 5.063 14.953-.471.706-3.65 2.355-7.182 3.767l-6.24 2.355 2.119-2.472c2.237-2.473 2.237-2.473 0-1.649-2.238.825-2.238.707-.118-1.648 1.295-1.53 1.648-2.355.706-2.355-.824 0-2.472 1.177-3.768 2.59-1.648 2.12-2.119 2.355-2.237.825 0-1.06-1.06-3.297-2.355-4.946-2.119-2.708-2.237-3.179-.588-6.24 1.06-2.12 1.766-6.594 1.766-11.421 0-4.474.589-9.066 1.177-10.244.707-1.295 1.766-5.063 2.355-8.36 1.178-5.887 7.05-16.883 10.564-19.903.782-.672 5.81-6.096 7.686-.702zM115.347 92.418c-.354 6.358-1.06 8.595-4.24 13.187-4.12 5.888-4.827 8.713-2 7.536 3.65-1.413 1.294 8.36-3.298 13.187l-2.59 2.708 2.826 2.12c4.003 3.061 3.061 7.653-1.766 7.889-1.884.117-4.71.47-6.005.941-2.12.707-2.473.118-3.18-6.004-.706-6.594.472-11.893 5.181-22.136 5.299-11.892 6.997-19.419 8.175-23.304 1.834-5.779 5.36-8.723 6.042-5.02.465 1.819 1.09 4.657.855 8.896z" stroke="none" stroke-dasharray="none" stroke-opacity="1" fill="#333333" fill-opacity="1" id="unique-id_2122_31"></path><path d="M74.372 97.834c0 6.123-1.884 11.775-5.652 16.72-2.001 2.826-2.472 4.356-1.53 5.298.824.825 1.412.707 2.001-.706 1.178-3.297 2.826-2.237 2.826 2.002 0 2.119-1.53 7.064-3.532 10.832-4.121 8.124-4.357 9.89-1.178 6.947 3.062-2.708 4.24-1.53 5.063 5.298.707 5.299.707 5.299-5.77 10.362-6.593 5.18-7.3 5.298-5.062 1.177 1.884-3.415.235-4.003-2.355-.824l-2.237 2.826-.942-3.415c-1.413-5.77.353-20.84 4.239-34.263 2.001-7.182 4.12-14.012 4.71-15.307.588-1.295 2.596-5.33 3.773-8.861 1.122-4.37 2.114-4.995 2.963-5.274 1.803-.087 2.565 2.36 2.683 7.188z" stroke="none" stroke-dasharray="none" stroke-opacity="1" fill="#333333" fill-opacity="1" id="unique-id_2123_32"></path><path d="M47.173 124.327c.942 2.825-.353 8.242-4.003 16.601-1.413 3.415 1.53 2.473 3.297-.942l1.648-3.179.707 3.533c.824 3.885-.707 11.774-2.59 13.658-1.767 1.766-1.65 3.179.353 3.179.941 0 2.119-1.177 2.59-2.59l.824-2.59 2.12 2.707c2.354 2.944 2.943 8.831 1.177 13.305-1.649 4.592-2.59 11.54-1.53 11.54.47 0 1.883-2.827 2.943-6.241 4.003-12.481 20.605-24.49 40.974-29.79l7.654-2 3.768 2.707c4.827 3.65 6.122 9.42 3.179 14.836-3.533 6.593-21.43 17.426-36.148 22.136-1.177.353-2.119 1.295-2.119 2.001 0 2.002 4.945.471 16.837-5.298 5.652-2.708 10.244-4.71 10.244-4.474 0 .235-2.826 3.767-6.24 7.653-8.949 10.361-12.834 15.895-12.363 17.308.353 1.178 6.004-5.298 21.782-24.961 2.002-2.473 5.18-5.77 6.83-7.065 2.59-2.002 3.296-2.237 4.238-.824 1.06 1.648.589 2.237-5.416 6.476-2.12 1.53-2.12 1.766-.471 3.532 1.766 1.648 2.237 1.53 5.534-1.295 3.65-3.062 3.767-3.062 3.767-.589 0 1.53-1.295 3.18-3.65 4.474-5.416 2.944-24.02 17.309-26.492 20.488-1.295 1.53-4.003 3.885-6.005 5.063-4.003 2.354-4.71 3.532-2.826 4.592.59.353 1.767-.236 2.59-1.296 1.531-1.648 1.767-1.53 2.238 1.413.353 1.884 1.177 3.533 1.884 3.768.824.236 1.177-.589.824-2.355-.47-2.12.236-3.414 2.12-4.827 2.472-1.766 2.237-2.473-.707-1.884-3.415.589 14.365-14.483 24.844-21.076 6.24-4.003 7.889-4.357 12.245-2.12 2.12 1.06 2.944 2.473 2.944 4.946 0 4.827 2.001 5.534 3.179 1.177.47-2.002 2.59-5.18 4.592-7.065l3.767-3.532-.706 3.768c-.706 3.415.706 6.24 2.355 4.71.235-.354.942-4.121 1.53-8.478 1.06-8.595 4.357-14.011 10.833-18.015 4.239-2.472 7.332-4.123 7.332-2.71 0 .47-.917 4.348-2.801 7.292-1.884 2.943-2.294 10.607-5.355 18.732-3.062 8.124-5.887 15.777-6.476 17.072-1.413 3.768-24.962 15.072-32.733 15.66-6.593.589-7.889 2.708-2.237 3.768l3.18.589-5.3 9.301c-4.944 8.596-11.774 28.965-14.6 43.448l-1.06 4.945-.117-4.239c-.118-2.237-.942-5.18-1.884-6.476-2.001-2.472-1.884-1.177.471 15.66.589 3.886.471 6.594-.353 7.418-2.002 2.002-3.061 1.295-3.061-2.12 0-4.71-2.237-12.01-3.768-12.01-.707 0-.942 1.06-.471 2.591.353 1.53 1.06 5.652 1.413 9.184l.706 6.476-5.416 2.59c-3.061 1.531-6.829 2.708-8.36 2.708-9.066 0-19.545-13.54-25.903-33.674-2.237-6.947-4.121-13.305-4.121-14.13 0-.824 4.356-6.122 9.772-11.774l9.773-10.243 2.708 4.592c1.649 2.59 3.062 3.885 3.297 3.061.353-.824-.589-3.415-2.002-5.887l-2.59-4.357 2.826 2.59c4.356 4.122 6.711 3.297 2.708-.824-2.59-2.708-3.061-3.885-2.002-4.945.942-.942 2.355-.588 5.77 1.649 2.472 1.648 5.651 3.414 7.182 3.885 3.061.942 11.892-2.708 12.01-5.063 0-1.884-2.355-1.766-5.18.353-1.296.942-3.533 1.767-4.828 1.767-4.357 0-12.363-6.359-18.015-14.365-3.061-4.239-7.065-9.537-8.83-11.892-3.533-4.474-13.306-25.55-14.248-30.731-2.59-14.13-3.283-31.235-1.87-39.83 2.084-11.925 4.31-11.732 5.403-9.74 1.53 2.002 3.297 4.945 3.885 6.594z" stroke="none" stroke-dasharray="none" stroke-opacity="1" fill="#333333" fill-opacity="1" id="unique-id_2124_33"></path><path stroke="none" stroke-opacity="1" fill="#ddc595" stroke-linejoin="miter" stroke-linecap="butt" stroke-width="1px" id="unique-id_2125_34" d="M155.823 173.337s16.4-28.841 15.02-36.99c0 0-5.697 13.18-9.753 17.017 0 0-.768 5.95-2.692 8.99-2.049 3.94-2.575 10.983-2.575 10.983zM108.703 84.977s3.385-15.484 11.484-20.465c0 0-5.904 10.557-5.894 16.142-1.588-2.015-3.502.03-5.59 4.323zM86.431 81.05s8.512-15.015 18.201-18.79c0 0-4.783 6.368-8.96 14.205 0 0-1.983-2.654-7.436 2.435-.81 1.04-1.805 2.15-1.805 2.15zM66.164 98.045s2.704-16.735 9.673-23.203c0 0-2.894 7.564-3.196 14.134-1.891-.61-3.545.879-4.315 3.75-.6 1.63-1.549 4.113-2.162 5.32zM37.197 124.6s-.296-16.776 5.168-24.557c0 0-1.126 8.374-.048 14.862-1.884-1.378-2.92.673-3.84 4.32-.617 2.224-.932 4.068-1.28 5.376z" fill-opacity="1"></path></g></g></g></g></g></g></g></g></g></svg>