<svg viewBox="-10 -10 1020 1219.3587" xmlns="http://www.w3.org/2000/svg" xmlns:xlink="http://www.w3.org/1999/xlink" version="1.1" width="1020" height="1219.3587"><style></style><g transform="translate(500,599.67935)scale(10,10)translate(-50,-59.967935)" style="transition:transform 0.5s"><g transform="translate(0,0)" style="transition:transform 0.5s"></g><g style="transition:transform 0.5s"><g><metadata xmlns:rdf="http://www.w3.org/1999/02/22-rdf-syntax-ns#" xmlns:cc="http://creativecommons.org/ns#" xmlns:dc="http://purl.org/dc/elements/1.1/"><rdf:RDF><rdf:Description dc:title="Isger" dc:creator="kosen"></rdf:Description><cc:Work rdf:about="https://heraldicon.org/arms/W7XWEo/3"><cc:license rdf:resource="private"></cc:license><cc:attributionName>Isger by kosen</cc:attributionName><cc:attributionURL rdf:resource="https://heraldicon.org/users/kosen"></cc:attributionURL></cc:Work><cc:License rdf:about="private"></cc:License></rdf:RDF></metadata><defs><pattern width="20" height="20" patternUnits="userSpaceOnUse" id="void"><rect x="0" y="0" width="20" height="20" fill="#fff" class="light"></rect><rect x="0" y="0" width="10" height="10" fill="#ddd" class="dark"></rect><rect x="10" y="10" width="10" height="10" fill="#ddd" class="dark"></rect></pattern><pattern width="4" height="4" patternUnits="userSpaceOnUse" id="selected"><rect x="0" y="0" width="4" height="4" fill="#f5f5f5"></rect><g fill="#000"><circle cx="0" cy="0" r="0.3"></circle><circle cx="4" cy="0" r="0.3"></circle><circle cx="0" cy="4" r="0.3"></circle><circle cx="4" cy="4" r="0.3"></circle><circle cx="2" cy="2" r="0.3"></circle></g></pattern><pattern id="ermine" width="12.5" height="20" patternUnits="userSpaceOnUse" x="-3.125" y="-5"><rect x="0" y="0" width="12.5" height="20" fill="#f6f6f6"></rect><g fill="#333333"><path d="M 47.757634,0 C 60.324696,15.689314 25.136924,21.898666 44.167046,36.607392
    52.24587,41.673746 71.273896,30.723464 54.57765,17.322176
    52.423302,16.178163 62.11999,8.3349512 47.757634,0 Z m 21.182372,36.935142 c
    -3.23154,0.326846 -6.282816,2.290268 -9.155302,7.193166 -3.590588,8.33495
    12.209402,22.716724 22.98117,5.06625 C 83.483996,47.069952 94.0755,53.93163
    100,39.386326 89.946316,49.845864 79.713166,37.425428 70.377642,36.935142 Z
    M 29.80469,37.099022 C 20.469164,37.58931 10.053647,50.173186 0,39.55021
    5.9244804,54.095512 16.51881,47.070414 17.416458,49.358438 28.0087,67.008916
    43.805884,52.627142 40.215296,44.292192 36.983772,38.73555 33.395278,36.9356
    29.80469,37.099026 Z m 21.003542,10.13249 c -8.25835,37.262136
    -23.51556,63.576958 -40.211787,82.534868 7.001653,-1.96117
    14.718613,-7.19213 22.258843,-11.93164 -4.667764,9.80582 -9.154602,18.14082
    -13.822364,26.80264 2.692942,-0.98059 11.489886,-9.64435 23.338826,-22.3919
    1.795296,17.48703 4.305204,25.8241 8.07532,37.75452 3.052012,-11.93042
    5.208468,-19.9411 7.54234,-37.9184 7.181178,8.00805 14.001888,16.17984
    23.696484,23.04393 L 68.221186,117.34659 c 7.001634,4.41265
    14.72282,10.29262 22.083522,12.74406 C 72.710832,110.15215
    57.989412,84.493648 50.808232,47.231516 Z" transform="scale(0.0625,0.0625)"></path><path d="M 47.757634,0 C 60.324696,15.689314 25.136924,21.898666 44.167046,36.607392
    52.24587,41.673746 71.273896,30.723464 54.57765,17.322176
    52.423302,16.178163 62.11999,8.3349512 47.757634,0 Z m 21.182372,36.935142 c
    -3.23154,0.326846 -6.282816,2.290268 -9.155302,7.193166 -3.590588,8.33495
    12.209402,22.716724 22.98117,5.06625 C 83.483996,47.069952 94.0755,53.93163
    100,39.386326 89.946316,49.845864 79.713166,37.425428 70.377642,36.935142 Z
    M 29.80469,37.099022 C 20.469164,37.58931 10.053647,50.173186 0,39.55021
    5.9244804,54.095512 16.51881,47.070414 17.416458,49.358438 28.0087,67.008916
    43.805884,52.627142 40.215296,44.292192 36.983772,38.73555 33.395278,36.9356
    29.80469,37.099026 Z m 21.003542,10.13249 c -8.25835,37.262136
    -23.51556,63.576958 -40.211787,82.534868 7.001653,-1.96117
    14.718613,-7.19213 22.258843,-11.93164 -4.667764,9.80582 -9.154602,18.14082
    -13.822364,26.80264 2.692942,-0.98059 11.489886,-9.64435 23.338826,-22.3919
    1.795296,17.48703 4.305204,25.8241 8.07532,37.75452 3.052012,-11.93042
    5.208468,-19.9411 7.54234,-37.9184 7.181178,8.00805 14.001888,16.17984
    23.696484,23.04393 L 68.221186,117.34659 c 7.001634,4.41265
    14.72282,10.29262 22.083522,12.74406 C 72.710832,110.15215
    57.989412,84.493648 50.808232,47.231516 Z" transform="translate(6.25,10) scale(0.0625,0.0625)"></path></g></pattern><pattern id="ermines" width="12.5" height="20" patternUnits="userSpaceOnUse" x="-3.125" y="-5"><rect x="0" y="0" width="12.5" height="20" fill="#333333"></rect><g fill="#f6f6f6"><path d="M 47.757634,0 C 60.324696,15.689314 25.136924,21.898666 44.167046,36.607392
    52.24587,41.673746 71.273896,30.723464 54.57765,17.322176
    52.423302,16.178163 62.11999,8.3349512 47.757634,0 Z m 21.182372,36.935142 c
    -3.23154,0.326846 -6.282816,2.290268 -9.155302,7.193166 -3.590588,8.33495
    12.209402,22.716724 22.98117,5.06625 C 83.483996,47.069952 94.0755,53.93163
    100,39.386326 89.946316,49.845864 79.713166,37.425428 70.377642,36.935142 Z
    M 29.80469,37.099022 C 20.469164,37.58931 10.053647,50.173186 0,39.55021
    5.9244804,54.095512 16.51881,47.070414 17.416458,49.358438 28.0087,67.008916
    43.805884,52.627142 40.215296,44.292192 36.983772,38.73555 33.395278,36.9356
    29.80469,37.099026 Z m 21.003542,10.13249 c -8.25835,37.262136
    -23.51556,63.576958 -40.211787,82.534868 7.001653,-1.96117
    14.718613,-7.19213 22.258843,-11.93164 -4.667764,9.80582 -9.154602,18.14082
    -13.822364,26.80264 2.692942,-0.98059 11.489886,-9.64435 23.338826,-22.3919
    1.795296,17.48703 4.305204,25.8241 8.07532,37.75452 3.052012,-11.93042
    5.208468,-19.9411 7.54234,-37.9184 7.181178,8.00805 14.001888,16.17984
    23.696484,23.04393 L 68.221186,117.34659 c 7.001634,4.41265
    14.72282,10.29262 22.083522,12.74406 C 72.710832,110.15215
    57.989412,84.493648 50.808232,47.231516 Z" transform="scale(0.0625,0.0625)"></path><path d="M 47.757634,0 C 60.324696,15.689314 25.136924,21.898666 44.167046,36.607392
    52.24587,41.673746 71.273896,30.723464 54.57765,17.322176
    52.423302,16.178163 62.11999,8.3349512 47.757634,0 Z m 21.182372,36.935142 c
    -3.23154,0.326846 -6.282816,2.290268 -9.155302,7.193166 -3.590588,8.33495
    12.209402,22.716724 22.98117,5.06625 C 83.483996,47.069952 94.0755,53.93163
    100,39.386326 89.946316,49.845864 79.713166,37.425428 70.377642,36.935142 Z
    M 29.80469,37.099022 C 20.469164,37.58931 10.053647,50.173186 0,39.55021
    5.9244804,54.095512 16.51881,47.070414 17.416458,49.358438 28.0087,67.008916
    43.805884,52.627142 40.215296,44.292192 36.983772,38.73555 33.395278,36.9356
    29.80469,37.099026 Z m 21.003542,10.13249 c -8.25835,37.262136
    -23.51556,63.576958 -40.211787,82.534868 7.001653,-1.96117
    14.718613,-7.19213 22.258843,-11.93164 -4.667764,9.80582 -9.154602,18.14082
    -13.822364,26.80264 2.692942,-0.98059 11.489886,-9.64435 23.338826,-22.3919
    1.795296,17.48703 4.305204,25.8241 8.07532,37.75452 3.052012,-11.93042
    5.208468,-19.9411 7.54234,-37.9184 7.181178,8.00805 14.001888,16.17984
    23.696484,23.04393 L 68.221186,117.34659 c 7.001634,4.41265
    14.72282,10.29262 22.083522,12.74406 C 72.710832,110.15215
    57.989412,84.493648 50.808232,47.231516 Z" transform="translate(6.25,10) scale(0.0625,0.0625)"></path></g></pattern><pattern id="erminois" width="12.5" height="20" patternUnits="userSpaceOnUse" x="-3.125" y="-5"><rect x="0" y="0" width="12.5" height="20" fill="#f2bc51"></rect><g fill="#333333"><path d="M 47.757634,0 C 60.324696,15.689314 25.136924,21.898666 44.167046,36.607392
    52.24587,41.673746 71.273896,30.723464 54.57765,17.322176
    52.423302,16.178163 62.11999,8.3349512 47.757634,0 Z m 21.182372,36.935142 c
    -3.23154,0.326846 -6.282816,2.290268 -9.155302,7.193166 -3.590588,8.33495
    12.209402,22.716724 22.98117,5.06625 C 83.483996,47.069952 94.0755,53.93163
    100,39.386326 89.946316,49.845864 79.713166,37.425428 70.377642,36.935142 Z
    M 29.80469,37.099022 C 20.469164,37.58931 10.053647,50.173186 0,39.55021
    5.9244804,54.095512 16.51881,47.070414 17.416458,49.358438 28.0087,67.008916
    43.805884,52.627142 40.215296,44.292192 36.983772,38.73555 33.395278,36.9356
    29.80469,37.099026 Z m 21.003542,10.13249 c -8.25835,37.262136
    -23.51556,63.576958 -40.211787,82.534868 7.001653,-1.96117
    14.718613,-7.19213 22.258843,-11.93164 -4.667764,9.80582 -9.154602,18.14082
    -13.822364,26.80264 2.692942,-0.98059 11.489886,-9.64435 23.338826,-22.3919
    1.795296,17.48703 4.305204,25.8241 8.07532,37.75452 3.052012,-11.93042
    5.208468,-19.9411 7.54234,-37.9184 7.181178,8.00805 14.001888,16.17984
    23.696484,23.04393 L 68.221186,117.34659 c 7.001634,4.41265
    14.72282,10.29262 22.083522,12.74406 C 72.710832,110.15215
    57.989412,84.493648 50.808232,47.231516 Z" transform="scale(0.0625,0.0625)"></path><path d="M 47.757634,0 C 60.324696,15.689314 25.136924,21.898666 44.167046,36.607392
    52.24587,41.673746 71.273896,30.723464 54.57765,17.322176
    52.423302,16.178163 62.11999,8.3349512 47.757634,0 Z m 21.182372,36.935142 c
    -3.23154,0.326846 -6.282816,2.290268 -9.155302,7.193166 -3.590588,8.33495
    12.209402,22.716724 22.98117,5.06625 C 83.483996,47.069952 94.0755,53.93163
    100,39.386326 89.946316,49.845864 79.713166,37.425428 70.377642,36.935142 Z
    M 29.80469,37.099022 C 20.469164,37.58931 10.053647,50.173186 0,39.55021
    5.9244804,54.095512 16.51881,47.070414 17.416458,49.358438 28.0087,67.008916
    43.805884,52.627142 40.215296,44.292192 36.983772,38.73555 33.395278,36.9356
    29.80469,37.099026 Z m 21.003542,10.13249 c -8.25835,37.262136
    -23.51556,63.576958 -40.211787,82.534868 7.001653,-1.96117
    14.718613,-7.19213 22.258843,-11.93164 -4.667764,9.80582 -9.154602,18.14082
    -13.822364,26.80264 2.692942,-0.98059 11.489886,-9.64435 23.338826,-22.3919
    1.795296,17.48703 4.305204,25.8241 8.07532,37.75452 3.052012,-11.93042
    5.208468,-19.9411 7.54234,-37.9184 7.181178,8.00805 14.001888,16.17984
    23.696484,23.04393 L 68.221186,117.34659 c 7.001634,4.41265
    14.72282,10.29262 22.083522,12.74406 C 72.710832,110.15215
    57.989412,84.493648 50.808232,47.231516 Z" transform="translate(6.25,10) scale(0.0625,0.0625)"></path></g></pattern><pattern id="pean" width="12.5" height="20" patternUnits="userSpaceOnUse" x="-3.125" y="-5"><rect x="0" y="0" width="12.5" height="20" fill="#333333"></rect><g fill="#f2bc51"><path d="M 47.757634,0 C 60.324696,15.689314 25.136924,21.898666 44.167046,36.607392
    52.24587,41.673746 71.273896,30.723464 54.57765,17.322176
    52.423302,16.178163 62.11999,8.3349512 47.757634,0 Z m 21.182372,36.935142 c
    -3.23154,0.326846 -6.282816,2.290268 -9.155302,7.193166 -3.590588,8.33495
    12.209402,22.716724 22.98117,5.06625 C 83.483996,47.069952 94.0755,53.93163
    100,39.386326 89.946316,49.845864 79.713166,37.425428 70.377642,36.935142 Z
    M 29.80469,37.099022 C 20.469164,37.58931 10.053647,50.173186 0,39.55021
    5.9244804,54.095512 16.51881,47.070414 17.416458,49.358438 28.0087,67.008916
    43.805884,52.627142 40.215296,44.292192 36.983772,38.73555 33.395278,36.9356
    29.80469,37.099026 Z m 21.003542,10.13249 c -8.25835,37.262136
    -23.51556,63.576958 -40.211787,82.534868 7.001653,-1.96117
    14.718613,-7.19213 22.258843,-11.93164 -4.667764,9.80582 -9.154602,18.14082
    -13.822364,26.80264 2.692942,-0.98059 11.489886,-9.64435 23.338826,-22.3919
    1.795296,17.48703 4.305204,25.8241 8.07532,37.75452 3.052012,-11.93042
    5.208468,-19.9411 7.54234,-37.9184 7.181178,8.00805 14.001888,16.17984
    23.696484,23.04393 L 68.221186,117.34659 c 7.001634,4.41265
    14.72282,10.29262 22.083522,12.74406 C 72.710832,110.15215
    57.989412,84.493648 50.808232,47.231516 Z" transform="scale(0.0625,0.0625)"></path><path d="M 47.757634,0 C 60.324696,15.689314 25.136924,21.898666 44.167046,36.607392
    52.24587,41.673746 71.273896,30.723464 54.57765,17.322176
    52.423302,16.178163 62.11999,8.3349512 47.757634,0 Z m 21.182372,36.935142 c
    -3.23154,0.326846 -6.282816,2.290268 -9.155302,7.193166 -3.590588,8.33495
    12.209402,22.716724 22.98117,5.06625 C 83.483996,47.069952 94.0755,53.93163
    100,39.386326 89.946316,49.845864 79.713166,37.425428 70.377642,36.935142 Z
    M 29.80469,37.099022 C 20.469164,37.58931 10.053647,50.173186 0,39.55021
    5.9244804,54.095512 16.51881,47.070414 17.416458,49.358438 28.0087,67.008916
    43.805884,52.627142 40.215296,44.292192 36.983772,38.73555 33.395278,36.9356
    29.80469,37.099026 Z m 21.003542,10.13249 c -8.25835,37.262136
    -23.51556,63.576958 -40.211787,82.534868 7.001653,-1.96117
    14.718613,-7.19213 22.258843,-11.93164 -4.667764,9.80582 -9.154602,18.14082
    -13.822364,26.80264 2.692942,-0.98059 11.489886,-9.64435 23.338826,-22.3919
    1.795296,17.48703 4.305204,25.8241 8.07532,37.75452 3.052012,-11.93042
    5.208468,-19.9411 7.54234,-37.9184 7.181178,8.00805 14.001888,16.17984
    23.696484,23.04393 L 68.221186,117.34659 c 7.001634,4.41265
    14.72282,10.29262 22.083522,12.74406 C 72.710832,110.15215
    57.989412,84.493648 50.808232,47.231516 Z" transform="translate(6.25,10) scale(0.0625,0.0625)"></path></g></pattern></defs><defs><mask id="mask_1"><path d="M50,0h50v33.33333c0,35.72656 -19.05989,68.73926 -50,86.60254c-30.94011,-17.86328 -50,-50.87598 -50,-86.60254v-33.33333z" clip-rule="evenodd" fill-rule="evenodd" fill="#fff" stroke="none"></path></mask></defs><g mask="url(#mask_1)"><g><g><path d="M50,0h50v33.33333c0,35.72656 -19.05989,68.73926 -50,86.60254c-30.94011,-17.86328 -50,-50.87598 -50,-86.60254v-33.33333z" fill-rule="evenodd" fill="#f0f0f0"></path><g><g><defs><mask id="clip_4"><path d="M 50,-29.999999999999886 l0,179.93587 L 185.6394532033914,638.0639203002605 A 600 600 0 1 1 185.6394470510026,-518.1280482980892 L 50,-29.999999999999886 z" clip-rule="evenodd" fill-rule="evenodd" fill="#fff" stroke="#fff" stroke-width="0.1"></path></mask></defs><g mask="url(#clip_4)"><g><g><g><defs><mask id="clip_5"><path d="M -26.390061465337567,59.9679368558886 h96.39006 L 524.3122615210386,362.68092587532766 A 600 600 0 1 0 -493.23910523183974,332.35498193370694 L -26.390061465337567,59.9679368558886 z" clip-rule="evenodd" fill-rule="evenodd" fill="#fff" stroke="#fff" stroke-width="0.1"></path></mask></defs><g mask="url(#clip_5)"><g><rect y="-1000" fill="#333333" width="2000" x="-1000" height="2000"></rect><g></g><g><g><g><defs><mask id="mask_8"><g fill="#000" stroke="none" stroke-width="0" transform="translate(-3.90625,-3.90625)" id="unique-id_83_11"><path stroke-dasharray="none" stroke="#000" stroke-opacity="1" fill="#000" stroke-linejoin="round" stroke-linecap="round" stroke-width="2" id="unique-id_81_12" d="M100 30a75 75 0 00-75 75 75 75 0 0075 75 75 75 0 0075-75 75 75 0 00-75-75zm0 25a50 50 0 0150 50 50 50 0 01-50 50 50 50 0 01-50-50 50 50 0 0150-50z"></path><path stroke-dasharray="none" stroke="#000" stroke-opacity="1" fill="#000" stroke-linejoin="round" stroke-linecap="round" stroke-width="2" id="unique-id_82_13" d="M60 5c15 15 20 40 20 80-40 0-60-5-75-20v80c15-15 35-20 75-20v75l20 45c.652-.582 20-45 20-45v-75c40 0 60 5 75 20V65c-15 15-35 20-75 20 0-40 5-65 20-80z" stroke-miterlimit="4"></path></g></mask><mask id="mask_9"><g fill="#000" stroke="none" stroke-width="0" transform="translate(-3.90625,-3.90625)" id="unique-id_83_14"><path stroke-dasharray="none" stroke="#000" stroke-opacity="1" fill="#fff" stroke-linejoin="round" stroke-linecap="round" stroke-width="2" id="unique-id_81_15" d="M100 30a75 75 0 00-75 75 75 75 0 0075 75 75 75 0 0075-75 75 75 0 00-75-75zm0 25a50 50 0 0150 50 50 50 0 01-50 50 50 50 0 01-50-50 50 50 0 0150-50z"></path><path stroke-dasharray="none" stroke="#000" stroke-opacity="1" fill="#fff" stroke-linejoin="round" stroke-linecap="round" stroke-width="2" id="unique-id_82_16" d="M60 5c15 15 20 40 20 80-40 0-60-5-75-20v80c15-15 35-20 75-20v75l20 45c.652-.582 20-45 20-45v-75c40 0 60 5 75 20V65c-15 15-35 20-75 20 0-40 5-65 20-80z" stroke-miterlimit="4"></path></g></mask><mask id="mask_10"><g fill="#fff" stroke="none" stroke-width="0" transform="translate(-3.90625,-3.90625)" id="unique-id_83_17"><path stroke-dasharray="none" stroke="#fff" stroke-opacity="1" fill="#fff" stroke-linejoin="round" stroke-linecap="round" stroke-width="2" id="unique-id_81_18" d="M100 30a75 75 0 00-75 75 75 75 0 0075 75 75 75 0 0075-75 75 75 0 00-75-75zm0 25a50 50 0 0150 50 50 50 0 01-50 50 50 50 0 01-50-50 50 50 0 0150-50z"></path><path stroke-dasharray="none" stroke="#fff" stroke-opacity="1" fill="#fff" stroke-linejoin="round" stroke-linecap="round" stroke-width="2" id="unique-id_82_19" d="M60 5c15 15 20 40 20 80-40 0-60-5-75-20v80c15-15 35-20 75-20v75l20 45c.652-.582 20-45 20-45v-75c40 0 60 5 75 20V65c-15 15-35 20-75 20 0-40 5-65 20-80z" stroke-miterlimit="4"></path></g></mask></defs><g transform="translate(25.000000000000114,29.9839684279443)rotate(0)scale(0.17332668200927803,0.17332668200927803)translate(-96.14181518554688,-121.09375)"><g></g><metadata xmlns:rdf="http://www.w3.org/1999/02/22-rdf-syntax-ns#" xmlns:cc="http://creativecommons.org/ns#" xmlns:dc="http://purl.org/dc/elements/1.1/"><rdf:RDF><rdf:Description dc:title="Celtic Cross, Fitchy" dc:creator="korfi2go"></rdf:Description><cc:Work rdf:about="https://heraldicon.org/charges/0rsqOJ/1"><cc:license rdf:resource="https://creativecommons.org/publicdomain/mark/1.0/"></cc:license><cc:attributionName>Celtic Cross, Fitchy by korfi2go</cc:attributionName><cc:attributionURL rdf:resource="https://heraldicon.org/users/korfi2go"></cc:attributionURL></cc:Work><cc:License rdf:about="https://creativecommons.org/publicdomain/mark/1.0/"></cc:License></rdf:RDF></metadata><g><g><g mask="url(#mask_10)"><rect transform="translate(96.14181518554688,121.09375)scale(5.769452160553508,5.769452160553508)rotate(0)translate(-25.000000000000114,-29.9839684279443)" x="-500" y="-500" width="1100" height="1100" fill="#333333"></rect></g><g mask="url(#mask_9)"><g transform="translate(96.14181518554688,121.09375)scale(5.769452160553508,5.769452160553508)rotate(0)translate(-25.000000000000114,-29.9839684279443)"><rect y="-1000" fill="#a42f2d" width="2000" x="-1000" height="2000"></rect><g></g></g></g><g mask="url(#mask_8)"><g fill="#333333" stroke="none" stroke-width="0" transform="translate(-3.90625,-3.90625)" id="unique-id_83_20"><path stroke-dasharray="none" stroke="#333333" stroke-opacity="1" fill="#333333" stroke-linejoin="round" stroke-linecap="round" stroke-width="2" id="unique-id_81_21" d="M100 30a75 75 0 00-75 75 75 75 0 0075 75 75 75 0 0075-75 75 75 0 00-75-75zm0 25a50 50 0 0150 50 50 50 0 01-50 50 50 50 0 01-50-50 50 50 0 0150-50z"></path><path stroke-dasharray="none" stroke="#333333" stroke-opacity="1" fill="#333333" stroke-linejoin="round" stroke-linecap="round" stroke-width="2" id="unique-id_82_22" d="M60 5c15 15 20 40 20 80-40 0-60-5-75-20v80c15-15 35-20 75-20v75l20 45c.652-.582 20-45 20-45v-75c40 0 60 5 75 20V65c-15 15-35 20-75 20 0-40 5-65 20-80z" stroke-miterlimit="4"></path></g></g></g></g></g></g></g></g></g></g></g><g><defs><mask id="clip_23"><path d="M -26.390061465337567,59.9679368558886 h96.39006 L 524.3122615210386,-242.74505216355044 A 600 600 0 1 1 -493.23910523183974,-212.41910822192966 L -26.390061465337567,59.9679368558886 z" clip-rule="evenodd" fill-rule="evenodd" fill="#fff"></path></mask></defs><g mask="url(#clip_23)"><g><rect y="-1000" fill="#f6f6f6" width="2000" x="-1000" height="2000"></rect><g></g></g></g></g></g><g><g stroke="#333333" stroke-width="0.5" fill="none" stroke-linecap="round" stroke-linejoin="round"><path d="M -26.390061465337567,59.9679368558886 h96.39006"></path></g></g></g></g></g><g><defs><mask id="clip_24"><path d="M 50,-29.999999999999886 l0,179.93587 L -85.63945320339141,638.0639203002605 A 600 600 0 1 0 -85.6394470510026,-518.1280482980892 L 50,-29.999999999999886 z" clip-rule="evenodd" fill-rule="evenodd" fill="#fff"></path></mask></defs><g mask="url(#clip_24)"><g><rect y="-1000" fill="#f6f6f6" width="2000" x="-1000" height="2000"></rect><g></g></g></g></g></g><g><g stroke="#333333" stroke-width="0.5" fill="none" stroke-linecap="round" stroke-linejoin="round"><path d="M 50,-29.999999999999886 l0,179.93587"></path></g></g></g></g></g><g stroke="#333333" stroke-width="0.5" fill="none" stroke-linecap="round" stroke-linejoin="round"><path d="M50,0h50v33.33333c0,35.72656 -19.05989,68.73926 -50,86.60254c-30.94011,-17.86328 -50,-50.87598 -50,-86.60254v-33.33333z"></path></g></g></g><g transform="translate(0,0)" style="transition:transform 0.5s"></g></g></svg>