<svg viewBox="-10 -10 1020 1219.3587" xmlns="http://www.w3.org/2000/svg" xmlns:xlink="http://www.w3.org/1999/xlink" version="1.1" width="1020" height="1219.3587"><style></style><g transform="translate(500,599.67935)scale(10,10)translate(-50,-59.967935)" style="transition:transform 0.5s"><g><g></g></g><g transform="translate(0,0)" style="transition:transform 0.5s"></g><g style="transition:transform 0.5s"><g><metadata xmlns:rdf="http://www.w3.org/1999/02/22-rdf-syntax-ns#" xmlns:cc="http://creativecommons.org/ns#" xmlns:dc="http://purl.org/dc/elements/1.1/"><rdf:RDF><rdf:Description dc:title="Jalmeray" dc:creator="kosen"></rdf:Description><cc:Work rdf:about="https://heraldicon.org/arms/O45wb7/2"><cc:license rdf:resource="private"></cc:license><cc:attributionName>Jalmeray by kosen</cc:attributionName><cc:attributionURL rdf:resource="https://heraldicon.org/users/kosen"></cc:attributionURL></cc:Work><cc:License rdf:about="private"></cc:License></rdf:RDF></metadata><defs><pattern width="20" height="20" patternUnits="userSpaceOnUse" id="void"><rect x="0" y="0" width="20" height="20" fill="#fff" class="light"></rect><rect x="0" y="0" width="10" height="10" fill="#ddd" class="dark"></rect><rect x="10" y="10" width="10" height="10" fill="#ddd" class="dark"></rect></pattern><pattern width="4" height="4" patternUnits="userSpaceOnUse" id="selected"><rect x="0" y="0" width="4" height="4" fill="#f5f5f5"></rect><g fill="#000"><circle cx="0" cy="0" r="0.3"></circle><circle cx="4" cy="0" r="0.3"></circle><circle cx="0" cy="4" r="0.3"></circle><circle cx="4" cy="4" r="0.3"></circle><circle cx="2" cy="2" r="0.3"></circle></g></pattern><pattern id="ermine" width="12.5" height="20" patternUnits="userSpaceOnUse" x="-3.125" y="-5"><rect x="0" y="0" width="12.5" height="20" fill="#f6f6f6"></rect><g fill="#333333"><path d="M 47.757634,0 C 60.324696,15.689314 25.136924,21.898666 44.167046,36.607392
    52.24587,41.673746 71.273896,30.723464 54.57765,17.322176
    52.423302,16.178163 62.11999,8.3349512 47.757634,0 Z m 21.182372,36.935142 c
    -3.23154,0.326846 -6.282816,2.290268 -9.155302,7.193166 -3.590588,8.33495
    12.209402,22.716724 22.98117,5.06625 C 83.483996,47.069952 94.0755,53.93163
    100,39.386326 89.946316,49.845864 79.713166,37.425428 70.377642,36.935142 Z
    M 29.80469,37.099022 C 20.469164,37.58931 10.053647,50.173186 0,39.55021
    5.9244804,54.095512 16.51881,47.070414 17.416458,49.358438 28.0087,67.008916
    43.805884,52.627142 40.215296,44.292192 36.983772,38.73555 33.395278,36.9356
    29.80469,37.099026 Z m 21.003542,10.13249 c -8.25835,37.262136
    -23.51556,63.576958 -40.211787,82.534868 7.001653,-1.96117
    14.718613,-7.19213 22.258843,-11.93164 -4.667764,9.80582 -9.154602,18.14082
    -13.822364,26.80264 2.692942,-0.98059 11.489886,-9.64435 23.338826,-22.3919
    1.795296,17.48703 4.305204,25.8241 8.07532,37.75452 3.052012,-11.93042
    5.208468,-19.9411 7.54234,-37.9184 7.181178,8.00805 14.001888,16.17984
    23.696484,23.04393 L 68.221186,117.34659 c 7.001634,4.41265
    14.72282,10.29262 22.083522,12.74406 C 72.710832,110.15215
    57.989412,84.493648 50.808232,47.231516 Z" transform="scale(0.0625,0.0625)"></path><path d="M 47.757634,0 C 60.324696,15.689314 25.136924,21.898666 44.167046,36.607392
    52.24587,41.673746 71.273896,30.723464 54.57765,17.322176
    52.423302,16.178163 62.11999,8.3349512 47.757634,0 Z m 21.182372,36.935142 c
    -3.23154,0.326846 -6.282816,2.290268 -9.155302,7.193166 -3.590588,8.33495
    12.209402,22.716724 22.98117,5.06625 C 83.483996,47.069952 94.0755,53.93163
    100,39.386326 89.946316,49.845864 79.713166,37.425428 70.377642,36.935142 Z
    M 29.80469,37.099022 C 20.469164,37.58931 10.053647,50.173186 0,39.55021
    5.9244804,54.095512 16.51881,47.070414 17.416458,49.358438 28.0087,67.008916
    43.805884,52.627142 40.215296,44.292192 36.983772,38.73555 33.395278,36.9356
    29.80469,37.099026 Z m 21.003542,10.13249 c -8.25835,37.262136
    -23.51556,63.576958 -40.211787,82.534868 7.001653,-1.96117
    14.718613,-7.19213 22.258843,-11.93164 -4.667764,9.80582 -9.154602,18.14082
    -13.822364,26.80264 2.692942,-0.98059 11.489886,-9.64435 23.338826,-22.3919
    1.795296,17.48703 4.305204,25.8241 8.07532,37.75452 3.052012,-11.93042
    5.208468,-19.9411 7.54234,-37.9184 7.181178,8.00805 14.001888,16.17984
    23.696484,23.04393 L 68.221186,117.34659 c 7.001634,4.41265
    14.72282,10.29262 22.083522,12.74406 C 72.710832,110.15215
    57.989412,84.493648 50.808232,47.231516 Z" transform="translate(6.25,10) scale(0.0625,0.0625)"></path></g></pattern><pattern id="ermines" width="12.5" height="20" patternUnits="userSpaceOnUse" x="-3.125" y="-5"><rect x="0" y="0" width="12.5" height="20" fill="#333333"></rect><g fill="#f6f6f6"><path d="M 47.757634,0 C 60.324696,15.689314 25.136924,21.898666 44.167046,36.607392
    52.24587,41.673746 71.273896,30.723464 54.57765,17.322176
    52.423302,16.178163 62.11999,8.3349512 47.757634,0 Z m 21.182372,36.935142 c
    -3.23154,0.326846 -6.282816,2.290268 -9.155302,7.193166 -3.590588,8.33495
    12.209402,22.716724 22.98117,5.06625 C 83.483996,47.069952 94.0755,53.93163
    100,39.386326 89.946316,49.845864 79.713166,37.425428 70.377642,36.935142 Z
    M 29.80469,37.099022 C 20.469164,37.58931 10.053647,50.173186 0,39.55021
    5.9244804,54.095512 16.51881,47.070414 17.416458,49.358438 28.0087,67.008916
    43.805884,52.627142 40.215296,44.292192 36.983772,38.73555 33.395278,36.9356
    29.80469,37.099026 Z m 21.003542,10.13249 c -8.25835,37.262136
    -23.51556,63.576958 -40.211787,82.534868 7.001653,-1.96117
    14.718613,-7.19213 22.258843,-11.93164 -4.667764,9.80582 -9.154602,18.14082
    -13.822364,26.80264 2.692942,-0.98059 11.489886,-9.64435 23.338826,-22.3919
    1.795296,17.48703 4.305204,25.8241 8.07532,37.75452 3.052012,-11.93042
    5.208468,-19.9411 7.54234,-37.9184 7.181178,8.00805 14.001888,16.17984
    23.696484,23.04393 L 68.221186,117.34659 c 7.001634,4.41265
    14.72282,10.29262 22.083522,12.74406 C 72.710832,110.15215
    57.989412,84.493648 50.808232,47.231516 Z" transform="scale(0.0625,0.0625)"></path><path d="M 47.757634,0 C 60.324696,15.689314 25.136924,21.898666 44.167046,36.607392
    52.24587,41.673746 71.273896,30.723464 54.57765,17.322176
    52.423302,16.178163 62.11999,8.3349512 47.757634,0 Z m 21.182372,36.935142 c
    -3.23154,0.326846 -6.282816,2.290268 -9.155302,7.193166 -3.590588,8.33495
    12.209402,22.716724 22.98117,5.06625 C 83.483996,47.069952 94.0755,53.93163
    100,39.386326 89.946316,49.845864 79.713166,37.425428 70.377642,36.935142 Z
    M 29.80469,37.099022 C 20.469164,37.58931 10.053647,50.173186 0,39.55021
    5.9244804,54.095512 16.51881,47.070414 17.416458,49.358438 28.0087,67.008916
    43.805884,52.627142 40.215296,44.292192 36.983772,38.73555 33.395278,36.9356
    29.80469,37.099026 Z m 21.003542,10.13249 c -8.25835,37.262136
    -23.51556,63.576958 -40.211787,82.534868 7.001653,-1.96117
    14.718613,-7.19213 22.258843,-11.93164 -4.667764,9.80582 -9.154602,18.14082
    -13.822364,26.80264 2.692942,-0.98059 11.489886,-9.64435 23.338826,-22.3919
    1.795296,17.48703 4.305204,25.8241 8.07532,37.75452 3.052012,-11.93042
    5.208468,-19.9411 7.54234,-37.9184 7.181178,8.00805 14.001888,16.17984
    23.696484,23.04393 L 68.221186,117.34659 c 7.001634,4.41265
    14.72282,10.29262 22.083522,12.74406 C 72.710832,110.15215
    57.989412,84.493648 50.808232,47.231516 Z" transform="translate(6.25,10) scale(0.0625,0.0625)"></path></g></pattern><pattern id="erminois" width="12.5" height="20" patternUnits="userSpaceOnUse" x="-3.125" y="-5"><rect x="0" y="0" width="12.5" height="20" fill="#f2bc51"></rect><g fill="#333333"><path d="M 47.757634,0 C 60.324696,15.689314 25.136924,21.898666 44.167046,36.607392
    52.24587,41.673746 71.273896,30.723464 54.57765,17.322176
    52.423302,16.178163 62.11999,8.3349512 47.757634,0 Z m 21.182372,36.935142 c
    -3.23154,0.326846 -6.282816,2.290268 -9.155302,7.193166 -3.590588,8.33495
    12.209402,22.716724 22.98117,5.06625 C 83.483996,47.069952 94.0755,53.93163
    100,39.386326 89.946316,49.845864 79.713166,37.425428 70.377642,36.935142 Z
    M 29.80469,37.099022 C 20.469164,37.58931 10.053647,50.173186 0,39.55021
    5.9244804,54.095512 16.51881,47.070414 17.416458,49.358438 28.0087,67.008916
    43.805884,52.627142 40.215296,44.292192 36.983772,38.73555 33.395278,36.9356
    29.80469,37.099026 Z m 21.003542,10.13249 c -8.25835,37.262136
    -23.51556,63.576958 -40.211787,82.534868 7.001653,-1.96117
    14.718613,-7.19213 22.258843,-11.93164 -4.667764,9.80582 -9.154602,18.14082
    -13.822364,26.80264 2.692942,-0.98059 11.489886,-9.64435 23.338826,-22.3919
    1.795296,17.48703 4.305204,25.8241 8.07532,37.75452 3.052012,-11.93042
    5.208468,-19.9411 7.54234,-37.9184 7.181178,8.00805 14.001888,16.17984
    23.696484,23.04393 L 68.221186,117.34659 c 7.001634,4.41265
    14.72282,10.29262 22.083522,12.74406 C 72.710832,110.15215
    57.989412,84.493648 50.808232,47.231516 Z" transform="scale(0.0625,0.0625)"></path><path d="M 47.757634,0 C 60.324696,15.689314 25.136924,21.898666 44.167046,36.607392
    52.24587,41.673746 71.273896,30.723464 54.57765,17.322176
    52.423302,16.178163 62.11999,8.3349512 47.757634,0 Z m 21.182372,36.935142 c
    -3.23154,0.326846 -6.282816,2.290268 -9.155302,7.193166 -3.590588,8.33495
    12.209402,22.716724 22.98117,5.06625 C 83.483996,47.069952 94.0755,53.93163
    100,39.386326 89.946316,49.845864 79.713166,37.425428 70.377642,36.935142 Z
    M 29.80469,37.099022 C 20.469164,37.58931 10.053647,50.173186 0,39.55021
    5.9244804,54.095512 16.51881,47.070414 17.416458,49.358438 28.0087,67.008916
    43.805884,52.627142 40.215296,44.292192 36.983772,38.73555 33.395278,36.9356
    29.80469,37.099026 Z m 21.003542,10.13249 c -8.25835,37.262136
    -23.51556,63.576958 -40.211787,82.534868 7.001653,-1.96117
    14.718613,-7.19213 22.258843,-11.93164 -4.667764,9.80582 -9.154602,18.14082
    -13.822364,26.80264 2.692942,-0.98059 11.489886,-9.64435 23.338826,-22.3919
    1.795296,17.48703 4.305204,25.8241 8.07532,37.75452 3.052012,-11.93042
    5.208468,-19.9411 7.54234,-37.9184 7.181178,8.00805 14.001888,16.17984
    23.696484,23.04393 L 68.221186,117.34659 c 7.001634,4.41265
    14.72282,10.29262 22.083522,12.74406 C 72.710832,110.15215
    57.989412,84.493648 50.808232,47.231516 Z" transform="translate(6.25,10) scale(0.0625,0.0625)"></path></g></pattern><pattern id="pean" width="12.5" height="20" patternUnits="userSpaceOnUse" x="-3.125" y="-5"><rect x="0" y="0" width="12.5" height="20" fill="#333333"></rect><g fill="#f2bc51"><path d="M 47.757634,0 C 60.324696,15.689314 25.136924,21.898666 44.167046,36.607392
    52.24587,41.673746 71.273896,30.723464 54.57765,17.322176
    52.423302,16.178163 62.11999,8.3349512 47.757634,0 Z m 21.182372,36.935142 c
    -3.23154,0.326846 -6.282816,2.290268 -9.155302,7.193166 -3.590588,8.33495
    12.209402,22.716724 22.98117,5.06625 C 83.483996,47.069952 94.0755,53.93163
    100,39.386326 89.946316,49.845864 79.713166,37.425428 70.377642,36.935142 Z
    M 29.80469,37.099022 C 20.469164,37.58931 10.053647,50.173186 0,39.55021
    5.9244804,54.095512 16.51881,47.070414 17.416458,49.358438 28.0087,67.008916
    43.805884,52.627142 40.215296,44.292192 36.983772,38.73555 33.395278,36.9356
    29.80469,37.099026 Z m 21.003542,10.13249 c -8.25835,37.262136
    -23.51556,63.576958 -40.211787,82.534868 7.001653,-1.96117
    14.718613,-7.19213 22.258843,-11.93164 -4.667764,9.80582 -9.154602,18.14082
    -13.822364,26.80264 2.692942,-0.98059 11.489886,-9.64435 23.338826,-22.3919
    1.795296,17.48703 4.305204,25.8241 8.07532,37.75452 3.052012,-11.93042
    5.208468,-19.9411 7.54234,-37.9184 7.181178,8.00805 14.001888,16.17984
    23.696484,23.04393 L 68.221186,117.34659 c 7.001634,4.41265
    14.72282,10.29262 22.083522,12.74406 C 72.710832,110.15215
    57.989412,84.493648 50.808232,47.231516 Z" transform="scale(0.0625,0.0625)"></path><path d="M 47.757634,0 C 60.324696,15.689314 25.136924,21.898666 44.167046,36.607392
    52.24587,41.673746 71.273896,30.723464 54.57765,17.322176
    52.423302,16.178163 62.11999,8.3349512 47.757634,0 Z m 21.182372,36.935142 c
    -3.23154,0.326846 -6.282816,2.290268 -9.155302,7.193166 -3.590588,8.33495
    12.209402,22.716724 22.98117,5.06625 C 83.483996,47.069952 94.0755,53.93163
    100,39.386326 89.946316,49.845864 79.713166,37.425428 70.377642,36.935142 Z
    M 29.80469,37.099022 C 20.469164,37.58931 10.053647,50.173186 0,39.55021
    5.9244804,54.095512 16.51881,47.070414 17.416458,49.358438 28.0087,67.008916
    43.805884,52.627142 40.215296,44.292192 36.983772,38.73555 33.395278,36.9356
    29.80469,37.099026 Z m 21.003542,10.13249 c -8.25835,37.262136
    -23.51556,63.576958 -40.211787,82.534868 7.001653,-1.96117
    14.718613,-7.19213 22.258843,-11.93164 -4.667764,9.80582 -9.154602,18.14082
    -13.822364,26.80264 2.692942,-0.98059 11.489886,-9.64435 23.338826,-22.3919
    1.795296,17.48703 4.305204,25.8241 8.07532,37.75452 3.052012,-11.93042
    5.208468,-19.9411 7.54234,-37.9184 7.181178,8.00805 14.001888,16.17984
    23.696484,23.04393 L 68.221186,117.34659 c 7.001634,4.41265
    14.72282,10.29262 22.083522,12.74406 C 72.710832,110.15215
    57.989412,84.493648 50.808232,47.231516 Z" transform="translate(6.25,10) scale(0.0625,0.0625)"></path></g></pattern></defs><defs><mask id="mask_3"><path d="M50,0h50v33.33333c0,35.72656 -19.05989,68.73926 -50,86.60254c-30.94011,-17.86328 -50,-50.87598 -50,-86.60254v-33.33333z" clip-rule="evenodd" fill-rule="evenodd" fill="#fff" stroke="none"></path></mask></defs><g mask="url(#mask_3)"><g><g><path d="M50,0h50v33.33333c0,35.72656 -19.05989,68.73926 -50,86.60254c-30.94011,-17.86328 -50,-50.87598 -50,-86.60254v-33.33333z" fill-rule="evenodd" fill="#f0f0f0"></path><rect y="-1000" fill="#913a6a" width="2000" x="-1000" height="2000"></rect><g></g></g></g></g><g stroke="#333333" stroke-width="0.5" fill="none" stroke-linecap="round" stroke-linejoin="round"><path d="M50,0h50v33.33333c0,35.72656 -19.05989,68.73926 -50,86.60254c-30.94011,-17.86328 -50,-50.87598 -50,-86.60254v-33.33333z"></path></g></g></g><g transform="translate(0,0)" style="transition:transform 0.5s"></g><g><g><g><defs><mask id="mask_8"><g fill="#000" stroke="none" stroke-width="0" id="unique-id_32_11" transform="translate(0,-278)"><path fill-rule="evenodd" stroke="#000" stroke-opacity="1" fill="#000" stroke-linejoin="miter" stroke-linecap="butt" stroke-width=".765469px" opacity=".99" id="unique-id_29_12" d="M69.167 334.839c23.508 36.394-42.132 39.459-24.426-1.026 4.4-16.735 25.883-21.395-4.475-41.767 38.649 13.236 20.83 24.815 25.179 36.676.649 1.772 1.668 3 3.722 6.117z" fill-opacity="1"></path><path stroke-dasharray="none" stroke="#000" stroke-opacity="1" fill="#000" stroke-dashoffset="0" stroke-width="1.07166" opacity=".99" id="unique-id_30_13" d="M253.338 305.465c-11.152-.116-22.59 5.893-28.334 22.011h14.59v12.691h-9.185l-31.34 23.013h-17.731l-27.77 20.802h-40.765c-10.395-.94-11.81-7.389-14.767-14.414l-78.844-.264 7.912 16.35c21.562.479 34.24-1.442 41.2 3.293 13.41 9.125 16.258 16.824 30.523 31.25 21.874 18.323 37.207 43.486 73.306 46.938h26.247v14.427c-19.165.656-34.131 20.425-42.51 32.183h206.223c-15.21-16.694-27.097-30.88-44.015-32.183v-14.427h22.29c34.156-4.178 62.388-34.43 89.596-69.18 45.183-72.341 69.808-72.813 75.902-61.974 20.13 35.801-16.876 37.044-45.323 49.481-17.219 7.162-40.949 23.446-45.53 31.146-16.252 31.696 51.528 26.459 14.224 2.343-2.194-1.418.785-2.69 1.1-3.842 10.927-12.427 43.038-15.468 69.15-23.924 23.667-7.664 37.955-28.08 28.239-59.065-1.83-5.834-12.74-17.367-29.229-17.633-12.823-.207-29.021 6.403-46.943 27.811-9.822 11.734-17.035 29.316-36.88 41.684H355.96l-29.016-20.802h-16.609l-30.616-23.013h-11.822v-12.69h14.327c-.683-11.677-14.548-21.863-28.887-22.012z" stroke-miterlimit="4" fill-opacity="1"></path><path d="M239.594 327.476h28.304m0 12.691h-28.304M198.38 481.562h119.698M198.38 467.135h119.698M199.069 363.181h111.267m-156.769 20.801h202.394" stroke="#000" stroke-width=".714286px" stroke-opacity="1" stroke-linecap="butt" stroke-linejoin="miter" fill="none" id="unique-id_31_14"></path></g></mask><mask id="mask_9"><g fill="#000" stroke="none" stroke-width="0" id="unique-id_32_15" transform="translate(0,-278)"><path fill-rule="evenodd" stroke="#000" stroke-opacity="1" fill="#fff" stroke-linejoin="miter" stroke-linecap="butt" stroke-width=".765469px" opacity=".99" id="unique-id_29_16" d="M69.167 334.839c23.508 36.394-42.132 39.459-24.426-1.026 4.4-16.735 25.883-21.395-4.475-41.767 38.649 13.236 20.83 24.815 25.179 36.676.649 1.772 1.668 3 3.722 6.117z" fill-opacity="1"></path><path stroke-dasharray="none" stroke="#000" stroke-opacity="1" fill="#fff" stroke-dashoffset="0" stroke-width="1.07166" opacity=".99" id="unique-id_30_17" d="M253.338 305.465c-11.152-.116-22.59 5.893-28.334 22.011h14.59v12.691h-9.185l-31.34 23.013h-17.731l-27.77 20.802h-40.765c-10.395-.94-11.81-7.389-14.767-14.414l-78.844-.264 7.912 16.35c21.562.479 34.24-1.442 41.2 3.293 13.41 9.125 16.258 16.824 30.523 31.25 21.874 18.323 37.207 43.486 73.306 46.938h26.247v14.427c-19.165.656-34.131 20.425-42.51 32.183h206.223c-15.21-16.694-27.097-30.88-44.015-32.183v-14.427h22.29c34.156-4.178 62.388-34.43 89.596-69.18 45.183-72.341 69.808-72.813 75.902-61.974 20.13 35.801-16.876 37.044-45.323 49.481-17.219 7.162-40.949 23.446-45.53 31.146-16.252 31.696 51.528 26.459 14.224 2.343-2.194-1.418.785-2.69 1.1-3.842 10.927-12.427 43.038-15.468 69.15-23.924 23.667-7.664 37.955-28.08 28.239-59.065-1.83-5.834-12.74-17.367-29.229-17.633-12.823-.207-29.021 6.403-46.943 27.811-9.822 11.734-17.035 29.316-36.88 41.684H355.96l-29.016-20.802h-16.609l-30.616-23.013h-11.822v-12.69h14.327c-.683-11.677-14.548-21.863-28.887-22.012z" stroke-miterlimit="4" fill-opacity="1"></path><path d="M239.594 327.476h28.304m0 12.691h-28.304M198.38 481.562h119.698M198.38 467.135h119.698M199.069 363.181h111.267m-156.769 20.801h202.394" stroke="#000" stroke-width=".714286px" stroke-opacity="1" stroke-linecap="butt" stroke-linejoin="miter" fill="none" id="unique-id_31_18"></path></g></mask><mask id="mask_10"><g fill="#fff" stroke="none" stroke-width="0" id="unique-id_32_19" transform="translate(0,-278)"><path fill-rule="evenodd" stroke="#fff" stroke-opacity="1" fill="#fff" stroke-linejoin="miter" stroke-linecap="butt" stroke-width=".765469px" opacity=".99" id="unique-id_29_20" d="M69.167 334.839c23.508 36.394-42.132 39.459-24.426-1.026 4.4-16.735 25.883-21.395-4.475-41.767 38.649 13.236 20.83 24.815 25.179 36.676.649 1.772 1.668 3 3.722 6.117z" fill-opacity="1"></path><path stroke-dasharray="none" stroke="#fff" stroke-opacity="1" fill="#fff" stroke-dashoffset="0" stroke-width="1.07166" opacity=".99" id="unique-id_30_21" d="M253.338 305.465c-11.152-.116-22.59 5.893-28.334 22.011h14.59v12.691h-9.185l-31.34 23.013h-17.731l-27.77 20.802h-40.765c-10.395-.94-11.81-7.389-14.767-14.414l-78.844-.264 7.912 16.35c21.562.479 34.24-1.442 41.2 3.293 13.41 9.125 16.258 16.824 30.523 31.25 21.874 18.323 37.207 43.486 73.306 46.938h26.247v14.427c-19.165.656-34.131 20.425-42.51 32.183h206.223c-15.21-16.694-27.097-30.88-44.015-32.183v-14.427h22.29c34.156-4.178 62.388-34.43 89.596-69.18 45.183-72.341 69.808-72.813 75.902-61.974 20.13 35.801-16.876 37.044-45.323 49.481-17.219 7.162-40.949 23.446-45.53 31.146-16.252 31.696 51.528 26.459 14.224 2.343-2.194-1.418.785-2.69 1.1-3.842 10.927-12.427 43.038-15.468 69.15-23.924 23.667-7.664 37.955-28.08 28.239-59.065-1.83-5.834-12.74-17.367-29.229-17.633-12.823-.207-29.021 6.403-46.943 27.811-9.822 11.734-17.035 29.316-36.88 41.684H355.96l-29.016-20.802h-16.609l-30.616-23.013h-11.822v-12.69h14.327c-.683-11.677-14.548-21.863-28.887-22.012z" stroke-miterlimit="4" fill-opacity="1"></path><path d="M239.594 327.476h28.304m0 12.691h-28.304M198.38 481.562h119.698M198.38 467.135h119.698M199.069 363.181h111.267m-156.769 20.801h202.394" stroke="#fff" stroke-width=".714286px" stroke-opacity="1" stroke-linecap="butt" stroke-linejoin="miter" fill="none" id="unique-id_31_22"></path></g></mask></defs><g transform="translate(50,59.967935)rotate(0)scale(0.14545454545454545,0.14545454545454545)translate(-275,-125)"><g></g><metadata xmlns:rdf="http://www.w3.org/1999/02/22-rdf-syntax-ns#" xmlns:cc="http://creativecommons.org/ns#" xmlns:dc="http://purl.org/dc/elements/1.1/"><rdf:RDF><rdf:Description dc:title="oil lamp" dc:creator="vairy"></rdf:Description><cc:Work rdf:about="https://heraldicon.org/charges/j0Qtit/1"><cc:license rdf:resource="https://creativecommons.org/licenses/by-sa/4.0"></cc:license><cc:attributionName>oil lamp by vairy</cc:attributionName><cc:attributionURL rdf:resource="https://heraldicon.org/users/vairy"></cc:attributionURL></cc:Work><cc:License rdf:about="https://creativecommons.org/licenses/by-sa/4.0"><cc:permits rdf:resource="http://creativecommons.org/ns#Reproduction"></cc:permits><cc:permits rdf:resource="http://creativecommons.org/ns#DerivativeWorks"></cc:permits><cc:permits rdf:resource="http://creativecommons.org/ns#Distribution"></cc:permits><cc:requires rdf:resource="http://creativecommons.org/ns#Notice"></cc:requires><cc:requires rdf:resource="http://creativecommons.org/ns#Attribution"></cc:requires><cc:requires rdf:resource="http://creativecommons.org/ns#ShareAlike"></cc:requires></cc:License></rdf:RDF><rdf:RDF rdf:about="https://commons.wikimedia.org/wiki/File:Oil_lamps_in_heraldry1.svg"><rdf:Description dc:title="File:Oil lamps in heraldry1.svg" dc:creator="Jpgibert/AnonMoos/Eugenio Hansen, OFS"></rdf:Description><cc:Work rdf:about="https://commons.wikimedia.org/wiki/File:Oil_lamps_in_heraldry1.svg"><cc:license rdf:resource="https://creativecommons.org/licenses/by-sa/3.0"></cc:license><cc:attributionName>Jpgibert/AnonMoos/Eugenio Hansen, OFS</cc:attributionName><cc:attributionURL rdf:resource="https://commons.wikimedia.org/wiki/User:Eugenio_Hansen,_OFS"></cc:attributionURL></cc:Work></rdf:RDF></metadata><g><g><g mask="url(#mask_10)"><rect transform="translate(275,125)scale(6.875,6.875)rotate(0)translate(-50,-59.967935)" x="-500" y="-500" width="1100" height="1100" fill="#333333"></rect></g><g mask="url(#mask_9)"><g transform="translate(275,125)scale(6.875,6.875)rotate(0)translate(-50,-59.967935)"><rect y="-1000" fill="#f2bc51" width="2000" x="-1000" height="2000"></rect><g></g></g></g><g mask="url(#mask_8)"><g fill="#333333" stroke="none" stroke-width="0" id="unique-id_32_23" transform="translate(0,-278)"><path fill-rule="evenodd" stroke="#333333" stroke-opacity="1" fill="#333333" stroke-linejoin="miter" stroke-linecap="butt" stroke-width=".765469px" opacity=".99" id="unique-id_29_24" d="M69.167 334.839c23.508 36.394-42.132 39.459-24.426-1.026 4.4-16.735 25.883-21.395-4.475-41.767 38.649 13.236 20.83 24.815 25.179 36.676.649 1.772 1.668 3 3.722 6.117z" fill-opacity="1"></path><path stroke-dasharray="none" stroke="#333333" stroke-opacity="1" fill="#333333" stroke-dashoffset="0" stroke-width="1.07166" opacity=".99" id="unique-id_30_25" d="M253.338 305.465c-11.152-.116-22.59 5.893-28.334 22.011h14.59v12.691h-9.185l-31.34 23.013h-17.731l-27.77 20.802h-40.765c-10.395-.94-11.81-7.389-14.767-14.414l-78.844-.264 7.912 16.35c21.562.479 34.24-1.442 41.2 3.293 13.41 9.125 16.258 16.824 30.523 31.25 21.874 18.323 37.207 43.486 73.306 46.938h26.247v14.427c-19.165.656-34.131 20.425-42.51 32.183h206.223c-15.21-16.694-27.097-30.88-44.015-32.183v-14.427h22.29c34.156-4.178 62.388-34.43 89.596-69.18 45.183-72.341 69.808-72.813 75.902-61.974 20.13 35.801-16.876 37.044-45.323 49.481-17.219 7.162-40.949 23.446-45.53 31.146-16.252 31.696 51.528 26.459 14.224 2.343-2.194-1.418.785-2.69 1.1-3.842 10.927-12.427 43.038-15.468 69.15-23.924 23.667-7.664 37.955-28.08 28.239-59.065-1.83-5.834-12.74-17.367-29.229-17.633-12.823-.207-29.021 6.403-46.943 27.811-9.822 11.734-17.035 29.316-36.88 41.684H355.96l-29.016-20.802h-16.609l-30.616-23.013h-11.822v-12.69h14.327c-.683-11.677-14.548-21.863-28.887-22.012z" stroke-miterlimit="4" fill-opacity="1"></path><path d="M239.594 327.476h28.304m0 12.691h-28.304M198.38 481.562h119.698M198.38 467.135h119.698M199.069 363.181h111.267m-156.769 20.801h202.394" stroke="#333333" stroke-width=".714286px" stroke-opacity="1" stroke-linecap="butt" stroke-linejoin="miter" fill="none" id="unique-id_31_26"></path></g></g></g></g></g></g></g></g></g></svg>