<svg viewBox="-10 -10 1020 1219.3587" xmlns="http://www.w3.org/2000/svg" xmlns:xlink="http://www.w3.org/1999/xlink" version="1.1" width="1020" height="1219.3587"><style></style><g transform="translate(500,599.67935)scale(10,10)translate(-50,-59.967935)" style="transition:transform 0.5s"><g><g></g></g><g transform="translate(0,0)" style="transition:transform 0.5s"></g><g style="transition:transform 0.5s"><g><metadata xmlns:rdf="http://www.w3.org/1999/02/22-rdf-syntax-ns#" xmlns:cc="http://creativecommons.org/ns#" xmlns:dc="http://purl.org/dc/elements/1.1/"><rdf:RDF><rdf:Description dc:title="Mendev" dc:creator="kosen"></rdf:Description><cc:Work rdf:about="https://heraldicon.org/arms/MIXOJh/4"><cc:license rdf:resource="private"></cc:license><cc:attributionName>Mendev by kosen</cc:attributionName><cc:attributionURL rdf:resource="https://heraldicon.org/users/kosen"></cc:attributionURL></cc:Work><cc:License rdf:about="private"></cc:License></rdf:RDF></metadata><defs><pattern width="20" height="20" patternUnits="userSpaceOnUse" id="void"><rect x="0" y="0" width="20" height="20" fill="#fff" class="light"></rect><rect x="0" y="0" width="10" height="10" fill="#ddd" class="dark"></rect><rect x="10" y="10" width="10" height="10" fill="#ddd" class="dark"></rect></pattern><pattern width="4" height="4" patternUnits="userSpaceOnUse" id="selected"><rect x="0" y="0" width="4" height="4" fill="#f5f5f5"></rect><g fill="#000"><circle cx="0" cy="0" r="0.3"></circle><circle cx="4" cy="0" r="0.3"></circle><circle cx="0" cy="4" r="0.3"></circle><circle cx="4" cy="4" r="0.3"></circle><circle cx="2" cy="2" r="0.3"></circle></g></pattern><pattern id="ermine" width="12.5" height="20" patternUnits="userSpaceOnUse" x="-3.125" y="-5"><rect x="0" y="0" width="12.5" height="20" fill="#f6f6f6"></rect><g fill="#333333"><path d="M 47.757634,0 C 60.324696,15.689314 25.136924,21.898666 44.167046,36.607392
    52.24587,41.673746 71.273896,30.723464 54.57765,17.322176
    52.423302,16.178163 62.11999,8.3349512 47.757634,0 Z m 21.182372,36.935142 c
    -3.23154,0.326846 -6.282816,2.290268 -9.155302,7.193166 -3.590588,8.33495
    12.209402,22.716724 22.98117,5.06625 C 83.483996,47.069952 94.0755,53.93163
    100,39.386326 89.946316,49.845864 79.713166,37.425428 70.377642,36.935142 Z
    M 29.80469,37.099022 C 20.469164,37.58931 10.053647,50.173186 0,39.55021
    5.9244804,54.095512 16.51881,47.070414 17.416458,49.358438 28.0087,67.008916
    43.805884,52.627142 40.215296,44.292192 36.983772,38.73555 33.395278,36.9356
    29.80469,37.099026 Z m 21.003542,10.13249 c -8.25835,37.262136
    -23.51556,63.576958 -40.211787,82.534868 7.001653,-1.96117
    14.718613,-7.19213 22.258843,-11.93164 -4.667764,9.80582 -9.154602,18.14082
    -13.822364,26.80264 2.692942,-0.98059 11.489886,-9.64435 23.338826,-22.3919
    1.795296,17.48703 4.305204,25.8241 8.07532,37.75452 3.052012,-11.93042
    5.208468,-19.9411 7.54234,-37.9184 7.181178,8.00805 14.001888,16.17984
    23.696484,23.04393 L 68.221186,117.34659 c 7.001634,4.41265
    14.72282,10.29262 22.083522,12.74406 C 72.710832,110.15215
    57.989412,84.493648 50.808232,47.231516 Z" transform="scale(0.0625,0.0625)"></path><path d="M 47.757634,0 C 60.324696,15.689314 25.136924,21.898666 44.167046,36.607392
    52.24587,41.673746 71.273896,30.723464 54.57765,17.322176
    52.423302,16.178163 62.11999,8.3349512 47.757634,0 Z m 21.182372,36.935142 c
    -3.23154,0.326846 -6.282816,2.290268 -9.155302,7.193166 -3.590588,8.33495
    12.209402,22.716724 22.98117,5.06625 C 83.483996,47.069952 94.0755,53.93163
    100,39.386326 89.946316,49.845864 79.713166,37.425428 70.377642,36.935142 Z
    M 29.80469,37.099022 C 20.469164,37.58931 10.053647,50.173186 0,39.55021
    5.9244804,54.095512 16.51881,47.070414 17.416458,49.358438 28.0087,67.008916
    43.805884,52.627142 40.215296,44.292192 36.983772,38.73555 33.395278,36.9356
    29.80469,37.099026 Z m 21.003542,10.13249 c -8.25835,37.262136
    -23.51556,63.576958 -40.211787,82.534868 7.001653,-1.96117
    14.718613,-7.19213 22.258843,-11.93164 -4.667764,9.80582 -9.154602,18.14082
    -13.822364,26.80264 2.692942,-0.98059 11.489886,-9.64435 23.338826,-22.3919
    1.795296,17.48703 4.305204,25.8241 8.07532,37.75452 3.052012,-11.93042
    5.208468,-19.9411 7.54234,-37.9184 7.181178,8.00805 14.001888,16.17984
    23.696484,23.04393 L 68.221186,117.34659 c 7.001634,4.41265
    14.72282,10.29262 22.083522,12.74406 C 72.710832,110.15215
    57.989412,84.493648 50.808232,47.231516 Z" transform="translate(6.25,10) scale(0.0625,0.0625)"></path></g></pattern><pattern id="ermines" width="12.5" height="20" patternUnits="userSpaceOnUse" x="-3.125" y="-5"><rect x="0" y="0" width="12.5" height="20" fill="#333333"></rect><g fill="#f6f6f6"><path d="M 47.757634,0 C 60.324696,15.689314 25.136924,21.898666 44.167046,36.607392
    52.24587,41.673746 71.273896,30.723464 54.57765,17.322176
    52.423302,16.178163 62.11999,8.3349512 47.757634,0 Z m 21.182372,36.935142 c
    -3.23154,0.326846 -6.282816,2.290268 -9.155302,7.193166 -3.590588,8.33495
    12.209402,22.716724 22.98117,5.06625 C 83.483996,47.069952 94.0755,53.93163
    100,39.386326 89.946316,49.845864 79.713166,37.425428 70.377642,36.935142 Z
    M 29.80469,37.099022 C 20.469164,37.58931 10.053647,50.173186 0,39.55021
    5.9244804,54.095512 16.51881,47.070414 17.416458,49.358438 28.0087,67.008916
    43.805884,52.627142 40.215296,44.292192 36.983772,38.73555 33.395278,36.9356
    29.80469,37.099026 Z m 21.003542,10.13249 c -8.25835,37.262136
    -23.51556,63.576958 -40.211787,82.534868 7.001653,-1.96117
    14.718613,-7.19213 22.258843,-11.93164 -4.667764,9.80582 -9.154602,18.14082
    -13.822364,26.80264 2.692942,-0.98059 11.489886,-9.64435 23.338826,-22.3919
    1.795296,17.48703 4.305204,25.8241 8.07532,37.75452 3.052012,-11.93042
    5.208468,-19.9411 7.54234,-37.9184 7.181178,8.00805 14.001888,16.17984
    23.696484,23.04393 L 68.221186,117.34659 c 7.001634,4.41265
    14.72282,10.29262 22.083522,12.74406 C 72.710832,110.15215
    57.989412,84.493648 50.808232,47.231516 Z" transform="scale(0.0625,0.0625)"></path><path d="M 47.757634,0 C 60.324696,15.689314 25.136924,21.898666 44.167046,36.607392
    52.24587,41.673746 71.273896,30.723464 54.57765,17.322176
    52.423302,16.178163 62.11999,8.3349512 47.757634,0 Z m 21.182372,36.935142 c
    -3.23154,0.326846 -6.282816,2.290268 -9.155302,7.193166 -3.590588,8.33495
    12.209402,22.716724 22.98117,5.06625 C 83.483996,47.069952 94.0755,53.93163
    100,39.386326 89.946316,49.845864 79.713166,37.425428 70.377642,36.935142 Z
    M 29.80469,37.099022 C 20.469164,37.58931 10.053647,50.173186 0,39.55021
    5.9244804,54.095512 16.51881,47.070414 17.416458,49.358438 28.0087,67.008916
    43.805884,52.627142 40.215296,44.292192 36.983772,38.73555 33.395278,36.9356
    29.80469,37.099026 Z m 21.003542,10.13249 c -8.25835,37.262136
    -23.51556,63.576958 -40.211787,82.534868 7.001653,-1.96117
    14.718613,-7.19213 22.258843,-11.93164 -4.667764,9.80582 -9.154602,18.14082
    -13.822364,26.80264 2.692942,-0.98059 11.489886,-9.64435 23.338826,-22.3919
    1.795296,17.48703 4.305204,25.8241 8.07532,37.75452 3.052012,-11.93042
    5.208468,-19.9411 7.54234,-37.9184 7.181178,8.00805 14.001888,16.17984
    23.696484,23.04393 L 68.221186,117.34659 c 7.001634,4.41265
    14.72282,10.29262 22.083522,12.74406 C 72.710832,110.15215
    57.989412,84.493648 50.808232,47.231516 Z" transform="translate(6.25,10) scale(0.0625,0.0625)"></path></g></pattern><pattern id="erminois" width="12.5" height="20" patternUnits="userSpaceOnUse" x="-3.125" y="-5"><rect x="0" y="0" width="12.5" height="20" fill="#f2bc51"></rect><g fill="#333333"><path d="M 47.757634,0 C 60.324696,15.689314 25.136924,21.898666 44.167046,36.607392
    52.24587,41.673746 71.273896,30.723464 54.57765,17.322176
    52.423302,16.178163 62.11999,8.3349512 47.757634,0 Z m 21.182372,36.935142 c
    -3.23154,0.326846 -6.282816,2.290268 -9.155302,7.193166 -3.590588,8.33495
    12.209402,22.716724 22.98117,5.06625 C 83.483996,47.069952 94.0755,53.93163
    100,39.386326 89.946316,49.845864 79.713166,37.425428 70.377642,36.935142 Z
    M 29.80469,37.099022 C 20.469164,37.58931 10.053647,50.173186 0,39.55021
    5.9244804,54.095512 16.51881,47.070414 17.416458,49.358438 28.0087,67.008916
    43.805884,52.627142 40.215296,44.292192 36.983772,38.73555 33.395278,36.9356
    29.80469,37.099026 Z m 21.003542,10.13249 c -8.25835,37.262136
    -23.51556,63.576958 -40.211787,82.534868 7.001653,-1.96117
    14.718613,-7.19213 22.258843,-11.93164 -4.667764,9.80582 -9.154602,18.14082
    -13.822364,26.80264 2.692942,-0.98059 11.489886,-9.64435 23.338826,-22.3919
    1.795296,17.48703 4.305204,25.8241 8.07532,37.75452 3.052012,-11.93042
    5.208468,-19.9411 7.54234,-37.9184 7.181178,8.00805 14.001888,16.17984
    23.696484,23.04393 L 68.221186,117.34659 c 7.001634,4.41265
    14.72282,10.29262 22.083522,12.74406 C 72.710832,110.15215
    57.989412,84.493648 50.808232,47.231516 Z" transform="scale(0.0625,0.0625)"></path><path d="M 47.757634,0 C 60.324696,15.689314 25.136924,21.898666 44.167046,36.607392
    52.24587,41.673746 71.273896,30.723464 54.57765,17.322176
    52.423302,16.178163 62.11999,8.3349512 47.757634,0 Z m 21.182372,36.935142 c
    -3.23154,0.326846 -6.282816,2.290268 -9.155302,7.193166 -3.590588,8.33495
    12.209402,22.716724 22.98117,5.06625 C 83.483996,47.069952 94.0755,53.93163
    100,39.386326 89.946316,49.845864 79.713166,37.425428 70.377642,36.935142 Z
    M 29.80469,37.099022 C 20.469164,37.58931 10.053647,50.173186 0,39.55021
    5.9244804,54.095512 16.51881,47.070414 17.416458,49.358438 28.0087,67.008916
    43.805884,52.627142 40.215296,44.292192 36.983772,38.73555 33.395278,36.9356
    29.80469,37.099026 Z m 21.003542,10.13249 c -8.25835,37.262136
    -23.51556,63.576958 -40.211787,82.534868 7.001653,-1.96117
    14.718613,-7.19213 22.258843,-11.93164 -4.667764,9.80582 -9.154602,18.14082
    -13.822364,26.80264 2.692942,-0.98059 11.489886,-9.64435 23.338826,-22.3919
    1.795296,17.48703 4.305204,25.8241 8.07532,37.75452 3.052012,-11.93042
    5.208468,-19.9411 7.54234,-37.9184 7.181178,8.00805 14.001888,16.17984
    23.696484,23.04393 L 68.221186,117.34659 c 7.001634,4.41265
    14.72282,10.29262 22.083522,12.74406 C 72.710832,110.15215
    57.989412,84.493648 50.808232,47.231516 Z" transform="translate(6.25,10) scale(0.0625,0.0625)"></path></g></pattern><pattern id="pean" width="12.5" height="20" patternUnits="userSpaceOnUse" x="-3.125" y="-5"><rect x="0" y="0" width="12.5" height="20" fill="#333333"></rect><g fill="#f2bc51"><path d="M 47.757634,0 C 60.324696,15.689314 25.136924,21.898666 44.167046,36.607392
    52.24587,41.673746 71.273896,30.723464 54.57765,17.322176
    52.423302,16.178163 62.11999,8.3349512 47.757634,0 Z m 21.182372,36.935142 c
    -3.23154,0.326846 -6.282816,2.290268 -9.155302,7.193166 -3.590588,8.33495
    12.209402,22.716724 22.98117,5.06625 C 83.483996,47.069952 94.0755,53.93163
    100,39.386326 89.946316,49.845864 79.713166,37.425428 70.377642,36.935142 Z
    M 29.80469,37.099022 C 20.469164,37.58931 10.053647,50.173186 0,39.55021
    5.9244804,54.095512 16.51881,47.070414 17.416458,49.358438 28.0087,67.008916
    43.805884,52.627142 40.215296,44.292192 36.983772,38.73555 33.395278,36.9356
    29.80469,37.099026 Z m 21.003542,10.13249 c -8.25835,37.262136
    -23.51556,63.576958 -40.211787,82.534868 7.001653,-1.96117
    14.718613,-7.19213 22.258843,-11.93164 -4.667764,9.80582 -9.154602,18.14082
    -13.822364,26.80264 2.692942,-0.98059 11.489886,-9.64435 23.338826,-22.3919
    1.795296,17.48703 4.305204,25.8241 8.07532,37.75452 3.052012,-11.93042
    5.208468,-19.9411 7.54234,-37.9184 7.181178,8.00805 14.001888,16.17984
    23.696484,23.04393 L 68.221186,117.34659 c 7.001634,4.41265
    14.72282,10.29262 22.083522,12.74406 C 72.710832,110.15215
    57.989412,84.493648 50.808232,47.231516 Z" transform="scale(0.0625,0.0625)"></path><path d="M 47.757634,0 C 60.324696,15.689314 25.136924,21.898666 44.167046,36.607392
    52.24587,41.673746 71.273896,30.723464 54.57765,17.322176
    52.423302,16.178163 62.11999,8.3349512 47.757634,0 Z m 21.182372,36.935142 c
    -3.23154,0.326846 -6.282816,2.290268 -9.155302,7.193166 -3.590588,8.33495
    12.209402,22.716724 22.98117,5.06625 C 83.483996,47.069952 94.0755,53.93163
    100,39.386326 89.946316,49.845864 79.713166,37.425428 70.377642,36.935142 Z
    M 29.80469,37.099022 C 20.469164,37.58931 10.053647,50.173186 0,39.55021
    5.9244804,54.095512 16.51881,47.070414 17.416458,49.358438 28.0087,67.008916
    43.805884,52.627142 40.215296,44.292192 36.983772,38.73555 33.395278,36.9356
    29.80469,37.099026 Z m 21.003542,10.13249 c -8.25835,37.262136
    -23.51556,63.576958 -40.211787,82.534868 7.001653,-1.96117
    14.718613,-7.19213 22.258843,-11.93164 -4.667764,9.80582 -9.154602,18.14082
    -13.822364,26.80264 2.692942,-0.98059 11.489886,-9.64435 23.338826,-22.3919
    1.795296,17.48703 4.305204,25.8241 8.07532,37.75452 3.052012,-11.93042
    5.208468,-19.9411 7.54234,-37.9184 7.181178,8.00805 14.001888,16.17984
    23.696484,23.04393 L 68.221186,117.34659 c 7.001634,4.41265
    14.72282,10.29262 22.083522,12.74406 C 72.710832,110.15215
    57.989412,84.493648 50.808232,47.231516 Z" transform="translate(6.25,10) scale(0.0625,0.0625)"></path></g></pattern></defs><defs><mask id="mask_3"><path d="M50,0h50v33.33333c0,35.72656 -19.05989,68.73926 -50,86.60254c-30.94011,-17.86328 -50,-50.87598 -50,-86.60254v-33.33333z" clip-rule="evenodd" fill-rule="evenodd" fill="#fff" stroke="none"></path></mask></defs><g mask="url(#mask_3)"><g><g><path d="M50,0h50v33.33333c0,35.72656 -19.05989,68.73926 -50,86.60254c-30.94011,-17.86328 -50,-50.87598 -50,-86.60254v-33.33333z" fill-rule="evenodd" fill="#f0f0f0"></path><g><defs><pattern id="lozengy_6-outline" width="50" height="59.9679368558886" x="0" y="0" patternUnits="userSpaceOnUse"><g stroke="#333333" stroke-width="0.5" fill="none" stroke-linecap="round" stroke-linejoin="round"><path d="M 25 0 L 50 29.9839684279443 L 25 59.9679368558886 L 0 29.9839684279443 z"></path></g></pattern><pattern id="lozengy_6-0" width="50" height="59.9679368558886" x="0" y="0" patternUnits="userSpaceOnUse"><rect x="0" y="0" width="50" height="59.9679368558886" shape-rendering="crispEdges" fill="#000000"></rect><path d="M 25 0 L 50 29.9839684279443 L 25 59.9679368558886 L 0 29.9839684279443 z" fill="#ffffff"></path></pattern><pattern id="lozengy_6-1" width="50" height="59.9679368558886" x="0" y="0" patternUnits="userSpaceOnUse"><rect x="0" y="0" width="50" height="59.9679368558886" shape-rendering="crispEdges" fill="#ffffff"></rect><path d="M 25 0 L 50 29.9839684279443 L 25 59.9679368558886 L 0 29.9839684279443 z" fill="#000000"></path></pattern></defs><g transform="rotate(0)"><mask id="mask_7"><rect x="-500" y="-500" width="1100" height="1100" fill="url(#lozengy_6-0)"></rect></mask><g mask="url(#mask_7)"><rect y="-1000" transform="rotate(0)" fill="#0c6793" width="2000" x="-1000" height="2000"></rect></g><mask id="mask_8"><rect x="-500" y="-500" width="1100" height="1100" fill="url(#lozengy_6-1)"></rect></mask><g mask="url(#mask_8)"><rect y="-1000" transform="rotate(0)" fill="#bb2f2e" width="2000" x="-1000" height="2000"></rect></g><rect x="-500" y="-500" width="1100" height="1100" fill="url(#lozengy_6-outline)"></rect></g></g><g></g></g></g></g><g stroke="#333333" stroke-width="0.5" fill="none" stroke-linecap="round" stroke-linejoin="round"><path d="M50,0h50v33.33333c0,35.72656 -19.05989,68.73926 -50,86.60254c-30.94011,-17.86328 -50,-50.87598 -50,-86.60254v-33.33333z"></path></g></g></g><g transform="translate(0,0)" style="transition:transform 0.5s"></g><g><g><g><defs><mask id="mask_11"><g stroke="none" transform="translate(10,178.72)" fill="#fff" stroke-width="0"><switch><g><g stroke-miterlimit="10"><path fill="#000" stroke="#fff" stroke-width="3" d="M369.704 540.102h45.94l3.548-4.181c-2.098-80.99-10.935-581.998-10.935-590.542 0-13.74-5.715-71.755-15.511-71.755-9.797 0-16.185 57.535-16.185 71.824 0 .748-8.34 508.262-10.422 590.485z" stroke-opacity="1"></path><path fill="none" stroke="#fff" stroke-width="2.5" d="M385.884 536.493h13.568S396.322 4.19 392.534 4.192c-3.786 0-6.65 532.301-6.65 532.301z" stroke-opacity="1"></path><path fill="#000" stroke="#fff" stroke-width="3" d="M380.589 652.882h24.145s10.799-108.067 10.379-107.576c-2.144-5.305-12.136-9.309-22.528-9.219-9.822.08-20.051 3.967-22.381 9.22.002-.247 10.385 107.575 10.385 107.575z" stroke-opacity=".941"></path><g fill="none" stroke="#fff" stroke-width="3"><path d="M371.725 556.637c1.998 4.195 11.318 6.342 21.01 6.271 9.16-.064 18.7-2.119 20.872-6.271M373.853 575.607c1.795 3.769 10.168 5.594 18.874 5.53 8.23-.056 16.8-1.8 18.752-5.53M375.343 593.75c1.653 3.47 9.363 5.07 17.38 5.011 7.577-.053 15.469-1.577 17.268-5.012M376.904 611.892c1.503 3.158 8.519 4.522 15.814 4.468 6.895-.048 14.076-1.343 15.711-4.469M379.388 629.74c1.267 2.66 7.177 3.648 13.322 3.603 5.808-.04 11.857-.971 13.235-3.604"></path></g><path fill="#000" stroke="#fff" stroke-width="3" d="M392.666 552.296c-32.791-.198-64.057-1.58-96.75-4.146 2.072-6.673 4.142-18.592 6.213-25.265 15.043 3.17 27.225 9.716 42.478 11.634 16.036 2.015 36.585-2.154 48.057-4.384 11.472 2.23 32.023 6.398 48.058 4.384 15.253-1.918 27.435-8.464 42.477-11.634 2.07 6.673 4.143 18.591 6.213 25.265-32.69 2.565-63.955 3.948-96.746 4.146z" stroke-opacity="1"></path><path fill="#000" stroke="#fff" stroke-width="3" d="M392.666 701.291c-15.465 0-28.002-11.519-28.002-26.984 0-11.663 7.132-21.657 17.27-25.868 2.784 1.382 7.37 2.002 12.091 1.968 3.81-.026 7.705-.476 10.539-1.45 9.514 4.474 16.104 14.14 16.104 25.35.001 15.464-12.536 26.984-28.002 26.984z" stroke-opacity=".941"></path><path fill="none" stroke="#fff" stroke-width="2.5" d="M411.287 678.902c0-10.284-8.337-18.621-18.621-18.622-10.284 0-18.621 8.337-18.622 18.622 0 10.283 8.337 17.602 18.621 17.602 10.285 0 18.622-7.318 18.622-17.602z" stroke-opacity=".941"></path><path fill="none" stroke="#fff" stroke-width="3" stroke-opacity=".941" d="M392.665 530.134l.001 22.162"></path></g></g></switch></g></mask><mask id="mask_12"><g stroke="none" transform="translate(10,178.72)" fill="#000" stroke-width="0"><switch><g><g stroke-miterlimit="10"><path fill="#fff" stroke="#000" stroke-width="3" d="M369.704 540.102h45.94l3.548-4.181c-2.098-80.99-10.935-581.998-10.935-590.542 0-13.74-5.715-71.755-15.511-71.755-9.797 0-16.185 57.535-16.185 71.824 0 .748-8.34 508.262-10.422 590.485z" stroke-opacity="1"></path><path fill="none" stroke="#000" stroke-width="2.5" d="M385.884 536.493h13.568S396.322 4.19 392.534 4.192c-3.786 0-6.65 532.301-6.65 532.301z" stroke-opacity="1"></path><path fill="#fff" stroke="#000" stroke-width="3" d="M380.589 652.882h24.145s10.799-108.067 10.379-107.576c-2.144-5.305-12.136-9.309-22.528-9.219-9.822.08-20.051 3.967-22.381 9.22.002-.247 10.385 107.575 10.385 107.575z" stroke-opacity=".941"></path><g fill="none" stroke="#000" stroke-width="3"><path d="M371.725 556.637c1.998 4.195 11.318 6.342 21.01 6.271 9.16-.064 18.7-2.119 20.872-6.271M373.853 575.607c1.795 3.769 10.168 5.594 18.874 5.53 8.23-.056 16.8-1.8 18.752-5.53M375.343 593.75c1.653 3.47 9.363 5.07 17.38 5.011 7.577-.053 15.469-1.577 17.268-5.012M376.904 611.892c1.503 3.158 8.519 4.522 15.814 4.468 6.895-.048 14.076-1.343 15.711-4.469M379.388 629.74c1.267 2.66 7.177 3.648 13.322 3.603 5.808-.04 11.857-.971 13.235-3.604"></path></g><path fill="#fff" stroke="#000" stroke-width="3" d="M392.666 552.296c-32.791-.198-64.057-1.58-96.75-4.146 2.072-6.673 4.142-18.592 6.213-25.265 15.043 3.17 27.225 9.716 42.478 11.634 16.036 2.015 36.585-2.154 48.057-4.384 11.472 2.23 32.023 6.398 48.058 4.384 15.253-1.918 27.435-8.464 42.477-11.634 2.07 6.673 4.143 18.591 6.213 25.265-32.69 2.565-63.955 3.948-96.746 4.146z" stroke-opacity="1"></path><path fill="#fff" stroke="#000" stroke-width="3" d="M392.666 701.291c-15.465 0-28.002-11.519-28.002-26.984 0-11.663 7.132-21.657 17.27-25.868 2.784 1.382 7.37 2.002 12.091 1.968 3.81-.026 7.705-.476 10.539-1.45 9.514 4.474 16.104 14.14 16.104 25.35.001 15.464-12.536 26.984-28.002 26.984z" stroke-opacity=".941"></path><path fill="none" stroke="#000" stroke-width="2.5" d="M411.287 678.902c0-10.284-8.337-18.621-18.621-18.622-10.284 0-18.621 8.337-18.622 18.622 0 10.283 8.337 17.602 18.621 17.602 10.285 0 18.622-7.318 18.622-17.602z" stroke-opacity=".941"></path><path fill="none" stroke="#000" stroke-width="3" stroke-opacity=".941" d="M392.665 530.134l.001 22.162"></path></g></g></switch></g></mask><mask id="mask_13"><g stroke="none" transform="translate(10,178.72)" fill="#fff" stroke-width="0"><switch><g><g stroke-miterlimit="10"><path fill="#fff" stroke="#fff" stroke-width="3" d="M369.704 540.102h45.94l3.548-4.181c-2.098-80.99-10.935-581.998-10.935-590.542 0-13.74-5.715-71.755-15.511-71.755-9.797 0-16.185 57.535-16.185 71.824 0 .748-8.34 508.262-10.422 590.485z" stroke-opacity="1"></path><path fill="none" stroke="#fff" stroke-width="2.5" d="M385.884 536.493h13.568S396.322 4.19 392.534 4.192c-3.786 0-6.65 532.301-6.65 532.301z" stroke-opacity="1"></path><path fill="#fff" stroke="#fff" stroke-width="3" d="M380.589 652.882h24.145s10.799-108.067 10.379-107.576c-2.144-5.305-12.136-9.309-22.528-9.219-9.822.08-20.051 3.967-22.381 9.22.002-.247 10.385 107.575 10.385 107.575z" stroke-opacity=".941"></path><g fill="none" stroke="#fff" stroke-width="3"><path d="M371.725 556.637c1.998 4.195 11.318 6.342 21.01 6.271 9.16-.064 18.7-2.119 20.872-6.271M373.853 575.607c1.795 3.769 10.168 5.594 18.874 5.53 8.23-.056 16.8-1.8 18.752-5.53M375.343 593.75c1.653 3.47 9.363 5.07 17.38 5.011 7.577-.053 15.469-1.577 17.268-5.012M376.904 611.892c1.503 3.158 8.519 4.522 15.814 4.468 6.895-.048 14.076-1.343 15.711-4.469M379.388 629.74c1.267 2.66 7.177 3.648 13.322 3.603 5.808-.04 11.857-.971 13.235-3.604"></path></g><path fill="#fff" stroke="#fff" stroke-width="3" d="M392.666 552.296c-32.791-.198-64.057-1.58-96.75-4.146 2.072-6.673 4.142-18.592 6.213-25.265 15.043 3.17 27.225 9.716 42.478 11.634 16.036 2.015 36.585-2.154 48.057-4.384 11.472 2.23 32.023 6.398 48.058 4.384 15.253-1.918 27.435-8.464 42.477-11.634 2.07 6.673 4.143 18.591 6.213 25.265-32.69 2.565-63.955 3.948-96.746 4.146z" stroke-opacity="1"></path><path fill="#fff" stroke="#fff" stroke-width="3" d="M392.666 701.291c-15.465 0-28.002-11.519-28.002-26.984 0-11.663 7.132-21.657 17.27-25.868 2.784 1.382 7.37 2.002 12.091 1.968 3.81-.026 7.705-.476 10.539-1.45 9.514 4.474 16.104 14.14 16.104 25.35.001 15.464-12.536 26.984-28.002 26.984z" stroke-opacity=".941"></path><path fill="none" stroke="#fff" stroke-width="2.5" d="M411.287 678.902c0-10.284-8.337-18.621-18.621-18.622-10.284 0-18.621 8.337-18.622 18.622 0 10.283 8.337 17.602 18.621 17.602 10.285 0 18.622-7.318 18.622-17.602z" stroke-opacity=".941"></path><path fill="none" stroke="#fff" stroke-width="3" stroke-opacity=".941" d="M392.665 530.134l.001 22.162"></path></g></g></switch></g></mask></defs><g transform="translate(50,59.967935)rotate(180)scale(0.08818813970588235,0.08818813970588235)translate(-410,-476)"><g></g><metadata xmlns:rdf="http://www.w3.org/1999/02/22-rdf-syntax-ns#" xmlns:cc="http://creativecommons.org/ns#" xmlns:dc="http://purl.org/dc/elements/1.1/"><rdf:RDF><rdf:Description dc:title="Sword" dc:creator="percival"></rdf:Description><cc:Work rdf:about="https://heraldicon.org/charges/A4g5Ie/2"><cc:license rdf:resource="https://creativecommons.org/licenses/by-nc-sa/4.0"></cc:license><cc:attributionName>Sword by percival</cc:attributionName><cc:attributionURL rdf:resource="https://heraldicon.org/users/percival"></cc:attributionURL></cc:Work><cc:License rdf:about="https://creativecommons.org/licenses/by-nc-sa/4.0"><cc:permits rdf:resource="http://creativecommons.org/ns#Reproduction"></cc:permits><cc:permits rdf:resource="http://creativecommons.org/ns#DerivativeWorks"></cc:permits><cc:permits rdf:resource="http://creativecommons.org/ns#Distribution"></cc:permits><cc:requires rdf:resource="http://creativecommons.org/ns#Notice"></cc:requires><cc:requires rdf:resource="http://creativecommons.org/ns#Attribution"></cc:requires><cc:requires rdf:resource="http://creativecommons.org/ns#ShareAlike"></cc:requires><cc:prohibits rdf:resource="http://creativecommons.org/ns#CommercialUse"></cc:prohibits></cc:License></rdf:RDF><rdf:RDF rdf:about="https://wappenwiki.org/index.php?title=File:Chimay.svg"><rdf:Description dc:title="Chimay" dc:creator="WappenWiki"></rdf:Description><cc:Work rdf:about="https://wappenwiki.org/index.php?title=File:Chimay.svg"><cc:license rdf:resource="https://creativecommons.org/licenses/by-nc-sa/3.0"></cc:license><cc:attributionName>WappenWiki</cc:attributionName><cc:attributionURL rdf:resource="http://wappenwiki.org"></cc:attributionURL></cc:Work></rdf:RDF></metadata><g><g><g mask="url(#mask_13)"><rect transform="translate(410,476)scale(11.339393294099589,11.339393294099589)rotate(-180)translate(-50,-59.967935)" x="-500" y="-500" width="1100" height="1100" fill="#333333"></rect></g><g mask="url(#mask_12)"><g transform="translate(410,476)scale(11.339393294099589,11.339393294099589)rotate(-180)translate(-50,-59.967935)"><rect y="-1000" fill="#f2bc51" width="2000" x="-1000" height="2000"></rect><g></g></g></g><g mask="url(#mask_11)"><g stroke="none" transform="translate(10,178.72)" fill="#000000" stroke-width="0"><switch><g><g stroke-miterlimit="10"><path fill="#333333" stroke="#000009" stroke-width="3" d="M369.704 540.102h45.94l3.548-4.181c-2.098-80.99-10.935-581.998-10.935-590.542 0-13.74-5.715-71.755-15.511-71.755-9.797 0-16.185 57.535-16.185 71.824 0 .748-8.34 508.262-10.422 590.485z" stroke-opacity="1"></path><path fill="none" stroke="#000009" stroke-width="2.5" d="M385.884 536.493h13.568S396.322 4.19 392.534 4.192c-3.786 0-6.65 532.301-6.65 532.301z" stroke-opacity="1"></path><path fill="#333333" stroke="#000" stroke-width="3" d="M380.589 652.882h24.145s10.799-108.067 10.379-107.576c-2.144-5.305-12.136-9.309-22.528-9.219-9.822.08-20.051 3.967-22.381 9.22.002-.247 10.385 107.575 10.385 107.575z" stroke-opacity=".941"></path><g fill="none" stroke="#000" stroke-width="3"><path d="M371.725 556.637c1.998 4.195 11.318 6.342 21.01 6.271 9.16-.064 18.7-2.119 20.872-6.271M373.853 575.607c1.795 3.769 10.168 5.594 18.874 5.53 8.23-.056 16.8-1.8 18.752-5.53M375.343 593.75c1.653 3.47 9.363 5.07 17.38 5.011 7.577-.053 15.469-1.577 17.268-5.012M376.904 611.892c1.503 3.158 8.519 4.522 15.814 4.468 6.895-.048 14.076-1.343 15.711-4.469M379.388 629.74c1.267 2.66 7.177 3.648 13.322 3.603 5.808-.04 11.857-.971 13.235-3.604"></path></g><path fill="#333333" stroke="#000009" stroke-width="3" d="M392.666 552.296c-32.791-.198-64.057-1.58-96.75-4.146 2.072-6.673 4.142-18.592 6.213-25.265 15.043 3.17 27.225 9.716 42.478 11.634 16.036 2.015 36.585-2.154 48.057-4.384 11.472 2.23 32.023 6.398 48.058 4.384 15.253-1.918 27.435-8.464 42.477-11.634 2.07 6.673 4.143 18.591 6.213 25.265-32.69 2.565-63.955 3.948-96.746 4.146z" stroke-opacity="1"></path><path fill="#333333" stroke="#000" stroke-width="3" d="M392.666 701.291c-15.465 0-28.002-11.519-28.002-26.984 0-11.663 7.132-21.657 17.27-25.868 2.784 1.382 7.37 2.002 12.091 1.968 3.81-.026 7.705-.476 10.539-1.45 9.514 4.474 16.104 14.14 16.104 25.35.001 15.464-12.536 26.984-28.002 26.984z" stroke-opacity=".941"></path><path fill="none" stroke="#000" stroke-width="2.5" d="M411.287 678.902c0-10.284-8.337-18.621-18.621-18.622-10.284 0-18.621 8.337-18.622 18.622 0 10.283 8.337 17.602 18.621 17.602 10.285 0 18.622-7.318 18.622-17.602z" stroke-opacity=".941"></path><path fill="none" stroke="#000" stroke-width="3" stroke-opacity=".941" d="M392.665 530.134l.001 22.162"></path></g></g></switch></g></g></g></g></g></g></g></g></g></svg>