<svg viewBox="-10 -10 1020 1219.3587" xmlns="http://www.w3.org/2000/svg" xmlns:xlink="http://www.w3.org/1999/xlink" version="1.1" width="1020" height="1219.3587"><style></style><g transform="translate(500,599.67935)scale(10,10)translate(-50,-59.967935)" style="transition:transform 0.5s"><g transform="translate(0,0)" style="transition:transform 0.5s"></g><g style="transition:transform 0.5s"><g><metadata xmlns:rdf="http://www.w3.org/1999/02/22-rdf-syntax-ns#" xmlns:cc="http://creativecommons.org/ns#" xmlns:dc="http://purl.org/dc/elements/1.1/"><rdf:RDF><rdf:Description dc:title="Nex" dc:creator="kosen"></rdf:Description><cc:Work rdf:about="https://heraldicon.org/arms/2wRUMq/1"><cc:license rdf:resource="private"></cc:license><cc:attributionName>Nex by kosen</cc:attributionName><cc:attributionURL rdf:resource="https://heraldicon.org/users/kosen"></cc:attributionURL></cc:Work><cc:License rdf:about="private"></cc:License></rdf:RDF></metadata><defs><pattern width="20" height="20" patternUnits="userSpaceOnUse" id="void"><rect x="0" y="0" width="20" height="20" fill="#fff" class="light"></rect><rect x="0" y="0" width="10" height="10" fill="#ddd" class="dark"></rect><rect x="10" y="10" width="10" height="10" fill="#ddd" class="dark"></rect></pattern><pattern width="4" height="4" patternUnits="userSpaceOnUse" id="selected"><rect x="0" y="0" width="4" height="4" fill="#f5f5f5"></rect><g fill="#000"><circle cx="0" cy="0" r="0.3"></circle><circle cx="4" cy="0" r="0.3"></circle><circle cx="0" cy="4" r="0.3"></circle><circle cx="4" cy="4" r="0.3"></circle><circle cx="2" cy="2" r="0.3"></circle></g></pattern><pattern id="ermine" width="12.5" height="20" patternUnits="userSpaceOnUse" x="-3.125" y="-5"><rect x="0" y="0" width="12.5" height="20" fill="#f6f6f6"></rect><g fill="#333333"><path d="M 47.757634,0 C 60.324696,15.689314 25.136924,21.898666 44.167046,36.607392
    52.24587,41.673746 71.273896,30.723464 54.57765,17.322176
    52.423302,16.178163 62.11999,8.3349512 47.757634,0 Z m 21.182372,36.935142 c
    -3.23154,0.326846 -6.282816,2.290268 -9.155302,7.193166 -3.590588,8.33495
    12.209402,22.716724 22.98117,5.06625 C 83.483996,47.069952 94.0755,53.93163
    100,39.386326 89.946316,49.845864 79.713166,37.425428 70.377642,36.935142 Z
    M 29.80469,37.099022 C 20.469164,37.58931 10.053647,50.173186 0,39.55021
    5.9244804,54.095512 16.51881,47.070414 17.416458,49.358438 28.0087,67.008916
    43.805884,52.627142 40.215296,44.292192 36.983772,38.73555 33.395278,36.9356
    29.80469,37.099026 Z m 21.003542,10.13249 c -8.25835,37.262136
    -23.51556,63.576958 -40.211787,82.534868 7.001653,-1.96117
    14.718613,-7.19213 22.258843,-11.93164 -4.667764,9.80582 -9.154602,18.14082
    -13.822364,26.80264 2.692942,-0.98059 11.489886,-9.64435 23.338826,-22.3919
    1.795296,17.48703 4.305204,25.8241 8.07532,37.75452 3.052012,-11.93042
    5.208468,-19.9411 7.54234,-37.9184 7.181178,8.00805 14.001888,16.17984
    23.696484,23.04393 L 68.221186,117.34659 c 7.001634,4.41265
    14.72282,10.29262 22.083522,12.74406 C 72.710832,110.15215
    57.989412,84.493648 50.808232,47.231516 Z" transform="scale(0.0625,0.0625)"></path><path d="M 47.757634,0 C 60.324696,15.689314 25.136924,21.898666 44.167046,36.607392
    52.24587,41.673746 71.273896,30.723464 54.57765,17.322176
    52.423302,16.178163 62.11999,8.3349512 47.757634,0 Z m 21.182372,36.935142 c
    -3.23154,0.326846 -6.282816,2.290268 -9.155302,7.193166 -3.590588,8.33495
    12.209402,22.716724 22.98117,5.06625 C 83.483996,47.069952 94.0755,53.93163
    100,39.386326 89.946316,49.845864 79.713166,37.425428 70.377642,36.935142 Z
    M 29.80469,37.099022 C 20.469164,37.58931 10.053647,50.173186 0,39.55021
    5.9244804,54.095512 16.51881,47.070414 17.416458,49.358438 28.0087,67.008916
    43.805884,52.627142 40.215296,44.292192 36.983772,38.73555 33.395278,36.9356
    29.80469,37.099026 Z m 21.003542,10.13249 c -8.25835,37.262136
    -23.51556,63.576958 -40.211787,82.534868 7.001653,-1.96117
    14.718613,-7.19213 22.258843,-11.93164 -4.667764,9.80582 -9.154602,18.14082
    -13.822364,26.80264 2.692942,-0.98059 11.489886,-9.64435 23.338826,-22.3919
    1.795296,17.48703 4.305204,25.8241 8.07532,37.75452 3.052012,-11.93042
    5.208468,-19.9411 7.54234,-37.9184 7.181178,8.00805 14.001888,16.17984
    23.696484,23.04393 L 68.221186,117.34659 c 7.001634,4.41265
    14.72282,10.29262 22.083522,12.74406 C 72.710832,110.15215
    57.989412,84.493648 50.808232,47.231516 Z" transform="translate(6.25,10) scale(0.0625,0.0625)"></path></g></pattern><pattern id="ermines" width="12.5" height="20" patternUnits="userSpaceOnUse" x="-3.125" y="-5"><rect x="0" y="0" width="12.5" height="20" fill="#333333"></rect><g fill="#f6f6f6"><path d="M 47.757634,0 C 60.324696,15.689314 25.136924,21.898666 44.167046,36.607392
    52.24587,41.673746 71.273896,30.723464 54.57765,17.322176
    52.423302,16.178163 62.11999,8.3349512 47.757634,0 Z m 21.182372,36.935142 c
    -3.23154,0.326846 -6.282816,2.290268 -9.155302,7.193166 -3.590588,8.33495
    12.209402,22.716724 22.98117,5.06625 C 83.483996,47.069952 94.0755,53.93163
    100,39.386326 89.946316,49.845864 79.713166,37.425428 70.377642,36.935142 Z
    M 29.80469,37.099022 C 20.469164,37.58931 10.053647,50.173186 0,39.55021
    5.9244804,54.095512 16.51881,47.070414 17.416458,49.358438 28.0087,67.008916
    43.805884,52.627142 40.215296,44.292192 36.983772,38.73555 33.395278,36.9356
    29.80469,37.099026 Z m 21.003542,10.13249 c -8.25835,37.262136
    -23.51556,63.576958 -40.211787,82.534868 7.001653,-1.96117
    14.718613,-7.19213 22.258843,-11.93164 -4.667764,9.80582 -9.154602,18.14082
    -13.822364,26.80264 2.692942,-0.98059 11.489886,-9.64435 23.338826,-22.3919
    1.795296,17.48703 4.305204,25.8241 8.07532,37.75452 3.052012,-11.93042
    5.208468,-19.9411 7.54234,-37.9184 7.181178,8.00805 14.001888,16.17984
    23.696484,23.04393 L 68.221186,117.34659 c 7.001634,4.41265
    14.72282,10.29262 22.083522,12.74406 C 72.710832,110.15215
    57.989412,84.493648 50.808232,47.231516 Z" transform="scale(0.0625,0.0625)"></path><path d="M 47.757634,0 C 60.324696,15.689314 25.136924,21.898666 44.167046,36.607392
    52.24587,41.673746 71.273896,30.723464 54.57765,17.322176
    52.423302,16.178163 62.11999,8.3349512 47.757634,0 Z m 21.182372,36.935142 c
    -3.23154,0.326846 -6.282816,2.290268 -9.155302,7.193166 -3.590588,8.33495
    12.209402,22.716724 22.98117,5.06625 C 83.483996,47.069952 94.0755,53.93163
    100,39.386326 89.946316,49.845864 79.713166,37.425428 70.377642,36.935142 Z
    M 29.80469,37.099022 C 20.469164,37.58931 10.053647,50.173186 0,39.55021
    5.9244804,54.095512 16.51881,47.070414 17.416458,49.358438 28.0087,67.008916
    43.805884,52.627142 40.215296,44.292192 36.983772,38.73555 33.395278,36.9356
    29.80469,37.099026 Z m 21.003542,10.13249 c -8.25835,37.262136
    -23.51556,63.576958 -40.211787,82.534868 7.001653,-1.96117
    14.718613,-7.19213 22.258843,-11.93164 -4.667764,9.80582 -9.154602,18.14082
    -13.822364,26.80264 2.692942,-0.98059 11.489886,-9.64435 23.338826,-22.3919
    1.795296,17.48703 4.305204,25.8241 8.07532,37.75452 3.052012,-11.93042
    5.208468,-19.9411 7.54234,-37.9184 7.181178,8.00805 14.001888,16.17984
    23.696484,23.04393 L 68.221186,117.34659 c 7.001634,4.41265
    14.72282,10.29262 22.083522,12.74406 C 72.710832,110.15215
    57.989412,84.493648 50.808232,47.231516 Z" transform="translate(6.25,10) scale(0.0625,0.0625)"></path></g></pattern><pattern id="erminois" width="12.5" height="20" patternUnits="userSpaceOnUse" x="-3.125" y="-5"><rect x="0" y="0" width="12.5" height="20" fill="#f2bc51"></rect><g fill="#333333"><path d="M 47.757634,0 C 60.324696,15.689314 25.136924,21.898666 44.167046,36.607392
    52.24587,41.673746 71.273896,30.723464 54.57765,17.322176
    52.423302,16.178163 62.11999,8.3349512 47.757634,0 Z m 21.182372,36.935142 c
    -3.23154,0.326846 -6.282816,2.290268 -9.155302,7.193166 -3.590588,8.33495
    12.209402,22.716724 22.98117,5.06625 C 83.483996,47.069952 94.0755,53.93163
    100,39.386326 89.946316,49.845864 79.713166,37.425428 70.377642,36.935142 Z
    M 29.80469,37.099022 C 20.469164,37.58931 10.053647,50.173186 0,39.55021
    5.9244804,54.095512 16.51881,47.070414 17.416458,49.358438 28.0087,67.008916
    43.805884,52.627142 40.215296,44.292192 36.983772,38.73555 33.395278,36.9356
    29.80469,37.099026 Z m 21.003542,10.13249 c -8.25835,37.262136
    -23.51556,63.576958 -40.211787,82.534868 7.001653,-1.96117
    14.718613,-7.19213 22.258843,-11.93164 -4.667764,9.80582 -9.154602,18.14082
    -13.822364,26.80264 2.692942,-0.98059 11.489886,-9.64435 23.338826,-22.3919
    1.795296,17.48703 4.305204,25.8241 8.07532,37.75452 3.052012,-11.93042
    5.208468,-19.9411 7.54234,-37.9184 7.181178,8.00805 14.001888,16.17984
    23.696484,23.04393 L 68.221186,117.34659 c 7.001634,4.41265
    14.72282,10.29262 22.083522,12.74406 C 72.710832,110.15215
    57.989412,84.493648 50.808232,47.231516 Z" transform="scale(0.0625,0.0625)"></path><path d="M 47.757634,0 C 60.324696,15.689314 25.136924,21.898666 44.167046,36.607392
    52.24587,41.673746 71.273896,30.723464 54.57765,17.322176
    52.423302,16.178163 62.11999,8.3349512 47.757634,0 Z m 21.182372,36.935142 c
    -3.23154,0.326846 -6.282816,2.290268 -9.155302,7.193166 -3.590588,8.33495
    12.209402,22.716724 22.98117,5.06625 C 83.483996,47.069952 94.0755,53.93163
    100,39.386326 89.946316,49.845864 79.713166,37.425428 70.377642,36.935142 Z
    M 29.80469,37.099022 C 20.469164,37.58931 10.053647,50.173186 0,39.55021
    5.9244804,54.095512 16.51881,47.070414 17.416458,49.358438 28.0087,67.008916
    43.805884,52.627142 40.215296,44.292192 36.983772,38.73555 33.395278,36.9356
    29.80469,37.099026 Z m 21.003542,10.13249 c -8.25835,37.262136
    -23.51556,63.576958 -40.211787,82.534868 7.001653,-1.96117
    14.718613,-7.19213 22.258843,-11.93164 -4.667764,9.80582 -9.154602,18.14082
    -13.822364,26.80264 2.692942,-0.98059 11.489886,-9.64435 23.338826,-22.3919
    1.795296,17.48703 4.305204,25.8241 8.07532,37.75452 3.052012,-11.93042
    5.208468,-19.9411 7.54234,-37.9184 7.181178,8.00805 14.001888,16.17984
    23.696484,23.04393 L 68.221186,117.34659 c 7.001634,4.41265
    14.72282,10.29262 22.083522,12.74406 C 72.710832,110.15215
    57.989412,84.493648 50.808232,47.231516 Z" transform="translate(6.25,10) scale(0.0625,0.0625)"></path></g></pattern><pattern id="pean" width="12.5" height="20" patternUnits="userSpaceOnUse" x="-3.125" y="-5"><rect x="0" y="0" width="12.5" height="20" fill="#333333"></rect><g fill="#f2bc51"><path d="M 47.757634,0 C 60.324696,15.689314 25.136924,21.898666 44.167046,36.607392
    52.24587,41.673746 71.273896,30.723464 54.57765,17.322176
    52.423302,16.178163 62.11999,8.3349512 47.757634,0 Z m 21.182372,36.935142 c
    -3.23154,0.326846 -6.282816,2.290268 -9.155302,7.193166 -3.590588,8.33495
    12.209402,22.716724 22.98117,5.06625 C 83.483996,47.069952 94.0755,53.93163
    100,39.386326 89.946316,49.845864 79.713166,37.425428 70.377642,36.935142 Z
    M 29.80469,37.099022 C 20.469164,37.58931 10.053647,50.173186 0,39.55021
    5.9244804,54.095512 16.51881,47.070414 17.416458,49.358438 28.0087,67.008916
    43.805884,52.627142 40.215296,44.292192 36.983772,38.73555 33.395278,36.9356
    29.80469,37.099026 Z m 21.003542,10.13249 c -8.25835,37.262136
    -23.51556,63.576958 -40.211787,82.534868 7.001653,-1.96117
    14.718613,-7.19213 22.258843,-11.93164 -4.667764,9.80582 -9.154602,18.14082
    -13.822364,26.80264 2.692942,-0.98059 11.489886,-9.64435 23.338826,-22.3919
    1.795296,17.48703 4.305204,25.8241 8.07532,37.75452 3.052012,-11.93042
    5.208468,-19.9411 7.54234,-37.9184 7.181178,8.00805 14.001888,16.17984
    23.696484,23.04393 L 68.221186,117.34659 c 7.001634,4.41265
    14.72282,10.29262 22.083522,12.74406 C 72.710832,110.15215
    57.989412,84.493648 50.808232,47.231516 Z" transform="scale(0.0625,0.0625)"></path><path d="M 47.757634,0 C 60.324696,15.689314 25.136924,21.898666 44.167046,36.607392
    52.24587,41.673746 71.273896,30.723464 54.57765,17.322176
    52.423302,16.178163 62.11999,8.3349512 47.757634,0 Z m 21.182372,36.935142 c
    -3.23154,0.326846 -6.282816,2.290268 -9.155302,7.193166 -3.590588,8.33495
    12.209402,22.716724 22.98117,5.06625 C 83.483996,47.069952 94.0755,53.93163
    100,39.386326 89.946316,49.845864 79.713166,37.425428 70.377642,36.935142 Z
    M 29.80469,37.099022 C 20.469164,37.58931 10.053647,50.173186 0,39.55021
    5.9244804,54.095512 16.51881,47.070414 17.416458,49.358438 28.0087,67.008916
    43.805884,52.627142 40.215296,44.292192 36.983772,38.73555 33.395278,36.9356
    29.80469,37.099026 Z m 21.003542,10.13249 c -8.25835,37.262136
    -23.51556,63.576958 -40.211787,82.534868 7.001653,-1.96117
    14.718613,-7.19213 22.258843,-11.93164 -4.667764,9.80582 -9.154602,18.14082
    -13.822364,26.80264 2.692942,-0.98059 11.489886,-9.64435 23.338826,-22.3919
    1.795296,17.48703 4.305204,25.8241 8.07532,37.75452 3.052012,-11.93042
    5.208468,-19.9411 7.54234,-37.9184 7.181178,8.00805 14.001888,16.17984
    23.696484,23.04393 L 68.221186,117.34659 c 7.001634,4.41265
    14.72282,10.29262 22.083522,12.74406 C 72.710832,110.15215
    57.989412,84.493648 50.808232,47.231516 Z" transform="translate(6.25,10) scale(0.0625,0.0625)"></path></g></pattern></defs><defs><mask id="mask_1"><path d="M50,0h50v33.33333c0,35.72656 -19.05989,68.73926 -50,86.60254c-30.94011,-17.86328 -50,-50.87598 -50,-86.60254v-33.33333z" clip-rule="evenodd" fill-rule="evenodd" fill="#fff" stroke="none"></path></mask></defs><g mask="url(#mask_1)"><g><g><path d="M50,0h50v33.33333c0,35.72656 -19.05989,68.73926 -50,86.60254c-30.94011,-17.86328 -50,-50.87598 -50,-86.60254v-33.33333z" fill-rule="evenodd" fill="#f0f0f0"></path><g><g><defs><mask id="clip_4"><path d="M -29.999999999999545,30.0106877147038 h160 L 639.7161757800707,125.6165188051336 A 600 600 0 1 0 -539.7161757800707,125.61651880513423 L -29.999999999999545,30.0106877147038 z" clip-rule="evenodd" fill-rule="evenodd" fill="#fff" stroke="#fff" stroke-width="0.1"></path></mask></defs><g mask="url(#clip_4)"><g><rect y="-1000" fill="#f2bc51" width="2000" x="-1000" height="2000"></rect><g></g></g></g></g><g><defs><mask id="clip_5"><path d="M 123.04064000000045,69.9893122852962 l-153.04064,0 L -522.7424203369533,-83.8281224946584 A 600 600 0 1 0 617.7324395131847,-99.15045943330824 L 123.04064000000045,69.9893122852962 z" clip-rule="evenodd" fill-rule="evenodd" fill="#fff" stroke="#fff" stroke-width="0.1"></path></mask></defs><g mask="url(#clip_5)"><g><rect y="-1000" fill="#f2bc51" width="2000" x="-1000" height="2000"></rect><g></g></g></g></g><g><defs><mask id="clip_6"><path d="M -29.999999999999545,30.0106877147038 h160 L 632.103793601036,-95.4481814093343 A 600 600 0 0 1 628.7190124416335,208.3802533101296 L 123.04064000000045,69.9893122852962 L 123.04064000000045,69.9893122852962 l-153.04064,0 L -532.1037936010357,195.44818140933427 A 600 600 0 0 1 -532.1037936010356,-95.4481814093343 L -29.999999999999545,30.0106877147038 z" clip-rule="evenodd" fill-rule="evenodd" fill="#fff"></path></mask></defs><g mask="url(#clip_6)"><g><rect y="-1000" fill="#333333" width="2000" x="-1000" height="2000"></rect><g></g><g><g><g><defs><mask id="clip_7"><path d="M33.125,50c0,-7.24874 -5.87626,-13.125 -13.125,-13.125c-7.24874,0 -13.125,5.87626 -13.125,13.125c0,7.24874 5.87626,13.125 13.125,13.125c7.24874,0 13.125,-5.87626 13.125,-13.125zM27.875,50c0,-4.34924 -3.52576,-7.875 -7.875,-7.875c-4.34924,0 -7.875,3.52576 -7.875,7.875c0,4.34924 3.52576,7.875 7.875,7.875c4.34924,0 7.875,-3.52576 7.875,-7.875z" clip-rule="evenodd" fill-rule="evenodd" fill="#fff"></path></mask></defs><g></g><g mask="url(#clip_7)"><rect y="-1000" fill="#f6f6f6" width="2000" x="-1000" height="2000"></rect><g></g></g><g stroke="#333333" stroke-width="0.5" fill="none" stroke-linecap="round" stroke-linejoin="round"><path d="M33.125,50c0,-7.24874 -5.87626,-13.125 -13.125,-13.125c-7.24874,0 -13.125,5.87626 -13.125,13.125c0,7.24874 5.87626,13.125 13.125,13.125c7.24874,0 13.125,-5.87626 13.125,-13.125z"></path><path d="M27.875,50c0,-4.34924 -3.52576,-7.875 -7.875,-7.875c-4.34924,0 -7.875,3.52576 -7.875,7.875c0,4.34924 3.52576,7.875 7.875,7.875c4.34924,0 7.875,-3.52576 7.875,-7.875z"></path></g></g></g><g><g><defs><mask id="clip_9"><path d="M63.125,50c0,-7.24874 -5.87626,-13.125 -13.125,-13.125c-7.24874,0 -13.125,5.87626 -13.125,13.125c0,7.24874 5.87626,13.125 13.125,13.125c7.24874,0 13.125,-5.87626 13.125,-13.125zM57.875,50c0,-4.34924 -3.52576,-7.875 -7.875,-7.875c-4.34924,0 -7.875,3.52576 -7.875,7.875c0,4.34924 3.52576,7.875 7.875,7.875c4.34924,0 7.875,-3.52576 7.875,-7.875z" clip-rule="evenodd" fill-rule="evenodd" fill="#fff"></path></mask></defs><g></g><g mask="url(#clip_9)"><rect y="-1000" fill="#f6f6f6" width="2000" x="-1000" height="2000"></rect><g></g></g><g stroke="#333333" stroke-width="0.5" fill="none" stroke-linecap="round" stroke-linejoin="round"><path d="M63.125,50c0,-7.24874 -5.87626,-13.125 -13.125,-13.125c-7.24874,0 -13.125,5.87626 -13.125,13.125c0,7.24874 5.87626,13.125 13.125,13.125c7.24874,0 13.125,-5.87626 13.125,-13.125z"></path><path d="M57.875,50c0,-4.34924 -3.52576,-7.875 -7.875,-7.875c-4.34924,0 -7.875,3.52576 -7.875,7.875c0,4.34924 3.52576,7.875 7.875,7.875c4.34924,0 7.875,-3.52576 7.875,-7.875z"></path></g></g></g><g><g><defs><mask id="clip_11"><path d="M93.125,50c0,-7.24874 -5.87626,-13.125 -13.125,-13.125c-7.24874,0 -13.125,5.87626 -13.125,13.125c0,7.24874 5.87626,13.125 13.125,13.125c7.24874,0 13.125,-5.87626 13.125,-13.125zM87.875,50c0,-4.34924 -3.52576,-7.875 -7.875,-7.875c-4.34924,0 -7.875,3.52576 -7.875,7.875c0,4.34924 3.52576,7.875 7.875,7.875c4.34924,0 7.875,-3.52576 7.875,-7.875z" clip-rule="evenodd" fill-rule="evenodd" fill="#fff"></path></mask></defs><g></g><g mask="url(#clip_11)"><rect y="-1000" fill="#f6f6f6" width="2000" x="-1000" height="2000"></rect><g></g></g><g stroke="#333333" stroke-width="0.5" fill="none" stroke-linecap="round" stroke-linejoin="round"><path d="M93.125,50c0,-7.24874 -5.87626,-13.125 -13.125,-13.125c-7.24874,0 -13.125,5.87626 -13.125,13.125c0,7.24874 5.87626,13.125 13.125,13.125c7.24874,0 13.125,-5.87626 13.125,-13.125z"></path><path d="M87.875,50c0,-4.34924 -3.52576,-7.875 -7.875,-7.875c-4.34924,0 -7.875,3.52576 -7.875,7.875c0,4.34924 3.52576,7.875 7.875,7.875c4.34924,0 7.875,-3.52576 7.875,-7.875z"></path></g></g></g></g></g></g></g></g><g><g stroke="#333333" stroke-width="0.5" fill="none" stroke-linecap="round" stroke-linejoin="round"><path d="M -29.999999999999545,30.0106877147038 h160"></path></g><g stroke="#333333" stroke-width="0.5" fill="none" stroke-linecap="round" stroke-linejoin="round"><path d="M 123.04064000000045,69.9893122852962 l-153.04064,0"></path></g></g></g></g></g><g stroke="#333333" stroke-width="0.5" fill="none" stroke-linecap="round" stroke-linejoin="round"><path d="M50,0h50v33.33333c0,35.72656 -19.05989,68.73926 -50,86.60254c-30.94011,-17.86328 -50,-50.87598 -50,-86.60254v-33.33333z"></path></g></g></g><g transform="translate(0,0)" style="transition:transform 0.5s"></g></g></svg>