<svg viewBox="-10 -10 1020 1219.3587" xmlns="http://www.w3.org/2000/svg" xmlns:xlink="http://www.w3.org/1999/xlink" version="1.1" width="1020" height="1219.3587"><style></style><g transform="translate(500,599.67935)scale(10,10)translate(-50,-59.967935)" style="transition:transform 0.5s"><g><g></g></g><g transform="translate(0,0)" style="transition:transform 0.5s"></g><g style="transition:transform 0.5s"><g><metadata xmlns:rdf="http://www.w3.org/1999/02/22-rdf-syntax-ns#" xmlns:cc="http://creativecommons.org/ns#" xmlns:dc="http://purl.org/dc/elements/1.1/"><rdf:RDF><rdf:Description dc:title="Nidal" dc:creator="kosen"></rdf:Description><cc:Work rdf:about="https://heraldicon.org/arms/JXgwan/3"><cc:license rdf:resource="private"></cc:license><cc:attributionName>Nidal by kosen</cc:attributionName><cc:attributionURL rdf:resource="https://heraldicon.org/users/kosen"></cc:attributionURL></cc:Work><cc:License rdf:about="private"></cc:License></rdf:RDF></metadata><defs><pattern width="20" height="20" patternUnits="userSpaceOnUse" id="void"><rect x="0" y="0" width="20" height="20" fill="#fff" class="light"></rect><rect x="0" y="0" width="10" height="10" fill="#ddd" class="dark"></rect><rect x="10" y="10" width="10" height="10" fill="#ddd" class="dark"></rect></pattern><pattern width="4" height="4" patternUnits="userSpaceOnUse" id="selected"><rect x="0" y="0" width="4" height="4" fill="#f5f5f5"></rect><g fill="#000"><circle cx="0" cy="0" r="0.3"></circle><circle cx="4" cy="0" r="0.3"></circle><circle cx="0" cy="4" r="0.3"></circle><circle cx="4" cy="4" r="0.3"></circle><circle cx="2" cy="2" r="0.3"></circle></g></pattern><pattern id="ermine" width="12.5" height="20" patternUnits="userSpaceOnUse" x="-3.125" y="-5"><rect x="0" y="0" width="12.5" height="20" fill="#f6f6f6"></rect><g fill="#333333"><path d="M 47.757634,0 C 60.324696,15.689314 25.136924,21.898666 44.167046,36.607392
    52.24587,41.673746 71.273896,30.723464 54.57765,17.322176
    52.423302,16.178163 62.11999,8.3349512 47.757634,0 Z m 21.182372,36.935142 c
    -3.23154,0.326846 -6.282816,2.290268 -9.155302,7.193166 -3.590588,8.33495
    12.209402,22.716724 22.98117,5.06625 C 83.483996,47.069952 94.0755,53.93163
    100,39.386326 89.946316,49.845864 79.713166,37.425428 70.377642,36.935142 Z
    M 29.80469,37.099022 C 20.469164,37.58931 10.053647,50.173186 0,39.55021
    5.9244804,54.095512 16.51881,47.070414 17.416458,49.358438 28.0087,67.008916
    43.805884,52.627142 40.215296,44.292192 36.983772,38.73555 33.395278,36.9356
    29.80469,37.099026 Z m 21.003542,10.13249 c -8.25835,37.262136
    -23.51556,63.576958 -40.211787,82.534868 7.001653,-1.96117
    14.718613,-7.19213 22.258843,-11.93164 -4.667764,9.80582 -9.154602,18.14082
    -13.822364,26.80264 2.692942,-0.98059 11.489886,-9.64435 23.338826,-22.3919
    1.795296,17.48703 4.305204,25.8241 8.07532,37.75452 3.052012,-11.93042
    5.208468,-19.9411 7.54234,-37.9184 7.181178,8.00805 14.001888,16.17984
    23.696484,23.04393 L 68.221186,117.34659 c 7.001634,4.41265
    14.72282,10.29262 22.083522,12.74406 C 72.710832,110.15215
    57.989412,84.493648 50.808232,47.231516 Z" transform="scale(0.0625,0.0625)"></path><path d="M 47.757634,0 C 60.324696,15.689314 25.136924,21.898666 44.167046,36.607392
    52.24587,41.673746 71.273896,30.723464 54.57765,17.322176
    52.423302,16.178163 62.11999,8.3349512 47.757634,0 Z m 21.182372,36.935142 c
    -3.23154,0.326846 -6.282816,2.290268 -9.155302,7.193166 -3.590588,8.33495
    12.209402,22.716724 22.98117,5.06625 C 83.483996,47.069952 94.0755,53.93163
    100,39.386326 89.946316,49.845864 79.713166,37.425428 70.377642,36.935142 Z
    M 29.80469,37.099022 C 20.469164,37.58931 10.053647,50.173186 0,39.55021
    5.9244804,54.095512 16.51881,47.070414 17.416458,49.358438 28.0087,67.008916
    43.805884,52.627142 40.215296,44.292192 36.983772,38.73555 33.395278,36.9356
    29.80469,37.099026 Z m 21.003542,10.13249 c -8.25835,37.262136
    -23.51556,63.576958 -40.211787,82.534868 7.001653,-1.96117
    14.718613,-7.19213 22.258843,-11.93164 -4.667764,9.80582 -9.154602,18.14082
    -13.822364,26.80264 2.692942,-0.98059 11.489886,-9.64435 23.338826,-22.3919
    1.795296,17.48703 4.305204,25.8241 8.07532,37.75452 3.052012,-11.93042
    5.208468,-19.9411 7.54234,-37.9184 7.181178,8.00805 14.001888,16.17984
    23.696484,23.04393 L 68.221186,117.34659 c 7.001634,4.41265
    14.72282,10.29262 22.083522,12.74406 C 72.710832,110.15215
    57.989412,84.493648 50.808232,47.231516 Z" transform="translate(6.25,10) scale(0.0625,0.0625)"></path></g></pattern><pattern id="ermines" width="12.5" height="20" patternUnits="userSpaceOnUse" x="-3.125" y="-5"><rect x="0" y="0" width="12.5" height="20" fill="#333333"></rect><g fill="#f6f6f6"><path d="M 47.757634,0 C 60.324696,15.689314 25.136924,21.898666 44.167046,36.607392
    52.24587,41.673746 71.273896,30.723464 54.57765,17.322176
    52.423302,16.178163 62.11999,8.3349512 47.757634,0 Z m 21.182372,36.935142 c
    -3.23154,0.326846 -6.282816,2.290268 -9.155302,7.193166 -3.590588,8.33495
    12.209402,22.716724 22.98117,5.06625 C 83.483996,47.069952 94.0755,53.93163
    100,39.386326 89.946316,49.845864 79.713166,37.425428 70.377642,36.935142 Z
    M 29.80469,37.099022 C 20.469164,37.58931 10.053647,50.173186 0,39.55021
    5.9244804,54.095512 16.51881,47.070414 17.416458,49.358438 28.0087,67.008916
    43.805884,52.627142 40.215296,44.292192 36.983772,38.73555 33.395278,36.9356
    29.80469,37.099026 Z m 21.003542,10.13249 c -8.25835,37.262136
    -23.51556,63.576958 -40.211787,82.534868 7.001653,-1.96117
    14.718613,-7.19213 22.258843,-11.93164 -4.667764,9.80582 -9.154602,18.14082
    -13.822364,26.80264 2.692942,-0.98059 11.489886,-9.64435 23.338826,-22.3919
    1.795296,17.48703 4.305204,25.8241 8.07532,37.75452 3.052012,-11.93042
    5.208468,-19.9411 7.54234,-37.9184 7.181178,8.00805 14.001888,16.17984
    23.696484,23.04393 L 68.221186,117.34659 c 7.001634,4.41265
    14.72282,10.29262 22.083522,12.74406 C 72.710832,110.15215
    57.989412,84.493648 50.808232,47.231516 Z" transform="scale(0.0625,0.0625)"></path><path d="M 47.757634,0 C 60.324696,15.689314 25.136924,21.898666 44.167046,36.607392
    52.24587,41.673746 71.273896,30.723464 54.57765,17.322176
    52.423302,16.178163 62.11999,8.3349512 47.757634,0 Z m 21.182372,36.935142 c
    -3.23154,0.326846 -6.282816,2.290268 -9.155302,7.193166 -3.590588,8.33495
    12.209402,22.716724 22.98117,5.06625 C 83.483996,47.069952 94.0755,53.93163
    100,39.386326 89.946316,49.845864 79.713166,37.425428 70.377642,36.935142 Z
    M 29.80469,37.099022 C 20.469164,37.58931 10.053647,50.173186 0,39.55021
    5.9244804,54.095512 16.51881,47.070414 17.416458,49.358438 28.0087,67.008916
    43.805884,52.627142 40.215296,44.292192 36.983772,38.73555 33.395278,36.9356
    29.80469,37.099026 Z m 21.003542,10.13249 c -8.25835,37.262136
    -23.51556,63.576958 -40.211787,82.534868 7.001653,-1.96117
    14.718613,-7.19213 22.258843,-11.93164 -4.667764,9.80582 -9.154602,18.14082
    -13.822364,26.80264 2.692942,-0.98059 11.489886,-9.64435 23.338826,-22.3919
    1.795296,17.48703 4.305204,25.8241 8.07532,37.75452 3.052012,-11.93042
    5.208468,-19.9411 7.54234,-37.9184 7.181178,8.00805 14.001888,16.17984
    23.696484,23.04393 L 68.221186,117.34659 c 7.001634,4.41265
    14.72282,10.29262 22.083522,12.74406 C 72.710832,110.15215
    57.989412,84.493648 50.808232,47.231516 Z" transform="translate(6.25,10) scale(0.0625,0.0625)"></path></g></pattern><pattern id="erminois" width="12.5" height="20" patternUnits="userSpaceOnUse" x="-3.125" y="-5"><rect x="0" y="0" width="12.5" height="20" fill="#f2bc51"></rect><g fill="#333333"><path d="M 47.757634,0 C 60.324696,15.689314 25.136924,21.898666 44.167046,36.607392
    52.24587,41.673746 71.273896,30.723464 54.57765,17.322176
    52.423302,16.178163 62.11999,8.3349512 47.757634,0 Z m 21.182372,36.935142 c
    -3.23154,0.326846 -6.282816,2.290268 -9.155302,7.193166 -3.590588,8.33495
    12.209402,22.716724 22.98117,5.06625 C 83.483996,47.069952 94.0755,53.93163
    100,39.386326 89.946316,49.845864 79.713166,37.425428 70.377642,36.935142 Z
    M 29.80469,37.099022 C 20.469164,37.58931 10.053647,50.173186 0,39.55021
    5.9244804,54.095512 16.51881,47.070414 17.416458,49.358438 28.0087,67.008916
    43.805884,52.627142 40.215296,44.292192 36.983772,38.73555 33.395278,36.9356
    29.80469,37.099026 Z m 21.003542,10.13249 c -8.25835,37.262136
    -23.51556,63.576958 -40.211787,82.534868 7.001653,-1.96117
    14.718613,-7.19213 22.258843,-11.93164 -4.667764,9.80582 -9.154602,18.14082
    -13.822364,26.80264 2.692942,-0.98059 11.489886,-9.64435 23.338826,-22.3919
    1.795296,17.48703 4.305204,25.8241 8.07532,37.75452 3.052012,-11.93042
    5.208468,-19.9411 7.54234,-37.9184 7.181178,8.00805 14.001888,16.17984
    23.696484,23.04393 L 68.221186,117.34659 c 7.001634,4.41265
    14.72282,10.29262 22.083522,12.74406 C 72.710832,110.15215
    57.989412,84.493648 50.808232,47.231516 Z" transform="scale(0.0625,0.0625)"></path><path d="M 47.757634,0 C 60.324696,15.689314 25.136924,21.898666 44.167046,36.607392
    52.24587,41.673746 71.273896,30.723464 54.57765,17.322176
    52.423302,16.178163 62.11999,8.3349512 47.757634,0 Z m 21.182372,36.935142 c
    -3.23154,0.326846 -6.282816,2.290268 -9.155302,7.193166 -3.590588,8.33495
    12.209402,22.716724 22.98117,5.06625 C 83.483996,47.069952 94.0755,53.93163
    100,39.386326 89.946316,49.845864 79.713166,37.425428 70.377642,36.935142 Z
    M 29.80469,37.099022 C 20.469164,37.58931 10.053647,50.173186 0,39.55021
    5.9244804,54.095512 16.51881,47.070414 17.416458,49.358438 28.0087,67.008916
    43.805884,52.627142 40.215296,44.292192 36.983772,38.73555 33.395278,36.9356
    29.80469,37.099026 Z m 21.003542,10.13249 c -8.25835,37.262136
    -23.51556,63.576958 -40.211787,82.534868 7.001653,-1.96117
    14.718613,-7.19213 22.258843,-11.93164 -4.667764,9.80582 -9.154602,18.14082
    -13.822364,26.80264 2.692942,-0.98059 11.489886,-9.64435 23.338826,-22.3919
    1.795296,17.48703 4.305204,25.8241 8.07532,37.75452 3.052012,-11.93042
    5.208468,-19.9411 7.54234,-37.9184 7.181178,8.00805 14.001888,16.17984
    23.696484,23.04393 L 68.221186,117.34659 c 7.001634,4.41265
    14.72282,10.29262 22.083522,12.74406 C 72.710832,110.15215
    57.989412,84.493648 50.808232,47.231516 Z" transform="translate(6.25,10) scale(0.0625,0.0625)"></path></g></pattern><pattern id="pean" width="12.5" height="20" patternUnits="userSpaceOnUse" x="-3.125" y="-5"><rect x="0" y="0" width="12.5" height="20" fill="#333333"></rect><g fill="#f2bc51"><path d="M 47.757634,0 C 60.324696,15.689314 25.136924,21.898666 44.167046,36.607392
    52.24587,41.673746 71.273896,30.723464 54.57765,17.322176
    52.423302,16.178163 62.11999,8.3349512 47.757634,0 Z m 21.182372,36.935142 c
    -3.23154,0.326846 -6.282816,2.290268 -9.155302,7.193166 -3.590588,8.33495
    12.209402,22.716724 22.98117,5.06625 C 83.483996,47.069952 94.0755,53.93163
    100,39.386326 89.946316,49.845864 79.713166,37.425428 70.377642,36.935142 Z
    M 29.80469,37.099022 C 20.469164,37.58931 10.053647,50.173186 0,39.55021
    5.9244804,54.095512 16.51881,47.070414 17.416458,49.358438 28.0087,67.008916
    43.805884,52.627142 40.215296,44.292192 36.983772,38.73555 33.395278,36.9356
    29.80469,37.099026 Z m 21.003542,10.13249 c -8.25835,37.262136
    -23.51556,63.576958 -40.211787,82.534868 7.001653,-1.96117
    14.718613,-7.19213 22.258843,-11.93164 -4.667764,9.80582 -9.154602,18.14082
    -13.822364,26.80264 2.692942,-0.98059 11.489886,-9.64435 23.338826,-22.3919
    1.795296,17.48703 4.305204,25.8241 8.07532,37.75452 3.052012,-11.93042
    5.208468,-19.9411 7.54234,-37.9184 7.181178,8.00805 14.001888,16.17984
    23.696484,23.04393 L 68.221186,117.34659 c 7.001634,4.41265
    14.72282,10.29262 22.083522,12.74406 C 72.710832,110.15215
    57.989412,84.493648 50.808232,47.231516 Z" transform="scale(0.0625,0.0625)"></path><path d="M 47.757634,0 C 60.324696,15.689314 25.136924,21.898666 44.167046,36.607392
    52.24587,41.673746 71.273896,30.723464 54.57765,17.322176
    52.423302,16.178163 62.11999,8.3349512 47.757634,0 Z m 21.182372,36.935142 c
    -3.23154,0.326846 -6.282816,2.290268 -9.155302,7.193166 -3.590588,8.33495
    12.209402,22.716724 22.98117,5.06625 C 83.483996,47.069952 94.0755,53.93163
    100,39.386326 89.946316,49.845864 79.713166,37.425428 70.377642,36.935142 Z
    M 29.80469,37.099022 C 20.469164,37.58931 10.053647,50.173186 0,39.55021
    5.9244804,54.095512 16.51881,47.070414 17.416458,49.358438 28.0087,67.008916
    43.805884,52.627142 40.215296,44.292192 36.983772,38.73555 33.395278,36.9356
    29.80469,37.099026 Z m 21.003542,10.13249 c -8.25835,37.262136
    -23.51556,63.576958 -40.211787,82.534868 7.001653,-1.96117
    14.718613,-7.19213 22.258843,-11.93164 -4.667764,9.80582 -9.154602,18.14082
    -13.822364,26.80264 2.692942,-0.98059 11.489886,-9.64435 23.338826,-22.3919
    1.795296,17.48703 4.305204,25.8241 8.07532,37.75452 3.052012,-11.93042
    5.208468,-19.9411 7.54234,-37.9184 7.181178,8.00805 14.001888,16.17984
    23.696484,23.04393 L 68.221186,117.34659 c 7.001634,4.41265
    14.72282,10.29262 22.083522,12.74406 C 72.710832,110.15215
    57.989412,84.493648 50.808232,47.231516 Z" transform="translate(6.25,10) scale(0.0625,0.0625)"></path></g></pattern></defs><defs><mask id="mask_3"><path d="M50,0h50v33.33333c0,35.72656 -19.05989,68.73926 -50,86.60254c-30.94011,-17.86328 -50,-50.87598 -50,-86.60254v-33.33333z" clip-rule="evenodd" fill-rule="evenodd" fill="#fff" stroke="none"></path></mask></defs><g mask="url(#mask_3)"><g><g><path d="M50,0h50v33.33333c0,35.72656 -19.05989,68.73926 -50,86.60254c-30.94011,-17.86328 -50,-50.87598 -50,-86.60254v-33.33333z" fill-rule="evenodd" fill="#f0f0f0"></path><rect y="-1000" fill="#bb2f2e" width="2000" x="-1000" height="2000"></rect><g></g></g></g></g><g stroke="#333333" stroke-width="0.5" fill="none" stroke-linecap="round" stroke-linejoin="round"><path d="M50,0h50v33.33333c0,35.72656 -19.05989,68.73926 -50,86.60254c-30.94011,-17.86328 -50,-50.87598 -50,-86.60254v-33.33333z"></path></g></g></g><g transform="translate(0,0)" style="transition:transform 0.5s"></g><g><g><g><defs><mask id="mask_8"><g stroke="none" transform="translate(0,0)" fill="#000" stroke-width="0"><g fill="#000" stroke="none"><path d="M413.9 41.6c-.9 1.1-4.2 1.4-13.4 1.4-9.7 0-12.5.3-13.5 1.5-.9 1.1-3.5 1.5-10.5 1.5s-9.6.4-10.5 1.5c-.9 1-3.2 1.5-7.5 1.5s-6.6.5-7.5 1.5c-.9 1-3.2 1.5-7.4 1.5-3.9 0-6.9.5-8.2 1.5-1 .8-3.8 1.5-6 1.5-2.4 0-4.7.6-5.4 1.5-.7.8-2.7 1.5-4.5 1.5-1.8 0-3.8.7-4.5 1.5-.7.8-2.7 1.5-4.5 1.5-1.8 0-3.8.7-4.5 1.5-.8.9-2.9 1.5-5.6 1.5-4 0-11.7 3-13 5.1-.3.5-1.8.9-3.4.9-2.8 0-16.4 6.3-17.6 8.1-.3.5-1.6.9-2.8.9-1.3 0-2.9.6-3.5 1.4-.7.8-2.3 1.7-3.6 2-1.4.4-2.5 1.1-2.5 1.6 0 .6-.7 1-1.5 1-2.7 0-10 4.4-13.7 8.2-2 2.1-4.3 3.8-5.1 3.8-.9 0-4.3 2.7-7.7 6-3.4 3.3-6.7 6-7.4 6-1.5 0-12.6 11.2-12.6 12.6 0 .6-3.4 4.6-7.5 8.9-4.1 4.3-7.5 8.3-7.5 8.9 0 .6-1.8 3.1-4 5.6-2.2 2.5-5.9 8.3-8.2 13-2.4 4.7-5.3 9.5-6.5 10.8-1.5 1.5-2.3 3.5-2.3 5.8 0 2.2-.6 3.7-1.5 4-.8.4-1.5 1.3-1.5 2.1s-1.3 3.8-3 6.8c-1.6 3-3 6.7-3 8.3 0 1.6-.7 3.5-1.5 4.2-.8.7-1.5 2.4-1.5 3.9 0 1.4-.7 3.5-1.5 4.5-.8 1.1-1.5 4.1-1.5 6.7 0 2.9-.6 5.1-1.5 5.9-1 .9-1.5 3.2-1.5 7.5 0 4.2-.5 6.6-1.4 7.4-1.2 1-1.5 6.3-1.5 30.6s.3 29.6 1.5 30.6c1 .8 1.4 3.4 1.4 8.9 0 5.7.4 8.1 1.5 9 .9.8 1.5 3 1.5 6s.6 5.2 1.5 6c.9.8 1.5 3 1.5 6s.6 5.2 1.5 6c.8.7 1.5 2.9 1.5 5 0 2.4.5 4 1.5 4.4.9.3 1.5 1.8 1.5 3.9 0 1.9.7 4 1.5 4.7.8.7 1.5 2.5 1.5 4.1 0 2.8 3.4 10.4 5.1 11.5.5.3.9 1.3.9 2.3 0 1 .7 2.4 1.5 3.1.8.7 1.5 2.3 1.5 3.5 0 1.3.7 2.5 1.5 2.9.8.3 1.5 1.6 1.5 3s.4 2.7.9 3.1c.6.3 2.2 3 3.6 6.1 1.4 3 3.6 6.6 4.8 8 1.2 1.4 2.4 3.4 2.7 4.5.8 3.4 2.5 2.2 2.8-2 .2-2.2 1-4.5 1.8-5.1 2.1-1.9 2.1-44.2-.1-46-1-.9-1.5-3.2-1.5-7.4 0-3.9-.5-6.9-1.5-8.2-.8-1-1.5-3.1-1.5-4.5s-.7-3.4-1.5-4.5c-.8-1-1.5-3.1-1.5-4.5s-.7-3.4-1.5-4.5c-.8-1-1.5-3.1-1.5-4.5s-.7-3.4-1.5-4.5c-.8-1-1.5-3.8-1.5-6 0-2.4-.6-4.7-1.5-5.4-1.2-1-1.5-3.7-1.5-12s-.3-11-1.5-12c-2.2-1.8-2.2-24.2 0-26 1-.9 1.5-3.2 1.5-7.7 0-4.7.4-6.5 1.5-6.9.8-.4 1.5-1.4 1.5-2.3 0-1 1.3-3.3 3-5.1 1.6-1.8 3-3.9 3-4.5 0-1.8 4.4-5.5 6.6-5.5 1.1 0 5.3 3.4 9.7 7.8 5.7 5.7 7.7 8.4 7.7 10.4 0 1.4-.4 2.8-.8 3-.4.1-1.8 2.2-3 4.6-2.1 4-2.2 5.6-2.2 24.1 0 16.4.3 20.1 1.5 21.1 1 .9 1.5 3.2 1.5 7.4 0 3.9.5 6.9 1.5 8.2.8 1 1.5 3.1 1.5 4.5s.7 3.4 1.5 4.5c.8 1 1.5 3.1 1.5 4.5s.7 3.4 1.5 4.5c.8 1 1.5 3.1 1.5 4.5s.7 3.4 1.5 4.5c.8 1 1.5 3.8 1.5 6 0 2.4.6 4.7 1.5 5.4 1.2 1 1.5 3.8 1.5 13.5s.3 12.5 1.5 13.5c.8.7 1.5 2.5 1.5 4s-.7 3.3-1.5 4c-1.2 1-1.5 4.3-1.5 18s-.3 17-1.5 18c-1.1.9-1.5 3.5-1.5 10.5s-.4 9.6-1.5 10.5c-1 .9-1.5 3.2-1.5 7.5s-.5 6.6-1.5 7.5c-1 .9-1.5 3.2-1.5 7.5s-.5 6.6-1.5 7.5c-1.1.9-1.5 3.3-1.5 9s-.4 8.1-1.5 9c-1.1 1-1.5 3.5-1.5 11s.4 10 1.5 11c1.1.9 1.5 3.5 1.5 10.4 0 6.6.4 9.8 1.5 11.2.8 1 1.5 3.1 1.5 4.5 0 1.5.7 3.2 1.5 3.9.8.7 1.5 2.5 1.5 4.1 0 1.6 1 4.8 2.2 7.1 2.7 5.3 14.1 16.8 16.7 16.8 1.1 0 2.1.4 2.3.8.6 1.5 14.9 8.2 17.5 8.2 1.3 0 3.1.7 3.9 1.5.9.8 2.9 1.5 4.5 1.5 1.7 0 3.7.7 4.5 1.5.9.8 3 1.5 4.8 1.5 1.9 0 3.9.7 4.6 1.5.7.8 2.7 1.5 4.6 1.5 1.8 0 3.6.4 3.9 1 .3.5 4.4 2.8 9.2 5.1 4.7 2.3 9.7 5.3 11.1 6.6 1.4 1.3 3 2.3 3.6 2.3.6 0 2.6 1.4 4.5 3 1.8 1.7 4 3 4.8 3 1.7 0 11.3 9.6 11.3 11.3 0 .7 1.8 3.2 4 5.6 4.3 4.8 11 17.5 11 20.7 0 1.1.7 2.9 1.5 4 .9 1.2 1.4 4.3 1.5 8.9 0 4.4.5 7.8 1.4 9.1 1.2 1.7 1.2 2.2 0 3.9-.8 1-1.4 3-1.4 4.4 0 1.4-1.4 4.6-3 7.1-2.9 4.3-3 4.9-3 15.7 0 12.4.4 14.3 3 14.3 1 0 2.3.7 3 1.5.7.8 2.3 1.5 3.7 1.5 1.3 0 2.6.7 2.9 1.5.4.8 1.4 1.5 2.3 1.5 1 0 2.6.7 3.7 1.5 1 .8 3.1 1.5 4.5 1.5 1.5 0 3.2.7 3.9 1.5.7.8 1.9 1.5 2.7 1.5.7 0 2.5.7 3.8 1.6 1.3.8 3.6 1.4 5.2 1.2l2.8-.3.7-12c.5-6.6.5-16.7.2-22.5-.7-12.7-.4-13.2 8.3-12.8l5.8.3.5 25 .5 25 4.3.3c2.3.2 4.2.7 4.2 1.1 0 .4 2.1.8 4.8.9 2.6.1 9.6.4 15.6.7 6.3.4 11.2.3 11.7-.2.8-.8 1-9.7.7-43 0-6.9.3-7.3 7.5-7.3 4 0 6.8.5 7.5 1.2.6.8 1 10.6 1.1 24.8 0 12.9.1 23.8.1 24.2 0 1.6 11.3.8 13.2-.9 1.5-1.3 3.9-1.6 12.8-1.5 6 0 11.2-.3 11.5-.8.3-.5.6-11.3.7-24.2 0-13.5.5-23.8 1.1-24.6 1.3-1.6 12.3-1.6 13.4.1.4.6.8 11.3.8 23.7v22.5l4-.2c7.5-.5 10-1 18.3-3.8 6.5-2.2 8.8-3.6 10.8-6.3 1.5-1.8 3.9-3.8 5.5-4.4l2.9-1v-12.4c0-12-.1-12.6-3-17.7-2.5-4.6-3-6.4-3-12.4 0-5.1.4-7.4 1.5-8.3 1-.9 1.5-3.2 1.5-7.5s.5-6.6 1.5-7.5c.8-.7 1.5-2.8 1.5-4.7 0-2.1.6-3.6 1.5-3.9.8-.4 1.5-1.5 1.5-2.6 0-1.2 1.4-3.4 3-5 1.7-1.5 3-3.5 3-4.3 0-1.7 15.8-17.5 17.5-17.5.7 0 2.8-1.3 4.6-3 1.9-1.6 3.9-3 4.5-3 .6 0 3.2-2 5.7-4.5 3.5-3.3 5.5-4.5 7.7-4.5 2 0 3.9-1 5.8-3 2-2 3.9-3 5.9-3 1.6 0 3.8-.7 4.9-1.5 1-.8 3.1-1.5 4.5-1.5s3.4-.7 4.5-1.5c1-.8 3.1-1.5 4.5-1.5 3.6 0 9.5-2.6 10.2-4.5.4-.9 1.9-1.5 3.6-1.5 3 0 11.3-3.6 11.9-5.2.2-.4 1.2-.8 2.3-.8 1 0 3.2-1.4 4.7-3 1.6-1.6 3.6-3 4.4-3 3.5 0 12.8-15.2 12.8-20.9 0-1.6.7-3.4 1.5-4.1.8-.7 1.5-2.6 1.5-4.2s.7-3.6 1.5-4.4c1.2-1.2 1.5-4.2 1.5-13.8 0-9.8.3-12.6 1.5-13.6 1.9-1.6 1.9-5.4 0-7-1.1-.9-1.5-3.5-1.5-10.5s-.4-9.6-1.5-10.5c-1.1-.9-1.5-3.3-1.5-9s-.4-8.1-1.5-9c-1-.9-1.5-3.2-1.5-7.5s-.5-6.6-1.5-7.5c-1.1-.9-1.5-3.3-1.5-9s-.4-8.1-1.5-9c-1.2-1-1.5-3.8-1.5-13.5s-.3-12.5-1.5-13.5-1.5-3.8-1.5-13 .3-12 1.5-13 1.5-3.7 1.5-12 .3-11 1.5-12c.9-.7 1.5-3 1.5-5.4 0-2.2.7-5 1.5-6 .8-1.1 1.5-3.1 1.5-4.5s.7-3.5 1.5-4.5c.8-1.1 1.5-3.1 1.5-4.5s.7-3.5 1.5-4.5c.8-1.1 1.5-3.4 1.5-5.2 0-1.7.7-3.7 1.5-4.4 1-.9 1.5-3.2 1.5-7.5s.5-6.6 1.5-7.5c1.2-1 1.5-4.6 1.5-20.1 0-15.3-.3-19-1.5-20.3-.8-.8-1.5-2.2-1.5-3 0-.9-1.3-2.9-3-4.4-1.6-1.6-3-3.2-3-3.5 0-.8 18.8-19.7 19.6-19.7 1.1 0 10.4 10 10.4 11.3 0 .7.7 2.2 1.5 3.3.8 1 1.5 2.6 1.5 3.5 0 .9.7 1.9 1.5 2.3 1.3.5 1.5 4.8 1.5 30.4 0 25.4-.2 30.1-1.5 31.2-1 .9-1.5 3.2-1.5 7.5s-.5 6.6-1.5 7.5c-.8.7-1.5 2.8-1.5 4.7 0 2.1-.6 3.6-1.5 3.9-.8.4-1.5 1.4-1.5 2.3 0 .9-.7 2.5-1.5 3.5-.8 1.1-1.5 3.1-1.5 4.5s-.7 3.5-1.5 4.5c-1 1.3-1.5 4.3-1.5 8.2 0 4.3-.5 6.5-1.5 7.4-1.3 1.1-1.5 4.9-1.3 26.3.3 21.9.5 25.1 1.9 26 1.3.8 2.2.4 4.3-1.9 1.4-1.6 2.6-3.4 2.6-4 0-.6 1-2.2 2.3-3.6 2.6-2.8 6.7-10.2 6.7-12 0-.7 1-2.2 2.3-3.3 2.3-2 6.7-9.6 6.7-11.6 0-.6.7-1.7 1.5-2.5.8-.9 1.5-3.1 1.5-4.9 0-1.9.4-3.6.9-3.9 1.5-1 5.1-8.5 5.1-10.9 0-1.2.7-3.1 1.5-4.1.8-1.1 1.5-4.1 1.5-6.7 0-2.9.6-5.1 1.5-5.9.9-.8 1.5-3 1.5-6s.6-5.2 1.5-6c1.2-1 1.5-3.8 1.5-13.5s.3-12.5 1.5-13.5 1.5-3.7 1.5-12.5-.3-11.5-1.5-12.5-1.5-4-1.5-15.1c0-10.9-.3-14.1-1.5-15.3-1-1-1.5-3.5-1.5-7.5s-.5-6.5-1.5-7.5c-.8-.8-1.5-2.8-1.5-4.4 0-1.6-.7-3.5-1.5-4.2-.8-.7-1.5-2.9-1.5-5 0-2.4-.5-4-1.5-4.4-1-.4-1.5-1.9-1.5-4.9 0-3.6-1.7-7.8-8.2-20.8-4.5-9-9.2-17.3-10.5-18.4-1.3-1.1-2.3-2.6-2.3-3.3 0-2.3-4.5-9.7-8.2-13.4-2.1-2.1-3.8-4.5-3.8-5.3 0-2-37.5-39.5-39.4-39.5-.8 0-3.5-2-6-4.5-2.6-2.5-5.3-4.5-6.2-4.5-.8 0-2.5-1-3.7-2.3-3-3.2-16.2-9.7-19.7-9.7-1.6 0-3.1-.4-3.4-.9-1.1-1.7-8.7-5.1-11.5-5.1-1.6 0-3.4-.7-4.1-1.5-.7-.8-2.7-1.5-4.5-1.5-1.8 0-3.8-.7-4.5-1.5-.7-.8-2.7-1.5-4.5-1.5-1.8 0-3.8-.7-4.5-1.5-.7-.8-2.6-1.5-4.2-1.5s-3.6-.7-4.4-1.5c-1-.9-3.4-1.5-6.3-1.5-3.1 0-5.3-.5-6.1-1.5-.8-.9-3-1.5-6-1.5s-5.2-.6-6-1.5c-.8-.9-3-1.5-6-1.5s-5.2-.6-6-1.5c-.9-1-3.2-1.5-7.5-1.5s-6.6-.5-7.5-1.5c-.9-1-3.2-1.5-7.5-1.5s-6.6-.5-7.5-1.5c-1-1.2-3.7-1.5-12-1.5-7.9 0-11.1-.4-11.9-1.4-.9-1.1-8.1-1.4-39.6-1.4s-38.7.3-39.6 1.4zM385 368.5c6 3 11.9 9.6 16.1 17.9 2.1 4.3 3.9 8.9 3.9 10.2 0 1.2.5 2.6 1 2.9 1.7 1 1.2 26.6-.5 28.9-.8 1.1-1.5 2.9-1.5 4.1 0 2.6-6.4 15.7-8.5 17.5-.9.7-2.2 2.8-3 4.6-.7 1.8-2.2 4.1-3.2 5.1-1 1.1-2.7 3.6-3.8 5.7-1.1 2.1-2.5 4.1-3.2 4.3-.7.3-1.3 1.1-1.3 1.9 0 .7-1.3 2.8-2.9 4.6-1.5 1.8-3.1 4.2-3.5 5.3-.3 1.1-3.8 5.3-7.6 9.3-3.9 4.1-7 7.8-7 8.3 0 1.5-7 8.8-9.1 9.4-1 .4-3.7 2.4-6 4.6-2.7 2.6-5 3.9-6.8 3.9-1.5 0-3.6.7-4.7 1.5-2.7 2.1-27.1 2.1-29.8 0-1.1-.8-2.9-1.5-4.1-1.5-1.2 0-5.2-1.5-9.1-3.4-5.2-2.6-9.1-5.7-16.1-12.9-5.1-5.2-9.3-10.1-9.3-11 0-.8-.6-1.7-1.3-2-1.6-.6-6.7-10.3-6.7-12.8 0-1-1.3-4.4-3-7.4-1.6-3-3-6.4-3-7.5 0-1.1-1.3-4.3-2.8-7.2-4.4-8.1-5.5-15.7-5-32.2.4-12.6.8-14.8 2.7-18 1.3-2 2.7-3.6 3.2-3.6s.9-.6.9-1.4c0-.7 1.7-3.4 3.8-6 2.7-3.3 6.1-5.8 12.5-9.1 4.9-2.5 9.9-4.5 11.2-4.5 1.3 0 2.6-.4 2.9-.8.3-.5 4.2-1.2 8.7-1.5 4.5-.4 8.7-1.1 9.3-1.5.6-.5 5.3-1.2 10.4-1.5 5.2-.3 9.9-1 10.5-1.5.7-.5 6.1-1.2 12.2-1.6 6-.4 11.4-1.1 12-1.6 1.3-1.1 14.4-1.8 28-1.5 7.2.2 11 .8 13.5 2zm169.6-.4c.6.5 6.7 1.2 13.5 1.5 6.8.4 12.9 1.1 13.5 1.5.6.5 4.7 1.2 9 1.5 4.3.4 8.4 1.1 9.1 1.6.6.5 5.3 1.2 10.5 1.5 5.2.3 10.2 1.2 11.3 1.9 1.1.8 3.1 1.4 4.6 1.4 1.4 0 3.8 1.1 5.2 2.4 1.5 1.4 3.6 2.8 4.8 3.1 3.2 1 15.7 14.2 18 18.8 1 2.2 2.2 6.2 2.5 8.9.4 2.7 1.1 5.1 1.5 5.4 1.2.7 1.1 15.1-.1 15.9-.5.3-1 1.8-1 3.3 0 1.5-.9 4-2 5.7-1.1 1.6-2 4-2 5.2 0 1.3-1.3 4.8-3 7.8-1.6 3-3 6.4-3 7.5 0 1.1-1.3 4.5-3 7.5-1.6 3-3 6.4-3 7.3 0 4-4.4 10.3-14.7 20.8-8.9 9.2-12.1 11.8-18.2 14.8-4.1 2-8.4 3.6-9.6 3.6-1.2 0-3 .7-4.1 1.5-1.4 1.1-5 1.4-14.5 1.5-12.4 0-12.6 0-19.8-3.6-5.9-2.9-9.4-5.7-18.7-15.1-6.2-6.4-11.6-12.4-12-13.5-.3-1-2.3-3.8-4.5-6.1-2.1-2.3-4.2-5-4.5-6-.3-1-1.6-2.9-2.9-4.3-1.4-1.5-2.7-3.6-3.1-4.8-.4-1.1-2-3.6-3.5-5.4-1.6-1.8-2.9-3.9-2.9-4.6 0-.7-.9-2.1-2.1-3.2-1.1-1-4.4-6.6-7.2-12.3l-5.2-10.6V412c0-22.7.4-23.9 13-36.4 7.6-7.5 9.1-8.5 12.8-8.9 6.6-.7 34.1.4 35.3 1.4zm-94.1 122.4c2 .8 3.8 2.1 4.1 3 .3.8 1.3 1.5 2.1 1.5 1.9 0 18 15.6 18.9 18.2.3 1 2.1 3.5 4 5.6 3.9 4.1 10.4 16.5 10.4 19.6 0 1.2.9 3.4 2 5.1 1.1 1.6 2 4.2 2 5.7s.4 2.9.9 3.2c.4.3 1.1 3.7 1.5 7.6.4 3.8 1.1 7.2 1.7 7.5.5.4.9 8.3.9 18.3-.1 14-.4 18.1-1.5 19.6-.8 1.1-1.5 3.6-1.5 5.6 0 2-.7 5.2-1.6 7.1-2 4.1-8.3 10.9-10.1 10.9-.7 0-2.2.6-3.3 1.2-1.5 1-2.2 1-3.2 0-.6-.6-2.4-1.2-3.9-1.2-3.1 0-7.5-3.4-18.6-14.5-9-9-14.1-12.5-18.3-12.5-2.7 0-5.1 1.9-16.1 13.1l-13 13.1-7.7.1c-8.6.2-11.3-1.2-12.6-6.6-.3-1.5-1.1-2.7-1.6-2.7-.6 0-1-1.1-1-2.5 0-1.3-.8-2.8-1.7-3.4-1.7-.9-1.8-3.3-1.7-30.1 0-26.3.2-29.3 1.7-30.2 1.1-.6 1.7-2.2 1.7-4.7s.5-4.1 1.5-4.5c.8-.3 1.5-1.5 1.5-2.6 0-1.2.7-2.8 1.5-3.6.8-.9 1.5-2.4 1.5-3.4s.7-2 1.5-2.4c.8-.3 1.5-1.7 1.5-3.1 0-1.4.4-2.5 1-2.5.5 0 1.3-1.2 1.6-2.6.4-1.4 2-3.9 3.5-5.5 1.6-1.6 2.9-3.7 2.9-4.5 0-1.9 12.7-14.4 14.6-14.4.7 0 3.3-2 5.8-4.4 2.5-2.6 5.6-4.6 7.2-4.9 6.8-1 16.7-.6 19.9.8z"></path><path d="M601 688.4l-4.5 1.2-.3 5.1c-.2 2.9-.9 5.7-1.7 6.3-1.1.9-1.5 3.6-1.5 10.5 0 7-.4 9.6-1.5 10.5-1.1.9-1.5 3.3-1.5 9 0 7.3-.2 7.8-3 10.3-1.6 1.5-3 3.3-3 4 0 1.9-18.7 20.7-20.5 20.7-.8 0-2.4.6-3.5 1.2-3.1 2-4.2-.5-3.5-8.2.4-4.4.1-8.4-1-12.3-.8-3.2-1.5-9.3-1.5-13.6 0-6-.3-8-1.5-8.5-1.5-.5-13 4.7-13.7 6.2-.1.4-2 1.8-4.1 3.1-2.8 1.7-5.5 2.4-10.5 2.5-4.7.1-7.6.8-9.6 2.1l-2.9 1.9.6 20.9c.5 20.8 0 25.7-2.7 25.7-.7 0-1.9.7-2.6 1.5-1 1.2-2.8 1.5-6.4 1.3l-5.1-.3.2-4.5c1-18.3 1.4-42 .7-42.1-4.1-.4-11.8.1-16.2 1.1-4.1.8-5.7.8-6.8-.1-2.4-2-10.1-1.5-12.7.9-2.2 2-2.2 2.3-1.5 17.9.4 8.7.9 18.9 1 22.8l.3 7h-17l-.1-10c0-5.5-.1-15.9-.2-23.1l-.2-13-7.2-1.1c-4-.6-10.3-.8-13.9-.6-5.1.4-7.2.1-9.2-1.2-1.6-1-4.1-1.5-6.9-1.3l-4.3.3.5 16c.7 23.3.6 28.1-.9 29.9-1.5 1.8-5.6 2.1-6.6.5-.4-.5-1.7-1.4-2.9-1.9-2.2-.8-2.3-1.5-3-15.7-.9-20.5-2.4-30.3-4.8-32.7-1.4-1.3-3.9-2-8.6-2.3-5.3-.3-7.6-1-11-3.4-2.3-1.6-4.5-2.9-4.8-2.9-.3 0-3.2-1.4-6.6-3-9.3-4.6-9.2-4.8-8.4 20.2.6 20.2.6 20.8-1.3 20.8-1.1 0-2.3-.4-2.6-1-.3-.5-1.4-1-2.3-1-.9 0-3.2-1.4-5.1-3-1.8-1.7-4-3-4.8-3-1.7 0-17.3-15.7-17.3-17.4 0-.7-.7-2.1-1.5-3.2s-1.4-4.2-1.5-7.5c0-3.8-.5-6.1-1.5-6.9-1.1-.9-1.5-3.5-1.5-10.5s-.4-9.6-1.5-10.5c-1-.8-1.5-3.1-1.5-6.6 0-2.9-.3-5.5-.7-5.7-.5-.3-3.2-.2-6 0l-5.3.6v3.7c0 2.1-.7 4.3-1.5 5-2.2 1.9-2.2 47.1 0 49 1 .9 1.5 3.2 1.5 7.5s.5 6.6 1.5 7.5c.9.8 1.5 2.9 1.5 5.6 0 4 3 11.7 5.1 13 .5.3.9 1.6.9 2.9 0 1.2.7 2.5 1.5 2.9.8.3 1.5 1.6 1.5 3s.4 2.7.9 3.1c.6.3 2.1 2.9 3.5 5.8 1.4 2.8 4.3 7.2 6.5 9.7 2.3 2.5 4.1 5 4.1 5.5 0 1.5 17.3 18.5 18.8 18.5.6 0 2.9 1.7 5 3.8 4.1 4.1 22.9 14.2 26.6 14.2 1.1 0 3 .7 4 1.5 1.1.8 4.1 1.5 6.7 1.5 2.9 0 5.1.6 5.9 1.5.8.9 3 1.5 6 1.5s5.2.6 6 1.5c.9 1.1 3.3 1.5 9 1.5s8.1.4 9 1.5c1.9 2.3 68.1 2.3 70 0 .9-1.1 3.3-1.5 9-1.5s8.1-.4 9-1.5c.8-.9 3-1.5 6-1.5s5.2-.6 6-1.5c.7-.8 2.7-1.5 4.4-1.5 1.8 0 4.1-.7 5.2-1.5 1-.8 2.9-1.5 4.1-1.5 2.4 0 9.9-3.6 10.9-5.1.3-.5 1.6-.9 2.9-.9 1.2 0 2.5-.7 2.9-1.5.3-.8 1.2-1.5 2-1.5 2.6 0 9.9-4.3 14.1-8.2 2.1-2.1 4.4-3.8 5-3.8 1.3 0 15.5-14.2 15.5-15.5 0-.6 2-3.3 4.5-6 2.4-2.8 4.5-5.5 4.5-6.1 0-.6 1.1-2.2 2.3-3.6 3.4-3.7 9.7-16.5 9.7-19.8 0-1.5.7-3.3 1.5-4 .8-.7 1.5-2.7 1.5-4.5 0-1.8.7-3.8 1.5-4.5 1-.9 1.5-3.2 1.5-7.5s.5-6.6 1.5-7.5c2.2-1.8 2.2-53.1.1-55-.8-.6-1.6-3.2-1.8-5.8-.2-2.5-.7-4.6-1.3-4.8-.5-.1-3 .3-5.5 1z"></path></g></g></mask><mask id="mask_9"><g stroke="none" transform="translate(0,0)" fill="#fff" stroke-width="0"><g fill="#fff" stroke="none"><path d="M413.9 41.6c-.9 1.1-4.2 1.4-13.4 1.4-9.7 0-12.5.3-13.5 1.5-.9 1.1-3.5 1.5-10.5 1.5s-9.6.4-10.5 1.5c-.9 1-3.2 1.5-7.5 1.5s-6.6.5-7.5 1.5c-.9 1-3.2 1.5-7.4 1.5-3.9 0-6.9.5-8.2 1.5-1 .8-3.8 1.5-6 1.5-2.4 0-4.7.6-5.4 1.5-.7.8-2.7 1.5-4.5 1.5-1.8 0-3.8.7-4.5 1.5-.7.8-2.7 1.5-4.5 1.5-1.8 0-3.8.7-4.5 1.5-.8.9-2.9 1.5-5.6 1.5-4 0-11.7 3-13 5.1-.3.5-1.8.9-3.4.9-2.8 0-16.4 6.3-17.6 8.1-.3.5-1.6.9-2.8.9-1.3 0-2.9.6-3.5 1.4-.7.8-2.3 1.7-3.6 2-1.4.4-2.5 1.1-2.5 1.6 0 .6-.7 1-1.5 1-2.7 0-10 4.4-13.7 8.2-2 2.1-4.3 3.8-5.1 3.8-.9 0-4.3 2.7-7.7 6-3.4 3.3-6.7 6-7.4 6-1.5 0-12.6 11.2-12.6 12.6 0 .6-3.4 4.6-7.5 8.9-4.1 4.3-7.5 8.3-7.5 8.9 0 .6-1.8 3.1-4 5.6-2.2 2.5-5.9 8.3-8.2 13-2.4 4.7-5.3 9.5-6.5 10.8-1.5 1.5-2.3 3.5-2.3 5.8 0 2.2-.6 3.7-1.5 4-.8.4-1.5 1.3-1.5 2.1s-1.3 3.8-3 6.8c-1.6 3-3 6.7-3 8.3 0 1.6-.7 3.5-1.5 4.2-.8.7-1.5 2.4-1.5 3.9 0 1.4-.7 3.5-1.5 4.5-.8 1.1-1.5 4.1-1.5 6.7 0 2.9-.6 5.1-1.5 5.9-1 .9-1.5 3.2-1.5 7.5 0 4.2-.5 6.6-1.4 7.4-1.2 1-1.5 6.3-1.5 30.6s.3 29.6 1.5 30.6c1 .8 1.4 3.4 1.4 8.9 0 5.7.4 8.1 1.5 9 .9.8 1.5 3 1.5 6s.6 5.2 1.5 6c.9.8 1.5 3 1.5 6s.6 5.2 1.5 6c.8.7 1.5 2.9 1.5 5 0 2.4.5 4 1.5 4.4.9.3 1.5 1.8 1.5 3.9 0 1.9.7 4 1.5 4.7.8.7 1.5 2.5 1.5 4.1 0 2.8 3.4 10.4 5.1 11.5.5.3.9 1.3.9 2.3 0 1 .7 2.4 1.5 3.1.8.7 1.5 2.3 1.5 3.5 0 1.3.7 2.5 1.5 2.9.8.3 1.5 1.6 1.5 3s.4 2.7.9 3.1c.6.3 2.2 3 3.6 6.1 1.4 3 3.6 6.6 4.8 8 1.2 1.4 2.4 3.4 2.7 4.5.8 3.4 2.5 2.2 2.8-2 .2-2.2 1-4.5 1.8-5.1 2.1-1.9 2.1-44.2-.1-46-1-.9-1.5-3.2-1.5-7.4 0-3.9-.5-6.9-1.5-8.2-.8-1-1.5-3.1-1.5-4.5s-.7-3.4-1.5-4.5c-.8-1-1.5-3.1-1.5-4.5s-.7-3.4-1.5-4.5c-.8-1-1.5-3.1-1.5-4.5s-.7-3.4-1.5-4.5c-.8-1-1.5-3.8-1.5-6 0-2.4-.6-4.7-1.5-5.4-1.2-1-1.5-3.7-1.5-12s-.3-11-1.5-12c-2.2-1.8-2.2-24.2 0-26 1-.9 1.5-3.2 1.5-7.7 0-4.7.4-6.5 1.5-6.9.8-.4 1.5-1.4 1.5-2.3 0-1 1.3-3.3 3-5.1 1.6-1.8 3-3.9 3-4.5 0-1.8 4.4-5.5 6.6-5.5 1.1 0 5.3 3.4 9.7 7.8 5.7 5.7 7.7 8.4 7.7 10.4 0 1.4-.4 2.8-.8 3-.4.1-1.8 2.2-3 4.6-2.1 4-2.2 5.6-2.2 24.1 0 16.4.3 20.1 1.5 21.1 1 .9 1.5 3.2 1.5 7.4 0 3.9.5 6.9 1.5 8.2.8 1 1.5 3.1 1.5 4.5s.7 3.4 1.5 4.5c.8 1 1.5 3.1 1.5 4.5s.7 3.4 1.5 4.5c.8 1 1.5 3.1 1.5 4.5s.7 3.4 1.5 4.5c.8 1 1.5 3.8 1.5 6 0 2.4.6 4.7 1.5 5.4 1.2 1 1.5 3.8 1.5 13.5s.3 12.5 1.5 13.5c.8.7 1.5 2.5 1.5 4s-.7 3.3-1.5 4c-1.2 1-1.5 4.3-1.5 18s-.3 17-1.5 18c-1.1.9-1.5 3.5-1.5 10.5s-.4 9.6-1.5 10.5c-1 .9-1.5 3.2-1.5 7.5s-.5 6.6-1.5 7.5c-1 .9-1.5 3.2-1.5 7.5s-.5 6.6-1.5 7.5c-1.1.9-1.5 3.3-1.5 9s-.4 8.1-1.5 9c-1.1 1-1.5 3.5-1.5 11s.4 10 1.5 11c1.1.9 1.5 3.5 1.5 10.4 0 6.6.4 9.8 1.5 11.2.8 1 1.5 3.1 1.5 4.5 0 1.5.7 3.2 1.5 3.9.8.7 1.5 2.5 1.5 4.1 0 1.6 1 4.8 2.2 7.1 2.7 5.3 14.1 16.8 16.7 16.8 1.1 0 2.1.4 2.3.8.6 1.5 14.9 8.2 17.5 8.2 1.3 0 3.1.7 3.9 1.5.9.8 2.9 1.5 4.5 1.5 1.7 0 3.7.7 4.5 1.5.9.8 3 1.5 4.8 1.5 1.9 0 3.9.7 4.6 1.5.7.8 2.7 1.5 4.6 1.5 1.8 0 3.6.4 3.9 1 .3.5 4.4 2.8 9.2 5.1 4.7 2.3 9.7 5.3 11.1 6.6 1.4 1.3 3 2.3 3.6 2.3.6 0 2.6 1.4 4.5 3 1.8 1.7 4 3 4.8 3 1.7 0 11.3 9.6 11.3 11.3 0 .7 1.8 3.2 4 5.6 4.3 4.8 11 17.5 11 20.7 0 1.1.7 2.9 1.5 4 .9 1.2 1.4 4.3 1.5 8.9 0 4.4.5 7.8 1.4 9.1 1.2 1.7 1.2 2.2 0 3.9-.8 1-1.4 3-1.4 4.4 0 1.4-1.4 4.6-3 7.1-2.9 4.3-3 4.9-3 15.7 0 12.4.4 14.3 3 14.3 1 0 2.3.7 3 1.5.7.8 2.3 1.5 3.7 1.5 1.3 0 2.6.7 2.9 1.5.4.8 1.4 1.5 2.3 1.5 1 0 2.6.7 3.7 1.5 1 .8 3.1 1.5 4.5 1.5 1.5 0 3.2.7 3.9 1.5.7.8 1.9 1.5 2.7 1.5.7 0 2.5.7 3.8 1.6 1.3.8 3.6 1.4 5.2 1.2l2.8-.3.7-12c.5-6.6.5-16.7.2-22.5-.7-12.7-.4-13.2 8.3-12.8l5.8.3.5 25 .5 25 4.3.3c2.3.2 4.2.7 4.2 1.1 0 .4 2.1.8 4.8.9 2.6.1 9.6.4 15.6.7 6.3.4 11.2.3 11.7-.2.8-.8 1-9.7.7-43 0-6.9.3-7.3 7.5-7.3 4 0 6.8.5 7.5 1.2.6.8 1 10.6 1.1 24.8 0 12.9.1 23.8.1 24.2 0 1.6 11.3.8 13.2-.9 1.5-1.3 3.9-1.6 12.8-1.5 6 0 11.2-.3 11.5-.8.3-.5.6-11.3.7-24.2 0-13.5.5-23.8 1.1-24.6 1.3-1.6 12.3-1.6 13.4.1.4.6.8 11.3.8 23.7v22.5l4-.2c7.5-.5 10-1 18.3-3.8 6.5-2.2 8.8-3.6 10.8-6.3 1.5-1.8 3.9-3.8 5.5-4.4l2.9-1v-12.4c0-12-.1-12.6-3-17.7-2.5-4.6-3-6.4-3-12.4 0-5.1.4-7.4 1.5-8.3 1-.9 1.5-3.2 1.5-7.5s.5-6.6 1.5-7.5c.8-.7 1.5-2.8 1.5-4.7 0-2.1.6-3.6 1.5-3.9.8-.4 1.5-1.5 1.5-2.6 0-1.2 1.4-3.4 3-5 1.7-1.5 3-3.5 3-4.3 0-1.7 15.8-17.5 17.5-17.5.7 0 2.8-1.3 4.6-3 1.9-1.6 3.9-3 4.5-3 .6 0 3.2-2 5.7-4.5 3.5-3.3 5.5-4.5 7.7-4.5 2 0 3.9-1 5.8-3 2-2 3.9-3 5.9-3 1.6 0 3.8-.7 4.9-1.5 1-.8 3.1-1.5 4.5-1.5s3.4-.7 4.5-1.5c1-.8 3.1-1.5 4.5-1.5 3.6 0 9.5-2.6 10.2-4.5.4-.9 1.9-1.5 3.6-1.5 3 0 11.3-3.6 11.9-5.2.2-.4 1.2-.8 2.3-.8 1 0 3.2-1.4 4.7-3 1.6-1.6 3.6-3 4.4-3 3.5 0 12.8-15.2 12.8-20.9 0-1.6.7-3.4 1.5-4.1.8-.7 1.5-2.6 1.5-4.2s.7-3.6 1.5-4.4c1.2-1.2 1.5-4.2 1.5-13.8 0-9.8.3-12.6 1.5-13.6 1.9-1.6 1.9-5.4 0-7-1.1-.9-1.5-3.5-1.5-10.5s-.4-9.6-1.5-10.5c-1.1-.9-1.5-3.3-1.5-9s-.4-8.1-1.5-9c-1-.9-1.5-3.2-1.5-7.5s-.5-6.6-1.5-7.5c-1.1-.9-1.5-3.3-1.5-9s-.4-8.1-1.5-9c-1.2-1-1.5-3.8-1.5-13.5s-.3-12.5-1.5-13.5-1.5-3.8-1.5-13 .3-12 1.5-13 1.5-3.7 1.5-12 .3-11 1.5-12c.9-.7 1.5-3 1.5-5.4 0-2.2.7-5 1.5-6 .8-1.1 1.5-3.1 1.5-4.5s.7-3.5 1.5-4.5c.8-1.1 1.5-3.1 1.5-4.5s.7-3.5 1.5-4.5c.8-1.1 1.5-3.4 1.5-5.2 0-1.7.7-3.7 1.5-4.4 1-.9 1.5-3.2 1.5-7.5s.5-6.6 1.5-7.5c1.2-1 1.5-4.6 1.5-20.1 0-15.3-.3-19-1.5-20.3-.8-.8-1.5-2.2-1.5-3 0-.9-1.3-2.9-3-4.4-1.6-1.6-3-3.2-3-3.5 0-.8 18.8-19.7 19.6-19.7 1.1 0 10.4 10 10.4 11.3 0 .7.7 2.2 1.5 3.3.8 1 1.5 2.6 1.5 3.5 0 .9.7 1.9 1.5 2.3 1.3.5 1.5 4.8 1.5 30.4 0 25.4-.2 30.1-1.5 31.2-1 .9-1.5 3.2-1.5 7.5s-.5 6.6-1.5 7.5c-.8.7-1.5 2.8-1.5 4.7 0 2.1-.6 3.6-1.5 3.9-.8.4-1.5 1.4-1.5 2.3 0 .9-.7 2.5-1.5 3.5-.8 1.1-1.5 3.1-1.5 4.5s-.7 3.5-1.5 4.5c-1 1.3-1.5 4.3-1.5 8.2 0 4.3-.5 6.5-1.5 7.4-1.3 1.1-1.5 4.9-1.3 26.3.3 21.9.5 25.1 1.9 26 1.3.8 2.2.4 4.3-1.9 1.4-1.6 2.6-3.4 2.6-4 0-.6 1-2.2 2.3-3.6 2.6-2.8 6.7-10.2 6.7-12 0-.7 1-2.2 2.3-3.3 2.3-2 6.7-9.6 6.7-11.6 0-.6.7-1.7 1.5-2.5.8-.9 1.5-3.1 1.5-4.9 0-1.9.4-3.6.9-3.9 1.5-1 5.1-8.5 5.1-10.9 0-1.2.7-3.1 1.5-4.1.8-1.1 1.5-4.1 1.5-6.7 0-2.9.6-5.1 1.5-5.9.9-.8 1.5-3 1.5-6s.6-5.2 1.5-6c1.2-1 1.5-3.8 1.5-13.5s.3-12.5 1.5-13.5 1.5-3.7 1.5-12.5-.3-11.5-1.5-12.5-1.5-4-1.5-15.1c0-10.9-.3-14.1-1.5-15.3-1-1-1.5-3.5-1.5-7.5s-.5-6.5-1.5-7.5c-.8-.8-1.5-2.8-1.5-4.4 0-1.6-.7-3.5-1.5-4.2-.8-.7-1.5-2.9-1.5-5 0-2.4-.5-4-1.5-4.4-1-.4-1.5-1.9-1.5-4.9 0-3.6-1.7-7.8-8.2-20.8-4.5-9-9.2-17.3-10.5-18.4-1.3-1.1-2.3-2.6-2.3-3.3 0-2.3-4.5-9.7-8.2-13.4-2.1-2.1-3.8-4.5-3.8-5.3 0-2-37.5-39.5-39.4-39.5-.8 0-3.5-2-6-4.5-2.6-2.5-5.3-4.5-6.2-4.5-.8 0-2.5-1-3.7-2.3-3-3.2-16.2-9.7-19.7-9.7-1.6 0-3.1-.4-3.4-.9-1.1-1.7-8.7-5.1-11.5-5.1-1.6 0-3.4-.7-4.1-1.5-.7-.8-2.7-1.5-4.5-1.5-1.8 0-3.8-.7-4.5-1.5-.7-.8-2.7-1.5-4.5-1.5-1.8 0-3.8-.7-4.5-1.5-.7-.8-2.6-1.5-4.2-1.5s-3.6-.7-4.4-1.5c-1-.9-3.4-1.5-6.3-1.5-3.1 0-5.3-.5-6.1-1.5-.8-.9-3-1.5-6-1.5s-5.2-.6-6-1.5c-.8-.9-3-1.5-6-1.5s-5.2-.6-6-1.5c-.9-1-3.2-1.5-7.5-1.5s-6.6-.5-7.5-1.5c-.9-1-3.2-1.5-7.5-1.5s-6.6-.5-7.5-1.5c-1-1.2-3.7-1.5-12-1.5-7.9 0-11.1-.4-11.9-1.4-.9-1.1-8.1-1.4-39.6-1.4s-38.7.3-39.6 1.4zM385 368.5c6 3 11.9 9.6 16.1 17.9 2.1 4.3 3.9 8.9 3.9 10.2 0 1.2.5 2.6 1 2.9 1.7 1 1.2 26.6-.5 28.9-.8 1.1-1.5 2.9-1.5 4.1 0 2.6-6.4 15.7-8.5 17.5-.9.7-2.2 2.8-3 4.6-.7 1.8-2.2 4.1-3.2 5.1-1 1.1-2.7 3.6-3.8 5.7-1.1 2.1-2.5 4.1-3.2 4.3-.7.3-1.3 1.1-1.3 1.9 0 .7-1.3 2.8-2.9 4.6-1.5 1.8-3.1 4.2-3.5 5.3-.3 1.1-3.8 5.3-7.6 9.3-3.9 4.1-7 7.8-7 8.3 0 1.5-7 8.8-9.1 9.4-1 .4-3.7 2.4-6 4.6-2.7 2.6-5 3.9-6.8 3.9-1.5 0-3.6.7-4.7 1.5-2.7 2.1-27.1 2.1-29.8 0-1.1-.8-2.9-1.5-4.1-1.5-1.2 0-5.2-1.5-9.1-3.4-5.2-2.6-9.1-5.7-16.1-12.9-5.1-5.2-9.3-10.1-9.3-11 0-.8-.6-1.7-1.3-2-1.6-.6-6.7-10.3-6.7-12.8 0-1-1.3-4.4-3-7.4-1.6-3-3-6.4-3-7.5 0-1.1-1.3-4.3-2.8-7.2-4.4-8.1-5.5-15.7-5-32.2.4-12.6.8-14.8 2.7-18 1.3-2 2.7-3.6 3.2-3.6s.9-.6.9-1.4c0-.7 1.7-3.4 3.8-6 2.7-3.3 6.1-5.8 12.5-9.1 4.9-2.5 9.9-4.5 11.2-4.5 1.3 0 2.6-.4 2.9-.8.3-.5 4.2-1.2 8.7-1.5 4.5-.4 8.7-1.1 9.3-1.5.6-.5 5.3-1.2 10.4-1.5 5.2-.3 9.9-1 10.5-1.5.7-.5 6.1-1.2 12.2-1.6 6-.4 11.4-1.1 12-1.6 1.3-1.1 14.4-1.8 28-1.5 7.2.2 11 .8 13.5 2zm169.6-.4c.6.5 6.7 1.2 13.5 1.5 6.8.4 12.9 1.1 13.5 1.5.6.5 4.7 1.2 9 1.5 4.3.4 8.4 1.1 9.1 1.6.6.5 5.3 1.2 10.5 1.5 5.2.3 10.2 1.2 11.3 1.9 1.1.8 3.1 1.4 4.6 1.4 1.4 0 3.8 1.1 5.2 2.4 1.5 1.4 3.6 2.8 4.8 3.1 3.2 1 15.7 14.2 18 18.8 1 2.2 2.2 6.2 2.5 8.9.4 2.7 1.1 5.1 1.5 5.4 1.2.7 1.1 15.1-.1 15.9-.5.3-1 1.8-1 3.3 0 1.5-.9 4-2 5.7-1.1 1.6-2 4-2 5.2 0 1.3-1.3 4.8-3 7.8-1.6 3-3 6.4-3 7.5 0 1.1-1.3 4.5-3 7.5-1.6 3-3 6.4-3 7.3 0 4-4.4 10.3-14.7 20.8-8.9 9.2-12.1 11.8-18.2 14.8-4.1 2-8.4 3.6-9.6 3.6-1.2 0-3 .7-4.1 1.5-1.4 1.1-5 1.4-14.5 1.5-12.4 0-12.6 0-19.8-3.6-5.9-2.9-9.4-5.7-18.7-15.1-6.2-6.4-11.6-12.4-12-13.5-.3-1-2.3-3.8-4.5-6.1-2.1-2.3-4.2-5-4.5-6-.3-1-1.6-2.9-2.9-4.3-1.4-1.5-2.7-3.6-3.1-4.8-.4-1.1-2-3.6-3.5-5.4-1.6-1.8-2.9-3.9-2.9-4.6 0-.7-.9-2.1-2.1-3.2-1.1-1-4.4-6.6-7.2-12.3l-5.2-10.6V412c0-22.7.4-23.9 13-36.4 7.6-7.5 9.1-8.5 12.8-8.9 6.6-.7 34.1.4 35.3 1.4zm-94.1 122.4c2 .8 3.8 2.1 4.1 3 .3.8 1.3 1.5 2.1 1.5 1.9 0 18 15.6 18.9 18.2.3 1 2.1 3.5 4 5.6 3.9 4.1 10.4 16.5 10.4 19.6 0 1.2.9 3.4 2 5.1 1.1 1.6 2 4.2 2 5.7s.4 2.9.9 3.2c.4.3 1.1 3.7 1.5 7.6.4 3.8 1.1 7.2 1.7 7.5.5.4.9 8.3.9 18.3-.1 14-.4 18.1-1.5 19.6-.8 1.1-1.5 3.6-1.5 5.6 0 2-.7 5.2-1.6 7.1-2 4.1-8.3 10.9-10.1 10.9-.7 0-2.2.6-3.3 1.2-1.5 1-2.2 1-3.2 0-.6-.6-2.4-1.2-3.9-1.2-3.1 0-7.5-3.4-18.6-14.5-9-9-14.1-12.5-18.3-12.5-2.7 0-5.1 1.9-16.1 13.1l-13 13.1-7.7.1c-8.6.2-11.3-1.2-12.6-6.6-.3-1.5-1.1-2.7-1.6-2.7-.6 0-1-1.1-1-2.5 0-1.3-.8-2.8-1.7-3.4-1.7-.9-1.8-3.3-1.7-30.1 0-26.3.2-29.3 1.7-30.2 1.1-.6 1.7-2.2 1.7-4.7s.5-4.1 1.5-4.5c.8-.3 1.5-1.5 1.5-2.6 0-1.2.7-2.8 1.5-3.6.8-.9 1.5-2.4 1.5-3.4s.7-2 1.5-2.4c.8-.3 1.5-1.7 1.5-3.1 0-1.4.4-2.5 1-2.5.5 0 1.3-1.2 1.6-2.6.4-1.4 2-3.9 3.5-5.5 1.6-1.6 2.9-3.7 2.9-4.5 0-1.9 12.7-14.4 14.6-14.4.7 0 3.3-2 5.8-4.4 2.5-2.6 5.6-4.6 7.2-4.9 6.8-1 16.7-.6 19.9.8z"></path><path d="M601 688.4l-4.5 1.2-.3 5.1c-.2 2.9-.9 5.7-1.7 6.3-1.1.9-1.5 3.6-1.5 10.5 0 7-.4 9.6-1.5 10.5-1.1.9-1.5 3.3-1.5 9 0 7.3-.2 7.8-3 10.3-1.6 1.5-3 3.3-3 4 0 1.9-18.7 20.7-20.5 20.7-.8 0-2.4.6-3.5 1.2-3.1 2-4.2-.5-3.5-8.2.4-4.4.1-8.4-1-12.3-.8-3.2-1.5-9.3-1.5-13.6 0-6-.3-8-1.5-8.5-1.5-.5-13 4.7-13.7 6.2-.1.4-2 1.8-4.1 3.1-2.8 1.7-5.5 2.4-10.5 2.5-4.7.1-7.6.8-9.6 2.1l-2.9 1.9.6 20.9c.5 20.8 0 25.7-2.7 25.7-.7 0-1.9.7-2.6 1.5-1 1.2-2.8 1.5-6.4 1.3l-5.1-.3.2-4.5c1-18.3 1.4-42 .7-42.1-4.1-.4-11.8.1-16.2 1.1-4.1.8-5.7.8-6.8-.1-2.4-2-10.1-1.5-12.7.9-2.2 2-2.2 2.3-1.5 17.9.4 8.7.9 18.9 1 22.8l.3 7h-17l-.1-10c0-5.5-.1-15.9-.2-23.1l-.2-13-7.2-1.1c-4-.6-10.3-.8-13.9-.6-5.1.4-7.2.1-9.2-1.2-1.6-1-4.1-1.5-6.9-1.3l-4.3.3.5 16c.7 23.3.6 28.1-.9 29.9-1.5 1.8-5.6 2.1-6.6.5-.4-.5-1.7-1.4-2.9-1.9-2.2-.8-2.3-1.5-3-15.7-.9-20.5-2.4-30.3-4.8-32.7-1.4-1.3-3.9-2-8.6-2.3-5.3-.3-7.6-1-11-3.4-2.3-1.6-4.5-2.9-4.8-2.9-.3 0-3.2-1.4-6.6-3-9.3-4.6-9.2-4.8-8.4 20.2.6 20.2.6 20.8-1.3 20.8-1.1 0-2.3-.4-2.6-1-.3-.5-1.4-1-2.3-1-.9 0-3.2-1.4-5.1-3-1.8-1.7-4-3-4.8-3-1.7 0-17.3-15.7-17.3-17.4 0-.7-.7-2.1-1.5-3.2s-1.4-4.2-1.5-7.5c0-3.8-.5-6.1-1.5-6.9-1.1-.9-1.5-3.5-1.5-10.5s-.4-9.6-1.5-10.5c-1-.8-1.5-3.1-1.5-6.6 0-2.9-.3-5.5-.7-5.7-.5-.3-3.2-.2-6 0l-5.3.6v3.7c0 2.1-.7 4.3-1.5 5-2.2 1.9-2.2 47.1 0 49 1 .9 1.5 3.2 1.5 7.5s.5 6.6 1.5 7.5c.9.8 1.5 2.9 1.5 5.6 0 4 3 11.7 5.1 13 .5.3.9 1.6.9 2.9 0 1.2.7 2.5 1.5 2.9.8.3 1.5 1.6 1.5 3s.4 2.7.9 3.1c.6.3 2.1 2.9 3.5 5.8 1.4 2.8 4.3 7.2 6.5 9.7 2.3 2.5 4.1 5 4.1 5.5 0 1.5 17.3 18.5 18.8 18.5.6 0 2.9 1.7 5 3.8 4.1 4.1 22.9 14.2 26.6 14.2 1.1 0 3 .7 4 1.5 1.1.8 4.1 1.5 6.7 1.5 2.9 0 5.1.6 5.9 1.5.8.9 3 1.5 6 1.5s5.2.6 6 1.5c.9 1.1 3.3 1.5 9 1.5s8.1.4 9 1.5c1.9 2.3 68.1 2.3 70 0 .9-1.1 3.3-1.5 9-1.5s8.1-.4 9-1.5c.8-.9 3-1.5 6-1.5s5.2-.6 6-1.5c.7-.8 2.7-1.5 4.4-1.5 1.8 0 4.1-.7 5.2-1.5 1-.8 2.9-1.5 4.1-1.5 2.4 0 9.9-3.6 10.9-5.1.3-.5 1.6-.9 2.9-.9 1.2 0 2.5-.7 2.9-1.5.3-.8 1.2-1.5 2-1.5 2.6 0 9.9-4.3 14.1-8.2 2.1-2.1 4.4-3.8 5-3.8 1.3 0 15.5-14.2 15.5-15.5 0-.6 2-3.3 4.5-6 2.4-2.8 4.5-5.5 4.5-6.1 0-.6 1.1-2.2 2.3-3.6 3.4-3.7 9.7-16.5 9.7-19.8 0-1.5.7-3.3 1.5-4 .8-.7 1.5-2.7 1.5-4.5 0-1.8.7-3.8 1.5-4.5 1-.9 1.5-3.2 1.5-7.5s.5-6.6 1.5-7.5c2.2-1.8 2.2-53.1.1-55-.8-.6-1.6-3.2-1.8-5.8-.2-2.5-.7-4.6-1.3-4.8-.5-.1-3 .3-5.5 1z"></path></g></g></mask><mask id="mask_10"><g stroke="none" transform="translate(0,0)" fill="#fff" stroke-width="0"><g fill="#fff" stroke="none"><path d="M413.9 41.6c-.9 1.1-4.2 1.4-13.4 1.4-9.7 0-12.5.3-13.5 1.5-.9 1.1-3.5 1.5-10.5 1.5s-9.6.4-10.5 1.5c-.9 1-3.2 1.5-7.5 1.5s-6.6.5-7.5 1.5c-.9 1-3.2 1.5-7.4 1.5-3.9 0-6.9.5-8.2 1.5-1 .8-3.8 1.5-6 1.5-2.4 0-4.7.6-5.4 1.5-.7.8-2.7 1.5-4.5 1.5-1.8 0-3.8.7-4.5 1.5-.7.8-2.7 1.5-4.5 1.5-1.8 0-3.8.7-4.5 1.5-.8.9-2.9 1.5-5.6 1.5-4 0-11.7 3-13 5.1-.3.5-1.8.9-3.4.9-2.8 0-16.4 6.3-17.6 8.1-.3.5-1.6.9-2.8.9-1.3 0-2.9.6-3.5 1.4-.7.8-2.3 1.7-3.6 2-1.4.4-2.5 1.1-2.5 1.6 0 .6-.7 1-1.5 1-2.7 0-10 4.4-13.7 8.2-2 2.1-4.3 3.8-5.1 3.8-.9 0-4.3 2.7-7.7 6-3.4 3.3-6.7 6-7.4 6-1.5 0-12.6 11.2-12.6 12.6 0 .6-3.4 4.6-7.5 8.9-4.1 4.3-7.5 8.3-7.5 8.9 0 .6-1.8 3.1-4 5.6-2.2 2.5-5.9 8.3-8.2 13-2.4 4.7-5.3 9.5-6.5 10.8-1.5 1.5-2.3 3.5-2.3 5.8 0 2.2-.6 3.7-1.5 4-.8.4-1.5 1.3-1.5 2.1s-1.3 3.8-3 6.8c-1.6 3-3 6.7-3 8.3 0 1.6-.7 3.5-1.5 4.2-.8.7-1.5 2.4-1.5 3.9 0 1.4-.7 3.5-1.5 4.5-.8 1.1-1.5 4.1-1.5 6.7 0 2.9-.6 5.1-1.5 5.9-1 .9-1.5 3.2-1.5 7.5 0 4.2-.5 6.6-1.4 7.4-1.2 1-1.5 6.3-1.5 30.6s.3 29.6 1.5 30.6c1 .8 1.4 3.4 1.4 8.9 0 5.7.4 8.1 1.5 9 .9.8 1.5 3 1.5 6s.6 5.2 1.5 6c.9.8 1.5 3 1.5 6s.6 5.2 1.5 6c.8.7 1.5 2.9 1.5 5 0 2.4.5 4 1.5 4.4.9.3 1.5 1.8 1.5 3.9 0 1.9.7 4 1.5 4.7.8.7 1.5 2.5 1.5 4.1 0 2.8 3.4 10.4 5.1 11.5.5.3.9 1.3.9 2.3 0 1 .7 2.4 1.5 3.1.8.7 1.5 2.3 1.5 3.5 0 1.3.7 2.5 1.5 2.9.8.3 1.5 1.6 1.5 3s.4 2.7.9 3.1c.6.3 2.2 3 3.6 6.1 1.4 3 3.6 6.6 4.8 8 1.2 1.4 2.4 3.4 2.7 4.5.8 3.4 2.5 2.2 2.8-2 .2-2.2 1-4.5 1.8-5.1 2.1-1.9 2.1-44.2-.1-46-1-.9-1.5-3.2-1.5-7.4 0-3.9-.5-6.9-1.5-8.2-.8-1-1.5-3.1-1.5-4.5s-.7-3.4-1.5-4.5c-.8-1-1.5-3.1-1.5-4.5s-.7-3.4-1.5-4.5c-.8-1-1.5-3.1-1.5-4.5s-.7-3.4-1.5-4.5c-.8-1-1.5-3.8-1.5-6 0-2.4-.6-4.7-1.5-5.4-1.2-1-1.5-3.7-1.5-12s-.3-11-1.5-12c-2.2-1.8-2.2-24.2 0-26 1-.9 1.5-3.2 1.5-7.7 0-4.7.4-6.5 1.5-6.9.8-.4 1.5-1.4 1.5-2.3 0-1 1.3-3.3 3-5.1 1.6-1.8 3-3.9 3-4.5 0-1.8 4.4-5.5 6.6-5.5 1.1 0 5.3 3.4 9.7 7.8 5.7 5.7 7.7 8.4 7.7 10.4 0 1.4-.4 2.8-.8 3-.4.1-1.8 2.2-3 4.6-2.1 4-2.2 5.6-2.2 24.1 0 16.4.3 20.1 1.5 21.1 1 .9 1.5 3.2 1.5 7.4 0 3.9.5 6.9 1.5 8.2.8 1 1.5 3.1 1.5 4.5s.7 3.4 1.5 4.5c.8 1 1.5 3.1 1.5 4.5s.7 3.4 1.5 4.5c.8 1 1.5 3.1 1.5 4.5s.7 3.4 1.5 4.5c.8 1 1.5 3.8 1.5 6 0 2.4.6 4.7 1.5 5.4 1.2 1 1.5 3.8 1.5 13.5s.3 12.5 1.5 13.5c.8.7 1.5 2.5 1.5 4s-.7 3.3-1.5 4c-1.2 1-1.5 4.3-1.5 18s-.3 17-1.5 18c-1.1.9-1.5 3.5-1.5 10.5s-.4 9.6-1.5 10.5c-1 .9-1.5 3.2-1.5 7.5s-.5 6.6-1.5 7.5c-1 .9-1.5 3.2-1.5 7.5s-.5 6.6-1.5 7.5c-1.1.9-1.5 3.3-1.5 9s-.4 8.1-1.5 9c-1.1 1-1.5 3.5-1.5 11s.4 10 1.5 11c1.1.9 1.5 3.5 1.5 10.4 0 6.6.4 9.8 1.5 11.2.8 1 1.5 3.1 1.5 4.5 0 1.5.7 3.2 1.5 3.9.8.7 1.5 2.5 1.5 4.1 0 1.6 1 4.8 2.2 7.1 2.7 5.3 14.1 16.8 16.7 16.8 1.1 0 2.1.4 2.3.8.6 1.5 14.9 8.2 17.5 8.2 1.3 0 3.1.7 3.9 1.5.9.8 2.9 1.5 4.5 1.5 1.7 0 3.7.7 4.5 1.5.9.8 3 1.5 4.8 1.5 1.9 0 3.9.7 4.6 1.5.7.8 2.7 1.5 4.6 1.5 1.8 0 3.6.4 3.9 1 .3.5 4.4 2.8 9.2 5.1 4.7 2.3 9.7 5.3 11.1 6.6 1.4 1.3 3 2.3 3.6 2.3.6 0 2.6 1.4 4.5 3 1.8 1.7 4 3 4.8 3 1.7 0 11.3 9.6 11.3 11.3 0 .7 1.8 3.2 4 5.6 4.3 4.8 11 17.5 11 20.7 0 1.1.7 2.9 1.5 4 .9 1.2 1.4 4.3 1.5 8.9 0 4.4.5 7.8 1.4 9.1 1.2 1.7 1.2 2.2 0 3.9-.8 1-1.4 3-1.4 4.4 0 1.4-1.4 4.6-3 7.1-2.9 4.3-3 4.9-3 15.7 0 12.4.4 14.3 3 14.3 1 0 2.3.7 3 1.5.7.8 2.3 1.5 3.7 1.5 1.3 0 2.6.7 2.9 1.5.4.8 1.4 1.5 2.3 1.5 1 0 2.6.7 3.7 1.5 1 .8 3.1 1.5 4.5 1.5 1.5 0 3.2.7 3.9 1.5.7.8 1.9 1.5 2.7 1.5.7 0 2.5.7 3.8 1.6 1.3.8 3.6 1.4 5.2 1.2l2.8-.3.7-12c.5-6.6.5-16.7.2-22.5-.7-12.7-.4-13.2 8.3-12.8l5.8.3.5 25 .5 25 4.3.3c2.3.2 4.2.7 4.2 1.1 0 .4 2.1.8 4.8.9 2.6.1 9.6.4 15.6.7 6.3.4 11.2.3 11.7-.2.8-.8 1-9.7.7-43 0-6.9.3-7.3 7.5-7.3 4 0 6.8.5 7.5 1.2.6.8 1 10.6 1.1 24.8 0 12.9.1 23.8.1 24.2 0 1.6 11.3.8 13.2-.9 1.5-1.3 3.9-1.6 12.8-1.5 6 0 11.2-.3 11.5-.8.3-.5.6-11.3.7-24.2 0-13.5.5-23.8 1.1-24.6 1.3-1.6 12.3-1.6 13.4.1.4.6.8 11.3.8 23.7v22.5l4-.2c7.5-.5 10-1 18.3-3.8 6.5-2.2 8.8-3.6 10.8-6.3 1.5-1.8 3.9-3.8 5.5-4.4l2.9-1v-12.4c0-12-.1-12.6-3-17.7-2.5-4.6-3-6.4-3-12.4 0-5.1.4-7.4 1.5-8.3 1-.9 1.5-3.2 1.5-7.5s.5-6.6 1.5-7.5c.8-.7 1.5-2.8 1.5-4.7 0-2.1.6-3.6 1.5-3.9.8-.4 1.5-1.5 1.5-2.6 0-1.2 1.4-3.4 3-5 1.7-1.5 3-3.5 3-4.3 0-1.7 15.8-17.5 17.5-17.5.7 0 2.8-1.3 4.6-3 1.9-1.6 3.9-3 4.5-3 .6 0 3.2-2 5.7-4.5 3.5-3.3 5.5-4.5 7.7-4.5 2 0 3.9-1 5.8-3 2-2 3.9-3 5.9-3 1.6 0 3.8-.7 4.9-1.5 1-.8 3.1-1.5 4.5-1.5s3.4-.7 4.5-1.5c1-.8 3.1-1.5 4.5-1.5 3.6 0 9.5-2.6 10.2-4.5.4-.9 1.9-1.5 3.6-1.5 3 0 11.3-3.6 11.9-5.2.2-.4 1.2-.8 2.3-.8 1 0 3.2-1.4 4.7-3 1.6-1.6 3.6-3 4.4-3 3.5 0 12.8-15.2 12.8-20.9 0-1.6.7-3.4 1.5-4.1.8-.7 1.5-2.6 1.5-4.2s.7-3.6 1.5-4.4c1.2-1.2 1.5-4.2 1.5-13.8 0-9.8.3-12.6 1.5-13.6 1.9-1.6 1.9-5.4 0-7-1.1-.9-1.5-3.5-1.5-10.5s-.4-9.6-1.5-10.5c-1.1-.9-1.5-3.3-1.5-9s-.4-8.1-1.5-9c-1-.9-1.5-3.2-1.5-7.5s-.5-6.6-1.5-7.5c-1.1-.9-1.5-3.3-1.5-9s-.4-8.1-1.5-9c-1.2-1-1.5-3.8-1.5-13.5s-.3-12.5-1.5-13.5-1.5-3.8-1.5-13 .3-12 1.5-13 1.5-3.7 1.5-12 .3-11 1.5-12c.9-.7 1.5-3 1.5-5.4 0-2.2.7-5 1.5-6 .8-1.1 1.5-3.1 1.5-4.5s.7-3.5 1.5-4.5c.8-1.1 1.5-3.1 1.5-4.5s.7-3.5 1.5-4.5c.8-1.1 1.5-3.4 1.5-5.2 0-1.7.7-3.7 1.5-4.4 1-.9 1.5-3.2 1.5-7.5s.5-6.6 1.5-7.5c1.2-1 1.5-4.6 1.5-20.1 0-15.3-.3-19-1.5-20.3-.8-.8-1.5-2.2-1.5-3 0-.9-1.3-2.9-3-4.4-1.6-1.6-3-3.2-3-3.5 0-.8 18.8-19.7 19.6-19.7 1.1 0 10.4 10 10.4 11.3 0 .7.7 2.2 1.5 3.3.8 1 1.5 2.6 1.5 3.5 0 .9.7 1.9 1.5 2.3 1.3.5 1.5 4.8 1.5 30.4 0 25.4-.2 30.1-1.5 31.2-1 .9-1.5 3.2-1.5 7.5s-.5 6.6-1.5 7.5c-.8.7-1.5 2.8-1.5 4.7 0 2.1-.6 3.6-1.5 3.9-.8.4-1.5 1.4-1.5 2.3 0 .9-.7 2.5-1.5 3.5-.8 1.1-1.5 3.1-1.5 4.5s-.7 3.5-1.5 4.5c-1 1.3-1.5 4.3-1.5 8.2 0 4.3-.5 6.5-1.5 7.4-1.3 1.1-1.5 4.9-1.3 26.3.3 21.9.5 25.1 1.9 26 1.3.8 2.2.4 4.3-1.9 1.4-1.6 2.6-3.4 2.6-4 0-.6 1-2.2 2.3-3.6 2.6-2.8 6.7-10.2 6.7-12 0-.7 1-2.2 2.3-3.3 2.3-2 6.7-9.6 6.7-11.6 0-.6.7-1.7 1.5-2.5.8-.9 1.5-3.1 1.5-4.9 0-1.9.4-3.6.9-3.9 1.5-1 5.1-8.5 5.1-10.9 0-1.2.7-3.1 1.5-4.1.8-1.1 1.5-4.1 1.5-6.7 0-2.9.6-5.1 1.5-5.9.9-.8 1.5-3 1.5-6s.6-5.2 1.5-6c1.2-1 1.5-3.8 1.5-13.5s.3-12.5 1.5-13.5 1.5-3.7 1.5-12.5-.3-11.5-1.5-12.5-1.5-4-1.5-15.1c0-10.9-.3-14.1-1.5-15.3-1-1-1.5-3.5-1.5-7.5s-.5-6.5-1.5-7.5c-.8-.8-1.5-2.8-1.5-4.4 0-1.6-.7-3.5-1.5-4.2-.8-.7-1.5-2.9-1.5-5 0-2.4-.5-4-1.5-4.4-1-.4-1.5-1.9-1.5-4.9 0-3.6-1.7-7.8-8.2-20.8-4.5-9-9.2-17.3-10.5-18.4-1.3-1.1-2.3-2.6-2.3-3.3 0-2.3-4.5-9.7-8.2-13.4-2.1-2.1-3.8-4.5-3.8-5.3 0-2-37.5-39.5-39.4-39.5-.8 0-3.5-2-6-4.5-2.6-2.5-5.3-4.5-6.2-4.5-.8 0-2.5-1-3.7-2.3-3-3.2-16.2-9.7-19.7-9.7-1.6 0-3.1-.4-3.4-.9-1.1-1.7-8.7-5.1-11.5-5.1-1.6 0-3.4-.7-4.1-1.5-.7-.8-2.7-1.5-4.5-1.5-1.8 0-3.8-.7-4.5-1.5-.7-.8-2.7-1.5-4.5-1.5-1.8 0-3.8-.7-4.5-1.5-.7-.8-2.6-1.5-4.2-1.5s-3.6-.7-4.4-1.5c-1-.9-3.4-1.5-6.3-1.5-3.1 0-5.3-.5-6.1-1.5-.8-.9-3-1.5-6-1.5s-5.2-.6-6-1.5c-.8-.9-3-1.5-6-1.5s-5.2-.6-6-1.5c-.9-1-3.2-1.5-7.5-1.5s-6.6-.5-7.5-1.5c-.9-1-3.2-1.5-7.5-1.5s-6.6-.5-7.5-1.5c-1-1.2-3.7-1.5-12-1.5-7.9 0-11.1-.4-11.9-1.4-.9-1.1-8.1-1.4-39.6-1.4s-38.7.3-39.6 1.4zM385 368.5c6 3 11.9 9.6 16.1 17.9 2.1 4.3 3.9 8.9 3.9 10.2 0 1.2.5 2.6 1 2.9 1.7 1 1.2 26.6-.5 28.9-.8 1.1-1.5 2.9-1.5 4.1 0 2.6-6.4 15.7-8.5 17.5-.9.7-2.2 2.8-3 4.6-.7 1.8-2.2 4.1-3.2 5.1-1 1.1-2.7 3.6-3.8 5.7-1.1 2.1-2.5 4.1-3.2 4.3-.7.3-1.3 1.1-1.3 1.9 0 .7-1.3 2.8-2.9 4.6-1.5 1.8-3.1 4.2-3.5 5.3-.3 1.1-3.8 5.3-7.6 9.3-3.9 4.1-7 7.8-7 8.3 0 1.5-7 8.8-9.1 9.4-1 .4-3.7 2.4-6 4.6-2.7 2.6-5 3.9-6.8 3.9-1.5 0-3.6.7-4.7 1.5-2.7 2.1-27.1 2.1-29.8 0-1.1-.8-2.9-1.5-4.1-1.5-1.2 0-5.2-1.5-9.1-3.4-5.2-2.6-9.1-5.7-16.1-12.9-5.1-5.2-9.3-10.1-9.3-11 0-.8-.6-1.7-1.3-2-1.6-.6-6.7-10.3-6.7-12.8 0-1-1.3-4.4-3-7.4-1.6-3-3-6.4-3-7.5 0-1.1-1.3-4.3-2.8-7.2-4.4-8.1-5.5-15.7-5-32.2.4-12.6.8-14.8 2.7-18 1.3-2 2.7-3.6 3.2-3.6s.9-.6.9-1.4c0-.7 1.7-3.4 3.8-6 2.7-3.3 6.1-5.8 12.5-9.1 4.9-2.5 9.9-4.5 11.2-4.5 1.3 0 2.6-.4 2.9-.8.3-.5 4.2-1.2 8.7-1.5 4.5-.4 8.7-1.1 9.3-1.5.6-.5 5.3-1.2 10.4-1.5 5.2-.3 9.9-1 10.5-1.5.7-.5 6.1-1.2 12.2-1.6 6-.4 11.4-1.1 12-1.6 1.3-1.1 14.4-1.8 28-1.5 7.2.2 11 .8 13.5 2zm169.6-.4c.6.5 6.7 1.2 13.5 1.5 6.8.4 12.9 1.1 13.5 1.5.6.5 4.7 1.2 9 1.5 4.3.4 8.4 1.1 9.1 1.6.6.5 5.3 1.2 10.5 1.5 5.2.3 10.2 1.2 11.3 1.9 1.1.8 3.1 1.4 4.6 1.4 1.4 0 3.8 1.1 5.2 2.4 1.5 1.4 3.6 2.8 4.8 3.1 3.2 1 15.7 14.2 18 18.8 1 2.2 2.2 6.2 2.5 8.9.4 2.7 1.1 5.1 1.5 5.4 1.2.7 1.1 15.1-.1 15.9-.5.3-1 1.8-1 3.3 0 1.5-.9 4-2 5.7-1.1 1.6-2 4-2 5.2 0 1.3-1.3 4.8-3 7.8-1.6 3-3 6.4-3 7.5 0 1.1-1.3 4.5-3 7.5-1.6 3-3 6.4-3 7.3 0 4-4.4 10.3-14.7 20.8-8.9 9.2-12.1 11.8-18.2 14.8-4.1 2-8.4 3.6-9.6 3.6-1.2 0-3 .7-4.1 1.5-1.4 1.1-5 1.4-14.5 1.5-12.4 0-12.6 0-19.8-3.6-5.9-2.9-9.4-5.7-18.7-15.1-6.2-6.4-11.6-12.4-12-13.5-.3-1-2.3-3.8-4.5-6.1-2.1-2.3-4.2-5-4.5-6-.3-1-1.6-2.9-2.9-4.3-1.4-1.5-2.7-3.6-3.1-4.8-.4-1.1-2-3.6-3.5-5.4-1.6-1.8-2.9-3.9-2.9-4.6 0-.7-.9-2.1-2.1-3.2-1.1-1-4.4-6.6-7.2-12.3l-5.2-10.6V412c0-22.7.4-23.9 13-36.4 7.6-7.5 9.1-8.5 12.8-8.9 6.6-.7 34.1.4 35.3 1.4zm-94.1 122.4c2 .8 3.8 2.1 4.1 3 .3.8 1.3 1.5 2.1 1.5 1.9 0 18 15.6 18.9 18.2.3 1 2.1 3.5 4 5.6 3.9 4.1 10.4 16.5 10.4 19.6 0 1.2.9 3.4 2 5.1 1.1 1.6 2 4.2 2 5.7s.4 2.9.9 3.2c.4.3 1.1 3.7 1.5 7.6.4 3.8 1.1 7.2 1.7 7.5.5.4.9 8.3.9 18.3-.1 14-.4 18.1-1.5 19.6-.8 1.1-1.5 3.6-1.5 5.6 0 2-.7 5.2-1.6 7.1-2 4.1-8.3 10.9-10.1 10.9-.7 0-2.2.6-3.3 1.2-1.5 1-2.2 1-3.2 0-.6-.6-2.4-1.2-3.9-1.2-3.1 0-7.5-3.4-18.6-14.5-9-9-14.1-12.5-18.3-12.5-2.7 0-5.1 1.9-16.1 13.1l-13 13.1-7.7.1c-8.6.2-11.3-1.2-12.6-6.6-.3-1.5-1.1-2.7-1.6-2.7-.6 0-1-1.1-1-2.5 0-1.3-.8-2.8-1.7-3.4-1.7-.9-1.8-3.3-1.7-30.1 0-26.3.2-29.3 1.7-30.2 1.1-.6 1.7-2.2 1.7-4.7s.5-4.1 1.5-4.5c.8-.3 1.5-1.5 1.5-2.6 0-1.2.7-2.8 1.5-3.6.8-.9 1.5-2.4 1.5-3.4s.7-2 1.5-2.4c.8-.3 1.5-1.7 1.5-3.1 0-1.4.4-2.5 1-2.5.5 0 1.3-1.2 1.6-2.6.4-1.4 2-3.9 3.5-5.5 1.6-1.6 2.9-3.7 2.9-4.5 0-1.9 12.7-14.4 14.6-14.4.7 0 3.3-2 5.8-4.4 2.5-2.6 5.6-4.6 7.2-4.9 6.8-1 16.7-.6 19.9.8z"></path><path d="M601 688.4l-4.5 1.2-.3 5.1c-.2 2.9-.9 5.7-1.7 6.3-1.1.9-1.5 3.6-1.5 10.5 0 7-.4 9.6-1.5 10.5-1.1.9-1.5 3.3-1.5 9 0 7.3-.2 7.8-3 10.3-1.6 1.5-3 3.3-3 4 0 1.9-18.7 20.7-20.5 20.7-.8 0-2.4.6-3.5 1.2-3.1 2-4.2-.5-3.5-8.2.4-4.4.1-8.4-1-12.3-.8-3.2-1.5-9.3-1.5-13.6 0-6-.3-8-1.5-8.5-1.5-.5-13 4.7-13.7 6.2-.1.4-2 1.8-4.1 3.1-2.8 1.7-5.5 2.4-10.5 2.5-4.7.1-7.6.8-9.6 2.1l-2.9 1.9.6 20.9c.5 20.8 0 25.7-2.7 25.7-.7 0-1.9.7-2.6 1.5-1 1.2-2.8 1.5-6.4 1.3l-5.1-.3.2-4.5c1-18.3 1.4-42 .7-42.1-4.1-.4-11.8.1-16.2 1.1-4.1.8-5.7.8-6.8-.1-2.4-2-10.1-1.5-12.7.9-2.2 2-2.2 2.3-1.5 17.9.4 8.7.9 18.9 1 22.8l.3 7h-17l-.1-10c0-5.5-.1-15.9-.2-23.1l-.2-13-7.2-1.1c-4-.6-10.3-.8-13.9-.6-5.1.4-7.2.1-9.2-1.2-1.6-1-4.1-1.5-6.9-1.3l-4.3.3.5 16c.7 23.3.6 28.1-.9 29.9-1.5 1.8-5.6 2.1-6.6.5-.4-.5-1.7-1.4-2.9-1.9-2.2-.8-2.3-1.5-3-15.7-.9-20.5-2.4-30.3-4.8-32.7-1.4-1.3-3.9-2-8.6-2.3-5.3-.3-7.6-1-11-3.4-2.3-1.6-4.5-2.9-4.8-2.9-.3 0-3.2-1.4-6.6-3-9.3-4.6-9.2-4.8-8.4 20.2.6 20.2.6 20.8-1.3 20.8-1.1 0-2.3-.4-2.6-1-.3-.5-1.4-1-2.3-1-.9 0-3.2-1.4-5.1-3-1.8-1.7-4-3-4.8-3-1.7 0-17.3-15.7-17.3-17.4 0-.7-.7-2.1-1.5-3.2s-1.4-4.2-1.5-7.5c0-3.8-.5-6.1-1.5-6.9-1.1-.9-1.5-3.5-1.5-10.5s-.4-9.6-1.5-10.5c-1-.8-1.5-3.1-1.5-6.6 0-2.9-.3-5.5-.7-5.7-.5-.3-3.2-.2-6 0l-5.3.6v3.7c0 2.1-.7 4.3-1.5 5-2.2 1.9-2.2 47.1 0 49 1 .9 1.5 3.2 1.5 7.5s.5 6.6 1.5 7.5c.9.8 1.5 2.9 1.5 5.6 0 4 3 11.7 5.1 13 .5.3.9 1.6.9 2.9 0 1.2.7 2.5 1.5 2.9.8.3 1.5 1.6 1.5 3s.4 2.7.9 3.1c.6.3 2.1 2.9 3.5 5.8 1.4 2.8 4.3 7.2 6.5 9.7 2.3 2.5 4.1 5 4.1 5.5 0 1.5 17.3 18.5 18.8 18.5.6 0 2.9 1.7 5 3.8 4.1 4.1 22.9 14.2 26.6 14.2 1.1 0 3 .7 4 1.5 1.1.8 4.1 1.5 6.7 1.5 2.9 0 5.1.6 5.9 1.5.8.9 3 1.5 6 1.5s5.2.6 6 1.5c.9 1.1 3.3 1.5 9 1.5s8.1.4 9 1.5c1.9 2.3 68.1 2.3 70 0 .9-1.1 3.3-1.5 9-1.5s8.1-.4 9-1.5c.8-.9 3-1.5 6-1.5s5.2-.6 6-1.5c.7-.8 2.7-1.5 4.4-1.5 1.8 0 4.1-.7 5.2-1.5 1-.8 2.9-1.5 4.1-1.5 2.4 0 9.9-3.6 10.9-5.1.3-.5 1.6-.9 2.9-.9 1.2 0 2.5-.7 2.9-1.5.3-.8 1.2-1.5 2-1.5 2.6 0 9.9-4.3 14.1-8.2 2.1-2.1 4.4-3.8 5-3.8 1.3 0 15.5-14.2 15.5-15.5 0-.6 2-3.3 4.5-6 2.4-2.8 4.5-5.5 4.5-6.1 0-.6 1.1-2.2 2.3-3.6 3.4-3.7 9.7-16.5 9.7-19.8 0-1.5.7-3.3 1.5-4 .8-.7 1.5-2.7 1.5-4.5 0-1.8.7-3.8 1.5-4.5 1-.9 1.5-3.2 1.5-7.5s.5-6.6 1.5-7.5c2.2-1.8 2.2-53.1.1-55-.8-.6-1.6-3.2-1.8-5.8-.2-2.5-.7-4.6-1.3-4.8-.5-.1-3 .3-5.5 1z"></path></g></g></mask></defs><g transform="translate(50,59.967935)rotate(0)scale(0.08888888888888889,0.08888888888888889)translate(-450,-450)"><g></g><metadata xmlns:rdf="http://www.w3.org/1999/02/22-rdf-syntax-ns#" xmlns:cc="http://creativecommons.org/ns#" xmlns:dc="http://purl.org/dc/elements/1.1/"><rdf:RDF><rdf:Description dc:title="Pirate Skull" dc:creator="donparker414"></rdf:Description><cc:Work rdf:about="https://heraldicon.org/charges/Cbjdxh/1"><cc:license rdf:resource="https://creativecommons.org/licenses/by-sa/4.0"></cc:license><cc:attributionName>Pirate Skull by donparker414</cc:attributionName><cc:attributionURL rdf:resource="https://heraldicon.org/users/donparker414"></cc:attributionURL></cc:Work><cc:License rdf:about="https://creativecommons.org/licenses/by-sa/4.0"><cc:permits rdf:resource="http://creativecommons.org/ns#Reproduction"></cc:permits><cc:permits rdf:resource="http://creativecommons.org/ns#DerivativeWorks"></cc:permits><cc:permits rdf:resource="http://creativecommons.org/ns#Distribution"></cc:permits><cc:requires rdf:resource="http://creativecommons.org/ns#Notice"></cc:requires><cc:requires rdf:resource="http://creativecommons.org/ns#Attribution"></cc:requires><cc:requires rdf:resource="http://creativecommons.org/ns#ShareAlike"></cc:requires></cc:License></rdf:RDF><rdf:RDF rdf:about="https://commons.wikimedia.org/wiki/File:Black_skull.svg"><rdf:Description dc:title="black skull.svg" dc:creator="Sabuk"></rdf:Description><cc:Work rdf:about="https://commons.wikimedia.org/wiki/File:Black_skull.svg"><cc:license rdf:resource="https://creativecommons.org/licenses/by-sa/4.0"></cc:license><cc:attributionName>Sabuk</cc:attributionName><cc:attributionURL rdf:resource="https://commons.wikimedia.org/wiki/User:Abuk_SABUK"></cc:attributionURL></cc:Work></rdf:RDF></metadata><g><g><g mask="url(#mask_10)"><rect transform="translate(450,450)scale(11.25,11.25)rotate(0)translate(-50,-59.967935)" x="-500" y="-500" width="1100" height="1100" fill="#333333"></rect></g><g mask="url(#mask_9)"><g transform="translate(450,450)scale(11.25,11.25)rotate(0)translate(-50,-59.967935)"><rect y="-1000" fill="#f6f6f6" width="2000" x="-1000" height="2000"></rect><g></g></g></g><g mask="url(#mask_8)"><g stroke="none" transform="translate(0,0)" fill="#333333" stroke-width="0"><g fill="#333333" stroke="none"><path d="M413.9 41.6c-.9 1.1-4.2 1.4-13.4 1.4-9.7 0-12.5.3-13.5 1.5-.9 1.1-3.5 1.5-10.5 1.5s-9.6.4-10.5 1.5c-.9 1-3.2 1.5-7.5 1.5s-6.6.5-7.5 1.5c-.9 1-3.2 1.5-7.4 1.5-3.9 0-6.9.5-8.2 1.5-1 .8-3.8 1.5-6 1.5-2.4 0-4.7.6-5.4 1.5-.7.8-2.7 1.5-4.5 1.5-1.8 0-3.8.7-4.5 1.5-.7.8-2.7 1.5-4.5 1.5-1.8 0-3.8.7-4.5 1.5-.8.9-2.9 1.5-5.6 1.5-4 0-11.7 3-13 5.1-.3.5-1.8.9-3.4.9-2.8 0-16.4 6.3-17.6 8.1-.3.5-1.6.9-2.8.9-1.3 0-2.9.6-3.5 1.4-.7.8-2.3 1.7-3.6 2-1.4.4-2.5 1.1-2.5 1.6 0 .6-.7 1-1.5 1-2.7 0-10 4.4-13.7 8.2-2 2.1-4.3 3.8-5.1 3.8-.9 0-4.3 2.7-7.7 6-3.4 3.3-6.7 6-7.4 6-1.5 0-12.6 11.2-12.6 12.6 0 .6-3.4 4.6-7.5 8.9-4.1 4.3-7.5 8.3-7.5 8.9 0 .6-1.8 3.1-4 5.6-2.2 2.5-5.9 8.3-8.2 13-2.4 4.7-5.3 9.5-6.5 10.8-1.5 1.5-2.3 3.5-2.3 5.8 0 2.2-.6 3.7-1.5 4-.8.4-1.5 1.3-1.5 2.1s-1.3 3.8-3 6.8c-1.6 3-3 6.7-3 8.3 0 1.6-.7 3.5-1.5 4.2-.8.7-1.5 2.4-1.5 3.9 0 1.4-.7 3.5-1.5 4.5-.8 1.1-1.5 4.1-1.5 6.7 0 2.9-.6 5.1-1.5 5.9-1 .9-1.5 3.2-1.5 7.5 0 4.2-.5 6.6-1.4 7.4-1.2 1-1.5 6.3-1.5 30.6s.3 29.6 1.5 30.6c1 .8 1.4 3.4 1.4 8.9 0 5.7.4 8.1 1.5 9 .9.8 1.5 3 1.5 6s.6 5.2 1.5 6c.9.8 1.5 3 1.5 6s.6 5.2 1.5 6c.8.7 1.5 2.9 1.5 5 0 2.4.5 4 1.5 4.4.9.3 1.5 1.8 1.5 3.9 0 1.9.7 4 1.5 4.7.8.7 1.5 2.5 1.5 4.1 0 2.8 3.4 10.4 5.1 11.5.5.3.9 1.3.9 2.3 0 1 .7 2.4 1.5 3.1.8.7 1.5 2.3 1.5 3.5 0 1.3.7 2.5 1.5 2.9.8.3 1.5 1.6 1.5 3s.4 2.7.9 3.1c.6.3 2.2 3 3.6 6.1 1.4 3 3.6 6.6 4.8 8 1.2 1.4 2.4 3.4 2.7 4.5.8 3.4 2.5 2.2 2.8-2 .2-2.2 1-4.5 1.8-5.1 2.1-1.9 2.1-44.2-.1-46-1-.9-1.5-3.2-1.5-7.4 0-3.9-.5-6.9-1.5-8.2-.8-1-1.5-3.1-1.5-4.5s-.7-3.4-1.5-4.5c-.8-1-1.5-3.1-1.5-4.5s-.7-3.4-1.5-4.5c-.8-1-1.5-3.1-1.5-4.5s-.7-3.4-1.5-4.5c-.8-1-1.5-3.8-1.5-6 0-2.4-.6-4.7-1.5-5.4-1.2-1-1.5-3.7-1.5-12s-.3-11-1.5-12c-2.2-1.8-2.2-24.2 0-26 1-.9 1.5-3.2 1.5-7.7 0-4.7.4-6.5 1.5-6.9.8-.4 1.5-1.4 1.5-2.3 0-1 1.3-3.3 3-5.1 1.6-1.8 3-3.9 3-4.5 0-1.8 4.4-5.5 6.6-5.5 1.1 0 5.3 3.4 9.7 7.8 5.7 5.7 7.7 8.4 7.7 10.4 0 1.4-.4 2.8-.8 3-.4.1-1.8 2.2-3 4.6-2.1 4-2.2 5.6-2.2 24.1 0 16.4.3 20.1 1.5 21.1 1 .9 1.5 3.2 1.5 7.4 0 3.9.5 6.9 1.5 8.2.8 1 1.5 3.1 1.5 4.5s.7 3.4 1.5 4.5c.8 1 1.5 3.1 1.5 4.5s.7 3.4 1.5 4.5c.8 1 1.5 3.1 1.5 4.5s.7 3.4 1.5 4.5c.8 1 1.5 3.8 1.5 6 0 2.4.6 4.7 1.5 5.4 1.2 1 1.5 3.8 1.5 13.5s.3 12.5 1.5 13.5c.8.7 1.5 2.5 1.5 4s-.7 3.3-1.5 4c-1.2 1-1.5 4.3-1.5 18s-.3 17-1.5 18c-1.1.9-1.5 3.5-1.5 10.5s-.4 9.6-1.5 10.5c-1 .9-1.5 3.2-1.5 7.5s-.5 6.6-1.5 7.5c-1 .9-1.5 3.2-1.5 7.5s-.5 6.6-1.5 7.5c-1.1.9-1.5 3.3-1.5 9s-.4 8.1-1.5 9c-1.1 1-1.5 3.5-1.5 11s.4 10 1.5 11c1.1.9 1.5 3.5 1.5 10.4 0 6.6.4 9.8 1.5 11.2.8 1 1.5 3.1 1.5 4.5 0 1.5.7 3.2 1.5 3.9.8.7 1.5 2.5 1.5 4.1 0 1.6 1 4.8 2.2 7.1 2.7 5.3 14.1 16.8 16.7 16.8 1.1 0 2.1.4 2.3.8.6 1.5 14.9 8.2 17.5 8.2 1.3 0 3.1.7 3.9 1.5.9.8 2.9 1.5 4.5 1.5 1.7 0 3.7.7 4.5 1.5.9.8 3 1.5 4.8 1.5 1.9 0 3.9.7 4.6 1.5.7.8 2.7 1.5 4.6 1.5 1.8 0 3.6.4 3.9 1 .3.5 4.4 2.8 9.2 5.1 4.7 2.3 9.7 5.3 11.1 6.6 1.4 1.3 3 2.3 3.6 2.3.6 0 2.6 1.4 4.5 3 1.8 1.7 4 3 4.8 3 1.7 0 11.3 9.6 11.3 11.3 0 .7 1.8 3.2 4 5.6 4.3 4.8 11 17.5 11 20.7 0 1.1.7 2.9 1.5 4 .9 1.2 1.4 4.3 1.5 8.9 0 4.4.5 7.8 1.4 9.1 1.2 1.7 1.2 2.2 0 3.9-.8 1-1.4 3-1.4 4.4 0 1.4-1.4 4.6-3 7.1-2.9 4.3-3 4.9-3 15.7 0 12.4.4 14.3 3 14.3 1 0 2.3.7 3 1.5.7.8 2.3 1.5 3.7 1.5 1.3 0 2.6.7 2.9 1.5.4.8 1.4 1.5 2.3 1.5 1 0 2.6.7 3.7 1.5 1 .8 3.1 1.5 4.5 1.5 1.5 0 3.2.7 3.9 1.5.7.8 1.9 1.5 2.7 1.5.7 0 2.5.7 3.8 1.6 1.3.8 3.6 1.4 5.2 1.2l2.8-.3.7-12c.5-6.6.5-16.7.2-22.5-.7-12.7-.4-13.2 8.3-12.8l5.8.3.5 25 .5 25 4.3.3c2.3.2 4.2.7 4.2 1.1 0 .4 2.1.8 4.8.9 2.6.1 9.6.4 15.6.7 6.3.4 11.2.3 11.7-.2.8-.8 1-9.7.7-43 0-6.9.3-7.3 7.5-7.3 4 0 6.8.5 7.5 1.2.6.8 1 10.6 1.1 24.8 0 12.9.1 23.8.1 24.2 0 1.6 11.3.8 13.2-.9 1.5-1.3 3.9-1.6 12.8-1.5 6 0 11.2-.3 11.5-.8.3-.5.6-11.3.7-24.2 0-13.5.5-23.8 1.1-24.6 1.3-1.6 12.3-1.6 13.4.1.4.6.8 11.3.8 23.7v22.5l4-.2c7.5-.5 10-1 18.3-3.8 6.5-2.2 8.8-3.6 10.8-6.3 1.5-1.8 3.9-3.8 5.5-4.4l2.9-1v-12.4c0-12-.1-12.6-3-17.7-2.5-4.6-3-6.4-3-12.4 0-5.1.4-7.4 1.5-8.3 1-.9 1.5-3.2 1.5-7.5s.5-6.6 1.5-7.5c.8-.7 1.5-2.8 1.5-4.7 0-2.1.6-3.6 1.5-3.9.8-.4 1.5-1.5 1.5-2.6 0-1.2 1.4-3.4 3-5 1.7-1.5 3-3.5 3-4.3 0-1.7 15.8-17.5 17.5-17.5.7 0 2.8-1.3 4.6-3 1.9-1.6 3.9-3 4.5-3 .6 0 3.2-2 5.7-4.5 3.5-3.3 5.5-4.5 7.7-4.5 2 0 3.9-1 5.8-3 2-2 3.9-3 5.9-3 1.6 0 3.8-.7 4.9-1.5 1-.8 3.1-1.5 4.5-1.5s3.4-.7 4.5-1.5c1-.8 3.1-1.5 4.5-1.5 3.6 0 9.5-2.6 10.2-4.5.4-.9 1.9-1.5 3.6-1.5 3 0 11.3-3.6 11.9-5.2.2-.4 1.2-.8 2.3-.8 1 0 3.2-1.4 4.7-3 1.6-1.6 3.6-3 4.4-3 3.5 0 12.8-15.2 12.8-20.9 0-1.6.7-3.4 1.5-4.1.8-.7 1.5-2.6 1.5-4.2s.7-3.6 1.5-4.4c1.2-1.2 1.5-4.2 1.5-13.8 0-9.8.3-12.6 1.5-13.6 1.9-1.6 1.9-5.4 0-7-1.1-.9-1.5-3.5-1.5-10.5s-.4-9.6-1.5-10.5c-1.1-.9-1.5-3.3-1.5-9s-.4-8.1-1.5-9c-1-.9-1.5-3.2-1.5-7.5s-.5-6.6-1.5-7.5c-1.1-.9-1.5-3.3-1.5-9s-.4-8.1-1.5-9c-1.2-1-1.5-3.8-1.5-13.5s-.3-12.5-1.5-13.5-1.5-3.8-1.5-13 .3-12 1.5-13 1.5-3.7 1.5-12 .3-11 1.5-12c.9-.7 1.5-3 1.5-5.4 0-2.2.7-5 1.5-6 .8-1.1 1.5-3.1 1.5-4.5s.7-3.5 1.5-4.5c.8-1.1 1.5-3.1 1.5-4.5s.7-3.5 1.5-4.5c.8-1.1 1.5-3.4 1.5-5.2 0-1.7.7-3.7 1.5-4.4 1-.9 1.5-3.2 1.5-7.5s.5-6.6 1.5-7.5c1.2-1 1.5-4.6 1.5-20.1 0-15.3-.3-19-1.5-20.3-.8-.8-1.5-2.2-1.5-3 0-.9-1.3-2.9-3-4.4-1.6-1.6-3-3.2-3-3.5 0-.8 18.8-19.7 19.6-19.7 1.1 0 10.4 10 10.4 11.3 0 .7.7 2.2 1.5 3.3.8 1 1.5 2.6 1.5 3.5 0 .9.7 1.9 1.5 2.3 1.3.5 1.5 4.8 1.5 30.4 0 25.4-.2 30.1-1.5 31.2-1 .9-1.5 3.2-1.5 7.5s-.5 6.6-1.5 7.5c-.8.7-1.5 2.8-1.5 4.7 0 2.1-.6 3.6-1.5 3.9-.8.4-1.5 1.4-1.5 2.3 0 .9-.7 2.5-1.5 3.5-.8 1.1-1.5 3.1-1.5 4.5s-.7 3.5-1.5 4.5c-1 1.3-1.5 4.3-1.5 8.2 0 4.3-.5 6.5-1.5 7.4-1.3 1.1-1.5 4.9-1.3 26.3.3 21.9.5 25.1 1.9 26 1.3.8 2.2.4 4.3-1.9 1.4-1.6 2.6-3.4 2.6-4 0-.6 1-2.2 2.3-3.6 2.6-2.8 6.7-10.2 6.7-12 0-.7 1-2.2 2.3-3.3 2.3-2 6.7-9.6 6.7-11.6 0-.6.7-1.7 1.5-2.5.8-.9 1.5-3.1 1.5-4.9 0-1.9.4-3.6.9-3.9 1.5-1 5.1-8.5 5.1-10.9 0-1.2.7-3.1 1.5-4.1.8-1.1 1.5-4.1 1.5-6.7 0-2.9.6-5.1 1.5-5.9.9-.8 1.5-3 1.5-6s.6-5.2 1.5-6c1.2-1 1.5-3.8 1.5-13.5s.3-12.5 1.5-13.5 1.5-3.7 1.5-12.5-.3-11.5-1.5-12.5-1.5-4-1.5-15.1c0-10.9-.3-14.1-1.5-15.3-1-1-1.5-3.5-1.5-7.5s-.5-6.5-1.5-7.5c-.8-.8-1.5-2.8-1.5-4.4 0-1.6-.7-3.5-1.5-4.2-.8-.7-1.5-2.9-1.5-5 0-2.4-.5-4-1.5-4.4-1-.4-1.5-1.9-1.5-4.9 0-3.6-1.7-7.8-8.2-20.8-4.5-9-9.2-17.3-10.5-18.4-1.3-1.1-2.3-2.6-2.3-3.3 0-2.3-4.5-9.7-8.2-13.4-2.1-2.1-3.8-4.5-3.8-5.3 0-2-37.5-39.5-39.4-39.5-.8 0-3.5-2-6-4.5-2.6-2.5-5.3-4.5-6.2-4.5-.8 0-2.5-1-3.7-2.3-3-3.2-16.2-9.7-19.7-9.7-1.6 0-3.1-.4-3.4-.9-1.1-1.7-8.7-5.1-11.5-5.1-1.6 0-3.4-.7-4.1-1.5-.7-.8-2.7-1.5-4.5-1.5-1.8 0-3.8-.7-4.5-1.5-.7-.8-2.7-1.5-4.5-1.5-1.8 0-3.8-.7-4.5-1.5-.7-.8-2.6-1.5-4.2-1.5s-3.6-.7-4.4-1.5c-1-.9-3.4-1.5-6.3-1.5-3.1 0-5.3-.5-6.1-1.5-.8-.9-3-1.5-6-1.5s-5.2-.6-6-1.5c-.8-.9-3-1.5-6-1.5s-5.2-.6-6-1.5c-.9-1-3.2-1.5-7.5-1.5s-6.6-.5-7.5-1.5c-.9-1-3.2-1.5-7.5-1.5s-6.6-.5-7.5-1.5c-1-1.2-3.7-1.5-12-1.5-7.9 0-11.1-.4-11.9-1.4-.9-1.1-8.1-1.4-39.6-1.4s-38.7.3-39.6 1.4zM385 368.5c6 3 11.9 9.6 16.1 17.9 2.1 4.3 3.9 8.9 3.9 10.2 0 1.2.5 2.6 1 2.9 1.7 1 1.2 26.6-.5 28.9-.8 1.1-1.5 2.9-1.5 4.1 0 2.6-6.4 15.7-8.5 17.5-.9.7-2.2 2.8-3 4.6-.7 1.8-2.2 4.1-3.2 5.1-1 1.1-2.7 3.6-3.8 5.7-1.1 2.1-2.5 4.1-3.2 4.3-.7.3-1.3 1.1-1.3 1.9 0 .7-1.3 2.8-2.9 4.6-1.5 1.8-3.1 4.2-3.5 5.3-.3 1.1-3.8 5.3-7.6 9.3-3.9 4.1-7 7.8-7 8.3 0 1.5-7 8.8-9.1 9.4-1 .4-3.7 2.4-6 4.6-2.7 2.6-5 3.9-6.8 3.9-1.5 0-3.6.7-4.7 1.5-2.7 2.1-27.1 2.1-29.8 0-1.1-.8-2.9-1.5-4.1-1.5-1.2 0-5.2-1.5-9.1-3.4-5.2-2.6-9.1-5.7-16.1-12.9-5.1-5.2-9.3-10.1-9.3-11 0-.8-.6-1.7-1.3-2-1.6-.6-6.7-10.3-6.7-12.8 0-1-1.3-4.4-3-7.4-1.6-3-3-6.4-3-7.5 0-1.1-1.3-4.3-2.8-7.2-4.4-8.1-5.5-15.7-5-32.2.4-12.6.8-14.8 2.7-18 1.3-2 2.7-3.6 3.2-3.6s.9-.6.9-1.4c0-.7 1.7-3.4 3.8-6 2.7-3.3 6.1-5.8 12.5-9.1 4.9-2.5 9.9-4.5 11.2-4.5 1.3 0 2.6-.4 2.9-.8.3-.5 4.2-1.2 8.7-1.5 4.5-.4 8.7-1.1 9.3-1.5.6-.5 5.3-1.2 10.4-1.5 5.2-.3 9.9-1 10.5-1.5.7-.5 6.1-1.2 12.2-1.6 6-.4 11.4-1.1 12-1.6 1.3-1.1 14.4-1.8 28-1.5 7.2.2 11 .8 13.5 2zm169.6-.4c.6.5 6.7 1.2 13.5 1.5 6.8.4 12.9 1.1 13.5 1.5.6.5 4.7 1.2 9 1.5 4.3.4 8.4 1.1 9.1 1.6.6.5 5.3 1.2 10.5 1.5 5.2.3 10.2 1.2 11.3 1.9 1.1.8 3.1 1.4 4.6 1.4 1.4 0 3.8 1.1 5.2 2.4 1.5 1.4 3.6 2.8 4.8 3.1 3.2 1 15.7 14.2 18 18.8 1 2.2 2.2 6.2 2.5 8.9.4 2.7 1.1 5.1 1.5 5.4 1.2.7 1.1 15.1-.1 15.9-.5.3-1 1.8-1 3.3 0 1.5-.9 4-2 5.7-1.1 1.6-2 4-2 5.2 0 1.3-1.3 4.8-3 7.8-1.6 3-3 6.4-3 7.5 0 1.1-1.3 4.5-3 7.5-1.6 3-3 6.4-3 7.3 0 4-4.4 10.3-14.7 20.8-8.9 9.2-12.1 11.8-18.2 14.8-4.1 2-8.4 3.6-9.6 3.6-1.2 0-3 .7-4.1 1.5-1.4 1.1-5 1.4-14.5 1.5-12.4 0-12.6 0-19.8-3.6-5.9-2.9-9.4-5.7-18.7-15.1-6.2-6.4-11.6-12.4-12-13.5-.3-1-2.3-3.8-4.5-6.1-2.1-2.3-4.2-5-4.5-6-.3-1-1.6-2.9-2.9-4.3-1.4-1.5-2.7-3.6-3.1-4.8-.4-1.1-2-3.6-3.5-5.4-1.6-1.8-2.9-3.9-2.9-4.6 0-.7-.9-2.1-2.1-3.2-1.1-1-4.4-6.6-7.2-12.3l-5.2-10.6V412c0-22.7.4-23.9 13-36.4 7.6-7.5 9.1-8.5 12.8-8.9 6.6-.7 34.1.4 35.3 1.4zm-94.1 122.4c2 .8 3.8 2.1 4.1 3 .3.8 1.3 1.5 2.1 1.5 1.9 0 18 15.6 18.9 18.2.3 1 2.1 3.5 4 5.6 3.9 4.1 10.4 16.5 10.4 19.6 0 1.2.9 3.4 2 5.1 1.1 1.6 2 4.2 2 5.7s.4 2.9.9 3.2c.4.3 1.1 3.7 1.5 7.6.4 3.8 1.1 7.2 1.7 7.5.5.4.9 8.3.9 18.3-.1 14-.4 18.1-1.5 19.6-.8 1.1-1.5 3.6-1.5 5.6 0 2-.7 5.2-1.6 7.1-2 4.1-8.3 10.9-10.1 10.9-.7 0-2.2.6-3.3 1.2-1.5 1-2.2 1-3.2 0-.6-.6-2.4-1.2-3.9-1.2-3.1 0-7.5-3.4-18.6-14.5-9-9-14.1-12.5-18.3-12.5-2.7 0-5.1 1.9-16.1 13.1l-13 13.1-7.7.1c-8.6.2-11.3-1.2-12.6-6.6-.3-1.5-1.1-2.7-1.6-2.7-.6 0-1-1.1-1-2.5 0-1.3-.8-2.8-1.7-3.4-1.7-.9-1.8-3.3-1.7-30.1 0-26.3.2-29.3 1.7-30.2 1.1-.6 1.7-2.2 1.7-4.7s.5-4.1 1.5-4.5c.8-.3 1.5-1.5 1.5-2.6 0-1.2.7-2.8 1.5-3.6.8-.9 1.5-2.4 1.5-3.4s.7-2 1.5-2.4c.8-.3 1.5-1.7 1.5-3.1 0-1.4.4-2.5 1-2.5.5 0 1.3-1.2 1.6-2.6.4-1.4 2-3.9 3.5-5.5 1.6-1.6 2.9-3.7 2.9-4.5 0-1.9 12.7-14.4 14.6-14.4.7 0 3.3-2 5.8-4.4 2.5-2.6 5.6-4.6 7.2-4.9 6.8-1 16.7-.6 19.9.8z"></path><path d="M601 688.4l-4.5 1.2-.3 5.1c-.2 2.9-.9 5.7-1.7 6.3-1.1.9-1.5 3.6-1.5 10.5 0 7-.4 9.6-1.5 10.5-1.1.9-1.5 3.3-1.5 9 0 7.3-.2 7.8-3 10.3-1.6 1.5-3 3.3-3 4 0 1.9-18.7 20.7-20.5 20.7-.8 0-2.4.6-3.5 1.2-3.1 2-4.2-.5-3.5-8.2.4-4.4.1-8.4-1-12.3-.8-3.2-1.5-9.3-1.5-13.6 0-6-.3-8-1.5-8.5-1.5-.5-13 4.7-13.7 6.2-.1.4-2 1.8-4.1 3.1-2.8 1.7-5.5 2.4-10.5 2.5-4.7.1-7.6.8-9.6 2.1l-2.9 1.9.6 20.9c.5 20.8 0 25.7-2.7 25.7-.7 0-1.9.7-2.6 1.5-1 1.2-2.8 1.5-6.4 1.3l-5.1-.3.2-4.5c1-18.3 1.4-42 .7-42.1-4.1-.4-11.8.1-16.2 1.1-4.1.8-5.7.8-6.8-.1-2.4-2-10.1-1.5-12.7.9-2.2 2-2.2 2.3-1.5 17.9.4 8.7.9 18.9 1 22.8l.3 7h-17l-.1-10c0-5.5-.1-15.9-.2-23.1l-.2-13-7.2-1.1c-4-.6-10.3-.8-13.9-.6-5.1.4-7.2.1-9.2-1.2-1.6-1-4.1-1.5-6.9-1.3l-4.3.3.5 16c.7 23.3.6 28.1-.9 29.9-1.5 1.8-5.6 2.1-6.6.5-.4-.5-1.7-1.4-2.9-1.9-2.2-.8-2.3-1.5-3-15.7-.9-20.5-2.4-30.3-4.8-32.7-1.4-1.3-3.9-2-8.6-2.3-5.3-.3-7.6-1-11-3.4-2.3-1.6-4.5-2.9-4.8-2.9-.3 0-3.2-1.4-6.6-3-9.3-4.6-9.2-4.8-8.4 20.2.6 20.2.6 20.8-1.3 20.8-1.1 0-2.3-.4-2.6-1-.3-.5-1.4-1-2.3-1-.9 0-3.2-1.4-5.1-3-1.8-1.7-4-3-4.8-3-1.7 0-17.3-15.7-17.3-17.4 0-.7-.7-2.1-1.5-3.2s-1.4-4.2-1.5-7.5c0-3.8-.5-6.1-1.5-6.9-1.1-.9-1.5-3.5-1.5-10.5s-.4-9.6-1.5-10.5c-1-.8-1.5-3.1-1.5-6.6 0-2.9-.3-5.5-.7-5.7-.5-.3-3.2-.2-6 0l-5.3.6v3.7c0 2.1-.7 4.3-1.5 5-2.2 1.9-2.2 47.1 0 49 1 .9 1.5 3.2 1.5 7.5s.5 6.6 1.5 7.5c.9.8 1.5 2.9 1.5 5.6 0 4 3 11.7 5.1 13 .5.3.9 1.6.9 2.9 0 1.2.7 2.5 1.5 2.9.8.3 1.5 1.6 1.5 3s.4 2.7.9 3.1c.6.3 2.1 2.9 3.5 5.8 1.4 2.8 4.3 7.2 6.5 9.7 2.3 2.5 4.1 5 4.1 5.5 0 1.5 17.3 18.5 18.8 18.5.6 0 2.9 1.7 5 3.8 4.1 4.1 22.9 14.2 26.6 14.2 1.1 0 3 .7 4 1.5 1.1.8 4.1 1.5 6.7 1.5 2.9 0 5.1.6 5.9 1.5.8.9 3 1.5 6 1.5s5.2.6 6 1.5c.9 1.1 3.3 1.5 9 1.5s8.1.4 9 1.5c1.9 2.3 68.1 2.3 70 0 .9-1.1 3.3-1.5 9-1.5s8.1-.4 9-1.5c.8-.9 3-1.5 6-1.5s5.2-.6 6-1.5c.7-.8 2.7-1.5 4.4-1.5 1.8 0 4.1-.7 5.2-1.5 1-.8 2.9-1.5 4.1-1.5 2.4 0 9.9-3.6 10.9-5.1.3-.5 1.6-.9 2.9-.9 1.2 0 2.5-.7 2.9-1.5.3-.8 1.2-1.5 2-1.5 2.6 0 9.9-4.3 14.1-8.2 2.1-2.1 4.4-3.8 5-3.8 1.3 0 15.5-14.2 15.5-15.5 0-.6 2-3.3 4.5-6 2.4-2.8 4.5-5.5 4.5-6.1 0-.6 1.1-2.2 2.3-3.6 3.4-3.7 9.7-16.5 9.7-19.8 0-1.5.7-3.3 1.5-4 .8-.7 1.5-2.7 1.5-4.5 0-1.8.7-3.8 1.5-4.5 1-.9 1.5-3.2 1.5-7.5s.5-6.6 1.5-7.5c2.2-1.8 2.2-53.1.1-55-.8-.6-1.6-3.2-1.8-5.8-.2-2.5-.7-4.6-1.3-4.8-.5-.1-3 .3-5.5 1z"></path></g></g></g></g></g></g></g></g></g></g></svg>