<svg viewBox="-10 -10 1020 1219.3587" xmlns="http://www.w3.org/2000/svg" xmlns:xlink="http://www.w3.org/1999/xlink" version="1.1" width="1020" height="1219.3587"><style></style><g transform="translate(500,599.67935)scale(10,10)translate(-50,-59.967935)" style="transition:transform 0.5s"><g><g></g></g><g><g></g></g><g transform="translate(0,0)" style="transition:transform 0.5s"></g><g style="transition:transform 0.5s"><g><metadata xmlns:rdf="http://www.w3.org/1999/02/22-rdf-syntax-ns#" xmlns:cc="http://creativecommons.org/ns#" xmlns:dc="http://purl.org/dc/elements/1.1/"><rdf:RDF><rdf:Description dc:title="Osirion" dc:creator="kosen"></rdf:Description><cc:Work rdf:about="https://heraldicon.org/arms/7B9ARR/1"><cc:license rdf:resource="private"></cc:license><cc:attributionName>Osirion by kosen</cc:attributionName><cc:attributionURL rdf:resource="https://heraldicon.org/users/kosen"></cc:attributionURL></cc:Work><cc:License rdf:about="private"></cc:License></rdf:RDF></metadata><defs><pattern width="20" height="20" patternUnits="userSpaceOnUse" id="void"><rect x="0" y="0" width="20" height="20" fill="#fff" class="light"></rect><rect x="0" y="0" width="10" height="10" fill="#ddd" class="dark"></rect><rect x="10" y="10" width="10" height="10" fill="#ddd" class="dark"></rect></pattern><pattern width="4" height="4" patternUnits="userSpaceOnUse" id="selected"><rect x="0" y="0" width="4" height="4" fill="#f5f5f5"></rect><g fill="#000"><circle cx="0" cy="0" r="0.3"></circle><circle cx="4" cy="0" r="0.3"></circle><circle cx="0" cy="4" r="0.3"></circle><circle cx="4" cy="4" r="0.3"></circle><circle cx="2" cy="2" r="0.3"></circle></g></pattern><pattern id="ermine" width="12.5" height="20" patternUnits="userSpaceOnUse" x="-3.125" y="-5"><rect x="0" y="0" width="12.5" height="20" fill="#f6f6f6"></rect><g fill="#333333"><path d="M 47.757634,0 C 60.324696,15.689314 25.136924,21.898666 44.167046,36.607392
    52.24587,41.673746 71.273896,30.723464 54.57765,17.322176
    52.423302,16.178163 62.11999,8.3349512 47.757634,0 Z m 21.182372,36.935142 c
    -3.23154,0.326846 -6.282816,2.290268 -9.155302,7.193166 -3.590588,8.33495
    12.209402,22.716724 22.98117,5.06625 C 83.483996,47.069952 94.0755,53.93163
    100,39.386326 89.946316,49.845864 79.713166,37.425428 70.377642,36.935142 Z
    M 29.80469,37.099022 C 20.469164,37.58931 10.053647,50.173186 0,39.55021
    5.9244804,54.095512 16.51881,47.070414 17.416458,49.358438 28.0087,67.008916
    43.805884,52.627142 40.215296,44.292192 36.983772,38.73555 33.395278,36.9356
    29.80469,37.099026 Z m 21.003542,10.13249 c -8.25835,37.262136
    -23.51556,63.576958 -40.211787,82.534868 7.001653,-1.96117
    14.718613,-7.19213 22.258843,-11.93164 -4.667764,9.80582 -9.154602,18.14082
    -13.822364,26.80264 2.692942,-0.98059 11.489886,-9.64435 23.338826,-22.3919
    1.795296,17.48703 4.305204,25.8241 8.07532,37.75452 3.052012,-11.93042
    5.208468,-19.9411 7.54234,-37.9184 7.181178,8.00805 14.001888,16.17984
    23.696484,23.04393 L 68.221186,117.34659 c 7.001634,4.41265
    14.72282,10.29262 22.083522,12.74406 C 72.710832,110.15215
    57.989412,84.493648 50.808232,47.231516 Z" transform="scale(0.0625,0.0625)"></path><path d="M 47.757634,0 C 60.324696,15.689314 25.136924,21.898666 44.167046,36.607392
    52.24587,41.673746 71.273896,30.723464 54.57765,17.322176
    52.423302,16.178163 62.11999,8.3349512 47.757634,0 Z m 21.182372,36.935142 c
    -3.23154,0.326846 -6.282816,2.290268 -9.155302,7.193166 -3.590588,8.33495
    12.209402,22.716724 22.98117,5.06625 C 83.483996,47.069952 94.0755,53.93163
    100,39.386326 89.946316,49.845864 79.713166,37.425428 70.377642,36.935142 Z
    M 29.80469,37.099022 C 20.469164,37.58931 10.053647,50.173186 0,39.55021
    5.9244804,54.095512 16.51881,47.070414 17.416458,49.358438 28.0087,67.008916
    43.805884,52.627142 40.215296,44.292192 36.983772,38.73555 33.395278,36.9356
    29.80469,37.099026 Z m 21.003542,10.13249 c -8.25835,37.262136
    -23.51556,63.576958 -40.211787,82.534868 7.001653,-1.96117
    14.718613,-7.19213 22.258843,-11.93164 -4.667764,9.80582 -9.154602,18.14082
    -13.822364,26.80264 2.692942,-0.98059 11.489886,-9.64435 23.338826,-22.3919
    1.795296,17.48703 4.305204,25.8241 8.07532,37.75452 3.052012,-11.93042
    5.208468,-19.9411 7.54234,-37.9184 7.181178,8.00805 14.001888,16.17984
    23.696484,23.04393 L 68.221186,117.34659 c 7.001634,4.41265
    14.72282,10.29262 22.083522,12.74406 C 72.710832,110.15215
    57.989412,84.493648 50.808232,47.231516 Z" transform="translate(6.25,10) scale(0.0625,0.0625)"></path></g></pattern><pattern id="ermines" width="12.5" height="20" patternUnits="userSpaceOnUse" x="-3.125" y="-5"><rect x="0" y="0" width="12.5" height="20" fill="#333333"></rect><g fill="#f6f6f6"><path d="M 47.757634,0 C 60.324696,15.689314 25.136924,21.898666 44.167046,36.607392
    52.24587,41.673746 71.273896,30.723464 54.57765,17.322176
    52.423302,16.178163 62.11999,8.3349512 47.757634,0 Z m 21.182372,36.935142 c
    -3.23154,0.326846 -6.282816,2.290268 -9.155302,7.193166 -3.590588,8.33495
    12.209402,22.716724 22.98117,5.06625 C 83.483996,47.069952 94.0755,53.93163
    100,39.386326 89.946316,49.845864 79.713166,37.425428 70.377642,36.935142 Z
    M 29.80469,37.099022 C 20.469164,37.58931 10.053647,50.173186 0,39.55021
    5.9244804,54.095512 16.51881,47.070414 17.416458,49.358438 28.0087,67.008916
    43.805884,52.627142 40.215296,44.292192 36.983772,38.73555 33.395278,36.9356
    29.80469,37.099026 Z m 21.003542,10.13249 c -8.25835,37.262136
    -23.51556,63.576958 -40.211787,82.534868 7.001653,-1.96117
    14.718613,-7.19213 22.258843,-11.93164 -4.667764,9.80582 -9.154602,18.14082
    -13.822364,26.80264 2.692942,-0.98059 11.489886,-9.64435 23.338826,-22.3919
    1.795296,17.48703 4.305204,25.8241 8.07532,37.75452 3.052012,-11.93042
    5.208468,-19.9411 7.54234,-37.9184 7.181178,8.00805 14.001888,16.17984
    23.696484,23.04393 L 68.221186,117.34659 c 7.001634,4.41265
    14.72282,10.29262 22.083522,12.74406 C 72.710832,110.15215
    57.989412,84.493648 50.808232,47.231516 Z" transform="scale(0.0625,0.0625)"></path><path d="M 47.757634,0 C 60.324696,15.689314 25.136924,21.898666 44.167046,36.607392
    52.24587,41.673746 71.273896,30.723464 54.57765,17.322176
    52.423302,16.178163 62.11999,8.3349512 47.757634,0 Z m 21.182372,36.935142 c
    -3.23154,0.326846 -6.282816,2.290268 -9.155302,7.193166 -3.590588,8.33495
    12.209402,22.716724 22.98117,5.06625 C 83.483996,47.069952 94.0755,53.93163
    100,39.386326 89.946316,49.845864 79.713166,37.425428 70.377642,36.935142 Z
    M 29.80469,37.099022 C 20.469164,37.58931 10.053647,50.173186 0,39.55021
    5.9244804,54.095512 16.51881,47.070414 17.416458,49.358438 28.0087,67.008916
    43.805884,52.627142 40.215296,44.292192 36.983772,38.73555 33.395278,36.9356
    29.80469,37.099026 Z m 21.003542,10.13249 c -8.25835,37.262136
    -23.51556,63.576958 -40.211787,82.534868 7.001653,-1.96117
    14.718613,-7.19213 22.258843,-11.93164 -4.667764,9.80582 -9.154602,18.14082
    -13.822364,26.80264 2.692942,-0.98059 11.489886,-9.64435 23.338826,-22.3919
    1.795296,17.48703 4.305204,25.8241 8.07532,37.75452 3.052012,-11.93042
    5.208468,-19.9411 7.54234,-37.9184 7.181178,8.00805 14.001888,16.17984
    23.696484,23.04393 L 68.221186,117.34659 c 7.001634,4.41265
    14.72282,10.29262 22.083522,12.74406 C 72.710832,110.15215
    57.989412,84.493648 50.808232,47.231516 Z" transform="translate(6.25,10) scale(0.0625,0.0625)"></path></g></pattern><pattern id="erminois" width="12.5" height="20" patternUnits="userSpaceOnUse" x="-3.125" y="-5"><rect x="0" y="0" width="12.5" height="20" fill="#f2bc51"></rect><g fill="#333333"><path d="M 47.757634,0 C 60.324696,15.689314 25.136924,21.898666 44.167046,36.607392
    52.24587,41.673746 71.273896,30.723464 54.57765,17.322176
    52.423302,16.178163 62.11999,8.3349512 47.757634,0 Z m 21.182372,36.935142 c
    -3.23154,0.326846 -6.282816,2.290268 -9.155302,7.193166 -3.590588,8.33495
    12.209402,22.716724 22.98117,5.06625 C 83.483996,47.069952 94.0755,53.93163
    100,39.386326 89.946316,49.845864 79.713166,37.425428 70.377642,36.935142 Z
    M 29.80469,37.099022 C 20.469164,37.58931 10.053647,50.173186 0,39.55021
    5.9244804,54.095512 16.51881,47.070414 17.416458,49.358438 28.0087,67.008916
    43.805884,52.627142 40.215296,44.292192 36.983772,38.73555 33.395278,36.9356
    29.80469,37.099026 Z m 21.003542,10.13249 c -8.25835,37.262136
    -23.51556,63.576958 -40.211787,82.534868 7.001653,-1.96117
    14.718613,-7.19213 22.258843,-11.93164 -4.667764,9.80582 -9.154602,18.14082
    -13.822364,26.80264 2.692942,-0.98059 11.489886,-9.64435 23.338826,-22.3919
    1.795296,17.48703 4.305204,25.8241 8.07532,37.75452 3.052012,-11.93042
    5.208468,-19.9411 7.54234,-37.9184 7.181178,8.00805 14.001888,16.17984
    23.696484,23.04393 L 68.221186,117.34659 c 7.001634,4.41265
    14.72282,10.29262 22.083522,12.74406 C 72.710832,110.15215
    57.989412,84.493648 50.808232,47.231516 Z" transform="scale(0.0625,0.0625)"></path><path d="M 47.757634,0 C 60.324696,15.689314 25.136924,21.898666 44.167046,36.607392
    52.24587,41.673746 71.273896,30.723464 54.57765,17.322176
    52.423302,16.178163 62.11999,8.3349512 47.757634,0 Z m 21.182372,36.935142 c
    -3.23154,0.326846 -6.282816,2.290268 -9.155302,7.193166 -3.590588,8.33495
    12.209402,22.716724 22.98117,5.06625 C 83.483996,47.069952 94.0755,53.93163
    100,39.386326 89.946316,49.845864 79.713166,37.425428 70.377642,36.935142 Z
    M 29.80469,37.099022 C 20.469164,37.58931 10.053647,50.173186 0,39.55021
    5.9244804,54.095512 16.51881,47.070414 17.416458,49.358438 28.0087,67.008916
    43.805884,52.627142 40.215296,44.292192 36.983772,38.73555 33.395278,36.9356
    29.80469,37.099026 Z m 21.003542,10.13249 c -8.25835,37.262136
    -23.51556,63.576958 -40.211787,82.534868 7.001653,-1.96117
    14.718613,-7.19213 22.258843,-11.93164 -4.667764,9.80582 -9.154602,18.14082
    -13.822364,26.80264 2.692942,-0.98059 11.489886,-9.64435 23.338826,-22.3919
    1.795296,17.48703 4.305204,25.8241 8.07532,37.75452 3.052012,-11.93042
    5.208468,-19.9411 7.54234,-37.9184 7.181178,8.00805 14.001888,16.17984
    23.696484,23.04393 L 68.221186,117.34659 c 7.001634,4.41265
    14.72282,10.29262 22.083522,12.74406 C 72.710832,110.15215
    57.989412,84.493648 50.808232,47.231516 Z" transform="translate(6.25,10) scale(0.0625,0.0625)"></path></g></pattern><pattern id="pean" width="12.5" height="20" patternUnits="userSpaceOnUse" x="-3.125" y="-5"><rect x="0" y="0" width="12.5" height="20" fill="#333333"></rect><g fill="#f2bc51"><path d="M 47.757634,0 C 60.324696,15.689314 25.136924,21.898666 44.167046,36.607392
    52.24587,41.673746 71.273896,30.723464 54.57765,17.322176
    52.423302,16.178163 62.11999,8.3349512 47.757634,0 Z m 21.182372,36.935142 c
    -3.23154,0.326846 -6.282816,2.290268 -9.155302,7.193166 -3.590588,8.33495
    12.209402,22.716724 22.98117,5.06625 C 83.483996,47.069952 94.0755,53.93163
    100,39.386326 89.946316,49.845864 79.713166,37.425428 70.377642,36.935142 Z
    M 29.80469,37.099022 C 20.469164,37.58931 10.053647,50.173186 0,39.55021
    5.9244804,54.095512 16.51881,47.070414 17.416458,49.358438 28.0087,67.008916
    43.805884,52.627142 40.215296,44.292192 36.983772,38.73555 33.395278,36.9356
    29.80469,37.099026 Z m 21.003542,10.13249 c -8.25835,37.262136
    -23.51556,63.576958 -40.211787,82.534868 7.001653,-1.96117
    14.718613,-7.19213 22.258843,-11.93164 -4.667764,9.80582 -9.154602,18.14082
    -13.822364,26.80264 2.692942,-0.98059 11.489886,-9.64435 23.338826,-22.3919
    1.795296,17.48703 4.305204,25.8241 8.07532,37.75452 3.052012,-11.93042
    5.208468,-19.9411 7.54234,-37.9184 7.181178,8.00805 14.001888,16.17984
    23.696484,23.04393 L 68.221186,117.34659 c 7.001634,4.41265
    14.72282,10.29262 22.083522,12.74406 C 72.710832,110.15215
    57.989412,84.493648 50.808232,47.231516 Z" transform="scale(0.0625,0.0625)"></path><path d="M 47.757634,0 C 60.324696,15.689314 25.136924,21.898666 44.167046,36.607392
    52.24587,41.673746 71.273896,30.723464 54.57765,17.322176
    52.423302,16.178163 62.11999,8.3349512 47.757634,0 Z m 21.182372,36.935142 c
    -3.23154,0.326846 -6.282816,2.290268 -9.155302,7.193166 -3.590588,8.33495
    12.209402,22.716724 22.98117,5.06625 C 83.483996,47.069952 94.0755,53.93163
    100,39.386326 89.946316,49.845864 79.713166,37.425428 70.377642,36.935142 Z
    M 29.80469,37.099022 C 20.469164,37.58931 10.053647,50.173186 0,39.55021
    5.9244804,54.095512 16.51881,47.070414 17.416458,49.358438 28.0087,67.008916
    43.805884,52.627142 40.215296,44.292192 36.983772,38.73555 33.395278,36.9356
    29.80469,37.099026 Z m 21.003542,10.13249 c -8.25835,37.262136
    -23.51556,63.576958 -40.211787,82.534868 7.001653,-1.96117
    14.718613,-7.19213 22.258843,-11.93164 -4.667764,9.80582 -9.154602,18.14082
    -13.822364,26.80264 2.692942,-0.98059 11.489886,-9.64435 23.338826,-22.3919
    1.795296,17.48703 4.305204,25.8241 8.07532,37.75452 3.052012,-11.93042
    5.208468,-19.9411 7.54234,-37.9184 7.181178,8.00805 14.001888,16.17984
    23.696484,23.04393 L 68.221186,117.34659 c 7.001634,4.41265
    14.72282,10.29262 22.083522,12.74406 C 72.710832,110.15215
    57.989412,84.493648 50.808232,47.231516 Z" transform="translate(6.25,10) scale(0.0625,0.0625)"></path></g></pattern></defs><defs><mask id="mask_5"><path d="M50,0h50v33.33333c0,35.72656 -19.05989,68.73926 -50,86.60254c-30.94011,-17.86328 -50,-50.87598 -50,-86.60254v-33.33333z" clip-rule="evenodd" fill-rule="evenodd" fill="#fff" stroke="none"></path></mask></defs><g mask="url(#mask_5)"><g><g><path d="M50,0h50v33.33333c0,35.72656 -19.05989,68.73926 -50,86.60254c-30.94011,-17.86328 -50,-50.87598 -50,-86.60254v-33.33333z" fill-rule="evenodd" fill="#f0f0f0"></path><rect y="-1000" fill="#ddc595" width="2000" x="-1000" height="2000"></rect><g></g></g></g></g><g stroke="#333333" stroke-width="0.5" fill="none" stroke-linecap="round" stroke-linejoin="round"><path d="M50,0h50v33.33333c0,35.72656 -19.05989,68.73926 -50,86.60254c-30.94011,-17.86328 -50,-50.87598 -50,-86.60254v-33.33333z"></path></g></g></g><g transform="translate(0,0)" style="transition:transform 0.5s"></g><g><g><g><defs><mask id="mask_10"><g stroke="none" transform="translate(-36,-62)" fill="#fff" stroke-width="0"><defs><clippath id="unique-a_13"><path d="M36 62h345v236H36z"></path></clippath></defs><g stroke-opacity="1" fill-opacity="1" stroke="none" stroke-dasharray="none" fill="none"><g><path d="M220.138 167.082c29.312 10.448 47.55 39.728 44.003 70.643a43.121 43.121 0 0023.544 41.525 17.41 17.41 0 01-12.394-4.958 21.124 21.124 0 012.479 15.49 60.783 60.783 0 00-21.065-30.363 35.33 35.33 0 011.233-22.31 50.645 50.645 0 01-9.298-34.705 48.056 48.056 0 01-28.502-35.322z" fill="#000"></path><path d="M220.138 167.082c29.312 10.448 47.55 39.728 44.003 70.643a43.121 43.121 0 0023.544 41.525 17.41 17.41 0 01-12.394-4.958 21.124 21.124 0 012.479 15.49 60.783 60.783 0 00-21.065-30.363 35.33 35.33 0 011.233-22.31 50.645 50.645 0 01-9.298-34.705 48.056 48.056 0 01-28.502-35.322z" stroke="#fff" stroke-linecap="round" stroke-linejoin="round" stroke-width="2" fill="#000"></path><path d="M197.518 167.082c-29.312 10.448-47.55 39.728-44.003 70.643a43.121 43.121 0 01-23.544 41.525 17.41 17.41 0 0012.394-4.958 21.124 21.124 0 00-2.479 15.49 60.783 60.783 0 0121.066-30.363 35.33 35.33 0 00-1.234-22.31 50.645 50.645 0 009.298-34.705 48.056 48.056 0 0028.502-35.322z" fill="#000"></path><path d="M197.518 167.082c-29.312 10.448-47.55 39.728-44.003 70.643a43.121 43.121 0 01-23.544 41.525 17.41 17.41 0 0012.394-4.958 21.124 21.124 0 00-2.479 15.49 60.783 60.783 0 0121.066-30.363 35.33 35.33 0 00-1.234-22.31 50.645 50.645 0 009.298-34.705 48.056 48.056 0 0028.502-35.322z" stroke="#fff" stroke-linecap="round" stroke-linejoin="round" stroke-width="2" fill="#000"></path><path d="M232.684 118.125a173.864 173.864 0 0134.087-40.908 10.449 10.449 0 004.958-13.628 9.616 9.616 0 01.617 12.394l11.16-4.957a161.017 161.017 0 00-48.343 53.907 4.635 4.635 0 11-2.48-6.808z" fill="#000"></path><path d="M232.684 118.125a173.864 173.864 0 0134.087-40.908 10.449 10.449 0 004.958-13.628 9.616 9.616 0 01.617 12.394l11.16-4.957a161.017 161.017 0 00-48.343 53.907 4.635 4.635 0 11-2.48-6.808z" stroke="#fff" stroke-linecap="round" stroke-linejoin="round" stroke-width="2" fill="#000"></path><path d="M184.973 118.125a173.863 173.863 0 00-34.088-40.908 10.449 10.449 0 01-4.958-13.628 9.616 9.616 0 00-.617 12.394l-11.16-4.957a161.017 161.017 0 0148.344 53.907 4.635 4.635 0 102.479-6.808z" fill="#000"></path><path d="M184.973 118.125a173.863 173.863 0 00-34.088-40.908 10.449 10.449 0 01-4.958-13.628 9.616 9.616 0 00-.617 12.394l-11.16-4.957a161.017 161.017 0 0148.344 53.907 4.635 4.635 0 102.479-6.808z" stroke="#fff" stroke-linecap="round" stroke-linejoin="round" stroke-width="2" fill="#000"></path><path d="M233.93 145.388c13.048 22.876 29.066 43.266 47.717 60.738 5.642 3.905 7.38 12.118 3.933 18.586 3.987-4.73 4.313-11.961.771-17.11l13.882 6.853c-26.116-20.259-47.731-46.844-63.206-77.738-.352-4.882-3.695-8.833-8.066-9.534-4.37-.7-8.617 2.033-10.247 6.598-1.63 4.564-.212 9.754 3.42 12.525 3.632 2.77 8.52 2.39 11.797-.918z" fill="#000"></path><path d="M233.93 145.388c13.048 22.876 29.066 43.266 47.717 60.738 5.642 3.905 7.38 12.118 3.933 18.586 3.987-4.73 4.313-11.961.771-17.11l13.882 6.853c-26.116-20.259-47.731-46.844-63.206-77.738-.352-4.882-3.695-8.833-8.066-9.534-4.37-.7-8.617 2.033-10.247 6.598-1.63 4.564-.212 9.754 3.42 12.525 3.632 2.77 8.52 2.39 11.797-.918z" stroke="#fff" stroke-linecap="round" stroke-linejoin="round" stroke-width="2" fill="#000"></path><path d="M183.725 145.388c-13.047 22.876-29.065 43.266-47.716 60.738-5.642 3.905-7.38 12.118-3.933 18.586-3.987-4.73-4.313-11.961-.771-17.11l-13.882 6.853c26.116-20.259 47.731-46.844 63.207-77.738.352-4.882 3.694-8.833 8.065-9.534 4.37-.7 8.617 2.033 10.247 6.598 1.63 4.564.213 9.754-3.42 12.525-3.631 2.77-8.52 2.39-11.797-.918z" fill="#000"></path><path d="M183.725 145.388c-13.047 22.876-29.065 43.266-47.716 60.738-5.642 3.905-7.38 12.118-3.933 18.586-3.987-4.73-4.313-11.961-.771-17.11l-13.882 6.853c26.116-20.259 47.731-46.844 63.207-77.738.352-4.882 3.694-8.833 8.065-9.534 4.37-.7 8.617 2.033 10.247 6.598 1.63 4.564.213 9.754-3.42 12.525-3.631 2.77-8.52 2.39-11.797-.918z" stroke="#fff" stroke-linecap="round" stroke-linejoin="round" stroke-width="2" fill="#000"></path><path d="M175.362 226.186c0-34.097 14.983-61.739 33.466-61.739 18.482 0 33.465 27.642 33.465 61.74 0 25.632-8.585 48.598-21.572 57.708a54.373 54.373 0 00-11.888 12.394 46.264 46.264 0 00-12.141-12.57c-12.859-9.232-21.329-32.077-21.33-57.533z" fill="#000"></path><path d="M175.362 226.186c0-34.097 14.983-61.739 33.466-61.739 18.482 0 33.465 27.642 33.465 61.74 0 25.632-8.585 48.598-21.572 57.708a54.373 54.373 0 00-11.888 12.394 46.264 46.264 0 00-12.141-12.57c-12.859-9.232-21.329-32.077-21.33-57.533z" stroke="#fff" stroke-linecap="round" stroke-linejoin="round" stroke-width="2" fill="#000"></path><path d="M240.561 245.765c-19.54 11.036-43.93 11.036-63.47 0 1.627 8.98 4.353 17.149 7.965 23.875a75.731 75.731 0 0047.55 0c3.61-6.728 6.33-14.897 7.955-23.875z" fill="#000"></path><path d="M240.561 245.765c-19.54 11.036-43.93 11.036-63.47 0 1.627 8.98 4.353 17.149 7.965 23.875a75.731 75.731 0 0047.55 0c3.61-6.728 6.33-14.897 7.955-23.875z" stroke="#fff" stroke-linecap="round" stroke-linejoin="round" stroke-width="2" fill="#000"></path><path d="M176.255 212.033a112.031 112.031 0 00-.716 20.437c20.846 10.315 45.731 10.315 66.577 0a112.033 112.033 0 00-.716-20.437c-19.951 11.678-45.194 11.678-65.145 0z" fill="#000"></path><path d="M176.255 212.033a112.031 112.031 0 00-.716 20.437c20.846 10.315 45.731 10.315 66.577 0a112.033 112.033 0 00-.716-20.437c-19.951 11.678-45.194 11.678-65.145 0z" stroke="#fff" stroke-linecap="round" stroke-linejoin="round" stroke-width="2" fill="#000"></path><g><path d="M179.068 197.945c18.424 11.998 41.091 11.998 59.516 0-1.723-6.184-3.998-11.786-6.732-16.57-14.491 8.208-31.55 8.208-46.041 0-2.738 4.783-5.017 10.385-6.743 16.57z" fill="#000"></path><path d="M179.068 197.945c18.424 11.998 41.091 11.998 59.516 0-1.723-6.184-3.998-11.786-6.732-16.57-14.491 8.208-31.55 8.208-46.041 0-2.738 4.783-5.017 10.385-6.743 16.57z" stroke="#fff" stroke-linecap="round" stroke-linejoin="round" stroke-width="2" fill="#000"></path></g><g><path d="M178.462 137.639c.223-18.813 13.752-33.932 30.363-33.932 16.612 0 30.14 15.119 30.364 33.932.148 12.397-5.607 23.925-15.062 30.172-9.456 6.248-21.148 6.248-30.603 0-9.455-6.247-15.21-17.775-15.062-30.172z" fill="#000"></path><path d="M178.462 137.639c.223-18.813 13.752-33.932 30.363-33.932 16.612 0 30.14 15.119 30.364 33.932.148 12.397-5.607 23.925-15.062 30.172-9.456 6.248-21.148 6.248-30.603 0-9.455-6.247-15.21-17.775-15.062-30.172z" stroke="#fff" stroke-linecap="round" stroke-linejoin="round" stroke-width="2"></path></g><g><path d="M211.467 92.119A42.146 42.146 0 01238.735 63a47.438 47.438 0 00-19.831 30.98 4.964 4.964 0 11-7.437-1.861z" fill="#000"></path><path d="M211.467 92.119A42.146 42.146 0 01238.735 63a47.438 47.438 0 00-19.831 30.98 4.964 4.964 0 11-7.437-1.861z" stroke="#fff" stroke-linecap="round" stroke-linejoin="round" stroke-width="2" fill="#000"></path></g><g><path d="M206.19 92.119A42.146 42.146 0 00178.921 63a47.438 47.438 0 0119.83 30.98 4.964 4.964 0 107.437-1.861z" fill="#000"></path><path d="M206.19 92.119A42.146 42.146 0 00178.921 63a47.438 47.438 0 0119.83 30.98 4.964 4.964 0 107.437-1.861z" stroke="#fff" stroke-linecap="round" stroke-linejoin="round" stroke-width="2" fill="#000"></path></g><g><ellipse cx="208.828" cy="101.179" rx="21.071" ry="11.568" fill="#000"></ellipse><ellipse rx="21.071" stroke="#fff" fill="#000" stroke-linejoin="round" stroke-linecap="round" stroke-width="2" cx="208.828" cy="101.179" ry="11.568"></ellipse></g><g><path d="M215.777 101.18c-.08-4.202 1.57-8.13 4.31-10.26 2.74-2.132 6.137-2.132 8.877 0 2.739 2.13 4.389 6.058 4.309 10.26.08 4.2-1.57 8.128-4.31 10.26-2.739 2.13-6.137 2.13-8.876 0-2.74-2.132-4.39-6.06-4.31-10.26z" fill="#000"></path><path d="M215.777 101.18c-.08-4.202 1.57-8.13 4.31-10.26 2.74-2.132 6.137-2.132 8.877 0 2.739 2.13 4.389 6.058 4.309 10.26.08 4.2-1.57 8.128-4.31 10.26-2.739 2.13-6.137 2.13-8.876 0-2.74-2.132-4.39-6.06-4.31-10.26z" stroke="#fff" stroke-linecap="round" stroke-linejoin="round" stroke-width="2" fill="#fff"></path></g><g><path d="M184.378 101.18c-.08-4.202 1.57-8.13 4.31-10.26 2.739-2.132 6.137-2.132 8.876 0 2.74 2.13 4.39 6.058 4.31 10.26.08 4.2-1.57 8.128-4.31 10.26-2.74 2.13-6.137 2.13-8.877 0-2.739-2.132-4.389-6.06-4.309-10.26z" fill="#000"></path><path d="M184.378 101.18c-.08-4.202 1.57-8.13 4.31-10.26 2.739-2.132 6.137-2.132 8.876 0 2.74 2.13 4.39 6.058 4.31 10.26.08 4.2-1.57 8.128-4.31 10.26-2.74 2.13-6.137 2.13-8.877 0-2.739-2.132-4.389-6.06-4.309-10.26z" stroke="#fff" stroke-linecap="round" stroke-linejoin="round" stroke-width="2" fill="#fff"></path></g><g><path d="M218.166 141.389a8.458 8.458 0 010-14.874L334.057 89.95a58.852 58.852 0 0135.939 1.862 12.187 12.187 0 017.436 19.214 105.551 105.551 0 01-28.502 22.927 34.748 34.748 0 01-18.597 4.958l-69.409 3.096z" fill="#000"></path><path d="M218.166 141.389a8.458 8.458 0 010-14.874L334.057 89.95a58.852 58.852 0 0135.939 1.862 12.187 12.187 0 017.436 19.214 105.551 105.551 0 01-28.502 22.927 34.748 34.748 0 01-18.597 4.958l-69.409 3.096z" stroke="#fff" stroke-linecap="round" stroke-linejoin="round" stroke-width="2"></path></g><g><path d="M217.546 142.004l112.796-3.096a5.943 5.943 0 012.479 9.299 63.088 63.088 0 01-61.047 18.586 493.82 493.82 0 00-52.983-15.49 5.109 5.109 0 01-1.245-9.3z" fill="#000"></path><path d="M217.546 142.004l112.796-3.096a5.943 5.943 0 012.479 9.299 63.088 63.088 0 01-61.047 18.586 493.82 493.82 0 00-52.983-15.49 5.109 5.109 0 01-1.245-9.3z" stroke="#fff" stroke-linecap="round" stroke-linejoin="round" stroke-width="2"></path></g><g><path d="M236.138 129.611l41.525-11.766a8.463 8.463 0 003.095-10.544 8.02 8.02 0 01-3.095 10.544 21.175 21.175 0 0024.16-9.916 15.604 15.604 0 0111.161-4.958 14.858 14.858 0 00-2.633-3.724 41.067 41.067 0 012.633 3.724 182.063 182.063 0 0039.663-.32 33.355 33.355 0 0018.277-8.978 124.86 124.86 0 00-44.311 4.649" fill="#000"></path><path d="M236.138 129.611l41.525-11.766a8.463 8.463 0 003.095-10.544 8.02 8.02 0 01-3.095 10.544 21.175 21.175 0 0024.16-9.916 15.604 15.604 0 0111.161-4.958 14.858 14.858 0 00-2.633-3.724 41.067 41.067 0 012.633 3.724 182.063 182.063 0 0039.663-.32 33.355 33.355 0 0018.277-8.978 124.86 124.86 0 00-44.311 4.649" stroke="#fff" stroke-linecap="round" stroke-linejoin="round" stroke-width="1"></path></g><g><path d="M242.955 133.024l20.911-4.65a8.336 8.336 0 018.22 2.48 7.309 7.309 0 01-4.188 5.728 7.986 7.986 0 004.187-5.729 24.011 24.011 0 005.575-12.703 22.324 22.324 0 01-3.559 10.225 51.62 51.62 0 0133.614 4.032 9.651 9.651 0 00.309 6.5 12.289 12.289 0 01-.309-6.654 33.123 33.123 0 0127.268-5.432 35.772 35.772 0 0025.097-.463 27.641 27.641 0 00-12.394-9.607 57.739 57.739 0 00-15.182-2.324 13.205 13.205 0 00-7.437 7.756 28.282 28.282 0 00-13.011-9.916l-13.011-.32a290.85 290.85 0 0026.794-.308 7.069 7.069 0 007.282-7.59l.309 7.59 16.735.309a13.87 13.87 0 01-4.65-8.671 11.12 11.12 0 004.496 8.362 7.644 7.644 0 007.128 2.016l6.511-.925-3.107-11.932 8.528-4.958a9.632 9.632 0 01-.617 16.262" fill="#000"></path><path d="M242.955 133.024l20.911-4.65a8.336 8.336 0 018.22 2.48 7.309 7.309 0 01-4.188 5.728 7.986 7.986 0 004.187-5.729 24.011 24.011 0 005.575-12.703 22.324 22.324 0 01-3.559 10.225 51.62 51.62 0 0133.614 4.032 9.651 9.651 0 00.309 6.5 12.289 12.289 0 01-.309-6.654 33.123 33.123 0 0127.268-5.432 35.772 35.772 0 0025.097-.463 27.641 27.641 0 00-12.394-9.607 16.45 16.45 0 000 0 57.739 57.739 0 00-15.182-2.324 13.205 13.205 0 00-7.437 7.756 28.282 28.282 0 00-13.011-9.916l-13.011-.32a290.85 290.85 0 0026.794-.308 7.069 7.069 0 007.282-7.59l.309 7.59 16.735.309a13.87 13.87 0 01-4.65-8.671 11.12 11.12 0 004.496 8.362 7.644 7.644 0 007.128 2.016l6.511-.925-3.107-11.932 8.528-4.958a9.632 9.632 0 01-.617 16.262" stroke="#fff" stroke-linecap="round" stroke-linejoin="round" stroke-width="1"></path></g><g><path d="M325.684 144.487c-6.455 9.637-19.076 12.958-29.438 7.746a11.942 11.942 0 00-12.383 4.649 20.247 20.247 0 0113.011 10.532 23.442 23.442 0 00-13.022-10.532l-18.587-4.958a1085.56 1085.56 0 01-34.704-9.607l34.396 9.916a3.397 3.397 0 01-2.17 5.266l-28.513-9.916 28.512 9.916a31.243 31.243 0 0022.31 2.479" fill="#000"></path><path d="M325.684 144.487c-6.455 9.637-19.076 12.958-29.438 7.746a43.301 43.301 0 010 0 11.942 11.942 0 00-12.383 4.649 20.247 20.247 0 0113.011 10.532 23.442 23.442 0 00-13.022-10.532l-18.587-4.958a1085.56 1085.56 0 01-34.704-9.607l34.396 9.916a3.397 3.397 0 01-2.17 5.266l-28.513-9.916 28.512 9.916a31.243 31.243 0 0022.31 2.479" stroke="#fff" stroke-linecap="round" stroke-linejoin="round" stroke-width="1"></path></g><g><path d="M199.49 141.389a8.458 8.458 0 000-14.874L83.6 89.95a58.852 58.852 0 00-35.94 1.862 12.187 12.187 0 00-7.436 19.214 105.551 105.551 0 0028.502 22.927 34.748 34.748 0 0018.597 4.958l69.41 3.096z" fill="#000"></path><path d="M199.49 141.389a8.458 8.458 0 000-14.874L83.6 89.95a58.852 58.852 0 00-35.94 1.862 12.187 12.187 0 00-7.436 19.214 105.551 105.551 0 0028.502 22.927 34.748 34.748 0 0018.597 4.958l69.41 3.096z" stroke="#fff" stroke-linecap="round" stroke-linejoin="round" stroke-width="2"></path></g><g><path d="M200.11 142.004l-112.796-3.096a5.943 5.943 0 00-2.478 9.299 63.088 63.088 0 0061.047 18.586 493.82 493.82 0 0152.982-15.49 5.109 5.109 0 001.245-9.3z" fill="#000"></path><path d="M200.11 142.004l-112.796-3.096a5.943 5.943 0 00-2.478 9.299 63.088 63.088 0 0061.047 18.586 493.82 493.82 0 0152.982-15.49 5.109 5.109 0 001.245-9.3z" stroke="#fff" stroke-linecap="round" stroke-linejoin="round" stroke-width="2"></path></g><g><path d="M181.518 129.611l-41.524-11.766a8.463 8.463 0 01-3.096-10.544 8.02 8.02 0 003.096 10.544 21.175 21.175 0 01-24.161-9.916 15.604 15.604 0 00-11.16-4.958 14.858 14.858 0 012.632-3.724 41.07 41.07 0 00-2.633 3.724 182.063 182.063 0 01-39.662-.32 33.355 33.355 0 01-18.278-8.978 124.86 124.86 0 0144.312 4.649" fill="#000"></path><path d="M181.518 129.611l-41.524-11.766a8.463 8.463 0 01-3.096-10.544 8.02 8.02 0 003.096 10.544 21.175 21.175 0 01-24.161-9.916 15.604 15.604 0 00-11.16-4.958 14.858 14.858 0 012.632-3.724 41.07 41.07 0 00-2.633 3.724 182.063 182.063 0 01-39.662-.32 33.355 33.355 0 01-18.278-8.978 124.86 124.86 0 0144.312 4.649" stroke="#fff" stroke-linecap="round" stroke-linejoin="round" stroke-width="1"></path></g><g><path d="M174.701 133.024l-20.91-4.65a8.336 8.336 0 00-8.22 2.48 7.309 7.309 0 004.187 5.728 7.986 7.986 0 01-4.187-5.729 24.011 24.011 0 01-5.575-12.703 22.324 22.324 0 003.559 10.225 51.619 51.619 0 00-33.614 4.032 9.651 9.651 0 01-.308 6.5c.713-2.147.82-4.45.308-6.654a33.123 33.123 0 00-27.268-5.432 35.772 35.772 0 01-25.097-.463 27.642 27.642 0 0112.394-9.607 57.739 57.739 0 0115.182-2.324 13.205 13.205 0 017.437 7.756 28.282 28.282 0 0113.011-9.916l13.012-.32a290.85 290.85 0 01-26.794-.308 7.069 7.069 0 01-7.283-7.59l-.308 7.59-16.736.309a13.87 13.87 0 004.65-8.671 11.12 11.12 0 01-4.495 8.362 7.644 7.644 0 01-7.129 2.016l-6.51-.925 3.106-11.932-8.527-4.958a9.632 9.632 0 00.617 16.262" fill="#000"></path><path d="M174.701 133.024l-20.91-4.65a8.336 8.336 0 00-8.22 2.48 7.309 7.309 0 004.187 5.728 7.986 7.986 0 01-4.187-5.729 24.011 24.011 0 01-5.575-12.703 22.324 22.324 0 003.559 10.225 51.619 51.619 0 00-33.614 4.032 9.651 9.651 0 01-.308 6.5c.713-2.147.82-4.45.308-6.654a33.123 33.123 0 00-27.268-5.432 35.772 35.772 0 01-25.097-.463 27.642 27.642 0 0112.394-9.607 16.45 16.45 0 010 0 57.739 57.739 0 0115.182-2.324 13.205 13.205 0 017.437 7.756 28.282 28.282 0 0113.011-9.916l13.012-.32a290.85 290.85 0 01-26.794-.308 7.069 7.069 0 01-7.283-7.59l-.308 7.59-16.736.309a13.87 13.87 0 004.65-8.671 11.12 11.12 0 01-4.495 8.362 7.644 7.644 0 01-7.129 2.016l-6.51-.925 3.106-11.932-8.527-4.958a9.632 9.632 0 00.617 16.262" stroke="#fff" stroke-linecap="round" stroke-linejoin="round" stroke-width="1"></path></g><g><path d="M91.972 144.487c6.455 9.637 19.076 12.958 29.438 7.746a11.942 11.942 0 0112.384 4.649 20.247 20.247 0 00-13.012 10.532 23.442 23.442 0 0113.023-10.532l18.586-4.958c11.62-3.01 23.19-6.213 34.704-9.607l-34.396 9.916a3.397 3.397 0 002.17 5.266l28.514-9.916-28.513 9.916a31.243 31.243 0 01-22.31 2.479" fill="#000"></path><path d="M91.972 144.487c6.455 9.637 19.076 12.958 29.438 7.746a43.301 43.301 0 000 0 11.942 11.942 0 0112.384 4.649 20.247 20.247 0 00-13.012 10.532 23.442 23.442 0 0113.023-10.532l18.586-4.958c11.62-3.01 23.19-6.213 34.704-9.607l-34.396 9.916a3.397 3.397 0 002.17 5.266l28.514-9.916-28.513 9.916a31.243 31.243 0 01-22.31 2.479" stroke="#fff" stroke-linecap="round" stroke-linejoin="round" stroke-width="1"></path></g></g></g></g></mask><mask id="mask_11"><g stroke="none" transform="translate(-36,-62)" fill="#000" stroke-width="0"><defs><clippath id="unique-a_14"><path d="M36 62h345v236H36z"></path></clippath></defs><g stroke-opacity="1" fill-opacity="1" stroke="none" stroke-dasharray="none" fill="none"><g><path d="M220.138 167.082c29.312 10.448 47.55 39.728 44.003 70.643a43.121 43.121 0 0023.544 41.525 17.41 17.41 0 01-12.394-4.958 21.124 21.124 0 012.479 15.49 60.783 60.783 0 00-21.065-30.363 35.33 35.33 0 011.233-22.31 50.645 50.645 0 01-9.298-34.705 48.056 48.056 0 01-28.502-35.322z" fill="#fff"></path><path d="M220.138 167.082c29.312 10.448 47.55 39.728 44.003 70.643a43.121 43.121 0 0023.544 41.525 17.41 17.41 0 01-12.394-4.958 21.124 21.124 0 012.479 15.49 60.783 60.783 0 00-21.065-30.363 35.33 35.33 0 011.233-22.31 50.645 50.645 0 01-9.298-34.705 48.056 48.056 0 01-28.502-35.322z" stroke="#000" stroke-linecap="round" stroke-linejoin="round" stroke-width="2" fill="#fff"></path><path d="M197.518 167.082c-29.312 10.448-47.55 39.728-44.003 70.643a43.121 43.121 0 01-23.544 41.525 17.41 17.41 0 0012.394-4.958 21.124 21.124 0 00-2.479 15.49 60.783 60.783 0 0121.066-30.363 35.33 35.33 0 00-1.234-22.31 50.645 50.645 0 009.298-34.705 48.056 48.056 0 0028.502-35.322z" fill="#fff"></path><path d="M197.518 167.082c-29.312 10.448-47.55 39.728-44.003 70.643a43.121 43.121 0 01-23.544 41.525 17.41 17.41 0 0012.394-4.958 21.124 21.124 0 00-2.479 15.49 60.783 60.783 0 0121.066-30.363 35.33 35.33 0 00-1.234-22.31 50.645 50.645 0 009.298-34.705 48.056 48.056 0 0028.502-35.322z" stroke="#000" stroke-linecap="round" stroke-linejoin="round" stroke-width="2" fill="#fff"></path><path d="M232.684 118.125a173.864 173.864 0 0134.087-40.908 10.449 10.449 0 004.958-13.628 9.616 9.616 0 01.617 12.394l11.16-4.957a161.017 161.017 0 00-48.343 53.907 4.635 4.635 0 11-2.48-6.808z" fill="#fff"></path><path d="M232.684 118.125a173.864 173.864 0 0134.087-40.908 10.449 10.449 0 004.958-13.628 9.616 9.616 0 01.617 12.394l11.16-4.957a161.017 161.017 0 00-48.343 53.907 4.635 4.635 0 11-2.48-6.808z" stroke="#000" stroke-linecap="round" stroke-linejoin="round" stroke-width="2" fill="#fff"></path><path d="M184.973 118.125a173.863 173.863 0 00-34.088-40.908 10.449 10.449 0 01-4.958-13.628 9.616 9.616 0 00-.617 12.394l-11.16-4.957a161.017 161.017 0 0148.344 53.907 4.635 4.635 0 102.479-6.808z" fill="#fff"></path><path d="M184.973 118.125a173.863 173.863 0 00-34.088-40.908 10.449 10.449 0 01-4.958-13.628 9.616 9.616 0 00-.617 12.394l-11.16-4.957a161.017 161.017 0 0148.344 53.907 4.635 4.635 0 102.479-6.808z" stroke="#000" stroke-linecap="round" stroke-linejoin="round" stroke-width="2" fill="#fff"></path><path d="M233.93 145.388c13.048 22.876 29.066 43.266 47.717 60.738 5.642 3.905 7.38 12.118 3.933 18.586 3.987-4.73 4.313-11.961.771-17.11l13.882 6.853c-26.116-20.259-47.731-46.844-63.206-77.738-.352-4.882-3.695-8.833-8.066-9.534-4.37-.7-8.617 2.033-10.247 6.598-1.63 4.564-.212 9.754 3.42 12.525 3.632 2.77 8.52 2.39 11.797-.918z" fill="#fff"></path><path d="M233.93 145.388c13.048 22.876 29.066 43.266 47.717 60.738 5.642 3.905 7.38 12.118 3.933 18.586 3.987-4.73 4.313-11.961.771-17.11l13.882 6.853c-26.116-20.259-47.731-46.844-63.206-77.738-.352-4.882-3.695-8.833-8.066-9.534-4.37-.7-8.617 2.033-10.247 6.598-1.63 4.564-.212 9.754 3.42 12.525 3.632 2.77 8.52 2.39 11.797-.918z" stroke="#000" stroke-linecap="round" stroke-linejoin="round" stroke-width="2" fill="#fff"></path><path d="M183.725 145.388c-13.047 22.876-29.065 43.266-47.716 60.738-5.642 3.905-7.38 12.118-3.933 18.586-3.987-4.73-4.313-11.961-.771-17.11l-13.882 6.853c26.116-20.259 47.731-46.844 63.207-77.738.352-4.882 3.694-8.833 8.065-9.534 4.37-.7 8.617 2.033 10.247 6.598 1.63 4.564.213 9.754-3.42 12.525-3.631 2.77-8.52 2.39-11.797-.918z" fill="#fff"></path><path d="M183.725 145.388c-13.047 22.876-29.065 43.266-47.716 60.738-5.642 3.905-7.38 12.118-3.933 18.586-3.987-4.73-4.313-11.961-.771-17.11l-13.882 6.853c26.116-20.259 47.731-46.844 63.207-77.738.352-4.882 3.694-8.833 8.065-9.534 4.37-.7 8.617 2.033 10.247 6.598 1.63 4.564.213 9.754-3.42 12.525-3.631 2.77-8.52 2.39-11.797-.918z" stroke="#000" stroke-linecap="round" stroke-linejoin="round" stroke-width="2" fill="#fff"></path><path d="M175.362 226.186c0-34.097 14.983-61.739 33.466-61.739 18.482 0 33.465 27.642 33.465 61.74 0 25.632-8.585 48.598-21.572 57.708a54.373 54.373 0 00-11.888 12.394 46.264 46.264 0 00-12.141-12.57c-12.859-9.232-21.329-32.077-21.33-57.533z" fill="#000"></path><path d="M175.362 226.186c0-34.097 14.983-61.739 33.466-61.739 18.482 0 33.465 27.642 33.465 61.74 0 25.632-8.585 48.598-21.572 57.708a54.373 54.373 0 00-11.888 12.394 46.264 46.264 0 00-12.141-12.57c-12.859-9.232-21.329-32.077-21.33-57.533z" stroke="#000" stroke-linecap="round" stroke-linejoin="round" stroke-width="2" fill="#fff"></path><path d="M240.561 245.765c-19.54 11.036-43.93 11.036-63.47 0 1.627 8.98 4.353 17.149 7.965 23.875a75.731 75.731 0 0047.55 0c3.61-6.728 6.33-14.897 7.955-23.875z" fill="#fff"></path><path d="M240.561 245.765c-19.54 11.036-43.93 11.036-63.47 0 1.627 8.98 4.353 17.149 7.965 23.875a75.731 75.731 0 0047.55 0c3.61-6.728 6.33-14.897 7.955-23.875z" stroke="#000" stroke-linecap="round" stroke-linejoin="round" stroke-width="2" fill="#fff"></path><path d="M176.255 212.033a112.031 112.031 0 00-.716 20.437c20.846 10.315 45.731 10.315 66.577 0a112.033 112.033 0 00-.716-20.437c-19.951 11.678-45.194 11.678-65.145 0z" fill="#fff"></path><path d="M176.255 212.033a112.031 112.031 0 00-.716 20.437c20.846 10.315 45.731 10.315 66.577 0a112.033 112.033 0 00-.716-20.437c-19.951 11.678-45.194 11.678-65.145 0z" stroke="#000" stroke-linecap="round" stroke-linejoin="round" stroke-width="2" fill="#fff"></path><g><path d="M179.068 197.945c18.424 11.998 41.091 11.998 59.516 0-1.723-6.184-3.998-11.786-6.732-16.57-14.491 8.208-31.55 8.208-46.041 0-2.738 4.783-5.017 10.385-6.743 16.57z" fill="#fff"></path><path d="M179.068 197.945c18.424 11.998 41.091 11.998 59.516 0-1.723-6.184-3.998-11.786-6.732-16.57-14.491 8.208-31.55 8.208-46.041 0-2.738 4.783-5.017 10.385-6.743 16.57z" stroke="#000" stroke-linecap="round" stroke-linejoin="round" stroke-width="2" fill="#fff"></path></g><g><path d="M178.462 137.639c.223-18.813 13.752-33.932 30.363-33.932 16.612 0 30.14 15.119 30.364 33.932.148 12.397-5.607 23.925-15.062 30.172-9.456 6.248-21.148 6.248-30.603 0-9.455-6.247-15.21-17.775-15.062-30.172z" fill="#fff"></path><path d="M178.462 137.639c.223-18.813 13.752-33.932 30.363-33.932 16.612 0 30.14 15.119 30.364 33.932.148 12.397-5.607 23.925-15.062 30.172-9.456 6.248-21.148 6.248-30.603 0-9.455-6.247-15.21-17.775-15.062-30.172z" stroke="#000" stroke-linecap="round" stroke-linejoin="round" stroke-width="2"></path></g><g><path d="M211.467 92.119A42.146 42.146 0 01238.735 63a47.438 47.438 0 00-19.831 30.98 4.964 4.964 0 11-7.437-1.861z" fill="#fff"></path><path d="M211.467 92.119A42.146 42.146 0 01238.735 63a47.438 47.438 0 00-19.831 30.98 4.964 4.964 0 11-7.437-1.861z" stroke="#000" stroke-linecap="round" stroke-linejoin="round" stroke-width="2" fill="#fff"></path></g><g><path d="M206.19 92.119A42.146 42.146 0 00178.921 63a47.438 47.438 0 0119.83 30.98 4.964 4.964 0 107.437-1.861z" fill="#fff"></path><path d="M206.19 92.119A42.146 42.146 0 00178.921 63a47.438 47.438 0 0119.83 30.98 4.964 4.964 0 107.437-1.861z" stroke="#000" stroke-linecap="round" stroke-linejoin="round" stroke-width="2" fill="#fff"></path></g><g><ellipse cx="208.828" cy="101.179" rx="21.071" ry="11.568" fill="#fff"></ellipse><ellipse rx="21.071" stroke="#000" fill="#fff" stroke-linejoin="round" stroke-linecap="round" stroke-width="2" cx="208.828" cy="101.179" ry="11.568"></ellipse></g><g><path d="M215.777 101.18c-.08-4.202 1.57-8.13 4.31-10.26 2.74-2.132 6.137-2.132 8.877 0 2.739 2.13 4.389 6.058 4.309 10.26.08 4.2-1.57 8.128-4.31 10.26-2.739 2.13-6.137 2.13-8.876 0-2.74-2.132-4.39-6.06-4.31-10.26z" fill="#fff"></path><path d="M215.777 101.18c-.08-4.202 1.57-8.13 4.31-10.26 2.74-2.132 6.137-2.132 8.877 0 2.739 2.13 4.389 6.058 4.309 10.26.08 4.2-1.57 8.128-4.31 10.26-2.739 2.13-6.137 2.13-8.876 0-2.74-2.132-4.39-6.06-4.31-10.26z" stroke="#000" stroke-linecap="round" stroke-linejoin="round" stroke-width="2" fill="#000"></path></g><g><path d="M184.378 101.18c-.08-4.202 1.57-8.13 4.31-10.26 2.739-2.132 6.137-2.132 8.876 0 2.74 2.13 4.39 6.058 4.31 10.26.08 4.2-1.57 8.128-4.31 10.26-2.74 2.13-6.137 2.13-8.877 0-2.739-2.132-4.389-6.06-4.309-10.26z" fill="#fff"></path><path d="M184.378 101.18c-.08-4.202 1.57-8.13 4.31-10.26 2.739-2.132 6.137-2.132 8.876 0 2.74 2.13 4.39 6.058 4.31 10.26.08 4.2-1.57 8.128-4.31 10.26-2.74 2.13-6.137 2.13-8.877 0-2.739-2.132-4.389-6.06-4.309-10.26z" stroke="#000" stroke-linecap="round" stroke-linejoin="round" stroke-width="2" fill="#000"></path></g><g><path d="M218.166 141.389a8.458 8.458 0 010-14.874L334.057 89.95a58.852 58.852 0 0135.939 1.862 12.187 12.187 0 017.436 19.214 105.551 105.551 0 01-28.502 22.927 34.748 34.748 0 01-18.597 4.958l-69.409 3.096z" fill="#fff"></path><path d="M218.166 141.389a8.458 8.458 0 010-14.874L334.057 89.95a58.852 58.852 0 0135.939 1.862 12.187 12.187 0 017.436 19.214 105.551 105.551 0 01-28.502 22.927 34.748 34.748 0 01-18.597 4.958l-69.409 3.096z" stroke="#000" stroke-linecap="round" stroke-linejoin="round" stroke-width="2"></path></g><g><path d="M217.546 142.004l112.796-3.096a5.943 5.943 0 012.479 9.299 63.088 63.088 0 01-61.047 18.586 493.82 493.82 0 00-52.983-15.49 5.109 5.109 0 01-1.245-9.3z" fill="#fff"></path><path d="M217.546 142.004l112.796-3.096a5.943 5.943 0 012.479 9.299 63.088 63.088 0 01-61.047 18.586 493.82 493.82 0 00-52.983-15.49 5.109 5.109 0 01-1.245-9.3z" stroke="#000" stroke-linecap="round" stroke-linejoin="round" stroke-width="2"></path></g><g><path d="M236.138 129.611l41.525-11.766a8.463 8.463 0 003.095-10.544 8.02 8.02 0 01-3.095 10.544 21.175 21.175 0 0024.16-9.916 15.604 15.604 0 0111.161-4.958 14.858 14.858 0 00-2.633-3.724 41.067 41.067 0 012.633 3.724 182.063 182.063 0 0039.663-.32 33.355 33.355 0 0018.277-8.978 124.86 124.86 0 00-44.311 4.649" fill="#fff"></path><path d="M236.138 129.611l41.525-11.766a8.463 8.463 0 003.095-10.544 8.02 8.02 0 01-3.095 10.544 21.175 21.175 0 0024.16-9.916 15.604 15.604 0 0111.161-4.958 14.858 14.858 0 00-2.633-3.724 41.067 41.067 0 012.633 3.724 182.063 182.063 0 0039.663-.32 33.355 33.355 0 0018.277-8.978 124.86 124.86 0 00-44.311 4.649" stroke="#000" stroke-linecap="round" stroke-linejoin="round" stroke-width="1"></path></g><g><path d="M242.955 133.024l20.911-4.65a8.336 8.336 0 018.22 2.48 7.309 7.309 0 01-4.188 5.728 7.986 7.986 0 004.187-5.729 24.011 24.011 0 005.575-12.703 22.324 22.324 0 01-3.559 10.225 51.62 51.62 0 0133.614 4.032 9.651 9.651 0 00.309 6.5 12.289 12.289 0 01-.309-6.654 33.123 33.123 0 0127.268-5.432 35.772 35.772 0 0025.097-.463 27.641 27.641 0 00-12.394-9.607 57.739 57.739 0 00-15.182-2.324 13.205 13.205 0 00-7.437 7.756 28.282 28.282 0 00-13.011-9.916l-13.011-.32a290.85 290.85 0 0026.794-.308 7.069 7.069 0 007.282-7.59l.309 7.59 16.735.309a13.87 13.87 0 01-4.65-8.671 11.12 11.12 0 004.496 8.362 7.644 7.644 0 007.128 2.016l6.511-.925-3.107-11.932 8.528-4.958a9.632 9.632 0 01-.617 16.262" fill="#fff"></path><path d="M242.955 133.024l20.911-4.65a8.336 8.336 0 018.22 2.48 7.309 7.309 0 01-4.188 5.728 7.986 7.986 0 004.187-5.729 24.011 24.011 0 005.575-12.703 22.324 22.324 0 01-3.559 10.225 51.62 51.62 0 0133.614 4.032 9.651 9.651 0 00.309 6.5 12.289 12.289 0 01-.309-6.654 33.123 33.123 0 0127.268-5.432 35.772 35.772 0 0025.097-.463 27.641 27.641 0 00-12.394-9.607 16.45 16.45 0 000 0 57.739 57.739 0 00-15.182-2.324 13.205 13.205 0 00-7.437 7.756 28.282 28.282 0 00-13.011-9.916l-13.011-.32a290.85 290.85 0 0026.794-.308 7.069 7.069 0 007.282-7.59l.309 7.59 16.735.309a13.87 13.87 0 01-4.65-8.671 11.12 11.12 0 004.496 8.362 7.644 7.644 0 007.128 2.016l6.511-.925-3.107-11.932 8.528-4.958a9.632 9.632 0 01-.617 16.262" stroke="#000" stroke-linecap="round" stroke-linejoin="round" stroke-width="1"></path></g><g><path d="M325.684 144.487c-6.455 9.637-19.076 12.958-29.438 7.746a11.942 11.942 0 00-12.383 4.649 20.247 20.247 0 0113.011 10.532 23.442 23.442 0 00-13.022-10.532l-18.587-4.958a1085.56 1085.56 0 01-34.704-9.607l34.396 9.916a3.397 3.397 0 01-2.17 5.266l-28.513-9.916 28.512 9.916a31.243 31.243 0 0022.31 2.479" fill="#fff"></path><path d="M325.684 144.487c-6.455 9.637-19.076 12.958-29.438 7.746a43.301 43.301 0 010 0 11.942 11.942 0 00-12.383 4.649 20.247 20.247 0 0113.011 10.532 23.442 23.442 0 00-13.022-10.532l-18.587-4.958a1085.56 1085.56 0 01-34.704-9.607l34.396 9.916a3.397 3.397 0 01-2.17 5.266l-28.513-9.916 28.512 9.916a31.243 31.243 0 0022.31 2.479" stroke="#000" stroke-linecap="round" stroke-linejoin="round" stroke-width="1"></path></g><g><path d="M199.49 141.389a8.458 8.458 0 000-14.874L83.6 89.95a58.852 58.852 0 00-35.94 1.862 12.187 12.187 0 00-7.436 19.214 105.551 105.551 0 0028.502 22.927 34.748 34.748 0 0018.597 4.958l69.41 3.096z" fill="#fff"></path><path d="M199.49 141.389a8.458 8.458 0 000-14.874L83.6 89.95a58.852 58.852 0 00-35.94 1.862 12.187 12.187 0 00-7.436 19.214 105.551 105.551 0 0028.502 22.927 34.748 34.748 0 0018.597 4.958l69.41 3.096z" stroke="#000" stroke-linecap="round" stroke-linejoin="round" stroke-width="2"></path></g><g><path d="M200.11 142.004l-112.796-3.096a5.943 5.943 0 00-2.478 9.299 63.088 63.088 0 0061.047 18.586 493.82 493.82 0 0152.982-15.49 5.109 5.109 0 001.245-9.3z" fill="#fff"></path><path d="M200.11 142.004l-112.796-3.096a5.943 5.943 0 00-2.478 9.299 63.088 63.088 0 0061.047 18.586 493.82 493.82 0 0152.982-15.49 5.109 5.109 0 001.245-9.3z" stroke="#000" stroke-linecap="round" stroke-linejoin="round" stroke-width="2"></path></g><g><path d="M181.518 129.611l-41.524-11.766a8.463 8.463 0 01-3.096-10.544 8.02 8.02 0 003.096 10.544 21.175 21.175 0 01-24.161-9.916 15.604 15.604 0 00-11.16-4.958 14.858 14.858 0 012.632-3.724 41.07 41.07 0 00-2.633 3.724 182.063 182.063 0 01-39.662-.32 33.355 33.355 0 01-18.278-8.978 124.86 124.86 0 0144.312 4.649" fill="#fff"></path><path d="M181.518 129.611l-41.524-11.766a8.463 8.463 0 01-3.096-10.544 8.02 8.02 0 003.096 10.544 21.175 21.175 0 01-24.161-9.916 15.604 15.604 0 00-11.16-4.958 14.858 14.858 0 012.632-3.724 41.07 41.07 0 00-2.633 3.724 182.063 182.063 0 01-39.662-.32 33.355 33.355 0 01-18.278-8.978 124.86 124.86 0 0144.312 4.649" stroke="#000" stroke-linecap="round" stroke-linejoin="round" stroke-width="1"></path></g><g><path d="M174.701 133.024l-20.91-4.65a8.336 8.336 0 00-8.22 2.48 7.309 7.309 0 004.187 5.728 7.986 7.986 0 01-4.187-5.729 24.011 24.011 0 01-5.575-12.703 22.324 22.324 0 003.559 10.225 51.619 51.619 0 00-33.614 4.032 9.651 9.651 0 01-.308 6.5c.713-2.147.82-4.45.308-6.654a33.123 33.123 0 00-27.268-5.432 35.772 35.772 0 01-25.097-.463 27.642 27.642 0 0112.394-9.607 57.739 57.739 0 0115.182-2.324 13.205 13.205 0 017.437 7.756 28.282 28.282 0 0113.011-9.916l13.012-.32a290.85 290.85 0 01-26.794-.308 7.069 7.069 0 01-7.283-7.59l-.308 7.59-16.736.309a13.87 13.87 0 004.65-8.671 11.12 11.12 0 01-4.495 8.362 7.644 7.644 0 01-7.129 2.016l-6.51-.925 3.106-11.932-8.527-4.958a9.632 9.632 0 00.617 16.262" fill="#fff"></path><path d="M174.701 133.024l-20.91-4.65a8.336 8.336 0 00-8.22 2.48 7.309 7.309 0 004.187 5.728 7.986 7.986 0 01-4.187-5.729 24.011 24.011 0 01-5.575-12.703 22.324 22.324 0 003.559 10.225 51.619 51.619 0 00-33.614 4.032 9.651 9.651 0 01-.308 6.5c.713-2.147.82-4.45.308-6.654a33.123 33.123 0 00-27.268-5.432 35.772 35.772 0 01-25.097-.463 27.642 27.642 0 0112.394-9.607 16.45 16.45 0 010 0 57.739 57.739 0 0115.182-2.324 13.205 13.205 0 017.437 7.756 28.282 28.282 0 0113.011-9.916l13.012-.32a290.85 290.85 0 01-26.794-.308 7.069 7.069 0 01-7.283-7.59l-.308 7.59-16.736.309a13.87 13.87 0 004.65-8.671 11.12 11.12 0 01-4.495 8.362 7.644 7.644 0 01-7.129 2.016l-6.51-.925 3.106-11.932-8.527-4.958a9.632 9.632 0 00.617 16.262" stroke="#000" stroke-linecap="round" stroke-linejoin="round" stroke-width="1"></path></g><g><path d="M91.972 144.487c6.455 9.637 19.076 12.958 29.438 7.746a11.942 11.942 0 0112.384 4.649 20.247 20.247 0 00-13.012 10.532 23.442 23.442 0 0113.023-10.532l18.586-4.958c11.62-3.01 23.19-6.213 34.704-9.607l-34.396 9.916a3.397 3.397 0 002.17 5.266l28.514-9.916-28.513 9.916a31.243 31.243 0 01-22.31 2.479" fill="#fff"></path><path d="M91.972 144.487c6.455 9.637 19.076 12.958 29.438 7.746a43.301 43.301 0 000 0 11.942 11.942 0 0112.384 4.649 20.247 20.247 0 00-13.012 10.532 23.442 23.442 0 0113.023-10.532l18.586-4.958c11.62-3.01 23.19-6.213 34.704-9.607l-34.396 9.916a3.397 3.397 0 002.17 5.266l28.514-9.916-28.513 9.916a31.243 31.243 0 01-22.31 2.479" stroke="#000" stroke-linecap="round" stroke-linejoin="round" stroke-width="1"></path></g></g></g></g></mask><mask id="mask_12"><g stroke="none" transform="translate(-36,-62)" fill="#fff" stroke-width="0"><defs><clippath id="unique-a_15"><path d="M36 62h345v236H36z"></path></clippath></defs><g stroke-opacity="1" fill-opacity="1" stroke="none" stroke-dasharray="none" fill="none"><g><path d="M220.138 167.082c29.312 10.448 47.55 39.728 44.003 70.643a43.121 43.121 0 0023.544 41.525 17.41 17.41 0 01-12.394-4.958 21.124 21.124 0 012.479 15.49 60.783 60.783 0 00-21.065-30.363 35.33 35.33 0 011.233-22.31 50.645 50.645 0 01-9.298-34.705 48.056 48.056 0 01-28.502-35.322z" fill="#fff"></path><path d="M220.138 167.082c29.312 10.448 47.55 39.728 44.003 70.643a43.121 43.121 0 0023.544 41.525 17.41 17.41 0 01-12.394-4.958 21.124 21.124 0 012.479 15.49 60.783 60.783 0 00-21.065-30.363 35.33 35.33 0 011.233-22.31 50.645 50.645 0 01-9.298-34.705 48.056 48.056 0 01-28.502-35.322z" stroke="#fff" stroke-linecap="round" stroke-linejoin="round" stroke-width="2" fill="#fff"></path><path d="M197.518 167.082c-29.312 10.448-47.55 39.728-44.003 70.643a43.121 43.121 0 01-23.544 41.525 17.41 17.41 0 0012.394-4.958 21.124 21.124 0 00-2.479 15.49 60.783 60.783 0 0121.066-30.363 35.33 35.33 0 00-1.234-22.31 50.645 50.645 0 009.298-34.705 48.056 48.056 0 0028.502-35.322z" fill="#fff"></path><path d="M197.518 167.082c-29.312 10.448-47.55 39.728-44.003 70.643a43.121 43.121 0 01-23.544 41.525 17.41 17.41 0 0012.394-4.958 21.124 21.124 0 00-2.479 15.49 60.783 60.783 0 0121.066-30.363 35.33 35.33 0 00-1.234-22.31 50.645 50.645 0 009.298-34.705 48.056 48.056 0 0028.502-35.322z" stroke="#fff" stroke-linecap="round" stroke-linejoin="round" stroke-width="2" fill="#fff"></path><path d="M232.684 118.125a173.864 173.864 0 0134.087-40.908 10.449 10.449 0 004.958-13.628 9.616 9.616 0 01.617 12.394l11.16-4.957a161.017 161.017 0 00-48.343 53.907 4.635 4.635 0 11-2.48-6.808z" fill="#fff"></path><path d="M232.684 118.125a173.864 173.864 0 0134.087-40.908 10.449 10.449 0 004.958-13.628 9.616 9.616 0 01.617 12.394l11.16-4.957a161.017 161.017 0 00-48.343 53.907 4.635 4.635 0 11-2.48-6.808z" stroke="#fff" stroke-linecap="round" stroke-linejoin="round" stroke-width="2" fill="#fff"></path><path d="M184.973 118.125a173.863 173.863 0 00-34.088-40.908 10.449 10.449 0 01-4.958-13.628 9.616 9.616 0 00-.617 12.394l-11.16-4.957a161.017 161.017 0 0148.344 53.907 4.635 4.635 0 102.479-6.808z" fill="#fff"></path><path d="M184.973 118.125a173.863 173.863 0 00-34.088-40.908 10.449 10.449 0 01-4.958-13.628 9.616 9.616 0 00-.617 12.394l-11.16-4.957a161.017 161.017 0 0148.344 53.907 4.635 4.635 0 102.479-6.808z" stroke="#fff" stroke-linecap="round" stroke-linejoin="round" stroke-width="2" fill="#fff"></path><path d="M233.93 145.388c13.048 22.876 29.066 43.266 47.717 60.738 5.642 3.905 7.38 12.118 3.933 18.586 3.987-4.73 4.313-11.961.771-17.11l13.882 6.853c-26.116-20.259-47.731-46.844-63.206-77.738-.352-4.882-3.695-8.833-8.066-9.534-4.37-.7-8.617 2.033-10.247 6.598-1.63 4.564-.212 9.754 3.42 12.525 3.632 2.77 8.52 2.39 11.797-.918z" fill="#fff"></path><path d="M233.93 145.388c13.048 22.876 29.066 43.266 47.717 60.738 5.642 3.905 7.38 12.118 3.933 18.586 3.987-4.73 4.313-11.961.771-17.11l13.882 6.853c-26.116-20.259-47.731-46.844-63.206-77.738-.352-4.882-3.695-8.833-8.066-9.534-4.37-.7-8.617 2.033-10.247 6.598-1.63 4.564-.212 9.754 3.42 12.525 3.632 2.77 8.52 2.39 11.797-.918z" stroke="#fff" stroke-linecap="round" stroke-linejoin="round" stroke-width="2" fill="#fff"></path><path d="M183.725 145.388c-13.047 22.876-29.065 43.266-47.716 60.738-5.642 3.905-7.38 12.118-3.933 18.586-3.987-4.73-4.313-11.961-.771-17.11l-13.882 6.853c26.116-20.259 47.731-46.844 63.207-77.738.352-4.882 3.694-8.833 8.065-9.534 4.37-.7 8.617 2.033 10.247 6.598 1.63 4.564.213 9.754-3.42 12.525-3.631 2.77-8.52 2.39-11.797-.918z" fill="#fff"></path><path d="M183.725 145.388c-13.047 22.876-29.065 43.266-47.716 60.738-5.642 3.905-7.38 12.118-3.933 18.586-3.987-4.73-4.313-11.961-.771-17.11l-13.882 6.853c26.116-20.259 47.731-46.844 63.207-77.738.352-4.882 3.694-8.833 8.065-9.534 4.37-.7 8.617 2.033 10.247 6.598 1.63 4.564.213 9.754-3.42 12.525-3.631 2.77-8.52 2.39-11.797-.918z" stroke="#fff" stroke-linecap="round" stroke-linejoin="round" stroke-width="2" fill="#fff"></path><path d="M175.362 226.186c0-34.097 14.983-61.739 33.466-61.739 18.482 0 33.465 27.642 33.465 61.74 0 25.632-8.585 48.598-21.572 57.708a54.373 54.373 0 00-11.888 12.394 46.264 46.264 0 00-12.141-12.57c-12.859-9.232-21.329-32.077-21.33-57.533z" fill="#fff"></path><path d="M175.362 226.186c0-34.097 14.983-61.739 33.466-61.739 18.482 0 33.465 27.642 33.465 61.74 0 25.632-8.585 48.598-21.572 57.708a54.373 54.373 0 00-11.888 12.394 46.264 46.264 0 00-12.141-12.57c-12.859-9.232-21.329-32.077-21.33-57.533z" stroke="#fff" stroke-linecap="round" stroke-linejoin="round" stroke-width="2" fill="#fff"></path><path d="M240.561 245.765c-19.54 11.036-43.93 11.036-63.47 0 1.627 8.98 4.353 17.149 7.965 23.875a75.731 75.731 0 0047.55 0c3.61-6.728 6.33-14.897 7.955-23.875z" fill="#fff"></path><path d="M240.561 245.765c-19.54 11.036-43.93 11.036-63.47 0 1.627 8.98 4.353 17.149 7.965 23.875a75.731 75.731 0 0047.55 0c3.61-6.728 6.33-14.897 7.955-23.875z" stroke="#fff" stroke-linecap="round" stroke-linejoin="round" stroke-width="2" fill="#fff"></path><path d="M176.255 212.033a112.031 112.031 0 00-.716 20.437c20.846 10.315 45.731 10.315 66.577 0a112.033 112.033 0 00-.716-20.437c-19.951 11.678-45.194 11.678-65.145 0z" fill="#fff"></path><path d="M176.255 212.033a112.031 112.031 0 00-.716 20.437c20.846 10.315 45.731 10.315 66.577 0a112.033 112.033 0 00-.716-20.437c-19.951 11.678-45.194 11.678-65.145 0z" stroke="#fff" stroke-linecap="round" stroke-linejoin="round" stroke-width="2" fill="#fff"></path><g><path d="M179.068 197.945c18.424 11.998 41.091 11.998 59.516 0-1.723-6.184-3.998-11.786-6.732-16.57-14.491 8.208-31.55 8.208-46.041 0-2.738 4.783-5.017 10.385-6.743 16.57z" fill="#fff"></path><path d="M179.068 197.945c18.424 11.998 41.091 11.998 59.516 0-1.723-6.184-3.998-11.786-6.732-16.57-14.491 8.208-31.55 8.208-46.041 0-2.738 4.783-5.017 10.385-6.743 16.57z" stroke="#fff" stroke-linecap="round" stroke-linejoin="round" stroke-width="2" fill="#fff"></path></g><g><path d="M178.462 137.639c.223-18.813 13.752-33.932 30.363-33.932 16.612 0 30.14 15.119 30.364 33.932.148 12.397-5.607 23.925-15.062 30.172-9.456 6.248-21.148 6.248-30.603 0-9.455-6.247-15.21-17.775-15.062-30.172z" fill="#fff"></path><path d="M178.462 137.639c.223-18.813 13.752-33.932 30.363-33.932 16.612 0 30.14 15.119 30.364 33.932.148 12.397-5.607 23.925-15.062 30.172-9.456 6.248-21.148 6.248-30.603 0-9.455-6.247-15.21-17.775-15.062-30.172z" stroke="#fff" stroke-linecap="round" stroke-linejoin="round" stroke-width="2"></path></g><g><path d="M211.467 92.119A42.146 42.146 0 01238.735 63a47.438 47.438 0 00-19.831 30.98 4.964 4.964 0 11-7.437-1.861z" fill="#fff"></path><path d="M211.467 92.119A42.146 42.146 0 01238.735 63a47.438 47.438 0 00-19.831 30.98 4.964 4.964 0 11-7.437-1.861z" stroke="#fff" stroke-linecap="round" stroke-linejoin="round" stroke-width="2" fill="#fff"></path></g><g><path d="M206.19 92.119A42.146 42.146 0 00178.921 63a47.438 47.438 0 0119.83 30.98 4.964 4.964 0 107.437-1.861z" fill="#fff"></path><path d="M206.19 92.119A42.146 42.146 0 00178.921 63a47.438 47.438 0 0119.83 30.98 4.964 4.964 0 107.437-1.861z" stroke="#fff" stroke-linecap="round" stroke-linejoin="round" stroke-width="2" fill="#fff"></path></g><g><ellipse cx="208.828" cy="101.179" rx="21.071" ry="11.568" fill="#fff"></ellipse><ellipse rx="21.071" stroke="#fff" fill="#fff" stroke-linejoin="round" stroke-linecap="round" stroke-width="2" cx="208.828" cy="101.179" ry="11.568"></ellipse></g><g><path d="M215.777 101.18c-.08-4.202 1.57-8.13 4.31-10.26 2.74-2.132 6.137-2.132 8.877 0 2.739 2.13 4.389 6.058 4.309 10.26.08 4.2-1.57 8.128-4.31 10.26-2.739 2.13-6.137 2.13-8.876 0-2.74-2.132-4.39-6.06-4.31-10.26z" fill="#fff"></path><path d="M215.777 101.18c-.08-4.202 1.57-8.13 4.31-10.26 2.74-2.132 6.137-2.132 8.877 0 2.739 2.13 4.389 6.058 4.309 10.26.08 4.2-1.57 8.128-4.31 10.26-2.739 2.13-6.137 2.13-8.876 0-2.74-2.132-4.39-6.06-4.31-10.26z" stroke="#fff" stroke-linecap="round" stroke-linejoin="round" stroke-width="2" fill="#fff"></path></g><g><path d="M184.378 101.18c-.08-4.202 1.57-8.13 4.31-10.26 2.739-2.132 6.137-2.132 8.876 0 2.74 2.13 4.39 6.058 4.31 10.26.08 4.2-1.57 8.128-4.31 10.26-2.74 2.13-6.137 2.13-8.877 0-2.739-2.132-4.389-6.06-4.309-10.26z" fill="#fff"></path><path d="M184.378 101.18c-.08-4.202 1.57-8.13 4.31-10.26 2.739-2.132 6.137-2.132 8.876 0 2.74 2.13 4.39 6.058 4.31 10.26.08 4.2-1.57 8.128-4.31 10.26-2.74 2.13-6.137 2.13-8.877 0-2.739-2.132-4.389-6.06-4.309-10.26z" stroke="#fff" stroke-linecap="round" stroke-linejoin="round" stroke-width="2" fill="#fff"></path></g><g><path d="M218.166 141.389a8.458 8.458 0 010-14.874L334.057 89.95a58.852 58.852 0 0135.939 1.862 12.187 12.187 0 017.436 19.214 105.551 105.551 0 01-28.502 22.927 34.748 34.748 0 01-18.597 4.958l-69.409 3.096z" fill="#fff"></path><path d="M218.166 141.389a8.458 8.458 0 010-14.874L334.057 89.95a58.852 58.852 0 0135.939 1.862 12.187 12.187 0 017.436 19.214 105.551 105.551 0 01-28.502 22.927 34.748 34.748 0 01-18.597 4.958l-69.409 3.096z" stroke="#fff" stroke-linecap="round" stroke-linejoin="round" stroke-width="2"></path></g><g><path d="M217.546 142.004l112.796-3.096a5.943 5.943 0 012.479 9.299 63.088 63.088 0 01-61.047 18.586 493.82 493.82 0 00-52.983-15.49 5.109 5.109 0 01-1.245-9.3z" fill="#fff"></path><path d="M217.546 142.004l112.796-3.096a5.943 5.943 0 012.479 9.299 63.088 63.088 0 01-61.047 18.586 493.82 493.82 0 00-52.983-15.49 5.109 5.109 0 01-1.245-9.3z" stroke="#fff" stroke-linecap="round" stroke-linejoin="round" stroke-width="2"></path></g><g><path d="M236.138 129.611l41.525-11.766a8.463 8.463 0 003.095-10.544 8.02 8.02 0 01-3.095 10.544 21.175 21.175 0 0024.16-9.916 15.604 15.604 0 0111.161-4.958 14.858 14.858 0 00-2.633-3.724 41.067 41.067 0 012.633 3.724 182.063 182.063 0 0039.663-.32 33.355 33.355 0 0018.277-8.978 124.86 124.86 0 00-44.311 4.649" fill="#fff"></path><path d="M236.138 129.611l41.525-11.766a8.463 8.463 0 003.095-10.544 8.02 8.02 0 01-3.095 10.544 21.175 21.175 0 0024.16-9.916 15.604 15.604 0 0111.161-4.958 14.858 14.858 0 00-2.633-3.724 41.067 41.067 0 012.633 3.724 182.063 182.063 0 0039.663-.32 33.355 33.355 0 0018.277-8.978 124.86 124.86 0 00-44.311 4.649" stroke="#fff" stroke-linecap="round" stroke-linejoin="round" stroke-width="1"></path></g><g><path d="M242.955 133.024l20.911-4.65a8.336 8.336 0 018.22 2.48 7.309 7.309 0 01-4.188 5.728 7.986 7.986 0 004.187-5.729 24.011 24.011 0 005.575-12.703 22.324 22.324 0 01-3.559 10.225 51.62 51.62 0 0133.614 4.032 9.651 9.651 0 00.309 6.5 12.289 12.289 0 01-.309-6.654 33.123 33.123 0 0127.268-5.432 35.772 35.772 0 0025.097-.463 27.641 27.641 0 00-12.394-9.607 57.739 57.739 0 00-15.182-2.324 13.205 13.205 0 00-7.437 7.756 28.282 28.282 0 00-13.011-9.916l-13.011-.32a290.85 290.85 0 0026.794-.308 7.069 7.069 0 007.282-7.59l.309 7.59 16.735.309a13.87 13.87 0 01-4.65-8.671 11.12 11.12 0 004.496 8.362 7.644 7.644 0 007.128 2.016l6.511-.925-3.107-11.932 8.528-4.958a9.632 9.632 0 01-.617 16.262" fill="#fff"></path><path d="M242.955 133.024l20.911-4.65a8.336 8.336 0 018.22 2.48 7.309 7.309 0 01-4.188 5.728 7.986 7.986 0 004.187-5.729 24.011 24.011 0 005.575-12.703 22.324 22.324 0 01-3.559 10.225 51.62 51.62 0 0133.614 4.032 9.651 9.651 0 00.309 6.5 12.289 12.289 0 01-.309-6.654 33.123 33.123 0 0127.268-5.432 35.772 35.772 0 0025.097-.463 27.641 27.641 0 00-12.394-9.607 16.45 16.45 0 000 0 57.739 57.739 0 00-15.182-2.324 13.205 13.205 0 00-7.437 7.756 28.282 28.282 0 00-13.011-9.916l-13.011-.32a290.85 290.85 0 0026.794-.308 7.069 7.069 0 007.282-7.59l.309 7.59 16.735.309a13.87 13.87 0 01-4.65-8.671 11.12 11.12 0 004.496 8.362 7.644 7.644 0 007.128 2.016l6.511-.925-3.107-11.932 8.528-4.958a9.632 9.632 0 01-.617 16.262" stroke="#fff" stroke-linecap="round" stroke-linejoin="round" stroke-width="1"></path></g><g><path d="M325.684 144.487c-6.455 9.637-19.076 12.958-29.438 7.746a11.942 11.942 0 00-12.383 4.649 20.247 20.247 0 0113.011 10.532 23.442 23.442 0 00-13.022-10.532l-18.587-4.958a1085.56 1085.56 0 01-34.704-9.607l34.396 9.916a3.397 3.397 0 01-2.17 5.266l-28.513-9.916 28.512 9.916a31.243 31.243 0 0022.31 2.479" fill="#fff"></path><path d="M325.684 144.487c-6.455 9.637-19.076 12.958-29.438 7.746a43.301 43.301 0 010 0 11.942 11.942 0 00-12.383 4.649 20.247 20.247 0 0113.011 10.532 23.442 23.442 0 00-13.022-10.532l-18.587-4.958a1085.56 1085.56 0 01-34.704-9.607l34.396 9.916a3.397 3.397 0 01-2.17 5.266l-28.513-9.916 28.512 9.916a31.243 31.243 0 0022.31 2.479" stroke="#fff" stroke-linecap="round" stroke-linejoin="round" stroke-width="1"></path></g><g><path d="M199.49 141.389a8.458 8.458 0 000-14.874L83.6 89.95a58.852 58.852 0 00-35.94 1.862 12.187 12.187 0 00-7.436 19.214 105.551 105.551 0 0028.502 22.927 34.748 34.748 0 0018.597 4.958l69.41 3.096z" fill="#fff"></path><path d="M199.49 141.389a8.458 8.458 0 000-14.874L83.6 89.95a58.852 58.852 0 00-35.94 1.862 12.187 12.187 0 00-7.436 19.214 105.551 105.551 0 0028.502 22.927 34.748 34.748 0 0018.597 4.958l69.41 3.096z" stroke="#fff" stroke-linecap="round" stroke-linejoin="round" stroke-width="2"></path></g><g><path d="M200.11 142.004l-112.796-3.096a5.943 5.943 0 00-2.478 9.299 63.088 63.088 0 0061.047 18.586 493.82 493.82 0 0152.982-15.49 5.109 5.109 0 001.245-9.3z" fill="#fff"></path><path d="M200.11 142.004l-112.796-3.096a5.943 5.943 0 00-2.478 9.299 63.088 63.088 0 0061.047 18.586 493.82 493.82 0 0152.982-15.49 5.109 5.109 0 001.245-9.3z" stroke="#fff" stroke-linecap="round" stroke-linejoin="round" stroke-width="2"></path></g><g><path d="M181.518 129.611l-41.524-11.766a8.463 8.463 0 01-3.096-10.544 8.02 8.02 0 003.096 10.544 21.175 21.175 0 01-24.161-9.916 15.604 15.604 0 00-11.16-4.958 14.858 14.858 0 012.632-3.724 41.07 41.07 0 00-2.633 3.724 182.063 182.063 0 01-39.662-.32 33.355 33.355 0 01-18.278-8.978 124.86 124.86 0 0144.312 4.649" fill="#fff"></path><path d="M181.518 129.611l-41.524-11.766a8.463 8.463 0 01-3.096-10.544 8.02 8.02 0 003.096 10.544 21.175 21.175 0 01-24.161-9.916 15.604 15.604 0 00-11.16-4.958 14.858 14.858 0 012.632-3.724 41.07 41.07 0 00-2.633 3.724 182.063 182.063 0 01-39.662-.32 33.355 33.355 0 01-18.278-8.978 124.86 124.86 0 0144.312 4.649" stroke="#fff" stroke-linecap="round" stroke-linejoin="round" stroke-width="1"></path></g><g><path d="M174.701 133.024l-20.91-4.65a8.336 8.336 0 00-8.22 2.48 7.309 7.309 0 004.187 5.728 7.986 7.986 0 01-4.187-5.729 24.011 24.011 0 01-5.575-12.703 22.324 22.324 0 003.559 10.225 51.619 51.619 0 00-33.614 4.032 9.651 9.651 0 01-.308 6.5c.713-2.147.82-4.45.308-6.654a33.123 33.123 0 00-27.268-5.432 35.772 35.772 0 01-25.097-.463 27.642 27.642 0 0112.394-9.607 57.739 57.739 0 0115.182-2.324 13.205 13.205 0 017.437 7.756 28.282 28.282 0 0113.011-9.916l13.012-.32a290.85 290.85 0 01-26.794-.308 7.069 7.069 0 01-7.283-7.59l-.308 7.59-16.736.309a13.87 13.87 0 004.65-8.671 11.12 11.12 0 01-4.495 8.362 7.644 7.644 0 01-7.129 2.016l-6.51-.925 3.106-11.932-8.527-4.958a9.632 9.632 0 00.617 16.262" fill="#fff"></path><path d="M174.701 133.024l-20.91-4.65a8.336 8.336 0 00-8.22 2.48 7.309 7.309 0 004.187 5.728 7.986 7.986 0 01-4.187-5.729 24.011 24.011 0 01-5.575-12.703 22.324 22.324 0 003.559 10.225 51.619 51.619 0 00-33.614 4.032 9.651 9.651 0 01-.308 6.5c.713-2.147.82-4.45.308-6.654a33.123 33.123 0 00-27.268-5.432 35.772 35.772 0 01-25.097-.463 27.642 27.642 0 0112.394-9.607 16.45 16.45 0 010 0 57.739 57.739 0 0115.182-2.324 13.205 13.205 0 017.437 7.756 28.282 28.282 0 0113.011-9.916l13.012-.32a290.85 290.85 0 01-26.794-.308 7.069 7.069 0 01-7.283-7.59l-.308 7.59-16.736.309a13.87 13.87 0 004.65-8.671 11.12 11.12 0 01-4.495 8.362 7.644 7.644 0 01-7.129 2.016l-6.51-.925 3.106-11.932-8.527-4.958a9.632 9.632 0 00.617 16.262" stroke="#fff" stroke-linecap="round" stroke-linejoin="round" stroke-width="1"></path></g><g><path d="M91.972 144.487c6.455 9.637 19.076 12.958 29.438 7.746a11.942 11.942 0 0112.384 4.649 20.247 20.247 0 00-13.012 10.532 23.442 23.442 0 0113.023-10.532l18.586-4.958c11.62-3.01 23.19-6.213 34.704-9.607l-34.396 9.916a3.397 3.397 0 002.17 5.266l28.514-9.916-28.513 9.916a31.243 31.243 0 01-22.31 2.479" fill="#fff"></path><path d="M91.972 144.487c6.455 9.637 19.076 12.958 29.438 7.746a43.301 43.301 0 000 0 11.942 11.942 0 0112.384 4.649 20.247 20.247 0 00-13.012 10.532 23.442 23.442 0 0113.023-10.532l18.586-4.958c11.62-3.01 23.19-6.213 34.704-9.607l-34.396 9.916a3.397 3.397 0 002.17 5.266l28.514-9.916-28.513 9.916a31.243 31.243 0 01-22.31 2.479" stroke="#fff" stroke-linecap="round" stroke-linejoin="round" stroke-width="1"></path></g></g></g></g></mask></defs><g transform="translate(50,59.967935)rotate(0)scale(0.14492753623188406,0.14492753623188406)translate(-172.5,-118)"><g></g><metadata xmlns:rdf="http://www.w3.org/1999/02/22-rdf-syntax-ns#" xmlns:cc="http://creativecommons.org/ns#" xmlns:dc="http://purl.org/dc/elements/1.1/"><rdf:RDF><rdf:Description dc:title="Bee" dc:creator="percival"></rdf:Description><cc:Work rdf:about="https://heraldicon.org/charges/3oMqot/2"><cc:license rdf:resource="https://creativecommons.org/licenses/by-nc-sa/4.0"></cc:license><cc:attributionName>Bee by percival</cc:attributionName><cc:attributionURL rdf:resource="https://heraldicon.org/users/percival"></cc:attributionURL></cc:Work><cc:License rdf:about="https://creativecommons.org/licenses/by-nc-sa/4.0"><cc:permits rdf:resource="http://creativecommons.org/ns#Reproduction"></cc:permits><cc:permits rdf:resource="http://creativecommons.org/ns#DerivativeWorks"></cc:permits><cc:permits rdf:resource="http://creativecommons.org/ns#Distribution"></cc:permits><cc:requires rdf:resource="http://creativecommons.org/ns#Notice"></cc:requires><cc:requires rdf:resource="http://creativecommons.org/ns#Attribution"></cc:requires><cc:requires rdf:resource="http://creativecommons.org/ns#ShareAlike"></cc:requires><cc:prohibits rdf:resource="http://creativecommons.org/ns#CommercialUse"></cc:prohibits></cc:License></rdf:RDF><rdf:RDF rdf:about="http://heraldicart.org/bee/#bee"><rdf:Description dc:title="Bees" dc:creator="Gunnvr Silfrahrr"></rdf:Description><cc:Work rdf:about="http://heraldicart.org/bee/#bee"><cc:license rdf:resource="https://creativecommons.org/licenses/by-nc-sa/3.0"></cc:license><cc:attributionName>Gunnvr Silfrahrr</cc:attributionName><cc:attributionURL rdf:resource="http://www.vikinganswerlady.com/Stars/Heraldry_SVG_Images/index.htm"></cc:attributionURL></cc:Work></rdf:RDF></metadata><g><g><g mask="url(#mask_12)"><rect transform="translate(172.5,118)scale(6.8999999999999995,6.8999999999999995)rotate(0)translate(-50,-59.967935)" x="-500" y="-500" width="1100" height="1100" fill="#333333"></rect></g><g mask="url(#mask_11)"><g transform="translate(172.5,118)scale(6.8999999999999995,6.8999999999999995)rotate(0)translate(-50,-59.967935)"><rect y="-1000" fill="#f2bc51" width="2000" x="-1000" height="2000"></rect><g></g></g></g><g mask="url(#mask_10)"><g stroke="none" transform="translate(-36,-62)" fill="#000000" stroke-width="0"><defs><clippath id="unique-a_16"><path d="M36 62h345v236H36z"></path></clippath></defs><g stroke-opacity="1" fill-opacity="1" stroke="none" stroke-dasharray="none" fill="none"><g><path d="M220.138 167.082c29.312 10.448 47.55 39.728 44.003 70.643a43.121 43.121 0 0023.544 41.525 17.41 17.41 0 01-12.394-4.958 21.124 21.124 0 012.479 15.49 60.783 60.783 0 00-21.065-30.363 35.33 35.33 0 011.233-22.31 50.645 50.645 0 01-9.298-34.705 48.056 48.056 0 01-28.502-35.322z" fill="#333333"></path><path d="M220.138 167.082c29.312 10.448 47.55 39.728 44.003 70.643a43.121 43.121 0 0023.544 41.525 17.41 17.41 0 01-12.394-4.958 21.124 21.124 0 012.479 15.49 60.783 60.783 0 00-21.065-30.363 35.33 35.33 0 011.233-22.31 50.645 50.645 0 01-9.298-34.705 48.056 48.056 0 01-28.502-35.322z" stroke="#000" stroke-linecap="round" stroke-linejoin="round" stroke-width="2" fill="#333333"></path><path d="M197.518 167.082c-29.312 10.448-47.55 39.728-44.003 70.643a43.121 43.121 0 01-23.544 41.525 17.41 17.41 0 0012.394-4.958 21.124 21.124 0 00-2.479 15.49 60.783 60.783 0 0121.066-30.363 35.33 35.33 0 00-1.234-22.31 50.645 50.645 0 009.298-34.705 48.056 48.056 0 0028.502-35.322z" fill="#333333"></path><path d="M197.518 167.082c-29.312 10.448-47.55 39.728-44.003 70.643a43.121 43.121 0 01-23.544 41.525 17.41 17.41 0 0012.394-4.958 21.124 21.124 0 00-2.479 15.49 60.783 60.783 0 0121.066-30.363 35.33 35.33 0 00-1.234-22.31 50.645 50.645 0 009.298-34.705 48.056 48.056 0 0028.502-35.322z" stroke="#000" stroke-linecap="round" stroke-linejoin="round" stroke-width="2" fill="#333333"></path><path d="M232.684 118.125a173.864 173.864 0 0134.087-40.908 10.449 10.449 0 004.958-13.628 9.616 9.616 0 01.617 12.394l11.16-4.957a161.017 161.017 0 00-48.343 53.907 4.635 4.635 0 11-2.48-6.808z" fill="#333333"></path><path d="M232.684 118.125a173.864 173.864 0 0134.087-40.908 10.449 10.449 0 004.958-13.628 9.616 9.616 0 01.617 12.394l11.16-4.957a161.017 161.017 0 00-48.343 53.907 4.635 4.635 0 11-2.48-6.808z" stroke="#000" stroke-linecap="round" stroke-linejoin="round" stroke-width="2" fill="#333333"></path><path d="M184.973 118.125a173.863 173.863 0 00-34.088-40.908 10.449 10.449 0 01-4.958-13.628 9.616 9.616 0 00-.617 12.394l-11.16-4.957a161.017 161.017 0 0148.344 53.907 4.635 4.635 0 102.479-6.808z" fill="#333333"></path><path d="M184.973 118.125a173.863 173.863 0 00-34.088-40.908 10.449 10.449 0 01-4.958-13.628 9.616 9.616 0 00-.617 12.394l-11.16-4.957a161.017 161.017 0 0148.344 53.907 4.635 4.635 0 102.479-6.808z" stroke="#000" stroke-linecap="round" stroke-linejoin="round" stroke-width="2" fill="#333333"></path><path d="M233.93 145.388c13.048 22.876 29.066 43.266 47.717 60.738 5.642 3.905 7.38 12.118 3.933 18.586 3.987-4.73 4.313-11.961.771-17.11l13.882 6.853c-26.116-20.259-47.731-46.844-63.206-77.738-.352-4.882-3.695-8.833-8.066-9.534-4.37-.7-8.617 2.033-10.247 6.598-1.63 4.564-.212 9.754 3.42 12.525 3.632 2.77 8.52 2.39 11.797-.918z" fill="#333333"></path><path d="M233.93 145.388c13.048 22.876 29.066 43.266 47.717 60.738 5.642 3.905 7.38 12.118 3.933 18.586 3.987-4.73 4.313-11.961.771-17.11l13.882 6.853c-26.116-20.259-47.731-46.844-63.206-77.738-.352-4.882-3.695-8.833-8.066-9.534-4.37-.7-8.617 2.033-10.247 6.598-1.63 4.564-.212 9.754 3.42 12.525 3.632 2.77 8.52 2.39 11.797-.918z" stroke="#000" stroke-linecap="round" stroke-linejoin="round" stroke-width="2" fill="#333333"></path><path d="M183.725 145.388c-13.047 22.876-29.065 43.266-47.716 60.738-5.642 3.905-7.38 12.118-3.933 18.586-3.987-4.73-4.313-11.961-.771-17.11l-13.882 6.853c26.116-20.259 47.731-46.844 63.207-77.738.352-4.882 3.694-8.833 8.065-9.534 4.37-.7 8.617 2.033 10.247 6.598 1.63 4.564.213 9.754-3.42 12.525-3.631 2.77-8.52 2.39-11.797-.918z" fill="#333333"></path><path d="M183.725 145.388c-13.047 22.876-29.065 43.266-47.716 60.738-5.642 3.905-7.38 12.118-3.933 18.586-3.987-4.73-4.313-11.961-.771-17.11l-13.882 6.853c26.116-20.259 47.731-46.844 63.207-77.738.352-4.882 3.694-8.833 8.065-9.534 4.37-.7 8.617 2.033 10.247 6.598 1.63 4.564.213 9.754-3.42 12.525-3.631 2.77-8.52 2.39-11.797-.918z" stroke="#000" stroke-linecap="round" stroke-linejoin="round" stroke-width="2" fill="#333333"></path><path d="M175.362 226.186c0-34.097 14.983-61.739 33.466-61.739 18.482 0 33.465 27.642 33.465 61.74 0 25.632-8.585 48.598-21.572 57.708a54.373 54.373 0 00-11.888 12.394 46.264 46.264 0 00-12.141-12.57c-12.859-9.232-21.329-32.077-21.33-57.533z" fill="#333333"></path><path d="M175.362 226.186c0-34.097 14.983-61.739 33.466-61.739 18.482 0 33.465 27.642 33.465 61.74 0 25.632-8.585 48.598-21.572 57.708a54.373 54.373 0 00-11.888 12.394 46.264 46.264 0 00-12.141-12.57c-12.859-9.232-21.329-32.077-21.33-57.533z" stroke="#000" stroke-linecap="round" stroke-linejoin="round" stroke-width="2" fill="#333333"></path><path d="M240.561 245.765c-19.54 11.036-43.93 11.036-63.47 0 1.627 8.98 4.353 17.149 7.965 23.875a75.731 75.731 0 0047.55 0c3.61-6.728 6.33-14.897 7.955-23.875z" fill="#333333"></path><path d="M240.561 245.765c-19.54 11.036-43.93 11.036-63.47 0 1.627 8.98 4.353 17.149 7.965 23.875a75.731 75.731 0 0047.55 0c3.61-6.728 6.33-14.897 7.955-23.875z" stroke="#000" stroke-linecap="round" stroke-linejoin="round" stroke-width="2" fill="#333333"></path><path d="M176.255 212.033a112.031 112.031 0 00-.716 20.437c20.846 10.315 45.731 10.315 66.577 0a112.033 112.033 0 00-.716-20.437c-19.951 11.678-45.194 11.678-65.145 0z" fill="#333333"></path><path d="M176.255 212.033a112.031 112.031 0 00-.716 20.437c20.846 10.315 45.731 10.315 66.577 0a112.033 112.033 0 00-.716-20.437c-19.951 11.678-45.194 11.678-65.145 0z" stroke="#000" stroke-linecap="round" stroke-linejoin="round" stroke-width="2" fill="#333333"></path><g><path d="M179.068 197.945c18.424 11.998 41.091 11.998 59.516 0-1.723-6.184-3.998-11.786-6.732-16.57-14.491 8.208-31.55 8.208-46.041 0-2.738 4.783-5.017 10.385-6.743 16.57z" fill="#333333"></path><path d="M179.068 197.945c18.424 11.998 41.091 11.998 59.516 0-1.723-6.184-3.998-11.786-6.732-16.57-14.491 8.208-31.55 8.208-46.041 0-2.738 4.783-5.017 10.385-6.743 16.57z" stroke="#000" stroke-linecap="round" stroke-linejoin="round" stroke-width="2" fill="#333333"></path></g><g><path d="M178.462 137.639c.223-18.813 13.752-33.932 30.363-33.932 16.612 0 30.14 15.119 30.364 33.932.148 12.397-5.607 23.925-15.062 30.172-9.456 6.248-21.148 6.248-30.603 0-9.455-6.247-15.21-17.775-15.062-30.172z" fill="#333333"></path><path d="M178.462 137.639c.223-18.813 13.752-33.932 30.363-33.932 16.612 0 30.14 15.119 30.364 33.932.148 12.397-5.607 23.925-15.062 30.172-9.456 6.248-21.148 6.248-30.603 0-9.455-6.247-15.21-17.775-15.062-30.172z" stroke="#000" stroke-linecap="round" stroke-linejoin="round" stroke-width="2"></path></g><g><path d="M211.467 92.119A42.146 42.146 0 01238.735 63a47.438 47.438 0 00-19.831 30.98 4.964 4.964 0 11-7.437-1.861z" fill="#333333"></path><path d="M211.467 92.119A42.146 42.146 0 01238.735 63a47.438 47.438 0 00-19.831 30.98 4.964 4.964 0 11-7.437-1.861z" stroke="#000" stroke-linecap="round" stroke-linejoin="round" stroke-width="2" fill="#333333"></path></g><g><path d="M206.19 92.119A42.146 42.146 0 00178.921 63a47.438 47.438 0 0119.83 30.98 4.964 4.964 0 107.437-1.861z" fill="#333333"></path><path d="M206.19 92.119A42.146 42.146 0 00178.921 63a47.438 47.438 0 0119.83 30.98 4.964 4.964 0 107.437-1.861z" stroke="#000" stroke-linecap="round" stroke-linejoin="round" stroke-width="2" fill="#333333"></path></g><g><ellipse cx="208.828" cy="101.179" rx="21.071" ry="11.568" fill="#333333"></ellipse><ellipse rx="21.071" stroke="#000" fill="#333333" stroke-linejoin="round" stroke-linecap="round" stroke-width="2" cx="208.828" cy="101.179" ry="11.568"></ellipse></g><g><path d="M215.777 101.18c-.08-4.202 1.57-8.13 4.31-10.26 2.74-2.132 6.137-2.132 8.877 0 2.739 2.13 4.389 6.058 4.309 10.26.08 4.2-1.57 8.128-4.31 10.26-2.739 2.13-6.137 2.13-8.876 0-2.74-2.132-4.39-6.06-4.31-10.26z" fill="#333333"></path><path d="M215.777 101.18c-.08-4.202 1.57-8.13 4.31-10.26 2.74-2.132 6.137-2.132 8.877 0 2.739 2.13 4.389 6.058 4.309 10.26.08 4.2-1.57 8.128-4.31 10.26-2.739 2.13-6.137 2.13-8.876 0-2.74-2.132-4.39-6.06-4.31-10.26z" stroke="#000" stroke-linecap="round" stroke-linejoin="round" stroke-width="2" fill="#f6f6f6"></path></g><g><path d="M184.378 101.18c-.08-4.202 1.57-8.13 4.31-10.26 2.739-2.132 6.137-2.132 8.876 0 2.74 2.13 4.39 6.058 4.31 10.26.08 4.2-1.57 8.128-4.31 10.26-2.74 2.13-6.137 2.13-8.877 0-2.739-2.132-4.389-6.06-4.309-10.26z" fill="#333333"></path><path d="M184.378 101.18c-.08-4.202 1.57-8.13 4.31-10.26 2.739-2.132 6.137-2.132 8.876 0 2.74 2.13 4.39 6.058 4.31 10.26.08 4.2-1.57 8.128-4.31 10.26-2.74 2.13-6.137 2.13-8.877 0-2.739-2.132-4.389-6.06-4.309-10.26z" stroke="#000" stroke-linecap="round" stroke-linejoin="round" stroke-width="2" fill="#f6f6f6"></path></g><g><path d="M218.166 141.389a8.458 8.458 0 010-14.874L334.057 89.95a58.852 58.852 0 0135.939 1.862 12.187 12.187 0 017.436 19.214 105.551 105.551 0 01-28.502 22.927 34.748 34.748 0 01-18.597 4.958l-69.409 3.096z" fill="#333333"></path><path d="M218.166 141.389a8.458 8.458 0 010-14.874L334.057 89.95a58.852 58.852 0 0135.939 1.862 12.187 12.187 0 017.436 19.214 105.551 105.551 0 01-28.502 22.927 34.748 34.748 0 01-18.597 4.958l-69.409 3.096z" stroke="#000" stroke-linecap="round" stroke-linejoin="round" stroke-width="2"></path></g><g><path d="M217.546 142.004l112.796-3.096a5.943 5.943 0 012.479 9.299 63.088 63.088 0 01-61.047 18.586 493.82 493.82 0 00-52.983-15.49 5.109 5.109 0 01-1.245-9.3z" fill="#333333"></path><path d="M217.546 142.004l112.796-3.096a5.943 5.943 0 012.479 9.299 63.088 63.088 0 01-61.047 18.586 493.82 493.82 0 00-52.983-15.49 5.109 5.109 0 01-1.245-9.3z" stroke="#000" stroke-linecap="round" stroke-linejoin="round" stroke-width="2"></path></g><g><path d="M236.138 129.611l41.525-11.766a8.463 8.463 0 003.095-10.544 8.02 8.02 0 01-3.095 10.544 21.175 21.175 0 0024.16-9.916 15.604 15.604 0 0111.161-4.958 14.858 14.858 0 00-2.633-3.724 41.067 41.067 0 012.633 3.724 182.063 182.063 0 0039.663-.32 33.355 33.355 0 0018.277-8.978 124.86 124.86 0 00-44.311 4.649" fill="#333333"></path><path d="M236.138 129.611l41.525-11.766a8.463 8.463 0 003.095-10.544 8.02 8.02 0 01-3.095 10.544 21.175 21.175 0 0024.16-9.916 15.604 15.604 0 0111.161-4.958 14.858 14.858 0 00-2.633-3.724 41.067 41.067 0 012.633 3.724 182.063 182.063 0 0039.663-.32 33.355 33.355 0 0018.277-8.978 124.86 124.86 0 00-44.311 4.649" stroke="#000" stroke-linecap="round" stroke-linejoin="round" stroke-width="1"></path></g><g><path d="M242.955 133.024l20.911-4.65a8.336 8.336 0 018.22 2.48 7.309 7.309 0 01-4.188 5.728 7.986 7.986 0 004.187-5.729 24.011 24.011 0 005.575-12.703 22.324 22.324 0 01-3.559 10.225 51.62 51.62 0 0133.614 4.032 9.651 9.651 0 00.309 6.5 12.289 12.289 0 01-.309-6.654 33.123 33.123 0 0127.268-5.432 35.772 35.772 0 0025.097-.463 27.641 27.641 0 00-12.394-9.607 57.739 57.739 0 00-15.182-2.324 13.205 13.205 0 00-7.437 7.756 28.282 28.282 0 00-13.011-9.916l-13.011-.32a290.85 290.85 0 0026.794-.308 7.069 7.069 0 007.282-7.59l.309 7.59 16.735.309a13.87 13.87 0 01-4.65-8.671 11.12 11.12 0 004.496 8.362 7.644 7.644 0 007.128 2.016l6.511-.925-3.107-11.932 8.528-4.958a9.632 9.632 0 01-.617 16.262" fill="#333333"></path><path d="M242.955 133.024l20.911-4.65a8.336 8.336 0 018.22 2.48 7.309 7.309 0 01-4.188 5.728 7.986 7.986 0 004.187-5.729 24.011 24.011 0 005.575-12.703 22.324 22.324 0 01-3.559 10.225 51.62 51.62 0 0133.614 4.032 9.651 9.651 0 00.309 6.5 12.289 12.289 0 01-.309-6.654 33.123 33.123 0 0127.268-5.432 35.772 35.772 0 0025.097-.463 27.641 27.641 0 00-12.394-9.607 16.45 16.45 0 000 0 57.739 57.739 0 00-15.182-2.324 13.205 13.205 0 00-7.437 7.756 28.282 28.282 0 00-13.011-9.916l-13.011-.32a290.85 290.85 0 0026.794-.308 7.069 7.069 0 007.282-7.59l.309 7.59 16.735.309a13.87 13.87 0 01-4.65-8.671 11.12 11.12 0 004.496 8.362 7.644 7.644 0 007.128 2.016l6.511-.925-3.107-11.932 8.528-4.958a9.632 9.632 0 01-.617 16.262" stroke="#000" stroke-linecap="round" stroke-linejoin="round" stroke-width="1"></path></g><g><path d="M325.684 144.487c-6.455 9.637-19.076 12.958-29.438 7.746a11.942 11.942 0 00-12.383 4.649 20.247 20.247 0 0113.011 10.532 23.442 23.442 0 00-13.022-10.532l-18.587-4.958a1085.56 1085.56 0 01-34.704-9.607l34.396 9.916a3.397 3.397 0 01-2.17 5.266l-28.513-9.916 28.512 9.916a31.243 31.243 0 0022.31 2.479" fill="#333333"></path><path d="M325.684 144.487c-6.455 9.637-19.076 12.958-29.438 7.746a43.301 43.301 0 010 0 11.942 11.942 0 00-12.383 4.649 20.247 20.247 0 0113.011 10.532 23.442 23.442 0 00-13.022-10.532l-18.587-4.958a1085.56 1085.56 0 01-34.704-9.607l34.396 9.916a3.397 3.397 0 01-2.17 5.266l-28.513-9.916 28.512 9.916a31.243 31.243 0 0022.31 2.479" stroke="#000" stroke-linecap="round" stroke-linejoin="round" stroke-width="1"></path></g><g><path d="M199.49 141.389a8.458 8.458 0 000-14.874L83.6 89.95a58.852 58.852 0 00-35.94 1.862 12.187 12.187 0 00-7.436 19.214 105.551 105.551 0 0028.502 22.927 34.748 34.748 0 0018.597 4.958l69.41 3.096z" fill="#333333"></path><path d="M199.49 141.389a8.458 8.458 0 000-14.874L83.6 89.95a58.852 58.852 0 00-35.94 1.862 12.187 12.187 0 00-7.436 19.214 105.551 105.551 0 0028.502 22.927 34.748 34.748 0 0018.597 4.958l69.41 3.096z" stroke="#000" stroke-linecap="round" stroke-linejoin="round" stroke-width="2"></path></g><g><path d="M200.11 142.004l-112.796-3.096a5.943 5.943 0 00-2.478 9.299 63.088 63.088 0 0061.047 18.586 493.82 493.82 0 0152.982-15.49 5.109 5.109 0 001.245-9.3z" fill="#333333"></path><path d="M200.11 142.004l-112.796-3.096a5.943 5.943 0 00-2.478 9.299 63.088 63.088 0 0061.047 18.586 493.82 493.82 0 0152.982-15.49 5.109 5.109 0 001.245-9.3z" stroke="#000" stroke-linecap="round" stroke-linejoin="round" stroke-width="2"></path></g><g><path d="M181.518 129.611l-41.524-11.766a8.463 8.463 0 01-3.096-10.544 8.02 8.02 0 003.096 10.544 21.175 21.175 0 01-24.161-9.916 15.604 15.604 0 00-11.16-4.958 14.858 14.858 0 012.632-3.724 41.07 41.07 0 00-2.633 3.724 182.063 182.063 0 01-39.662-.32 33.355 33.355 0 01-18.278-8.978 124.86 124.86 0 0144.312 4.649" fill="#333333"></path><path d="M181.518 129.611l-41.524-11.766a8.463 8.463 0 01-3.096-10.544 8.02 8.02 0 003.096 10.544 21.175 21.175 0 01-24.161-9.916 15.604 15.604 0 00-11.16-4.958 14.858 14.858 0 012.632-3.724 41.07 41.07 0 00-2.633 3.724 182.063 182.063 0 01-39.662-.32 33.355 33.355 0 01-18.278-8.978 124.86 124.86 0 0144.312 4.649" stroke="#000" stroke-linecap="round" stroke-linejoin="round" stroke-width="1"></path></g><g><path d="M174.701 133.024l-20.91-4.65a8.336 8.336 0 00-8.22 2.48 7.309 7.309 0 004.187 5.728 7.986 7.986 0 01-4.187-5.729 24.011 24.011 0 01-5.575-12.703 22.324 22.324 0 003.559 10.225 51.619 51.619 0 00-33.614 4.032 9.651 9.651 0 01-.308 6.5c.713-2.147.82-4.45.308-6.654a33.123 33.123 0 00-27.268-5.432 35.772 35.772 0 01-25.097-.463 27.642 27.642 0 0112.394-9.607 57.739 57.739 0 0115.182-2.324 13.205 13.205 0 017.437 7.756 28.282 28.282 0 0113.011-9.916l13.012-.32a290.85 290.85 0 01-26.794-.308 7.069 7.069 0 01-7.283-7.59l-.308 7.59-16.736.309a13.87 13.87 0 004.65-8.671 11.12 11.12 0 01-4.495 8.362 7.644 7.644 0 01-7.129 2.016l-6.51-.925 3.106-11.932-8.527-4.958a9.632 9.632 0 00.617 16.262" fill="#333333"></path><path d="M174.701 133.024l-20.91-4.65a8.336 8.336 0 00-8.22 2.48 7.309 7.309 0 004.187 5.728 7.986 7.986 0 01-4.187-5.729 24.011 24.011 0 01-5.575-12.703 22.324 22.324 0 003.559 10.225 51.619 51.619 0 00-33.614 4.032 9.651 9.651 0 01-.308 6.5c.713-2.147.82-4.45.308-6.654a33.123 33.123 0 00-27.268-5.432 35.772 35.772 0 01-25.097-.463 27.642 27.642 0 0112.394-9.607 16.45 16.45 0 010 0 57.739 57.739 0 0115.182-2.324 13.205 13.205 0 017.437 7.756 28.282 28.282 0 0113.011-9.916l13.012-.32a290.85 290.85 0 01-26.794-.308 7.069 7.069 0 01-7.283-7.59l-.308 7.59-16.736.309a13.87 13.87 0 004.65-8.671 11.12 11.12 0 01-4.495 8.362 7.644 7.644 0 01-7.129 2.016l-6.51-.925 3.106-11.932-8.527-4.958a9.632 9.632 0 00.617 16.262" stroke="#000" stroke-linecap="round" stroke-linejoin="round" stroke-width="1"></path></g><g><path d="M91.972 144.487c6.455 9.637 19.076 12.958 29.438 7.746a11.942 11.942 0 0112.384 4.649 20.247 20.247 0 00-13.012 10.532 23.442 23.442 0 0113.023-10.532l18.586-4.958c11.62-3.01 23.19-6.213 34.704-9.607l-34.396 9.916a3.397 3.397 0 002.17 5.266l28.514-9.916-28.513 9.916a31.243 31.243 0 01-22.31 2.479" fill="#333333"></path><path d="M91.972 144.487c6.455 9.637 19.076 12.958 29.438 7.746a43.301 43.301 0 000 0 11.942 11.942 0 0112.384 4.649 20.247 20.247 0 00-13.012 10.532 23.442 23.442 0 0113.023-10.532l18.586-4.958c11.62-3.01 23.19-6.213 34.704-9.607l-34.396 9.916a3.397 3.397 0 002.17 5.266l28.514-9.916-28.513 9.916a31.243 31.243 0 01-22.31 2.479" stroke="#000" stroke-linecap="round" stroke-linejoin="round" stroke-width="1"></path></g></g></g></g></g></g></g></g></g></g></g><g><g><g><defs><mask id="mask_19"><g fill="#000" stroke="none" stroke-width="0" id="unique-id_201_22" transform="translate(0,0)"><g transform="translate(-6.635 86.064)"><path stroke-dasharray="none" fill-rule="evenodd" stroke="#000" stroke-opacity="1" fill="#000" stroke-linejoin="round" stroke-linecap="round" stroke-width="2" id="unique-id_199_23" d="M103.995-80.977c9.975 32.158-2.875 32.791-5.145 59.902a35.91 35.91 0 00-3.344.914c-4.674-11.447-5.512-31.496-38.44-46.891 24.67 22.913 13.845 29.864 25.38 54.499a35.91 35.91 0 00-2.445 2.462c-9.755-7.6-20.472-24.563-56.687-21.508C56.107-24.024 50.202-12.608 72.45 2.997a35.91 35.91 0 00-.894 3.364C59.312 4.625 41.572-4.722 11.71 15.956c32.217-9.772 32.774 3.08 59.861 5.522a35.91 35.91 0 00.893 3.356c-11.48 4.598-31.527 5.32-47.123 38.138C48.404 38.453 55.29 49.311 79.987 37.94a35.91 35.91 0 002.448 2.467c-7.665 9.704-24.68 20.32-21.854 56.539 7.78-32.739 19.155-26.77 34.894-48.906a35.91 35.91 0 003.367.921c-1.82 12.232-11.259 29.91 9.222 59.888-9.566-32.267 3.275-32.756 5.892-59.802a35.91 35.91 0 003.375-.874c4.518 11.511 5.132 31.548 37.832 47.34-24.37-23.213-13.477-30.033-24.682-54.79a35.91 35.91 0 002.486-2.439c9.654 7.728 20.166 24.801 56.392 22.204-32.69-7.986-26.65-19.325-48.686-35.204a35.91 35.91 0 00.937-3.358c12.22 1.895 29.84 11.45 59.949-8.846-32.329 9.364-32.733-3.482-59.767-6.268a35.91 35.91 0 00-.853-3.375c11.538-4.448 31.58-4.934 47.581-37.539-23.371 24.23-30.118 13.283-54.96 24.346a35.91 35.91 0 00-2.418-2.494c7.783-9.61 24.939-20.006 22.567-56.266-8.193 32.652-19.498 26.52-35.524 48.486a35.91 35.91 0 00-4.216-1.176c1.664-12.254 10.885-30.05-9.974-59.771z" stroke-miterlimit="4"></path><circle stroke-dasharray="none" r="35.909" stroke="#000" stroke-opacity="1" fill="#000" stroke-linejoin="round" stroke-dashoffset="0" stroke-linecap="round" stroke-width="2" opacity="1" cx="106.635" id="unique-id_200_24" cy="13.936" stroke-miterlimit="4" fill-opacity="1"></circle></g></g></mask><mask id="mask_20"><g fill="#000" stroke="none" stroke-width="0" id="unique-id_201_25" transform="translate(0,0)"><g transform="translate(-6.635 86.064)"><path stroke-dasharray="none" fill-rule="evenodd" stroke="#000" stroke-opacity="1" fill="#fff" stroke-linejoin="round" stroke-linecap="round" stroke-width="2" id="unique-id_199_26" d="M103.995-80.977c9.975 32.158-2.875 32.791-5.145 59.902a35.91 35.91 0 00-3.344.914c-4.674-11.447-5.512-31.496-38.44-46.891 24.67 22.913 13.845 29.864 25.38 54.499a35.91 35.91 0 00-2.445 2.462c-9.755-7.6-20.472-24.563-56.687-21.508C56.107-24.024 50.202-12.608 72.45 2.997a35.91 35.91 0 00-.894 3.364C59.312 4.625 41.572-4.722 11.71 15.956c32.217-9.772 32.774 3.08 59.861 5.522a35.91 35.91 0 00.893 3.356c-11.48 4.598-31.527 5.32-47.123 38.138C48.404 38.453 55.29 49.311 79.987 37.94a35.91 35.91 0 002.448 2.467c-7.665 9.704-24.68 20.32-21.854 56.539 7.78-32.739 19.155-26.77 34.894-48.906a35.91 35.91 0 003.367.921c-1.82 12.232-11.259 29.91 9.222 59.888-9.566-32.267 3.275-32.756 5.892-59.802a35.91 35.91 0 003.375-.874c4.518 11.511 5.132 31.548 37.832 47.34-24.37-23.213-13.477-30.033-24.682-54.79a35.91 35.91 0 002.486-2.439c9.654 7.728 20.166 24.801 56.392 22.204-32.69-7.986-26.65-19.325-48.686-35.204a35.91 35.91 0 00.937-3.358c12.22 1.895 29.84 11.45 59.949-8.846-32.329 9.364-32.733-3.482-59.767-6.268a35.91 35.91 0 00-.853-3.375c11.538-4.448 31.58-4.934 47.581-37.539-23.371 24.23-30.118 13.283-54.96 24.346a35.91 35.91 0 00-2.418-2.494c7.783-9.61 24.939-20.006 22.567-56.266-8.193 32.652-19.498 26.52-35.524 48.486a35.91 35.91 0 00-4.216-1.176c1.664-12.254 10.885-30.05-9.974-59.771z" stroke-miterlimit="4"></path><circle stroke-dasharray="none" r="35.909" stroke="#000" stroke-opacity="1" fill="#fff" stroke-linejoin="round" stroke-dashoffset="0" stroke-linecap="round" stroke-width="2" opacity="1" cx="106.635" id="unique-id_200_27" cy="13.936" stroke-miterlimit="4" fill-opacity="1"></circle></g></g></mask><mask id="mask_21"><g fill="#fff" stroke="none" stroke-width="0" id="unique-id_201_28" transform="translate(0,0)"><g transform="translate(-6.635 86.064)"><path stroke-dasharray="none" fill-rule="evenodd" stroke="#fff" stroke-opacity="1" fill="#fff" stroke-linejoin="round" stroke-linecap="round" stroke-width="2" id="unique-id_199_29" d="M103.995-80.977c9.975 32.158-2.875 32.791-5.145 59.902a35.91 35.91 0 00-3.344.914c-4.674-11.447-5.512-31.496-38.44-46.891 24.67 22.913 13.845 29.864 25.38 54.499a35.91 35.91 0 00-2.445 2.462c-9.755-7.6-20.472-24.563-56.687-21.508C56.107-24.024 50.202-12.608 72.45 2.997a35.91 35.91 0 00-.894 3.364C59.312 4.625 41.572-4.722 11.71 15.956c32.217-9.772 32.774 3.08 59.861 5.522a35.91 35.91 0 00.893 3.356c-11.48 4.598-31.527 5.32-47.123 38.138C48.404 38.453 55.29 49.311 79.987 37.94a35.91 35.91 0 002.448 2.467c-7.665 9.704-24.68 20.32-21.854 56.539 7.78-32.739 19.155-26.77 34.894-48.906a35.91 35.91 0 003.367.921c-1.82 12.232-11.259 29.91 9.222 59.888-9.566-32.267 3.275-32.756 5.892-59.802a35.91 35.91 0 003.375-.874c4.518 11.511 5.132 31.548 37.832 47.34-24.37-23.213-13.477-30.033-24.682-54.79a35.91 35.91 0 002.486-2.439c9.654 7.728 20.166 24.801 56.392 22.204-32.69-7.986-26.65-19.325-48.686-35.204a35.91 35.91 0 00.937-3.358c12.22 1.895 29.84 11.45 59.949-8.846-32.329 9.364-32.733-3.482-59.767-6.268a35.91 35.91 0 00-.853-3.375c11.538-4.448 31.58-4.934 47.581-37.539-23.371 24.23-30.118 13.283-54.96 24.346a35.91 35.91 0 00-2.418-2.494c7.783-9.61 24.939-20.006 22.567-56.266-8.193 32.652-19.498 26.52-35.524 48.486a35.91 35.91 0 00-4.216-1.176c1.664-12.254 10.885-30.05-9.974-59.771z" stroke-miterlimit="4"></path><circle stroke-dasharray="none" r="35.909" stroke="#fff" stroke-opacity="1" fill="#fff" stroke-linejoin="round" stroke-dashoffset="0" stroke-linecap="round" stroke-width="2" opacity="1" cx="106.635" id="unique-id_200_30" cy="13.936" stroke-miterlimit="4" fill-opacity="1"></circle></g></g></mask></defs><g transform="translate(50,23.987173999999996)rotate(0)scale(0.15,0.15)translate(-100,-100)"><g></g><metadata xmlns:rdf="http://www.w3.org/1999/02/22-rdf-syntax-ns#" xmlns:cc="http://creativecommons.org/ns#" xmlns:dc="http://purl.org/dc/elements/1.1/"><rdf:RDF><rdf:Description dc:title="Sun" dc:creator="korfi2go"></rdf:Description><cc:Work rdf:about="https://heraldicon.org/charges/RTaAks/2"><cc:license rdf:resource="https://creativecommons.org/publicdomain/mark/1.0/"></cc:license><cc:attributionName>Sun by korfi2go</cc:attributionName><cc:attributionURL rdf:resource="https://heraldicon.org/users/korfi2go"></cc:attributionURL></cc:Work><cc:License rdf:about="https://creativecommons.org/publicdomain/mark/1.0/"></cc:License></rdf:RDF><rdf:RDF rdf:about="https://openclipart.org/detail/288373/sun-outline-with-12-beams"><rdf:Description dc:title="Sun outline with 12 beams" dc:creator="Tavin"></rdf:Description><cc:Work rdf:about="https://openclipart.org/detail/288373/sun-outline-with-12-beams"><cc:license rdf:resource="https://creativecommons.org/publicdomain/mark/1.0/"></cc:license><cc:attributionName>Tavin</cc:attributionName><cc:attributionURL rdf:resource="https://openclipart.org/artist/Tavin"></cc:attributionURL></cc:Work></rdf:RDF></metadata><g><g><g mask="url(#mask_21)"><rect transform="translate(100,100)scale(6.666666666666667,6.666666666666667)rotate(0)translate(-50,-23.987173999999996)" x="-500" y="-500" width="1100" height="1100" fill="#333333"></rect></g><g mask="url(#mask_20)"><g transform="translate(100,100)scale(6.666666666666667,6.666666666666667)rotate(0)translate(-50,-23.987173999999996)"><rect y="-1000" fill="#f2bc51" width="2000" x="-1000" height="2000"></rect><g></g></g></g><g mask="url(#mask_19)"><g fill="#333333" stroke="none" stroke-width="0" id="unique-id_201_31" transform="translate(0,0)"><g transform="translate(-6.635 86.064)"><path stroke-dasharray="none" fill-rule="evenodd" stroke="#333333" stroke-opacity="1" fill="#333333" stroke-linejoin="round" stroke-linecap="round" stroke-width="2" id="unique-id_199_32" d="M103.995-80.977c9.975 32.158-2.875 32.791-5.145 59.902a35.91 35.91 0 00-3.344.914c-4.674-11.447-5.512-31.496-38.44-46.891 24.67 22.913 13.845 29.864 25.38 54.499a35.91 35.91 0 00-2.445 2.462c-9.755-7.6-20.472-24.563-56.687-21.508C56.107-24.024 50.202-12.608 72.45 2.997a35.91 35.91 0 00-.894 3.364C59.312 4.625 41.572-4.722 11.71 15.956c32.217-9.772 32.774 3.08 59.861 5.522a35.91 35.91 0 00.893 3.356c-11.48 4.598-31.527 5.32-47.123 38.138C48.404 38.453 55.29 49.311 79.987 37.94a35.91 35.91 0 002.448 2.467c-7.665 9.704-24.68 20.32-21.854 56.539 7.78-32.739 19.155-26.77 34.894-48.906a35.91 35.91 0 003.367.921c-1.82 12.232-11.259 29.91 9.222 59.888-9.566-32.267 3.275-32.756 5.892-59.802a35.91 35.91 0 003.375-.874c4.518 11.511 5.132 31.548 37.832 47.34-24.37-23.213-13.477-30.033-24.682-54.79a35.91 35.91 0 002.486-2.439c9.654 7.728 20.166 24.801 56.392 22.204-32.69-7.986-26.65-19.325-48.686-35.204a35.91 35.91 0 00.937-3.358c12.22 1.895 29.84 11.45 59.949-8.846-32.329 9.364-32.733-3.482-59.767-6.268a35.91 35.91 0 00-.853-3.375c11.538-4.448 31.58-4.934 47.581-37.539-23.371 24.23-30.118 13.283-54.96 24.346a35.91 35.91 0 00-2.418-2.494c7.783-9.61 24.939-20.006 22.567-56.266-8.193 32.652-19.498 26.52-35.524 48.486a35.91 35.91 0 00-4.216-1.176c1.664-12.254 10.885-30.05-9.974-59.771z" stroke-miterlimit="4"></path><circle stroke-dasharray="none" r="35.909" stroke="#333333" stroke-opacity="1" fill="#333333" stroke-linejoin="round" stroke-dashoffset="0" stroke-linecap="round" stroke-width="2" opacity="1" cx="106.635" id="unique-id_200_33" cy="13.936" stroke-miterlimit="4" fill-opacity="1"></circle></g></g></g></g></g></g></g></g></g></g></svg>