<svg viewBox="-10 -10 1020 1219.3587" xmlns="http://www.w3.org/2000/svg" xmlns:xlink="http://www.w3.org/1999/xlink" version="1.1" width="1020" height="1219.3587"><style></style><g transform="translate(500,599.67935)scale(10,10)translate(-50,-59.967935)" style="transition:transform 0.5s"><g><g></g></g><g><g></g></g><g transform="translate(0,0)" style="transition:transform 0.5s"></g><g style="transition:transform 0.5s"><g><metadata xmlns:rdf="http://www.w3.org/1999/02/22-rdf-syntax-ns#" xmlns:cc="http://creativecommons.org/ns#" xmlns:dc="http://purl.org/dc/elements/1.1/"><rdf:RDF><rdf:Description dc:title="Qadira" dc:creator="kosen"></rdf:Description><cc:Work rdf:about="https://heraldicon.org/arms/QLmsH5/2"><cc:license rdf:resource="private"></cc:license><cc:attributionName>Qadira by kosen</cc:attributionName><cc:attributionURL rdf:resource="https://heraldicon.org/users/kosen"></cc:attributionURL></cc:Work><cc:License rdf:about="private"></cc:License></rdf:RDF></metadata><defs><pattern width="20" height="20" patternUnits="userSpaceOnUse" id="void"><rect x="0" y="0" width="20" height="20" fill="#fff" class="light"></rect><rect x="0" y="0" width="10" height="10" fill="#ddd" class="dark"></rect><rect x="10" y="10" width="10" height="10" fill="#ddd" class="dark"></rect></pattern><pattern width="4" height="4" patternUnits="userSpaceOnUse" id="selected"><rect x="0" y="0" width="4" height="4" fill="#f5f5f5"></rect><g fill="#000"><circle cx="0" cy="0" r="0.3"></circle><circle cx="4" cy="0" r="0.3"></circle><circle cx="0" cy="4" r="0.3"></circle><circle cx="4" cy="4" r="0.3"></circle><circle cx="2" cy="2" r="0.3"></circle></g></pattern><pattern id="ermine" width="12.5" height="20" patternUnits="userSpaceOnUse" x="-3.125" y="-5"><rect x="0" y="0" width="12.5" height="20" fill="#f6f6f6"></rect><g fill="#333333"><path d="M 47.757634,0 C 60.324696,15.689314 25.136924,21.898666 44.167046,36.607392
    52.24587,41.673746 71.273896,30.723464 54.57765,17.322176
    52.423302,16.178163 62.11999,8.3349512 47.757634,0 Z m 21.182372,36.935142 c
    -3.23154,0.326846 -6.282816,2.290268 -9.155302,7.193166 -3.590588,8.33495
    12.209402,22.716724 22.98117,5.06625 C 83.483996,47.069952 94.0755,53.93163
    100,39.386326 89.946316,49.845864 79.713166,37.425428 70.377642,36.935142 Z
    M 29.80469,37.099022 C 20.469164,37.58931 10.053647,50.173186 0,39.55021
    5.9244804,54.095512 16.51881,47.070414 17.416458,49.358438 28.0087,67.008916
    43.805884,52.627142 40.215296,44.292192 36.983772,38.73555 33.395278,36.9356
    29.80469,37.099026 Z m 21.003542,10.13249 c -8.25835,37.262136
    -23.51556,63.576958 -40.211787,82.534868 7.001653,-1.96117
    14.718613,-7.19213 22.258843,-11.93164 -4.667764,9.80582 -9.154602,18.14082
    -13.822364,26.80264 2.692942,-0.98059 11.489886,-9.64435 23.338826,-22.3919
    1.795296,17.48703 4.305204,25.8241 8.07532,37.75452 3.052012,-11.93042
    5.208468,-19.9411 7.54234,-37.9184 7.181178,8.00805 14.001888,16.17984
    23.696484,23.04393 L 68.221186,117.34659 c 7.001634,4.41265
    14.72282,10.29262 22.083522,12.74406 C 72.710832,110.15215
    57.989412,84.493648 50.808232,47.231516 Z" transform="scale(0.0625,0.0625)"></path><path d="M 47.757634,0 C 60.324696,15.689314 25.136924,21.898666 44.167046,36.607392
    52.24587,41.673746 71.273896,30.723464 54.57765,17.322176
    52.423302,16.178163 62.11999,8.3349512 47.757634,0 Z m 21.182372,36.935142 c
    -3.23154,0.326846 -6.282816,2.290268 -9.155302,7.193166 -3.590588,8.33495
    12.209402,22.716724 22.98117,5.06625 C 83.483996,47.069952 94.0755,53.93163
    100,39.386326 89.946316,49.845864 79.713166,37.425428 70.377642,36.935142 Z
    M 29.80469,37.099022 C 20.469164,37.58931 10.053647,50.173186 0,39.55021
    5.9244804,54.095512 16.51881,47.070414 17.416458,49.358438 28.0087,67.008916
    43.805884,52.627142 40.215296,44.292192 36.983772,38.73555 33.395278,36.9356
    29.80469,37.099026 Z m 21.003542,10.13249 c -8.25835,37.262136
    -23.51556,63.576958 -40.211787,82.534868 7.001653,-1.96117
    14.718613,-7.19213 22.258843,-11.93164 -4.667764,9.80582 -9.154602,18.14082
    -13.822364,26.80264 2.692942,-0.98059 11.489886,-9.64435 23.338826,-22.3919
    1.795296,17.48703 4.305204,25.8241 8.07532,37.75452 3.052012,-11.93042
    5.208468,-19.9411 7.54234,-37.9184 7.181178,8.00805 14.001888,16.17984
    23.696484,23.04393 L 68.221186,117.34659 c 7.001634,4.41265
    14.72282,10.29262 22.083522,12.74406 C 72.710832,110.15215
    57.989412,84.493648 50.808232,47.231516 Z" transform="translate(6.25,10) scale(0.0625,0.0625)"></path></g></pattern><pattern id="ermines" width="12.5" height="20" patternUnits="userSpaceOnUse" x="-3.125" y="-5"><rect x="0" y="0" width="12.5" height="20" fill="#333333"></rect><g fill="#f6f6f6"><path d="M 47.757634,0 C 60.324696,15.689314 25.136924,21.898666 44.167046,36.607392
    52.24587,41.673746 71.273896,30.723464 54.57765,17.322176
    52.423302,16.178163 62.11999,8.3349512 47.757634,0 Z m 21.182372,36.935142 c
    -3.23154,0.326846 -6.282816,2.290268 -9.155302,7.193166 -3.590588,8.33495
    12.209402,22.716724 22.98117,5.06625 C 83.483996,47.069952 94.0755,53.93163
    100,39.386326 89.946316,49.845864 79.713166,37.425428 70.377642,36.935142 Z
    M 29.80469,37.099022 C 20.469164,37.58931 10.053647,50.173186 0,39.55021
    5.9244804,54.095512 16.51881,47.070414 17.416458,49.358438 28.0087,67.008916
    43.805884,52.627142 40.215296,44.292192 36.983772,38.73555 33.395278,36.9356
    29.80469,37.099026 Z m 21.003542,10.13249 c -8.25835,37.262136
    -23.51556,63.576958 -40.211787,82.534868 7.001653,-1.96117
    14.718613,-7.19213 22.258843,-11.93164 -4.667764,9.80582 -9.154602,18.14082
    -13.822364,26.80264 2.692942,-0.98059 11.489886,-9.64435 23.338826,-22.3919
    1.795296,17.48703 4.305204,25.8241 8.07532,37.75452 3.052012,-11.93042
    5.208468,-19.9411 7.54234,-37.9184 7.181178,8.00805 14.001888,16.17984
    23.696484,23.04393 L 68.221186,117.34659 c 7.001634,4.41265
    14.72282,10.29262 22.083522,12.74406 C 72.710832,110.15215
    57.989412,84.493648 50.808232,47.231516 Z" transform="scale(0.0625,0.0625)"></path><path d="M 47.757634,0 C 60.324696,15.689314 25.136924,21.898666 44.167046,36.607392
    52.24587,41.673746 71.273896,30.723464 54.57765,17.322176
    52.423302,16.178163 62.11999,8.3349512 47.757634,0 Z m 21.182372,36.935142 c
    -3.23154,0.326846 -6.282816,2.290268 -9.155302,7.193166 -3.590588,8.33495
    12.209402,22.716724 22.98117,5.06625 C 83.483996,47.069952 94.0755,53.93163
    100,39.386326 89.946316,49.845864 79.713166,37.425428 70.377642,36.935142 Z
    M 29.80469,37.099022 C 20.469164,37.58931 10.053647,50.173186 0,39.55021
    5.9244804,54.095512 16.51881,47.070414 17.416458,49.358438 28.0087,67.008916
    43.805884,52.627142 40.215296,44.292192 36.983772,38.73555 33.395278,36.9356
    29.80469,37.099026 Z m 21.003542,10.13249 c -8.25835,37.262136
    -23.51556,63.576958 -40.211787,82.534868 7.001653,-1.96117
    14.718613,-7.19213 22.258843,-11.93164 -4.667764,9.80582 -9.154602,18.14082
    -13.822364,26.80264 2.692942,-0.98059 11.489886,-9.64435 23.338826,-22.3919
    1.795296,17.48703 4.305204,25.8241 8.07532,37.75452 3.052012,-11.93042
    5.208468,-19.9411 7.54234,-37.9184 7.181178,8.00805 14.001888,16.17984
    23.696484,23.04393 L 68.221186,117.34659 c 7.001634,4.41265
    14.72282,10.29262 22.083522,12.74406 C 72.710832,110.15215
    57.989412,84.493648 50.808232,47.231516 Z" transform="translate(6.25,10) scale(0.0625,0.0625)"></path></g></pattern><pattern id="erminois" width="12.5" height="20" patternUnits="userSpaceOnUse" x="-3.125" y="-5"><rect x="0" y="0" width="12.5" height="20" fill="#f2bc51"></rect><g fill="#333333"><path d="M 47.757634,0 C 60.324696,15.689314 25.136924,21.898666 44.167046,36.607392
    52.24587,41.673746 71.273896,30.723464 54.57765,17.322176
    52.423302,16.178163 62.11999,8.3349512 47.757634,0 Z m 21.182372,36.935142 c
    -3.23154,0.326846 -6.282816,2.290268 -9.155302,7.193166 -3.590588,8.33495
    12.209402,22.716724 22.98117,5.06625 C 83.483996,47.069952 94.0755,53.93163
    100,39.386326 89.946316,49.845864 79.713166,37.425428 70.377642,36.935142 Z
    M 29.80469,37.099022 C 20.469164,37.58931 10.053647,50.173186 0,39.55021
    5.9244804,54.095512 16.51881,47.070414 17.416458,49.358438 28.0087,67.008916
    43.805884,52.627142 40.215296,44.292192 36.983772,38.73555 33.395278,36.9356
    29.80469,37.099026 Z m 21.003542,10.13249 c -8.25835,37.262136
    -23.51556,63.576958 -40.211787,82.534868 7.001653,-1.96117
    14.718613,-7.19213 22.258843,-11.93164 -4.667764,9.80582 -9.154602,18.14082
    -13.822364,26.80264 2.692942,-0.98059 11.489886,-9.64435 23.338826,-22.3919
    1.795296,17.48703 4.305204,25.8241 8.07532,37.75452 3.052012,-11.93042
    5.208468,-19.9411 7.54234,-37.9184 7.181178,8.00805 14.001888,16.17984
    23.696484,23.04393 L 68.221186,117.34659 c 7.001634,4.41265
    14.72282,10.29262 22.083522,12.74406 C 72.710832,110.15215
    57.989412,84.493648 50.808232,47.231516 Z" transform="scale(0.0625,0.0625)"></path><path d="M 47.757634,0 C 60.324696,15.689314 25.136924,21.898666 44.167046,36.607392
    52.24587,41.673746 71.273896,30.723464 54.57765,17.322176
    52.423302,16.178163 62.11999,8.3349512 47.757634,0 Z m 21.182372,36.935142 c
    -3.23154,0.326846 -6.282816,2.290268 -9.155302,7.193166 -3.590588,8.33495
    12.209402,22.716724 22.98117,5.06625 C 83.483996,47.069952 94.0755,53.93163
    100,39.386326 89.946316,49.845864 79.713166,37.425428 70.377642,36.935142 Z
    M 29.80469,37.099022 C 20.469164,37.58931 10.053647,50.173186 0,39.55021
    5.9244804,54.095512 16.51881,47.070414 17.416458,49.358438 28.0087,67.008916
    43.805884,52.627142 40.215296,44.292192 36.983772,38.73555 33.395278,36.9356
    29.80469,37.099026 Z m 21.003542,10.13249 c -8.25835,37.262136
    -23.51556,63.576958 -40.211787,82.534868 7.001653,-1.96117
    14.718613,-7.19213 22.258843,-11.93164 -4.667764,9.80582 -9.154602,18.14082
    -13.822364,26.80264 2.692942,-0.98059 11.489886,-9.64435 23.338826,-22.3919
    1.795296,17.48703 4.305204,25.8241 8.07532,37.75452 3.052012,-11.93042
    5.208468,-19.9411 7.54234,-37.9184 7.181178,8.00805 14.001888,16.17984
    23.696484,23.04393 L 68.221186,117.34659 c 7.001634,4.41265
    14.72282,10.29262 22.083522,12.74406 C 72.710832,110.15215
    57.989412,84.493648 50.808232,47.231516 Z" transform="translate(6.25,10) scale(0.0625,0.0625)"></path></g></pattern><pattern id="pean" width="12.5" height="20" patternUnits="userSpaceOnUse" x="-3.125" y="-5"><rect x="0" y="0" width="12.5" height="20" fill="#333333"></rect><g fill="#f2bc51"><path d="M 47.757634,0 C 60.324696,15.689314 25.136924,21.898666 44.167046,36.607392
    52.24587,41.673746 71.273896,30.723464 54.57765,17.322176
    52.423302,16.178163 62.11999,8.3349512 47.757634,0 Z m 21.182372,36.935142 c
    -3.23154,0.326846 -6.282816,2.290268 -9.155302,7.193166 -3.590588,8.33495
    12.209402,22.716724 22.98117,5.06625 C 83.483996,47.069952 94.0755,53.93163
    100,39.386326 89.946316,49.845864 79.713166,37.425428 70.377642,36.935142 Z
    M 29.80469,37.099022 C 20.469164,37.58931 10.053647,50.173186 0,39.55021
    5.9244804,54.095512 16.51881,47.070414 17.416458,49.358438 28.0087,67.008916
    43.805884,52.627142 40.215296,44.292192 36.983772,38.73555 33.395278,36.9356
    29.80469,37.099026 Z m 21.003542,10.13249 c -8.25835,37.262136
    -23.51556,63.576958 -40.211787,82.534868 7.001653,-1.96117
    14.718613,-7.19213 22.258843,-11.93164 -4.667764,9.80582 -9.154602,18.14082
    -13.822364,26.80264 2.692942,-0.98059 11.489886,-9.64435 23.338826,-22.3919
    1.795296,17.48703 4.305204,25.8241 8.07532,37.75452 3.052012,-11.93042
    5.208468,-19.9411 7.54234,-37.9184 7.181178,8.00805 14.001888,16.17984
    23.696484,23.04393 L 68.221186,117.34659 c 7.001634,4.41265
    14.72282,10.29262 22.083522,12.74406 C 72.710832,110.15215
    57.989412,84.493648 50.808232,47.231516 Z" transform="scale(0.0625,0.0625)"></path><path d="M 47.757634,0 C 60.324696,15.689314 25.136924,21.898666 44.167046,36.607392
    52.24587,41.673746 71.273896,30.723464 54.57765,17.322176
    52.423302,16.178163 62.11999,8.3349512 47.757634,0 Z m 21.182372,36.935142 c
    -3.23154,0.326846 -6.282816,2.290268 -9.155302,7.193166 -3.590588,8.33495
    12.209402,22.716724 22.98117,5.06625 C 83.483996,47.069952 94.0755,53.93163
    100,39.386326 89.946316,49.845864 79.713166,37.425428 70.377642,36.935142 Z
    M 29.80469,37.099022 C 20.469164,37.58931 10.053647,50.173186 0,39.55021
    5.9244804,54.095512 16.51881,47.070414 17.416458,49.358438 28.0087,67.008916
    43.805884,52.627142 40.215296,44.292192 36.983772,38.73555 33.395278,36.9356
    29.80469,37.099026 Z m 21.003542,10.13249 c -8.25835,37.262136
    -23.51556,63.576958 -40.211787,82.534868 7.001653,-1.96117
    14.718613,-7.19213 22.258843,-11.93164 -4.667764,9.80582 -9.154602,18.14082
    -13.822364,26.80264 2.692942,-0.98059 11.489886,-9.64435 23.338826,-22.3919
    1.795296,17.48703 4.305204,25.8241 8.07532,37.75452 3.052012,-11.93042
    5.208468,-19.9411 7.54234,-37.9184 7.181178,8.00805 14.001888,16.17984
    23.696484,23.04393 L 68.221186,117.34659 c 7.001634,4.41265
    14.72282,10.29262 22.083522,12.74406 C 72.710832,110.15215
    57.989412,84.493648 50.808232,47.231516 Z" transform="translate(6.25,10) scale(0.0625,0.0625)"></path></g></pattern></defs><defs><mask id="mask_5"><path d="M50,0h50v33.33333c0,35.72656 -19.05989,68.73926 -50,86.60254c-30.94011,-17.86328 -50,-50.87598 -50,-86.60254v-33.33333z" clip-rule="evenodd" fill-rule="evenodd" fill="#fff" stroke="none"></path></mask></defs><g mask="url(#mask_5)"><g><g><path d="M50,0h50v33.33333c0,35.72656 -19.05989,68.73926 -50,86.60254c-30.94011,-17.86328 -50,-50.87598 -50,-86.60254v-33.33333z" fill-rule="evenodd" fill="#f0f0f0"></path><rect y="-1000" fill="#3e933f" width="2000" x="-1000" height="2000"></rect><g></g></g></g></g><g stroke="#333333" stroke-width="0.5" fill="none" stroke-linecap="round" stroke-linejoin="round"><path d="M50,0h50v33.33333c0,35.72656 -19.05989,68.73926 -50,86.60254c-30.94011,-17.86328 -50,-50.87598 -50,-86.60254v-33.33333z"></path></g></g></g><g transform="translate(0,0)" style="transition:transform 0.5s"></g><g><g><g><defs><mask id="mask_10"><g fill="#000" stroke="none" stroke-width="0" transform="translate(-36.94915771484375,-64.29290771484375)" id="unique-id_5762_13"><path d="M37.4 65.3c-2.5 6.7 12.3 27 28.9 39.5 48.8 36.7 113.9 66.4 180 82.2 24.7 5.9 43.8 8.8 78.2 11.9 42.6 3.9 60.7 4.6 119.5 4.6 66.4 0 82.6-.9 159.5-8.6 51.7-5.1 70.5-6.9 100-9.4 43.3-3.5 70.4-5.5 76.7-5.5 6.2 0 6.8.2 9.2 3.1 3.9 4.6 3.5 8.7-1.4 14.5-3.8 4.3-4 4.8-2.7 6.8 3.6 5.3 13.5 7.6 21 4.7 2.7-1 3.2-.7 9.2 5.2 20.2 20 46.2 20.7 70.8 1.9 19-14.5 29-21.2 31.5-21.2.5 0 .7 1.9.5 4.3-.4 3.2-.1 4.8 1.2 6 2.4 2.4 3.3 2.2 7.2-2 5-5.2 5.7-7.8 3.8-12.9-1.2-3.3-1.4-5.1-.6-8.5.6-2.4 1.1-10 1.1-16.9.1-15.7.5-16.5 9.4-16.5 7.2 0 9.6-1.4 9.6-5.6 0-4.5-3.6-6.3-11.4-5.5-6.2.6-6.4.6-7.4-2.1-.7-1.6-1.9-7.5-2.8-13.3-2.6-17-6.2-23.1-12.9-21.4-3.3.8-5.3 6.4-6.1 17.3-.7 8.6-.9 9.3-3.8 11.8-7 5.9-15.5 7-21 2.8-9.3-7.1-18.3-7.2-38.9-.6-19.2 6.2-26.6 7.1-33.3 4.2-6.2-2.8-7.9-4.3-12.6-11.5-4.6-7.2-4.8-10.4-.8-14.9 1.7-1.9 3-4 3-4.6 0-1.8-7.6-6.2-11.7-6.7-3-.4-4.9.2-9.1 2.6-2.9 1.7-5.6 3.8-5.9 4.6-.3.9 1 2.9 3.5 5.2 7.1 6.6 7.6 11 2.1 18.7-2.9 4-3.5 4.3-11.2 5.8-76.6 15.2-169.4 26.7-253.2 31.3-40.7 2.3-108.4 2.3-142.4 0-75.1-4.9-123.4-13.5-174.1-30.7-24.3-8.2-63.4-25.6-111.5-49.4-17.1-8.5-34.6-16.7-39-18.4-4.4-1.6-8.8-3.2-9.7-3.6-1.2-.5-2-.2-2.4.8zm870.2 93.3c2 1.5 3.2 3.6 4.1 7.5 2.4 10 4.7 17.4 5.9 19.3 1.2 1.8.2 2.7-12.6 11.2-7.6 5.1-17.6 12.1-22.2 15.5-13.3 9.9-17.2 11.4-30.3 11.4-10.4 0-11.3-.2-17.1-3.2-8.3-4.3-22.3-15-23.4-17.8-.5-1.3-1.8-2.6-2.9-3-1.1-.3-3-1.8-4.1-3.2-4.2-5.3-1.6-14.6 6.5-23.2 8.5-9 16.3-10.9 32.1-7.6 15.5 3.2 21.3 3.6 27.8 2 6.2-1.6 16-7.4 17-10.2 1-2.4 15.6-1.5 19.2 1.3z" fill="#000" stroke="none" id="unique-id_5761_14"></path></g></mask><mask id="mask_11"><g fill="#fff" stroke="none" stroke-width="0" transform="translate(-36.94915771484375,-64.29290771484375)" id="unique-id_5762_15"><path d="M37.4 65.3c-2.5 6.7 12.3 27 28.9 39.5 48.8 36.7 113.9 66.4 180 82.2 24.7 5.9 43.8 8.8 78.2 11.9 42.6 3.9 60.7 4.6 119.5 4.6 66.4 0 82.6-.9 159.5-8.6 51.7-5.1 70.5-6.9 100-9.4 43.3-3.5 70.4-5.5 76.7-5.5 6.2 0 6.8.2 9.2 3.1 3.9 4.6 3.5 8.7-1.4 14.5-3.8 4.3-4 4.8-2.7 6.8 3.6 5.3 13.5 7.6 21 4.7 2.7-1 3.2-.7 9.2 5.2 20.2 20 46.2 20.7 70.8 1.9 19-14.5 29-21.2 31.5-21.2.5 0 .7 1.9.5 4.3-.4 3.2-.1 4.8 1.2 6 2.4 2.4 3.3 2.2 7.2-2 5-5.2 5.7-7.8 3.8-12.9-1.2-3.3-1.4-5.1-.6-8.5.6-2.4 1.1-10 1.1-16.9.1-15.7.5-16.5 9.4-16.5 7.2 0 9.6-1.4 9.6-5.6 0-4.5-3.6-6.3-11.4-5.5-6.2.6-6.4.6-7.4-2.1-.7-1.6-1.9-7.5-2.8-13.3-2.6-17-6.2-23.1-12.9-21.4-3.3.8-5.3 6.4-6.1 17.3-.7 8.6-.9 9.3-3.8 11.8-7 5.9-15.5 7-21 2.8-9.3-7.1-18.3-7.2-38.9-.6-19.2 6.2-26.6 7.1-33.3 4.2-6.2-2.8-7.9-4.3-12.6-11.5-4.6-7.2-4.8-10.4-.8-14.9 1.7-1.9 3-4 3-4.6 0-1.8-7.6-6.2-11.7-6.7-3-.4-4.9.2-9.1 2.6-2.9 1.7-5.6 3.8-5.9 4.6-.3.9 1 2.9 3.5 5.2 7.1 6.6 7.6 11 2.1 18.7-2.9 4-3.5 4.3-11.2 5.8-76.6 15.2-169.4 26.7-253.2 31.3-40.7 2.3-108.4 2.3-142.4 0-75.1-4.9-123.4-13.5-174.1-30.7-24.3-8.2-63.4-25.6-111.5-49.4-17.1-8.5-34.6-16.7-39-18.4-4.4-1.6-8.8-3.2-9.7-3.6-1.2-.5-2-.2-2.4.8zm870.2 93.3c2 1.5 3.2 3.6 4.1 7.5 2.4 10 4.7 17.4 5.9 19.3 1.2 1.8.2 2.7-12.6 11.2-7.6 5.1-17.6 12.1-22.2 15.5-13.3 9.9-17.2 11.4-30.3 11.4-10.4 0-11.3-.2-17.1-3.2-8.3-4.3-22.3-15-23.4-17.8-.5-1.3-1.8-2.6-2.9-3-1.1-.3-3-1.8-4.1-3.2-4.2-5.3-1.6-14.6 6.5-23.2 8.5-9 16.3-10.9 32.1-7.6 15.5 3.2 21.3 3.6 27.8 2 6.2-1.6 16-7.4 17-10.2 1-2.4 15.6-1.5 19.2 1.3z" fill="#fff" stroke="none" id="unique-id_5761_16"></path></g></mask><mask id="mask_12"><g fill="#fff" stroke="none" stroke-width="0" transform="translate(-36.94915771484375,-64.29290771484375)" id="unique-id_5762_17"><path d="M37.4 65.3c-2.5 6.7 12.3 27 28.9 39.5 48.8 36.7 113.9 66.4 180 82.2 24.7 5.9 43.8 8.8 78.2 11.9 42.6 3.9 60.7 4.6 119.5 4.6 66.4 0 82.6-.9 159.5-8.6 51.7-5.1 70.5-6.9 100-9.4 43.3-3.5 70.4-5.5 76.7-5.5 6.2 0 6.8.2 9.2 3.1 3.9 4.6 3.5 8.7-1.4 14.5-3.8 4.3-4 4.8-2.7 6.8 3.6 5.3 13.5 7.6 21 4.7 2.7-1 3.2-.7 9.2 5.2 20.2 20 46.2 20.7 70.8 1.9 19-14.5 29-21.2 31.5-21.2.5 0 .7 1.9.5 4.3-.4 3.2-.1 4.8 1.2 6 2.4 2.4 3.3 2.2 7.2-2 5-5.2 5.7-7.8 3.8-12.9-1.2-3.3-1.4-5.1-.6-8.5.6-2.4 1.1-10 1.1-16.9.1-15.7.5-16.5 9.4-16.5 7.2 0 9.6-1.4 9.6-5.6 0-4.5-3.6-6.3-11.4-5.5-6.2.6-6.4.6-7.4-2.1-.7-1.6-1.9-7.5-2.8-13.3-2.6-17-6.2-23.1-12.9-21.4-3.3.8-5.3 6.4-6.1 17.3-.7 8.6-.9 9.3-3.8 11.8-7 5.9-15.5 7-21 2.8-9.3-7.1-18.3-7.2-38.9-.6-19.2 6.2-26.6 7.1-33.3 4.2-6.2-2.8-7.9-4.3-12.6-11.5-4.6-7.2-4.8-10.4-.8-14.9 1.7-1.9 3-4 3-4.6 0-1.8-7.6-6.2-11.7-6.7-3-.4-4.9.2-9.1 2.6-2.9 1.7-5.6 3.8-5.9 4.6-.3.9 1 2.9 3.5 5.2 7.1 6.6 7.6 11 2.1 18.7-2.9 4-3.5 4.3-11.2 5.8-76.6 15.2-169.4 26.7-253.2 31.3-40.7 2.3-108.4 2.3-142.4 0-75.1-4.9-123.4-13.5-174.1-30.7-24.3-8.2-63.4-25.6-111.5-49.4-17.1-8.5-34.6-16.7-39-18.4-4.4-1.6-8.8-3.2-9.7-3.6-1.2-.5-2-.2-2.4.8zm870.2 93.3c2 1.5 3.2 3.6 4.1 7.5 2.4 10 4.7 17.4 5.9 19.3 1.2 1.8.2 2.7-12.6 11.2-7.6 5.1-17.6 12.1-22.2 15.5-13.3 9.9-17.2 11.4-30.3 11.4-10.4 0-11.3-.2-17.1-3.2-8.3-4.3-22.3-15-23.4-17.8-.5-1.3-1.8-2.6-2.9-3-1.1-.3-3-1.8-4.1-3.2-4.2-5.3-1.6-14.6 6.5-23.2 8.5-9 16.3-10.9 32.1-7.6 15.5 3.2 21.3 3.6 27.8 2 6.2-1.6 16-7.4 17-10.2 1-2.4 15.6-1.5 19.2 1.3z" fill="#fff" stroke="none" id="unique-id_5761_18"></path></g></mask></defs><g transform="translate(50,59.967935)rotate(34.99999999999999)scale(0.08757655607291255,0.08757655607291255)translate(-456.74324035644526,-82.92198181152342)"><g></g><metadata xmlns:rdf="http://www.w3.org/1999/02/22-rdf-syntax-ns#" xmlns:cc="http://creativecommons.org/ns#" xmlns:dc="http://purl.org/dc/elements/1.1/"><rdf:RDF><rdf:Description dc:title="DIVYRAJSINH SARVAIYA" dc:creator="bapusarvaiya"></rdf:Description><cc:Work rdf:about="https://heraldicon.org/charges/13jSw7/16"><cc:license rdf:resource="https://creativecommons.org/publicdomain/mark/1.0/"></cc:license><cc:attributionName>DIVYRAJSINH SARVAIYA by bapusarvaiya</cc:attributionName><cc:attributionURL rdf:resource="https://heraldicon.org/users/bapusarvaiya"></cc:attributionURL></cc:Work><cc:License rdf:about="https://creativecommons.org/publicdomain/mark/1.0/"></cc:License></rdf:RDF></metadata><g><g><g mask="url(#mask_12)"><rect transform="translate(456.74324035644526,82.92198181152342)scale(11.418581008911131,11.418581008911131)rotate(-34.99999999999999)translate(-50,-59.967935)" x="-500" y="-500" width="1100" height="1100" fill="#333333"></rect></g><g mask="url(#mask_11)"><g transform="translate(456.74324035644526,82.92198181152342)scale(11.418581008911131,11.418581008911131)rotate(-34.99999999999999)translate(-50,-59.967935)"><rect y="-1000" fill="#333333" width="2000" x="-1000" height="2000"></rect><g></g></g></g><g mask="url(#mask_10)"><g fill="#333333" stroke="none" stroke-width="0" transform="translate(-36.94915771484375,-64.29290771484375)" id="unique-id_5762_19"><path d="M37.4 65.3c-2.5 6.7 12.3 27 28.9 39.5 48.8 36.7 113.9 66.4 180 82.2 24.7 5.9 43.8 8.8 78.2 11.9 42.6 3.9 60.7 4.6 119.5 4.6 66.4 0 82.6-.9 159.5-8.6 51.7-5.1 70.5-6.9 100-9.4 43.3-3.5 70.4-5.5 76.7-5.5 6.2 0 6.8.2 9.2 3.1 3.9 4.6 3.5 8.7-1.4 14.5-3.8 4.3-4 4.8-2.7 6.8 3.6 5.3 13.5 7.6 21 4.7 2.7-1 3.2-.7 9.2 5.2 20.2 20 46.2 20.7 70.8 1.9 19-14.5 29-21.2 31.5-21.2.5 0 .7 1.9.5 4.3-.4 3.2-.1 4.8 1.2 6 2.4 2.4 3.3 2.2 7.2-2 5-5.2 5.7-7.8 3.8-12.9-1.2-3.3-1.4-5.1-.6-8.5.6-2.4 1.1-10 1.1-16.9.1-15.7.5-16.5 9.4-16.5 7.2 0 9.6-1.4 9.6-5.6 0-4.5-3.6-6.3-11.4-5.5-6.2.6-6.4.6-7.4-2.1-.7-1.6-1.9-7.5-2.8-13.3-2.6-17-6.2-23.1-12.9-21.4-3.3.8-5.3 6.4-6.1 17.3-.7 8.6-.9 9.3-3.8 11.8-7 5.9-15.5 7-21 2.8-9.3-7.1-18.3-7.2-38.9-.6-19.2 6.2-26.6 7.1-33.3 4.2-6.2-2.8-7.9-4.3-12.6-11.5-4.6-7.2-4.8-10.4-.8-14.9 1.7-1.9 3-4 3-4.6 0-1.8-7.6-6.2-11.7-6.7-3-.4-4.9.2-9.1 2.6-2.9 1.7-5.6 3.8-5.9 4.6-.3.9 1 2.9 3.5 5.2 7.1 6.6 7.6 11 2.1 18.7-2.9 4-3.5 4.3-11.2 5.8-76.6 15.2-169.4 26.7-253.2 31.3-40.7 2.3-108.4 2.3-142.4 0-75.1-4.9-123.4-13.5-174.1-30.7-24.3-8.2-63.4-25.6-111.5-49.4-17.1-8.5-34.6-16.7-39-18.4-4.4-1.6-8.8-3.2-9.7-3.6-1.2-.5-2-.2-2.4.8zm870.2 93.3c2 1.5 3.2 3.6 4.1 7.5 2.4 10 4.7 17.4 5.9 19.3 1.2 1.8.2 2.7-12.6 11.2-7.6 5.1-17.6 12.1-22.2 15.5-13.3 9.9-17.2 11.4-30.3 11.4-10.4 0-11.3-.2-17.1-3.2-8.3-4.3-22.3-15-23.4-17.8-.5-1.3-1.8-2.6-2.9-3-1.1-.3-3-1.8-4.1-3.2-4.2-5.3-1.6-14.6 6.5-23.2 8.5-9 16.3-10.9 32.1-7.6 15.5 3.2 21.3 3.6 27.8 2 6.2-1.6 16-7.4 17-10.2 1-2.4 15.6-1.5 19.2 1.3z" fill="#333333" stroke="none" id="unique-id_5761_20"></path></g></g></g></g></g></g></g></g><g><g><g><defs><mask id="mask_23"><g fill="#000" stroke="none" stroke-width="0" transform="translate(-36.94915771484375,-64.29290771484375)" id="unique-id_5762_26"><path d="M37.4 65.3c-2.5 6.7 12.3 27 28.9 39.5 48.8 36.7 113.9 66.4 180 82.2 24.7 5.9 43.8 8.8 78.2 11.9 42.6 3.9 60.7 4.6 119.5 4.6 66.4 0 82.6-.9 159.5-8.6 51.7-5.1 70.5-6.9 100-9.4 43.3-3.5 70.4-5.5 76.7-5.5 6.2 0 6.8.2 9.2 3.1 3.9 4.6 3.5 8.7-1.4 14.5-3.8 4.3-4 4.8-2.7 6.8 3.6 5.3 13.5 7.6 21 4.7 2.7-1 3.2-.7 9.2 5.2 20.2 20 46.2 20.7 70.8 1.9 19-14.5 29-21.2 31.5-21.2.5 0 .7 1.9.5 4.3-.4 3.2-.1 4.8 1.2 6 2.4 2.4 3.3 2.2 7.2-2 5-5.2 5.7-7.8 3.8-12.9-1.2-3.3-1.4-5.1-.6-8.5.6-2.4 1.1-10 1.1-16.9.1-15.7.5-16.5 9.4-16.5 7.2 0 9.6-1.4 9.6-5.6 0-4.5-3.6-6.3-11.4-5.5-6.2.6-6.4.6-7.4-2.1-.7-1.6-1.9-7.5-2.8-13.3-2.6-17-6.2-23.1-12.9-21.4-3.3.8-5.3 6.4-6.1 17.3-.7 8.6-.9 9.3-3.8 11.8-7 5.9-15.5 7-21 2.8-9.3-7.1-18.3-7.2-38.9-.6-19.2 6.2-26.6 7.1-33.3 4.2-6.2-2.8-7.9-4.3-12.6-11.5-4.6-7.2-4.8-10.4-.8-14.9 1.7-1.9 3-4 3-4.6 0-1.8-7.6-6.2-11.7-6.7-3-.4-4.9.2-9.1 2.6-2.9 1.7-5.6 3.8-5.9 4.6-.3.9 1 2.9 3.5 5.2 7.1 6.6 7.6 11 2.1 18.7-2.9 4-3.5 4.3-11.2 5.8-76.6 15.2-169.4 26.7-253.2 31.3-40.7 2.3-108.4 2.3-142.4 0-75.1-4.9-123.4-13.5-174.1-30.7-24.3-8.2-63.4-25.6-111.5-49.4-17.1-8.5-34.6-16.7-39-18.4-4.4-1.6-8.8-3.2-9.7-3.6-1.2-.5-2-.2-2.4.8zm870.2 93.3c2 1.5 3.2 3.6 4.1 7.5 2.4 10 4.7 17.4 5.9 19.3 1.2 1.8.2 2.7-12.6 11.2-7.6 5.1-17.6 12.1-22.2 15.5-13.3 9.9-17.2 11.4-30.3 11.4-10.4 0-11.3-.2-17.1-3.2-8.3-4.3-22.3-15-23.4-17.8-.5-1.3-1.8-2.6-2.9-3-1.1-.3-3-1.8-4.1-3.2-4.2-5.3-1.6-14.6 6.5-23.2 8.5-9 16.3-10.9 32.1-7.6 15.5 3.2 21.3 3.6 27.8 2 6.2-1.6 16-7.4 17-10.2 1-2.4 15.6-1.5 19.2 1.3z" fill="#000" stroke="none" id="unique-id_5761_27"></path></g></mask><mask id="mask_24"><g fill="#fff" stroke="none" stroke-width="0" transform="translate(-36.94915771484375,-64.29290771484375)" id="unique-id_5762_28"><path d="M37.4 65.3c-2.5 6.7 12.3 27 28.9 39.5 48.8 36.7 113.9 66.4 180 82.2 24.7 5.9 43.8 8.8 78.2 11.9 42.6 3.9 60.7 4.6 119.5 4.6 66.4 0 82.6-.9 159.5-8.6 51.7-5.1 70.5-6.9 100-9.4 43.3-3.5 70.4-5.5 76.7-5.5 6.2 0 6.8.2 9.2 3.1 3.9 4.6 3.5 8.7-1.4 14.5-3.8 4.3-4 4.8-2.7 6.8 3.6 5.3 13.5 7.6 21 4.7 2.7-1 3.2-.7 9.2 5.2 20.2 20 46.2 20.7 70.8 1.9 19-14.5 29-21.2 31.5-21.2.5 0 .7 1.9.5 4.3-.4 3.2-.1 4.8 1.2 6 2.4 2.4 3.3 2.2 7.2-2 5-5.2 5.7-7.8 3.8-12.9-1.2-3.3-1.4-5.1-.6-8.5.6-2.4 1.1-10 1.1-16.9.1-15.7.5-16.5 9.4-16.5 7.2 0 9.6-1.4 9.6-5.6 0-4.5-3.6-6.3-11.4-5.5-6.2.6-6.4.6-7.4-2.1-.7-1.6-1.9-7.5-2.8-13.3-2.6-17-6.2-23.1-12.9-21.4-3.3.8-5.3 6.4-6.1 17.3-.7 8.6-.9 9.3-3.8 11.8-7 5.9-15.5 7-21 2.8-9.3-7.1-18.3-7.2-38.9-.6-19.2 6.2-26.6 7.1-33.3 4.2-6.2-2.8-7.9-4.3-12.6-11.5-4.6-7.2-4.8-10.4-.8-14.9 1.7-1.9 3-4 3-4.6 0-1.8-7.6-6.2-11.7-6.7-3-.4-4.9.2-9.1 2.6-2.9 1.7-5.6 3.8-5.9 4.6-.3.9 1 2.9 3.5 5.2 7.1 6.6 7.6 11 2.1 18.7-2.9 4-3.5 4.3-11.2 5.8-76.6 15.2-169.4 26.7-253.2 31.3-40.7 2.3-108.4 2.3-142.4 0-75.1-4.9-123.4-13.5-174.1-30.7-24.3-8.2-63.4-25.6-111.5-49.4-17.1-8.5-34.6-16.7-39-18.4-4.4-1.6-8.8-3.2-9.7-3.6-1.2-.5-2-.2-2.4.8zm870.2 93.3c2 1.5 3.2 3.6 4.1 7.5 2.4 10 4.7 17.4 5.9 19.3 1.2 1.8.2 2.7-12.6 11.2-7.6 5.1-17.6 12.1-22.2 15.5-13.3 9.9-17.2 11.4-30.3 11.4-10.4 0-11.3-.2-17.1-3.2-8.3-4.3-22.3-15-23.4-17.8-.5-1.3-1.8-2.6-2.9-3-1.1-.3-3-1.8-4.1-3.2-4.2-5.3-1.6-14.6 6.5-23.2 8.5-9 16.3-10.9 32.1-7.6 15.5 3.2 21.3 3.6 27.8 2 6.2-1.6 16-7.4 17-10.2 1-2.4 15.6-1.5 19.2 1.3z" fill="#fff" stroke="none" id="unique-id_5761_29"></path></g></mask><mask id="mask_25"><g fill="#fff" stroke="none" stroke-width="0" transform="translate(-36.94915771484375,-64.29290771484375)" id="unique-id_5762_30"><path d="M37.4 65.3c-2.5 6.7 12.3 27 28.9 39.5 48.8 36.7 113.9 66.4 180 82.2 24.7 5.9 43.8 8.8 78.2 11.9 42.6 3.9 60.7 4.6 119.5 4.6 66.4 0 82.6-.9 159.5-8.6 51.7-5.1 70.5-6.9 100-9.4 43.3-3.5 70.4-5.5 76.7-5.5 6.2 0 6.8.2 9.2 3.1 3.9 4.6 3.5 8.7-1.4 14.5-3.8 4.3-4 4.8-2.7 6.8 3.6 5.3 13.5 7.6 21 4.7 2.7-1 3.2-.7 9.2 5.2 20.2 20 46.2 20.7 70.8 1.9 19-14.5 29-21.2 31.5-21.2.5 0 .7 1.9.5 4.3-.4 3.2-.1 4.8 1.2 6 2.4 2.4 3.3 2.2 7.2-2 5-5.2 5.7-7.8 3.8-12.9-1.2-3.3-1.4-5.1-.6-8.5.6-2.4 1.1-10 1.1-16.9.1-15.7.5-16.5 9.4-16.5 7.2 0 9.6-1.4 9.6-5.6 0-4.5-3.6-6.3-11.4-5.5-6.2.6-6.4.6-7.4-2.1-.7-1.6-1.9-7.5-2.8-13.3-2.6-17-6.2-23.1-12.9-21.4-3.3.8-5.3 6.4-6.1 17.3-.7 8.6-.9 9.3-3.8 11.8-7 5.9-15.5 7-21 2.8-9.3-7.1-18.3-7.2-38.9-.6-19.2 6.2-26.6 7.1-33.3 4.2-6.2-2.8-7.9-4.3-12.6-11.5-4.6-7.2-4.8-10.4-.8-14.9 1.7-1.9 3-4 3-4.6 0-1.8-7.6-6.2-11.7-6.7-3-.4-4.9.2-9.1 2.6-2.9 1.7-5.6 3.8-5.9 4.6-.3.9 1 2.9 3.5 5.2 7.1 6.6 7.6 11 2.1 18.7-2.9 4-3.5 4.3-11.2 5.8-76.6 15.2-169.4 26.7-253.2 31.3-40.7 2.3-108.4 2.3-142.4 0-75.1-4.9-123.4-13.5-174.1-30.7-24.3-8.2-63.4-25.6-111.5-49.4-17.1-8.5-34.6-16.7-39-18.4-4.4-1.6-8.8-3.2-9.7-3.6-1.2-.5-2-.2-2.4.8zm870.2 93.3c2 1.5 3.2 3.6 4.1 7.5 2.4 10 4.7 17.4 5.9 19.3 1.2 1.8.2 2.7-12.6 11.2-7.6 5.1-17.6 12.1-22.2 15.5-13.3 9.9-17.2 11.4-30.3 11.4-10.4 0-11.3-.2-17.1-3.2-8.3-4.3-22.3-15-23.4-17.8-.5-1.3-1.8-2.6-2.9-3-1.1-.3-3-1.8-4.1-3.2-4.2-5.3-1.6-14.6 6.5-23.2 8.5-9 16.3-10.9 32.1-7.6 15.5 3.2 21.3 3.6 27.8 2 6.2-1.6 16-7.4 17-10.2 1-2.4 15.6-1.5 19.2 1.3z" fill="#fff" stroke="none" id="unique-id_5761_31"></path></g></mask></defs><g transform="translate(50,59.967935)rotate(-35.000000000000014)scale(-0.08757655607291255,0.08757655607291255)translate(-456.74324035644526,-82.92198181152342)"><g></g><metadata xmlns:rdf="http://www.w3.org/1999/02/22-rdf-syntax-ns#" xmlns:cc="http://creativecommons.org/ns#" xmlns:dc="http://purl.org/dc/elements/1.1/"><rdf:RDF><rdf:Description dc:title="DIVYRAJSINH SARVAIYA" dc:creator="bapusarvaiya"></rdf:Description><cc:Work rdf:about="https://heraldicon.org/charges/13jSw7/16"><cc:license rdf:resource="https://creativecommons.org/publicdomain/mark/1.0/"></cc:license><cc:attributionName>DIVYRAJSINH SARVAIYA by bapusarvaiya</cc:attributionName><cc:attributionURL rdf:resource="https://heraldicon.org/users/bapusarvaiya"></cc:attributionURL></cc:Work><cc:License rdf:about="https://creativecommons.org/publicdomain/mark/1.0/"></cc:License></rdf:RDF></metadata><g><g><g mask="url(#mask_25)"><rect transform="translate(456.74324035644526,82.92198181152342)scale(-11.418581008911131,11.418581008911131)rotate(35.000000000000014)translate(-50,-59.967935)" x="-500" y="-500" width="1100" height="1100" fill="#333333"></rect></g><g mask="url(#mask_24)"><g transform="translate(456.74324035644526,82.92198181152342)scale(-11.418581008911131,11.418581008911131)rotate(35.000000000000014)translate(-50,-59.967935)"><rect y="-1000" fill="#f6f6f6" width="2000" x="-1000" height="2000"></rect><g></g></g></g><g mask="url(#mask_23)"><g fill="#333333" stroke="none" stroke-width="0" transform="translate(-36.94915771484375,-64.29290771484375)" id="unique-id_5762_32"><path d="M37.4 65.3c-2.5 6.7 12.3 27 28.9 39.5 48.8 36.7 113.9 66.4 180 82.2 24.7 5.9 43.8 8.8 78.2 11.9 42.6 3.9 60.7 4.6 119.5 4.6 66.4 0 82.6-.9 159.5-8.6 51.7-5.1 70.5-6.9 100-9.4 43.3-3.5 70.4-5.5 76.7-5.5 6.2 0 6.8.2 9.2 3.1 3.9 4.6 3.5 8.7-1.4 14.5-3.8 4.3-4 4.8-2.7 6.8 3.6 5.3 13.5 7.6 21 4.7 2.7-1 3.2-.7 9.2 5.2 20.2 20 46.2 20.7 70.8 1.9 19-14.5 29-21.2 31.5-21.2.5 0 .7 1.9.5 4.3-.4 3.2-.1 4.8 1.2 6 2.4 2.4 3.3 2.2 7.2-2 5-5.2 5.7-7.8 3.8-12.9-1.2-3.3-1.4-5.1-.6-8.5.6-2.4 1.1-10 1.1-16.9.1-15.7.5-16.5 9.4-16.5 7.2 0 9.6-1.4 9.6-5.6 0-4.5-3.6-6.3-11.4-5.5-6.2.6-6.4.6-7.4-2.1-.7-1.6-1.9-7.5-2.8-13.3-2.6-17-6.2-23.1-12.9-21.4-3.3.8-5.3 6.4-6.1 17.3-.7 8.6-.9 9.3-3.8 11.8-7 5.9-15.5 7-21 2.8-9.3-7.1-18.3-7.2-38.9-.6-19.2 6.2-26.6 7.1-33.3 4.2-6.2-2.8-7.9-4.3-12.6-11.5-4.6-7.2-4.8-10.4-.8-14.9 1.7-1.9 3-4 3-4.6 0-1.8-7.6-6.2-11.7-6.7-3-.4-4.9.2-9.1 2.6-2.9 1.7-5.6 3.8-5.9 4.6-.3.9 1 2.9 3.5 5.2 7.1 6.6 7.6 11 2.1 18.7-2.9 4-3.5 4.3-11.2 5.8-76.6 15.2-169.4 26.7-253.2 31.3-40.7 2.3-108.4 2.3-142.4 0-75.1-4.9-123.4-13.5-174.1-30.7-24.3-8.2-63.4-25.6-111.5-49.4-17.1-8.5-34.6-16.7-39-18.4-4.4-1.6-8.8-3.2-9.7-3.6-1.2-.5-2-.2-2.4.8zm870.2 93.3c2 1.5 3.2 3.6 4.1 7.5 2.4 10 4.7 17.4 5.9 19.3 1.2 1.8.2 2.7-12.6 11.2-7.6 5.1-17.6 12.1-22.2 15.5-13.3 9.9-17.2 11.4-30.3 11.4-10.4 0-11.3-.2-17.1-3.2-8.3-4.3-22.3-15-23.4-17.8-.5-1.3-1.8-2.6-2.9-3-1.1-.3-3-1.8-4.1-3.2-4.2-5.3-1.6-14.6 6.5-23.2 8.5-9 16.3-10.9 32.1-7.6 15.5 3.2 21.3 3.6 27.8 2 6.2-1.6 16-7.4 17-10.2 1-2.4 15.6-1.5 19.2 1.3z" fill="#333333" stroke="none" id="unique-id_5761_33"></path></g></g></g></g></g></g></g></g></g></svg>