<svg viewBox="-10 -10 1020 1219.3587" xmlns="http://www.w3.org/2000/svg" xmlns:xlink="http://www.w3.org/1999/xlink" version="1.1" width="1020" height="1219.3587"><style></style><g transform="translate(500,599.67935)scale(10,10)translate(-50,-59.967935)" style="transition:transform 0.5s"><g><g></g></g><g transform="translate(0,0)" style="transition:transform 0.5s"></g><g style="transition:transform 0.5s"><g><metadata xmlns:rdf="http://www.w3.org/1999/02/22-rdf-syntax-ns#" xmlns:cc="http://creativecommons.org/ns#" xmlns:dc="http://purl.org/dc/elements/1.1/"><rdf:RDF><rdf:Description dc:title="Rahadoum" dc:creator="kosen"></rdf:Description><cc:Work rdf:about="https://heraldicon.org/arms/4X9hKQ/2"><cc:license rdf:resource="private"></cc:license><cc:attributionName>Rahadoum by kosen</cc:attributionName><cc:attributionURL rdf:resource="https://heraldicon.org/users/kosen"></cc:attributionURL></cc:Work><cc:License rdf:about="private"></cc:License></rdf:RDF></metadata><defs><pattern width="20" height="20" patternUnits="userSpaceOnUse" id="void"><rect x="0" y="0" width="20" height="20" fill="#fff" class="light"></rect><rect x="0" y="0" width="10" height="10" fill="#ddd" class="dark"></rect><rect x="10" y="10" width="10" height="10" fill="#ddd" class="dark"></rect></pattern><pattern width="4" height="4" patternUnits="userSpaceOnUse" id="selected"><rect x="0" y="0" width="4" height="4" fill="#f5f5f5"></rect><g fill="#000"><circle cx="0" cy="0" r="0.3"></circle><circle cx="4" cy="0" r="0.3"></circle><circle cx="0" cy="4" r="0.3"></circle><circle cx="4" cy="4" r="0.3"></circle><circle cx="2" cy="2" r="0.3"></circle></g></pattern><pattern id="ermine" width="12.5" height="20" patternUnits="userSpaceOnUse" x="-3.125" y="-5"><rect x="0" y="0" width="12.5" height="20" fill="#f6f6f6"></rect><g fill="#333333"><path d="M 47.757634,0 C 60.324696,15.689314 25.136924,21.898666 44.167046,36.607392
    52.24587,41.673746 71.273896,30.723464 54.57765,17.322176
    52.423302,16.178163 62.11999,8.3349512 47.757634,0 Z m 21.182372,36.935142 c
    -3.23154,0.326846 -6.282816,2.290268 -9.155302,7.193166 -3.590588,8.33495
    12.209402,22.716724 22.98117,5.06625 C 83.483996,47.069952 94.0755,53.93163
    100,39.386326 89.946316,49.845864 79.713166,37.425428 70.377642,36.935142 Z
    M 29.80469,37.099022 C 20.469164,37.58931 10.053647,50.173186 0,39.55021
    5.9244804,54.095512 16.51881,47.070414 17.416458,49.358438 28.0087,67.008916
    43.805884,52.627142 40.215296,44.292192 36.983772,38.73555 33.395278,36.9356
    29.80469,37.099026 Z m 21.003542,10.13249 c -8.25835,37.262136
    -23.51556,63.576958 -40.211787,82.534868 7.001653,-1.96117
    14.718613,-7.19213 22.258843,-11.93164 -4.667764,9.80582 -9.154602,18.14082
    -13.822364,26.80264 2.692942,-0.98059 11.489886,-9.64435 23.338826,-22.3919
    1.795296,17.48703 4.305204,25.8241 8.07532,37.75452 3.052012,-11.93042
    5.208468,-19.9411 7.54234,-37.9184 7.181178,8.00805 14.001888,16.17984
    23.696484,23.04393 L 68.221186,117.34659 c 7.001634,4.41265
    14.72282,10.29262 22.083522,12.74406 C 72.710832,110.15215
    57.989412,84.493648 50.808232,47.231516 Z" transform="scale(0.0625,0.0625)"></path><path d="M 47.757634,0 C 60.324696,15.689314 25.136924,21.898666 44.167046,36.607392
    52.24587,41.673746 71.273896,30.723464 54.57765,17.322176
    52.423302,16.178163 62.11999,8.3349512 47.757634,0 Z m 21.182372,36.935142 c
    -3.23154,0.326846 -6.282816,2.290268 -9.155302,7.193166 -3.590588,8.33495
    12.209402,22.716724 22.98117,5.06625 C 83.483996,47.069952 94.0755,53.93163
    100,39.386326 89.946316,49.845864 79.713166,37.425428 70.377642,36.935142 Z
    M 29.80469,37.099022 C 20.469164,37.58931 10.053647,50.173186 0,39.55021
    5.9244804,54.095512 16.51881,47.070414 17.416458,49.358438 28.0087,67.008916
    43.805884,52.627142 40.215296,44.292192 36.983772,38.73555 33.395278,36.9356
    29.80469,37.099026 Z m 21.003542,10.13249 c -8.25835,37.262136
    -23.51556,63.576958 -40.211787,82.534868 7.001653,-1.96117
    14.718613,-7.19213 22.258843,-11.93164 -4.667764,9.80582 -9.154602,18.14082
    -13.822364,26.80264 2.692942,-0.98059 11.489886,-9.64435 23.338826,-22.3919
    1.795296,17.48703 4.305204,25.8241 8.07532,37.75452 3.052012,-11.93042
    5.208468,-19.9411 7.54234,-37.9184 7.181178,8.00805 14.001888,16.17984
    23.696484,23.04393 L 68.221186,117.34659 c 7.001634,4.41265
    14.72282,10.29262 22.083522,12.74406 C 72.710832,110.15215
    57.989412,84.493648 50.808232,47.231516 Z" transform="translate(6.25,10) scale(0.0625,0.0625)"></path></g></pattern><pattern id="ermines" width="12.5" height="20" patternUnits="userSpaceOnUse" x="-3.125" y="-5"><rect x="0" y="0" width="12.5" height="20" fill="#333333"></rect><g fill="#f6f6f6"><path d="M 47.757634,0 C 60.324696,15.689314 25.136924,21.898666 44.167046,36.607392
    52.24587,41.673746 71.273896,30.723464 54.57765,17.322176
    52.423302,16.178163 62.11999,8.3349512 47.757634,0 Z m 21.182372,36.935142 c
    -3.23154,0.326846 -6.282816,2.290268 -9.155302,7.193166 -3.590588,8.33495
    12.209402,22.716724 22.98117,5.06625 C 83.483996,47.069952 94.0755,53.93163
    100,39.386326 89.946316,49.845864 79.713166,37.425428 70.377642,36.935142 Z
    M 29.80469,37.099022 C 20.469164,37.58931 10.053647,50.173186 0,39.55021
    5.9244804,54.095512 16.51881,47.070414 17.416458,49.358438 28.0087,67.008916
    43.805884,52.627142 40.215296,44.292192 36.983772,38.73555 33.395278,36.9356
    29.80469,37.099026 Z m 21.003542,10.13249 c -8.25835,37.262136
    -23.51556,63.576958 -40.211787,82.534868 7.001653,-1.96117
    14.718613,-7.19213 22.258843,-11.93164 -4.667764,9.80582 -9.154602,18.14082
    -13.822364,26.80264 2.692942,-0.98059 11.489886,-9.64435 23.338826,-22.3919
    1.795296,17.48703 4.305204,25.8241 8.07532,37.75452 3.052012,-11.93042
    5.208468,-19.9411 7.54234,-37.9184 7.181178,8.00805 14.001888,16.17984
    23.696484,23.04393 L 68.221186,117.34659 c 7.001634,4.41265
    14.72282,10.29262 22.083522,12.74406 C 72.710832,110.15215
    57.989412,84.493648 50.808232,47.231516 Z" transform="scale(0.0625,0.0625)"></path><path d="M 47.757634,0 C 60.324696,15.689314 25.136924,21.898666 44.167046,36.607392
    52.24587,41.673746 71.273896,30.723464 54.57765,17.322176
    52.423302,16.178163 62.11999,8.3349512 47.757634,0 Z m 21.182372,36.935142 c
    -3.23154,0.326846 -6.282816,2.290268 -9.155302,7.193166 -3.590588,8.33495
    12.209402,22.716724 22.98117,5.06625 C 83.483996,47.069952 94.0755,53.93163
    100,39.386326 89.946316,49.845864 79.713166,37.425428 70.377642,36.935142 Z
    M 29.80469,37.099022 C 20.469164,37.58931 10.053647,50.173186 0,39.55021
    5.9244804,54.095512 16.51881,47.070414 17.416458,49.358438 28.0087,67.008916
    43.805884,52.627142 40.215296,44.292192 36.983772,38.73555 33.395278,36.9356
    29.80469,37.099026 Z m 21.003542,10.13249 c -8.25835,37.262136
    -23.51556,63.576958 -40.211787,82.534868 7.001653,-1.96117
    14.718613,-7.19213 22.258843,-11.93164 -4.667764,9.80582 -9.154602,18.14082
    -13.822364,26.80264 2.692942,-0.98059 11.489886,-9.64435 23.338826,-22.3919
    1.795296,17.48703 4.305204,25.8241 8.07532,37.75452 3.052012,-11.93042
    5.208468,-19.9411 7.54234,-37.9184 7.181178,8.00805 14.001888,16.17984
    23.696484,23.04393 L 68.221186,117.34659 c 7.001634,4.41265
    14.72282,10.29262 22.083522,12.74406 C 72.710832,110.15215
    57.989412,84.493648 50.808232,47.231516 Z" transform="translate(6.25,10) scale(0.0625,0.0625)"></path></g></pattern><pattern id="erminois" width="12.5" height="20" patternUnits="userSpaceOnUse" x="-3.125" y="-5"><rect x="0" y="0" width="12.5" height="20" fill="#f2bc51"></rect><g fill="#333333"><path d="M 47.757634,0 C 60.324696,15.689314 25.136924,21.898666 44.167046,36.607392
    52.24587,41.673746 71.273896,30.723464 54.57765,17.322176
    52.423302,16.178163 62.11999,8.3349512 47.757634,0 Z m 21.182372,36.935142 c
    -3.23154,0.326846 -6.282816,2.290268 -9.155302,7.193166 -3.590588,8.33495
    12.209402,22.716724 22.98117,5.06625 C 83.483996,47.069952 94.0755,53.93163
    100,39.386326 89.946316,49.845864 79.713166,37.425428 70.377642,36.935142 Z
    M 29.80469,37.099022 C 20.469164,37.58931 10.053647,50.173186 0,39.55021
    5.9244804,54.095512 16.51881,47.070414 17.416458,49.358438 28.0087,67.008916
    43.805884,52.627142 40.215296,44.292192 36.983772,38.73555 33.395278,36.9356
    29.80469,37.099026 Z m 21.003542,10.13249 c -8.25835,37.262136
    -23.51556,63.576958 -40.211787,82.534868 7.001653,-1.96117
    14.718613,-7.19213 22.258843,-11.93164 -4.667764,9.80582 -9.154602,18.14082
    -13.822364,26.80264 2.692942,-0.98059 11.489886,-9.64435 23.338826,-22.3919
    1.795296,17.48703 4.305204,25.8241 8.07532,37.75452 3.052012,-11.93042
    5.208468,-19.9411 7.54234,-37.9184 7.181178,8.00805 14.001888,16.17984
    23.696484,23.04393 L 68.221186,117.34659 c 7.001634,4.41265
    14.72282,10.29262 22.083522,12.74406 C 72.710832,110.15215
    57.989412,84.493648 50.808232,47.231516 Z" transform="scale(0.0625,0.0625)"></path><path d="M 47.757634,0 C 60.324696,15.689314 25.136924,21.898666 44.167046,36.607392
    52.24587,41.673746 71.273896,30.723464 54.57765,17.322176
    52.423302,16.178163 62.11999,8.3349512 47.757634,0 Z m 21.182372,36.935142 c
    -3.23154,0.326846 -6.282816,2.290268 -9.155302,7.193166 -3.590588,8.33495
    12.209402,22.716724 22.98117,5.06625 C 83.483996,47.069952 94.0755,53.93163
    100,39.386326 89.946316,49.845864 79.713166,37.425428 70.377642,36.935142 Z
    M 29.80469,37.099022 C 20.469164,37.58931 10.053647,50.173186 0,39.55021
    5.9244804,54.095512 16.51881,47.070414 17.416458,49.358438 28.0087,67.008916
    43.805884,52.627142 40.215296,44.292192 36.983772,38.73555 33.395278,36.9356
    29.80469,37.099026 Z m 21.003542,10.13249 c -8.25835,37.262136
    -23.51556,63.576958 -40.211787,82.534868 7.001653,-1.96117
    14.718613,-7.19213 22.258843,-11.93164 -4.667764,9.80582 -9.154602,18.14082
    -13.822364,26.80264 2.692942,-0.98059 11.489886,-9.64435 23.338826,-22.3919
    1.795296,17.48703 4.305204,25.8241 8.07532,37.75452 3.052012,-11.93042
    5.208468,-19.9411 7.54234,-37.9184 7.181178,8.00805 14.001888,16.17984
    23.696484,23.04393 L 68.221186,117.34659 c 7.001634,4.41265
    14.72282,10.29262 22.083522,12.74406 C 72.710832,110.15215
    57.989412,84.493648 50.808232,47.231516 Z" transform="translate(6.25,10) scale(0.0625,0.0625)"></path></g></pattern><pattern id="pean" width="12.5" height="20" patternUnits="userSpaceOnUse" x="-3.125" y="-5"><rect x="0" y="0" width="12.5" height="20" fill="#333333"></rect><g fill="#f2bc51"><path d="M 47.757634,0 C 60.324696,15.689314 25.136924,21.898666 44.167046,36.607392
    52.24587,41.673746 71.273896,30.723464 54.57765,17.322176
    52.423302,16.178163 62.11999,8.3349512 47.757634,0 Z m 21.182372,36.935142 c
    -3.23154,0.326846 -6.282816,2.290268 -9.155302,7.193166 -3.590588,8.33495
    12.209402,22.716724 22.98117,5.06625 C 83.483996,47.069952 94.0755,53.93163
    100,39.386326 89.946316,49.845864 79.713166,37.425428 70.377642,36.935142 Z
    M 29.80469,37.099022 C 20.469164,37.58931 10.053647,50.173186 0,39.55021
    5.9244804,54.095512 16.51881,47.070414 17.416458,49.358438 28.0087,67.008916
    43.805884,52.627142 40.215296,44.292192 36.983772,38.73555 33.395278,36.9356
    29.80469,37.099026 Z m 21.003542,10.13249 c -8.25835,37.262136
    -23.51556,63.576958 -40.211787,82.534868 7.001653,-1.96117
    14.718613,-7.19213 22.258843,-11.93164 -4.667764,9.80582 -9.154602,18.14082
    -13.822364,26.80264 2.692942,-0.98059 11.489886,-9.64435 23.338826,-22.3919
    1.795296,17.48703 4.305204,25.8241 8.07532,37.75452 3.052012,-11.93042
    5.208468,-19.9411 7.54234,-37.9184 7.181178,8.00805 14.001888,16.17984
    23.696484,23.04393 L 68.221186,117.34659 c 7.001634,4.41265
    14.72282,10.29262 22.083522,12.74406 C 72.710832,110.15215
    57.989412,84.493648 50.808232,47.231516 Z" transform="scale(0.0625,0.0625)"></path><path d="M 47.757634,0 C 60.324696,15.689314 25.136924,21.898666 44.167046,36.607392
    52.24587,41.673746 71.273896,30.723464 54.57765,17.322176
    52.423302,16.178163 62.11999,8.3349512 47.757634,0 Z m 21.182372,36.935142 c
    -3.23154,0.326846 -6.282816,2.290268 -9.155302,7.193166 -3.590588,8.33495
    12.209402,22.716724 22.98117,5.06625 C 83.483996,47.069952 94.0755,53.93163
    100,39.386326 89.946316,49.845864 79.713166,37.425428 70.377642,36.935142 Z
    M 29.80469,37.099022 C 20.469164,37.58931 10.053647,50.173186 0,39.55021
    5.9244804,54.095512 16.51881,47.070414 17.416458,49.358438 28.0087,67.008916
    43.805884,52.627142 40.215296,44.292192 36.983772,38.73555 33.395278,36.9356
    29.80469,37.099026 Z m 21.003542,10.13249 c -8.25835,37.262136
    -23.51556,63.576958 -40.211787,82.534868 7.001653,-1.96117
    14.718613,-7.19213 22.258843,-11.93164 -4.667764,9.80582 -9.154602,18.14082
    -13.822364,26.80264 2.692942,-0.98059 11.489886,-9.64435 23.338826,-22.3919
    1.795296,17.48703 4.305204,25.8241 8.07532,37.75452 3.052012,-11.93042
    5.208468,-19.9411 7.54234,-37.9184 7.181178,8.00805 14.001888,16.17984
    23.696484,23.04393 L 68.221186,117.34659 c 7.001634,4.41265
    14.72282,10.29262 22.083522,12.74406 C 72.710832,110.15215
    57.989412,84.493648 50.808232,47.231516 Z" transform="translate(6.25,10) scale(0.0625,0.0625)"></path></g></pattern></defs><defs><mask id="mask_3"><path d="M50,0h50v33.33333c0,35.72656 -19.05989,68.73926 -50,86.60254c-30.94011,-17.86328 -50,-50.87598 -50,-86.60254v-33.33333z" clip-rule="evenodd" fill-rule="evenodd" fill="#fff" stroke="none"></path></mask></defs><g mask="url(#mask_3)"><g><g><path d="M50,0h50v33.33333c0,35.72656 -19.05989,68.73926 -50,86.60254c-30.94011,-17.86328 -50,-50.87598 -50,-86.60254v-33.33333z" fill-rule="evenodd" fill="#f0f0f0"></path><rect y="-1000" fill="#f2bc51" width="2000" x="-1000" height="2000"></rect><g></g></g></g></g><g stroke="#333333" stroke-width="0.5" fill="none" stroke-linecap="round" stroke-linejoin="round"><path d="M50,0h50v33.33333c0,35.72656 -19.05989,68.73926 -50,86.60254c-30.94011,-17.86328 -50,-50.87598 -50,-86.60254v-33.33333z"></path></g></g></g><g transform="translate(0,0)" style="transition:transform 0.5s"></g><g><g><g><defs><mask id="mask_8"><g fill="#fff" stroke="none" stroke-width="0" transform="translate(-74.5279541015625,-2.25)" id="unique-id_340_11"><path fill-rule="evenodd" stroke="#fff" fill="#000" stroke-linejoin="miter" stroke-linecap="butt" stroke-width="2.15956757" id="unique-id_337_12" d="M191.062 110.806c.92-2.947 2.241-10.8 2.996-12.882 1.917-5.29 17.87-13.403 22.339-11.914 4.467 1.49-1.49 14.892-1.49 20.85 0 5.956 7.446 22.338 7.446 29.784 0 7.446-1.668 44.617-1.668 55.041 0 10.425-13.403 18.283-16.382 27.219-2.978 8.935-11.734 14.832-13.223 26.746-3.1 14.661-1.876 15.252 1.09 32.254-.798 3.511-64.457 14.574-92.065-1.572 2.971-12.834 3.237-19.805.905-37.058-8.303-16.353-12.637-30.164-16.85-41.748-4.211-11.583-7.37-35.733-7.37-45.211 0-9.477 2.231-49.842.345-59.189-4.867-24.114 4.92-32.952 10.185-32.952 11.363 4.063 8.313 19.367 8.95 31.064 1.766 9.17 1.059 14.383 3.558 35.857-1.58-11.825-.398-19.828-.744-32.298 1.096-16.514-.106-14.863 1.016-29.464 1.412-14.07-3.227-50.043 14.178-53.6 11.588-2.614 12.686 23.685 12.53 43.175 1.452 8.373 1.499 17.624 1.054 27.906.541 12.222.439 17.599.527 28.959.328-11.76-.87-21.71.308-34.48 1.263-14.768 2.701-17.094 1.978-33.058 1.053-6.319-1.638-41.016 16.466-40.708 14.6 4.842 8.836 24.394 9.68 41.377 0 12.676.648 20.938.218 35.022 0 0-.064 15.362-1.271 30.816 1.22-15.925.588-20.673 1.08-31.278 1.718-12.657 1.839-12.392 3.104-24.43-.236-36.09 7.94-39.866 13.717-39.615 14.358.625 13.163 22.114 13.163 43.175 1.053 7.626.527 16.11 0 27.822 0 6.61 4.23 24.39 4.23 24.39z" stroke-miterlimit="4"></path><path fill="none" stroke="#fff" stroke-width="2.15956757" stroke-linecap="butt" stroke-linejoin="miter" stroke-miterlimit="4" d="M132.04 240.382s-13.593 1.626-22.426-1.967M184.822 242.533c-9.429 2.312-26.365-1.532-30.737-8.81M183.047 115.575c-8.763-3.286-14.24-4.381-20.812-3.286M150.186 114.295c-6.572-1.095-8.762-1.095-14.24 0" id="unique-id_338_13"></path><path fill-rule="evenodd" stroke="#fff" fill="#000" stroke-linejoin="miter" stroke-linecap="butt" stroke-width="2.15956757" id="unique-id_339_14" d="M122.802 116.486c-7.667 1.096-12.048 4.382-16.43 5.477M95.418 127.624c-5.476 3.287-7.667 4.382-13.144 5.477M190.89 110.922c-2.585 10.732 1.608 18.88 1.608 24.837 0 5.957-4.467 32.763-4.467 32.763l1.489-10.425s-20.85 1.49-28.295 7.446c-7.446 5.957-16.382 34.253-13.403 53.612" stroke-miterlimit="4"></path></g></mask><mask id="mask_9"><g fill="#000" stroke="none" stroke-width="0" transform="translate(-74.5279541015625,-2.25)" id="unique-id_340_15"><path fill-rule="evenodd" stroke="#000" fill="#fff" stroke-linejoin="miter" stroke-linecap="butt" stroke-width="2.15956757" id="unique-id_337_16" d="M191.062 110.806c.92-2.947 2.241-10.8 2.996-12.882 1.917-5.29 17.87-13.403 22.339-11.914 4.467 1.49-1.49 14.892-1.49 20.85 0 5.956 7.446 22.338 7.446 29.784 0 7.446-1.668 44.617-1.668 55.041 0 10.425-13.403 18.283-16.382 27.219-2.978 8.935-11.734 14.832-13.223 26.746-3.1 14.661-1.876 15.252 1.09 32.254-.798 3.511-64.457 14.574-92.065-1.572 2.971-12.834 3.237-19.805.905-37.058-8.303-16.353-12.637-30.164-16.85-41.748-4.211-11.583-7.37-35.733-7.37-45.211 0-9.477 2.231-49.842.345-59.189-4.867-24.114 4.92-32.952 10.185-32.952 11.363 4.063 8.313 19.367 8.95 31.064 1.766 9.17 1.059 14.383 3.558 35.857-1.58-11.825-.398-19.828-.744-32.298 1.096-16.514-.106-14.863 1.016-29.464 1.412-14.07-3.227-50.043 14.178-53.6 11.588-2.614 12.686 23.685 12.53 43.175 1.452 8.373 1.499 17.624 1.054 27.906.541 12.222.439 17.599.527 28.959.328-11.76-.87-21.71.308-34.48 1.263-14.768 2.701-17.094 1.978-33.058 1.053-6.319-1.638-41.016 16.466-40.708 14.6 4.842 8.836 24.394 9.68 41.377 0 12.676.648 20.938.218 35.022 0 0-.064 15.362-1.271 30.816 1.22-15.925.588-20.673 1.08-31.278 1.718-12.657 1.839-12.392 3.104-24.43-.236-36.09 7.94-39.866 13.717-39.615 14.358.625 13.163 22.114 13.163 43.175 1.053 7.626.527 16.11 0 27.822 0 6.61 4.23 24.39 4.23 24.39z" stroke-miterlimit="4"></path><path fill="none" stroke="#000" stroke-width="2.15956757" stroke-linecap="butt" stroke-linejoin="miter" stroke-miterlimit="4" d="M132.04 240.382s-13.593 1.626-22.426-1.967M184.822 242.533c-9.429 2.312-26.365-1.532-30.737-8.81M183.047 115.575c-8.763-3.286-14.24-4.381-20.812-3.286M150.186 114.295c-6.572-1.095-8.762-1.095-14.24 0" id="unique-id_338_17"></path><path fill-rule="evenodd" stroke="#000" fill="#fff" stroke-linejoin="miter" stroke-linecap="butt" stroke-width="2.15956757" id="unique-id_339_18" d="M122.802 116.486c-7.667 1.096-12.048 4.382-16.43 5.477M95.418 127.624c-5.476 3.287-7.667 4.382-13.144 5.477M190.89 110.922c-2.585 10.732 1.608 18.88 1.608 24.837 0 5.957-4.467 32.763-4.467 32.763l1.489-10.425s-20.85 1.49-28.295 7.446c-7.446 5.957-16.382 34.253-13.403 53.612" stroke-miterlimit="4"></path></g></mask><mask id="mask_10"><g fill="#fff" stroke="none" stroke-width="0" transform="translate(-74.5279541015625,-2.25)" id="unique-id_340_19"><path fill-rule="evenodd" stroke="#fff" fill="#fff" stroke-linejoin="miter" stroke-linecap="butt" stroke-width="2.15956757" id="unique-id_337_20" d="M191.062 110.806c.92-2.947 2.241-10.8 2.996-12.882 1.917-5.29 17.87-13.403 22.339-11.914 4.467 1.49-1.49 14.892-1.49 20.85 0 5.956 7.446 22.338 7.446 29.784 0 7.446-1.668 44.617-1.668 55.041 0 10.425-13.403 18.283-16.382 27.219-2.978 8.935-11.734 14.832-13.223 26.746-3.1 14.661-1.876 15.252 1.09 32.254-.798 3.511-64.457 14.574-92.065-1.572 2.971-12.834 3.237-19.805.905-37.058-8.303-16.353-12.637-30.164-16.85-41.748-4.211-11.583-7.37-35.733-7.37-45.211 0-9.477 2.231-49.842.345-59.189-4.867-24.114 4.92-32.952 10.185-32.952 11.363 4.063 8.313 19.367 8.95 31.064 1.766 9.17 1.059 14.383 3.558 35.857-1.58-11.825-.398-19.828-.744-32.298 1.096-16.514-.106-14.863 1.016-29.464 1.412-14.07-3.227-50.043 14.178-53.6 11.588-2.614 12.686 23.685 12.53 43.175 1.452 8.373 1.499 17.624 1.054 27.906.541 12.222.439 17.599.527 28.959.328-11.76-.87-21.71.308-34.48 1.263-14.768 2.701-17.094 1.978-33.058 1.053-6.319-1.638-41.016 16.466-40.708 14.6 4.842 8.836 24.394 9.68 41.377 0 12.676.648 20.938.218 35.022 0 0-.064 15.362-1.271 30.816 1.22-15.925.588-20.673 1.08-31.278 1.718-12.657 1.839-12.392 3.104-24.43-.236-36.09 7.94-39.866 13.717-39.615 14.358.625 13.163 22.114 13.163 43.175 1.053 7.626.527 16.11 0 27.822 0 6.61 4.23 24.39 4.23 24.39z" stroke-miterlimit="4"></path><path fill="none" stroke="#fff" stroke-width="2.15956757" stroke-linecap="butt" stroke-linejoin="miter" stroke-miterlimit="4" d="M132.04 240.382s-13.593 1.626-22.426-1.967M184.822 242.533c-9.429 2.312-26.365-1.532-30.737-8.81M183.047 115.575c-8.763-3.286-14.24-4.381-20.812-3.286M150.186 114.295c-6.572-1.095-8.762-1.095-14.24 0" id="unique-id_338_21"></path><path fill-rule="evenodd" stroke="#fff" fill="#fff" stroke-linejoin="miter" stroke-linecap="butt" stroke-width="2.15956757" id="unique-id_339_22" d="M122.802 116.486c-7.667 1.096-12.048 4.382-16.43 5.477M95.418 127.624c-5.476 3.287-7.667 4.382-13.144 5.477M190.89 110.922c-2.585 10.732 1.608 18.88 1.608 24.837 0 5.957-4.467 32.763-4.467 32.763l1.489-10.425s-20.85 1.49-28.295 7.446c-7.446 5.957-16.382 34.253-13.403 53.612" stroke-miterlimit="4"></path></g></mask></defs><g transform="translate(50,59.967935)rotate(0)scale(0.29583414648464795,0.29583414648464795)translate(-74.49169921875001,-141.89556884765628)"><g></g><metadata xmlns:rdf="http://www.w3.org/1999/02/22-rdf-syntax-ns#" xmlns:cc="http://creativecommons.org/ns#" xmlns:dc="http://purl.org/dc/elements/1.1/"><rdf:RDF><rdf:Description dc:title="Hand" dc:creator="quivirus"></rdf:Description><cc:Work rdf:about="https://heraldicon.org/charges/Kbnreh/1"><cc:license rdf:resource="https://creativecommons.org/licenses/by-sa/4.0"></cc:license><cc:attributionName>Hand by quivirus</cc:attributionName><cc:attributionURL rdf:resource="https://heraldicon.org/users/quivirus"></cc:attributionURL></cc:Work><cc:License rdf:about="https://creativecommons.org/licenses/by-sa/4.0"><cc:permits rdf:resource="http://creativecommons.org/ns#Reproduction"></cc:permits><cc:permits rdf:resource="http://creativecommons.org/ns#DerivativeWorks"></cc:permits><cc:permits rdf:resource="http://creativecommons.org/ns#Distribution"></cc:permits><cc:requires rdf:resource="http://creativecommons.org/ns#Notice"></cc:requires><cc:requires rdf:resource="http://creativecommons.org/ns#Attribution"></cc:requires><cc:requires rdf:resource="http://creativecommons.org/ns#ShareAlike"></cc:requires></cc:License></rdf:RDF><rdf:RDF rdf:about="https://commons.wikimedia.org/wiki/File:Meuble_h%C3%A9raldique_Main.svg"><rdf:Description dc:title="File:Meuble héraldique Main.svg" dc:creator="Zigeuner"></rdf:Description><cc:Work rdf:about="https://commons.wikimedia.org/wiki/File:Meuble_h%C3%A9raldique_Main.svg"><cc:license rdf:resource="https://creativecommons.org/licenses/by-sa/3.0"></cc:license><cc:attributionName>Zigeuner</cc:attributionName><cc:attributionURL rdf:resource="https://commons.wikimedia.org/wiki/User:Zigeuner"></cc:attributionURL></cc:Work></rdf:RDF></metadata><g><g><g mask="url(#mask_10)"><rect transform="translate(74.49169921875001,141.89556884765628)scale(3.3802723988520174,3.3802723988520174)rotate(0)translate(-50,-59.967935)" x="-500" y="-500" width="1100" height="1100" fill="#333333"></rect></g><g mask="url(#mask_9)"><g transform="translate(74.49169921875001,141.89556884765628)scale(3.3802723988520174,3.3802723988520174)rotate(0)translate(-50,-59.967935)"><rect y="-1000" fill="#ddc595" width="2000" x="-1000" height="2000"></rect><g></g></g></g><g mask="url(#mask_8)"><g fill="#000000" stroke="none" stroke-width="0" transform="translate(-74.5279541015625,-2.25)" id="unique-id_340_23"><path fill-rule="evenodd" stroke="#000" fill="#333333" stroke-linejoin="miter" stroke-linecap="butt" stroke-width="2.15956757" id="unique-id_337_24" d="M191.062 110.806c.92-2.947 2.241-10.8 2.996-12.882 1.917-5.29 17.87-13.403 22.339-11.914 4.467 1.49-1.49 14.892-1.49 20.85 0 5.956 7.446 22.338 7.446 29.784 0 7.446-1.668 44.617-1.668 55.041 0 10.425-13.403 18.283-16.382 27.219-2.978 8.935-11.734 14.832-13.223 26.746-3.1 14.661-1.876 15.252 1.09 32.254-.798 3.511-64.457 14.574-92.065-1.572 2.971-12.834 3.237-19.805.905-37.058-8.303-16.353-12.637-30.164-16.85-41.748-4.211-11.583-7.37-35.733-7.37-45.211 0-9.477 2.231-49.842.345-59.189-4.867-24.114 4.92-32.952 10.185-32.952 11.363 4.063 8.313 19.367 8.95 31.064 1.766 9.17 1.059 14.383 3.558 35.857-1.58-11.825-.398-19.828-.744-32.298 1.096-16.514-.106-14.863 1.016-29.464 1.412-14.07-3.227-50.043 14.178-53.6 11.588-2.614 12.686 23.685 12.53 43.175 1.452 8.373 1.499 17.624 1.054 27.906.541 12.222.439 17.599.527 28.959.328-11.76-.87-21.71.308-34.48 1.263-14.768 2.701-17.094 1.978-33.058 1.053-6.319-1.638-41.016 16.466-40.708 14.6 4.842 8.836 24.394 9.68 41.377 0 12.676.648 20.938.218 35.022 0 0-.064 15.362-1.271 30.816 1.22-15.925.588-20.673 1.08-31.278 1.718-12.657 1.839-12.392 3.104-24.43-.236-36.09 7.94-39.866 13.717-39.615 14.358.625 13.163 22.114 13.163 43.175 1.053 7.626.527 16.11 0 27.822 0 6.61 4.23 24.39 4.23 24.39z" stroke-miterlimit="4"></path><path fill="none" stroke="#000" stroke-width="2.15956757" stroke-linecap="butt" stroke-linejoin="miter" stroke-miterlimit="4" d="M132.04 240.382s-13.593 1.626-22.426-1.967M184.822 242.533c-9.429 2.312-26.365-1.532-30.737-8.81M183.047 115.575c-8.763-3.286-14.24-4.381-20.812-3.286M150.186 114.295c-6.572-1.095-8.762-1.095-14.24 0" id="unique-id_338_25"></path><path fill-rule="evenodd" stroke="#000" fill="#333333" stroke-linejoin="miter" stroke-linecap="butt" stroke-width="2.15956757" id="unique-id_339_26" d="M122.802 116.486c-7.667 1.096-12.048 4.382-16.43 5.477M95.418 127.624c-5.476 3.287-7.667 4.382-13.144 5.477M190.89 110.922c-2.585 10.732 1.608 18.88 1.608 24.837 0 5.957-4.467 32.763-4.467 32.763l1.489-10.425s-20.85 1.49-28.295 7.446c-7.446 5.957-16.382 34.253-13.403 53.612" stroke-miterlimit="4"></path></g></g></g></g></g></g></g></g></g></svg>