<svg viewBox="-10 -10 1020 1219.3587" xmlns="http://www.w3.org/2000/svg" xmlns:xlink="http://www.w3.org/1999/xlink" version="1.1" width="1020" height="1219.3587"><style></style><g transform="translate(500,599.67935)scale(10,10)translate(-50,-59.967935)" style="transition:transform 0.5s"><g><g></g></g><g transform="translate(0,0)" style="transition:transform 0.5s"></g><g style="transition:transform 0.5s"><g><metadata xmlns:rdf="http://www.w3.org/1999/02/22-rdf-syntax-ns#" xmlns:cc="http://creativecommons.org/ns#" xmlns:dc="http://purl.org/dc/elements/1.1/"><rdf:RDF><rdf:Description dc:title="Razmiran" dc:creator="kosen"></rdf:Description><cc:Work rdf:about="https://heraldicon.org/arms/8ui4Bz/1"><cc:license rdf:resource="private"></cc:license><cc:attributionName>Razmiran by kosen</cc:attributionName><cc:attributionURL rdf:resource="https://heraldicon.org/users/kosen"></cc:attributionURL></cc:Work><cc:License rdf:about="private"></cc:License></rdf:RDF></metadata><defs><pattern width="20" height="20" patternUnits="userSpaceOnUse" id="void"><rect x="0" y="0" width="20" height="20" fill="#fff" class="light"></rect><rect x="0" y="0" width="10" height="10" fill="#ddd" class="dark"></rect><rect x="10" y="10" width="10" height="10" fill="#ddd" class="dark"></rect></pattern><pattern width="4" height="4" patternUnits="userSpaceOnUse" id="selected"><rect x="0" y="0" width="4" height="4" fill="#f5f5f5"></rect><g fill="#000"><circle cx="0" cy="0" r="0.3"></circle><circle cx="4" cy="0" r="0.3"></circle><circle cx="0" cy="4" r="0.3"></circle><circle cx="4" cy="4" r="0.3"></circle><circle cx="2" cy="2" r="0.3"></circle></g></pattern><pattern id="ermine" width="12.5" height="20" patternUnits="userSpaceOnUse" x="-3.125" y="-5"><rect x="0" y="0" width="12.5" height="20" fill="#f6f6f6"></rect><g fill="#333333"><path d="M 47.757634,0 C 60.324696,15.689314 25.136924,21.898666 44.167046,36.607392
    52.24587,41.673746 71.273896,30.723464 54.57765,17.322176
    52.423302,16.178163 62.11999,8.3349512 47.757634,0 Z m 21.182372,36.935142 c
    -3.23154,0.326846 -6.282816,2.290268 -9.155302,7.193166 -3.590588,8.33495
    12.209402,22.716724 22.98117,5.06625 C 83.483996,47.069952 94.0755,53.93163
    100,39.386326 89.946316,49.845864 79.713166,37.425428 70.377642,36.935142 Z
    M 29.80469,37.099022 C 20.469164,37.58931 10.053647,50.173186 0,39.55021
    5.9244804,54.095512 16.51881,47.070414 17.416458,49.358438 28.0087,67.008916
    43.805884,52.627142 40.215296,44.292192 36.983772,38.73555 33.395278,36.9356
    29.80469,37.099026 Z m 21.003542,10.13249 c -8.25835,37.262136
    -23.51556,63.576958 -40.211787,82.534868 7.001653,-1.96117
    14.718613,-7.19213 22.258843,-11.93164 -4.667764,9.80582 -9.154602,18.14082
    -13.822364,26.80264 2.692942,-0.98059 11.489886,-9.64435 23.338826,-22.3919
    1.795296,17.48703 4.305204,25.8241 8.07532,37.75452 3.052012,-11.93042
    5.208468,-19.9411 7.54234,-37.9184 7.181178,8.00805 14.001888,16.17984
    23.696484,23.04393 L 68.221186,117.34659 c 7.001634,4.41265
    14.72282,10.29262 22.083522,12.74406 C 72.710832,110.15215
    57.989412,84.493648 50.808232,47.231516 Z" transform="scale(0.0625,0.0625)"></path><path d="M 47.757634,0 C 60.324696,15.689314 25.136924,21.898666 44.167046,36.607392
    52.24587,41.673746 71.273896,30.723464 54.57765,17.322176
    52.423302,16.178163 62.11999,8.3349512 47.757634,0 Z m 21.182372,36.935142 c
    -3.23154,0.326846 -6.282816,2.290268 -9.155302,7.193166 -3.590588,8.33495
    12.209402,22.716724 22.98117,5.06625 C 83.483996,47.069952 94.0755,53.93163
    100,39.386326 89.946316,49.845864 79.713166,37.425428 70.377642,36.935142 Z
    M 29.80469,37.099022 C 20.469164,37.58931 10.053647,50.173186 0,39.55021
    5.9244804,54.095512 16.51881,47.070414 17.416458,49.358438 28.0087,67.008916
    43.805884,52.627142 40.215296,44.292192 36.983772,38.73555 33.395278,36.9356
    29.80469,37.099026 Z m 21.003542,10.13249 c -8.25835,37.262136
    -23.51556,63.576958 -40.211787,82.534868 7.001653,-1.96117
    14.718613,-7.19213 22.258843,-11.93164 -4.667764,9.80582 -9.154602,18.14082
    -13.822364,26.80264 2.692942,-0.98059 11.489886,-9.64435 23.338826,-22.3919
    1.795296,17.48703 4.305204,25.8241 8.07532,37.75452 3.052012,-11.93042
    5.208468,-19.9411 7.54234,-37.9184 7.181178,8.00805 14.001888,16.17984
    23.696484,23.04393 L 68.221186,117.34659 c 7.001634,4.41265
    14.72282,10.29262 22.083522,12.74406 C 72.710832,110.15215
    57.989412,84.493648 50.808232,47.231516 Z" transform="translate(6.25,10) scale(0.0625,0.0625)"></path></g></pattern><pattern id="ermines" width="12.5" height="20" patternUnits="userSpaceOnUse" x="-3.125" y="-5"><rect x="0" y="0" width="12.5" height="20" fill="#333333"></rect><g fill="#f6f6f6"><path d="M 47.757634,0 C 60.324696,15.689314 25.136924,21.898666 44.167046,36.607392
    52.24587,41.673746 71.273896,30.723464 54.57765,17.322176
    52.423302,16.178163 62.11999,8.3349512 47.757634,0 Z m 21.182372,36.935142 c
    -3.23154,0.326846 -6.282816,2.290268 -9.155302,7.193166 -3.590588,8.33495
    12.209402,22.716724 22.98117,5.06625 C 83.483996,47.069952 94.0755,53.93163
    100,39.386326 89.946316,49.845864 79.713166,37.425428 70.377642,36.935142 Z
    M 29.80469,37.099022 C 20.469164,37.58931 10.053647,50.173186 0,39.55021
    5.9244804,54.095512 16.51881,47.070414 17.416458,49.358438 28.0087,67.008916
    43.805884,52.627142 40.215296,44.292192 36.983772,38.73555 33.395278,36.9356
    29.80469,37.099026 Z m 21.003542,10.13249 c -8.25835,37.262136
    -23.51556,63.576958 -40.211787,82.534868 7.001653,-1.96117
    14.718613,-7.19213 22.258843,-11.93164 -4.667764,9.80582 -9.154602,18.14082
    -13.822364,26.80264 2.692942,-0.98059 11.489886,-9.64435 23.338826,-22.3919
    1.795296,17.48703 4.305204,25.8241 8.07532,37.75452 3.052012,-11.93042
    5.208468,-19.9411 7.54234,-37.9184 7.181178,8.00805 14.001888,16.17984
    23.696484,23.04393 L 68.221186,117.34659 c 7.001634,4.41265
    14.72282,10.29262 22.083522,12.74406 C 72.710832,110.15215
    57.989412,84.493648 50.808232,47.231516 Z" transform="scale(0.0625,0.0625)"></path><path d="M 47.757634,0 C 60.324696,15.689314 25.136924,21.898666 44.167046,36.607392
    52.24587,41.673746 71.273896,30.723464 54.57765,17.322176
    52.423302,16.178163 62.11999,8.3349512 47.757634,0 Z m 21.182372,36.935142 c
    -3.23154,0.326846 -6.282816,2.290268 -9.155302,7.193166 -3.590588,8.33495
    12.209402,22.716724 22.98117,5.06625 C 83.483996,47.069952 94.0755,53.93163
    100,39.386326 89.946316,49.845864 79.713166,37.425428 70.377642,36.935142 Z
    M 29.80469,37.099022 C 20.469164,37.58931 10.053647,50.173186 0,39.55021
    5.9244804,54.095512 16.51881,47.070414 17.416458,49.358438 28.0087,67.008916
    43.805884,52.627142 40.215296,44.292192 36.983772,38.73555 33.395278,36.9356
    29.80469,37.099026 Z m 21.003542,10.13249 c -8.25835,37.262136
    -23.51556,63.576958 -40.211787,82.534868 7.001653,-1.96117
    14.718613,-7.19213 22.258843,-11.93164 -4.667764,9.80582 -9.154602,18.14082
    -13.822364,26.80264 2.692942,-0.98059 11.489886,-9.64435 23.338826,-22.3919
    1.795296,17.48703 4.305204,25.8241 8.07532,37.75452 3.052012,-11.93042
    5.208468,-19.9411 7.54234,-37.9184 7.181178,8.00805 14.001888,16.17984
    23.696484,23.04393 L 68.221186,117.34659 c 7.001634,4.41265
    14.72282,10.29262 22.083522,12.74406 C 72.710832,110.15215
    57.989412,84.493648 50.808232,47.231516 Z" transform="translate(6.25,10) scale(0.0625,0.0625)"></path></g></pattern><pattern id="erminois" width="12.5" height="20" patternUnits="userSpaceOnUse" x="-3.125" y="-5"><rect x="0" y="0" width="12.5" height="20" fill="#f2bc51"></rect><g fill="#333333"><path d="M 47.757634,0 C 60.324696,15.689314 25.136924,21.898666 44.167046,36.607392
    52.24587,41.673746 71.273896,30.723464 54.57765,17.322176
    52.423302,16.178163 62.11999,8.3349512 47.757634,0 Z m 21.182372,36.935142 c
    -3.23154,0.326846 -6.282816,2.290268 -9.155302,7.193166 -3.590588,8.33495
    12.209402,22.716724 22.98117,5.06625 C 83.483996,47.069952 94.0755,53.93163
    100,39.386326 89.946316,49.845864 79.713166,37.425428 70.377642,36.935142 Z
    M 29.80469,37.099022 C 20.469164,37.58931 10.053647,50.173186 0,39.55021
    5.9244804,54.095512 16.51881,47.070414 17.416458,49.358438 28.0087,67.008916
    43.805884,52.627142 40.215296,44.292192 36.983772,38.73555 33.395278,36.9356
    29.80469,37.099026 Z m 21.003542,10.13249 c -8.25835,37.262136
    -23.51556,63.576958 -40.211787,82.534868 7.001653,-1.96117
    14.718613,-7.19213 22.258843,-11.93164 -4.667764,9.80582 -9.154602,18.14082
    -13.822364,26.80264 2.692942,-0.98059 11.489886,-9.64435 23.338826,-22.3919
    1.795296,17.48703 4.305204,25.8241 8.07532,37.75452 3.052012,-11.93042
    5.208468,-19.9411 7.54234,-37.9184 7.181178,8.00805 14.001888,16.17984
    23.696484,23.04393 L 68.221186,117.34659 c 7.001634,4.41265
    14.72282,10.29262 22.083522,12.74406 C 72.710832,110.15215
    57.989412,84.493648 50.808232,47.231516 Z" transform="scale(0.0625,0.0625)"></path><path d="M 47.757634,0 C 60.324696,15.689314 25.136924,21.898666 44.167046,36.607392
    52.24587,41.673746 71.273896,30.723464 54.57765,17.322176
    52.423302,16.178163 62.11999,8.3349512 47.757634,0 Z m 21.182372,36.935142 c
    -3.23154,0.326846 -6.282816,2.290268 -9.155302,7.193166 -3.590588,8.33495
    12.209402,22.716724 22.98117,5.06625 C 83.483996,47.069952 94.0755,53.93163
    100,39.386326 89.946316,49.845864 79.713166,37.425428 70.377642,36.935142 Z
    M 29.80469,37.099022 C 20.469164,37.58931 10.053647,50.173186 0,39.55021
    5.9244804,54.095512 16.51881,47.070414 17.416458,49.358438 28.0087,67.008916
    43.805884,52.627142 40.215296,44.292192 36.983772,38.73555 33.395278,36.9356
    29.80469,37.099026 Z m 21.003542,10.13249 c -8.25835,37.262136
    -23.51556,63.576958 -40.211787,82.534868 7.001653,-1.96117
    14.718613,-7.19213 22.258843,-11.93164 -4.667764,9.80582 -9.154602,18.14082
    -13.822364,26.80264 2.692942,-0.98059 11.489886,-9.64435 23.338826,-22.3919
    1.795296,17.48703 4.305204,25.8241 8.07532,37.75452 3.052012,-11.93042
    5.208468,-19.9411 7.54234,-37.9184 7.181178,8.00805 14.001888,16.17984
    23.696484,23.04393 L 68.221186,117.34659 c 7.001634,4.41265
    14.72282,10.29262 22.083522,12.74406 C 72.710832,110.15215
    57.989412,84.493648 50.808232,47.231516 Z" transform="translate(6.25,10) scale(0.0625,0.0625)"></path></g></pattern><pattern id="pean" width="12.5" height="20" patternUnits="userSpaceOnUse" x="-3.125" y="-5"><rect x="0" y="0" width="12.5" height="20" fill="#333333"></rect><g fill="#f2bc51"><path d="M 47.757634,0 C 60.324696,15.689314 25.136924,21.898666 44.167046,36.607392
    52.24587,41.673746 71.273896,30.723464 54.57765,17.322176
    52.423302,16.178163 62.11999,8.3349512 47.757634,0 Z m 21.182372,36.935142 c
    -3.23154,0.326846 -6.282816,2.290268 -9.155302,7.193166 -3.590588,8.33495
    12.209402,22.716724 22.98117,5.06625 C 83.483996,47.069952 94.0755,53.93163
    100,39.386326 89.946316,49.845864 79.713166,37.425428 70.377642,36.935142 Z
    M 29.80469,37.099022 C 20.469164,37.58931 10.053647,50.173186 0,39.55021
    5.9244804,54.095512 16.51881,47.070414 17.416458,49.358438 28.0087,67.008916
    43.805884,52.627142 40.215296,44.292192 36.983772,38.73555 33.395278,36.9356
    29.80469,37.099026 Z m 21.003542,10.13249 c -8.25835,37.262136
    -23.51556,63.576958 -40.211787,82.534868 7.001653,-1.96117
    14.718613,-7.19213 22.258843,-11.93164 -4.667764,9.80582 -9.154602,18.14082
    -13.822364,26.80264 2.692942,-0.98059 11.489886,-9.64435 23.338826,-22.3919
    1.795296,17.48703 4.305204,25.8241 8.07532,37.75452 3.052012,-11.93042
    5.208468,-19.9411 7.54234,-37.9184 7.181178,8.00805 14.001888,16.17984
    23.696484,23.04393 L 68.221186,117.34659 c 7.001634,4.41265
    14.72282,10.29262 22.083522,12.74406 C 72.710832,110.15215
    57.989412,84.493648 50.808232,47.231516 Z" transform="scale(0.0625,0.0625)"></path><path d="M 47.757634,0 C 60.324696,15.689314 25.136924,21.898666 44.167046,36.607392
    52.24587,41.673746 71.273896,30.723464 54.57765,17.322176
    52.423302,16.178163 62.11999,8.3349512 47.757634,0 Z m 21.182372,36.935142 c
    -3.23154,0.326846 -6.282816,2.290268 -9.155302,7.193166 -3.590588,8.33495
    12.209402,22.716724 22.98117,5.06625 C 83.483996,47.069952 94.0755,53.93163
    100,39.386326 89.946316,49.845864 79.713166,37.425428 70.377642,36.935142 Z
    M 29.80469,37.099022 C 20.469164,37.58931 10.053647,50.173186 0,39.55021
    5.9244804,54.095512 16.51881,47.070414 17.416458,49.358438 28.0087,67.008916
    43.805884,52.627142 40.215296,44.292192 36.983772,38.73555 33.395278,36.9356
    29.80469,37.099026 Z m 21.003542,10.13249 c -8.25835,37.262136
    -23.51556,63.576958 -40.211787,82.534868 7.001653,-1.96117
    14.718613,-7.19213 22.258843,-11.93164 -4.667764,9.80582 -9.154602,18.14082
    -13.822364,26.80264 2.692942,-0.98059 11.489886,-9.64435 23.338826,-22.3919
    1.795296,17.48703 4.305204,25.8241 8.07532,37.75452 3.052012,-11.93042
    5.208468,-19.9411 7.54234,-37.9184 7.181178,8.00805 14.001888,16.17984
    23.696484,23.04393 L 68.221186,117.34659 c 7.001634,4.41265
    14.72282,10.29262 22.083522,12.74406 C 72.710832,110.15215
    57.989412,84.493648 50.808232,47.231516 Z" transform="translate(6.25,10) scale(0.0625,0.0625)"></path></g></pattern></defs><defs><mask id="mask_3"><path d="M50,0h50v33.33333c0,35.72656 -19.05989,68.73926 -50,86.60254c-30.94011,-17.86328 -50,-50.87598 -50,-86.60254v-33.33333z" clip-rule="evenodd" fill-rule="evenodd" fill="#fff" stroke="none"></path></mask></defs><g mask="url(#mask_3)"><g><g><path d="M50,0h50v33.33333c0,35.72656 -19.05989,68.73926 -50,86.60254c-30.94011,-17.86328 -50,-50.87598 -50,-86.60254v-33.33333z" fill-rule="evenodd" fill="#f0f0f0"></path><g><g><defs><mask id="clip_6"><path d="M -21.213203435596427,-21.213203435596427 l141.95366,141.95366 L 452.9415193538963,487.2576632274089 A 600 600 0 1 0 -396.55635087605367,-358.0410502318973 L -21.213203435596427,-21.213203435596427 z" clip-rule="evenodd" fill-rule="evenodd" fill="#fff" stroke="#fff" stroke-width="0.1"></path></mask></defs><g mask="url(#clip_6)"><g><rect y="-1000" fill="#913a6a" width="2000" x="-1000" height="2000"></rect><g></g></g></g></g><g><defs><mask id="clip_7"><path d="M -21.213203435596427,-21.213203435596427 l141.95366,141.95366 L 516.1021706955319,428.59151106782883 A 600 600 0 1 1 -328.4331839673993,-411.48267877321257 L -21.213203435596427,-21.213203435596427 z" clip-rule="evenodd" fill-rule="evenodd" fill="#fff"></path></mask></defs><g mask="url(#clip_7)"><g><rect y="-1000" fill="#f2bc51" width="2000" x="-1000" height="2000"></rect><g></g></g></g></g></g><g><g stroke="#333333" stroke-width="0.5" fill="none" stroke-linecap="round" stroke-linejoin="round"><path d="M -21.213203435596427,-21.213203435596427 l141.95366,141.95366"></path></g></g></g></g></g><g stroke="#333333" stroke-width="0.5" fill="none" stroke-linecap="round" stroke-linejoin="round"><path d="M50,0h50v33.33333c0,35.72656 -19.05989,68.73926 -50,86.60254c-30.94011,-17.86328 -50,-50.87598 -50,-86.60254v-33.33333z"></path></g></g></g><g transform="translate(0,0)" style="transition:transform 0.5s"></g><g><g><g><defs><mask id="mask_10"><g fill="#000" stroke="none" stroke-width="0" id="unique-id_933_13" transform="translate(-33.75,-61.521)"><defs><clippath><path d="M33.75 61.521h297v243h-297z"></path></clippath></defs><g stroke-opacity="1" fill="none" fill-opacity="1" stroke="none" stroke-dasharray="none" id="unique-id_932_14"><g><path d="M241.634 64.465c-2.298.717-6.605 1.579-9.333 1.866-2.728.43-12.779 2.441-22.255 4.451-15.22 3.446-19.096 3.733-33.885 3.015-9.19-.574-22.112-2.01-28.716-3.158-32.593-6.174-55.71-6.605-61.884-1.15-7.322 6.606-16.942 19.671-19.67 26.994-4.595 12.204-6.461 31.731-4.451 46.377 1.148 9.045 1.148 12.635 0 14.07-1.005 1.15-1.293 3.877-.718 6.175.718 3.59.143 4.738-3.733 7.61-21.537 16.224-26.994 36.038-14.071 50.683 2.153 2.585 8.615 6.749 14.214 9.333 6.318 3.015 10.769 5.887 11.487 7.897.574 1.58 2.01 5.169 3.015 7.897 2.728 7.466 3.302 2.728.718-6.317-1.867-5.887-3.59-8.759-7.61-11.774-10.481-7.897-14.645-13.353-16.225-21.537-2.44-11.774 0-20.532 8.184-28.142 3.446-3.302 7.036-6.318 7.754-6.461.718-.287 1.292 2.297 1.292 5.743 0 6.892 3.446 19.958 6.461 24.696 2.298 3.59 13.066 31.444 14.502 37.475 2.728 12.06 8.758 21.68 18.665 30.151 5.456 4.595 13.497 9.908 17.804 11.774 4.308 1.867 10.769 5.025 14.358 6.892 16.369 9.19 22.543 11.486 35.178 13.066 12.348 1.58 13.64 1.436 28.429-2.297 9.62-2.585 17.23-5.457 20.245-7.754 6.03-4.45 26.131-15.22 28.716-15.22 1.005 0 7.179-4.45 13.784-9.906 14.07-11.63 20.245-21.825 24.408-40.347 1.58-6.748 6.174-21.968 10.195-33.741 4.02-11.917 7.61-24.983 8.04-29.147.43-4.02 1.292-7.466 1.867-7.466.43 0 .718 2.01.287 4.307-.574 3.733.287 5.313 5.312 9.907 6.892 6.318 6.749 7.466-1.435 17.517-3.016 3.59-6.174 8.328-7.036 10.482-1.866 4.881-1.866 10.912-.143 10.912.861 0 1.292-1.149 1.292-2.585-.287-5.169 3.302-10.338 11.055-16.224 8.759-6.605 10.769-10.051 10.769-18.092 0-6.604-3.59-12.491-9.62-15.794-2.584-1.435-4.738-3.302-4.738-4.163 0-.862-1.292-3.303-2.872-5.313-2.153-2.584-2.871-5.6-2.728-11.343.431-15.794-1.866-33.31-5.312-41.638-6.03-14.502-15.076-25.27-24.553-29.29-5.312-2.298-30.008-2.585-37.043-.431zm-93.759 71.79c6.03 3.015 15.507 10.912 15.507 12.922 0 .718-3.59 2.872-8.04 5.026-11.2 5.312-24.984 4.594-42.5-2.298-6.892-2.728-12.636-5.456-12.636-6.03 0-.574 4.308-3.015 9.764-5.6 18.522-8.902 26.706-9.763 37.905-4.02zm100.507-.287c9.476 2.584 16.942 6.317 16.942 8.471 0 .574-1.723 1.867-3.876 2.872-2.298.861-7.61 3.59-11.917 6.03-10.769 5.743-19.815 5.743-32.45 0-5.169-2.297-9.045-4.738-8.615-5.456 2.585-4.307 22.686-14.358 28.86-14.645.862 0 5.743 1.148 11.056 2.728zm-40.777 81.123c5.6 2.872 25.414 5.6 32.88 4.451l6.317-.861-6.46 12.635c-8.185 16.224-16.8 27.71-26.563 34.89-12.922 9.763-19.383 12.204-32.45 12.204-10.194 0-12.347-.43-18.378-4.164-12.491-7.466-24.696-21.106-33.454-37.474-2.154-4.02-5.743-10.051-8.184-13.497-4.02-5.887-4.02-6.174-1.005-5.169 8.184 2.585 32.162 1.005 52.407-3.446 9.476-2.01 30.583-1.866 34.89.431z" fill="#000" id="unique-id_927_15"></path><path d="M274.083 66.618c-3.159-.43-6.461-1.148-7.61-1.436-3.015-.717-23.834 1.867-37.762 4.882-33.023 7.18-44.223 8.759-52.263 7.18-4.308-.719-11.487-1.437-16.081-1.437-4.595 0-9.907-.574-11.774-1.292-4.45-1.723-26.131-5.312-39.197-6.604-8.615-.862-11.343-.575-16.8 1.866-19.67 8.758-30.87 34.603-29.003 67.052.718 13.21 1.149 14.646 4.451 17.086 3.446 2.441 3.446 2.728 1.149 5.313-2.154 2.297-2.154 4.307-.861 17.086 1.005 9.19 2.584 16.655 4.45 20.101 3.734 7.18 13.354 32.019 18.235 47.382 3.59 11.056 4.882 13.066 13.353 21.394 7.467 7.322 12.635 10.768 24.553 16.368 8.327 3.876 16.08 7.897 17.23 8.902 1.148 1.005 6.604 3.59 12.06 5.6 12.205 4.594 26.85 4.881 42.93.86 11.344-2.87 15.938-4.737 19.671-8.04 1.149-1.005 8.902-5.312 17.23-9.476 8.328-4.164 16.368-8.615 18.091-9.763 16.368-11.63 24.696-23.835 28.573-41.639 1.292-5.887 5.887-21.106 10.194-33.741 4.164-12.635 8.328-26.994 8.902-32.019 1.149-8.184 1.005-8.902-1.436-8.902-3.59 0-3.446-5.169.287-7.179 2.585-1.436 2.872-3.015 2.872-14.789 0-17.947-2.154-30.152-7.323-41.207-5.6-11.918-16.08-22.255-24.121-23.548zm-145.017 63.894c9.046-1.149 15.507.143 23.835 5.025 5.886 3.446 13.353 11.487 13.353 14.502 0 .861-4.02 3.59-8.759 6.174-7.61 4.02-10.481 4.738-19.096 4.738-8.902.143-11.917-.574-24.552-6.03-13.066-5.744-15.076-6.174-22.543-5.313-8.47.862-11.486-.861-4.594-2.584 3.015-.862 3.446-1.293 2.01-3.016-1.005-1.148-2.728-2.153-3.733-2.153-1.149 0-2.01-.718-2.01-1.436 0-2.01 1.58-1.723 7.322 1.292l5.026 2.728 12.922-6.461c7.897-3.877 16.081-6.892 20.82-7.466zm102.23 1.436c3.302-.575 8.327-.862 11.055-.431 7.323 1.005 20.102 5.6 23.26 8.471 2.298 2.01 3.447 2.154 7.036.862 4.164-1.58 5.887-.144 2.44 1.866-1.291.862-.717 1.436 1.58 2.01 7.036 1.58 4.739 3.877-3.302 3.159-7.323-.574-8.615-.144-18.953 6.03-10.768 6.318-11.486 6.462-21.25 6.174-8.04-.287-12.491-1.435-20.532-5.312-9.332-4.307-13.066-7.18-9.045-7.18.718 0 3.302-1.866 5.743-4.307 5.456-5.456 14.358-9.907 21.968-11.342zm-126.782 76.815c0-1.723 2.584-.861 4.45 1.436 4.596 5.6 14.359 8.328 28.86 8.184 7.754 0 14.79-.718 15.795-1.436 2.01-1.579 12.347-3.015 30.582-4.163 10.912-.718 15.938-.144 40.92 5.168 10.195 2.154 19.097.862 24.984-3.589 5.456-4.164 8.04-4.738 4.882-1.149-1.293 1.436-4.739 7.467-7.754 13.353-3.015 5.887-6.46 12.348-7.753 14.358-1.292 2.01-4.882 7.323-8.04 11.918-4.595 7.035-14.359 17.086-20.102 20.819-16.799 10.912-33.885 13.496-46.09 6.892-15.075-8.04-29.003-22.973-39.197-42.213-3.302-6.318-9.62-15.363-13.784-20.101-4.307-4.739-7.753-9.046-7.753-9.477z" fill="#000" id="unique-id_928_16"></path><path d="M65.747 158.94c0 .862-.574 1.867-1.436 2.298-.718.43-1.436-.144-1.436-1.292 0-1.292.718-2.297 1.436-2.297.862 0 1.436.574 1.436 1.292zM318.45 159.084c2.44 0 7.178 9.764 7.178 14.646 0 3.015-1.292 6.604-3.015 8.902-3.733 4.738-4.882 4.163-2.154-1.15 2.585-5.024 1.436-8.757-3.589-12.347-6.03-4.451-7.466-13.066-1.723-10.912 1.149.43 2.584.861 3.302.861zM47.943 186.221c-3.015 5.743-3.015 21.824 0 27.855 1.292 2.584 4.308 6.748 6.892 9.476l4.451 4.738-5.025-2.44c-16.225-8.041-19.958-22.83-9.907-38.767 4.738-7.323 7.179-8.04 3.59-.862z" fill="#000" id="unique-id_929_17"></path><path d="M233.593 90.453c-3.877 1.58-3.302 2.584 1.292 2.297 8.04-.574 14.646.287 14.358 1.867-.287.861 1.58 1.723 4.164 2.01 2.585.143 6.749 2.153 9.19 4.164 2.44 2.153 4.881 3.445 5.312 3.015 1.292-1.293-7.18-9.333-9.907-9.333-1.292 0-2.728-.862-3.159-2.01-.861-2.297-16.512-3.733-21.25-2.01zM114.565 92.32c-.862 1.148-2.872 2.44-4.308 2.87-3.302 1.006-12.348 9.334-10.338 9.334.862 0 4.451-1.867 7.897-4.308 4.451-2.871 7.18-3.876 9.62-3.302 2.728.718 3.159.43 2.441-1.436-.574-1.723-.144-2.297 1.58-2.154 7.179.575 16.224-.43 15.363-1.723-1.436-2.297-20.245-1.723-22.255.718z" fill="#000" id="unique-id_930_18"></path><path d="M139.548 91.889c-.862 1.292 2.44 3.015 4.881 2.297 1.723-.43 13.21 9.907 13.21 11.917 0 .718.861 1.292 2.01 1.292 2.297 0 5.169 7.18 5.169 12.779v3.59l-5.313-5.026c-9.907-9.333-17.086-14.214-18.665-12.635-1.005 1.005-3.446.718-7.754-.718-8.47-3.015-26.131-3.015-28.572-.143-1.005 1.148-2.297 2.153-3.015 2.153s-4.164 3.015-7.754 6.605c-5.169 5.025-5.886 6.318-3.302 5.456 3.159-1.005 5.6-3.159 8.328-7.897 2.728-4.738 21.68-6.748 33.167-3.446 4.738 1.292 9.189 1.867 10.05 1.292.862-.43 3.303.718 5.313 2.585 2.154 2.01 5.025 4.02 6.461 4.45 1.292.575 3.877 3.303 5.456 6.031 6.318 10.625 9.907 2.585 5.743-12.491-1.866-6.749-8.614-15.507-11.917-15.507-1.005 0-3.159-.862-4.738-2.01-3.159-2.154-7.61-2.441-8.758-.574zM219.81 91.745c-.862.861-2.442 1.58-3.59 1.866-4.882.575-11.056 8.759-13.353 17.374-2.872 11.343-2.872 15.076.43 15.076 1.293 0 3.303-1.292 4.164-2.728 2.728-4.451 18.522-15.938 19.958-14.502.718.718 3.733.287 7.036-.861 6.604-2.298 25.988-2.728 27.28-.575.43.718 2.01 1.436 3.446 1.436 1.436 0 4.45 2.297 6.461 5.025 2.154 2.728 4.882 5.026 6.174 5.026 2.728 0-7.18-10.769-12.492-13.497-5.025-2.728-21.106-4.02-24.695-2.154-1.58.862-5.887 1.723-9.764 1.867-7.323.43-12.922 3.733-22.542 13.353l-4.738 4.595v-4.739c0-6.317 2.728-14.07 4.594-12.922.862.574 4.02-1.866 7.18-5.312 3.302-3.59 6.891-6.318 8.614-6.318 1.723 0 3.303-.861 3.59-1.866.861-2.154-5.6-2.298-7.754-.144z" fill="#000" id="unique-id_931_19"></path></g></g></g></mask><mask id="mask_11"><g fill="#000" stroke="none" stroke-width="0" id="unique-id_933_20" transform="translate(-33.75,-61.521)"><defs><clippath><path d="M33.75 61.521h297v243h-297z"></path></clippath></defs><g stroke-opacity="1" fill="none" fill-opacity="1" stroke="none" stroke-dasharray="none" id="unique-id_932_21"><g><path d="M241.634 64.465c-2.298.717-6.605 1.579-9.333 1.866-2.728.43-12.779 2.441-22.255 4.451-15.22 3.446-19.096 3.733-33.885 3.015-9.19-.574-22.112-2.01-28.716-3.158-32.593-6.174-55.71-6.605-61.884-1.15-7.322 6.606-16.942 19.671-19.67 26.994-4.595 12.204-6.461 31.731-4.451 46.377 1.148 9.045 1.148 12.635 0 14.07-1.005 1.15-1.293 3.877-.718 6.175.718 3.59.143 4.738-3.733 7.61-21.537 16.224-26.994 36.038-14.071 50.683 2.153 2.585 8.615 6.749 14.214 9.333 6.318 3.015 10.769 5.887 11.487 7.897.574 1.58 2.01 5.169 3.015 7.897 2.728 7.466 3.302 2.728.718-6.317-1.867-5.887-3.59-8.759-7.61-11.774-10.481-7.897-14.645-13.353-16.225-21.537-2.44-11.774 0-20.532 8.184-28.142 3.446-3.302 7.036-6.318 7.754-6.461.718-.287 1.292 2.297 1.292 5.743 0 6.892 3.446 19.958 6.461 24.696 2.298 3.59 13.066 31.444 14.502 37.475 2.728 12.06 8.758 21.68 18.665 30.151 5.456 4.595 13.497 9.908 17.804 11.774 4.308 1.867 10.769 5.025 14.358 6.892 16.369 9.19 22.543 11.486 35.178 13.066 12.348 1.58 13.64 1.436 28.429-2.297 9.62-2.585 17.23-5.457 20.245-7.754 6.03-4.45 26.131-15.22 28.716-15.22 1.005 0 7.179-4.45 13.784-9.906 14.07-11.63 20.245-21.825 24.408-40.347 1.58-6.748 6.174-21.968 10.195-33.741 4.02-11.917 7.61-24.983 8.04-29.147.43-4.02 1.292-7.466 1.867-7.466.43 0 .718 2.01.287 4.307-.574 3.733.287 5.313 5.312 9.907 6.892 6.318 6.749 7.466-1.435 17.517-3.016 3.59-6.174 8.328-7.036 10.482-1.866 4.881-1.866 10.912-.143 10.912.861 0 1.292-1.149 1.292-2.585-.287-5.169 3.302-10.338 11.055-16.224 8.759-6.605 10.769-10.051 10.769-18.092 0-6.604-3.59-12.491-9.62-15.794-2.584-1.435-4.738-3.302-4.738-4.163 0-.862-1.292-3.303-2.872-5.313-2.153-2.584-2.871-5.6-2.728-11.343.431-15.794-1.866-33.31-5.312-41.638-6.03-14.502-15.076-25.27-24.553-29.29-5.312-2.298-30.008-2.585-37.043-.431zm-93.759 71.79c6.03 3.015 15.507 10.912 15.507 12.922 0 .718-3.59 2.872-8.04 5.026-11.2 5.312-24.984 4.594-42.5-2.298-6.892-2.728-12.636-5.456-12.636-6.03 0-.574 4.308-3.015 9.764-5.6 18.522-8.902 26.706-9.763 37.905-4.02zm100.507-.287c9.476 2.584 16.942 6.317 16.942 8.471 0 .574-1.723 1.867-3.876 2.872-2.298.861-7.61 3.59-11.917 6.03-10.769 5.743-19.815 5.743-32.45 0-5.169-2.297-9.045-4.738-8.615-5.456 2.585-4.307 22.686-14.358 28.86-14.645.862 0 5.743 1.148 11.056 2.728zm-40.777 81.123c5.6 2.872 25.414 5.6 32.88 4.451l6.317-.861-6.46 12.635c-8.185 16.224-16.8 27.71-26.563 34.89-12.922 9.763-19.383 12.204-32.45 12.204-10.194 0-12.347-.43-18.378-4.164-12.491-7.466-24.696-21.106-33.454-37.474-2.154-4.02-5.743-10.051-8.184-13.497-4.02-5.887-4.02-6.174-1.005-5.169 8.184 2.585 32.162 1.005 52.407-3.446 9.476-2.01 30.583-1.866 34.89.431z" fill="#000" id="unique-id_927_22"></path><path d="M274.083 66.618c-3.159-.43-6.461-1.148-7.61-1.436-3.015-.717-23.834 1.867-37.762 4.882-33.023 7.18-44.223 8.759-52.263 7.18-4.308-.719-11.487-1.437-16.081-1.437-4.595 0-9.907-.574-11.774-1.292-4.45-1.723-26.131-5.312-39.197-6.604-8.615-.862-11.343-.575-16.8 1.866-19.67 8.758-30.87 34.603-29.003 67.052.718 13.21 1.149 14.646 4.451 17.086 3.446 2.441 3.446 2.728 1.149 5.313-2.154 2.297-2.154 4.307-.861 17.086 1.005 9.19 2.584 16.655 4.45 20.101 3.734 7.18 13.354 32.019 18.235 47.382 3.59 11.056 4.882 13.066 13.353 21.394 7.467 7.322 12.635 10.768 24.553 16.368 8.327 3.876 16.08 7.897 17.23 8.902 1.148 1.005 6.604 3.59 12.06 5.6 12.205 4.594 26.85 4.881 42.93.86 11.344-2.87 15.938-4.737 19.671-8.04 1.149-1.005 8.902-5.312 17.23-9.476 8.328-4.164 16.368-8.615 18.091-9.763 16.368-11.63 24.696-23.835 28.573-41.639 1.292-5.887 5.887-21.106 10.194-33.741 4.164-12.635 8.328-26.994 8.902-32.019 1.149-8.184 1.005-8.902-1.436-8.902-3.59 0-3.446-5.169.287-7.179 2.585-1.436 2.872-3.015 2.872-14.789 0-17.947-2.154-30.152-7.323-41.207-5.6-11.918-16.08-22.255-24.121-23.548zm-145.017 63.894c9.046-1.149 15.507.143 23.835 5.025 5.886 3.446 13.353 11.487 13.353 14.502 0 .861-4.02 3.59-8.759 6.174-7.61 4.02-10.481 4.738-19.096 4.738-8.902.143-11.917-.574-24.552-6.03-13.066-5.744-15.076-6.174-22.543-5.313-8.47.862-11.486-.861-4.594-2.584 3.015-.862 3.446-1.293 2.01-3.016-1.005-1.148-2.728-2.153-3.733-2.153-1.149 0-2.01-.718-2.01-1.436 0-2.01 1.58-1.723 7.322 1.292l5.026 2.728 12.922-6.461c7.897-3.877 16.081-6.892 20.82-7.466zm102.23 1.436c3.302-.575 8.327-.862 11.055-.431 7.323 1.005 20.102 5.6 23.26 8.471 2.298 2.01 3.447 2.154 7.036.862 4.164-1.58 5.887-.144 2.44 1.866-1.291.862-.717 1.436 1.58 2.01 7.036 1.58 4.739 3.877-3.302 3.159-7.323-.574-8.615-.144-18.953 6.03-10.768 6.318-11.486 6.462-21.25 6.174-8.04-.287-12.491-1.435-20.532-5.312-9.332-4.307-13.066-7.18-9.045-7.18.718 0 3.302-1.866 5.743-4.307 5.456-5.456 14.358-9.907 21.968-11.342zm-126.782 76.815c0-1.723 2.584-.861 4.45 1.436 4.596 5.6 14.359 8.328 28.86 8.184 7.754 0 14.79-.718 15.795-1.436 2.01-1.579 12.347-3.015 30.582-4.163 10.912-.718 15.938-.144 40.92 5.168 10.195 2.154 19.097.862 24.984-3.589 5.456-4.164 8.04-4.738 4.882-1.149-1.293 1.436-4.739 7.467-7.754 13.353-3.015 5.887-6.46 12.348-7.753 14.358-1.292 2.01-4.882 7.323-8.04 11.918-4.595 7.035-14.359 17.086-20.102 20.819-16.799 10.912-33.885 13.496-46.09 6.892-15.075-8.04-29.003-22.973-39.197-42.213-3.302-6.318-9.62-15.363-13.784-20.101-4.307-4.739-7.753-9.046-7.753-9.477z" fill="#fff" id="unique-id_928_23"></path><path d="M65.747 158.94c0 .862-.574 1.867-1.436 2.298-.718.43-1.436-.144-1.436-1.292 0-1.292.718-2.297 1.436-2.297.862 0 1.436.574 1.436 1.292zM318.45 159.084c2.44 0 7.178 9.764 7.178 14.646 0 3.015-1.292 6.604-3.015 8.902-3.733 4.738-4.882 4.163-2.154-1.15 2.585-5.024 1.436-8.757-3.589-12.347-6.03-4.451-7.466-13.066-1.723-10.912 1.149.43 2.584.861 3.302.861zM47.943 186.221c-3.015 5.743-3.015 21.824 0 27.855 1.292 2.584 4.308 6.748 6.892 9.476l4.451 4.738-5.025-2.44c-16.225-8.041-19.958-22.83-9.907-38.767 4.738-7.323 7.179-8.04 3.59-.862z" fill="#fff" id="unique-id_929_24"></path><path d="M233.593 90.453c-3.877 1.58-3.302 2.584 1.292 2.297 8.04-.574 14.646.287 14.358 1.867-.287.861 1.58 1.723 4.164 2.01 2.585.143 6.749 2.153 9.19 4.164 2.44 2.153 4.881 3.445 5.312 3.015 1.292-1.293-7.18-9.333-9.907-9.333-1.292 0-2.728-.862-3.159-2.01-.861-2.297-16.512-3.733-21.25-2.01zM114.565 92.32c-.862 1.148-2.872 2.44-4.308 2.87-3.302 1.006-12.348 9.334-10.338 9.334.862 0 4.451-1.867 7.897-4.308 4.451-2.871 7.18-3.876 9.62-3.302 2.728.718 3.159.43 2.441-1.436-.574-1.723-.144-2.297 1.58-2.154 7.179.575 16.224-.43 15.363-1.723-1.436-2.297-20.245-1.723-22.255.718z" fill="#000" id="unique-id_930_25"></path><path d="M139.548 91.889c-.862 1.292 2.44 3.015 4.881 2.297 1.723-.43 13.21 9.907 13.21 11.917 0 .718.861 1.292 2.01 1.292 2.297 0 5.169 7.18 5.169 12.779v3.59l-5.313-5.026c-9.907-9.333-17.086-14.214-18.665-12.635-1.005 1.005-3.446.718-7.754-.718-8.47-3.015-26.131-3.015-28.572-.143-1.005 1.148-2.297 2.153-3.015 2.153s-4.164 3.015-7.754 6.605c-5.169 5.025-5.886 6.318-3.302 5.456 3.159-1.005 5.6-3.159 8.328-7.897 2.728-4.738 21.68-6.748 33.167-3.446 4.738 1.292 9.189 1.867 10.05 1.292.862-.43 3.303.718 5.313 2.585 2.154 2.01 5.025 4.02 6.461 4.45 1.292.575 3.877 3.303 5.456 6.031 6.318 10.625 9.907 2.585 5.743-12.491-1.866-6.749-8.614-15.507-11.917-15.507-1.005 0-3.159-.862-4.738-2.01-3.159-2.154-7.61-2.441-8.758-.574zM219.81 91.745c-.862.861-2.442 1.58-3.59 1.866-4.882.575-11.056 8.759-13.353 17.374-2.872 11.343-2.872 15.076.43 15.076 1.293 0 3.303-1.292 4.164-2.728 2.728-4.451 18.522-15.938 19.958-14.502.718.718 3.733.287 7.036-.861 6.604-2.298 25.988-2.728 27.28-.575.43.718 2.01 1.436 3.446 1.436 1.436 0 4.45 2.297 6.461 5.025 2.154 2.728 4.882 5.026 6.174 5.026 2.728 0-7.18-10.769-12.492-13.497-5.025-2.728-21.106-4.02-24.695-2.154-1.58.862-5.887 1.723-9.764 1.867-7.323.43-12.922 3.733-22.542 13.353l-4.738 4.595v-4.739c0-6.317 2.728-14.07 4.594-12.922.862.574 4.02-1.866 7.18-5.312 3.302-3.59 6.891-6.318 8.614-6.318 1.723 0 3.303-.861 3.59-1.866.861-2.154-5.6-2.298-7.754-.144z" fill="#000" id="unique-id_931_26"></path></g></g></g></mask><mask id="mask_12"><g fill="#fff" stroke="none" stroke-width="0" id="unique-id_933_27" transform="translate(-33.75,-61.521)"><defs><clippath><path d="M33.75 61.521h297v243h-297z"></path></clippath></defs><g stroke-opacity="1" fill="none" fill-opacity="1" stroke="none" stroke-dasharray="none" id="unique-id_932_28"><g><path d="M241.634 64.465c-2.298.717-6.605 1.579-9.333 1.866-2.728.43-12.779 2.441-22.255 4.451-15.22 3.446-19.096 3.733-33.885 3.015-9.19-.574-22.112-2.01-28.716-3.158-32.593-6.174-55.71-6.605-61.884-1.15-7.322 6.606-16.942 19.671-19.67 26.994-4.595 12.204-6.461 31.731-4.451 46.377 1.148 9.045 1.148 12.635 0 14.07-1.005 1.15-1.293 3.877-.718 6.175.718 3.59.143 4.738-3.733 7.61-21.537 16.224-26.994 36.038-14.071 50.683 2.153 2.585 8.615 6.749 14.214 9.333 6.318 3.015 10.769 5.887 11.487 7.897.574 1.58 2.01 5.169 3.015 7.897 2.728 7.466 3.302 2.728.718-6.317-1.867-5.887-3.59-8.759-7.61-11.774-10.481-7.897-14.645-13.353-16.225-21.537-2.44-11.774 0-20.532 8.184-28.142 3.446-3.302 7.036-6.318 7.754-6.461.718-.287 1.292 2.297 1.292 5.743 0 6.892 3.446 19.958 6.461 24.696 2.298 3.59 13.066 31.444 14.502 37.475 2.728 12.06 8.758 21.68 18.665 30.151 5.456 4.595 13.497 9.908 17.804 11.774 4.308 1.867 10.769 5.025 14.358 6.892 16.369 9.19 22.543 11.486 35.178 13.066 12.348 1.58 13.64 1.436 28.429-2.297 9.62-2.585 17.23-5.457 20.245-7.754 6.03-4.45 26.131-15.22 28.716-15.22 1.005 0 7.179-4.45 13.784-9.906 14.07-11.63 20.245-21.825 24.408-40.347 1.58-6.748 6.174-21.968 10.195-33.741 4.02-11.917 7.61-24.983 8.04-29.147.43-4.02 1.292-7.466 1.867-7.466.43 0 .718 2.01.287 4.307-.574 3.733.287 5.313 5.312 9.907 6.892 6.318 6.749 7.466-1.435 17.517-3.016 3.59-6.174 8.328-7.036 10.482-1.866 4.881-1.866 10.912-.143 10.912.861 0 1.292-1.149 1.292-2.585-.287-5.169 3.302-10.338 11.055-16.224 8.759-6.605 10.769-10.051 10.769-18.092 0-6.604-3.59-12.491-9.62-15.794-2.584-1.435-4.738-3.302-4.738-4.163 0-.862-1.292-3.303-2.872-5.313-2.153-2.584-2.871-5.6-2.728-11.343.431-15.794-1.866-33.31-5.312-41.638-6.03-14.502-15.076-25.27-24.553-29.29-5.312-2.298-30.008-2.585-37.043-.431zm-93.759 71.79c6.03 3.015 15.507 10.912 15.507 12.922 0 .718-3.59 2.872-8.04 5.026-11.2 5.312-24.984 4.594-42.5-2.298-6.892-2.728-12.636-5.456-12.636-6.03 0-.574 4.308-3.015 9.764-5.6 18.522-8.902 26.706-9.763 37.905-4.02zm100.507-.287c9.476 2.584 16.942 6.317 16.942 8.471 0 .574-1.723 1.867-3.876 2.872-2.298.861-7.61 3.59-11.917 6.03-10.769 5.743-19.815 5.743-32.45 0-5.169-2.297-9.045-4.738-8.615-5.456 2.585-4.307 22.686-14.358 28.86-14.645.862 0 5.743 1.148 11.056 2.728zm-40.777 81.123c5.6 2.872 25.414 5.6 32.88 4.451l6.317-.861-6.46 12.635c-8.185 16.224-16.8 27.71-26.563 34.89-12.922 9.763-19.383 12.204-32.45 12.204-10.194 0-12.347-.43-18.378-4.164-12.491-7.466-24.696-21.106-33.454-37.474-2.154-4.02-5.743-10.051-8.184-13.497-4.02-5.887-4.02-6.174-1.005-5.169 8.184 2.585 32.162 1.005 52.407-3.446 9.476-2.01 30.583-1.866 34.89.431z" fill="#fff" id="unique-id_927_29"></path><path d="M274.083 66.618c-3.159-.43-6.461-1.148-7.61-1.436-3.015-.717-23.834 1.867-37.762 4.882-33.023 7.18-44.223 8.759-52.263 7.18-4.308-.719-11.487-1.437-16.081-1.437-4.595 0-9.907-.574-11.774-1.292-4.45-1.723-26.131-5.312-39.197-6.604-8.615-.862-11.343-.575-16.8 1.866-19.67 8.758-30.87 34.603-29.003 67.052.718 13.21 1.149 14.646 4.451 17.086 3.446 2.441 3.446 2.728 1.149 5.313-2.154 2.297-2.154 4.307-.861 17.086 1.005 9.19 2.584 16.655 4.45 20.101 3.734 7.18 13.354 32.019 18.235 47.382 3.59 11.056 4.882 13.066 13.353 21.394 7.467 7.322 12.635 10.768 24.553 16.368 8.327 3.876 16.08 7.897 17.23 8.902 1.148 1.005 6.604 3.59 12.06 5.6 12.205 4.594 26.85 4.881 42.93.86 11.344-2.87 15.938-4.737 19.671-8.04 1.149-1.005 8.902-5.312 17.23-9.476 8.328-4.164 16.368-8.615 18.091-9.763 16.368-11.63 24.696-23.835 28.573-41.639 1.292-5.887 5.887-21.106 10.194-33.741 4.164-12.635 8.328-26.994 8.902-32.019 1.149-8.184 1.005-8.902-1.436-8.902-3.59 0-3.446-5.169.287-7.179 2.585-1.436 2.872-3.015 2.872-14.789 0-17.947-2.154-30.152-7.323-41.207-5.6-11.918-16.08-22.255-24.121-23.548zm-145.017 63.894c9.046-1.149 15.507.143 23.835 5.025 5.886 3.446 13.353 11.487 13.353 14.502 0 .861-4.02 3.59-8.759 6.174-7.61 4.02-10.481 4.738-19.096 4.738-8.902.143-11.917-.574-24.552-6.03-13.066-5.744-15.076-6.174-22.543-5.313-8.47.862-11.486-.861-4.594-2.584 3.015-.862 3.446-1.293 2.01-3.016-1.005-1.148-2.728-2.153-3.733-2.153-1.149 0-2.01-.718-2.01-1.436 0-2.01 1.58-1.723 7.322 1.292l5.026 2.728 12.922-6.461c7.897-3.877 16.081-6.892 20.82-7.466zm102.23 1.436c3.302-.575 8.327-.862 11.055-.431 7.323 1.005 20.102 5.6 23.26 8.471 2.298 2.01 3.447 2.154 7.036.862 4.164-1.58 5.887-.144 2.44 1.866-1.291.862-.717 1.436 1.58 2.01 7.036 1.58 4.739 3.877-3.302 3.159-7.323-.574-8.615-.144-18.953 6.03-10.768 6.318-11.486 6.462-21.25 6.174-8.04-.287-12.491-1.435-20.532-5.312-9.332-4.307-13.066-7.18-9.045-7.18.718 0 3.302-1.866 5.743-4.307 5.456-5.456 14.358-9.907 21.968-11.342zm-126.782 76.815c0-1.723 2.584-.861 4.45 1.436 4.596 5.6 14.359 8.328 28.86 8.184 7.754 0 14.79-.718 15.795-1.436 2.01-1.579 12.347-3.015 30.582-4.163 10.912-.718 15.938-.144 40.92 5.168 10.195 2.154 19.097.862 24.984-3.589 5.456-4.164 8.04-4.738 4.882-1.149-1.293 1.436-4.739 7.467-7.754 13.353-3.015 5.887-6.46 12.348-7.753 14.358-1.292 2.01-4.882 7.323-8.04 11.918-4.595 7.035-14.359 17.086-20.102 20.819-16.799 10.912-33.885 13.496-46.09 6.892-15.075-8.04-29.003-22.973-39.197-42.213-3.302-6.318-9.62-15.363-13.784-20.101-4.307-4.739-7.753-9.046-7.753-9.477z" fill="#fff" id="unique-id_928_30"></path><path d="M65.747 158.94c0 .862-.574 1.867-1.436 2.298-.718.43-1.436-.144-1.436-1.292 0-1.292.718-2.297 1.436-2.297.862 0 1.436.574 1.436 1.292zM318.45 159.084c2.44 0 7.178 9.764 7.178 14.646 0 3.015-1.292 6.604-3.015 8.902-3.733 4.738-4.882 4.163-2.154-1.15 2.585-5.024 1.436-8.757-3.589-12.347-6.03-4.451-7.466-13.066-1.723-10.912 1.149.43 2.584.861 3.302.861zM47.943 186.221c-3.015 5.743-3.015 21.824 0 27.855 1.292 2.584 4.308 6.748 6.892 9.476l4.451 4.738-5.025-2.44c-16.225-8.041-19.958-22.83-9.907-38.767 4.738-7.323 7.179-8.04 3.59-.862z" fill="#fff" id="unique-id_929_31"></path><path d="M233.593 90.453c-3.877 1.58-3.302 2.584 1.292 2.297 8.04-.574 14.646.287 14.358 1.867-.287.861 1.58 1.723 4.164 2.01 2.585.143 6.749 2.153 9.19 4.164 2.44 2.153 4.881 3.445 5.312 3.015 1.292-1.293-7.18-9.333-9.907-9.333-1.292 0-2.728-.862-3.159-2.01-.861-2.297-16.512-3.733-21.25-2.01zM114.565 92.32c-.862 1.148-2.872 2.44-4.308 2.87-3.302 1.006-12.348 9.334-10.338 9.334.862 0 4.451-1.867 7.897-4.308 4.451-2.871 7.18-3.876 9.62-3.302 2.728.718 3.159.43 2.441-1.436-.574-1.723-.144-2.297 1.58-2.154 7.179.575 16.224-.43 15.363-1.723-1.436-2.297-20.245-1.723-22.255.718z" fill="#fff" id="unique-id_930_32"></path><path d="M139.548 91.889c-.862 1.292 2.44 3.015 4.881 2.297 1.723-.43 13.21 9.907 13.21 11.917 0 .718.861 1.292 2.01 1.292 2.297 0 5.169 7.18 5.169 12.779v3.59l-5.313-5.026c-9.907-9.333-17.086-14.214-18.665-12.635-1.005 1.005-3.446.718-7.754-.718-8.47-3.015-26.131-3.015-28.572-.143-1.005 1.148-2.297 2.153-3.015 2.153s-4.164 3.015-7.754 6.605c-5.169 5.025-5.886 6.318-3.302 5.456 3.159-1.005 5.6-3.159 8.328-7.897 2.728-4.738 21.68-6.748 33.167-3.446 4.738 1.292 9.189 1.867 10.05 1.292.862-.43 3.303.718 5.313 2.585 2.154 2.01 5.025 4.02 6.461 4.45 1.292.575 3.877 3.303 5.456 6.031 6.318 10.625 9.907 2.585 5.743-12.491-1.866-6.749-8.614-15.507-11.917-15.507-1.005 0-3.159-.862-4.738-2.01-3.159-2.154-7.61-2.441-8.758-.574zM219.81 91.745c-.862.861-2.442 1.58-3.59 1.866-4.882.575-11.056 8.759-13.353 17.374-2.872 11.343-2.872 15.076.43 15.076 1.293 0 3.303-1.292 4.164-2.728 2.728-4.451 18.522-15.938 19.958-14.502.718.718 3.733.287 7.036-.861 6.604-2.298 25.988-2.728 27.28-.575.43.718 2.01 1.436 3.446 1.436 1.436 0 4.45 2.297 6.461 5.025 2.154 2.728 4.882 5.026 6.174 5.026 2.728 0-7.18-10.769-12.492-13.497-5.025-2.728-21.106-4.02-24.695-2.154-1.58.862-5.887 1.723-9.764 1.867-7.323.43-12.922 3.733-22.542 13.353l-4.738 4.595v-4.739c0-6.317 2.728-14.07 4.594-12.922.862.574 4.02-1.866 7.18-5.312 3.302-3.59 6.891-6.318 8.614-6.318 1.723 0 3.303-.861 3.59-1.866.861-2.154-5.6-2.298-7.754-.144z" fill="#fff" id="unique-id_931_33"></path></g></g></g></mask></defs><g transform="translate(50,59.967935)rotate(0)scale(0.26936026936026936,0.26936026936026936)translate(-148.5,-121.5)"><g></g><metadata xmlns:rdf="http://www.w3.org/1999/02/22-rdf-syntax-ns#" xmlns:cc="http://creativecommons.org/ns#" xmlns:dc="http://purl.org/dc/elements/1.1/"><rdf:RDF><rdf:Description dc:title="Comedy Mask" dc:creator="jamestrubb"></rdf:Description><cc:Work rdf:about="https://heraldicon.org/charges/gGowJE/5"><cc:license rdf:resource="https://creativecommons.org/licenses/by-sa/4.0"></cc:license><cc:attributionName>Comedy Mask by jamestrubb</cc:attributionName><cc:attributionURL rdf:resource="https://heraldicon.org/users/jamestrubb"></cc:attributionURL></cc:Work><cc:License rdf:about="https://creativecommons.org/licenses/by-sa/4.0"><cc:permits rdf:resource="http://creativecommons.org/ns#Reproduction"></cc:permits><cc:permits rdf:resource="http://creativecommons.org/ns#DerivativeWorks"></cc:permits><cc:permits rdf:resource="http://creativecommons.org/ns#Distribution"></cc:permits><cc:requires rdf:resource="http://creativecommons.org/ns#Notice"></cc:requires><cc:requires rdf:resource="http://creativecommons.org/ns#Attribution"></cc:requires><cc:requires rdf:resource="http://creativecommons.org/ns#ShareAlike"></cc:requires></cc:License></rdf:RDF><rdf:RDF rdf:about="http://heraldicart.org/mask/"><rdf:Description dc:title="Book of Traceable Heraldic Art" dc:creator="Book of Traceable Heraldic Art"></rdf:Description><cc:Work rdf:about="http://heraldicart.org/mask/"><cc:license rdf:resource="https://creativecommons.org/licenses/by-sa/4.0"></cc:license><cc:attributionName>Book of Traceable Heraldic Art</cc:attributionName><cc:attributionURL rdf:resource="http://heraldicart.org"></cc:attributionURL></cc:Work></rdf:RDF></metadata><g><g><g mask="url(#mask_12)"><rect transform="translate(148.5,121.5)scale(3.7125,3.7125)rotate(0)translate(-50,-59.967935)" x="-500" y="-500" width="1100" height="1100" fill="#333333"></rect></g><g mask="url(#mask_11)"><g transform="translate(148.5,121.5)scale(3.7125,3.7125)rotate(0)translate(-50,-59.967935)"><rect y="-1000" fill="#f6f6f6" width="2000" x="-1000" height="2000"></rect><g></g></g></g><g mask="url(#mask_10)"><g fill="#333333" stroke="none" stroke-width="0" id="unique-id_933_34" transform="translate(-33.75,-61.521)"><defs><clippath><path d="M33.75 61.521h297v243h-297z"></path></clippath></defs><g stroke-opacity="1" fill="none" fill-opacity="1" stroke="none" stroke-dasharray="none" id="unique-id_932_35"><g><path d="M241.634 64.465c-2.298.717-6.605 1.579-9.333 1.866-2.728.43-12.779 2.441-22.255 4.451-15.22 3.446-19.096 3.733-33.885 3.015-9.19-.574-22.112-2.01-28.716-3.158-32.593-6.174-55.71-6.605-61.884-1.15-7.322 6.606-16.942 19.671-19.67 26.994-4.595 12.204-6.461 31.731-4.451 46.377 1.148 9.045 1.148 12.635 0 14.07-1.005 1.15-1.293 3.877-.718 6.175.718 3.59.143 4.738-3.733 7.61-21.537 16.224-26.994 36.038-14.071 50.683 2.153 2.585 8.615 6.749 14.214 9.333 6.318 3.015 10.769 5.887 11.487 7.897.574 1.58 2.01 5.169 3.015 7.897 2.728 7.466 3.302 2.728.718-6.317-1.867-5.887-3.59-8.759-7.61-11.774-10.481-7.897-14.645-13.353-16.225-21.537-2.44-11.774 0-20.532 8.184-28.142 3.446-3.302 7.036-6.318 7.754-6.461.718-.287 1.292 2.297 1.292 5.743 0 6.892 3.446 19.958 6.461 24.696 2.298 3.59 13.066 31.444 14.502 37.475 2.728 12.06 8.758 21.68 18.665 30.151 5.456 4.595 13.497 9.908 17.804 11.774 4.308 1.867 10.769 5.025 14.358 6.892 16.369 9.19 22.543 11.486 35.178 13.066 12.348 1.58 13.64 1.436 28.429-2.297 9.62-2.585 17.23-5.457 20.245-7.754 6.03-4.45 26.131-15.22 28.716-15.22 1.005 0 7.179-4.45 13.784-9.906 14.07-11.63 20.245-21.825 24.408-40.347 1.58-6.748 6.174-21.968 10.195-33.741 4.02-11.917 7.61-24.983 8.04-29.147.43-4.02 1.292-7.466 1.867-7.466.43 0 .718 2.01.287 4.307-.574 3.733.287 5.313 5.312 9.907 6.892 6.318 6.749 7.466-1.435 17.517-3.016 3.59-6.174 8.328-7.036 10.482-1.866 4.881-1.866 10.912-.143 10.912.861 0 1.292-1.149 1.292-2.585-.287-5.169 3.302-10.338 11.055-16.224 8.759-6.605 10.769-10.051 10.769-18.092 0-6.604-3.59-12.491-9.62-15.794-2.584-1.435-4.738-3.302-4.738-4.163 0-.862-1.292-3.303-2.872-5.313-2.153-2.584-2.871-5.6-2.728-11.343.431-15.794-1.866-33.31-5.312-41.638-6.03-14.502-15.076-25.27-24.553-29.29-5.312-2.298-30.008-2.585-37.043-.431zm-93.759 71.79c6.03 3.015 15.507 10.912 15.507 12.922 0 .718-3.59 2.872-8.04 5.026-11.2 5.312-24.984 4.594-42.5-2.298-6.892-2.728-12.636-5.456-12.636-6.03 0-.574 4.308-3.015 9.764-5.6 18.522-8.902 26.706-9.763 37.905-4.02zm100.507-.287c9.476 2.584 16.942 6.317 16.942 8.471 0 .574-1.723 1.867-3.876 2.872-2.298.861-7.61 3.59-11.917 6.03-10.769 5.743-19.815 5.743-32.45 0-5.169-2.297-9.045-4.738-8.615-5.456 2.585-4.307 22.686-14.358 28.86-14.645.862 0 5.743 1.148 11.056 2.728zm-40.777 81.123c5.6 2.872 25.414 5.6 32.88 4.451l6.317-.861-6.46 12.635c-8.185 16.224-16.8 27.71-26.563 34.89-12.922 9.763-19.383 12.204-32.45 12.204-10.194 0-12.347-.43-18.378-4.164-12.491-7.466-24.696-21.106-33.454-37.474-2.154-4.02-5.743-10.051-8.184-13.497-4.02-5.887-4.02-6.174-1.005-5.169 8.184 2.585 32.162 1.005 52.407-3.446 9.476-2.01 30.583-1.866 34.89.431z" fill="#333333" id="unique-id_927_36"></path><path d="M274.083 66.618c-3.159-.43-6.461-1.148-7.61-1.436-3.015-.717-23.834 1.867-37.762 4.882-33.023 7.18-44.223 8.759-52.263 7.18-4.308-.719-11.487-1.437-16.081-1.437-4.595 0-9.907-.574-11.774-1.292-4.45-1.723-26.131-5.312-39.197-6.604-8.615-.862-11.343-.575-16.8 1.866-19.67 8.758-30.87 34.603-29.003 67.052.718 13.21 1.149 14.646 4.451 17.086 3.446 2.441 3.446 2.728 1.149 5.313-2.154 2.297-2.154 4.307-.861 17.086 1.005 9.19 2.584 16.655 4.45 20.101 3.734 7.18 13.354 32.019 18.235 47.382 3.59 11.056 4.882 13.066 13.353 21.394 7.467 7.322 12.635 10.768 24.553 16.368 8.327 3.876 16.08 7.897 17.23 8.902 1.148 1.005 6.604 3.59 12.06 5.6 12.205 4.594 26.85 4.881 42.93.86 11.344-2.87 15.938-4.737 19.671-8.04 1.149-1.005 8.902-5.312 17.23-9.476 8.328-4.164 16.368-8.615 18.091-9.763 16.368-11.63 24.696-23.835 28.573-41.639 1.292-5.887 5.887-21.106 10.194-33.741 4.164-12.635 8.328-26.994 8.902-32.019 1.149-8.184 1.005-8.902-1.436-8.902-3.59 0-3.446-5.169.287-7.179 2.585-1.436 2.872-3.015 2.872-14.789 0-17.947-2.154-30.152-7.323-41.207-5.6-11.918-16.08-22.255-24.121-23.548zm-145.017 63.894c9.046-1.149 15.507.143 23.835 5.025 5.886 3.446 13.353 11.487 13.353 14.502 0 .861-4.02 3.59-8.759 6.174-7.61 4.02-10.481 4.738-19.096 4.738-8.902.143-11.917-.574-24.552-6.03-13.066-5.744-15.076-6.174-22.543-5.313-8.47.862-11.486-.861-4.594-2.584 3.015-.862 3.446-1.293 2.01-3.016-1.005-1.148-2.728-2.153-3.733-2.153-1.149 0-2.01-.718-2.01-1.436 0-2.01 1.58-1.723 7.322 1.292l5.026 2.728 12.922-6.461c7.897-3.877 16.081-6.892 20.82-7.466zm102.23 1.436c3.302-.575 8.327-.862 11.055-.431 7.323 1.005 20.102 5.6 23.26 8.471 2.298 2.01 3.447 2.154 7.036.862 4.164-1.58 5.887-.144 2.44 1.866-1.291.862-.717 1.436 1.58 2.01 7.036 1.58 4.739 3.877-3.302 3.159-7.323-.574-8.615-.144-18.953 6.03-10.768 6.318-11.486 6.462-21.25 6.174-8.04-.287-12.491-1.435-20.532-5.312-9.332-4.307-13.066-7.18-9.045-7.18.718 0 3.302-1.866 5.743-4.307 5.456-5.456 14.358-9.907 21.968-11.342zm-126.782 76.815c0-1.723 2.584-.861 4.45 1.436 4.596 5.6 14.359 8.328 28.86 8.184 7.754 0 14.79-.718 15.795-1.436 2.01-1.579 12.347-3.015 30.582-4.163 10.912-.718 15.938-.144 40.92 5.168 10.195 2.154 19.097.862 24.984-3.589 5.456-4.164 8.04-4.738 4.882-1.149-1.293 1.436-4.739 7.467-7.754 13.353-3.015 5.887-6.46 12.348-7.753 14.358-1.292 2.01-4.882 7.323-8.04 11.918-4.595 7.035-14.359 17.086-20.102 20.819-16.799 10.912-33.885 13.496-46.09 6.892-15.075-8.04-29.003-22.973-39.197-42.213-3.302-6.318-9.62-15.363-13.784-20.101-4.307-4.739-7.753-9.046-7.753-9.477z" fill="#333333" id="unique-id_928_37"></path><path d="M65.747 158.94c0 .862-.574 1.867-1.436 2.298-.718.43-1.436-.144-1.436-1.292 0-1.292.718-2.297 1.436-2.297.862 0 1.436.574 1.436 1.292zM318.45 159.084c2.44 0 7.178 9.764 7.178 14.646 0 3.015-1.292 6.604-3.015 8.902-3.733 4.738-4.882 4.163-2.154-1.15 2.585-5.024 1.436-8.757-3.589-12.347-6.03-4.451-7.466-13.066-1.723-10.912 1.149.43 2.584.861 3.302.861zM47.943 186.221c-3.015 5.743-3.015 21.824 0 27.855 1.292 2.584 4.308 6.748 6.892 9.476l4.451 4.738-5.025-2.44c-16.225-8.041-19.958-22.83-9.907-38.767 4.738-7.323 7.179-8.04 3.59-.862z" fill="#333333" id="unique-id_929_38"></path><path d="M233.593 90.453c-3.877 1.58-3.302 2.584 1.292 2.297 8.04-.574 14.646.287 14.358 1.867-.287.861 1.58 1.723 4.164 2.01 2.585.143 6.749 2.153 9.19 4.164 2.44 2.153 4.881 3.445 5.312 3.015 1.292-1.293-7.18-9.333-9.907-9.333-1.292 0-2.728-.862-3.159-2.01-.861-2.297-16.512-3.733-21.25-2.01zM114.565 92.32c-.862 1.148-2.872 2.44-4.308 2.87-3.302 1.006-12.348 9.334-10.338 9.334.862 0 4.451-1.867 7.897-4.308 4.451-2.871 7.18-3.876 9.62-3.302 2.728.718 3.159.43 2.441-1.436-.574-1.723-.144-2.297 1.58-2.154 7.179.575 16.224-.43 15.363-1.723-1.436-2.297-20.245-1.723-22.255.718z" fill="#333333" id="unique-id_930_39"></path><path d="M139.548 91.889c-.862 1.292 2.44 3.015 4.881 2.297 1.723-.43 13.21 9.907 13.21 11.917 0 .718.861 1.292 2.01 1.292 2.297 0 5.169 7.18 5.169 12.779v3.59l-5.313-5.026c-9.907-9.333-17.086-14.214-18.665-12.635-1.005 1.005-3.446.718-7.754-.718-8.47-3.015-26.131-3.015-28.572-.143-1.005 1.148-2.297 2.153-3.015 2.153s-4.164 3.015-7.754 6.605c-5.169 5.025-5.886 6.318-3.302 5.456 3.159-1.005 5.6-3.159 8.328-7.897 2.728-4.738 21.68-6.748 33.167-3.446 4.738 1.292 9.189 1.867 10.05 1.292.862-.43 3.303.718 5.313 2.585 2.154 2.01 5.025 4.02 6.461 4.45 1.292.575 3.877 3.303 5.456 6.031 6.318 10.625 9.907 2.585 5.743-12.491-1.866-6.749-8.614-15.507-11.917-15.507-1.005 0-3.159-.862-4.738-2.01-3.159-2.154-7.61-2.441-8.758-.574zM219.81 91.745c-.862.861-2.442 1.58-3.59 1.866-4.882.575-11.056 8.759-13.353 17.374-2.872 11.343-2.872 15.076.43 15.076 1.293 0 3.303-1.292 4.164-2.728 2.728-4.451 18.522-15.938 19.958-14.502.718.718 3.733.287 7.036-.861 6.604-2.298 25.988-2.728 27.28-.575.43.718 2.01 1.436 3.446 1.436 1.436 0 4.45 2.297 6.461 5.025 2.154 2.728 4.882 5.026 6.174 5.026 2.728 0-7.18-10.769-12.492-13.497-5.025-2.728-21.106-4.02-24.695-2.154-1.58.862-5.887 1.723-9.764 1.867-7.323.43-12.922 3.733-22.542 13.353l-4.738 4.595v-4.739c0-6.317 2.728-14.07 4.594-12.922.862.574 4.02-1.866 7.18-5.312 3.302-3.59 6.891-6.318 8.614-6.318 1.723 0 3.303-.861 3.59-1.866.861-2.154-5.6-2.298-7.754-.144z" fill="#333333" id="unique-id_931_40"></path></g></g></g></g></g></g></g></g></g></g></g></svg>