<svg viewBox="-10 -10 1020 1219.3587" xmlns="http://www.w3.org/2000/svg" xmlns:xlink="http://www.w3.org/1999/xlink" version="1.1" width="1020" height="1219.3587"><style></style><g transform="translate(500,599.67935)scale(10,10)translate(-50,-59.967935)" style="transition:transform 0.5s"><g><g></g></g><g transform="translate(0,0)" style="transition:transform 0.5s"></g><g style="transition:transform 0.5s"><g><metadata xmlns:rdf="http://www.w3.org/1999/02/22-rdf-syntax-ns#" xmlns:cc="http://creativecommons.org/ns#" xmlns:dc="http://purl.org/dc/elements/1.1/"><rdf:RDF><rdf:Description dc:title="Ustalav" dc:creator="kosen"></rdf:Description><cc:Work rdf:about="https://heraldicon.org/arms/OxzhLU/2"><cc:license rdf:resource="private"></cc:license><cc:attributionName>Ustalav by kosen</cc:attributionName><cc:attributionURL rdf:resource="https://heraldicon.org/users/kosen"></cc:attributionURL></cc:Work><cc:License rdf:about="private"></cc:License></rdf:RDF></metadata><defs><pattern width="20" height="20" patternUnits="userSpaceOnUse" id="void"><rect x="0" y="0" width="20" height="20" fill="#fff" class="light"></rect><rect x="0" y="0" width="10" height="10" fill="#ddd" class="dark"></rect><rect x="10" y="10" width="10" height="10" fill="#ddd" class="dark"></rect></pattern><pattern width="4" height="4" patternUnits="userSpaceOnUse" id="selected"><rect x="0" y="0" width="4" height="4" fill="#f5f5f5"></rect><g fill="#000"><circle cx="0" cy="0" r="0.3"></circle><circle cx="4" cy="0" r="0.3"></circle><circle cx="0" cy="4" r="0.3"></circle><circle cx="4" cy="4" r="0.3"></circle><circle cx="2" cy="2" r="0.3"></circle></g></pattern><pattern id="ermine" width="12.5" height="20" patternUnits="userSpaceOnUse" x="-3.125" y="-5"><rect x="0" y="0" width="12.5" height="20" fill="#f6f6f6"></rect><g fill="#333333"><path d="M 47.757634,0 C 60.324696,15.689314 25.136924,21.898666 44.167046,36.607392
    52.24587,41.673746 71.273896,30.723464 54.57765,17.322176
    52.423302,16.178163 62.11999,8.3349512 47.757634,0 Z m 21.182372,36.935142 c
    -3.23154,0.326846 -6.282816,2.290268 -9.155302,7.193166 -3.590588,8.33495
    12.209402,22.716724 22.98117,5.06625 C 83.483996,47.069952 94.0755,53.93163
    100,39.386326 89.946316,49.845864 79.713166,37.425428 70.377642,36.935142 Z
    M 29.80469,37.099022 C 20.469164,37.58931 10.053647,50.173186 0,39.55021
    5.9244804,54.095512 16.51881,47.070414 17.416458,49.358438 28.0087,67.008916
    43.805884,52.627142 40.215296,44.292192 36.983772,38.73555 33.395278,36.9356
    29.80469,37.099026 Z m 21.003542,10.13249 c -8.25835,37.262136
    -23.51556,63.576958 -40.211787,82.534868 7.001653,-1.96117
    14.718613,-7.19213 22.258843,-11.93164 -4.667764,9.80582 -9.154602,18.14082
    -13.822364,26.80264 2.692942,-0.98059 11.489886,-9.64435 23.338826,-22.3919
    1.795296,17.48703 4.305204,25.8241 8.07532,37.75452 3.052012,-11.93042
    5.208468,-19.9411 7.54234,-37.9184 7.181178,8.00805 14.001888,16.17984
    23.696484,23.04393 L 68.221186,117.34659 c 7.001634,4.41265
    14.72282,10.29262 22.083522,12.74406 C 72.710832,110.15215
    57.989412,84.493648 50.808232,47.231516 Z" transform="scale(0.0625,0.0625)"></path><path d="M 47.757634,0 C 60.324696,15.689314 25.136924,21.898666 44.167046,36.607392
    52.24587,41.673746 71.273896,30.723464 54.57765,17.322176
    52.423302,16.178163 62.11999,8.3349512 47.757634,0 Z m 21.182372,36.935142 c
    -3.23154,0.326846 -6.282816,2.290268 -9.155302,7.193166 -3.590588,8.33495
    12.209402,22.716724 22.98117,5.06625 C 83.483996,47.069952 94.0755,53.93163
    100,39.386326 89.946316,49.845864 79.713166,37.425428 70.377642,36.935142 Z
    M 29.80469,37.099022 C 20.469164,37.58931 10.053647,50.173186 0,39.55021
    5.9244804,54.095512 16.51881,47.070414 17.416458,49.358438 28.0087,67.008916
    43.805884,52.627142 40.215296,44.292192 36.983772,38.73555 33.395278,36.9356
    29.80469,37.099026 Z m 21.003542,10.13249 c -8.25835,37.262136
    -23.51556,63.576958 -40.211787,82.534868 7.001653,-1.96117
    14.718613,-7.19213 22.258843,-11.93164 -4.667764,9.80582 -9.154602,18.14082
    -13.822364,26.80264 2.692942,-0.98059 11.489886,-9.64435 23.338826,-22.3919
    1.795296,17.48703 4.305204,25.8241 8.07532,37.75452 3.052012,-11.93042
    5.208468,-19.9411 7.54234,-37.9184 7.181178,8.00805 14.001888,16.17984
    23.696484,23.04393 L 68.221186,117.34659 c 7.001634,4.41265
    14.72282,10.29262 22.083522,12.74406 C 72.710832,110.15215
    57.989412,84.493648 50.808232,47.231516 Z" transform="translate(6.25,10) scale(0.0625,0.0625)"></path></g></pattern><pattern id="ermines" width="12.5" height="20" patternUnits="userSpaceOnUse" x="-3.125" y="-5"><rect x="0" y="0" width="12.5" height="20" fill="#333333"></rect><g fill="#f6f6f6"><path d="M 47.757634,0 C 60.324696,15.689314 25.136924,21.898666 44.167046,36.607392
    52.24587,41.673746 71.273896,30.723464 54.57765,17.322176
    52.423302,16.178163 62.11999,8.3349512 47.757634,0 Z m 21.182372,36.935142 c
    -3.23154,0.326846 -6.282816,2.290268 -9.155302,7.193166 -3.590588,8.33495
    12.209402,22.716724 22.98117,5.06625 C 83.483996,47.069952 94.0755,53.93163
    100,39.386326 89.946316,49.845864 79.713166,37.425428 70.377642,36.935142 Z
    M 29.80469,37.099022 C 20.469164,37.58931 10.053647,50.173186 0,39.55021
    5.9244804,54.095512 16.51881,47.070414 17.416458,49.358438 28.0087,67.008916
    43.805884,52.627142 40.215296,44.292192 36.983772,38.73555 33.395278,36.9356
    29.80469,37.099026 Z m 21.003542,10.13249 c -8.25835,37.262136
    -23.51556,63.576958 -40.211787,82.534868 7.001653,-1.96117
    14.718613,-7.19213 22.258843,-11.93164 -4.667764,9.80582 -9.154602,18.14082
    -13.822364,26.80264 2.692942,-0.98059 11.489886,-9.64435 23.338826,-22.3919
    1.795296,17.48703 4.305204,25.8241 8.07532,37.75452 3.052012,-11.93042
    5.208468,-19.9411 7.54234,-37.9184 7.181178,8.00805 14.001888,16.17984
    23.696484,23.04393 L 68.221186,117.34659 c 7.001634,4.41265
    14.72282,10.29262 22.083522,12.74406 C 72.710832,110.15215
    57.989412,84.493648 50.808232,47.231516 Z" transform="scale(0.0625,0.0625)"></path><path d="M 47.757634,0 C 60.324696,15.689314 25.136924,21.898666 44.167046,36.607392
    52.24587,41.673746 71.273896,30.723464 54.57765,17.322176
    52.423302,16.178163 62.11999,8.3349512 47.757634,0 Z m 21.182372,36.935142 c
    -3.23154,0.326846 -6.282816,2.290268 -9.155302,7.193166 -3.590588,8.33495
    12.209402,22.716724 22.98117,5.06625 C 83.483996,47.069952 94.0755,53.93163
    100,39.386326 89.946316,49.845864 79.713166,37.425428 70.377642,36.935142 Z
    M 29.80469,37.099022 C 20.469164,37.58931 10.053647,50.173186 0,39.55021
    5.9244804,54.095512 16.51881,47.070414 17.416458,49.358438 28.0087,67.008916
    43.805884,52.627142 40.215296,44.292192 36.983772,38.73555 33.395278,36.9356
    29.80469,37.099026 Z m 21.003542,10.13249 c -8.25835,37.262136
    -23.51556,63.576958 -40.211787,82.534868 7.001653,-1.96117
    14.718613,-7.19213 22.258843,-11.93164 -4.667764,9.80582 -9.154602,18.14082
    -13.822364,26.80264 2.692942,-0.98059 11.489886,-9.64435 23.338826,-22.3919
    1.795296,17.48703 4.305204,25.8241 8.07532,37.75452 3.052012,-11.93042
    5.208468,-19.9411 7.54234,-37.9184 7.181178,8.00805 14.001888,16.17984
    23.696484,23.04393 L 68.221186,117.34659 c 7.001634,4.41265
    14.72282,10.29262 22.083522,12.74406 C 72.710832,110.15215
    57.989412,84.493648 50.808232,47.231516 Z" transform="translate(6.25,10) scale(0.0625,0.0625)"></path></g></pattern><pattern id="erminois" width="12.5" height="20" patternUnits="userSpaceOnUse" x="-3.125" y="-5"><rect x="0" y="0" width="12.5" height="20" fill="#f2bc51"></rect><g fill="#333333"><path d="M 47.757634,0 C 60.324696,15.689314 25.136924,21.898666 44.167046,36.607392
    52.24587,41.673746 71.273896,30.723464 54.57765,17.322176
    52.423302,16.178163 62.11999,8.3349512 47.757634,0 Z m 21.182372,36.935142 c
    -3.23154,0.326846 -6.282816,2.290268 -9.155302,7.193166 -3.590588,8.33495
    12.209402,22.716724 22.98117,5.06625 C 83.483996,47.069952 94.0755,53.93163
    100,39.386326 89.946316,49.845864 79.713166,37.425428 70.377642,36.935142 Z
    M 29.80469,37.099022 C 20.469164,37.58931 10.053647,50.173186 0,39.55021
    5.9244804,54.095512 16.51881,47.070414 17.416458,49.358438 28.0087,67.008916
    43.805884,52.627142 40.215296,44.292192 36.983772,38.73555 33.395278,36.9356
    29.80469,37.099026 Z m 21.003542,10.13249 c -8.25835,37.262136
    -23.51556,63.576958 -40.211787,82.534868 7.001653,-1.96117
    14.718613,-7.19213 22.258843,-11.93164 -4.667764,9.80582 -9.154602,18.14082
    -13.822364,26.80264 2.692942,-0.98059 11.489886,-9.64435 23.338826,-22.3919
    1.795296,17.48703 4.305204,25.8241 8.07532,37.75452 3.052012,-11.93042
    5.208468,-19.9411 7.54234,-37.9184 7.181178,8.00805 14.001888,16.17984
    23.696484,23.04393 L 68.221186,117.34659 c 7.001634,4.41265
    14.72282,10.29262 22.083522,12.74406 C 72.710832,110.15215
    57.989412,84.493648 50.808232,47.231516 Z" transform="scale(0.0625,0.0625)"></path><path d="M 47.757634,0 C 60.324696,15.689314 25.136924,21.898666 44.167046,36.607392
    52.24587,41.673746 71.273896,30.723464 54.57765,17.322176
    52.423302,16.178163 62.11999,8.3349512 47.757634,0 Z m 21.182372,36.935142 c
    -3.23154,0.326846 -6.282816,2.290268 -9.155302,7.193166 -3.590588,8.33495
    12.209402,22.716724 22.98117,5.06625 C 83.483996,47.069952 94.0755,53.93163
    100,39.386326 89.946316,49.845864 79.713166,37.425428 70.377642,36.935142 Z
    M 29.80469,37.099022 C 20.469164,37.58931 10.053647,50.173186 0,39.55021
    5.9244804,54.095512 16.51881,47.070414 17.416458,49.358438 28.0087,67.008916
    43.805884,52.627142 40.215296,44.292192 36.983772,38.73555 33.395278,36.9356
    29.80469,37.099026 Z m 21.003542,10.13249 c -8.25835,37.262136
    -23.51556,63.576958 -40.211787,82.534868 7.001653,-1.96117
    14.718613,-7.19213 22.258843,-11.93164 -4.667764,9.80582 -9.154602,18.14082
    -13.822364,26.80264 2.692942,-0.98059 11.489886,-9.64435 23.338826,-22.3919
    1.795296,17.48703 4.305204,25.8241 8.07532,37.75452 3.052012,-11.93042
    5.208468,-19.9411 7.54234,-37.9184 7.181178,8.00805 14.001888,16.17984
    23.696484,23.04393 L 68.221186,117.34659 c 7.001634,4.41265
    14.72282,10.29262 22.083522,12.74406 C 72.710832,110.15215
    57.989412,84.493648 50.808232,47.231516 Z" transform="translate(6.25,10) scale(0.0625,0.0625)"></path></g></pattern><pattern id="pean" width="12.5" height="20" patternUnits="userSpaceOnUse" x="-3.125" y="-5"><rect x="0" y="0" width="12.5" height="20" fill="#333333"></rect><g fill="#f2bc51"><path d="M 47.757634,0 C 60.324696,15.689314 25.136924,21.898666 44.167046,36.607392
    52.24587,41.673746 71.273896,30.723464 54.57765,17.322176
    52.423302,16.178163 62.11999,8.3349512 47.757634,0 Z m 21.182372,36.935142 c
    -3.23154,0.326846 -6.282816,2.290268 -9.155302,7.193166 -3.590588,8.33495
    12.209402,22.716724 22.98117,5.06625 C 83.483996,47.069952 94.0755,53.93163
    100,39.386326 89.946316,49.845864 79.713166,37.425428 70.377642,36.935142 Z
    M 29.80469,37.099022 C 20.469164,37.58931 10.053647,50.173186 0,39.55021
    5.9244804,54.095512 16.51881,47.070414 17.416458,49.358438 28.0087,67.008916
    43.805884,52.627142 40.215296,44.292192 36.983772,38.73555 33.395278,36.9356
    29.80469,37.099026 Z m 21.003542,10.13249 c -8.25835,37.262136
    -23.51556,63.576958 -40.211787,82.534868 7.001653,-1.96117
    14.718613,-7.19213 22.258843,-11.93164 -4.667764,9.80582 -9.154602,18.14082
    -13.822364,26.80264 2.692942,-0.98059 11.489886,-9.64435 23.338826,-22.3919
    1.795296,17.48703 4.305204,25.8241 8.07532,37.75452 3.052012,-11.93042
    5.208468,-19.9411 7.54234,-37.9184 7.181178,8.00805 14.001888,16.17984
    23.696484,23.04393 L 68.221186,117.34659 c 7.001634,4.41265
    14.72282,10.29262 22.083522,12.74406 C 72.710832,110.15215
    57.989412,84.493648 50.808232,47.231516 Z" transform="scale(0.0625,0.0625)"></path><path d="M 47.757634,0 C 60.324696,15.689314 25.136924,21.898666 44.167046,36.607392
    52.24587,41.673746 71.273896,30.723464 54.57765,17.322176
    52.423302,16.178163 62.11999,8.3349512 47.757634,0 Z m 21.182372,36.935142 c
    -3.23154,0.326846 -6.282816,2.290268 -9.155302,7.193166 -3.590588,8.33495
    12.209402,22.716724 22.98117,5.06625 C 83.483996,47.069952 94.0755,53.93163
    100,39.386326 89.946316,49.845864 79.713166,37.425428 70.377642,36.935142 Z
    M 29.80469,37.099022 C 20.469164,37.58931 10.053647,50.173186 0,39.55021
    5.9244804,54.095512 16.51881,47.070414 17.416458,49.358438 28.0087,67.008916
    43.805884,52.627142 40.215296,44.292192 36.983772,38.73555 33.395278,36.9356
    29.80469,37.099026 Z m 21.003542,10.13249 c -8.25835,37.262136
    -23.51556,63.576958 -40.211787,82.534868 7.001653,-1.96117
    14.718613,-7.19213 22.258843,-11.93164 -4.667764,9.80582 -9.154602,18.14082
    -13.822364,26.80264 2.692942,-0.98059 11.489886,-9.64435 23.338826,-22.3919
    1.795296,17.48703 4.305204,25.8241 8.07532,37.75452 3.052012,-11.93042
    5.208468,-19.9411 7.54234,-37.9184 7.181178,8.00805 14.001888,16.17984
    23.696484,23.04393 L 68.221186,117.34659 c 7.001634,4.41265
    14.72282,10.29262 22.083522,12.74406 C 72.710832,110.15215
    57.989412,84.493648 50.808232,47.231516 Z" transform="translate(6.25,10) scale(0.0625,0.0625)"></path></g></pattern></defs><defs><mask id="mask_3"><path d="M50,0h50v33.33333c0,35.72656 -19.05989,68.73926 -50,86.60254c-30.94011,-17.86328 -50,-50.87598 -50,-86.60254v-33.33333z" clip-rule="evenodd" fill-rule="evenodd" fill="#fff" stroke="none"></path></mask></defs><g mask="url(#mask_3)"><g><g><path d="M50,0h50v33.33333c0,35.72656 -19.05989,68.73926 -50,86.60254c-30.94011,-17.86328 -50,-50.87598 -50,-86.60254v-33.33333z" fill-rule="evenodd" fill="#f0f0f0"></path><rect y="-1000" fill="#913a6a" width="2000" x="-1000" height="2000"></rect><g></g></g></g></g><g stroke="#333333" stroke-width="0.5" fill="none" stroke-linecap="round" stroke-linejoin="round"><path d="M50,0h50v33.33333c0,35.72656 -19.05989,68.73926 -50,86.60254c-30.94011,-17.86328 -50,-50.87598 -50,-86.60254v-33.33333z"></path></g></g></g><g transform="translate(0,0)" style="transition:transform 0.5s"></g><g><g><g><defs><mask id="mask_8"><g stroke="none" transform="translate(0,0)" fill="#fff" stroke-width="0"><switch><g><path fill="none" d="M410.698 924.5l6.962-2.949 7.705-3.53 7.812-3.801 9.535-4.888 16.194-8.892 16.27-9.65 16.832-10.737 13.433-9.129 11.882-8.509 12.105-9.092 10.749-8.461 9.251-7.584 13.395-11.511 13.625-12.375 12.031-11.545 12.906-13.084 7.874-8.367 7.216-7.939 7.448-8.488 10.753-12.82 7.855-9.823 9.074-11.877 7.411-10.146 8.599-12.353 6.236-9.364 6.658-10.43 3.79-6.149 7.14-12.043 6.009-10.64 5.931-11.005 7.626-14.986 5.818-12.157 5.565-12.289 6.518-15.379 4.344-10.898 3.531-9.345 5.204-14.589 4.456-13.477 3.924-12.559 3.583-12.712 3.36-12.653 3.579-14.708 3.185-14.446 2.322-11.556 2.147-11.703 1.99-12 2-13.481 1.75-13.485 1.317-11.584 1.121-11.479 1.143-14.084 1.117-17.353.416-11.187L780 332.9v-302H41.101v302l.605 16.309.416 11.187 1.116 17.353 1.144 14.084 1.121 11.479 1.309 11.584 1.75 13.485 2 13.481 1.998 12 2.147 11.703 2.321 11.556 3.186 14.446 3.579 14.708 3.357 12.653 3.582 12.712 3.927 12.559 4.456 13.477 5.197 14.589 3.539 9.345 4.337 10.898 6.525 15.379 5.562 12.289 5.821 12.157 7.626 14.986 5.929 11.005 6.01 10.64 7.141 12.043 3.79 6.149 6.658 10.43 6.23 9.364 8.605 12.353 7.41 10.146 9.073 11.877 7.857 9.823 10.753 12.82 7.448 8.488 7.216 7.939 7.874 8.367 12.906 13.084 12.029 11.545 13.62 12.375 13.402 11.511 9.251 7.584 10.749 8.461 12.098 9.092 11.885 8.509 13.437 9.129 16.832 10.737 16.269 9.65 16.195 8.892 9.535 4.888 7.807 3.801 7.707 3.53z"></path><g fill="#000" stroke="#fff" stroke-width="3" stroke-linejoin="round" stroke-miterlimit="10"><path d="M344.82 121.528h130.158l12.495-15.62H332.325zM485.047 90.29H334.75l-2.425 15.618h155.148zM344.82 121.528h130.158v283.399H344.82zM334.75 61.999h30.685V90.29H334.75zM454.361 61.999h30.687V90.29h-30.687zM393.576 61.999h33.685V90.29h-33.685z"></path></g><path fill="none" stroke="#fff" stroke-width="3" stroke-linejoin="round" stroke-miterlimit="10" d="M345.53 167.778h128.738M345.53 214.027h128.738M345.53 260.277h128.738M345.53 306.527h128.738M345.531 121.528h128.736M344.887 352.776h130.022M409.899 399.201v-46.425M409.899 306.527v-46.25M409.899 213.593v-46.665"></path><g fill="none" stroke="#fff" stroke-width="3" stroke-linejoin="round" stroke-miterlimit="10"><path d="M441.136 353.8v-45.606M378.659 353.8v-45.606"></path></g><g fill="none" stroke="#fff" stroke-width="3" stroke-linejoin="round" stroke-miterlimit="10"><path d="M441.136 259.914v-46.389M378.659 259.914v-46.389"></path></g><g fill="none" stroke="#fff" stroke-width="3" stroke-linejoin="round" stroke-miterlimit="10"><path d="M441.136 167.242v-46.39M378.659 167.242v-46.39"></path></g><path fill="#000" stroke="#fff" stroke-width="3" stroke-linejoin="round" stroke-miterlimit="10" d="M393.746 166.078c0-9.824 7.053-19.871 15.753-19.871 8.704 0 15.754 10.047 15.754 19.871v116.475h-31.508V166.078z"></path><g><path fill="#000" stroke="#fff" stroke-width="3" stroke-linejoin="round" stroke-miterlimit="10" d="M499.534 347.658h25.686v28.291h-25.686z"></path></g><g><path fill="#000" stroke="#fff" stroke-width="3" stroke-linejoin="round" stroke-miterlimit="10" d="M550.695 352.693h25.686v23.256h-25.686z"></path></g><g stroke="#fff" stroke-width="3" stroke-linejoin="round" stroke-miterlimit="10"><path fill="#000" d="M548.906 175.88h93.713l13.495-15.619H535.409zM654.688 144.642H536.836l-1.427 15.619h120.705zM548.812 175.88h93.714v217.8h-93.714zM536.836 116.351h25.686v28.291h-25.686zM580.522 116.351h29.687v28.291h-29.687zM629.004 116.351h25.685v28.291h-25.685z"></path><path fill="none" d="M548.705 219.44h93.926M548.705 263.607h93.926M548.705 307.775h93.926M548.236 351.942h94.863M595.668 393.68v-41.738M595.668 307.775v-44.168M595.668 220.309v-44.167"></path><g fill="none"><path d="M626.905 352.965v-43.523M564.43 352.965v-43.523"></path></g><g fill="none"><path d="M626.905 263.244v-44.307M564.43 263.244v-44.307"></path></g><path fill="#000" d="M579.913 216.829c0-9.824 7.054-19.87 15.754-19.87 8.703 0 15.754 10.047 15.754 19.87v74.651h-31.509v-74.651z"></path></g><g><path fill="#000" stroke="#fff" stroke-width="3" stroke-linejoin="round" stroke-miterlimit="10" d="M243.308 352.693h25.686v23.256h-25.686z"></path></g><g stroke="#fff" stroke-width="3" stroke-linejoin="round" stroke-miterlimit="10"><path fill="#000" d="M176.396 176.921h93.714l13.495-15.619H162.901zM282.179 145.683H164.327l-1.426 15.619h120.704zM176.396 176.921h93.712v217.8h-93.712z"></path><path fill="#000" d="M164.405 117.393h25.685v28.291h-25.685zM256.573 117.393h25.685v28.291h-25.685zM208.168 117.393h29.685v28.291h-29.685z"></path><path fill="none" d="M176.29 220.481h93.926M176.29 264.649h93.926M176.29 308.815h93.926M175.821 352.983h94.864M223.252 393.68v-40.697M223.252 308.815v-44.166M223.252 221.35v-44.167"></path><g fill="none"><path d="M254.49 354.006v-43.523M192.015 354.006v-43.523"></path></g><g fill="none"><path d="M254.49 264.285v-44.307M192.015 264.285v-44.307"></path></g><path fill="#000" d="M207.499 217.87c0-9.824 7.053-19.87 15.754-19.87 8.703 0 15.754 10.046 15.754 19.87v74.651H207.5l-.001-74.651h0z"></path></g><g><path fill="#000" stroke="#fff" stroke-width="3" stroke-linejoin="round" stroke-miterlimit="10" d="M294.47 347.658h25.684v28.291H294.47z"></path></g><g stroke="#fff" stroke-width="3" stroke-linejoin="round" stroke-miterlimit="10"><path fill="#000" d="M166.886 380.089h485.229v282.548H166.886z"></path><path fill="#000" d="M652.222 644.512l-28.808 17.118h-427.72l-28.808-17.118-10.516 13.606 36.303 20.138h433.761l36.303-20.138z"></path><path fill="#000" d="M626.434 678.256H192.673l-36.303-20.138-10 25.319 36.303 30.138H636.434l36.303-30.138-10-25.319z"></path><path fill="none" d="M195.694 391.345v271.569M623.505 391.345v271.569"></path></g><g><path fill="none" stroke="#fff" stroke-width="3" stroke-linejoin="round" stroke-miterlimit="10" d="M407.938 431.093v-46.666M470.414 431.093v-46.666M196.578 477.36h137.741"></path><path fill="#000" stroke="#fff" stroke-width="3" stroke-linejoin="round" stroke-miterlimit="10" d="M196.087 430.436h427.834"></path><path fill="none" stroke="#fff" stroke-width="3" stroke-linejoin="round" stroke-miterlimit="10" d="M485.723 477.501h138.472M196.578 616.111H343.9M473.429 616.111h150.446M196.578 570.414H343.9M473.429 570.414h150.446M595.365 616.665v-46.251M595.365 523.73v-46.666M532.889 616.665v-46.251M532.889 523.73v-46.666M564.127 662.931v-45.607M564.127 570.051v-46.389M564.127 477.379v-46.39M501.652 478.478v-46.389M501.652 663.33v-45.606M501.652 569.444v-46.389M439.176 475.643v-45.261M167.377 523.73H343.9M473.429 523.73h178.686M652.222 602.221l-28.808 14.097M652.222 563.958l-28.808 7.049M623.414 430.539l28.808 14.097M623.414 476.857l28.808 7.049M167.278 602.221l28.809 14.097M167.278 563.958l28.809 7.049M196.087 430.539l-28.809 14.097M196.087 476.857l-28.809 7.049M595.365 431.093v-46.666M532.889 431.093v-46.666M348.785 384.427v46.666M223.834 570.414v46.251M286.309 570.414v46.251M255.071 617.324v45.607M255.071 523.662v46.389M255.071 430.989v46.39M317.547 432.089v46.389M317.547 617.724v45.606M317.547 523.055v46.389M380.023 430.382v45.261M223.834 384.427v46.666M286.309 384.427v46.666"></path></g><g stroke="#fff" stroke-width="3" stroke-linejoin="round" stroke-miterlimit="10"><g fill="#000"><path d="M517.135 471.51c0-9.826 7.052-19.871 15.754-19.871s15.754 10.047 15.754 19.871v126.095h-31.508V471.51h0zM578.062 471.51c0-9.826 7.055-19.871 15.754-19.871 8.702 0 15.754 10.047 15.754 19.871v126.095h-31.509V471.51z"></path></g><g fill="#000"><path d="M208.273 471.51c0-9.826 7.053-19.871 15.754-19.871 8.702 0 15.754 10.047 15.754 19.871v126.095h-31.508V471.51h0zM269.199 471.51c0-9.826 7.055-19.871 15.754-19.871 8.702 0 15.754 10.047 15.754 19.871v126.095h-31.509V471.51z"></path></g><path fill="none" d="M623.505 662.914l2.929 15.342M636.434 713.575l-10-35.319M195.694 662.914l-3.021 15.342M182.673 713.575l10-35.319"></path></g><g><g stroke="#fff" stroke-width="3" stroke-linejoin="round" stroke-miterlimit="10"><g fill="#000"><path d="M471.278 419.411l21.138 12.083v26.18l-21.138-12.083zM347.728 445.591l-21.139 12.083v-26.18l21.139-12.083zM368.615 418.654h29.77v28.291h-29.77zM420.615 418.654h29.77v28.291h-29.77zM336.793 475.138h144.158v238.437H336.793z"></path><path d="M442.667 582.221h29.162v31.767h-29.162zM442.667 648.118h29.162v31.767h-29.162zM408.875 493.766c-6.603 0-13.013.952-19.068 2.766l9.126 33.639H418.5l9.126-33.738c-5.962-1.752-12.264-2.667-18.751-2.667zM359.846 516.086l25.92 20.108-5 13.767H346c1.331-12.78 6.1-24.464 13.846-33.875zM436.667 582.221h23.162v-24.845a59.33 59.33 0 00-.417-6.922h-22.744v31.767zM380.766 582.221h-23.162v-24.845c0-2.348.151-4.655.417-6.922h22.744v31.767zM431.667 614.351h28.162v33.767h-28.162z"></path><path d="M431.667 679.846v33.767h28.16l.002-.038v-33.729h-28.162zM337.105 487.453l16.766-9.062h111.365l16.767 9.062 10.515-12.598-22.247-12.084H348.837l-22.248 12.084z"></path><path d="M348.837 462.771h121.434l22.247 12.084v-17.181l-21.24-12.083H347.83l-21.24 12.083-.001 17.181z"></path></g><path fill="#000" d="M444.791 519.865c-5.677-5.529-12.623-9.537-20.302-11.837l-5.99 22.143 13.167 6.023 16.427-12.744c-1.197-1.49-1.925-2.245-3.302-3.585zM345.604 582.221h29.162v31.767h-29.162zM345.604 648.118h29.162v31.767h-29.162z"></path><path fill="#000" d="M457.586 516.086l-25.92 20.108 5 13.767h34.766c-1.33-12.78-6.099-24.464-13.846-33.875zM357.605 614.351h28.162v33.767h-28.162zM385.766 679.846v33.767h-28.16l-.002-.038v-33.729h28.162zM372.641 519.865c5.677-5.529 12.623-9.537 20.302-11.837l5.99 22.143-13.167 6.023-16.427-12.744c1.198-1.49 1.926-2.245 3.302-3.585z"></path><path fill="#000" d="M369.919 557.376c0-24.293 17.44-39.609 38.956-39.609 21.512 0 38.953 15.316 38.953 43.609v152.199h-77.907l-.002-152.199v-4z"></path></g></g><g stroke="#fff" stroke-width="3" stroke-linejoin="round" stroke-miterlimit="10"><path fill="#000" d="M166.886 408.463l28.808-17.118h427.72l28.808 17.118 10.515-13.606-32.303-20.139H188.673l-32.303 20.139z"></path><path fill="#000" d="M630.434 374.718H188.673l-32.303 20.139-4-27.25 30.303-20.138h453.761l30.303 20.138-4 27.25z"></path><path fill="#000" d="M636.434 317.261l30.303 20.139v30.207l-30.303-20.138zM182.673 317.261L152.37 337.4v30.207l30.303-20.138zM559.936 317.261h40.277v30.208h-40.277zM218.895 317.261h40.277v30.208h-40.277zM423.519 317.261h40.277v30.208h-40.277zM491.728 317.261h40.277v30.208h-40.277zM287.103 317.261h40.277v30.208h-40.277zM355.311 317.261h40.277v30.208h-40.277z"></path><path fill="none" d="M188.673 374.718l7.021 16.627M623.505 391.345l6.929-16.627"></path></g></g></switch></g></mask><mask id="mask_9"><g stroke="none" transform="translate(0,0)" fill="#000" stroke-width="0"><switch><g><path fill="none" d="M410.698 924.5l6.962-2.949 7.705-3.53 7.812-3.801 9.535-4.888 16.194-8.892 16.27-9.65 16.832-10.737 13.433-9.129 11.882-8.509 12.105-9.092 10.749-8.461 9.251-7.584 13.395-11.511 13.625-12.375 12.031-11.545 12.906-13.084 7.874-8.367 7.216-7.939 7.448-8.488 10.753-12.82 7.855-9.823 9.074-11.877 7.411-10.146 8.599-12.353 6.236-9.364 6.658-10.43 3.79-6.149 7.14-12.043 6.009-10.64 5.931-11.005 7.626-14.986 5.818-12.157 5.565-12.289 6.518-15.379 4.344-10.898 3.531-9.345 5.204-14.589 4.456-13.477 3.924-12.559 3.583-12.712 3.36-12.653 3.579-14.708 3.185-14.446 2.322-11.556 2.147-11.703 1.99-12 2-13.481 1.75-13.485 1.317-11.584 1.121-11.479 1.143-14.084 1.117-17.353.416-11.187L780 332.9v-302H41.101v302l.605 16.309.416 11.187 1.116 17.353 1.144 14.084 1.121 11.479 1.309 11.584 1.75 13.485 2 13.481 1.998 12 2.147 11.703 2.321 11.556 3.186 14.446 3.579 14.708 3.357 12.653 3.582 12.712 3.927 12.559 4.456 13.477 5.197 14.589 3.539 9.345 4.337 10.898 6.525 15.379 5.562 12.289 5.821 12.157 7.626 14.986 5.929 11.005 6.01 10.64 7.141 12.043 3.79 6.149 6.658 10.43 6.23 9.364 8.605 12.353 7.41 10.146 9.073 11.877 7.857 9.823 10.753 12.82 7.448 8.488 7.216 7.939 7.874 8.367 12.906 13.084 12.029 11.545 13.62 12.375 13.402 11.511 9.251 7.584 10.749 8.461 12.098 9.092 11.885 8.509 13.437 9.129 16.832 10.737 16.269 9.65 16.195 8.892 9.535 4.888 7.807 3.801 7.707 3.53z"></path><g fill="#fff" stroke="#000" stroke-width="3" stroke-linejoin="round" stroke-miterlimit="10"><path d="M344.82 121.528h130.158l12.495-15.62H332.325zM485.047 90.29H334.75l-2.425 15.618h155.148zM344.82 121.528h130.158v283.399H344.82zM334.75 61.999h30.685V90.29H334.75zM454.361 61.999h30.687V90.29h-30.687zM393.576 61.999h33.685V90.29h-33.685z"></path></g><path fill="none" stroke="#000" stroke-width="3" stroke-linejoin="round" stroke-miterlimit="10" d="M345.53 167.778h128.738M345.53 214.027h128.738M345.53 260.277h128.738M345.53 306.527h128.738M345.531 121.528h128.736M344.887 352.776h130.022M409.899 399.201v-46.425M409.899 306.527v-46.25M409.899 213.593v-46.665"></path><g fill="none" stroke="#000" stroke-width="3" stroke-linejoin="round" stroke-miterlimit="10"><path d="M441.136 353.8v-45.606M378.659 353.8v-45.606"></path></g><g fill="none" stroke="#000" stroke-width="3" stroke-linejoin="round" stroke-miterlimit="10"><path d="M441.136 259.914v-46.389M378.659 259.914v-46.389"></path></g><g fill="none" stroke="#000" stroke-width="3" stroke-linejoin="round" stroke-miterlimit="10"><path d="M441.136 167.242v-46.39M378.659 167.242v-46.39"></path></g><path fill="#fff" stroke="#000" stroke-width="3" stroke-linejoin="round" stroke-miterlimit="10" d="M393.746 166.078c0-9.824 7.053-19.871 15.753-19.871 8.704 0 15.754 10.047 15.754 19.871v116.475h-31.508V166.078z"></path><g><path fill="#fff" stroke="#000" stroke-width="3" stroke-linejoin="round" stroke-miterlimit="10" d="M499.534 347.658h25.686v28.291h-25.686z"></path></g><g><path fill="#fff" stroke="#000" stroke-width="3" stroke-linejoin="round" stroke-miterlimit="10" d="M550.695 352.693h25.686v23.256h-25.686z"></path></g><g stroke="#000" stroke-width="3" stroke-linejoin="round" stroke-miterlimit="10"><path fill="#fff" d="M548.906 175.88h93.713l13.495-15.619H535.409zM654.688 144.642H536.836l-1.427 15.619h120.705zM548.812 175.88h93.714v217.8h-93.714zM536.836 116.351h25.686v28.291h-25.686zM580.522 116.351h29.687v28.291h-29.687zM629.004 116.351h25.685v28.291h-25.685z"></path><path fill="none" d="M548.705 219.44h93.926M548.705 263.607h93.926M548.705 307.775h93.926M548.236 351.942h94.863M595.668 393.68v-41.738M595.668 307.775v-44.168M595.668 220.309v-44.167"></path><g fill="none"><path d="M626.905 352.965v-43.523M564.43 352.965v-43.523"></path></g><g fill="none"><path d="M626.905 263.244v-44.307M564.43 263.244v-44.307"></path></g><path fill="#fff" d="M579.913 216.829c0-9.824 7.054-19.87 15.754-19.87 8.703 0 15.754 10.047 15.754 19.87v74.651h-31.509v-74.651z"></path></g><g><path fill="#fff" stroke="#000" stroke-width="3" stroke-linejoin="round" stroke-miterlimit="10" d="M243.308 352.693h25.686v23.256h-25.686z"></path></g><g stroke="#000" stroke-width="3" stroke-linejoin="round" stroke-miterlimit="10"><path fill="#fff" d="M176.396 176.921h93.714l13.495-15.619H162.901zM282.179 145.683H164.327l-1.426 15.619h120.704zM176.396 176.921h93.712v217.8h-93.712z"></path><path fill="#fff" d="M164.405 117.393h25.685v28.291h-25.685zM256.573 117.393h25.685v28.291h-25.685zM208.168 117.393h29.685v28.291h-29.685z"></path><path fill="none" d="M176.29 220.481h93.926M176.29 264.649h93.926M176.29 308.815h93.926M175.821 352.983h94.864M223.252 393.68v-40.697M223.252 308.815v-44.166M223.252 221.35v-44.167"></path><g fill="none"><path d="M254.49 354.006v-43.523M192.015 354.006v-43.523"></path></g><g fill="none"><path d="M254.49 264.285v-44.307M192.015 264.285v-44.307"></path></g><path fill="#fff" d="M207.499 217.87c0-9.824 7.053-19.87 15.754-19.87 8.703 0 15.754 10.046 15.754 19.87v74.651H207.5l-.001-74.651h0z"></path></g><g><path fill="#fff" stroke="#000" stroke-width="3" stroke-linejoin="round" stroke-miterlimit="10" d="M294.47 347.658h25.684v28.291H294.47z"></path></g><g stroke="#000" stroke-width="3" stroke-linejoin="round" stroke-miterlimit="10"><path fill="#fff" d="M166.886 380.089h485.229v282.548H166.886z"></path><path fill="#fff" d="M652.222 644.512l-28.808 17.118h-427.72l-28.808-17.118-10.516 13.606 36.303 20.138h433.761l36.303-20.138z"></path><path fill="#fff" d="M626.434 678.256H192.673l-36.303-20.138-10 25.319 36.303 30.138H636.434l36.303-30.138-10-25.319z"></path><path fill="none" d="M195.694 391.345v271.569M623.505 391.345v271.569"></path></g><g><path fill="none" stroke="#000" stroke-width="3" stroke-linejoin="round" stroke-miterlimit="10" d="M407.938 431.093v-46.666M470.414 431.093v-46.666M196.578 477.36h137.741"></path><path fill="#fff" stroke="#000" stroke-width="3" stroke-linejoin="round" stroke-miterlimit="10" d="M196.087 430.436h427.834"></path><path fill="none" stroke="#000" stroke-width="3" stroke-linejoin="round" stroke-miterlimit="10" d="M485.723 477.501h138.472M196.578 616.111H343.9M473.429 616.111h150.446M196.578 570.414H343.9M473.429 570.414h150.446M595.365 616.665v-46.251M595.365 523.73v-46.666M532.889 616.665v-46.251M532.889 523.73v-46.666M564.127 662.931v-45.607M564.127 570.051v-46.389M564.127 477.379v-46.39M501.652 478.478v-46.389M501.652 663.33v-45.606M501.652 569.444v-46.389M439.176 475.643v-45.261M167.377 523.73H343.9M473.429 523.73h178.686M652.222 602.221l-28.808 14.097M652.222 563.958l-28.808 7.049M623.414 430.539l28.808 14.097M623.414 476.857l28.808 7.049M167.278 602.221l28.809 14.097M167.278 563.958l28.809 7.049M196.087 430.539l-28.809 14.097M196.087 476.857l-28.809 7.049M595.365 431.093v-46.666M532.889 431.093v-46.666M348.785 384.427v46.666M223.834 570.414v46.251M286.309 570.414v46.251M255.071 617.324v45.607M255.071 523.662v46.389M255.071 430.989v46.39M317.547 432.089v46.389M317.547 617.724v45.606M317.547 523.055v46.389M380.023 430.382v45.261M223.834 384.427v46.666M286.309 384.427v46.666"></path></g><g stroke="#000" stroke-width="3" stroke-linejoin="round" stroke-miterlimit="10"><g fill="#fff"><path d="M517.135 471.51c0-9.826 7.052-19.871 15.754-19.871s15.754 10.047 15.754 19.871v126.095h-31.508V471.51h0zM578.062 471.51c0-9.826 7.055-19.871 15.754-19.871 8.702 0 15.754 10.047 15.754 19.871v126.095h-31.509V471.51z"></path></g><g fill="#fff"><path d="M208.273 471.51c0-9.826 7.053-19.871 15.754-19.871 8.702 0 15.754 10.047 15.754 19.871v126.095h-31.508V471.51h0zM269.199 471.51c0-9.826 7.055-19.871 15.754-19.871 8.702 0 15.754 10.047 15.754 19.871v126.095h-31.509V471.51z"></path></g><path fill="none" d="M623.505 662.914l2.929 15.342M636.434 713.575l-10-35.319M195.694 662.914l-3.021 15.342M182.673 713.575l10-35.319"></path></g><g><g stroke="#000" stroke-width="3" stroke-linejoin="round" stroke-miterlimit="10"><g fill="#fff"><path d="M471.278 419.411l21.138 12.083v26.18l-21.138-12.083zM347.728 445.591l-21.139 12.083v-26.18l21.139-12.083zM368.615 418.654h29.77v28.291h-29.77zM420.615 418.654h29.77v28.291h-29.77zM336.793 475.138h144.158v238.437H336.793z"></path><path d="M442.667 582.221h29.162v31.767h-29.162zM442.667 648.118h29.162v31.767h-29.162zM408.875 493.766c-6.603 0-13.013.952-19.068 2.766l9.126 33.639H418.5l9.126-33.738c-5.962-1.752-12.264-2.667-18.751-2.667zM359.846 516.086l25.92 20.108-5 13.767H346c1.331-12.78 6.1-24.464 13.846-33.875zM436.667 582.221h23.162v-24.845a59.33 59.33 0 00-.417-6.922h-22.744v31.767zM380.766 582.221h-23.162v-24.845c0-2.348.151-4.655.417-6.922h22.744v31.767zM431.667 614.351h28.162v33.767h-28.162z"></path><path d="M431.667 679.846v33.767h28.16l.002-.038v-33.729h-28.162zM337.105 487.453l16.766-9.062h111.365l16.767 9.062 10.515-12.598-22.247-12.084H348.837l-22.248 12.084z"></path><path d="M348.837 462.771h121.434l22.247 12.084v-17.181l-21.24-12.083H347.83l-21.24 12.083-.001 17.181z"></path></g><path fill="#fff" d="M444.791 519.865c-5.677-5.529-12.623-9.537-20.302-11.837l-5.99 22.143 13.167 6.023 16.427-12.744c-1.197-1.49-1.925-2.245-3.302-3.585zM345.604 582.221h29.162v31.767h-29.162zM345.604 648.118h29.162v31.767h-29.162z"></path><path fill="#fff" d="M457.586 516.086l-25.92 20.108 5 13.767h34.766c-1.33-12.78-6.099-24.464-13.846-33.875zM357.605 614.351h28.162v33.767h-28.162zM385.766 679.846v33.767h-28.16l-.002-.038v-33.729h28.162zM372.641 519.865c5.677-5.529 12.623-9.537 20.302-11.837l5.99 22.143-13.167 6.023-16.427-12.744c1.198-1.49 1.926-2.245 3.302-3.585z"></path><path fill="#fff" d="M369.919 557.376c0-24.293 17.44-39.609 38.956-39.609 21.512 0 38.953 15.316 38.953 43.609v152.199h-77.907l-.002-152.199v-4z"></path></g></g><g stroke="#000" stroke-width="3" stroke-linejoin="round" stroke-miterlimit="10"><path fill="#fff" d="M166.886 408.463l28.808-17.118h427.72l28.808 17.118 10.515-13.606-32.303-20.139H188.673l-32.303 20.139z"></path><path fill="#fff" d="M630.434 374.718H188.673l-32.303 20.139-4-27.25 30.303-20.138h453.761l30.303 20.138-4 27.25z"></path><path fill="#fff" d="M636.434 317.261l30.303 20.139v30.207l-30.303-20.138zM182.673 317.261L152.37 337.4v30.207l30.303-20.138zM559.936 317.261h40.277v30.208h-40.277zM218.895 317.261h40.277v30.208h-40.277zM423.519 317.261h40.277v30.208h-40.277zM491.728 317.261h40.277v30.208h-40.277zM287.103 317.261h40.277v30.208h-40.277zM355.311 317.261h40.277v30.208h-40.277z"></path><path fill="none" d="M188.673 374.718l7.021 16.627M623.505 391.345l6.929-16.627"></path></g></g></switch></g></mask><mask id="mask_10"><g stroke="none" transform="translate(0,0)" fill="#fff" stroke-width="0"><switch><g><path fill="none" d="M410.698 924.5l6.962-2.949 7.705-3.53 7.812-3.801 9.535-4.888 16.194-8.892 16.27-9.65 16.832-10.737 13.433-9.129 11.882-8.509 12.105-9.092 10.749-8.461 9.251-7.584 13.395-11.511 13.625-12.375 12.031-11.545 12.906-13.084 7.874-8.367 7.216-7.939 7.448-8.488 10.753-12.82 7.855-9.823 9.074-11.877 7.411-10.146 8.599-12.353 6.236-9.364 6.658-10.43 3.79-6.149 7.14-12.043 6.009-10.64 5.931-11.005 7.626-14.986 5.818-12.157 5.565-12.289 6.518-15.379 4.344-10.898 3.531-9.345 5.204-14.589 4.456-13.477 3.924-12.559 3.583-12.712 3.36-12.653 3.579-14.708 3.185-14.446 2.322-11.556 2.147-11.703 1.99-12 2-13.481 1.75-13.485 1.317-11.584 1.121-11.479 1.143-14.084 1.117-17.353.416-11.187L780 332.9v-302H41.101v302l.605 16.309.416 11.187 1.116 17.353 1.144 14.084 1.121 11.479 1.309 11.584 1.75 13.485 2 13.481 1.998 12 2.147 11.703 2.321 11.556 3.186 14.446 3.579 14.708 3.357 12.653 3.582 12.712 3.927 12.559 4.456 13.477 5.197 14.589 3.539 9.345 4.337 10.898 6.525 15.379 5.562 12.289 5.821 12.157 7.626 14.986 5.929 11.005 6.01 10.64 7.141 12.043 3.79 6.149 6.658 10.43 6.23 9.364 8.605 12.353 7.41 10.146 9.073 11.877 7.857 9.823 10.753 12.82 7.448 8.488 7.216 7.939 7.874 8.367 12.906 13.084 12.029 11.545 13.62 12.375 13.402 11.511 9.251 7.584 10.749 8.461 12.098 9.092 11.885 8.509 13.437 9.129 16.832 10.737 16.269 9.65 16.195 8.892 9.535 4.888 7.807 3.801 7.707 3.53z"></path><g fill="#fff" stroke="#fff" stroke-width="3" stroke-linejoin="round" stroke-miterlimit="10"><path d="M344.82 121.528h130.158l12.495-15.62H332.325zM485.047 90.29H334.75l-2.425 15.618h155.148zM344.82 121.528h130.158v283.399H344.82zM334.75 61.999h30.685V90.29H334.75zM454.361 61.999h30.687V90.29h-30.687zM393.576 61.999h33.685V90.29h-33.685z"></path></g><path fill="none" stroke="#fff" stroke-width="3" stroke-linejoin="round" stroke-miterlimit="10" d="M345.53 167.778h128.738M345.53 214.027h128.738M345.53 260.277h128.738M345.53 306.527h128.738M345.531 121.528h128.736M344.887 352.776h130.022M409.899 399.201v-46.425M409.899 306.527v-46.25M409.899 213.593v-46.665"></path><g fill="none" stroke="#fff" stroke-width="3" stroke-linejoin="round" stroke-miterlimit="10"><path d="M441.136 353.8v-45.606M378.659 353.8v-45.606"></path></g><g fill="none" stroke="#fff" stroke-width="3" stroke-linejoin="round" stroke-miterlimit="10"><path d="M441.136 259.914v-46.389M378.659 259.914v-46.389"></path></g><g fill="none" stroke="#fff" stroke-width="3" stroke-linejoin="round" stroke-miterlimit="10"><path d="M441.136 167.242v-46.39M378.659 167.242v-46.39"></path></g><path fill="#fff" stroke="#fff" stroke-width="3" stroke-linejoin="round" stroke-miterlimit="10" d="M393.746 166.078c0-9.824 7.053-19.871 15.753-19.871 8.704 0 15.754 10.047 15.754 19.871v116.475h-31.508V166.078z"></path><g><path fill="#fff" stroke="#fff" stroke-width="3" stroke-linejoin="round" stroke-miterlimit="10" d="M499.534 347.658h25.686v28.291h-25.686z"></path></g><g><path fill="#fff" stroke="#fff" stroke-width="3" stroke-linejoin="round" stroke-miterlimit="10" d="M550.695 352.693h25.686v23.256h-25.686z"></path></g><g stroke="#fff" stroke-width="3" stroke-linejoin="round" stroke-miterlimit="10"><path fill="#fff" d="M548.906 175.88h93.713l13.495-15.619H535.409zM654.688 144.642H536.836l-1.427 15.619h120.705zM548.812 175.88h93.714v217.8h-93.714zM536.836 116.351h25.686v28.291h-25.686zM580.522 116.351h29.687v28.291h-29.687zM629.004 116.351h25.685v28.291h-25.685z"></path><path fill="none" d="M548.705 219.44h93.926M548.705 263.607h93.926M548.705 307.775h93.926M548.236 351.942h94.863M595.668 393.68v-41.738M595.668 307.775v-44.168M595.668 220.309v-44.167"></path><g fill="none"><path d="M626.905 352.965v-43.523M564.43 352.965v-43.523"></path></g><g fill="none"><path d="M626.905 263.244v-44.307M564.43 263.244v-44.307"></path></g><path fill="#fff" d="M579.913 216.829c0-9.824 7.054-19.87 15.754-19.87 8.703 0 15.754 10.047 15.754 19.87v74.651h-31.509v-74.651z"></path></g><g><path fill="#fff" stroke="#fff" stroke-width="3" stroke-linejoin="round" stroke-miterlimit="10" d="M243.308 352.693h25.686v23.256h-25.686z"></path></g><g stroke="#fff" stroke-width="3" stroke-linejoin="round" stroke-miterlimit="10"><path fill="#fff" d="M176.396 176.921h93.714l13.495-15.619H162.901zM282.179 145.683H164.327l-1.426 15.619h120.704zM176.396 176.921h93.712v217.8h-93.712z"></path><path fill="#fff" d="M164.405 117.393h25.685v28.291h-25.685zM256.573 117.393h25.685v28.291h-25.685zM208.168 117.393h29.685v28.291h-29.685z"></path><path fill="none" d="M176.29 220.481h93.926M176.29 264.649h93.926M176.29 308.815h93.926M175.821 352.983h94.864M223.252 393.68v-40.697M223.252 308.815v-44.166M223.252 221.35v-44.167"></path><g fill="none"><path d="M254.49 354.006v-43.523M192.015 354.006v-43.523"></path></g><g fill="none"><path d="M254.49 264.285v-44.307M192.015 264.285v-44.307"></path></g><path fill="#fff" d="M207.499 217.87c0-9.824 7.053-19.87 15.754-19.87 8.703 0 15.754 10.046 15.754 19.87v74.651H207.5l-.001-74.651h0z"></path></g><g><path fill="#fff" stroke="#fff" stroke-width="3" stroke-linejoin="round" stroke-miterlimit="10" d="M294.47 347.658h25.684v28.291H294.47z"></path></g><g stroke="#fff" stroke-width="3" stroke-linejoin="round" stroke-miterlimit="10"><path fill="#fff" d="M166.886 380.089h485.229v282.548H166.886z"></path><path fill="#fff" d="M652.222 644.512l-28.808 17.118h-427.72l-28.808-17.118-10.516 13.606 36.303 20.138h433.761l36.303-20.138z"></path><path fill="#fff" d="M626.434 678.256H192.673l-36.303-20.138-10 25.319 36.303 30.138H636.434l36.303-30.138-10-25.319z"></path><path fill="none" d="M195.694 391.345v271.569M623.505 391.345v271.569"></path></g><g><path fill="none" stroke="#fff" stroke-width="3" stroke-linejoin="round" stroke-miterlimit="10" d="M407.938 431.093v-46.666M470.414 431.093v-46.666M196.578 477.36h137.741"></path><path fill="#fff" stroke="#fff" stroke-width="3" stroke-linejoin="round" stroke-miterlimit="10" d="M196.087 430.436h427.834"></path><path fill="none" stroke="#fff" stroke-width="3" stroke-linejoin="round" stroke-miterlimit="10" d="M485.723 477.501h138.472M196.578 616.111H343.9M473.429 616.111h150.446M196.578 570.414H343.9M473.429 570.414h150.446M595.365 616.665v-46.251M595.365 523.73v-46.666M532.889 616.665v-46.251M532.889 523.73v-46.666M564.127 662.931v-45.607M564.127 570.051v-46.389M564.127 477.379v-46.39M501.652 478.478v-46.389M501.652 663.33v-45.606M501.652 569.444v-46.389M439.176 475.643v-45.261M167.377 523.73H343.9M473.429 523.73h178.686M652.222 602.221l-28.808 14.097M652.222 563.958l-28.808 7.049M623.414 430.539l28.808 14.097M623.414 476.857l28.808 7.049M167.278 602.221l28.809 14.097M167.278 563.958l28.809 7.049M196.087 430.539l-28.809 14.097M196.087 476.857l-28.809 7.049M595.365 431.093v-46.666M532.889 431.093v-46.666M348.785 384.427v46.666M223.834 570.414v46.251M286.309 570.414v46.251M255.071 617.324v45.607M255.071 523.662v46.389M255.071 430.989v46.39M317.547 432.089v46.389M317.547 617.724v45.606M317.547 523.055v46.389M380.023 430.382v45.261M223.834 384.427v46.666M286.309 384.427v46.666"></path></g><g stroke="#fff" stroke-width="3" stroke-linejoin="round" stroke-miterlimit="10"><g fill="#fff"><path d="M517.135 471.51c0-9.826 7.052-19.871 15.754-19.871s15.754 10.047 15.754 19.871v126.095h-31.508V471.51h0zM578.062 471.51c0-9.826 7.055-19.871 15.754-19.871 8.702 0 15.754 10.047 15.754 19.871v126.095h-31.509V471.51z"></path></g><g fill="#fff"><path d="M208.273 471.51c0-9.826 7.053-19.871 15.754-19.871 8.702 0 15.754 10.047 15.754 19.871v126.095h-31.508V471.51h0zM269.199 471.51c0-9.826 7.055-19.871 15.754-19.871 8.702 0 15.754 10.047 15.754 19.871v126.095h-31.509V471.51z"></path></g><path fill="none" d="M623.505 662.914l2.929 15.342M636.434 713.575l-10-35.319M195.694 662.914l-3.021 15.342M182.673 713.575l10-35.319"></path></g><g><g stroke="#fff" stroke-width="3" stroke-linejoin="round" stroke-miterlimit="10"><g fill="#fff"><path d="M471.278 419.411l21.138 12.083v26.18l-21.138-12.083zM347.728 445.591l-21.139 12.083v-26.18l21.139-12.083zM368.615 418.654h29.77v28.291h-29.77zM420.615 418.654h29.77v28.291h-29.77zM336.793 475.138h144.158v238.437H336.793z"></path><path d="M442.667 582.221h29.162v31.767h-29.162zM442.667 648.118h29.162v31.767h-29.162zM408.875 493.766c-6.603 0-13.013.952-19.068 2.766l9.126 33.639H418.5l9.126-33.738c-5.962-1.752-12.264-2.667-18.751-2.667zM359.846 516.086l25.92 20.108-5 13.767H346c1.331-12.78 6.1-24.464 13.846-33.875zM436.667 582.221h23.162v-24.845a59.33 59.33 0 00-.417-6.922h-22.744v31.767zM380.766 582.221h-23.162v-24.845c0-2.348.151-4.655.417-6.922h22.744v31.767zM431.667 614.351h28.162v33.767h-28.162z"></path><path d="M431.667 679.846v33.767h28.16l.002-.038v-33.729h-28.162zM337.105 487.453l16.766-9.062h111.365l16.767 9.062 10.515-12.598-22.247-12.084H348.837l-22.248 12.084z"></path><path d="M348.837 462.771h121.434l22.247 12.084v-17.181l-21.24-12.083H347.83l-21.24 12.083-.001 17.181z"></path></g><path fill="#fff" d="M444.791 519.865c-5.677-5.529-12.623-9.537-20.302-11.837l-5.99 22.143 13.167 6.023 16.427-12.744c-1.197-1.49-1.925-2.245-3.302-3.585zM345.604 582.221h29.162v31.767h-29.162zM345.604 648.118h29.162v31.767h-29.162z"></path><path fill="#fff" d="M457.586 516.086l-25.92 20.108 5 13.767h34.766c-1.33-12.78-6.099-24.464-13.846-33.875zM357.605 614.351h28.162v33.767h-28.162zM385.766 679.846v33.767h-28.16l-.002-.038v-33.729h28.162zM372.641 519.865c5.677-5.529 12.623-9.537 20.302-11.837l5.99 22.143-13.167 6.023-16.427-12.744c1.198-1.49 1.926-2.245 3.302-3.585z"></path><path fill="#fff" d="M369.919 557.376c0-24.293 17.44-39.609 38.956-39.609 21.512 0 38.953 15.316 38.953 43.609v152.199h-77.907l-.002-152.199v-4z"></path></g></g><g stroke="#fff" stroke-width="3" stroke-linejoin="round" stroke-miterlimit="10"><path fill="#fff" d="M166.886 408.463l28.808-17.118h427.72l28.808 17.118 10.515-13.606-32.303-20.139H188.673l-32.303 20.139z"></path><path fill="#fff" d="M630.434 374.718H188.673l-32.303 20.139-4-27.25 30.303-20.138h453.761l30.303 20.138-4 27.25z"></path><path fill="#fff" d="M636.434 317.261l30.303 20.139v30.207l-30.303-20.138zM182.673 317.261L152.37 337.4v30.207l30.303-20.138zM559.936 317.261h40.277v30.208h-40.277zM218.895 317.261h40.277v30.208h-40.277zM423.519 317.261h40.277v30.208h-40.277zM491.728 317.261h40.277v30.208h-40.277zM287.103 317.261h40.277v30.208h-40.277zM355.311 317.261h40.277v30.208h-40.277z"></path><path fill="none" d="M188.673 374.718l7.021 16.627M623.505 391.345l6.929-16.627"></path></g></g></switch></g></mask></defs><g transform="translate(50,59.967935)rotate(0)scale(0.08818813970588235,0.08818813970588235)translate(-410,-476)"><g></g><metadata xmlns:rdf="http://www.w3.org/1999/02/22-rdf-syntax-ns#" xmlns:cc="http://creativecommons.org/ns#" xmlns:dc="http://purl.org/dc/elements/1.1/"><rdf:RDF><rdf:Description dc:title="Castle" dc:creator="percival"></rdf:Description><cc:Work rdf:about="https://heraldicon.org/charges/ZJeWMp/2"><cc:license rdf:resource="https://creativecommons.org/licenses/by-nc-sa/4.0"></cc:license><cc:attributionName>Castle by percival</cc:attributionName><cc:attributionURL rdf:resource="https://heraldicon.org/users/percival"></cc:attributionURL></cc:Work><cc:License rdf:about="https://creativecommons.org/licenses/by-nc-sa/4.0"><cc:permits rdf:resource="http://creativecommons.org/ns#Reproduction"></cc:permits><cc:permits rdf:resource="http://creativecommons.org/ns#DerivativeWorks"></cc:permits><cc:permits rdf:resource="http://creativecommons.org/ns#Distribution"></cc:permits><cc:requires rdf:resource="http://creativecommons.org/ns#Notice"></cc:requires><cc:requires rdf:resource="http://creativecommons.org/ns#Attribution"></cc:requires><cc:requires rdf:resource="http://creativecommons.org/ns#ShareAlike"></cc:requires><cc:prohibits rdf:resource="http://creativecommons.org/ns#CommercialUse"></cc:prohibits></cc:License></rdf:RDF><rdf:RDF rdf:about="https://wappenwiki.org/index.php?title=File:Alfonso_VIII_of_Castile.svg"><rdf:Description dc:title="Alfonso VIII of Castile" dc:creator="WappenWiki"></rdf:Description><cc:Work rdf:about="https://wappenwiki.org/index.php?title=File:Alfonso_VIII_of_Castile.svg"><cc:license rdf:resource="https://creativecommons.org/licenses/by-nc-sa/3.0"></cc:license><cc:attributionName>WappenWiki</cc:attributionName><cc:attributionURL rdf:resource="http://wappenwiki.org"></cc:attributionURL></cc:Work></rdf:RDF></metadata><g><g><g mask="url(#mask_10)"><rect transform="translate(410,476)scale(11.339393294099589,11.339393294099589)rotate(0)translate(-50,-59.967935)" x="-500" y="-500" width="1100" height="1100" fill="#333333"></rect></g><g mask="url(#mask_9)"><g transform="translate(410,476)scale(11.339393294099589,11.339393294099589)rotate(0)translate(-50,-59.967935)"><rect y="-1000" fill="#585858" width="2000" x="-1000" height="2000"></rect><g></g></g></g><g mask="url(#mask_8)"><g stroke="none" transform="translate(0,0)" fill="#000000" stroke-width="0"><switch><g><path fill="none" d="M410.698 924.5l6.962-2.949 7.705-3.53 7.812-3.801 9.535-4.888 16.194-8.892 16.27-9.65 16.832-10.737 13.433-9.129 11.882-8.509 12.105-9.092 10.749-8.461 9.251-7.584 13.395-11.511 13.625-12.375 12.031-11.545 12.906-13.084 7.874-8.367 7.216-7.939 7.448-8.488 10.753-12.82 7.855-9.823 9.074-11.877 7.411-10.146 8.599-12.353 6.236-9.364 6.658-10.43 3.79-6.149 7.14-12.043 6.009-10.64 5.931-11.005 7.626-14.986 5.818-12.157 5.565-12.289 6.518-15.379 4.344-10.898 3.531-9.345 5.204-14.589 4.456-13.477 3.924-12.559 3.583-12.712 3.36-12.653 3.579-14.708 3.185-14.446 2.322-11.556 2.147-11.703 1.99-12 2-13.481 1.75-13.485 1.317-11.584 1.121-11.479 1.143-14.084 1.117-17.353.416-11.187L780 332.9v-302H41.101v302l.605 16.309.416 11.187 1.116 17.353 1.144 14.084 1.121 11.479 1.309 11.584 1.75 13.485 2 13.481 1.998 12 2.147 11.703 2.321 11.556 3.186 14.446 3.579 14.708 3.357 12.653 3.582 12.712 3.927 12.559 4.456 13.477 5.197 14.589 3.539 9.345 4.337 10.898 6.525 15.379 5.562 12.289 5.821 12.157 7.626 14.986 5.929 11.005 6.01 10.64 7.141 12.043 3.79 6.149 6.658 10.43 6.23 9.364 8.605 12.353 7.41 10.146 9.073 11.877 7.857 9.823 10.753 12.82 7.448 8.488 7.216 7.939 7.874 8.367 12.906 13.084 12.029 11.545 13.62 12.375 13.402 11.511 9.251 7.584 10.749 8.461 12.098 9.092 11.885 8.509 13.437 9.129 16.832 10.737 16.269 9.65 16.195 8.892 9.535 4.888 7.807 3.801 7.707 3.53z"></path><g fill="#333333" stroke="#000" stroke-width="3" stroke-linejoin="round" stroke-miterlimit="10"><path d="M344.82 121.528h130.158l12.495-15.62H332.325zM485.047 90.29H334.75l-2.425 15.618h155.148zM344.82 121.528h130.158v283.399H344.82zM334.75 61.999h30.685V90.29H334.75zM454.361 61.999h30.687V90.29h-30.687zM393.576 61.999h33.685V90.29h-33.685z"></path></g><path fill="none" stroke="#000" stroke-width="3" stroke-linejoin="round" stroke-miterlimit="10" d="M345.53 167.778h128.738M345.53 214.027h128.738M345.53 260.277h128.738M345.53 306.527h128.738M345.531 121.528h128.736M344.887 352.776h130.022M409.899 399.201v-46.425M409.899 306.527v-46.25M409.899 213.593v-46.665"></path><g fill="none" stroke="#000" stroke-width="3" stroke-linejoin="round" stroke-miterlimit="10"><path d="M441.136 353.8v-45.606M378.659 353.8v-45.606"></path></g><g fill="none" stroke="#000" stroke-width="3" stroke-linejoin="round" stroke-miterlimit="10"><path d="M441.136 259.914v-46.389M378.659 259.914v-46.389"></path></g><g fill="none" stroke="#000" stroke-width="3" stroke-linejoin="round" stroke-miterlimit="10"><path d="M441.136 167.242v-46.39M378.659 167.242v-46.39"></path></g><path fill="#333333" stroke="#000" stroke-width="3" stroke-linejoin="round" stroke-miterlimit="10" d="M393.746 166.078c0-9.824 7.053-19.871 15.753-19.871 8.704 0 15.754 10.047 15.754 19.871v116.475h-31.508V166.078z"></path><g><path fill="#333333" stroke="#000" stroke-width="3" stroke-linejoin="round" stroke-miterlimit="10" d="M499.534 347.658h25.686v28.291h-25.686z"></path></g><g><path fill="#333333" stroke="#000" stroke-width="3" stroke-linejoin="round" stroke-miterlimit="10" d="M550.695 352.693h25.686v23.256h-25.686z"></path></g><g stroke="#000" stroke-width="3" stroke-linejoin="round" stroke-miterlimit="10"><path fill="#333333" d="M548.906 175.88h93.713l13.495-15.619H535.409zM654.688 144.642H536.836l-1.427 15.619h120.705zM548.812 175.88h93.714v217.8h-93.714zM536.836 116.351h25.686v28.291h-25.686zM580.522 116.351h29.687v28.291h-29.687zM629.004 116.351h25.685v28.291h-25.685z"></path><path fill="none" d="M548.705 219.44h93.926M548.705 263.607h93.926M548.705 307.775h93.926M548.236 351.942h94.863M595.668 393.68v-41.738M595.668 307.775v-44.168M595.668 220.309v-44.167"></path><g fill="none"><path d="M626.905 352.965v-43.523M564.43 352.965v-43.523"></path></g><g fill="none"><path d="M626.905 263.244v-44.307M564.43 263.244v-44.307"></path></g><path fill="#333333" d="M579.913 216.829c0-9.824 7.054-19.87 15.754-19.87 8.703 0 15.754 10.047 15.754 19.87v74.651h-31.509v-74.651z"></path></g><g><path fill="#333333" stroke="#000" stroke-width="3" stroke-linejoin="round" stroke-miterlimit="10" d="M243.308 352.693h25.686v23.256h-25.686z"></path></g><g stroke="#000" stroke-width="3" stroke-linejoin="round" stroke-miterlimit="10"><path fill="#333333" d="M176.396 176.921h93.714l13.495-15.619H162.901zM282.179 145.683H164.327l-1.426 15.619h120.704zM176.396 176.921h93.712v217.8h-93.712z"></path><path fill="#333333" d="M164.405 117.393h25.685v28.291h-25.685zM256.573 117.393h25.685v28.291h-25.685zM208.168 117.393h29.685v28.291h-29.685z"></path><path fill="none" d="M176.29 220.481h93.926M176.29 264.649h93.926M176.29 308.815h93.926M175.821 352.983h94.864M223.252 393.68v-40.697M223.252 308.815v-44.166M223.252 221.35v-44.167"></path><g fill="none"><path d="M254.49 354.006v-43.523M192.015 354.006v-43.523"></path></g><g fill="none"><path d="M254.49 264.285v-44.307M192.015 264.285v-44.307"></path></g><path fill="#333333" d="M207.499 217.87c0-9.824 7.053-19.87 15.754-19.87 8.703 0 15.754 10.046 15.754 19.87v74.651H207.5l-.001-74.651h0z"></path></g><g><path fill="#333333" stroke="#000" stroke-width="3" stroke-linejoin="round" stroke-miterlimit="10" d="M294.47 347.658h25.684v28.291H294.47z"></path></g><g stroke="#000" stroke-width="3" stroke-linejoin="round" stroke-miterlimit="10"><path fill="#333333" d="M166.886 380.089h485.229v282.548H166.886z"></path><path fill="#333333" d="M652.222 644.512l-28.808 17.118h-427.72l-28.808-17.118-10.516 13.606 36.303 20.138h433.761l36.303-20.138z"></path><path fill="#333333" d="M626.434 678.256H192.673l-36.303-20.138-10 25.319 36.303 30.138H636.434l36.303-30.138-10-25.319z"></path><path fill="none" d="M195.694 391.345v271.569M623.505 391.345v271.569"></path></g><g><path fill="none" stroke="#000" stroke-width="3" stroke-linejoin="round" stroke-miterlimit="10" d="M407.938 431.093v-46.666M470.414 431.093v-46.666M196.578 477.36h137.741"></path><path fill="#333333" stroke="#000" stroke-width="3" stroke-linejoin="round" stroke-miterlimit="10" d="M196.087 430.436h427.834"></path><path fill="none" stroke="#000" stroke-width="3" stroke-linejoin="round" stroke-miterlimit="10" d="M485.723 477.501h138.472M196.578 616.111H343.9M473.429 616.111h150.446M196.578 570.414H343.9M473.429 570.414h150.446M595.365 616.665v-46.251M595.365 523.73v-46.666M532.889 616.665v-46.251M532.889 523.73v-46.666M564.127 662.931v-45.607M564.127 570.051v-46.389M564.127 477.379v-46.39M501.652 478.478v-46.389M501.652 663.33v-45.606M501.652 569.444v-46.389M439.176 475.643v-45.261M167.377 523.73H343.9M473.429 523.73h178.686M652.222 602.221l-28.808 14.097M652.222 563.958l-28.808 7.049M623.414 430.539l28.808 14.097M623.414 476.857l28.808 7.049M167.278 602.221l28.809 14.097M167.278 563.958l28.809 7.049M196.087 430.539l-28.809 14.097M196.087 476.857l-28.809 7.049M595.365 431.093v-46.666M532.889 431.093v-46.666M348.785 384.427v46.666M223.834 570.414v46.251M286.309 570.414v46.251M255.071 617.324v45.607M255.071 523.662v46.389M255.071 430.989v46.39M317.547 432.089v46.389M317.547 617.724v45.606M317.547 523.055v46.389M380.023 430.382v45.261M223.834 384.427v46.666M286.309 384.427v46.666"></path></g><g stroke="#000" stroke-width="3" stroke-linejoin="round" stroke-miterlimit="10"><g fill="#333333"><path d="M517.135 471.51c0-9.826 7.052-19.871 15.754-19.871s15.754 10.047 15.754 19.871v126.095h-31.508V471.51h0zM578.062 471.51c0-9.826 7.055-19.871 15.754-19.871 8.702 0 15.754 10.047 15.754 19.871v126.095h-31.509V471.51z"></path></g><g fill="#333333"><path d="M208.273 471.51c0-9.826 7.053-19.871 15.754-19.871 8.702 0 15.754 10.047 15.754 19.871v126.095h-31.508V471.51h0zM269.199 471.51c0-9.826 7.055-19.871 15.754-19.871 8.702 0 15.754 10.047 15.754 19.871v126.095h-31.509V471.51z"></path></g><path fill="none" d="M623.505 662.914l2.929 15.342M636.434 713.575l-10-35.319M195.694 662.914l-3.021 15.342M182.673 713.575l10-35.319"></path></g><g><g stroke="#000" stroke-width="3" stroke-linejoin="round" stroke-miterlimit="10"><g fill="#333333"><path d="M471.278 419.411l21.138 12.083v26.18l-21.138-12.083zM347.728 445.591l-21.139 12.083v-26.18l21.139-12.083zM368.615 418.654h29.77v28.291h-29.77zM420.615 418.654h29.77v28.291h-29.77zM336.793 475.138h144.158v238.437H336.793z"></path><path d="M442.667 582.221h29.162v31.767h-29.162zM442.667 648.118h29.162v31.767h-29.162zM408.875 493.766c-6.603 0-13.013.952-19.068 2.766l9.126 33.639H418.5l9.126-33.738c-5.962-1.752-12.264-2.667-18.751-2.667zM359.846 516.086l25.92 20.108-5 13.767H346c1.331-12.78 6.1-24.464 13.846-33.875zM436.667 582.221h23.162v-24.845a59.33 59.33 0 00-.417-6.922h-22.744v31.767zM380.766 582.221h-23.162v-24.845c0-2.348.151-4.655.417-6.922h22.744v31.767zM431.667 614.351h28.162v33.767h-28.162z"></path><path d="M431.667 679.846v33.767h28.16l.002-.038v-33.729h-28.162zM337.105 487.453l16.766-9.062h111.365l16.767 9.062 10.515-12.598-22.247-12.084H348.837l-22.248 12.084z"></path><path d="M348.837 462.771h121.434l22.247 12.084v-17.181l-21.24-12.083H347.83l-21.24 12.083-.001 17.181z"></path></g><path fill="#333333" d="M444.791 519.865c-5.677-5.529-12.623-9.537-20.302-11.837l-5.99 22.143 13.167 6.023 16.427-12.744c-1.197-1.49-1.925-2.245-3.302-3.585zM345.604 582.221h29.162v31.767h-29.162zM345.604 648.118h29.162v31.767h-29.162z"></path><path fill="#333333" d="M457.586 516.086l-25.92 20.108 5 13.767h34.766c-1.33-12.78-6.099-24.464-13.846-33.875zM357.605 614.351h28.162v33.767h-28.162zM385.766 679.846v33.767h-28.16l-.002-.038v-33.729h28.162zM372.641 519.865c5.677-5.529 12.623-9.537 20.302-11.837l5.99 22.143-13.167 6.023-16.427-12.744c1.198-1.49 1.926-2.245 3.302-3.585z"></path><path fill="#333333" d="M369.919 557.376c0-24.293 17.44-39.609 38.956-39.609 21.512 0 38.953 15.316 38.953 43.609v152.199h-77.907l-.002-152.199v-4z"></path></g></g><g stroke="#000" stroke-width="3" stroke-linejoin="round" stroke-miterlimit="10"><path fill="#333333" d="M166.886 408.463l28.808-17.118h427.72l28.808 17.118 10.515-13.606-32.303-20.139H188.673l-32.303 20.139z"></path><path fill="#333333" d="M630.434 374.718H188.673l-32.303 20.139-4-27.25 30.303-20.138h453.761l30.303 20.138-4 27.25z"></path><path fill="#333333" d="M636.434 317.261l30.303 20.139v30.207l-30.303-20.138zM182.673 317.261L152.37 337.4v30.207l30.303-20.138zM559.936 317.261h40.277v30.208h-40.277zM218.895 317.261h40.277v30.208h-40.277zM423.519 317.261h40.277v30.208h-40.277zM491.728 317.261h40.277v30.208h-40.277zM287.103 317.261h40.277v30.208h-40.277zM355.311 317.261h40.277v30.208h-40.277z"></path><path fill="none" d="M188.673 374.718l7.021 16.627M623.505 391.345l6.929-16.627"></path></g></g></switch></g></g></g></g></g></g></g></g></g></svg>