<svg viewBox="-10 -10 1020 1219.3587" xmlns="http://www.w3.org/2000/svg" xmlns:xlink="http://www.w3.org/1999/xlink" version="1.1" width="1020" height="1219.3587"><style></style><g transform="translate(500,599.67935)scale(10,10)translate(-50,-59.967935)" style="transition:transform 0.5s"><g><g></g></g><g transform="translate(0,0)" style="transition:transform 0.5s"></g><g style="transition:transform 0.5s"><g><metadata xmlns:rdf="http://www.w3.org/1999/02/22-rdf-syntax-ns#" xmlns:cc="http://creativecommons.org/ns#" xmlns:dc="http://purl.org/dc/elements/1.1/"><rdf:RDF><rdf:Description dc:title="Varisia" dc:creator="kosen"></rdf:Description><cc:Work rdf:about="https://heraldicon.org/arms/VbiehT/3"><cc:license rdf:resource="private"></cc:license><cc:attributionName>Varisia by kosen</cc:attributionName><cc:attributionURL rdf:resource="https://heraldicon.org/users/kosen"></cc:attributionURL></cc:Work><cc:License rdf:about="private"></cc:License></rdf:RDF></metadata><defs><pattern width="20" height="20" patternUnits="userSpaceOnUse" id="void"><rect x="0" y="0" width="20" height="20" fill="#fff" class="light"></rect><rect x="0" y="0" width="10" height="10" fill="#ddd" class="dark"></rect><rect x="10" y="10" width="10" height="10" fill="#ddd" class="dark"></rect></pattern><pattern width="4" height="4" patternUnits="userSpaceOnUse" id="selected"><rect x="0" y="0" width="4" height="4" fill="#f5f5f5"></rect><g fill="#000"><circle cx="0" cy="0" r="0.3"></circle><circle cx="4" cy="0" r="0.3"></circle><circle cx="0" cy="4" r="0.3"></circle><circle cx="4" cy="4" r="0.3"></circle><circle cx="2" cy="2" r="0.3"></circle></g></pattern><pattern id="ermine" width="12.5" height="20" patternUnits="userSpaceOnUse" x="-3.125" y="-5"><rect x="0" y="0" width="12.5" height="20" fill="#f6f6f6"></rect><g fill="#333333"><path d="M 47.757634,0 C 60.324696,15.689314 25.136924,21.898666 44.167046,36.607392
    52.24587,41.673746 71.273896,30.723464 54.57765,17.322176
    52.423302,16.178163 62.11999,8.3349512 47.757634,0 Z m 21.182372,36.935142 c
    -3.23154,0.326846 -6.282816,2.290268 -9.155302,7.193166 -3.590588,8.33495
    12.209402,22.716724 22.98117,5.06625 C 83.483996,47.069952 94.0755,53.93163
    100,39.386326 89.946316,49.845864 79.713166,37.425428 70.377642,36.935142 Z
    M 29.80469,37.099022 C 20.469164,37.58931 10.053647,50.173186 0,39.55021
    5.9244804,54.095512 16.51881,47.070414 17.416458,49.358438 28.0087,67.008916
    43.805884,52.627142 40.215296,44.292192 36.983772,38.73555 33.395278,36.9356
    29.80469,37.099026 Z m 21.003542,10.13249 c -8.25835,37.262136
    -23.51556,63.576958 -40.211787,82.534868 7.001653,-1.96117
    14.718613,-7.19213 22.258843,-11.93164 -4.667764,9.80582 -9.154602,18.14082
    -13.822364,26.80264 2.692942,-0.98059 11.489886,-9.64435 23.338826,-22.3919
    1.795296,17.48703 4.305204,25.8241 8.07532,37.75452 3.052012,-11.93042
    5.208468,-19.9411 7.54234,-37.9184 7.181178,8.00805 14.001888,16.17984
    23.696484,23.04393 L 68.221186,117.34659 c 7.001634,4.41265
    14.72282,10.29262 22.083522,12.74406 C 72.710832,110.15215
    57.989412,84.493648 50.808232,47.231516 Z" transform="scale(0.0625,0.0625)"></path><path d="M 47.757634,0 C 60.324696,15.689314 25.136924,21.898666 44.167046,36.607392
    52.24587,41.673746 71.273896,30.723464 54.57765,17.322176
    52.423302,16.178163 62.11999,8.3349512 47.757634,0 Z m 21.182372,36.935142 c
    -3.23154,0.326846 -6.282816,2.290268 -9.155302,7.193166 -3.590588,8.33495
    12.209402,22.716724 22.98117,5.06625 C 83.483996,47.069952 94.0755,53.93163
    100,39.386326 89.946316,49.845864 79.713166,37.425428 70.377642,36.935142 Z
    M 29.80469,37.099022 C 20.469164,37.58931 10.053647,50.173186 0,39.55021
    5.9244804,54.095512 16.51881,47.070414 17.416458,49.358438 28.0087,67.008916
    43.805884,52.627142 40.215296,44.292192 36.983772,38.73555 33.395278,36.9356
    29.80469,37.099026 Z m 21.003542,10.13249 c -8.25835,37.262136
    -23.51556,63.576958 -40.211787,82.534868 7.001653,-1.96117
    14.718613,-7.19213 22.258843,-11.93164 -4.667764,9.80582 -9.154602,18.14082
    -13.822364,26.80264 2.692942,-0.98059 11.489886,-9.64435 23.338826,-22.3919
    1.795296,17.48703 4.305204,25.8241 8.07532,37.75452 3.052012,-11.93042
    5.208468,-19.9411 7.54234,-37.9184 7.181178,8.00805 14.001888,16.17984
    23.696484,23.04393 L 68.221186,117.34659 c 7.001634,4.41265
    14.72282,10.29262 22.083522,12.74406 C 72.710832,110.15215
    57.989412,84.493648 50.808232,47.231516 Z" transform="translate(6.25,10) scale(0.0625,0.0625)"></path></g></pattern><pattern id="ermines" width="12.5" height="20" patternUnits="userSpaceOnUse" x="-3.125" y="-5"><rect x="0" y="0" width="12.5" height="20" fill="#333333"></rect><g fill="#f6f6f6"><path d="M 47.757634,0 C 60.324696,15.689314 25.136924,21.898666 44.167046,36.607392
    52.24587,41.673746 71.273896,30.723464 54.57765,17.322176
    52.423302,16.178163 62.11999,8.3349512 47.757634,0 Z m 21.182372,36.935142 c
    -3.23154,0.326846 -6.282816,2.290268 -9.155302,7.193166 -3.590588,8.33495
    12.209402,22.716724 22.98117,5.06625 C 83.483996,47.069952 94.0755,53.93163
    100,39.386326 89.946316,49.845864 79.713166,37.425428 70.377642,36.935142 Z
    M 29.80469,37.099022 C 20.469164,37.58931 10.053647,50.173186 0,39.55021
    5.9244804,54.095512 16.51881,47.070414 17.416458,49.358438 28.0087,67.008916
    43.805884,52.627142 40.215296,44.292192 36.983772,38.73555 33.395278,36.9356
    29.80469,37.099026 Z m 21.003542,10.13249 c -8.25835,37.262136
    -23.51556,63.576958 -40.211787,82.534868 7.001653,-1.96117
    14.718613,-7.19213 22.258843,-11.93164 -4.667764,9.80582 -9.154602,18.14082
    -13.822364,26.80264 2.692942,-0.98059 11.489886,-9.64435 23.338826,-22.3919
    1.795296,17.48703 4.305204,25.8241 8.07532,37.75452 3.052012,-11.93042
    5.208468,-19.9411 7.54234,-37.9184 7.181178,8.00805 14.001888,16.17984
    23.696484,23.04393 L 68.221186,117.34659 c 7.001634,4.41265
    14.72282,10.29262 22.083522,12.74406 C 72.710832,110.15215
    57.989412,84.493648 50.808232,47.231516 Z" transform="scale(0.0625,0.0625)"></path><path d="M 47.757634,0 C 60.324696,15.689314 25.136924,21.898666 44.167046,36.607392
    52.24587,41.673746 71.273896,30.723464 54.57765,17.322176
    52.423302,16.178163 62.11999,8.3349512 47.757634,0 Z m 21.182372,36.935142 c
    -3.23154,0.326846 -6.282816,2.290268 -9.155302,7.193166 -3.590588,8.33495
    12.209402,22.716724 22.98117,5.06625 C 83.483996,47.069952 94.0755,53.93163
    100,39.386326 89.946316,49.845864 79.713166,37.425428 70.377642,36.935142 Z
    M 29.80469,37.099022 C 20.469164,37.58931 10.053647,50.173186 0,39.55021
    5.9244804,54.095512 16.51881,47.070414 17.416458,49.358438 28.0087,67.008916
    43.805884,52.627142 40.215296,44.292192 36.983772,38.73555 33.395278,36.9356
    29.80469,37.099026 Z m 21.003542,10.13249 c -8.25835,37.262136
    -23.51556,63.576958 -40.211787,82.534868 7.001653,-1.96117
    14.718613,-7.19213 22.258843,-11.93164 -4.667764,9.80582 -9.154602,18.14082
    -13.822364,26.80264 2.692942,-0.98059 11.489886,-9.64435 23.338826,-22.3919
    1.795296,17.48703 4.305204,25.8241 8.07532,37.75452 3.052012,-11.93042
    5.208468,-19.9411 7.54234,-37.9184 7.181178,8.00805 14.001888,16.17984
    23.696484,23.04393 L 68.221186,117.34659 c 7.001634,4.41265
    14.72282,10.29262 22.083522,12.74406 C 72.710832,110.15215
    57.989412,84.493648 50.808232,47.231516 Z" transform="translate(6.25,10) scale(0.0625,0.0625)"></path></g></pattern><pattern id="erminois" width="12.5" height="20" patternUnits="userSpaceOnUse" x="-3.125" y="-5"><rect x="0" y="0" width="12.5" height="20" fill="#f2bc51"></rect><g fill="#333333"><path d="M 47.757634,0 C 60.324696,15.689314 25.136924,21.898666 44.167046,36.607392
    52.24587,41.673746 71.273896,30.723464 54.57765,17.322176
    52.423302,16.178163 62.11999,8.3349512 47.757634,0 Z m 21.182372,36.935142 c
    -3.23154,0.326846 -6.282816,2.290268 -9.155302,7.193166 -3.590588,8.33495
    12.209402,22.716724 22.98117,5.06625 C 83.483996,47.069952 94.0755,53.93163
    100,39.386326 89.946316,49.845864 79.713166,37.425428 70.377642,36.935142 Z
    M 29.80469,37.099022 C 20.469164,37.58931 10.053647,50.173186 0,39.55021
    5.9244804,54.095512 16.51881,47.070414 17.416458,49.358438 28.0087,67.008916
    43.805884,52.627142 40.215296,44.292192 36.983772,38.73555 33.395278,36.9356
    29.80469,37.099026 Z m 21.003542,10.13249 c -8.25835,37.262136
    -23.51556,63.576958 -40.211787,82.534868 7.001653,-1.96117
    14.718613,-7.19213 22.258843,-11.93164 -4.667764,9.80582 -9.154602,18.14082
    -13.822364,26.80264 2.692942,-0.98059 11.489886,-9.64435 23.338826,-22.3919
    1.795296,17.48703 4.305204,25.8241 8.07532,37.75452 3.052012,-11.93042
    5.208468,-19.9411 7.54234,-37.9184 7.181178,8.00805 14.001888,16.17984
    23.696484,23.04393 L 68.221186,117.34659 c 7.001634,4.41265
    14.72282,10.29262 22.083522,12.74406 C 72.710832,110.15215
    57.989412,84.493648 50.808232,47.231516 Z" transform="scale(0.0625,0.0625)"></path><path d="M 47.757634,0 C 60.324696,15.689314 25.136924,21.898666 44.167046,36.607392
    52.24587,41.673746 71.273896,30.723464 54.57765,17.322176
    52.423302,16.178163 62.11999,8.3349512 47.757634,0 Z m 21.182372,36.935142 c
    -3.23154,0.326846 -6.282816,2.290268 -9.155302,7.193166 -3.590588,8.33495
    12.209402,22.716724 22.98117,5.06625 C 83.483996,47.069952 94.0755,53.93163
    100,39.386326 89.946316,49.845864 79.713166,37.425428 70.377642,36.935142 Z
    M 29.80469,37.099022 C 20.469164,37.58931 10.053647,50.173186 0,39.55021
    5.9244804,54.095512 16.51881,47.070414 17.416458,49.358438 28.0087,67.008916
    43.805884,52.627142 40.215296,44.292192 36.983772,38.73555 33.395278,36.9356
    29.80469,37.099026 Z m 21.003542,10.13249 c -8.25835,37.262136
    -23.51556,63.576958 -40.211787,82.534868 7.001653,-1.96117
    14.718613,-7.19213 22.258843,-11.93164 -4.667764,9.80582 -9.154602,18.14082
    -13.822364,26.80264 2.692942,-0.98059 11.489886,-9.64435 23.338826,-22.3919
    1.795296,17.48703 4.305204,25.8241 8.07532,37.75452 3.052012,-11.93042
    5.208468,-19.9411 7.54234,-37.9184 7.181178,8.00805 14.001888,16.17984
    23.696484,23.04393 L 68.221186,117.34659 c 7.001634,4.41265
    14.72282,10.29262 22.083522,12.74406 C 72.710832,110.15215
    57.989412,84.493648 50.808232,47.231516 Z" transform="translate(6.25,10) scale(0.0625,0.0625)"></path></g></pattern><pattern id="pean" width="12.5" height="20" patternUnits="userSpaceOnUse" x="-3.125" y="-5"><rect x="0" y="0" width="12.5" height="20" fill="#333333"></rect><g fill="#f2bc51"><path d="M 47.757634,0 C 60.324696,15.689314 25.136924,21.898666 44.167046,36.607392
    52.24587,41.673746 71.273896,30.723464 54.57765,17.322176
    52.423302,16.178163 62.11999,8.3349512 47.757634,0 Z m 21.182372,36.935142 c
    -3.23154,0.326846 -6.282816,2.290268 -9.155302,7.193166 -3.590588,8.33495
    12.209402,22.716724 22.98117,5.06625 C 83.483996,47.069952 94.0755,53.93163
    100,39.386326 89.946316,49.845864 79.713166,37.425428 70.377642,36.935142 Z
    M 29.80469,37.099022 C 20.469164,37.58931 10.053647,50.173186 0,39.55021
    5.9244804,54.095512 16.51881,47.070414 17.416458,49.358438 28.0087,67.008916
    43.805884,52.627142 40.215296,44.292192 36.983772,38.73555 33.395278,36.9356
    29.80469,37.099026 Z m 21.003542,10.13249 c -8.25835,37.262136
    -23.51556,63.576958 -40.211787,82.534868 7.001653,-1.96117
    14.718613,-7.19213 22.258843,-11.93164 -4.667764,9.80582 -9.154602,18.14082
    -13.822364,26.80264 2.692942,-0.98059 11.489886,-9.64435 23.338826,-22.3919
    1.795296,17.48703 4.305204,25.8241 8.07532,37.75452 3.052012,-11.93042
    5.208468,-19.9411 7.54234,-37.9184 7.181178,8.00805 14.001888,16.17984
    23.696484,23.04393 L 68.221186,117.34659 c 7.001634,4.41265
    14.72282,10.29262 22.083522,12.74406 C 72.710832,110.15215
    57.989412,84.493648 50.808232,47.231516 Z" transform="scale(0.0625,0.0625)"></path><path d="M 47.757634,0 C 60.324696,15.689314 25.136924,21.898666 44.167046,36.607392
    52.24587,41.673746 71.273896,30.723464 54.57765,17.322176
    52.423302,16.178163 62.11999,8.3349512 47.757634,0 Z m 21.182372,36.935142 c
    -3.23154,0.326846 -6.282816,2.290268 -9.155302,7.193166 -3.590588,8.33495
    12.209402,22.716724 22.98117,5.06625 C 83.483996,47.069952 94.0755,53.93163
    100,39.386326 89.946316,49.845864 79.713166,37.425428 70.377642,36.935142 Z
    M 29.80469,37.099022 C 20.469164,37.58931 10.053647,50.173186 0,39.55021
    5.9244804,54.095512 16.51881,47.070414 17.416458,49.358438 28.0087,67.008916
    43.805884,52.627142 40.215296,44.292192 36.983772,38.73555 33.395278,36.9356
    29.80469,37.099026 Z m 21.003542,10.13249 c -8.25835,37.262136
    -23.51556,63.576958 -40.211787,82.534868 7.001653,-1.96117
    14.718613,-7.19213 22.258843,-11.93164 -4.667764,9.80582 -9.154602,18.14082
    -13.822364,26.80264 2.692942,-0.98059 11.489886,-9.64435 23.338826,-22.3919
    1.795296,17.48703 4.305204,25.8241 8.07532,37.75452 3.052012,-11.93042
    5.208468,-19.9411 7.54234,-37.9184 7.181178,8.00805 14.001888,16.17984
    23.696484,23.04393 L 68.221186,117.34659 c 7.001634,4.41265
    14.72282,10.29262 22.083522,12.74406 C 72.710832,110.15215
    57.989412,84.493648 50.808232,47.231516 Z" transform="translate(6.25,10) scale(0.0625,0.0625)"></path></g></pattern></defs><defs><mask id="mask_3"><path d="M50,0h50v33.33333c0,35.72656 -19.05989,68.73926 -50,86.60254c-30.94011,-17.86328 -50,-50.87598 -50,-86.60254v-33.33333z" clip-rule="evenodd" fill-rule="evenodd" fill="#fff" stroke="none"></path></mask></defs><g mask="url(#mask_3)"><g><g><path d="M50,0h50v33.33333c0,35.72656 -19.05989,68.73926 -50,86.60254c-30.94011,-17.86328 -50,-50.87598 -50,-86.60254v-33.33333z" fill-rule="evenodd" fill="#f0f0f0"></path><rect y="-1000" fill="#725942" width="2000" x="-1000" height="2000"></rect><g></g></g></g></g><g stroke="#333333" stroke-width="0.5" fill="none" stroke-linecap="round" stroke-linejoin="round"><path d="M50,0h50v33.33333c0,35.72656 -19.05989,68.73926 -50,86.60254c-30.94011,-17.86328 -50,-50.87598 -50,-86.60254v-33.33333z"></path></g></g></g><g transform="translate(0,0)" style="transition:transform 0.5s"></g><g><g><g><defs><mask id="mask_8"><g fill="#fff" stroke="none" stroke-width="0" style="clip-rule:evenodd" transform="translate(0,0)"><path d="M257.8 228c-2.6-3.9-3-7.8-4.2-11.5-2-6.1-6.5-11.1-12.1-14.1-6.2-3.4-13.5-3.3-20.3-5.1-5-1.4-9.5-3.5-11.1-8.6-1.6-5.1-2.3-10.9-4.6-15.8-2.3-4.8-6.8-8.3-11.6-10.4-5.5-2.4-14.1-1.8-19-7.7 1.9-3.5 3.8-6.4 5.7-9 2.8-3.8 6.5-7.3 11.2-8.2 4.6-.8 9.2 1.2 13.9 1.7 8.9 1.1 18.3-3.6 22.8-11.5 3.8-6.6 4.4-15 9.9-20.3 6.6-6.3 17.6-5.3 25.3-10.3 5.3-3.5 8.7-10.7 8.4-17-3.8 4.6-8 6.9-13.2 7.3-4.7.3-8.2-1.3-12-2.1-6.2-1.3-12.9.1-18.3 3.4-6.1 3.7-9.6 10.1-14.6 15-3.7 3.7-7.7 6.5-13 5.3-5.2-1.2-10.6-3.5-16-3.9-5.3-.4-10.5 1.7-14.8 4.9-4.8 3.5-8.6 11.4-16.1 12.6-2.1-3.4-3.6-6.5-4.9-9.5-1.9-4.3-3.1-9.3-1.5-13.8 1.6-4.4 5.6-7.4 8.4-11.2 5.4-7.2 6-17.7 1.5-25.5-3.8-6.6-10.8-11.3-12.6-18.7-2.2-8.9 4.2-17.9 3.7-27-.3-6.3-4.9-12.9-10.5-15.8 2.1 5.5 2 10.4-.3 15.1-2.1 4.2-5.3 6.5-7.8 9.4-4.2 4.7-6.4 11.2-6.2 17.5.2 7.1 3.9 13.4 5.7 20.1 1.3 5 1.7 9.9-1.9 13.9-3.6 4-8.3 7.4-11.4 11.9-3 4.4-3.8 10-3.2 15.3.7 5.9 5.6 13.1 2.9 20.3-4 .1-7.5-.1-10.7-.5-4.7-.5-9.6-2-12.7-5.6-3-3.6-3.6-8.6-5.5-12.9-3.6-8.3-12.3-14-21.3-14-7.6 0-15.2 3.7-22.5 1.6-8.7-2.4-13.3-12.4-21.4-16.6-5.7-2.8-13.6-2.2-19 1.3 5.8 1 10 3.5 12.9 7.8 2.6 3.9 3 7.8 4.2 11.5 2 6.1 6.5 11.1 12.1 14.1 6.2 3.4 13.5 3.3 20.3 5.1 5 1.4 9.5 3.5 11.1 8.6 1.6 5.1 2.3 10.9 4.6 15.8 2.3 4.8 6.8 8.3 11.6 10.4 5.5 2.4 14.1 1.8 19 7.7-1.9 3.5-3.8 6.4-5.7 9-2.8 3.8-6.5 7.3-11.2 8.2-4.6.8-9.2-1.2-13.9-1.7-8.9-1.1-18.3 3.6-22.8 11.5-3.8 6.6-4.4 15.1-9.9 20.3-6.6 6.3-17.6 5.3-25.3 10.3-5.3 3.5-8.7 10.7-8.4 17 3.8-4.6 8-6.9 13.2-7.3 4.7-.3 8.2 1.3 12 2.1 6.2 1.3 12.9-.1 18.3-3.4 6.1-3.7 9.6-10.1 14.6-15 3.7-3.7 7.7-6.5 13-5.3 5.2 1.2 10.6 3.5 16 3.9 5.3.4 10.5-1.7 14.8-4.9 4.8-3.5 8.6-11.4 16.1-12.6 2.1 3.4 3.6 6.5 4.9 9.5 1.9 4.3 3.1 9.3 1.5 13.8-1.6 4.4-5.6 7.4-8.4 11.2-5.4 7.2-6 17.7-1.5 25.5 3.8 6.6 10.8 11.3 12.6 18.7 2.2 8.9-4.2 17.9-3.7 27 .3 6.3 4.9 12.9 10.5 15.8-2.1-5.5-2-10.4.3-15.1 2.1-4.2 5.3-6.5 7.8-9.4 4.2-4.7 6.4-11.2 6.2-17.5-.2-7.1-3.9-13.4-5.7-20.1-1.3-5-1.7-9.9 1.9-13.9 3.6-4 8.3-7.4 11.4-11.9 3-4.4 3.8-10 3.2-15.3-.7-5.9-5.6-13.1-2.9-20.3 4-.1 7.5.1 10.7.5 4.7.5 9.6 2 12.6 5.6 3 3.6 3.6 8.6 5.5 12.9 3.6 8.3 12.3 14 21.3 14 7.6 0 15.2-3.7 22.5-1.6 8.8 2.6 13.4 12.6 21.5 16.7 5.6 2.9 13.6 2.2 18.9-1.2-5.7-1.1-9.8-3.6-12.8-8z" stroke="#fff" stroke-width="3" stroke-miterlimit="10" stroke-linejoin="round" fill="#000"></path></g></mask><mask id="mask_9"><g fill="#000" stroke="none" stroke-width="0" style="clip-rule:evenodd" transform="translate(0,0)"><path d="M257.8 228c-2.6-3.9-3-7.8-4.2-11.5-2-6.1-6.5-11.1-12.1-14.1-6.2-3.4-13.5-3.3-20.3-5.1-5-1.4-9.5-3.5-11.1-8.6-1.6-5.1-2.3-10.9-4.6-15.8-2.3-4.8-6.8-8.3-11.6-10.4-5.5-2.4-14.1-1.8-19-7.7 1.9-3.5 3.8-6.4 5.7-9 2.8-3.8 6.5-7.3 11.2-8.2 4.6-.8 9.2 1.2 13.9 1.7 8.9 1.1 18.3-3.6 22.8-11.5 3.8-6.6 4.4-15 9.9-20.3 6.6-6.3 17.6-5.3 25.3-10.3 5.3-3.5 8.7-10.7 8.4-17-3.8 4.6-8 6.9-13.2 7.3-4.7.3-8.2-1.3-12-2.1-6.2-1.3-12.9.1-18.3 3.4-6.1 3.7-9.6 10.1-14.6 15-3.7 3.7-7.7 6.5-13 5.3-5.2-1.2-10.6-3.5-16-3.9-5.3-.4-10.5 1.7-14.8 4.9-4.8 3.5-8.6 11.4-16.1 12.6-2.1-3.4-3.6-6.5-4.9-9.5-1.9-4.3-3.1-9.3-1.5-13.8 1.6-4.4 5.6-7.4 8.4-11.2 5.4-7.2 6-17.7 1.5-25.5-3.8-6.6-10.8-11.3-12.6-18.7-2.2-8.9 4.2-17.9 3.7-27-.3-6.3-4.9-12.9-10.5-15.8 2.1 5.5 2 10.4-.3 15.1-2.1 4.2-5.3 6.5-7.8 9.4-4.2 4.7-6.4 11.2-6.2 17.5.2 7.1 3.9 13.4 5.7 20.1 1.3 5 1.7 9.9-1.9 13.9-3.6 4-8.3 7.4-11.4 11.9-3 4.4-3.8 10-3.2 15.3.7 5.9 5.6 13.1 2.9 20.3-4 .1-7.5-.1-10.7-.5-4.7-.5-9.6-2-12.7-5.6-3-3.6-3.6-8.6-5.5-12.9-3.6-8.3-12.3-14-21.3-14-7.6 0-15.2 3.7-22.5 1.6-8.7-2.4-13.3-12.4-21.4-16.6-5.7-2.8-13.6-2.2-19 1.3 5.8 1 10 3.5 12.9 7.8 2.6 3.9 3 7.8 4.2 11.5 2 6.1 6.5 11.1 12.1 14.1 6.2 3.4 13.5 3.3 20.3 5.1 5 1.4 9.5 3.5 11.1 8.6 1.6 5.1 2.3 10.9 4.6 15.8 2.3 4.8 6.8 8.3 11.6 10.4 5.5 2.4 14.1 1.8 19 7.7-1.9 3.5-3.8 6.4-5.7 9-2.8 3.8-6.5 7.3-11.2 8.2-4.6.8-9.2-1.2-13.9-1.7-8.9-1.1-18.3 3.6-22.8 11.5-3.8 6.6-4.4 15.1-9.9 20.3-6.6 6.3-17.6 5.3-25.3 10.3-5.3 3.5-8.7 10.7-8.4 17 3.8-4.6 8-6.9 13.2-7.3 4.7-.3 8.2 1.3 12 2.1 6.2 1.3 12.9-.1 18.3-3.4 6.1-3.7 9.6-10.1 14.6-15 3.7-3.7 7.7-6.5 13-5.3 5.2 1.2 10.6 3.5 16 3.9 5.3.4 10.5-1.7 14.8-4.9 4.8-3.5 8.6-11.4 16.1-12.6 2.1 3.4 3.6 6.5 4.9 9.5 1.9 4.3 3.1 9.3 1.5 13.8-1.6 4.4-5.6 7.4-8.4 11.2-5.4 7.2-6 17.7-1.5 25.5 3.8 6.6 10.8 11.3 12.6 18.7 2.2 8.9-4.2 17.9-3.7 27 .3 6.3 4.9 12.9 10.5 15.8-2.1-5.5-2-10.4.3-15.1 2.1-4.2 5.3-6.5 7.8-9.4 4.2-4.7 6.4-11.2 6.2-17.5-.2-7.1-3.9-13.4-5.7-20.1-1.3-5-1.7-9.9 1.9-13.9 3.6-4 8.3-7.4 11.4-11.9 3-4.4 3.8-10 3.2-15.3-.7-5.9-5.6-13.1-2.9-20.3 4-.1 7.5.1 10.7.5 4.7.5 9.6 2 12.6 5.6 3 3.6 3.6 8.6 5.5 12.9 3.6 8.3 12.3 14 21.3 14 7.6 0 15.2-3.7 22.5-1.6 8.8 2.6 13.4 12.6 21.5 16.7 5.6 2.9 13.6 2.2 18.9-1.2-5.7-1.1-9.8-3.6-12.8-8z" stroke="#000" stroke-width="3" stroke-miterlimit="10" stroke-linejoin="round" fill="#fff"></path></g></mask><mask id="mask_10"><g fill="#fff" stroke="none" stroke-width="0" style="clip-rule:evenodd" transform="translate(0,0)"><path d="M257.8 228c-2.6-3.9-3-7.8-4.2-11.5-2-6.1-6.5-11.1-12.1-14.1-6.2-3.4-13.5-3.3-20.3-5.1-5-1.4-9.5-3.5-11.1-8.6-1.6-5.1-2.3-10.9-4.6-15.8-2.3-4.8-6.8-8.3-11.6-10.4-5.5-2.4-14.1-1.8-19-7.7 1.9-3.5 3.8-6.4 5.7-9 2.8-3.8 6.5-7.3 11.2-8.2 4.6-.8 9.2 1.2 13.9 1.7 8.9 1.1 18.3-3.6 22.8-11.5 3.8-6.6 4.4-15 9.9-20.3 6.6-6.3 17.6-5.3 25.3-10.3 5.3-3.5 8.7-10.7 8.4-17-3.8 4.6-8 6.9-13.2 7.3-4.7.3-8.2-1.3-12-2.1-6.2-1.3-12.9.1-18.3 3.4-6.1 3.7-9.6 10.1-14.6 15-3.7 3.7-7.7 6.5-13 5.3-5.2-1.2-10.6-3.5-16-3.9-5.3-.4-10.5 1.7-14.8 4.9-4.8 3.5-8.6 11.4-16.1 12.6-2.1-3.4-3.6-6.5-4.9-9.5-1.9-4.3-3.1-9.3-1.5-13.8 1.6-4.4 5.6-7.4 8.4-11.2 5.4-7.2 6-17.7 1.5-25.5-3.8-6.6-10.8-11.3-12.6-18.7-2.2-8.9 4.2-17.9 3.7-27-.3-6.3-4.9-12.9-10.5-15.8 2.1 5.5 2 10.4-.3 15.1-2.1 4.2-5.3 6.5-7.8 9.4-4.2 4.7-6.4 11.2-6.2 17.5.2 7.1 3.9 13.4 5.7 20.1 1.3 5 1.7 9.9-1.9 13.9-3.6 4-8.3 7.4-11.4 11.9-3 4.4-3.8 10-3.2 15.3.7 5.9 5.6 13.1 2.9 20.3-4 .1-7.5-.1-10.7-.5-4.7-.5-9.6-2-12.7-5.6-3-3.6-3.6-8.6-5.5-12.9-3.6-8.3-12.3-14-21.3-14-7.6 0-15.2 3.7-22.5 1.6-8.7-2.4-13.3-12.4-21.4-16.6-5.7-2.8-13.6-2.2-19 1.3 5.8 1 10 3.5 12.9 7.8 2.6 3.9 3 7.8 4.2 11.5 2 6.1 6.5 11.1 12.1 14.1 6.2 3.4 13.5 3.3 20.3 5.1 5 1.4 9.5 3.5 11.1 8.6 1.6 5.1 2.3 10.9 4.6 15.8 2.3 4.8 6.8 8.3 11.6 10.4 5.5 2.4 14.1 1.8 19 7.7-1.9 3.5-3.8 6.4-5.7 9-2.8 3.8-6.5 7.3-11.2 8.2-4.6.8-9.2-1.2-13.9-1.7-8.9-1.1-18.3 3.6-22.8 11.5-3.8 6.6-4.4 15.1-9.9 20.3-6.6 6.3-17.6 5.3-25.3 10.3-5.3 3.5-8.7 10.7-8.4 17 3.8-4.6 8-6.9 13.2-7.3 4.7-.3 8.2 1.3 12 2.1 6.2 1.3 12.9-.1 18.3-3.4 6.1-3.7 9.6-10.1 14.6-15 3.7-3.7 7.7-6.5 13-5.3 5.2 1.2 10.6 3.5 16 3.9 5.3.4 10.5-1.7 14.8-4.9 4.8-3.5 8.6-11.4 16.1-12.6 2.1 3.4 3.6 6.5 4.9 9.5 1.9 4.3 3.1 9.3 1.5 13.8-1.6 4.4-5.6 7.4-8.4 11.2-5.4 7.2-6 17.7-1.5 25.5 3.8 6.6 10.8 11.3 12.6 18.7 2.2 8.9-4.2 17.9-3.7 27 .3 6.3 4.9 12.9 10.5 15.8-2.1-5.5-2-10.4.3-15.1 2.1-4.2 5.3-6.5 7.8-9.4 4.2-4.7 6.4-11.2 6.2-17.5-.2-7.1-3.9-13.4-5.7-20.1-1.3-5-1.7-9.9 1.9-13.9 3.6-4 8.3-7.4 11.4-11.9 3-4.4 3.8-10 3.2-15.3-.7-5.9-5.6-13.1-2.9-20.3 4-.1 7.5.1 10.7.5 4.7.5 9.6 2 12.6 5.6 3 3.6 3.6 8.6 5.5 12.9 3.6 8.3 12.3 14 21.3 14 7.6 0 15.2-3.7 22.5-1.6 8.8 2.6 13.4 12.6 21.5 16.7 5.6 2.9 13.6 2.2 18.9-1.2-5.7-1.1-9.8-3.6-12.8-8z" stroke="#fff" stroke-width="3" stroke-miterlimit="10" stroke-linejoin="round" fill="#fff"></path></g></mask></defs><g transform="translate(50,53.971141499999995)rotate(0)scale(0.24071232271424017,0.24071232271424017)translate(-136.85,-156.95)"><g></g><metadata xmlns:rdf="http://www.w3.org/1999/02/22-rdf-syntax-ns#" xmlns:cc="http://creativecommons.org/ns#" xmlns:dc="http://purl.org/dc/elements/1.1/"><rdf:RDF><rdf:Description dc:title="WW Star / Estoile" dc:creator="collegeoflegs"></rdf:Description><cc:Work rdf:about="https://heraldicon.org/charges/Xw6Tfo/2"><cc:license rdf:resource="https://creativecommons.org/licenses/by-nc-sa/4.0"></cc:license><cc:attributionName>WW Star / Estoile by collegeoflegs</cc:attributionName><cc:attributionURL rdf:resource="https://heraldicon.org/users/collegeoflegs"></cc:attributionURL></cc:Work><cc:License rdf:about="https://creativecommons.org/licenses/by-nc-sa/4.0"><cc:permits rdf:resource="http://creativecommons.org/ns#Reproduction"></cc:permits><cc:permits rdf:resource="http://creativecommons.org/ns#DerivativeWorks"></cc:permits><cc:permits rdf:resource="http://creativecommons.org/ns#Distribution"></cc:permits><cc:requires rdf:resource="http://creativecommons.org/ns#Notice"></cc:requires><cc:requires rdf:resource="http://creativecommons.org/ns#Attribution"></cc:requires><cc:requires rdf:resource="http://creativecommons.org/ns#ShareAlike"></cc:requires><cc:prohibits rdf:resource="http://creativecommons.org/ns#CommercialUse"></cc:prohibits></cc:License></rdf:RDF><rdf:RDF rdf:about="https://wappenwiki.org/index.php?title=File:Mordaunt.svg"><rdf:Description dc:title="Mordaunt" dc:creator="WappenWiki"></rdf:Description><cc:Work rdf:about="https://wappenwiki.org/index.php?title=File:Mordaunt.svg"><cc:license rdf:resource="https://creativecommons.org/licenses/by-nc-sa/3.0"></cc:license><cc:attributionName>WappenWiki</cc:attributionName><cc:attributionURL rdf:resource="http://wappenwiki.org"></cc:attributionURL></cc:Work></rdf:RDF></metadata><g><g><g mask="url(#mask_10)"><rect transform="translate(136.85,156.95)scale(4.154336548807027,4.154336548807027)rotate(0)translate(-50,-53.971141499999995)" x="-500" y="-500" width="1100" height="1100" fill="#333333"></rect></g><g mask="url(#mask_9)"><g transform="translate(136.85,156.95)scale(4.154336548807027,4.154336548807027)rotate(0)translate(-50,-53.971141499999995)"><rect y="-1000" fill="#ddc595" width="2000" x="-1000" height="2000"></rect><g></g></g></g><g mask="url(#mask_8)"><g fill="#000000" stroke="none" stroke-width="0" style="clip-rule:evenodd" transform="translate(0,0)"><path d="M257.8 228c-2.6-3.9-3-7.8-4.2-11.5-2-6.1-6.5-11.1-12.1-14.1-6.2-3.4-13.5-3.3-20.3-5.1-5-1.4-9.5-3.5-11.1-8.6-1.6-5.1-2.3-10.9-4.6-15.8-2.3-4.8-6.8-8.3-11.6-10.4-5.5-2.4-14.1-1.8-19-7.7 1.9-3.5 3.8-6.4 5.7-9 2.8-3.8 6.5-7.3 11.2-8.2 4.6-.8 9.2 1.2 13.9 1.7 8.9 1.1 18.3-3.6 22.8-11.5 3.8-6.6 4.4-15 9.9-20.3 6.6-6.3 17.6-5.3 25.3-10.3 5.3-3.5 8.7-10.7 8.4-17-3.8 4.6-8 6.9-13.2 7.3-4.7.3-8.2-1.3-12-2.1-6.2-1.3-12.9.1-18.3 3.4-6.1 3.7-9.6 10.1-14.6 15-3.7 3.7-7.7 6.5-13 5.3-5.2-1.2-10.6-3.5-16-3.9-5.3-.4-10.5 1.7-14.8 4.9-4.8 3.5-8.6 11.4-16.1 12.6-2.1-3.4-3.6-6.5-4.9-9.5-1.9-4.3-3.1-9.3-1.5-13.8 1.6-4.4 5.6-7.4 8.4-11.2 5.4-7.2 6-17.7 1.5-25.5-3.8-6.6-10.8-11.3-12.6-18.7-2.2-8.9 4.2-17.9 3.7-27-.3-6.3-4.9-12.9-10.5-15.8 2.1 5.5 2 10.4-.3 15.1-2.1 4.2-5.3 6.5-7.8 9.4-4.2 4.7-6.4 11.2-6.2 17.5.2 7.1 3.9 13.4 5.7 20.1 1.3 5 1.7 9.9-1.9 13.9-3.6 4-8.3 7.4-11.4 11.9-3 4.4-3.8 10-3.2 15.3.7 5.9 5.6 13.1 2.9 20.3-4 .1-7.5-.1-10.7-.5-4.7-.5-9.6-2-12.7-5.6-3-3.6-3.6-8.6-5.5-12.9-3.6-8.3-12.3-14-21.3-14-7.6 0-15.2 3.7-22.5 1.6-8.7-2.4-13.3-12.4-21.4-16.6-5.7-2.8-13.6-2.2-19 1.3 5.8 1 10 3.5 12.9 7.8 2.6 3.9 3 7.8 4.2 11.5 2 6.1 6.5 11.1 12.1 14.1 6.2 3.4 13.5 3.3 20.3 5.1 5 1.4 9.5 3.5 11.1 8.6 1.6 5.1 2.3 10.9 4.6 15.8 2.3 4.8 6.8 8.3 11.6 10.4 5.5 2.4 14.1 1.8 19 7.7-1.9 3.5-3.8 6.4-5.7 9-2.8 3.8-6.5 7.3-11.2 8.2-4.6.8-9.2-1.2-13.9-1.7-8.9-1.1-18.3 3.6-22.8 11.5-3.8 6.6-4.4 15.1-9.9 20.3-6.6 6.3-17.6 5.3-25.3 10.3-5.3 3.5-8.7 10.7-8.4 17 3.8-4.6 8-6.9 13.2-7.3 4.7-.3 8.2 1.3 12 2.1 6.2 1.3 12.9-.1 18.3-3.4 6.1-3.7 9.6-10.1 14.6-15 3.7-3.7 7.7-6.5 13-5.3 5.2 1.2 10.6 3.5 16 3.9 5.3.4 10.5-1.7 14.8-4.9 4.8-3.5 8.6-11.4 16.1-12.6 2.1 3.4 3.6 6.5 4.9 9.5 1.9 4.3 3.1 9.3 1.5 13.8-1.6 4.4-5.6 7.4-8.4 11.2-5.4 7.2-6 17.7-1.5 25.5 3.8 6.6 10.8 11.3 12.6 18.7 2.2 8.9-4.2 17.9-3.7 27 .3 6.3 4.9 12.9 10.5 15.8-2.1-5.5-2-10.4.3-15.1 2.1-4.2 5.3-6.5 7.8-9.4 4.2-4.7 6.4-11.2 6.2-17.5-.2-7.1-3.9-13.4-5.7-20.1-1.3-5-1.7-9.9 1.9-13.9 3.6-4 8.3-7.4 11.4-11.9 3-4.4 3.8-10 3.2-15.3-.7-5.9-5.6-13.1-2.9-20.3 4-.1 7.5.1 10.7.5 4.7.5 9.6 2 12.6 5.6 3 3.6 3.6 8.6 5.5 12.9 3.6 8.3 12.3 14 21.3 14 7.6 0 15.2-3.7 22.5-1.6 8.8 2.6 13.4 12.6 21.5 16.7 5.6 2.9 13.6 2.2 18.9-1.2-5.7-1.1-9.8-3.6-12.8-8z" stroke="#000" stroke-width="3" stroke-miterlimit="10" stroke-linejoin="round" fill="#333333"></path></g></g></g></g></g></g></g></g></g></svg>